<svg width="280" height="279" viewBox="0 0 280 279" fill="none" xmlns="http://www.w3.org/2000/svg">
<g filter="url(#filter0_d_905_5206)">
<path d="M197.507 132.606C197.568 133.07 197.62 133.527 197.673 133.983C197.809 135.21 197.903 136.434 197.952 137.648C197.969 137.835 197.977 138.032 197.984 138.219C198.15 142.971 197.736 147.629 196.801 152.114C196.633 152.927 196.447 153.733 196.243 154.523C190.569 176.912 171.766 194.685 147.48 197.9C146.973 197.967 146.466 198.026 145.957 198.075C145.677 198.104 145.398 198.132 145.117 198.152C145.085 198.164 145.059 198.168 145.025 198.164C135.658 199.017 126.573 197.576 118.349 194.286C117.797 194.076 117.252 193.856 116.715 193.618C111.66 191.429 106.956 188.521 102.751 185.035C102.625 184.932 102.5 184.827 102.373 184.715C101.853 184.287 101.357 183.845 100.859 183.404C100.537 183.112 100.214 182.812 99.8997 182.509C99.3654 182.002 98.8465 181.482 98.3353 180.955C95.8682 178.451 93.6191 175.734 91.6325 172.794C91.3239 172.346 91.0322 171.894 90.7405 171.435C90.696 171.363 90.6545 171.3 90.61 171.23C90.197 170.571 89.7917 169.912 89.4018 169.234C89.1254 168.764 88.8644 168.284 88.6019 167.794C88.4653 167.545 88.3378 167.287 88.2104 167.039C88.0953 166.822 87.9832 166.613 87.8757 166.395C86.4203 163.514 85.1968 160.491 84.2372 157.33C83.9901 156.496 83.7506 155.659 83.5341 154.804C83.2716 153.8 83.0352 152.784 82.8294 151.755C82.5654 150.476 82.352 149.182 82.1785 147.874C80.7661 137.207 82.3458 126.832 86.2499 117.601C86.8656 116.155 87.5288 114.744 88.2565 113.361C88.2979 113.287 88.3302 113.206 88.3716 113.13C89.7733 110.49 91.3561 107.978 93.1355 105.595C93.5131 105.073 93.9077 104.558 94.313 104.048C94.4465 103.884 94.5709 103.722 94.7045 103.567C95.9142 102.067 97.1946 100.644 98.5502 99.281C107.296 90.4457 118.93 84.3385 132.212 82.5807C133.773 82.3734 135.325 82.2291 136.87 82.1524C137.04 82.1462 137.203 82.1339 137.375 82.137C141.112 81.9605 144.805 82.1585 148.413 82.6928C149.07 82.7864 149.72 82.897 150.363 83.0182C153.988 83.6799 157.514 84.6901 160.891 86.0119C161.063 86.0749 161.226 86.1394 161.39 86.2115C161.53 86.2653 161.664 86.3282 161.802 86.3835C162.371 86.6214 162.943 86.8471 163.509 87.0989C163.956 87.2969 164.404 87.5042 164.854 87.7191C165.597 88.0753 166.332 88.4422 167.063 88.8352C171.135 90.9846 174.936 93.6236 178.387 96.6695C178.825 97.058 179.264 97.4556 179.687 97.8624C181.932 99.9688 184.012 102.253 185.907 104.697C185.917 104.713 185.937 104.736 185.948 104.753C186.992 106.113 187.961 107.528 188.88 108.981C188.854 108.936 188.83 108.879 188.796 108.824C189.054 109.219 189.315 109.632 189.557 110.037C189.817 110.441 190.061 110.855 190.296 111.27C190.554 111.726 190.81 112.172 191.053 112.638C193.19 116.588 194.885 120.828 196.062 125.317C196.693 127.681 197.178 130.115 197.508 132.605L197.507 132.606Z" fill="url(#paint0_linear_905_5206)"/>
<g style="mix-blend-mode:color-dodge" opacity="0.65">
<path d="M197.507 132.606C197.568 133.07 197.62 133.527 197.673 133.983C197.809 135.21 197.903 136.434 197.952 137.648C197.969 137.835 197.977 138.032 197.984 138.219C198.15 142.971 197.735 147.629 196.801 152.115C196.633 152.927 196.447 153.733 196.243 154.523C190.569 176.912 171.765 194.685 147.48 197.9C146.973 197.967 146.466 198.026 145.957 198.075C145.677 198.104 145.398 198.132 145.117 198.152C145.085 198.164 145.059 198.168 145.025 198.164C167.791 194.171 185.644 177.976 192.666 157.271C193.001 156.3 193.302 155.325 193.583 154.334C193.741 153.773 193.897 153.211 194.039 152.652C194.254 151.817 194.45 150.966 194.628 150.1C195.099 147.822 195.446 145.51 195.658 143.155C195.68 142.989 195.694 142.833 195.706 142.668C195.78 141.732 195.835 140.788 195.866 139.848C195.927 138.371 195.921 136.896 195.87 135.408C195.818 133.913 195.714 132.414 195.551 130.916C195.494 130.425 195.439 129.943 195.374 129.455C195.221 128.298 195.035 127.155 194.817 126.025C193.945 121.384 192.553 116.956 190.713 112.796C190.503 112.309 190.283 111.822 190.056 111.337C189.685 110.545 189.29 109.764 188.888 108.993C188.854 108.938 188.83 108.881 188.797 108.824C189.055 109.219 189.316 109.632 189.559 110.037C189.818 110.441 190.062 110.855 190.297 111.27C190.555 111.726 190.812 112.172 191.054 112.638C193.191 116.588 194.886 120.828 196.064 125.317C196.695 127.681 197.18 130.115 197.51 132.605L197.507 132.606Z" fill="white"/>
</g>
<path d="M150.361 83.0198C150.82 89.3388 150.189 98.7728 142.006 102.87C130.162 108.809 104.895 118.757 93.1323 105.597C93.51 105.075 93.9045 104.559 94.3098 104.049C94.4434 103.885 94.5678 103.724 94.7013 103.569C95.2356 104.108 95.9725 104.482 96.9627 104.634C104.874 105.827 127.511 106.754 133.632 100.064C139.753 93.3719 143.955 91.1319 139.013 85.9045C137.995 84.8375 137.505 83.5371 137.372 82.137C141.108 81.9605 144.802 82.1585 148.41 82.6928C149.067 82.7864 149.716 82.897 150.36 83.0182L150.361 83.0198Z" fill="#87000D"/>
<path d="M167.06 88.8368C167.192 89.9698 167.352 91.5634 167.399 93.4717C167.656 103.253 165.087 121.212 142.423 126.229C117.323 131.793 116.809 132.196 113.291 134.808C109.773 137.421 100.676 135.19 96.0201 137.309C92.7808 138.786 86.0841 145.407 83.5325 154.804C83.27 153.8 83.0336 152.784 82.8278 151.755C82.5638 150.476 82.3504 149.182 82.1769 147.874C80.7645 137.207 82.3442 126.832 86.2483 117.601C86.5262 117.041 86.8056 116.488 87.0943 115.943C86.0672 122.458 86.1747 130.919 93.2106 132.315C97.0641 133.084 100.145 133.457 102.649 133.503C103.589 133.534 104.453 133.504 105.242 133.443C108.723 133.138 110.834 132.034 112.49 130.405C115.53 127.426 127.145 127.606 134.812 125.518C142.478 123.43 159.005 115.309 160.894 110.121C162.376 106.07 165.178 97.3957 163.788 88.6495C163.712 88.1352 163.618 87.6163 163.506 87.0989C163.953 87.297 164.401 87.5042 164.851 87.7192C165.594 88.0753 166.329 88.4423 167.06 88.8353V88.8368Z" fill="#87000D"/>
<path d="M191.056 112.682C188.177 113.51 184.273 116.835 179.895 126.576C170.717 146.947 175.983 144.309 167.378 151.048C158.773 157.786 144.296 167.447 134.668 168.078C126.539 168.614 101.96 168.253 91.6309 172.797C91.3223 172.349 91.0306 171.898 90.7389 171.439C89.9805 170.25 89.262 169.04 88.6003 167.798C90.851 166.633 94.0873 165.784 98.7421 165.735C112.756 165.606 128.421 166.546 136.84 163.276C145.252 160.007 167.605 149.517 170.545 140.731C173.442 132.061 182.676 120.226 179.362 97.9791C181.697 100.049 183.885 102.308 185.879 104.723C185.89 104.739 185.91 104.762 185.92 104.779C187.517 106.851 188.983 109.036 190.297 111.317C190.555 111.773 190.812 112.22 191.054 112.685L191.056 112.682Z" fill="#87000D"/>
<path d="M197.975 138.228C198.148 142.971 197.734 147.629 196.799 152.113C196.632 152.925 196.446 153.731 196.242 154.522C192.926 156.772 189.831 159.534 188.455 162.637C184.82 170.846 176.118 182.945 157.454 186.275C140.897 189.232 127.459 185.018 118.347 194.286C117.796 194.076 117.251 193.856 116.714 193.618C111.658 191.429 106.954 188.521 102.749 185.035C108.273 186.029 115.074 186.88 121.215 186.565C134.435 185.888 145.321 183.803 154.212 179.621C163.104 175.439 169.559 173.941 171.323 166.194C173.089 158.447 177.876 152.448 187.118 149.291C193.256 147.199 196.569 143.112 197.975 138.228Z" fill="#87000D"/>
<path d="M197.671 133.985C200.15 138.804 201.678 145.472 196.799 152.114C192.953 154.522 189.124 157.638 187.551 161.186C183.915 169.395 175.214 181.494 156.55 184.824C139.547 187.856 125.828 183.337 116.714 193.618C107.694 194.404 99.9963 186.514 100.859 183.404C106.547 184.471 113.803 185.443 120.311 185.114C133.53 184.437 144.417 182.352 153.307 178.17C162.199 173.989 168.655 172.49 170.419 164.743C172.185 156.997 176.971 150.997 186.214 147.84C193.492 145.356 196.802 140.068 197.671 133.985Z" fill="url(#paint1_linear_905_5206)"/>
<path d="M101.661 184.586C107.349 185.653 114.604 186.625 121.112 186.296C134.332 185.619 145.218 183.535 154.109 179.353C163.001 175.171 169.456 173.672 171.22 165.925C172.986 158.179 177.773 152.179 187.015 149.023C194.137 146.592 197.453 141.472 198.406 135.555C198.175 135.015 197.93 134.488 197.671 133.985C196.802 140.068 193.492 145.356 186.214 147.84C176.971 150.995 172.185 156.997 170.419 164.743C168.654 172.49 162.198 173.989 153.307 178.17C144.415 182.352 133.529 184.437 120.311 185.114C113.803 185.443 106.547 184.473 100.859 183.404C100.594 184.364 101.143 185.778 102.293 187.251C101.707 186.224 101.466 185.283 101.659 184.586H101.661Z" fill="#FCFE02"/>
<path d="M157.165 150.492C156.872 150.866 156.548 151.218 156.198 151.556C156.55 151.226 156.871 150.865 157.165 150.492ZM182.725 99.1797C181.652 98.4028 180.548 97.7841 179.323 97.1485C179.019 96.9919 178.706 96.8354 178.384 96.6711C179.862 106.607 178.84 114.454 177.002 120.869C175.884 124.752 174.475 128.116 173.135 131.093C173.049 131.284 172.961 131.467 172.857 131.653C170.935 135.299 166.85 137.316 162.741 136.573C158.802 135.867 154.118 135.061 150.229 134.485C147.366 134.066 144.94 133.768 143.562 133.736C141.107 133.675 138.686 135.172 136.297 136.845C133.374 138.898 130.497 141.219 127.67 141.276C122.534 141.389 117.688 152.334 115.995 156.852C114.962 159.617 111.618 161.931 109.183 163.319C108.113 163.924 106.906 164.221 105.678 164.212C103.177 164.2 100.678 164.188 98.2247 164.212C94.5033 164.249 91.6907 164.802 89.5675 165.625C88.9135 165.875 88.4253 166.403 88.2088 167.04C88.0706 167.427 88.0338 167.861 88.1244 168.288C88.4145 169.632 88.9104 170.399 89.81 170.967C89.9006 171.024 89.9973 171.067 90.0956 171.104C90.2629 171.171 90.4349 171.222 90.6099 171.231C90.9139 171.259 91.2255 171.21 91.5188 171.093C101.992 166.727 125.962 167.091 133.954 166.566C143.531 165.942 157.927 156.309 166.483 149.594C174.09 143.623 170.8 145.039 176.379 131.145C176.604 130.583 176.853 129.992 177.113 129.364C177.639 128.093 178.238 126.708 178.921 125.193C183.289 115.444 187.188 112.146 190.053 111.337C190.127 111.31 190.202 111.291 190.276 111.273C187.812 104.275 185.546 101.226 182.724 99.1781L182.725 99.1797ZM118.553 154.514C118.562 154.384 118.58 154.27 118.6 154.156C118.769 153.096 119.264 152.033 119.911 151.02C120.033 150.833 120.154 150.644 120.283 150.455C120.435 150.237 120.587 150.028 120.748 149.818C120.857 149.666 120.966 149.523 121.084 149.379C121.135 149.311 121.179 149.254 121.23 149.187C122.615 147.449 124.121 145.92 124.704 144.821C125.853 142.668 129.692 143.585 132.883 141.738C135.729 140.081 139.63 137.84 142.453 135.68C142.797 135.42 143.123 135.153 143.431 134.898C143.569 134.777 143.772 134.682 144.021 134.622C144.933 134.373 146.488 134.45 148.424 134.734C149.379 134.883 150.427 135.078 151.522 135.311C151.585 135.328 151.646 135.347 151.708 135.356C153.186 135.692 154.454 136.323 155.501 137.163C155.624 137.25 155.73 137.338 155.828 137.428C156.101 137.676 156.367 137.932 156.619 138.208C156.699 138.293 156.778 138.376 156.843 138.471C156.944 138.586 157.038 138.712 157.13 138.827C157.233 138.951 157.317 139.077 157.394 139.205C157.497 139.329 157.574 139.464 157.643 139.593C157.729 139.719 157.807 139.854 157.875 139.983C157.961 140.118 158.031 140.255 158.083 140.393C158.209 140.634 158.318 140.869 158.412 141.122C158.453 141.245 158.504 141.368 158.546 141.481C158.585 141.587 158.625 141.695 158.65 141.812C158.733 142.05 158.791 142.291 158.84 142.533C158.886 142.682 158.914 142.832 158.934 142.984C159.15 144.167 159.149 145.386 158.911 146.568C158.863 146.858 158.791 147.151 158.708 147.437C158.584 147.865 158.426 148.29 158.24 148.7C157.953 149.322 157.595 149.927 157.164 150.492C156.871 150.866 156.547 151.218 156.197 151.556C155.662 152.064 155.045 152.524 154.36 152.924C147.544 156.891 140.184 160.184 136.11 161.771C133.472 162.798 130.11 163.406 126.319 163.762C126.149 163.776 125.98 163.79 125.808 163.787C125.587 163.799 125.423 163.795 125.259 163.782C125.085 163.772 124.912 163.759 124.738 163.739C124.224 163.678 123.736 163.563 123.266 163.385C122.96 163.288 122.67 163.164 122.383 163.012C119.609 161.584 117.899 158.384 118.485 154.976C118.517 154.826 118.539 154.669 118.545 154.522C118.553 154.522 118.553 154.513 118.553 154.513V154.514Z" fill="url(#paint2_linear_905_5206)"/>
<path d="M127.574 164.599C131.37 164.243 134.726 163.633 137.367 162.608C141.443 161.024 148.804 157.73 155.621 153.757C162.267 149.884 161.61 140.55 155.506 137.163C160.412 141.053 160.523 149.333 154.365 152.922C147.549 156.895 140.187 160.188 136.111 161.773C133.472 162.8 130.115 163.408 126.319 163.764C124.869 163.901 123.522 163.6 122.359 162.995C123.749 164.145 125.566 164.789 127.575 164.601L127.574 164.599Z" fill="#FCFE02"/>
<path d="M179.684 97.864C179.713 98.0237 179.733 98.1756 179.755 98.3276C181.304 109.638 179.597 118.209 177.202 125.025C176.391 127.339 175.496 129.459 174.63 131.41C174.55 131.584 174.478 131.757 174.398 131.931C174.245 132.269 174.082 132.591 173.892 132.9C171.876 136.283 167.946 138.118 163.997 137.412C160.136 136.721 155.549 135.929 151.712 135.354C151.651 135.345 151.588 135.328 151.526 135.31C150.43 135.077 149.383 134.882 148.436 134.731C146.492 134.447 144.937 134.37 144.025 134.619C142.671 134.763 141.322 135.338 139.991 136.114C136.226 138.287 132.539 142.03 128.936 142.111C126.128 142.174 123.404 145.47 121.233 149.184C121.183 149.251 121.138 149.308 121.087 149.376C120.969 149.52 120.859 149.663 120.751 149.815C120.59 150.025 120.438 150.234 120.286 150.452C120.157 150.641 120.036 150.828 119.914 151.017C119.267 152.03 118.772 153.091 118.603 154.153C118.583 154.267 118.567 154.39 118.556 154.503C118.023 155.733 117.584 156.822 117.259 157.68C116.218 160.454 112.875 162.768 110.439 164.146C109.377 164.751 108.164 165.057 106.936 165.047C104.435 165.035 101.935 165.023 99.4821 165.047C95.7591 165.077 92.9481 165.637 90.8233 166.451C90.3996 166.618 90.0496 166.897 89.7947 167.247C89.4078 167.762 89.2405 168.445 89.3802 169.114C89.3864 169.157 89.4002 169.197 89.4048 169.231C89.6044 170.089 89.8899 170.695 90.3228 171.17C90.1448 171.125 89.9743 171.061 89.8147 170.963C88.915 170.395 88.4192 169.627 88.129 168.284C88.0384 167.858 88.0753 167.424 88.2134 167.035C88.4299 166.397 88.9181 165.869 89.5721 165.62C91.6953 164.799 94.5079 164.246 98.2293 164.208C100.681 164.183 103.182 164.195 105.683 164.208C106.913 164.217 108.118 163.919 109.188 163.314C111.623 161.928 114.966 159.613 116 156.848C117.695 152.329 122.54 141.385 127.675 141.271C130.501 141.214 133.38 138.893 136.302 136.84C138.69 135.167 141.111 133.67 143.566 133.732C144.945 133.764 147.371 134.06 150.234 134.481C154.123 135.057 158.805 135.863 162.746 136.569C166.854 137.313 170.941 135.295 172.862 131.648C172.966 131.463 173.054 131.28 173.139 131.088C174.48 128.111 175.889 124.747 177.007 120.865C178.844 114.448 179.867 106.603 178.388 96.6665C178.711 96.8292 179.022 96.9858 179.328 97.144C180.555 97.7795 181.658 98.3982 182.693 99.1459C181.751 98.5748 180.737 98.0574 179.643 97.5063C179.658 97.6245 179.683 97.7412 179.69 97.8609L179.684 97.864Z" fill="#FCFE02"/>
<path d="M144.48 80.5419C142.948 80.3163 142.195 80.1827 140.241 80.0123C138.841 79.8895 138.264 80.7538 137.505 81.5506C137.069 82.0081 136.739 82.5592 136.578 83.1703C136.044 85.2044 136.108 87.2801 137.657 88.7447C141.83 92.6994 138.201 94.468 132.88 99.6802C127.558 104.892 108.182 104.453 101.418 103.63C99.2611 103.369 98.5303 101.975 98.5303 100.196C98.6239 99.7615 98.6608 99.4069 98.5932 99.2211C98.2754 98.3445 95.033 100.397 94.6492 101.951C94.3314 103.251 94.7214 104.588 95.6272 105.526C105.575 115.838 129.696 106.49 140.022 101.739C149.159 97.5354 148.911 86.8978 148.527 83.2286C148.708 83.0229 148.815 82.7957 148.821 82.5423C148.872 80.4959 146.01 80.7676 144.478 80.5419H144.48Z" fill="url(#paint3_linear_905_5206)"/>
<path d="M94.9624 101.284C95.2771 102.662 96.189 103.669 98.0835 103.899C105.72 104.826 127.597 105.324 133.603 99.4391C139.61 93.5546 143.708 91.5572 138.996 87.0928C137.399 85.5836 137.206 83.5003 137.642 81.4017C137.596 81.4508 137.551 81.4999 137.505 81.5491C137.069 82.0066 136.739 82.5577 136.578 83.1687C136.044 85.2029 136.108 87.2785 137.657 88.7432C141.83 92.6979 138.201 94.4665 132.88 99.6786C127.558 104.891 108.182 104.452 101.418 103.629C99.261 103.368 98.5302 101.974 98.5302 100.194C98.6239 99.76 98.6607 99.4054 98.5932 99.2196C98.3199 98.4643 95.8789 99.8828 94.9608 101.284H94.9624Z" fill="#FCFE02"/>
<path d="M164.805 89.8992C164.714 88.889 164.749 88.1889 164.851 87.7207C163.411 86.1164 162.574 86.3482 161.558 86.1901C161.496 86.1808 161.438 86.1901 161.389 86.2131C161.189 86.2653 161.065 86.4879 161.136 86.7013C164.456 96.5391 161.639 103.481 159.926 108.173C159.705 108.778 159.318 109.412 158.785 110.058C157.915 111.135 156.573 111.707 155.19 111.633C151.289 111.42 145 111.007 142.627 110.464C139.083 109.645 127.819 110.491 126.014 116.313C124.209 122.133 112.931 121.264 109.007 122.428C107.932 122.742 107.585 123.432 107.643 124.256C107.883 127.823 105.178 130.868 101.618 130.566C99.5865 130.397 97.2391 130.047 94.488 129.501C88.0338 128.226 87.4136 121.009 88.1444 114.79C88.2027 114.517 88.2764 114.102 88.281 113.751C88.3132 113.54 88.3378 113.331 88.3701 113.129C88.3286 113.202 88.2964 113.284 88.2549 113.359C88.2119 113.159 88.1091 113.035 87.9187 113.095C87.1895 113.295 83.1641 119.34 81.9973 122.715C80.8382 126.088 77.7416 144.598 82.8279 151.755C84.7822 141.09 93.7894 136.094 97.2944 134.496C98.7436 133.831 100.637 133.598 102.649 133.504C103.501 133.46 104.367 133.449 105.242 133.445C108.921 133.405 112.61 133.448 114.564 131.995C118.083 129.382 118.771 129.722 143.695 123.416C168.62 117.111 165.995 97.2806 165.029 91.6125C164.917 90.957 164.842 90.392 164.802 89.8992H164.805ZM110.686 124.678C110.869 123.855 112.2 123.525 112.859 123.318C115.55 122.506 118.421 122.392 121.17 121.892C125.362 121.123 130.313 119.607 131.427 116.671C132.54 113.732 138.125 112.134 140.685 112.011C140.702 112.01 140.726 112.005 140.745 112.011C145.531 111.85 146.985 118.484 142.59 120.37C140.209 121.39 137.955 122.204 136.09 122.709C132.178 123.776 128.105 124.006 124.098 124.545C121.163 124.942 118.273 125.685 115.487 126.69C114.299 127.121 113.238 127.924 112.025 127.199C111.205 126.716 110.467 125.679 110.686 124.68V124.678Z" fill="url(#paint4_linear_905_5206)"/>
<path d="M112.318 128.619C113.557 129.365 114.639 128.543 115.858 128.099C118.705 127.063 121.654 126.301 124.655 125.896C128.748 125.342 132.912 125.111 136.911 124.017C138.818 123.495 141.122 122.656 143.548 121.611C147.036 120.106 146.907 115.654 144.395 113.801C145.828 115.868 145.47 119.135 142.587 120.369C140.213 121.385 137.957 122.199 136.091 122.707C132.176 123.773 128.103 124.001 124.1 124.543C121.163 124.941 118.276 125.681 115.492 126.688C114.299 127.119 113.238 127.918 112.027 127.196C111.601 126.943 111.199 126.541 110.94 126.074C110.755 127.084 111.495 128.123 112.318 128.619Z" fill="#FCFE02"/>
<path d="M87.65 114.016C87.8481 113.961 87.9509 114.087 87.997 114.297C88.0384 114.217 88.0753 114.136 88.1167 114.056C88.0845 114.266 88.0569 114.483 88.0277 114.696C88.02 115.06 87.9479 115.485 87.8895 115.772C87.1511 122.19 87.7974 129.643 94.3943 130.974C97.2038 131.541 99.6095 131.903 101.685 132.086C105.325 132.405 108.084 129.264 107.832 125.58C107.774 124.723 108.132 124.015 109.226 123.688C110.419 123.332 112.28 123.163 114.351 122.942C116.198 122.543 118.101 122.363 119.971 122.085C123.085 121.355 125.79 120.051 126.602 117.395C128.44 111.386 139.952 110.527 143.576 111.379C146 111.948 152.429 112.384 156.419 112.61C157.829 112.69 159.204 112.094 160.093 110.989C160.632 110.318 161.03 109.664 161.254 109.039C162.996 104.197 165.864 97.0288 162.465 86.8656C162.384 86.6245 162.539 86.3881 162.764 86.3451C162.358 86.2592 161.972 86.253 161.561 86.187C161.272 86.1394 161.048 86.428 161.142 86.7059C164.453 96.5406 161.639 103.483 159.927 108.175C159.706 108.78 159.316 109.414 158.788 110.063C157.918 111.135 156.571 111.713 155.191 111.638C151.287 111.425 144.999 111.012 142.628 110.464C139.085 109.645 127.821 110.491 126.016 116.313C124.21 122.133 112.932 121.264 109.008 122.428C107.937 122.746 107.587 123.432 107.642 124.261C107.883 127.827 105.181 130.872 101.621 130.568C99.5895 130.394 97.2376 130.047 94.4895 129.502C88.0384 128.223 87.4167 121.006 88.1474 114.793C88.2043 114.515 88.2764 114.102 88.2841 113.751C88.3133 113.543 88.3409 113.333 88.3731 113.13C88.3332 113.207 88.2964 113.287 88.2565 113.364C88.2119 113.16 88.1121 113.037 87.9187 113.092C87.1941 113.295 83.1641 119.339 82.0019 122.712C81.919 122.95 81.8269 123.272 81.7286 123.653C83.029 120.126 86.9346 114.219 87.6546 114.015L87.65 114.016Z" fill="#FCFE02"/>
<path style="mix-blend-mode:color-burn" opacity="0.35" d="M197.507 132.606C197.568 133.07 197.62 133.527 197.673 133.983C197.809 135.21 197.903 136.434 197.952 137.648C197.969 137.835 197.976 138.032 197.984 138.219C198.15 142.971 197.735 147.629 196.8 152.115C196.633 152.927 196.447 153.733 196.243 154.523C190.569 176.912 171.765 194.685 147.48 197.9C146.973 197.967 146.466 198.026 145.957 198.075C145.677 198.104 145.398 198.132 145.117 198.152C145.085 198.164 145.059 198.168 145.025 198.164C135.658 199.017 126.573 197.576 118.349 194.286C117.797 194.075 117.252 193.856 116.715 193.618C111.66 191.429 106.956 188.521 102.751 185.035C102.625 184.932 102.5 184.827 102.373 184.715C101.852 184.287 101.357 183.845 100.859 183.404C100.537 183.112 100.214 182.811 99.8996 182.509C98.9478 181.605 98.0328 180.661 97.15 179.704C97.2851 179.755 97.4141 179.815 97.5492 179.865C106.489 183.439 116.445 184.833 126.68 183.479C150.966 180.265 169.77 162.491 175.444 140.103C175.648 139.312 175.834 138.506 176.001 137.694C176.222 136.635 176.416 135.569 176.565 134.495C176.749 133.354 176.879 132.204 176.984 131.048C177.039 130.491 177.076 129.929 177.113 129.365C177.197 127.928 177.229 126.482 177.2 125.027C177.203 124.924 177.206 124.812 177.191 124.701C177.196 124.408 177.191 124.109 177.176 123.811C177.14 122.828 177.079 121.849 177.001 120.872C176.961 120.44 176.919 119.999 176.87 119.568C176.818 119.11 176.766 118.654 176.704 118.19C175.751 110.984 173.52 104.255 170.249 98.2232C170.006 97.7565 169.75 97.3097 169.492 96.8553C168.833 95.7054 168.135 94.5801 167.396 93.4747C166.679 92.4016 165.922 91.3607 165.144 90.3382C165.133 90.3229 165.113 90.2999 165.103 90.283C165 90.1586 164.906 90.025 164.803 89.9022C164.473 89.4816 164.134 89.064 163.788 88.6541C163.145 87.8803 162.479 87.1281 161.797 86.385C162.37 86.626 162.941 86.8517 163.506 87.1035C163.953 87.3015 164.401 87.5088 164.851 87.7237C165.594 88.0799 166.329 88.4468 167.06 88.8398C171.131 90.9892 174.933 93.6282 178.384 96.6741C178.821 97.0626 179.26 97.4602 179.684 97.867C181.929 99.9734 184.009 102.258 185.903 104.702C185.914 104.717 185.934 104.74 185.945 104.757C186.989 106.117 187.958 107.533 188.877 108.985C188.851 108.941 188.826 108.884 188.793 108.829C189.051 109.223 189.312 109.636 189.554 110.041C189.814 110.445 190.058 110.86 190.293 111.274C190.551 111.73 190.807 112.177 191.05 112.642C193.187 116.592 194.881 120.833 196.059 125.322C196.69 127.686 197.175 130.119 197.505 132.609L197.507 132.606Z" fill="url(#paint5_linear_905_5206)"/>
<g style="mix-blend-mode:overlay" opacity="0.5">
<path d="M196.061 125.32C195.664 125.57 195.241 125.807 194.814 126.026C190.415 128.343 184.638 129.786 178.017 130.878C177.682 130.939 177.337 130.993 176.984 131.048C176.783 131.083 176.582 131.119 176.379 131.145C175.808 131.237 175.218 131.324 174.629 131.41L174.553 131.421C173.998 131.504 173.433 131.578 172.859 131.654C165.852 132.625 158.131 133.389 150.231 134.487C149.632 134.567 149.033 134.654 148.435 134.734C146.439 135.024 144.454 135.339 142.455 135.68C141.632 135.823 140.809 135.967 139.988 136.117C138.756 136.349 137.525 136.589 136.297 136.847C131.928 137.76 127.592 138.875 123.39 140.273C99.2011 148.301 100.13 161.676 84.2357 157.331C83.9885 156.498 83.749 155.661 83.5325 154.806C83.27 153.802 83.0336 152.785 82.8279 151.757C77.7416 144.6 80.8382 126.089 81.9973 122.716C83.1641 119.342 87.1895 113.296 87.9187 113.097C88.1091 113.037 88.2104 113.161 88.2549 113.361C88.2964 113.287 88.3286 113.206 88.3701 113.13C89.7717 110.49 91.3545 107.978 93.1339 105.595C93.5116 105.073 93.9061 104.558 94.3114 104.048C94.445 103.884 94.5693 103.722 94.7029 103.567C95.9127 102.067 97.193 100.644 98.5487 99.281C107.296 90.4457 118.93 84.3385 132.212 82.5807C133.773 82.3734 135.325 82.2291 136.87 82.1524C137.04 82.1462 137.203 82.1339 137.375 82.137C141.111 81.9605 144.805 82.1585 148.413 82.6928C149.07 82.7864 149.72 82.897 150.363 83.0182C153.987 83.6799 157.514 84.6901 160.891 86.0119C161.063 86.0749 161.226 86.1394 161.39 86.2115C161.44 86.1885 161.498 86.1808 161.559 86.1885C162.576 86.3451 163.412 86.1148 164.852 87.7191C165.595 88.0753 166.331 88.4422 167.062 88.8352C171.133 90.9846 174.934 93.6236 178.385 96.6695C178.708 96.8323 179.019 96.9889 179.325 97.147C180.552 97.7826 181.655 98.4013 182.69 99.1489C185.55 101.226 187.816 104.275 190.297 111.271C190.555 111.727 190.812 112.174 191.054 112.639C193.191 116.589 194.886 120.83 196.064 125.319L196.061 125.32Z" fill="#FFF7F5"/>
</g>
<path style="mix-blend-mode:color-dodge" opacity="0.5" d="M168.733 149.288C175.502 142.519 175.502 131.545 168.733 124.776C161.965 118.007 150.99 118.007 144.221 124.776C137.452 131.545 137.452 142.519 144.221 149.288C150.99 156.057 161.965 156.057 168.733 149.288Z" fill="url(#paint6_radial_905_5206)"/>
<path style="mix-blend-mode:color-dodge" opacity="0.5" d="M122.021 184.431C122.663 189.281 119.251 193.733 114.403 194.375C109.553 195.017 105.101 191.605 104.459 186.757C103.818 181.907 107.229 177.455 112.077 176.813C116.927 176.172 121.379 179.583 122.021 184.431Z" fill="url(#paint7_radial_905_5206)"/>
</g>
<defs>
<filter id="filter0_d_905_5206" x="-0.000244141" y="0.000549316" width="280" height="278.404" filterUnits="userSpaceOnUse" color-interpolation-filters="sRGB">
<feFlood flood-opacity="0" result="BackgroundImageFix"/>
<feColorMatrix in="SourceAlpha" type="matrix" values="0 0 0 0 0 0 0 0 0 0 0 0 0 0 0 0 0 0 127 0" result="hardAlpha"/>
<feOffset/>
<feGaussianBlur stdDeviation="40"/>
<feComposite in2="hardAlpha" operator="out"/>
<feColorMatrix type="matrix" values="0 0 0 0 0.894118 0 0 0 0 0.152941 0 0 0 0 0.52549 0 0 0 1 0"/>
<feBlend mode="normal" in2="BackgroundImageFix" result="effect1_dropShadow_905_5206"/>
<feBlend mode="normal" in="SourceGraphic" in2="effect1_dropShadow_905_5206" result="shape"/>
</filter>
<linearGradient id="paint0_linear_905_5206" x1="79.1123" y1="129.65" x2="193.742" y2="149.63" gradientUnits="userSpaceOnUse">
<stop stop-color="#FF5F06"/>
<stop offset="0.02" stop-color="#FC5C09"/>
<stop offset="0.34" stop-color="#DE343C"/>
<stop offset="0.62" stop-color="#C81761"/>
<stop offset="0.85" stop-color="#BA0677"/>
<stop offset="0.99" stop-color="#B60080"/>
</linearGradient>
<linearGradient id="paint1_linear_905_5206" x1="99.1243" y1="171.483" x2="202.126" y2="157.849" gradientUnits="userSpaceOnUse">
<stop stop-color="#FFBB2F"/>
<stop offset="0.1" stop-color="#FFC625"/>
<stop offset="0.33" stop-color="#FFDC12"/>
<stop offset="0.48" stop-color="#FFE50C"/>
<stop offset="0.55" stop-color="#FFBF0C"/>
<stop offset="0.64" stop-color="#FF9B0C"/>
<stop offset="0.73" stop-color="#FF7F0C"/>
<stop offset="0.81" stop-color="#FF6B0C"/>
<stop offset="0.9" stop-color="#FF5F0C"/>
<stop offset="0.98" stop-color="#FF5C0C"/>
</linearGradient>
<linearGradient id="paint2_linear_905_5206" x1="84.52" y1="141.116" x2="192.331" y2="126.846" gradientUnits="userSpaceOnUse">
<stop stop-color="#FFBB2F"/>
<stop offset="0.1" stop-color="#FFC625"/>
<stop offset="0.33" stop-color="#FFDC12"/>
<stop offset="0.48" stop-color="#FFE50C"/>
<stop offset="0.55" stop-color="#FFBF0C"/>
<stop offset="0.64" stop-color="#FF9B0C"/>
<stop offset="0.73" stop-color="#FF7F0C"/>
<stop offset="0.81" stop-color="#FF6B0C"/>
<stop offset="0.9" stop-color="#FF5F0C"/>
<stop offset="0.98" stop-color="#FF5C0C"/>
</linearGradient>
<linearGradient id="paint3_linear_905_5206" x1="94.0325" y1="99.283" x2="150.076" y2="91.865" gradientUnits="userSpaceOnUse">
<stop stop-color="#FFBB2F"/>
<stop offset="0.1" stop-color="#FFC625"/>
<stop offset="0.33" stop-color="#FFDC12"/>
<stop offset="0.48" stop-color="#FFE50C"/>
<stop offset="0.52" stop-color="#FFDE11"/>
<stop offset="0.68" stop-color="#FFCA21"/>
<stop offset="0.84" stop-color="#FFBE2B"/>
<stop offset="1" stop-color="#FFBB2F"/>
</linearGradient>
<linearGradient id="paint4_linear_905_5206" x1="77.7609" y1="124.846" x2="168.174" y2="112.878" gradientUnits="userSpaceOnUse">
<stop stop-color="#FFBB2F"/>
<stop offset="0.1" stop-color="#FFC625"/>
<stop offset="0.33" stop-color="#FFDC12"/>
<stop offset="0.48" stop-color="#FFE50C"/>
<stop offset="0.55" stop-color="#FFBF0C"/>
<stop offset="0.64" stop-color="#FF9B0C"/>
<stop offset="0.73" stop-color="#FF7F0C"/>
<stop offset="0.81" stop-color="#FF6B0C"/>
<stop offset="0.9" stop-color="#FF5F0C"/>
<stop offset="0.98" stop-color="#FF5C0C"/>
</linearGradient>
<linearGradient id="paint5_linear_905_5206" x1="147.579" y1="198.4" x2="147.581" y2="86.38" gradientUnits="userSpaceOnUse">
<stop stop-color="#1C0067"/>
<stop offset="0.1" stop-color="#1C007F"/>
<stop offset="0.29" stop-color="#1C00A4"/>
<stop offset="0.47" stop-color="#1C00C2"/>
<stop offset="0.65" stop-color="#1C00D7"/>
<stop offset="0.83" stop-color="#1C00E3"/>
<stop offset="1" stop-color="#1C00E8"/>
</linearGradient>
<radialGradient id="paint6_radial_905_5206" cx="0" cy="0" r="1" gradientUnits="userSpaceOnUse" gradientTransform="translate(156.472 137.029) rotate(-7.54) scale(17.3313)">
<stop stop-color="white"/>
<stop offset="0.12" stop-color="#E7E7E7"/>
<stop offset="0.37" stop-color="#ACACAC"/>
<stop offset="0.72" stop-color="#4D4D4D"/>
<stop offset="1"/>
</radialGradient>
<radialGradient id="paint7_radial_905_5206" cx="0" cy="0" r="1" gradientUnits="userSpaceOnUse" gradientTransform="translate(113.238 185.589) rotate(-7.54) scale(8.85676 8.85676)">
<stop stop-color="white"/>
<stop offset="0.12" stop-color="#E7E7E7"/>
<stop offset="0.37" stop-color="#ACACAC"/>
<stop offset="0.72" stop-color="#4D4D4D"/>
<stop offset="1"/>
</radialGradient>
</defs>
</svg>
