<svg width="280" height="280" viewBox="0 0 280 280" fill="none" xmlns="http://www.w3.org/2000/svg">
<g filter="url(#filter0_d_905_4969)">
<path fill-rule="evenodd" clip-rule="evenodd" d="M199.604 138.468C199.604 144.018 198.823 149.395 197.348 154.468C194.422 164.675 188.75 173.713 181.177 180.762C175.763 185.81 169.371 189.824 162.335 192.494C155.957 194.921 149.054 196.239 141.821 196.239C140.797 196.239 139.76 196.215 138.748 196.154H138.736C137.224 196.081 135.723 195.934 134.248 195.751C123.09 194.288 112.956 189.653 104.735 182.75C101.65 180.178 98.8454 177.275 96.3695 174.103C94.4914 171.725 92.7962 169.2 91.3076 166.53C90.9536 165.896 90.6132 165.249 90.2712 164.602C90.2712 164.579 90.2593 164.565 90.2474 164.541C89.8935 163.847 89.565 163.151 89.2483 162.443H89.2364C88.2373 160.237 87.3583 157.955 86.6504 155.613C86.1136 153.93 85.6631 152.199 85.2973 150.443C85.2855 150.431 85.2855 150.406 85.2855 150.394C85.0298 149.163 84.8096 147.918 84.6386 146.661C84.2491 143.979 84.0526 141.247 84.0526 138.467C84.0526 136.87 84.1136 135.271 84.2592 133.709C84.332 132.709 84.4421 131.721 84.5759 130.734C85.3194 125.051 86.9045 119.636 89.1975 114.6C90.3203 112.124 91.6124 109.746 93.0637 107.465C95.4787 103.66 98.3322 100.173 101.552 97.0383C111.955 86.9179 126.163 80.6859 141.821 80.6859C142.431 80.6859 143.041 80.6977 143.639 80.7096C144.285 80.7333 144.931 80.7587 145.578 80.8078C148.895 81.0279 152.138 81.5157 155.273 82.271C157.102 82.7096 158.895 83.2227 160.651 83.8324C161.847 84.2354 163.017 84.6859 164.176 85.1736C165.041 85.5394 165.883 85.9171 166.724 86.3201C166.87 86.393 167.017 86.4539 167.163 86.5267C172.774 89.2702 177.859 92.8808 182.272 97.2094C182.906 97.819 183.517 98.4541 184.127 99.0993C184.53 99.5379 184.931 99.9901 185.322 100.441C185.993 101.196 186.64 101.99 187.273 102.783C189.578 105.709 191.602 108.856 193.297 112.197C195.285 116.075 196.847 120.209 197.907 124.539C199.016 129.003 199.602 133.662 199.602 138.467L199.604 138.468Z" fill="url(#paint0_radial_905_4969)"/>
<g style="mix-blend-mode:multiply" opacity="0.4">
<path fill-rule="evenodd" clip-rule="evenodd" d="M98.5794 112.61C97.482 114.856 96.642 116.688 96.4236 119.142C96.2644 120.939 95.9596 122.69 96.1374 124.507C96.3237 126.409 97.0722 128.062 97.6463 129.857C98.3288 131.992 99.4363 134.002 101.045 135.594C103.809 138.331 107.716 138.384 110.993 136.58C112.668 135.659 114.061 134.421 115.831 133.632C118.266 132.546 120.563 131.523 122.253 129.352C124.095 126.986 124.786 124.205 125.091 121.252C125.272 119.486 125.516 117.835 125.125 116.072C124.817 114.685 124.244 113.26 123.54 112.028C123.001 111.086 122.38 110.134 121.708 109.279C120.73 108.036 119.677 107.609 118.288 106.977C117.435 106.59 116.759 106.148 115.785 106.114C114.713 106.077 113.494 106.061 112.434 106.188C111.16 106.341 110.033 106.817 108.834 107.221C107.692 107.606 106.503 107.839 105.389 108.307C104.27 108.776 103.206 109.121 102.036 109.457C100.554 109.882 99.3584 110.29 98.2407 111.398C97.9782 111.658 97.5396 111.995 97.3245 112.292C96.9045 112.867 97.04 113.482 98.5794 112.615V112.61Z" fill="#B9BFE2"/>
<path fill-rule="evenodd" clip-rule="evenodd" d="M119.53 137.257C119.846 136.192 120.063 134.16 121.089 133.381C121.503 133.068 122.106 132.817 122.608 132.698C123.445 132.502 124.034 132.771 124.764 133.168C126.597 134.163 126.255 136.99 125.239 138.49C124.365 139.782 122.163 140.931 120.757 139.877C119.77 139.137 119.238 137.606 119.581 136.384C119.665 136.367 119.752 136.348 119.836 136.331L119.528 137.256L119.53 137.257Z" fill="#B9BFE2"/>
<path fill-rule="evenodd" clip-rule="evenodd" d="M154.345 154.819C154.24 155.957 153.911 157.708 154.092 158.963C154.267 160.162 154.492 161.353 154.794 162.526C155.327 164.602 156.091 167.019 158.338 167.81C160.335 168.513 162.723 167.834 164.604 167.073C166.614 166.259 168.868 165.613 170.682 164.403C172.492 163.192 174.264 161.674 175.617 159.981C177.1 158.125 177.722 156.472 177.778 154.043C177.856 150.612 176.443 147.595 174.687 144.722C172.745 141.549 169.158 140.622 165.725 141.86C162.851 142.897 161.369 145.992 159.269 148.05C158.612 148.695 158.128 149.422 157.429 149.967C156.628 150.59 156.323 151.239 155.822 152.064C155.42 152.722 154.882 153.129 154.573 153.881C154.184 154.831 154.348 155.962 154.348 154.821L154.345 154.819Z" fill="#B9BFE2"/>
<path fill-rule="evenodd" clip-rule="evenodd" d="M180.84 152.97C181.033 152.694 182.383 149.727 183.605 149.86C184.193 149.925 184.655 150.577 184.936 151.053C185.392 151.821 185.753 152.536 185.156 153.41C184.391 154.528 181.282 155.356 181.089 153.339C181.006 153.319 180.923 153.298 180.84 153.28V152.971V152.97Z" fill="#B9BFE2"/>
<path fill-rule="evenodd" clip-rule="evenodd" d="M133.842 91.3211C134.035 91.045 135.384 88.078 136.607 88.2118C137.195 88.2761 137.657 88.9281 137.938 89.404C138.394 90.1729 138.754 90.8875 138.158 91.7614C137.393 92.8791 134.284 93.7072 134.09 91.6902C134.008 91.6699 133.925 91.6513 133.842 91.631V91.3228V91.3211Z" fill="#B9BFE2"/>
<path fill-rule="evenodd" clip-rule="evenodd" d="M165.908 134.866C166.101 134.59 167.451 131.623 168.674 131.757C169.261 131.821 169.724 132.473 170.005 132.949C170.46 133.718 170.821 134.433 170.225 135.306C169.459 136.424 166.35 137.252 166.157 135.235C166.074 135.215 165.991 135.195 165.908 135.176V134.868V134.866Z" fill="#B9BFE2"/>
<path fill-rule="evenodd" clip-rule="evenodd" d="M158.042 120.62C157.349 122.476 156.506 123.621 157.073 125.379C157.347 126.233 157.471 127.125 157.713 127.985C158.187 129.664 159.496 130.687 160.672 131.879C162.225 133.454 163.608 133.941 165.691 132.942C166.375 132.615 166.987 132.155 167.593 131.709C168.523 131.025 168.899 130.57 169.447 129.545C169.932 128.639 170.069 127.794 170.435 126.851C170.828 125.833 171.268 125.025 171.302 123.896C171.334 122.81 171.414 121.628 171.124 120.585C170.751 119.244 170.039 118.067 169.317 116.9C168.682 115.873 167.93 114.89 166.977 114.121C166.184 113.481 165.171 113.494 164.198 113.288C162.516 112.932 160.081 114.293 159.185 115.675C157.928 117.614 157.249 119.874 158.043 120.62H158.042Z" fill="#B9BFE2"/>
<path fill-rule="evenodd" clip-rule="evenodd" d="M154.037 131.711C154.201 133.034 154.626 134.248 155.314 135.352C155.524 135.173 155.866 135.081 156.138 135.046C156.15 134.66 156.443 134.524 156.516 134.19C156.597 133.823 156.494 133.323 156.499 132.944C156.507 132.253 156.269 131.704 156.042 131.091C155.854 130.583 155.595 129.725 154.951 129.841C153.732 130.063 153.849 131.068 154.035 131.711H154.037Z" fill="#B9BFE2"/>
<path fill-rule="evenodd" clip-rule="evenodd" d="M96.2677 168.682C96.3524 169.732 96.305 170.614 96.8842 171.5C97.46 172.381 98.1746 173.18 98.9011 173.94C99.3906 174.452 100.293 175.536 101.126 175.07C101.809 174.689 102.038 173.321 101.966 172.631C101.909 172.076 101.706 171.459 101.57 170.912C101.413 170.276 101.148 169.668 100.774 169.129C100.136 168.213 98.6403 166.508 97.3482 167.331C96.979 167.566 96.6031 167.742 96.4049 168.125C96.2169 168.487 96.2694 168.873 96.2694 168.682H96.2677Z" fill="#B9BFE2"/>
<path fill-rule="evenodd" clip-rule="evenodd" d="M125.271 164.062C125.064 163.519 124.92 162.963 124.836 162.392C124.749 162.216 124.78 162.064 124.929 161.937C125.132 161.329 125.33 160.726 125.642 160.162C126.202 159.153 126.866 158.03 127.882 157.417C128.255 157.192 128.643 157.132 129.059 157.031C129.482 156.929 129.901 156.765 130.331 156.69C131.068 156.562 131.892 156.722 132.604 156.91C133.4 157.12 134.38 157.366 135.1 157.769C135.789 158.155 136.211 158.836 136.632 159.478C137.498 160.799 137.864 162.672 136.656 163.952C136.323 164.306 135.899 164.577 135.5 164.85C135.076 165.139 134.673 165.503 134.219 165.747C133.676 166.037 132.954 166.096 132.356 166.218C131.201 166.455 129.979 166.435 128.842 166.105C127.642 165.756 126.771 164.924 125.269 164.059L125.271 164.062Z" fill="#B9BFE2"/>
</g>
<path fill-rule="evenodd" clip-rule="evenodd" d="M175.41 117.929C175.41 117.929 172.301 123.555 173.957 133.62C177.642 156.018 189.958 152.597 189.162 142.199L175.41 117.929Z" fill="url(#paint1_linear_905_4969)"/>
<path style="mix-blend-mode:screen" fill-rule="evenodd" clip-rule="evenodd" d="M159.388 174.887C158.336 183.46 148.247 189.277 136.851 187.88C125.455 186.482 117.069 178.401 118.121 169.829C119.172 161.256 129.262 155.439 140.658 156.836C152.054 158.233 160.44 166.314 159.388 174.887Z" fill="url(#paint2_radial_905_4969)"/>
<path fill-rule="evenodd" clip-rule="evenodd" d="M167.161 86.5318C166.972 86.5521 166.78 86.5724 166.591 86.6114C165.939 86.7316 165.429 86.6724 164.787 86.4912C164.326 86.3608 163.994 86.1711 163.503 86.0898C162.802 85.9797 162.15 85.6783 161.449 85.5885C160.707 85.4886 160.066 85.1973 159.364 84.9467C158.814 84.7468 158.523 84.8163 157.991 84.9467C157.459 85.0872 157.088 84.8671 156.618 84.6656C156.086 84.4352 155.556 84.3946 154.993 84.2845C153.53 83.9831 152.077 83.5123 150.624 83.1414C149.722 82.9111 148.89 82.9111 147.969 82.9009C147.247 82.8908 146.595 83.1008 145.874 83.1008C145.393 83.1008 144.981 83.0212 144.501 82.95C144.009 82.8603 143.508 82.9602 143.017 82.8908C142.285 82.7807 141.894 82.6706 141.152 82.9009C140.602 83.0804 140.17 83.0618 139.62 83.0906C139.008 83.1211 138.318 83.2803 137.716 83.4208C136.634 83.6715 135.452 83.8713 134.339 83.851C133.659 83.851 132.656 83.6613 132.004 83.8916C131.582 84.0423 131.372 84.4928 131.083 84.7943C130.522 85.3751 129.83 85.8967 129.359 86.5487C128.888 87.2007 128.356 87.8714 128.397 88.6927C128.438 89.404 128.768 90.2355 129.078 90.8875C129.398 91.5784 129.508 92.2101 128.797 92.6707C127.904 93.2618 126.873 93.8037 125.85 94.0933C125.169 94.2931 124.558 94.4134 123.985 93.9222C123.775 93.741 123.645 93.3905 123.384 93.2516C123.113 93.1111 122.834 93.2516 122.543 93.3414C121.821 93.5514 121.12 93.7918 120.388 93.9121C119.938 93.9815 119.547 94.222 119.106 94.3033C118.575 94.4032 118.194 94.012 117.643 94.1424C116.871 94.3236 116.1 94.6437 115.298 94.6843C114.727 94.7148 114.006 94.4642 113.523 94.1729C113.242 94.012 113.172 93.8528 112.852 93.9426C112.592 94.0035 112.2 94.3236 112.06 94.5234C111.87 94.7944 111.799 95.145 111.609 95.4261C111.409 95.736 111.218 96.0374 111.039 96.3677C110.708 97.0095 110.317 97.6107 109.895 98.1814C109.594 98.5828 109.384 99.123 109.054 99.4939C108.883 99.6937 108.512 99.8343 108.292 99.985C107.691 100.407 107.059 100.786 106.478 101.238C105.355 102.121 104.293 103.093 103.15 103.944C102.278 104.596 101.055 104.977 100.063 105.387C99.4415 105.638 98.7996 105.819 98.1781 106.078C97.9783 106.158 97.6074 106.249 97.4363 106.398C97.2162 106.588 97.096 106.94 96.8944 107.199C96.3525 107.861 95.7818 108.522 95.372 109.284C95.1213 109.724 94.9706 110.176 94.8114 110.657C94.5913 111.309 94.2407 111.911 94.0189 112.561C93.5684 113.924 93.4769 115.347 92.9773 116.7C92.6861 117.492 92.2661 118.214 91.9054 118.935C91.2838 120.158 91.1941 121.611 91.0129 122.964C90.913 123.757 90.9519 124.668 91.0925 125.44C91.2432 126.272 91.2026 127.134 91.1924 127.985C91.1822 128.888 90.6115 129.769 90.0391 130.451C89.5175 131.083 88.7267 131.323 88.1458 131.884C87.6547 132.365 87.0636 132.917 86.8536 133.598C86.7639 133.899 86.8435 134.239 86.7944 134.56C86.664 135.271 86.4845 135.943 86.3828 136.665C86.2728 137.557 86.2524 138.399 86.2524 139.3C86.2524 139.75 86.222 140.212 86.2423 140.663C86.2626 141.093 86.4218 141.494 86.4523 141.926C86.4726 142.228 86.4116 142.528 86.4523 142.829C86.5115 143.169 86.6419 143.52 86.7232 143.852C86.9231 144.653 87.0738 145.435 87.2245 146.236C87.3651 146.978 87.6547 147.71 87.8867 148.431C88.2067 149.413 88.4184 150.426 88.6081 151.447C88.7588 152.209 88.7487 153 88.8587 153.772C88.9485 154.394 89.0891 155.026 89.1195 155.647C89.15 156.589 88.9197 157.532 88.9096 158.484C88.8994 160.087 89.5412 161.691 89.9121 163.234C90.0222 163.664 90.1323 164.106 90.2525 164.536C86.2846 156.699 84.0492 147.84 84.0492 138.46C84.0492 127.054 87.3566 116.422 93.0586 107.462C95.4837 103.653 98.3305 100.166 101.546 97.0383C111.96 86.923 126.162 80.6892 141.825 80.6892C143.088 80.6892 144.331 80.7299 145.573 80.8094C153.28 81.3006 160.575 83.3057 167.16 86.5318H167.161Z" fill="url(#paint3_linear_905_4969)"/>
<path style="mix-blend-mode:screen" fill-rule="evenodd" clip-rule="evenodd" d="M172.618 117.987C170.741 121.238 164.098 120.917 157.781 117.269C151.464 113.621 147.864 108.029 149.742 104.778C151.618 101.526 158.262 101.848 164.579 105.496C170.895 109.143 174.496 114.735 172.618 117.987Z" fill="url(#paint4_radial_905_4969)"/>
<path fill-rule="evenodd" clip-rule="evenodd" d="M185.47 158.585C185.47 158.585 179.702 158.668 175.014 164.541C170.327 170.414 170.367 175.614 171.041 177.358C171.715 179.102 185.47 158.585 185.47 158.585Z" fill="url(#paint5_radial_905_4969)"/>
<path style="mix-blend-mode:screen" fill-rule="evenodd" clip-rule="evenodd" d="M179.993 146.634C173.341 147.53 167.095 141.938 166.045 134.143C164.995 126.348 169.537 119.303 176.189 118.405C182.841 117.509 189.087 123.101 190.137 130.897C191.187 138.692 186.645 145.737 179.993 146.633V146.634Z" fill="url(#paint6_radial_905_4969)"/>
<path style="mix-blend-mode:screen" fill-rule="evenodd" clip-rule="evenodd" d="M107.564 183.59C101.591 178.589 96.6404 172.396 93.0824 165.38C90.8469 160.97 89.1636 156.24 88.1221 151.28C88.1119 151.269 88.1119 151.249 88.1119 151.229C87.3109 147.379 86.8791 143.391 86.8791 139.303C86.8791 127.897 90.1865 117.266 95.8885 108.305C98.3136 104.496 101.16 101.01 104.376 97.8817C114.79 87.7613 128.99 81.5275 144.655 81.5275C145.918 81.5275 147.159 81.5681 148.402 81.6477C152.319 81.8984 156.128 82.547 159.791 83.5411C155.276 82.0609 150.511 81.1261 145.574 80.8094C144.331 80.7299 143.088 80.6892 141.826 80.6892C126.162 80.6892 111.962 86.923 101.548 97.0451C98.3305 100.171 95.4854 103.66 93.0603 107.469C87.3583 116.429 84.0509 127.061 84.0509 138.466C84.0509 142.556 84.4811 146.544 85.2838 150.392C85.2838 150.412 85.2838 150.433 85.2939 150.443C86.3354 155.403 88.0205 160.135 90.2542 164.543C93.8123 171.558 98.7624 177.752 104.735 182.753C111.066 188.064 118.539 192.03 126.736 194.244C119.645 191.93 113.159 188.286 107.564 183.592V183.59Z" fill="url(#paint7_radial_905_4969)"/>
<path fill-rule="evenodd" clip-rule="evenodd" d="M180.115 181.72C180.115 181.72 173.539 183.317 171.336 178.387C169.133 173.458 177.522 160.518 184.266 158.824C191.009 157.129 192.315 165.055 192.315 165.055L180.115 181.722V181.72Z" fill="#004A59"/>
<path fill-rule="evenodd" clip-rule="evenodd" d="M140.291 91.2059C140.291 91.2059 142.993 100.303 152.65 107.15C168.223 118.194 174.655 114.216 174.655 114.216L140.291 91.2059Z" fill="url(#paint8_radial_905_4969)"/>
<path fill-rule="evenodd" clip-rule="evenodd" d="M161.468 191.971C161.468 191.971 168.166 188.455 168.306 183.68C168.445 178.904 158.196 172.379 138.209 169.502C119.902 166.867 105.902 170.894 104.979 174.437C104.055 177.979 108.83 186.606 118.536 190.919C128.241 195.233 156.496 194.406 161.471 191.969L161.468 191.971Z" fill="#004A59"/>
<path fill-rule="evenodd" clip-rule="evenodd" d="M129.459 107.86C129.459 107.86 133.533 114.304 139.857 114.862C146.181 115.421 148.05 110.464 148.05 110.464C148.05 110.464 133.649 110.351 129.459 107.86Z" fill="url(#paint9_radial_905_4969)"/>
<path fill-rule="evenodd" clip-rule="evenodd" d="M126.778 102.756C126.778 102.756 128.98 111.042 137.555 113.232C146.99 115.641 149.755 109.465 148.389 106.085C147.022 102.705 135.874 97.5227 126.778 102.756Z" fill="#00777A"/>
<path fill-rule="evenodd" clip-rule="evenodd" d="M108.292 99.9918C108.292 99.9918 114.236 101.094 122.986 95.8952C131.737 90.6962 129.928 85.9019 129.928 85.9019L108.292 99.9901V99.9918Z" fill="url(#paint10_radial_905_4969)"/>
<path fill-rule="evenodd" clip-rule="evenodd" d="M106.216 96.173C106.216 96.173 103.987 99.2348 108.292 99.9918C112.597 100.749 127.151 93.6073 129.835 88.2084C132.521 82.8078 118.409 79.7781 106.214 96.1747L106.216 96.173Z" fill="#00777A"/>
<path fill-rule="evenodd" clip-rule="evenodd" d="M144.793 84.9518C144.793 84.9518 139.069 85.9374 138.761 88.9112C138.453 91.885 147.821 103.77 158.018 110.063C168.215 116.356 178.198 114.232 179.739 112.688C181.28 111.142 166.414 86.4996 144.795 84.9535L144.793 84.9518Z" fill="#006D7A"/>
<path fill-rule="evenodd" clip-rule="evenodd" d="M184.791 118.944C184.791 118.944 179.338 113.23 175.014 115.374C171.458 117.137 172.984 134.597 176.681 141.256C180.377 147.915 185.153 147.313 187.002 145.842C188.852 144.37 189.263 124.852 184.791 118.942V118.944Z" fill="#004A59"/>
<path fill-rule="evenodd" clip-rule="evenodd" d="M184.421 106.085C184.421 106.085 182.758 105.553 181.646 107.155C180.533 108.757 188.235 119.728 191.47 121.022C194.704 122.314 195.353 117.672 195.353 117.672L184.421 106.083V106.085Z" fill="#004A59"/>
<path fill-rule="evenodd" clip-rule="evenodd" d="M143.098 88.7317C140.526 93.0976 163.734 117.901 177.759 113.225C180.532 112.3 182.034 94.0933 172.675 85.4582C164.897 78.2811 148.182 80.105 143.098 88.7317Z" fill="url(#paint11_radial_905_4969)"/>
<path fill-rule="evenodd" clip-rule="evenodd" d="M177.759 118.156C173.563 119.913 174.216 138.49 179.454 143.882C184.692 149.274 192.703 141.418 193.473 133.254C194.244 125.09 184.384 115.386 177.761 118.158L177.759 118.156Z" fill="url(#paint12_radial_905_4969)"/>
<path fill-rule="evenodd" clip-rule="evenodd" d="M183.151 108.195C182.901 111.963 191.014 120.089 193.516 119.233C196.017 118.378 198.403 112.405 196.708 108.195C195.013 103.983 183.46 103.574 183.151 108.195Z" fill="url(#paint13_radial_905_4969)"/>
<path fill-rule="evenodd" clip-rule="evenodd" d="M109.586 172.528C98.7404 175.322 116.754 196.645 132.162 199.448C150.186 202.727 166.582 190.562 166.89 183.856C167.199 177.15 129.919 167.29 109.584 172.528H109.586Z" fill="url(#paint14_radial_905_4969)"/>
<path fill-rule="evenodd" clip-rule="evenodd" d="M173.029 178.105C171.038 173.339 182.503 158.355 187.819 160.125C193.135 161.894 196.599 174.284 189.436 179.368C185.172 182.394 175.109 183.08 173.029 178.105Z" fill="url(#paint15_radial_905_4969)"/>
<path fill-rule="evenodd" clip-rule="evenodd" d="M108.515 98.8063C113.829 99.963 126.402 91.2211 128.697 87.0517C130.993 82.8823 119.244 77.3581 111.333 81.4242C105.733 84.3032 103.802 97.7818 108.515 98.8063Z" fill="url(#paint16_radial_905_4969)"/>
<path fill-rule="evenodd" clip-rule="evenodd" d="M128.99 98.9097C123.066 101.657 129.765 109.423 136.587 111.67C143.408 113.918 149.417 109.833 148.26 105.291C147.105 100.747 139.479 94.0476 128.99 98.9097Z" fill="url(#paint17_radial_905_4969)"/>
<path fill-rule="evenodd" clip-rule="evenodd" d="M113.97 169.088C113.97 169.088 136.827 165.805 159.202 175.199C159.202 175.199 138.135 162.257 113.97 169.088Z" fill="url(#paint18_radial_905_4969)"/>
<path fill-rule="evenodd" clip-rule="evenodd" d="M181.646 108.273C181.646 108.273 183.156 115.545 189.162 119.296C189.162 119.296 183.478 113.599 181.646 108.273Z" fill="url(#paint19_radial_905_4969)"/>
<path style="mix-blend-mode:screen" fill-rule="evenodd" clip-rule="evenodd" d="M84.0491 138.465C84.315 141.398 85.7681 125.518 91.0145 122.971C96.261 120.424 112.222 131.847 119.582 136.385C136.585 146.87 155.679 134.966 160.404 128.563C165.129 122.16 158.047 112.141 154.04 109.911C150.033 107.68 148.014 117.535 139.859 116.382C131.703 115.228 125.428 105.855 124.791 102.762C124.155 99.67 131.857 95.2026 135.091 94.7403C138.326 94.2779 141.891 85.2126 139.623 83.094C137.356 80.9755 133.628 91.0518 124.791 97.0485C118.454 101.348 108.595 105.169 103.357 97.4126C103.357 97.4126 81.8459 114.102 84.0508 138.465H84.0491Z" fill="url(#paint20_radial_905_4969)"/>
<path style="mix-blend-mode:screen" fill-rule="evenodd" clip-rule="evenodd" d="M144.948 89.5446C144.697 93.4955 153.381 91.6784 161.18 91.2059C168.978 90.7334 175.014 90.7622 175.014 90.7622C175.014 90.7622 169.143 83.8849 159.3 82.8061C149.457 81.7273 145.1 87.1211 144.948 89.5446Z" fill="url(#paint21_linear_905_4969)"/>
<path style="mix-blend-mode:screen" fill-rule="evenodd" clip-rule="evenodd" d="M107.65 94.3473C110.016 95.4312 110.595 88.2575 113.829 84.9518C117.064 81.6461 120.915 81.0161 120.915 81.0161C120.915 81.0161 114.292 80.8857 110.133 82.8061C105.973 84.7266 105.638 93.4244 107.65 94.3473Z" fill="url(#paint22_linear_905_4969)"/>
<path style="mix-blend-mode:screen" fill-rule="evenodd" clip-rule="evenodd" d="M128.233 100.527C128.233 100.527 132.084 97.5125 137.168 97.7445C142.251 97.9748 145.945 101.377 145.945 101.377C145.945 101.377 142.097 100.21 139.401 101.057C136.705 101.904 132.546 106.392 128.233 100.529V100.527Z" fill="url(#paint23_linear_905_4969)"/>
<path style="mix-blend-mode:screen" fill-rule="evenodd" clip-rule="evenodd" d="M177.297 119.296C177.297 119.296 182.689 117.267 187.695 121.948C192.701 126.629 193.087 130.844 193.087 130.844C193.087 130.844 189.853 125.928 186.616 125.469C183.382 125.01 179.416 127.398 177.778 125.935C176.14 124.471 175.885 120.746 177.297 119.296Z" fill="url(#paint24_linear_905_4969)"/>
<path style="mix-blend-mode:screen" fill-rule="evenodd" clip-rule="evenodd" d="M184.264 106.756C184.264 106.756 185.402 105.232 189.16 105.321C192.918 105.411 195.263 107.14 196.168 108.273C197.072 109.406 196.552 113.23 196.552 113.23C196.552 113.23 196.244 110.144 194.703 108.679C193.162 107.216 184.22 110.759 184.262 106.754L184.264 106.756Z" fill="url(#paint25_linear_905_4969)"/>
<path style="mix-blend-mode:screen" fill-rule="evenodd" clip-rule="evenodd" d="M175.014 171.61C175.014 171.61 181.717 160.756 186.54 161.512C191.363 162.267 193.087 169.762 193.087 169.762C193.087 169.762 190.183 165.742 184.264 166.379C178.345 167.017 175.014 171.61 175.014 171.61Z" fill="url(#paint26_linear_905_4969)"/>
<path style="mix-blend-mode:screen" fill-rule="evenodd" clip-rule="evenodd" d="M107.65 175.183C107.65 175.183 116.847 170.55 135.242 173.149C153.637 175.749 164.111 181.741 164.111 181.741C164.111 181.741 145.073 177.617 133.842 179.466C122.61 181.316 119.188 191.167 119.188 191.167C119.188 191.167 105.321 185.228 107.65 175.183Z" fill="url(#paint27_linear_905_4969)"/>
<path fill-rule="evenodd" clip-rule="evenodd" d="M137.432 198.721C137.432 198.721 150.126 196.936 156.548 193.978C156.548 193.978 143.163 201.494 137.432 198.721Z" fill="#FFFF8D"/>
<path fill-rule="evenodd" clip-rule="evenodd" d="M174.655 178.387C174.655 178.387 179.763 180.083 186.54 179.466C186.54 179.466 178.552 182.542 174.655 178.387Z" fill="#FFFF8D"/>
<path fill-rule="evenodd" clip-rule="evenodd" d="M176.377 134.107C176.377 134.107 180.548 141.743 184.731 143.676C184.731 143.676 179.751 145.44 176.377 134.107Z" fill="#FFFF8D"/>
<path fill-rule="evenodd" clip-rule="evenodd" d="M155.234 102.756C155.234 102.756 162.873 111.235 175.014 112.307L155.234 102.756Z" fill="#FFFF8D"/>
<path fill-rule="evenodd" clip-rule="evenodd" d="M130.167 106.085C130.167 106.085 134.257 111.518 141.827 111.674L130.167 106.085Z" fill="#FFFF8D"/>
<path fill-rule="evenodd" clip-rule="evenodd" d="M108.292 97.731C108.292 97.731 116.338 96.5506 124.788 90.5624L108.292 97.731Z" fill="#FFFF8D"/>
<path fill-rule="evenodd" clip-rule="evenodd" d="M92.4473 130.825C92.4473 130.825 101.355 137.779 105.116 154.599C105.116 154.599 107.272 138.085 92.4473 130.825Z" fill="url(#paint28_radial_905_4969)"/>
<path fill-rule="evenodd" clip-rule="evenodd" d="M92.6794 166.257C92.6794 166.257 99.9326 169.771 103.751 166.091C107.57 162.411 105.228 149.945 99.9817 140.504C94.7353 131.062 88.3101 126.886 85.6225 128.255C83.7698 129.198 73.9678 152.685 92.6794 166.257Z" fill="#00777A"/>
<path fill-rule="evenodd" clip-rule="evenodd" d="M86.9129 130.597C82.1169 129.386 78.3184 145.965 80.7638 154.956C83.9442 166.645 99.5956 168.375 102.9 164.833C106.204 161.29 103.965 134.9 86.9129 130.597Z" fill="url(#paint29_radial_905_4969)"/>
<path style="mix-blend-mode:screen" fill-rule="evenodd" clip-rule="evenodd" d="M81.8087 153.708C81.8087 153.708 80.4895 136.66 84.7452 133.586C89.001 130.512 95.4262 137.002 95.4262 137.002C95.4262 137.002 92.3406 137.831 88.3118 140.069C84.2829 142.306 81.807 153.706 81.807 153.706L81.8087 153.708Z" fill="url(#paint30_linear_905_4969)"/>
<path fill-rule="evenodd" clip-rule="evenodd" d="M87.4785 162.001C87.4785 162.001 93.1314 165.07 97.3262 165.407C97.3262 165.407 91.8376 167.534 87.4785 162.001Z" fill="#FFFF8D"/>
</g>
<defs>
<filter id="filter0_d_905_4969" x="0.000244141" y="0.00158691" width="279.604" height="279.997" filterUnits="userSpaceOnUse" color-interpolation-filters="sRGB">
<feFlood flood-opacity="0" result="BackgroundImageFix"/>
<feColorMatrix in="SourceAlpha" type="matrix" values="0 0 0 0 0 0 0 0 0 0 0 0 0 0 0 0 0 0 127 0" result="hardAlpha"/>
<feOffset/>
<feGaussianBlur stdDeviation="40"/>
<feComposite in2="hardAlpha" operator="out"/>
<feColorMatrix type="matrix" values="0 0 0 0 0.278431 0 0 0 0 0.992157 0 0 0 0 0.117647 0 0 0 1 0"/>
<feBlend mode="normal" in2="BackgroundImageFix" result="effect1_dropShadow_905_4969"/>
<feBlend mode="normal" in="SourceGraphic" in2="effect1_dropShadow_905_4969" result="shape"/>
</filter>
<radialGradient id="paint0_radial_905_4969" cx="0" cy="0" r="1" gradientUnits="userSpaceOnUse" gradientTransform="translate(106.044 111.442) scale(92.8091)">
<stop stop-color="#0CC463"/>
<stop offset="0.21" stop-color="#0BC063"/>
<stop offset="0.36" stop-color="#0AB764"/>
<stop offset="0.5" stop-color="#08A667"/>
<stop offset="0.63" stop-color="#068F6A"/>
<stop offset="0.76" stop-color="#03716E"/>
<stop offset="0.87" stop-color="#004F74"/>
</radialGradient>
<linearGradient id="paint1_linear_905_4969" x1="181.334" y1="150.285" x2="181.334" y2="117.929" gradientUnits="userSpaceOnUse">
<stop stop-color="#007C6F"/>
<stop offset="0.66" stop-color="#29D73A"/>
<stop offset="0.99" stop-color="#3BFF24"/>
</linearGradient>
<radialGradient id="paint2_radial_905_4969" cx="0" cy="0" r="1" gradientUnits="userSpaceOnUse" gradientTransform="translate(139.153 171.683) rotate(6.99) scale(20.8265 15.5887)">
<stop stop-color="#00FF00"/>
<stop offset="1"/>
</radialGradient>
<linearGradient id="paint3_linear_905_4969" x1="84.0492" y1="122.615" x2="167.161" y2="122.615" gradientUnits="userSpaceOnUse">
<stop offset="0.01" stop-color="#92FF2C"/>
<stop offset="0.23" stop-color="#8FFC2D"/>
<stop offset="0.39" stop-color="#85F231"/>
<stop offset="0.54" stop-color="#75E339"/>
<stop offset="0.67" stop-color="#5FCD44"/>
<stop offset="0.8" stop-color="#42B052"/>
<stop offset="0.91" stop-color="#1E8E63"/>
<stop offset="1" stop-color="#007072"/>
</linearGradient>
<radialGradient id="paint4_radial_905_4969" cx="0" cy="0" r="1" gradientUnits="userSpaceOnUse" gradientTransform="translate(161.083 110.584) rotate(30) scale(13.1856 6.78387)">
<stop stop-color="#00FF00"/>
<stop offset="1"/>
</radialGradient>
<radialGradient id="paint5_radial_905_4969" cx="0" cy="0" r="1" gradientUnits="userSpaceOnUse" gradientTransform="translate(181.353 167.663) scale(8.29478 8.29478)">
<stop offset="0.01" stop-color="#3BFF24"/>
<stop offset="0.53" stop-color="#25D732"/>
<stop offset="1" stop-color="#11B140"/>
</radialGradient>
<radialGradient id="paint6_radial_905_4969" cx="0" cy="0" r="1" gradientUnits="userSpaceOnUse" gradientTransform="translate(179.387 132.381) rotate(82.33) scale(14.268 12.1321)">
<stop stop-color="#00FF00"/>
<stop offset="1"/>
</radialGradient>
<radialGradient id="paint7_radial_905_4969" cx="0" cy="0" r="1" gradientUnits="userSpaceOnUse" gradientTransform="translate(99.604 99.1399) scale(76.0468 76.0468)">
<stop stop-color="#FFFF4A"/>
<stop offset="1"/>
</radialGradient>
<radialGradient id="paint8_radial_905_4969" cx="0" cy="0" r="1" gradientUnits="userSpaceOnUse" gradientTransform="translate(165.068 102.605) scale(12.1746)">
<stop offset="0.02" stop-color="#B0FF24"/>
<stop offset="0.29" stop-color="#88F72A"/>
<stop offset="0.89" stop-color="#24E33C"/>
<stop offset="1" stop-color="#11E040"/>
</radialGradient>
<radialGradient id="paint9_radial_905_4969" cx="0" cy="0" r="1" gradientUnits="userSpaceOnUse" gradientTransform="translate(142.863 111.247) scale(4.9535)">
<stop offset="0.02" stop-color="#B0FF24"/>
<stop offset="0.29" stop-color="#88F72A"/>
<stop offset="0.89" stop-color="#24E33C"/>
<stop offset="1" stop-color="#11E040"/>
</radialGradient>
<radialGradient id="paint10_radial_905_4969" cx="0" cy="0" r="1" gradientUnits="userSpaceOnUse" gradientTransform="translate(124.004 92.7233) scale(7.45311)">
<stop offset="0.02" stop-color="#B0FF24"/>
<stop offset="0.29" stop-color="#88F72A"/>
<stop offset="0.89" stop-color="#24E33C"/>
<stop offset="1" stop-color="#11E040"/>
</radialGradient>
<radialGradient id="paint11_radial_905_4969" cx="0" cy="0" r="1" gradientUnits="userSpaceOnUse" gradientTransform="translate(160.469 104.071) scale(17.4685)">
<stop offset="0.01" stop-color="#00FF24"/>
<stop offset="0.19" stop-color="#27FF1E"/>
<stop offset="0.58" stop-color="#8CFF10"/>
<stop offset="1" stop-color="#FFFF00"/>
</radialGradient>
<radialGradient id="paint12_radial_905_4969" cx="0" cy="0" r="1" gradientUnits="userSpaceOnUse" gradientTransform="translate(178.025 134.438) scale(11.8613 11.8613)">
<stop offset="0.01" stop-color="#00FF24"/>
<stop offset="0.19" stop-color="#27FF1E"/>
<stop offset="0.58" stop-color="#8CFF10"/>
<stop offset="1" stop-color="#FFFF00"/>
</radialGradient>
<radialGradient id="paint13_radial_905_4969" cx="0" cy="0" r="1" gradientUnits="userSpaceOnUse" gradientTransform="translate(188.132 114.63) scale(7.13812 7.13812)">
<stop offset="0.01" stop-color="#00FF24"/>
<stop offset="0.19" stop-color="#27FF1E"/>
<stop offset="0.58" stop-color="#8CFF10"/>
<stop offset="1" stop-color="#FFFF00"/>
</radialGradient>
<radialGradient id="paint14_radial_905_4969" cx="0" cy="0" r="1" gradientUnits="userSpaceOnUse" gradientTransform="translate(135.081 191.404) scale(26.5169 26.5169)">
<stop offset="0.01" stop-color="#00FF24"/>
<stop offset="0.19" stop-color="#27FF1E"/>
<stop offset="0.58" stop-color="#8CFF10"/>
<stop offset="1" stop-color="#FFFF00"/>
</radialGradient>
<radialGradient id="paint15_radial_905_4969" cx="0" cy="0" r="1" gradientUnits="userSpaceOnUse" gradientTransform="translate(182.631 175.278) scale(10.1695)">
<stop offset="0.01" stop-color="#00FF24"/>
<stop offset="0.19" stop-color="#27FF1E"/>
<stop offset="0.58" stop-color="#8CFF10"/>
<stop offset="1" stop-color="#FFFF00"/>
</radialGradient>
<radialGradient id="paint16_radial_905_4969" cx="0" cy="0" r="1" gradientUnits="userSpaceOnUse" gradientTransform="translate(116.849 93.2957) scale(10.7639 10.7639)">
<stop offset="0.01" stop-color="#00FF24"/>
<stop offset="0.19" stop-color="#27FF1E"/>
<stop offset="0.58" stop-color="#8CFF10"/>
<stop offset="1" stop-color="#FFFF00"/>
</radialGradient>
<radialGradient id="paint17_radial_905_4969" cx="0" cy="0" r="1" gradientUnits="userSpaceOnUse" gradientTransform="translate(137.015 107.826) scale(9.84773 9.84772)">
<stop offset="0.01" stop-color="#00FF24"/>
<stop offset="0.19" stop-color="#27FF1E"/>
<stop offset="0.58" stop-color="#8CFF10"/>
<stop offset="1" stop-color="#FFFF00"/>
</radialGradient>
<radialGradient id="paint18_radial_905_4969" cx="0" cy="0" r="1" gradientUnits="userSpaceOnUse" gradientTransform="translate(135.462 172.794) scale(19.2009 19.201)">
<stop offset="0.01" stop-color="#3BFF24"/>
<stop offset="0.53" stop-color="#25D732"/>
<stop offset="1" stop-color="#11B140"/>
</radialGradient>
<radialGradient id="paint19_radial_905_4969" cx="0" cy="0" r="1" gradientUnits="userSpaceOnUse" gradientTransform="translate(187.065 113.574) scale(4.75536)">
<stop offset="0.01" stop-color="#3BFF24"/>
<stop offset="0.53" stop-color="#25D732"/>
<stop offset="1" stop-color="#11B140"/>
</radialGradient>
<radialGradient id="paint20_radial_905_4969" cx="0" cy="0" r="1" gradientUnits="userSpaceOnUse" gradientTransform="translate(100.979 105.321) scale(60.2684 60.2684)">
<stop stop-color="#97FF11"/>
<stop offset="1"/>
</radialGradient>
<linearGradient id="paint21_linear_905_4969" x1="150.843" y1="81.9492" x2="167.979" y2="98.1865" gradientUnits="userSpaceOnUse">
<stop stop-color="#FFFFE8"/>
<stop offset="0.2" stop-color="#BBBBAA"/>
<stop offset="0.42" stop-color="#79796E"/>
<stop offset="0.61" stop-color="#45453E"/>
<stop offset="0.78" stop-color="#1F1F1C"/>
<stop offset="0.91" stop-color="#080807"/>
<stop offset="1"/>
</linearGradient>
<linearGradient id="paint22_linear_905_4969" x1="109.418" y1="83.1093" x2="114.632" y2="88.0492" gradientUnits="userSpaceOnUse">
<stop stop-color="#FFFFE8"/>
<stop offset="0.2" stop-color="#BBBBAA"/>
<stop offset="0.42" stop-color="#79796E"/>
<stop offset="0.61" stop-color="#45453E"/>
<stop offset="0.78" stop-color="#1F1F1C"/>
<stop offset="0.91" stop-color="#080807"/>
<stop offset="1"/>
</linearGradient>
<linearGradient id="paint23_linear_905_4969" x1="132.15" y1="96.3931" x2="141.908" y2="105.638" gradientUnits="userSpaceOnUse">
<stop stop-color="#FFFFE8"/>
<stop offset="0.2" stop-color="#BBBBAA"/>
<stop offset="0.42" stop-color="#79796E"/>
<stop offset="0.61" stop-color="#45453E"/>
<stop offset="0.78" stop-color="#1F1F1C"/>
<stop offset="0.91" stop-color="#080807"/>
<stop offset="1"/>
</linearGradient>
<linearGradient id="paint24_linear_905_4969" x1="177.551" y1="119.028" x2="191.638" y2="132.375" gradientUnits="userSpaceOnUse">
<stop stop-color="#FFFFE8"/>
<stop offset="0.2" stop-color="#BBBBAA"/>
<stop offset="0.42" stop-color="#79796E"/>
<stop offset="0.61" stop-color="#45453E"/>
<stop offset="0.78" stop-color="#1F1F1C"/>
<stop offset="0.91" stop-color="#080807"/>
<stop offset="1"/>
</linearGradient>
<linearGradient id="paint25_linear_905_4969" x1="186.506" y1="104.383" x2="196.218" y2="113.584" gradientUnits="userSpaceOnUse">
<stop stop-color="#FFFFE8"/>
<stop offset="0.2" stop-color="#BBBBAA"/>
<stop offset="0.42" stop-color="#79796E"/>
<stop offset="0.61" stop-color="#45453E"/>
<stop offset="0.78" stop-color="#1F1F1C"/>
<stop offset="0.91" stop-color="#080807"/>
<stop offset="1"/>
</linearGradient>
<linearGradient id="paint26_linear_905_4969" x1="179.984" y1="165.163" x2="189.184" y2="173.881" gradientUnits="userSpaceOnUse">
<stop stop-color="#FFFFE8"/>
<stop offset="0.2" stop-color="#BBBBAA"/>
<stop offset="0.42" stop-color="#79796E"/>
<stop offset="0.61" stop-color="#45453E"/>
<stop offset="0.78" stop-color="#1F1F1C"/>
<stop offset="0.91" stop-color="#080807"/>
<stop offset="1"/>
</linearGradient>
<linearGradient id="paint27_linear_905_4969" x1="117.582" y1="164.701" x2="150.607" y2="195.991" gradientUnits="userSpaceOnUse">
<stop stop-color="#FFFFE8"/>
<stop offset="0.2" stop-color="#BBBBAA"/>
<stop offset="0.42" stop-color="#79796E"/>
<stop offset="0.61" stop-color="#45453E"/>
<stop offset="0.78" stop-color="#1F1F1C"/>
<stop offset="0.91" stop-color="#080807"/>
<stop offset="1"/>
</linearGradient>
<radialGradient id="paint28_radial_905_4969" cx="0" cy="0" r="1" gradientUnits="userSpaceOnUse" gradientTransform="translate(102.763 143.325) rotate(14.16) scale(8.99251)">
<stop offset="0.02" stop-color="#B0FF24"/>
<stop offset="0.29" stop-color="#88F72A"/>
<stop offset="0.89" stop-color="#24E33C"/>
<stop offset="1" stop-color="#11E040"/>
</radialGradient>
<radialGradient id="paint29_radial_905_4969" cx="0" cy="0" r="1" gradientUnits="userSpaceOnUse" gradientTransform="translate(90.639 155.311) rotate(14.16) scale(14.1221)">
<stop offset="0.01" stop-color="#00FF24"/>
<stop offset="0.19" stop-color="#27FF1E"/>
<stop offset="0.58" stop-color="#8CFF10"/>
<stop offset="1" stop-color="#FFFF00"/>
</radialGradient>
<linearGradient id="paint30_linear_905_4969" x1="82.1884" y1="135.21" x2="90.4514" y2="148.239" gradientUnits="userSpaceOnUse">
<stop stop-color="#FFFFE8"/>
<stop offset="0.2" stop-color="#BBBBAA"/>
<stop offset="0.42" stop-color="#79796E"/>
<stop offset="0.61" stop-color="#45453E"/>
<stop offset="0.78" stop-color="#1F1F1C"/>
<stop offset="0.91" stop-color="#080807"/>
<stop offset="1"/>
</linearGradient>
</defs>
</svg>
