<svg width="280" height="278" viewBox="0 0 280 278" fill="none" xmlns="http://www.w3.org/2000/svg">
<g filter="url(#filter0_d_905_4891)">
<path fill-rule="evenodd" clip-rule="evenodd" d="M198.1 134.436C198.1 140.001 197.317 145.392 195.838 150.479C192.904 160.713 187.217 169.775 179.623 176.842C174.195 181.904 167.787 185.929 160.731 188.606C154.337 191.04 147.416 192.361 140.163 192.361C139.136 192.361 138.097 192.337 137.081 192.276H137.07C135.553 192.203 134.049 192.055 132.57 191.872C121.382 190.404 111.221 185.757 102.979 178.836C99.8847 176.257 97.0728 173.346 94.5903 170.166C92.7072 167.782 91.0075 165.25 89.515 162.572C89.1601 161.937 88.8188 161.289 88.4758 160.64C88.4758 160.616 88.4639 160.603 88.452 160.579C88.0971 159.883 87.7677 159.185 87.4502 158.475H87.4383C86.4348 156.263 85.5552 153.975 84.8454 151.627C84.3071 149.939 83.8555 148.204 83.4887 146.443C83.4768 146.431 83.4768 146.406 83.4768 146.394C83.2204 145.159 82.9997 143.911 82.8282 142.651C82.4376 139.962 82.2407 137.223 82.2407 134.435C82.2407 132.833 82.3018 131.23 82.4478 129.667C82.5208 128.663 82.6312 127.673 82.7653 126.683C83.5108 120.985 85.1018 115.556 87.3992 110.506C88.525 108.024 89.8206 105.64 91.2758 103.352C93.6972 99.537 96.5583 96.0407 99.7862 92.8977C110.217 82.7487 124.462 76.5 140.163 76.5C140.775 76.5 141.386 76.5119 141.985 76.5238C142.634 76.5475 143.281 76.573 143.93 76.6223C147.256 76.843 150.508 77.332 153.651 78.0893C155.484 78.5291 157.283 79.0436 159.044 79.6549C160.242 80.059 161.416 80.5107 162.577 80.9997C163.445 81.3665 164.289 81.7452 165.133 82.1493C165.279 82.2223 165.426 82.2834 165.572 82.3565C171.198 85.1072 176.297 88.7274 180.722 93.0675C181.357 93.6788 181.97 94.3139 182.581 94.9625C182.986 95.4023 183.388 95.8557 183.78 96.3073C184.453 97.0646 185.101 97.861 185.736 98.6557C188.047 101.59 190.076 104.745 191.776 108.095C193.77 111.983 195.335 116.128 196.398 120.47C197.51 124.946 198.098 129.617 198.098 134.435L198.1 134.436Z" fill="url(#paint0_radial_905_4891)"/>
<g style="mix-blend-mode:multiply" opacity="0.4">
<path fill-rule="evenodd" clip-rule="evenodd" d="M82.2357 134.431C82.2357 134.431 95.8962 158.672 109.102 162.431C122.307 166.191 137.391 163.802 142.544 165.722C147.697 167.643 150.503 175.518 150.503 175.518L152.423 176.618C152.423 176.618 156.831 169.777 159.528 173.818C159.528 173.818 158.453 168.091 161.696 161.117C164.939 154.143 167.104 146.652 171.118 144.258C175.132 141.863 182.48 140.751 188.306 143.06C194.131 145.37 197.147 144.927 197.147 144.927L197.582 142.183L198.018 139.763C198.018 139.763 192.444 140.649 187.959 137.78C187.959 137.78 188.574 138.853 192.048 132.365C195.522 125.877 195.121 120.024 195.121 120.024L194.622 114.632C194.622 114.632 192.756 133.329 184.87 138.754C184.87 138.754 167.291 135.115 159.857 155.865C159.857 155.865 158.585 169.743 151.219 169.356C143.853 168.969 146.4 159.895 135.743 159.803C125.087 159.711 118.619 164.092 108.068 158.074C97.5178 152.058 82.2357 134.431 82.2357 134.431Z" fill="#7D72B3"/>
</g>
<g style="mix-blend-mode:multiply" opacity="0.4">
<path fill-rule="evenodd" clip-rule="evenodd" d="M137.081 192.274C137.081 192.274 144.388 181.361 152.425 181.422C160.46 181.483 164.168 184.399 170.5 180.7C176.834 177.002 179.466 174.693 182.384 172.716C185.303 170.74 185.797 170.117 185.797 170.117L187.115 168.376C187.115 168.376 182.675 166.221 178.761 169.385C174.847 172.548 167.77 179.717 162.156 179.683C156.542 179.648 156.816 176.416 150.506 178.95C144.196 181.483 130.911 190.438 130.911 190.438C130.911 190.438 133.315 192.194 137.083 192.274H137.081Z" fill="#7D72B3"/>
</g>
<g style="mix-blend-mode:multiply" opacity="0.4">
<path fill-rule="evenodd" clip-rule="evenodd" d="M85.4194 153.408L86.1139 155.32C86.1139 155.32 97.4091 161.555 104.542 170.234C111.676 178.912 112.944 184.793 112.944 184.793C112.944 184.793 114.213 179.62 108.066 169.892C101.919 160.166 88.6881 154.833 85.4177 153.406L85.4194 153.408Z" fill="#7D72B3"/>
</g>
<path fill-rule="evenodd" clip-rule="evenodd" d="M165.569 82.3616C165.379 82.3819 165.187 82.4023 164.997 82.4414C164.343 82.5619 163.832 82.5025 163.188 82.3208C162.727 82.1901 162.394 81.9999 161.903 81.9184C161.2 81.808 160.546 81.5058 159.843 81.4158C159.1 81.3156 158.456 81.0235 157.753 80.7722C157.201 80.5718 156.909 80.6415 156.376 80.7722C155.843 80.9131 155.471 80.6924 154.999 80.4903C154.466 80.2594 153.934 80.2187 153.371 80.1083C151.903 79.806 150.447 79.334 148.99 78.9621C148.085 78.7312 147.251 78.7312 146.327 78.721C145.604 78.7108 144.95 78.9214 144.227 78.9214C143.745 78.9214 143.332 78.8416 142.85 78.7703C142.357 78.6803 141.855 78.7804 141.362 78.7108C140.629 78.6005 140.236 78.4901 139.493 78.721C138.941 78.9027 138.508 78.8823 137.956 78.9112C137.343 78.9418 136.65 79.1014 136.047 79.2423C134.962 79.4936 133.777 79.694 132.662 79.6736C131.979 79.6736 130.974 79.4834 130.32 79.7144C129.897 79.8655 129.687 80.3171 129.396 80.6194C128.834 81.2018 128.14 81.7248 127.668 82.3785C127.196 83.0323 126.662 83.7047 126.703 84.5282C126.744 85.2414 127.075 86.0751 127.386 86.7288C127.707 87.4216 127.819 88.055 127.104 88.5169C126.209 89.1095 125.175 89.6528 124.149 89.9432C123.467 90.1436 122.854 90.2641 122.28 89.7717C122.069 89.59 121.939 89.2385 121.677 89.0976C121.405 88.9566 121.124 89.0976 120.833 89.1876C120.11 89.3981 119.407 89.6392 118.673 89.7598C118.222 89.8294 117.829 90.0705 117.386 90.152C116.853 90.2522 116.471 89.86 115.919 89.9907C115.145 90.1724 114.372 90.4933 113.567 90.5341C112.995 90.5647 112.272 90.3134 111.79 90.0213C111.508 89.86 111.438 89.7004 111.117 89.7904C110.856 89.8515 110.463 90.1724 110.322 90.3728C110.132 90.6445 110.061 90.996 109.871 91.2778C109.67 91.5886 109.479 91.8908 109.299 92.2219C108.967 92.8655 108.575 93.4683 108.152 94.0405C107.85 94.4429 107.64 94.9846 107.309 95.3565C107.137 95.5568 106.765 95.6978 106.544 95.8489C105.942 96.2717 105.308 96.652 104.726 97.1054C103.6 97.9901 102.535 98.9647 101.389 99.8188C100.515 100.473 99.2888 100.855 98.2938 101.266C97.6706 101.517 97.027 101.697 96.4039 101.958C96.2035 102.038 95.8316 102.13 95.6601 102.279C95.4394 102.469 95.3188 102.823 95.1168 103.082C94.5734 103.746 94.0012 104.409 93.5886 105.173C93.3373 105.614 93.1861 106.068 93.0265 106.55C92.8058 107.204 92.4543 107.806 92.2319 108.458C91.7802 109.825 91.6885 111.252 91.1876 112.608C90.8955 113.403 90.4744 114.126 90.1127 114.85C89.4896 116.076 89.3996 117.533 89.2179 118.889C89.1177 119.684 89.1584 120.597 89.2977 121.372C89.4488 122.205 89.4081 123.07 89.3979 123.924C89.3877 124.829 88.8155 125.712 88.2415 126.396C87.7185 127.03 86.9256 127.271 86.3431 127.833C85.8507 128.315 85.2581 128.868 85.0476 129.551C84.9576 129.853 85.0374 130.195 84.9864 130.516C84.8557 131.229 84.6757 131.903 84.5738 132.626C84.4634 133.521 84.4431 134.365 84.4431 135.268C84.4431 135.72 84.4125 136.184 84.4329 136.635C84.4533 137.066 84.6146 137.469 84.6434 137.902C84.6638 138.204 84.6027 138.505 84.6434 138.807C84.7029 139.148 84.8336 139.5 84.9151 139.833C85.1155 140.636 85.2666 141.42 85.4177 142.223C85.5587 142.967 85.849 143.701 86.0816 144.424C86.4026 145.409 86.6148 146.424 86.805 147.448C86.9561 148.212 86.9459 149.005 87.0563 149.78C87.1463 150.403 87.2872 151.036 87.3178 151.659C87.3484 152.603 87.1174 153.549 87.1072 154.503C87.0971 156.111 87.7406 157.719 88.1125 159.266C88.2228 159.698 88.3332 160.141 88.4538 160.572C84.4753 152.714 82.2339 143.831 82.2339 134.426C82.2339 122.99 85.5502 112.33 91.2674 103.346C93.6989 99.5268 96.5533 96.0306 99.7778 92.8943C110.222 82.7521 124.46 76.5017 140.167 76.5017C141.434 76.5017 142.678 76.5425 143.924 76.6223C151.652 77.1147 158.967 79.1251 165.569 82.3599V82.3616Z" fill="url(#paint1_linear_905_4891)"/>
<g style="mix-blend-mode:multiply" opacity="0.4">
<path fill-rule="evenodd" clip-rule="evenodd" d="M96.4056 101.965C96.4056 101.965 109.446 113.624 126.651 113.958C143.855 114.293 150.248 113.136 155.972 106.764C161.696 100.391 167.86 89.5984 167.86 89.5984C167.86 89.5984 160.511 93.1388 155.427 100.06C150.343 106.981 126.328 118.77 96.4056 101.965Z" fill="#7D72B3"/>
</g>
<g opacity="0.7">
<g style="mix-blend-mode:multiply" opacity="0.4">
<path fill-rule="evenodd" clip-rule="evenodd" d="M97.4414 102.298C95.7349 104.319 94.2474 106.377 93.1013 108.771C92.0825 110.897 91.7089 113.265 91.3404 115.566C91.1214 116.933 90.9295 118.303 90.724 119.672C90.5407 120.886 90.1909 122.166 90.3997 123.394C90.685 125.058 90.7699 126.894 91.5663 128.412C92.4187 130.037 93.305 131.461 94.4376 132.896C95.5464 134.302 96.8861 134.932 98.6775 135.058C99.6488 135.126 100.615 134.976 101.588 135.105C102.938 135.282 104.289 135.53 105.633 135.745C108.341 136.18 111.384 136.2 113.33 133.979C114.909 132.178 115.654 129.931 116.661 127.787C117.733 125.503 119.079 123.608 121.083 122.056C122.557 120.915 123.849 119.631 125.265 118.426C125.907 117.879 126.296 117.288 127.026 116.879C127.741 116.478 128.126 116.031 128.753 115.456C129.317 114.938 129.999 114.588 130.502 113.997C131.3 113.058 131.938 111.792 132.368 110.647C132.818 109.448 133.039 108.173 133.215 106.908C133.39 105.672 133.016 104.429 132.633 103.252C131.899 101.011 129.986 99.6015 128.184 98.2091C125.954 96.4873 123.326 95.7232 120.58 95.1833C118.084 94.6925 115.079 94.5923 112.571 95.0372C109.917 95.5076 107.19 95.8879 104.719 97.0375C102.912 97.878 101.821 99.0445 100.362 100.281C99.6182 100.911 98.72 101.344 98.0476 102.053C97.1188 103.037 96.2494 104.105 97.438 102.3L97.4414 102.298Z" fill="#7D72B3"/>
</g>
<g style="mix-blend-mode:multiply" opacity="0.4">
<path fill-rule="evenodd" clip-rule="evenodd" d="M123.7 91.4867C124.06 90.8585 124.469 89.9585 124.968 89.3642C125.236 89.045 125.586 88.7988 125.905 88.5305C126.875 87.7188 127.934 87.0311 129.162 86.6779C129.838 86.4827 130.582 86.4674 131.261 86.6406C131.952 86.8172 133.2 87.2875 133.73 87.7918C134.716 88.7308 134.066 90.3321 133.769 91.4256C133.47 92.5293 133.125 93.5719 132.14 94.2715C131.497 94.7265 130.729 95.0916 129.962 95.2665C129.534 95.3633 129.103 95.3344 128.67 95.3871C128.32 95.4295 127.985 95.5161 127.63 95.5161C126.829 95.5161 125.612 94.9439 125.277 94.1594C125.102 93.7485 125.002 93.324 124.817 92.9131C124.676 92.6006 124.566 92.2712 124.435 91.9554C124.189 91.3628 123.975 90.7871 123.701 91.4884L123.7 91.4867Z" fill="#7D72B3"/>
</g>
<g style="mix-blend-mode:multiply" opacity="0.4">
<path fill-rule="evenodd" clip-rule="evenodd" d="M133.276 97.6641C133.039 98.3042 132.908 98.9596 132.887 99.6338C133.185 99.8087 133.288 100.175 133.58 100.347C133.86 100.512 134.198 100.444 134.518 100.444C135.097 100.442 135.659 100.451 135.755 99.7356C135.84 99.1108 135.288 98.6557 134.82 98.3161C134.482 98.0716 133.813 97.5011 133.429 97.9731L133.275 97.6641H133.276Z" fill="#7D72B3"/>
</g>
<g style="mix-blend-mode:multiply" opacity="0.4">
<path fill-rule="evenodd" clip-rule="evenodd" d="M141.308 107.086C140.556 107.621 139.746 108.103 139.026 108.676C138.114 109.401 137.399 110.321 136.691 111.238C135.811 112.377 134.777 113.569 134.996 115.103C135.212 116.616 135.725 117.87 136.884 118.886C138.226 120.061 140.299 120.054 141.863 120.815C143.196 121.465 144.05 122.808 144.719 124.087C145.735 126.028 147.866 126.372 149.81 126.739C151.075 126.977 152.328 127.16 153.605 127.315C155.322 127.524 157.02 127.853 158.74 128.018C161.893 128.322 165.072 129.048 168.25 128.794C171.619 128.524 174.672 127.323 177.443 125.393C179.805 123.749 181.916 120.895 182.539 118.067C183.194 115.096 182.216 111.788 180.78 109.192C178.912 105.82 176.705 102.66 174.304 99.6456C172.976 97.9765 171.434 96.489 170.079 94.8385C168.904 93.4088 167.671 92.1285 166.267 90.9212C163.12 88.2163 159.217 85.9834 154.989 85.761C153.379 85.6761 151.752 85.9138 150.239 86.4979C148.913 87.0107 147.954 87.7731 146.969 88.7868C144.47 91.361 143.16 94.6382 142.079 98.0019C141.583 99.5437 141.119 101.288 141.301 102.926C141.357 103.427 141.624 103.823 141.617 104.298C141.612 104.743 141.615 105.188 141.617 105.631C141.617 105.891 141.642 106.093 141.549 106.312C141.396 106.669 141.038 107.044 141.308 107.086Z" fill="#7D72B3"/>
</g>
<g style="mix-blend-mode:multiply" opacity="0.4">
<path fill-rule="evenodd" clip-rule="evenodd" d="M128.024 118.517C126.391 119.47 124.717 120.212 123.516 121.74C123.302 122.012 122.988 122.316 123.098 122.683C123.222 123.087 123.676 123.316 124.029 123.464C125.241 123.971 126.724 124.235 128.023 123.977C129.191 123.744 130.729 122.954 131.359 121.896C132.159 120.557 131.256 118.404 129.566 118.511C129.311 118.528 129.118 118.648 128.873 118.679C128.673 118.702 128.457 118.663 128.254 118.672C128.021 118.682 127.97 118.728 127.778 118.808C127.574 118.893 127.308 119.125 128.023 118.519L128.024 118.517Z" fill="#7D72B3"/>
</g>
<g style="mix-blend-mode:multiply" opacity="0.4">
<path fill-rule="evenodd" clip-rule="evenodd" d="M94.5072 140.912C93.8449 141.514 93.1827 141.977 92.8007 142.773C92.4424 143.522 92.1928 144.239 92.0196 145.049C91.8702 145.75 91.6732 146.499 91.8532 147.214C92.0145 147.856 92.315 148.496 92.5341 149.124C92.821 149.942 93.0842 150.71 93.2608 151.557C93.4799 152.61 93.8687 153.505 94.3391 154.471C94.7992 155.419 95.3188 156.33 95.8843 157.22C96.4684 158.14 97.1459 158.864 97.8998 159.65C100.54 162.401 103.768 165.315 107.706 165.81C109.694 166.06 111.769 165.549 113.223 164.123C114.812 162.564 115.824 160.319 116.164 158.13C116.452 156.266 116.26 154.337 115.254 152.717C114.45 151.425 113.572 150.036 112.533 148.917C111.832 148.163 111.024 147.514 110.261 146.825C109.502 146.139 108.774 145.416 107.947 144.809C106.493 143.746 105.089 142.627 103.626 141.573C102.301 140.62 100.871 139.583 99.2548 139.194C98.1392 138.926 96.915 138.703 95.8146 139.133C95.3426 139.318 94.9792 139.481 94.7398 139.909C94.6209 140.121 94.3408 140.486 94.3255 140.731C94.2847 140.741 94.2423 140.751 94.5106 140.916L94.5072 140.912Z" fill="#7D72B3"/>
</g>
<g style="mix-blend-mode:multiply" opacity="0.4">
<path fill-rule="evenodd" clip-rule="evenodd" d="M104.855 138.287C104.908 138.753 104.962 139.218 105.015 139.685C105.047 139.838 105.081 139.989 105.113 140.14C105.206 140.237 105.554 140.277 105.677 140.293C106.149 140.347 106.66 140.094 107.03 139.805C107.596 139.366 107.85 138.34 107.327 137.817C106.91 137.399 106.366 137.25 105.78 137.369C105.476 137.43 104.189 138.111 104.699 138.596L104.853 138.287H104.855Z" fill="#7D72B3"/>
</g>
<g style="mix-blend-mode:multiply" opacity="0.4">
<path fill-rule="evenodd" clip-rule="evenodd" d="M182.393 125.622C182.595 124.583 182.617 123.919 183.254 123.146C183.808 122.474 184.417 121.844 184.949 121.154C185.925 119.888 186.529 118.393 186.895 116.841C187.215 115.471 186.881 114.14 187.494 112.815C187.64 112.501 187.811 111.905 188.143 111.752C188.446 111.613 189.065 111.73 189.341 111.895C189.62 112.062 189.908 112.425 190.144 112.634C190.569 113.009 190.934 113.427 191.318 113.843C193.248 115.943 194.315 119.079 194.3 121.91C194.291 123.572 194.111 125.109 193.559 126.668C193.335 127.303 193.104 127.87 192.759 128.451C192.338 129.161 191.819 129.587 191.133 130.026C189.132 131.305 186.227 130.828 184.556 129.249C183.938 128.663 183.651 127.858 183.247 127.169C182.93 126.629 182.631 126.138 182.519 125.494C182.478 125.486 182.436 125.478 182.395 125.622H182.393Z" fill="#7D72B3"/>
</g>
<g style="mix-blend-mode:multiply" opacity="0.4">
<path fill-rule="evenodd" clip-rule="evenodd" d="M182.393 103.843C182.724 104.972 182.891 106.205 184.049 106.789C184.249 106.889 184.677 107.052 184.901 107.064C185.195 107.08 185.404 106.911 185.635 106.743C186.85 105.85 186.151 103.802 185.331 102.875C184.847 102.33 184.291 102.152 183.621 101.953C183.315 101.863 183.39 101.838 183.13 101.948C182.93 102.035 182.801 102.128 182.697 102.291C182.592 102.458 182.549 102.722 182.541 102.916C182.531 103.133 182.459 103.251 182.425 103.414C182.34 103.807 182.381 104.12 182.546 104.461L182.391 103.843H182.393Z" fill="#7D72B3"/>
</g>
<g style="mix-blend-mode:multiply" opacity="0.4">
<path fill-rule="evenodd" clip-rule="evenodd" d="M173.28 150.953C172.981 151.722 172.747 152.525 172.407 153.274C172.045 154.072 171.685 154.88 171.347 155.689C170.454 157.821 169.957 160.035 169.379 162.263C168.772 164.61 168.384 166.996 168.145 169.407C168.021 170.648 167.829 171.84 167.863 173.093C167.887 173.983 167.883 175.068 168.198 175.915C168.395 176.443 168.887 177.247 169.437 177.483C170.155 177.792 171.064 177.192 171.668 176.893C174.032 175.723 176.039 173.946 177.915 172.115C179.763 170.314 181.641 168.604 183.171 166.512C183.867 165.559 184.643 164.618 185.225 163.589C185.713 162.729 186.047 161.793 186.49 160.91C186.906 160.085 187.209 159.212 187.601 158.375C188.076 157.358 188.518 156.313 188.849 155.239C189.482 153.182 190.044 151.085 189.323 148.964C188.71 147.165 187.212 145.779 185.348 145.378C184.337 145.161 183.203 144.86 182.164 144.942C181.143 145.022 180.046 145.3 179.102 145.691C178.279 146.03 177.445 146.429 176.689 146.903C176.265 147.17 175.978 147.538 175.642 147.9C175.078 148.506 174.521 149.163 174.09 149.871C173.867 150.235 173.672 150.445 173.395 150.756C173.018 151.18 172.854 151.824 173.283 150.953H173.28Z" fill="#7D72B3"/>
</g>
<g style="mix-blend-mode:multiply" opacity="0.4">
<path fill-rule="evenodd" clip-rule="evenodd" d="M164.167 177.674C162.941 178.136 161.92 178.583 160.876 179.359C159.624 180.289 158.456 181.244 157.56 182.527C157.232 182.998 156.578 183.804 157.069 184.36C157.495 184.842 158.186 184.799 158.763 184.787C159.607 184.769 160.451 184.618 161.236 184.29C161.966 183.984 162.623 183.584 163.375 183.325C164.097 183.078 165.08 182.599 165.566 181.977C165.843 181.624 166.004 181.137 166.26 180.758C166.469 180.451 166.535 180.215 166.488 179.829C166.433 179.398 166.167 178.783 165.832 178.478C165.532 178.203 164.956 177.927 164.554 177.978C164.341 178.006 164.07 178.079 163.873 178.162C163.384 178.372 162.986 178.979 164.167 177.674Z" fill="#7D72B3"/>
</g>
<g style="mix-blend-mode:multiply" opacity="0.4">
<path fill-rule="evenodd" clip-rule="evenodd" d="M162.623 170.568C162.373 169.646 162.09 168.919 162.17 167.994C162.243 167.157 162.231 166.449 162.671 165.692C162.856 165.374 163.392 164.365 163.752 164.236C163.876 164.192 164.25 164.211 164.365 164.226C164.99 164.308 165.365 165.077 165.494 165.639C165.693 166.505 165.556 167.524 165.562 168.41C165.569 169.103 165.472 169.74 165.211 170.387C164.999 170.91 164.583 170.903 164.053 170.881C163.532 170.86 163.318 170.714 162.932 170.41C162.791 170.3 162.584 170.259 162.457 170.147C162.285 169.996 162.35 169.791 162.623 170.568Z" fill="#7D72B3"/>
</g>
<g style="mix-blend-mode:multiply" opacity="0.4">
<path fill-rule="evenodd" clip-rule="evenodd" d="M161.541 133.962C161.435 134.604 161.389 135.25 161.407 135.897C161.642 135.897 161.886 136.328 162.19 136.404C162.62 136.513 163.063 136.246 163.394 135.981C164.124 135.399 164.325 134.292 164.162 133.421C164.002 132.567 163.017 132.48 162.311 132.568C162.075 132.599 161.72 132.709 161.533 132.874C161.103 133.254 161.066 133.715 161.078 134.272L161.541 133.962Z" fill="#7D72B3"/>
</g>
<g style="mix-blend-mode:multiply" opacity="0.4">
<path fill-rule="evenodd" clip-rule="evenodd" d="M106.246 173.813C106.64 173.129 106.983 172.392 107.487 171.787C108.054 171.11 108.698 170.387 109.348 169.796C110.16 169.055 111.1 168.373 111.97 167.7C112.776 167.075 113.601 166.468 114.467 165.926C115.975 164.98 117.532 164.357 119.208 163.778C120.572 163.308 122.013 163.151 123.433 163.442C124.891 163.741 126.308 164.562 127.381 165.578C128.411 166.552 129.491 167.736 130.125 169.016C131.42 171.636 130.919 174.475 130.033 177.135C129.637 178.32 128.812 179.743 127.817 180.514C127.252 180.952 126.571 181.237 125.881 181.391C125.095 181.568 124.204 181.836 123.407 181.938C119.918 182.38 116.337 182.127 113.022 180.906C111.71 180.422 110.421 179.829 109.164 179.218C108.166 178.732 107.331 178.113 106.667 177.221C106.173 176.557 105.753 175.768 105.779 174.925C105.791 174.547 105.918 174.207 105.965 173.839C106.13 173.832 106.268 173.728 106.247 173.812L106.246 173.813Z" fill="#7D72B3"/>
</g>
<g style="mix-blend-mode:multiply" opacity="0.4">
<path fill-rule="evenodd" clip-rule="evenodd" d="M132.504 175.357C132.259 175.995 132.105 176.651 132.04 177.326C132.276 177.462 132.262 177.851 132.439 178.065C132.639 178.309 132.853 178.433 133.152 178.449C133.461 178.466 133.833 178.481 134.139 178.433C134.618 178.36 134.721 178.184 134.971 177.831C135.249 177.435 135.322 177.262 135.288 176.739C135.265 176.379 135.164 175.997 134.942 175.7C134.803 175.513 134.555 175.217 134.361 175.078C133.904 174.749 133.561 174.936 133.122 175.202L132.504 175.357Z" fill="#7D72B3"/>
</g>
<g style="mix-blend-mode:multiply" opacity="0.4">
<path fill-rule="evenodd" clip-rule="evenodd" d="M189.652 145.237C189.119 144.821 188.677 144.327 188.331 143.757C188.38 143.524 188.372 143.293 188.305 143.06C188.219 142.466 188.107 141.982 188.229 141.379C188.516 139.968 189.74 138.924 191.165 138.763C192.102 138.656 193.466 139.415 193.96 140.175C194.485 140.982 194.698 142.067 194.741 143.009C194.777 143.789 194.6 144.721 194.13 145.371C193.802 145.823 193.14 145.842 192.62 145.859C192.019 145.879 191.418 145.781 190.849 145.589C190.42 145.444 189.939 145.13 189.652 145.237Z" fill="#7D72B3"/>
</g>
</g>
<path style="mix-blend-mode:screen" fill-rule="evenodd" clip-rule="evenodd" d="M105.814 179.678C99.8254 174.664 94.8621 168.454 91.2946 161.419C89.0532 156.998 87.3654 152.255 86.3211 147.282C86.3109 147.272 86.3109 147.251 86.3109 147.231C85.5077 143.373 85.0747 139.372 85.0747 135.273C85.0747 123.837 88.391 113.177 94.1082 104.193C96.5397 100.374 99.3941 96.8779 102.619 93.7416C113.058 83.5926 127.298 77.3422 143.004 77.3422C144.271 77.3422 145.516 77.383 146.762 77.4628C150.691 77.7141 154.508 78.3644 158.181 79.3612C153.654 77.8771 148.876 76.9398 143.926 76.6223C142.68 76.5425 141.434 76.5017 140.169 76.5017C124.46 76.5017 110.222 82.7521 99.7812 92.9011C96.555 96.0357 93.7024 99.5336 91.2708 103.352C85.5536 112.337 82.2374 122.997 82.2374 134.433C82.2374 138.532 82.6687 142.532 83.4735 146.39C83.4735 146.411 83.4735 146.431 83.4837 146.441C84.528 151.415 86.2175 156.159 88.4572 160.579C92.0247 167.612 96.988 173.823 102.977 178.838C109.324 184.163 116.817 188.139 125.036 190.359C117.926 188.039 111.423 184.385 105.813 179.678H105.814Z" fill="url(#paint2_radial_905_4891)"/>
<g style="mix-blend-mode:multiply" opacity="0.4">
<path fill-rule="evenodd" clip-rule="evenodd" d="M88.9581 128.201C88.9581 128.201 121.395 141.435 138.997 140.376C156.598 139.316 164.092 129.234 171.118 120.027C178.145 110.82 180.782 99.7356 180.782 99.7356C180.782 99.7356 167.449 125.462 150.902 132.273L141.386 134.198C141.386 134.198 146.344 130.5 149.806 126.741C153.269 122.983 166.607 117.516 167.856 113.124C169.106 108.733 168.955 101.517 171.116 96.8999C173.278 92.2847 175.431 88.4727 175.431 88.4727L169.705 87.4844L167.021 93.8061C167.021 93.8061 166.267 104.303 164.212 109.995C162.158 115.687 142.077 131.266 137.557 133.874C133.037 136.482 93.0367 130.976 88.9564 128.203L88.9581 128.201Z" fill="#7D72B3"/>
</g>
<g style="mix-blend-mode:soft-light">
<g style="mix-blend-mode:multiply" opacity="0.4">
<path fill-rule="evenodd" clip-rule="evenodd" d="M146.826 183.679C146.947 183.633 149.042 182.685 149.645 182.728C149.9 182.746 150.166 182.954 150.358 183.061C150.917 183.373 151.277 183.838 151.214 184.489C151.124 185.419 150.107 186.635 148.991 187.041C147.609 187.543 146.152 186.908 145.663 185.996C145.166 185.071 146.429 183.373 147.816 183.342L146.826 183.679Z" fill="#7D72B3"/>
</g>
<path fill-rule="evenodd" clip-rule="evenodd" d="M119.684 126.033C118.92 127.339 117.003 129.731 117.583 131.601C117.831 132.4 118.4 133.232 118.758 133.99C119.738 136.063 121.711 138.145 124.166 136.644C126.919 134.961 125.724 131.894 124.559 129.656C124.126 128.824 123.491 127.799 122.626 127.33C122.156 127.075 121.388 126.809 120.865 126.705C119.947 126.523 120.599 125.934 119.684 126.033Z" fill="#FF9F84"/>
<path fill-rule="evenodd" clip-rule="evenodd" d="M138.217 83.4024C138.109 84.0766 138.09 84.7524 138.16 85.4248C138.375 85.3823 138.535 85.5793 138.759 85.5759C139.01 85.5725 139.377 85.401 139.577 85.2635C140.007 84.9697 140.228 84.3635 140.226 83.866C140.223 83.3498 140.177 82.9083 139.688 82.6231C139.104 82.2818 138.52 82.5263 138.219 83.0934V83.4024H138.217Z" fill="#FFEF84"/>
<path fill-rule="evenodd" clip-rule="evenodd" d="M126.016 146.421C126.126 145.993 126.294 144.828 126.644 144.317C126.934 143.894 127.467 143.656 127.933 143.502C128.948 143.166 129.994 143.208 130.804 143.938C132.223 145.219 132.173 147.131 130.818 148.441C130.201 149.037 129.357 149.64 128.474 149.676C128.04 149.693 127.467 149.744 127.094 149.523C126.639 149.253 126.277 148.774 126.126 148.28C125.873 147.457 126.029 146.832 126.481 146.11L126.017 146.419L126.016 146.421Z" fill="#FF9F84"/>
<path fill-rule="evenodd" clip-rule="evenodd" d="M115.359 145.803C115.359 146.448 114.984 147.963 115.912 148.263C116.361 148.408 116.836 147.81 116.909 147.429C116.982 147.047 116.94 146.453 116.79 146.112C116.563 145.591 116.106 145.229 115.668 145.803H115.359Z" fill="#FF9F84"/>
<path fill-rule="evenodd" clip-rule="evenodd" d="M90.6442 134.528C90.7223 135.548 90.7172 137.041 91.337 137.98C91.5951 138.371 91.8515 138.773 92.3422 138.86C92.7752 138.936 93.0231 138.676 93.2694 138.359C93.704 137.792 93.7652 137.404 93.738 136.693C93.7159 136.063 93.519 135.358 93.2354 134.793C93.0282 134.379 92.6734 134.076 92.3439 133.754C92.0485 133.463 91.8362 133.4 91.4134 133.445C90.8531 133.504 90.8904 134.176 90.7987 134.682L90.6442 134.528Z" fill="#FF9F84"/>
<path fill-rule="evenodd" clip-rule="evenodd" d="M176.523 129.74C176.538 129.643 176.654 127.929 176.971 127.544C177.105 127.381 177.414 127.274 177.598 127.184C178.134 126.919 178.718 126.839 179.272 127.104C180.063 127.481 180.685 128.571 180.534 129.451C180.347 130.539 179.107 131.29 178.063 131.303C177.003 131.317 176.064 129.901 176.676 128.969L176.521 129.741L176.523 129.74Z" fill="#FF9F84"/>
<path fill-rule="evenodd" clip-rule="evenodd" d="M116.963 143.497C116.97 143.449 117.028 142.592 117.188 142.398C117.254 142.317 117.408 142.264 117.502 142.218C117.77 142.086 118.062 142.047 118.339 142.177C118.734 142.366 119.045 142.911 118.97 143.351C118.877 143.896 118.257 144.271 117.736 144.278C117.206 144.285 116.738 143.577 117.043 143.11L116.967 143.495L116.963 143.497Z" fill="#FF9F84"/>
<path fill-rule="evenodd" clip-rule="evenodd" d="M143.351 154.079C143.357 154.031 143.415 153.174 143.575 152.98C143.641 152.899 143.795 152.846 143.889 152.8C144.157 152.668 144.449 152.629 144.726 152.76C145.122 152.948 145.432 153.493 145.358 153.933C145.264 154.478 144.644 154.853 144.123 154.86C143.593 154.867 143.125 154.159 143.43 153.692L143.354 154.077L143.351 154.079Z" fill="#FF9F84"/>
<path fill-rule="evenodd" clip-rule="evenodd" d="M161.156 107.373C161.163 107.326 161.221 106.468 161.38 106.275C161.446 106.193 161.601 106.141 161.694 106.095C161.963 105.962 162.255 105.923 162.531 106.054C162.927 106.242 163.238 106.787 163.163 107.227C163.07 107.772 162.45 108.148 161.929 108.154C161.399 108.161 160.93 107.453 161.236 106.986L161.159 107.372L161.156 107.373Z" fill="#FF9F84"/>
<path fill-rule="evenodd" clip-rule="evenodd" d="M124.846 175.156C124.852 175.109 124.91 174.251 125.07 174.058C125.136 173.976 125.291 173.924 125.384 173.878C125.652 173.745 125.944 173.706 126.221 173.837C126.617 174.025 126.927 174.571 126.853 175.01C126.759 175.555 126.14 175.931 125.618 175.937C125.089 175.944 124.62 175.236 124.926 174.769L124.847 175.155L124.846 175.156Z" fill="#FF9F84"/>
<path fill-rule="evenodd" clip-rule="evenodd" d="M172.662 144.259C171.782 144.809 171.241 145.054 170.716 145.862C170.325 146.463 169.899 147.018 169.593 147.672C169.351 148.19 169.053 148.97 169.099 149.552C169.218 151.073 171.108 149.737 171.653 149.273C172.383 148.652 173.078 147.806 173.132 146.822C173.154 146.433 173.164 146.001 173.013 145.641C172.947 145.483 172.866 145.3 172.786 145.149C172.607 144.813 172.453 144.806 172.662 144.261V144.259Z" fill="#FF9F84"/>
<path fill-rule="evenodd" clip-rule="evenodd" d="M191.197 150.9C191.265 150.229 190.926 152.653 191.063 152.758C191.279 152.761 191.527 152.792 191.737 152.761C192.038 152.717 192.119 152.564 192.355 152.383C192.837 152.011 193.187 151.793 193.206 151.133C193.221 150.586 193.123 150.255 192.586 150.092C192.35 150.021 192.238 149.926 191.98 149.999C191.457 150.15 191.095 150.588 190.886 151.055L191.196 150.9H191.197Z" fill="#FF9F84"/>
<path fill-rule="evenodd" clip-rule="evenodd" d="M141.968 83.72C142.014 83.2649 141.785 84.9069 141.877 84.9782C142.023 84.9816 142.191 85.002 142.333 84.9799C142.537 84.9493 142.592 84.8475 142.751 84.7235C143.077 84.4722 143.315 84.3245 143.327 83.8762C143.337 83.506 143.271 83.2819 142.907 83.1698C142.748 83.1206 142.671 83.0561 142.496 83.107C142.143 83.2089 141.897 83.506 141.756 83.8236L141.965 83.7183L141.968 83.72Z" fill="#FFEF84"/>
<path fill-rule="evenodd" clip-rule="evenodd" d="M173.353 130.982C173.399 130.527 173.169 132.169 173.261 132.241C173.407 132.244 173.575 132.264 173.718 132.242C173.922 132.212 173.976 132.11 174.137 131.986C174.463 131.735 174.701 131.587 174.713 131.139C174.723 130.769 174.657 130.544 174.293 130.434C174.134 130.385 174.057 130.32 173.883 130.371C173.529 130.473 173.283 130.77 173.142 131.088L173.351 130.982H173.353Z" fill="#FFEF84"/>
<path fill-rule="evenodd" clip-rule="evenodd" d="M140.259 176.078C140.715 176.077 139.058 176.019 138.997 176.117C139.009 176.263 139.005 176.431 139.043 176.572C139.094 176.773 139.202 176.815 139.342 176.963C139.625 177.262 139.797 177.483 140.243 177.449C140.613 177.421 140.829 177.331 140.902 176.958C140.934 176.795 140.99 176.712 140.922 176.544C140.785 176.202 140.462 175.988 140.135 175.881L140.26 176.078H140.259Z" fill="#FFEF84"/>
<path fill-rule="evenodd" clip-rule="evenodd" d="M113.921 126.381C113.966 125.926 113.737 127.568 113.829 127.639C113.975 127.642 114.143 127.663 114.286 127.641C114.489 127.61 114.544 127.508 114.703 127.384C115.029 127.133 115.267 126.985 115.279 126.537C115.289 126.167 115.223 125.943 114.86 125.831C114.7 125.781 114.624 125.717 114.449 125.768C114.095 125.87 113.849 126.167 113.708 126.484L113.917 126.379L113.921 126.381Z" fill="#FFEF84"/>
<path fill-rule="evenodd" clip-rule="evenodd" d="M139.374 171.164C139.442 170.494 139.102 172.917 139.24 173.022C139.455 173.025 139.703 173.056 139.914 173.025C140.214 172.981 140.296 172.828 140.532 172.647C141.014 172.275 141.364 172.057 141.383 171.397C141.398 170.85 141.299 170.519 140.763 170.356C140.527 170.285 140.415 170.19 140.157 170.263C139.634 170.414 139.272 170.852 139.063 171.319L139.372 171.164H139.374Z" fill="#FF9F84"/>
</g>
<path fill-rule="evenodd" clip-rule="evenodd" d="M107.018 133.017C125.785 135.985 124.627 140.938 146.405 135.005C168.184 129.072 183.78 96.3107 183.78 96.3107C183.78 96.3107 184.869 93.886 183.947 92.4579C183.58 91.8891 180.722 93.0692 180.722 93.0692C181.215 103.585 166.501 125.299 149.879 131.553C148.105 132.22 146.314 132.453 144.646 132.828C143.863 132.434 141.938 130.66 151.037 124.491C161.743 117.234 166.561 114.525 165.569 106.981C164.577 99.4368 174.102 87.4827 174.102 87.4827C174.102 87.4827 174.791 84.3024 172.989 82.3208C170.672 79.7721 165.569 82.3598 165.569 82.3598C165.569 82.3598 164.243 97.1512 145.476 105.142C126.71 113.135 116.284 109.166 109.102 106.979C101.919 104.792 99.7812 92.8994 99.7812 92.8994C99.7812 92.8994 93.7006 91.6361 91.4949 95.5127C89.8733 98.3619 92.2251 101.904 92.2251 101.904C92.2251 101.904 103.542 106.005 113.735 109.917C123.93 113.827 143.391 110.324 150.341 106.979C157.291 103.634 157.291 98.294 162.852 93.4343C165.151 91.4255 167.464 90.0671 169.396 89.157C169.396 89.157 163.316 98.5368 164.01 105.142C164.705 111.746 160.534 111.513 150.341 123.097C143.188 131.227 136.944 133.801 133.848 134.618C125.997 135.329 118.869 134.446 109.102 131.798C93.3474 127.525 83.8861 120.676 83.8861 120.676C83.8861 120.676 82.5158 120.023 81.9945 121.531C81.7738 122.17 83.1797 123.963 83.1797 123.963C83.1797 123.963 88.25 130.045 107.016 133.013L107.018 133.017Z" fill="url(#paint3_linear_905_4891)"/>
<path fill-rule="evenodd" clip-rule="evenodd" d="M120.208 188.538C120.208 188.538 115.59 185.658 112.114 176.737C108.638 167.814 109.102 168.398 102.615 162.778C96.1288 157.157 84.8438 151.63 84.8438 151.63C84.8438 151.63 84.0813 151.892 84.0797 152.119C84.0797 153.277 85.4194 153.411 85.4194 153.411C85.4194 153.411 95.9488 157.926 102.525 165.189C109.102 172.451 116.208 185.338 111.149 184.57C111.149 184.57 112.287 187.8 114.953 188.542C117.624 189.285 120.208 188.542 120.208 188.542V188.538Z" fill="url(#paint4_radial_905_4891)"/>
<path d="M166.328 145.377C168.479 143.077 171.084 139.984 181.625 139.923C192.167 139.849 197.583 142.184 197.583 142.184C197.583 142.184 199.752 141.575 199.983 138.754C200.212 135.964 198.084 134.542 198.084 134.542C197.974 135.423 196.911 141.218 187.959 137.781C187.959 137.696 191.126 134.822 191.81 128.977C192.506 123.046 194.622 114.634 194.622 114.634C194.622 114.634 195.868 112.556 195.058 110.876C194.792 110.324 192.739 110.073 192.739 110.073C194.512 121.898 190.037 136.143 185.169 137.781C179.264 137.854 172.061 138.882 168.795 141.033C164.785 143.687 160.762 155.682 158.181 164.119C157.532 166.211 156.213 168.485 154.525 170.758C148.069 172.312 150.11 164.571 147.322 162.187C144.546 159.815 139.216 161.087 135.742 159.803C132.269 158.519 131.341 155.768 127.635 155.327C123.93 154.887 118.086 161.783 111.421 158.933C104.76 156.088 82.4445 129.663 82.4445 129.663C82.4445 129.663 80.4324 129.179 80.0265 130.57C79.7158 131.638 82.2373 134.433 82.2373 134.433C82.2373 134.433 97.7538 157.848 112.574 160.895C127.406 163.939 140.844 161.09 145.48 165.113C150.09 169.123 150.445 175.532 150.445 175.579C145.628 180.69 139.965 185.093 137.287 186.438C132.653 188.774 125.034 190.364 125.034 190.364C126.073 191.563 128.165 192.524 130.418 193.126C133.668 193.996 135.745 192.357 135.745 192.357C135.745 192.357 133.862 190.719 136.319 188.664C142.58 183.454 147.018 181.181 153.511 179.639C157.449 178.71 158.623 180.495 159.185 179.921V179.933C165.238 181.853 170.031 177.316 175.239 173.146C180.437 168.989 187.112 168.378 187.112 168.378C187.112 168.378 190.567 167.795 191.464 166.271C192.281 164.88 190.352 163.365 190.352 163.365C190.352 163.365 187.404 164.576 181.853 167.388C176.289 170.2 170.334 178.381 163.548 178.124C159.806 177.99 160.589 174.199 160.234 173.662C160.234 173.394 160.246 173.124 160.234 172.855V172.844C160.124 170.093 159.55 167.598 159.55 165.605C159.55 165.092 159.587 164.615 159.684 164.174C160.307 161.226 164.172 147.677 166.323 145.38L166.328 145.377ZM154.517 170.786C153.33 172.387 151.961 173.978 150.506 175.518L154.517 170.786ZM159.714 174.881C159.799 175.516 159.921 176.141 159.825 176.776C159.787 177.106 159.726 177.376 159.409 177.486C159.225 177.547 159.018 177.571 158.835 177.62C158.541 177.693 158.261 177.804 157.967 177.841C157.515 177.902 157.013 177.853 156.561 177.853C156.072 177.853 155.546 177.902 155.057 177.841C154.824 177.804 154.591 177.756 154.36 177.719C154.128 177.681 153.81 177.669 153.603 177.547C153.102 177.265 152.809 176.741 152.43 176.618C152.467 176.179 152.442 175.786 152.625 175.396C152.674 175.25 152.724 175.102 152.759 174.956C152.844 174.7 152.943 174.467 153.053 174.222C153.321 173.599 153.591 173 153.982 172.45C154.165 172.168 154.349 171.888 154.52 171.594C154.727 171.276 155.009 171.032 155.277 170.762C155.668 170.371 156.048 170.016 156.537 169.746C156.916 169.539 157.527 169.246 157.955 169.403C158.395 169.549 158.578 170.125 158.75 170.516C158.872 170.798 158.909 171.103 158.994 171.409C159.093 171.787 159.263 172.13 159.349 172.521C159.448 172.949 159.448 173.389 159.533 173.817C159.606 174.171 159.655 174.526 159.716 174.881H159.714Z" fill="url(#paint5_linear_905_4891)"/>
<path fill-rule="evenodd" clip-rule="evenodd" d="M93.7448 94.2527C93.7448 94.2527 96.3597 99.6269 103.079 104.47C103.079 104.47 100.849 96.6741 99.2413 93.4359C99.2413 93.4359 97.0356 91.3576 93.7431 94.2527H93.7448Z" fill="#FFFF0E"/>
<path fill-rule="evenodd" clip-rule="evenodd" d="M128.977 110.645C128.977 110.645 133.548 108.805 134.966 109.494C134.966 109.494 130.588 110.705 128.977 110.645Z" fill="#FFFF0E"/>
<path fill-rule="evenodd" clip-rule="evenodd" d="M144.261 106.416C145.083 106.151 145.92 105.908 146.725 105.594C147.438 105.314 148.115 104.989 148.783 104.617C149.628 104.145 150.455 103.627 151.218 103.035C151.415 102.882 151.644 102.783 151.847 102.643C152.085 102.478 152.32 102.288 152.55 102.114C152.756 101.96 152.921 101.746 153.118 101.578C153.315 101.41 153.517 101.245 153.72 101.087C154.068 100.819 154.43 100.523 154.749 100.219C154.904 100.073 155.05 99.9172 155.215 99.7814C155.327 99.688 155.42 99.6591 155.549 99.6048C155.598 99.7101 155.471 99.9597 155.429 100.062C155.335 100.286 155.184 100.45 155.065 100.656C154.792 101.123 154.345 101.422 154.011 101.841C153.788 102.121 153.486 102.337 153.189 102.539C152.775 102.821 152.297 103.062 151.853 103.293C151.399 103.529 150.917 103.67 150.474 103.928C150.053 104.172 149.633 104.363 149.197 104.563C148.908 104.695 148.642 104.896 148.368 105.059C148.136 105.198 147.903 105.336 147.672 105.473C147.326 105.68 146.991 105.882 146.633 106.073C146.443 106.173 146.249 106.256 146.062 106.358C145.636 106.59 145.14 106.769 144.653 106.765C144.473 106.765 144.312 106.782 144.145 106.708C144.074 106.675 143.931 106.633 143.925 106.546C144.043 106.538 144.147 106.385 144.264 106.417L144.261 106.416Z" fill="#FFFF0E"/>
<path fill-rule="evenodd" clip-rule="evenodd" d="M156.598 98.4808C156.383 98.5895 156.198 98.7321 156.042 98.9104C156.042 99.0377 155.97 99.1838 156.194 99.177C156.43 99.1702 156.597 99.0225 156.746 98.856C156.823 98.7711 156.979 98.5164 156.887 98.3959C156.773 98.2448 156.461 98.4536 156.368 98.5385L156.598 98.4808Z" fill="#FFFF0E"/>
<path fill-rule="evenodd" clip-rule="evenodd" d="M166.388 82.7266C166.219 82.9491 165.977 83.2089 165.868 83.4857C165.786 83.6928 165.713 83.9068 165.634 84.1156C165.477 84.5265 165.389 84.951 165.258 85.3671C165.021 86.1261 164.837 86.897 164.533 87.639C164.396 87.9752 164.231 88.2944 164.07 88.6188C163.983 88.792 163.854 88.9499 163.778 89.1265C163.71 89.2844 163.618 89.4151 163.547 89.5696C163.479 89.7157 163.458 89.8651 163.362 89.9975C163.248 90.1555 163.178 90.3066 163.085 90.4747C163.01 90.6105 162.713 90.945 162.803 91.1199C162.893 91.1352 162.981 90.996 163.034 90.9399C163.2 90.7701 163.392 90.6343 163.564 90.473C163.886 90.169 164.172 89.8226 164.477 89.5034C164.61 89.3642 164.7 89.1995 164.819 89.0517C164.988 88.8395 165.192 88.6663 165.357 88.4473C165.623 88.089 165.917 87.7477 166.214 87.4166C166.364 87.2502 166.467 87.0532 166.613 86.8817C166.748 86.7255 166.9 86.5862 167.038 86.4351C167.474 85.9546 167.936 85.4944 168.359 85.0003C168.695 84.6063 169.013 84.1818 169.3 83.7505C169.527 83.4092 169.733 83.0646 169.94 82.7063C170.023 82.5636 170.208 82.2189 170.144 82.0423C170.06 81.8182 169.795 81.7265 169.587 81.6943C169.262 81.6467 168.843 81.6399 168.529 81.7163C168.174 81.8029 167.86 81.9354 167.525 82.0746C167.225 82.2003 166.978 82.4227 166.692 82.5653C166.483 82.6689 166.245 82.7674 166.388 82.7249V82.7266Z" fill="#FFFF0E"/>
<path fill-rule="evenodd" clip-rule="evenodd" d="M169.4 89.6765C169.305 89.8735 169.186 90.2012 169.042 90.4016C168.911 90.5833 168.789 90.7514 168.675 90.945C168.478 91.2812 168.289 91.6225 168.094 91.9604C167.739 92.5768 167.294 93.1456 167.023 93.8044C166.916 94.0642 166.804 94.3189 166.676 94.5685C166.542 94.8317 166.481 95.1187 166.388 95.3972C166.294 95.6705 166.264 95.9456 166.201 96.2258C166.15 96.4516 166.045 96.6656 166.109 96.8999C166.33 96.6129 166.488 96.2937 166.691 95.9915C166.834 95.7792 166.946 95.5602 167.14 95.3887C167.333 95.2155 167.488 95.027 167.661 94.8334C167.831 94.6432 167.999 94.448 168.128 94.2272C168.247 94.0235 168.322 93.8112 168.459 93.6176C168.588 93.4359 168.68 93.2271 168.799 93.0386C168.94 92.8162 169.082 92.5971 169.171 92.3458C169.339 91.8721 169.508 91.3712 169.634 90.8855C169.694 90.658 169.733 90.349 169.692 90.1112C169.66 89.9262 169.362 89.4049 169.4 89.6782V89.6765Z" fill="#FFFF0E"/>
<path fill-rule="evenodd" clip-rule="evenodd" d="M165.403 97.6131C165.313 97.9204 165.194 98.2668 165.124 98.5861C165.107 98.6659 165.078 98.8357 165.144 98.8849C165.216 98.9392 165.394 98.8662 165.448 98.8153C165.511 98.7576 165.547 98.6744 165.591 98.5996C165.684 98.4468 165.798 98.2074 165.752 98.0155C165.705 97.8084 165.513 97.6301 165.343 97.844L165.401 97.6131H165.403Z" fill="#FFFF0E"/>
<path fill-rule="evenodd" clip-rule="evenodd" d="M159.32 114.41C158.667 115.036 157.913 115.588 157.381 116.327C157.33 116.398 157.062 116.706 157.127 116.835C157.201 116.981 157.505 116.884 157.602 116.85C157.981 116.723 158.359 116.515 158.716 116.335C158.989 116.198 159.244 116.023 159.5 115.858C160.096 115.476 160.599 114.967 161.058 114.427C161.255 114.196 161.468 113.939 161.577 113.653C161.608 113.573 161.73 113.343 161.701 113.248C161.606 112.931 160.847 113.267 160.694 113.366C160.516 113.481 160.36 113.641 160.195 113.775C160.056 113.887 159.927 113.98 159.784 114.075C159.663 114.155 159.553 114.262 159.438 114.349C159.317 114.44 159.232 114.648 159.322 114.41H159.32Z" fill="#FFFF0E"/>
<path fill-rule="evenodd" clip-rule="evenodd" d="M156.367 117.422C156.145 117.526 155.924 117.633 155.704 117.741C155.702 117.843 155.428 118.03 155.564 118.166C155.639 118.241 155.887 118.142 155.96 118.118C156.12 118.064 156.206 117.952 156.325 117.84C156.446 117.724 156.435 117.679 156.367 117.538V117.422Z" fill="#FFFF0E"/>
<path fill-rule="evenodd" clip-rule="evenodd" d="M141.384 131.748C140.856 132.149 140.279 132.523 139.688 132.833C138.99 133.202 138.246 133.482 137.559 133.871C136.491 134.475 135.36 134.93 134.241 135.424C134.062 135.503 132.419 136.148 133.039 136.479C133.325 136.632 133.612 136.599 133.925 136.608C134.181 136.615 134.429 136.683 134.686 136.693C134.947 136.703 135.212 136.689 135.473 136.691C136.817 136.701 138.231 136.38 139.457 135.839C139.73 135.718 140.07 135.627 140.318 135.455C140.471 135.351 140.613 135.194 140.749 135.066C141.019 134.815 141.22 134.528 141.388 134.195C141.627 133.723 141.79 133.283 141.771 132.748C141.765 132.557 141.703 132.324 141.568 132.174C141.457 132.052 141.327 132.017 141.383 131.743L141.384 131.748Z" fill="#FFFF0E"/>
<path fill-rule="evenodd" clip-rule="evenodd" d="M131.807 135.84C131.507 135.693 131.167 135.465 130.84 135.45C130.722 135.445 130.614 135.465 130.5 135.489C130.249 135.542 129.851 135.572 129.659 135.762C129.367 136.053 129.992 136.284 130.225 136.341C130.503 136.411 130.899 136.418 131.193 136.38C131.429 136.35 131.901 136.144 131.901 135.851C131.921 135.846 131.943 135.842 131.964 135.837H131.809L131.807 135.84Z" fill="#FFFF0E"/>
<path fill-rule="evenodd" clip-rule="evenodd" d="M149.57 132.134C150.822 131.758 152.004 131.249 153.17 130.663C153.622 130.436 154.068 130.178 154.498 129.911C154.778 129.738 155.055 129.514 155.347 129.366C155.468 129.305 156.189 128.884 156.289 129.086C156.418 129.347 155.631 129.87 155.518 129.969C155.221 130.234 154.894 130.439 154.569 130.668C154.296 130.862 153.994 130.959 153.705 131.123C153.326 131.341 152.944 131.529 152.54 131.699C152.241 131.825 151.936 131.976 151.623 132.056C151.382 132.118 151.143 132.213 150.902 132.27C150.722 132.31 150.54 132.258 150.36 132.302C150.137 132.356 149.72 132.465 149.569 132.13L149.57 132.134Z" fill="#FFFF0E"/>
<path fill-rule="evenodd" clip-rule="evenodd" d="M176.871 138.853C177.477 138.853 178.206 138.916 178.832 138.827C179.287 138.763 179.742 138.664 180.199 138.622C181.101 138.537 181.985 138.306 182.892 138.272C183.25 138.258 183.614 138.275 183.972 138.275C184.167 138.275 184.446 138.226 184.639 138.269C184.723 138.287 184.954 138.404 185.015 138.471C185.232 138.705 185.021 138.671 184.872 138.756C184.549 138.939 184.3 139.089 183.923 139.169C183.356 139.289 182.794 139.442 182.218 139.525C181.821 139.581 181.423 139.512 181.028 139.574C180.5 139.658 179.994 139.666 179.459 139.664C179.024 139.664 178.589 139.663 178.155 139.664C177.822 139.666 177.555 139.603 177.233 139.559C176.959 139.522 176.798 139.574 176.567 139.447C176.46 139.388 176.29 139.225 176.871 138.854V138.853Z" fill="#FFFF0E"/>
<path fill-rule="evenodd" clip-rule="evenodd" d="M191.467 139.432C192.243 139.501 192.72 139.595 193.422 139.464C193.878 139.377 194.342 139.304 194.8 139.23C195.456 139.123 196.16 138.812 196.723 138.449C197.037 138.247 197.67 137.807 198.076 137.922C198.392 138.012 198.748 138.394 198.774 138.741C198.804 139.174 198.317 139.529 198.018 139.766C197.499 140.179 196.723 140.328 196.076 140.366C195.284 140.412 194.518 140.301 193.749 140.128C193.513 140.075 193.281 140.006 193.045 139.953C192.841 139.907 192.413 139.963 191.467 139.434V139.432Z" fill="#FFFF0E"/>
<path fill-rule="evenodd" clip-rule="evenodd" d="M193.204 110.819C193.155 111.345 192.827 112.649 193.491 113.074C193.844 113.299 194.012 112.705 194.018 112.437C194.024 112.05 193.778 111.038 193.32 110.934L193.204 110.819Z" fill="#FFFF0E"/>
<path fill-rule="evenodd" clip-rule="evenodd" d="M84.0033 122.79C84.5534 123.496 84.9592 124.229 85.7216 124.673C86.1665 124.931 86.5978 125.233 87.0953 125.382C87.5589 125.523 88.1549 125.681 88.6388 125.571C88.9003 125.511 88.9682 125.6 88.9564 125.262C88.9513 125.112 88.8392 124.914 88.7594 124.795C88.6015 124.554 88.3587 124.401 88.1719 124.185C87.9528 123.931 87.8221 123.686 87.5538 123.477C86.6657 122.783 85.8371 122.204 84.7623 121.857C84.3751 121.733 84.348 121.688 84.0066 121.9C83.7367 122.07 83.7265 122 83.6874 122.318C83.6365 122.739 83.9404 123.075 84.1561 123.404L84.0016 122.786L84.0033 122.79Z" fill="#FFFF0E"/>
<path fill-rule="evenodd" clip-rule="evenodd" d="M84.4668 134.219C85.3667 135.652 86.3923 136.959 87.4808 138.253C88.25 139.17 88.7169 140.33 89.5948 141.172C89.7408 141.311 91.2792 142.636 91.2623 141.872C91.2589 141.697 90.8225 141.013 90.7274 140.86C90.471 140.44 90.1857 139.999 89.8716 139.62C89.6135 139.31 89.3146 139.004 89.0956 138.659C88.8613 138.289 88.6626 138.068 88.3654 137.739C87.9936 137.325 87.7932 136.805 87.4638 136.362C87.1582 135.951 86.8457 135.56 86.5503 135.141C86.1546 134.581 85.7454 133.954 85.1171 133.718C84.9524 133.657 84.7011 133.475 84.4923 133.628C84.1578 133.874 84.4243 134.711 84.4651 134.219H84.4668Z" fill="#FFFF0E"/>
<path fill-rule="evenodd" clip-rule="evenodd" d="M140.226 161.404C141.52 161.173 142.568 160.968 143.843 161.267C144.466 161.413 145.096 161.606 145.709 161.79C146.105 161.908 146.706 162.024 146.993 162.319C147.295 162.628 147.19 163.185 146.915 163.459C146.538 163.834 145.704 163.752 145.235 163.708C144.273 163.618 143.351 163.501 142.425 163.219C141.901 163.06 141.169 162.8 140.727 162.452C140.525 162.292 139.997 161.849 140.23 161.404H140.226Z" fill="#FFFF0E"/>
<path fill-rule="evenodd" clip-rule="evenodd" d="M157.989 168.354C157.334 168.21 157.279 167.04 157.461 166.573C157.563 166.308 157.729 165.882 158.023 165.761C158.324 165.637 158.429 165.846 158.684 165.938C158.412 166.522 158.077 167.07 157.68 167.583L157.989 168.356V168.354Z" fill="#FFFF0E"/>
<path fill-rule="evenodd" clip-rule="evenodd" d="M182.393 167.891C183.256 167.328 183.84 166.933 184.78 166.654C185.257 166.512 185.75 166.452 186.227 166.308C186.786 166.14 187.349 165.873 187.922 165.76C188.131 165.717 188.333 165.731 188.536 165.695C188.767 165.656 188.655 165.54 188.918 165.685C189.404 165.95 189.183 166.306 188.867 166.573C188.27 167.081 187.759 167.281 186.984 167.463C186.551 167.565 186.207 167.809 185.787 167.938C185.534 168.016 185.271 168.059 185.016 168.125C184.069 168.374 182.914 168.201 182.391 167.892L182.393 167.891Z" fill="#FFFF0E"/>
<path fill-rule="evenodd" clip-rule="evenodd" d="M104.546 165.883C105.089 167.007 105.544 168.082 106.252 169.094C106.57 169.548 106.811 169.991 107.325 170.21C107.733 170.383 108.01 170.449 108.066 169.894C108.095 169.605 107.857 169.193 107.699 168.913C107.244 168.101 106.595 167.396 106.055 166.654C105.845 166.366 105.551 165.978 105.278 165.758C105.081 165.598 104.497 165.415 104.544 165.882L104.546 165.883Z" fill="#FFFF0E"/>
<path fill-rule="evenodd" clip-rule="evenodd" d="M127.252 190.596C128.557 190.325 129.69 189.919 130.928 189.469C131.441 189.282 131.95 189.282 132.47 189.172C132.517 189.162 132.575 189.061 132.646 189.044C132.774 189.012 132.986 189.051 133.122 189.053C133.257 189.053 133.848 188.973 133.966 189.058C134.448 189.413 133.417 190.35 133.195 190.584C132.346 191.478 130.94 191.968 129.69 191.841C129.058 191.776 128.484 191.439 127.871 191.369C127.479 191.325 126.615 191.18 126.654 190.622C126.7 190.613 126.744 190.605 127.253 190.596H127.252Z" fill="#FFFF0E"/>
<path fill-rule="evenodd" clip-rule="evenodd" d="M149.649 177.467C148.494 178.254 147.224 178.936 146.395 180.096C145.823 180.897 146.869 180.731 147.331 180.556C147.716 180.41 148.005 180.266 148.343 180.03C148.645 179.819 148.813 179.609 149.066 179.354C149.25 179.169 149.484 179.021 149.65 178.822C149.82 178.619 149.888 178.177 150.087 178.041C150.053 177.953 150.014 177.868 149.959 177.775L149.65 177.466L149.649 177.467Z" fill="#FFFF0E"/>
<path fill-rule="evenodd" clip-rule="evenodd" d="M118.138 159.704C118.979 159.35 119.814 159.051 120.599 158.63C121.329 158.239 122.03 157.835 122.774 157.465C123.728 156.991 124.759 156.327 125.866 156.302C126.282 156.291 126.557 156.091 126.943 156.264C127.25 156.404 127.481 156.527 127.676 156.804C128.24 157.606 127.123 158.377 126.511 158.789C126.043 159.105 125.613 159.492 125.09 159.713C124.477 159.971 123.818 160.088 123.199 160.319C122.171 160.699 121.079 161.122 119.986 161.258C119.419 161.328 118.899 161.121 118.444 160.825C118.215 160.676 117.982 160.475 117.829 160.246C117.687 160.034 117.597 159.686 118.14 159.706L118.138 159.704Z" fill="#FFFF0E"/>
<path style="mix-blend-mode:screen" d="M144.088 142.874C154.57 138.487 160.788 129.482 157.975 122.761C155.162 116.041 144.385 114.149 133.902 118.536C123.42 122.923 117.203 131.927 120.016 138.648C122.828 145.369 133.606 147.261 144.088 142.874Z" fill="url(#paint6_radial_905_4891)"/>
</g>
<defs>
<filter id="filter0_d_905_4891" x="0" y="0.5" width="280" height="276.881" filterUnits="userSpaceOnUse" color-interpolation-filters="sRGB">
<feFlood flood-opacity="0" result="BackgroundImageFix"/>
<feColorMatrix in="SourceAlpha" type="matrix" values="0 0 0 0 0 0 0 0 0 0 0 0 0 0 0 0 0 0 127 0" result="hardAlpha"/>
<feOffset dy="4"/>
<feGaussianBlur stdDeviation="40"/>
<feComposite in2="hardAlpha" operator="out"/>
<feColorMatrix type="matrix" values="0 0 0 0 0.682353 0 0 0 0 0.25098 0 0 0 0 0.364706 0 0 0 1 0"/>
<feBlend mode="normal" in2="BackgroundImageFix" result="effect1_dropShadow_905_4891"/>
<feBlend mode="normal" in="SourceGraphic" in2="effect1_dropShadow_905_4891" result="shape"/>
</filter>
<radialGradient id="paint0_radial_905_4891" cx="0" cy="0" r="1" gradientUnits="userSpaceOnUse" gradientTransform="translate(104.291 107.338) scale(93.0563 93.0563)">
<stop stop-color="#DE6863"/>
<stop offset="0.2" stop-color="#DA6562"/>
<stop offset="0.35" stop-color="#D15D61"/>
<stop offset="0.49" stop-color="#C04F60"/>
<stop offset="0.62" stop-color="#A93B5D"/>
<stop offset="0.74" stop-color="#8B225A"/>
<stop offset="0.86" stop-color="#660357"/>
<stop offset="0.87" stop-color="#630057"/>
</radialGradient>
<linearGradient id="paint1_linear_905_4891" x1="82.2373" y1="118.541" x2="165.569" y2="118.541" gradientUnits="userSpaceOnUse">
<stop offset="0.01" stop-color="#FF7D85"/>
<stop offset="0.3" stop-color="#FC7B83"/>
<stop offset="0.51" stop-color="#F2747E"/>
<stop offset="0.7" stop-color="#E26A77"/>
<stop offset="0.87" stop-color="#CC5C6C"/>
<stop offset="1" stop-color="#B54D61"/>
</linearGradient>
<radialGradient id="paint2_radial_905_4891" cx="0" cy="0" r="1" gradientUnits="userSpaceOnUse" gradientTransform="translate(97.8336 95.0033) scale(76.2493 76.2493)">
<stop stop-color="#FFFF4A"/>
<stop offset="1"/>
</radialGradient>
<linearGradient id="paint3_linear_905_4891" x1="81.9725" y1="109.492" x2="184.317" y2="109.492" gradientUnits="userSpaceOnUse">
<stop stop-color="#FFB80B"/>
<stop offset="0.39" stop-color="#FEB50C"/>
<stop offset="0.58" stop-color="#FDAE10"/>
<stop offset="0.73" stop-color="#FCA017"/>
<stop offset="0.85" stop-color="#F98E21"/>
<stop offset="0.97" stop-color="#F7762E"/>
<stop offset="1" stop-color="#F66D33"/>
</linearGradient>
<radialGradient id="paint4_radial_905_4891" cx="0" cy="0" r="1" gradientUnits="userSpaceOnUse" gradientTransform="translate(90.9566 161.54) scale(29.4232 29.4232)">
<stop stop-color="#FFB80B"/>
<stop offset="0.39" stop-color="#FEB50C"/>
<stop offset="0.58" stop-color="#FDAE10"/>
<stop offset="0.73" stop-color="#FCA017"/>
<stop offset="0.85" stop-color="#F98E21"/>
<stop offset="0.97" stop-color="#F7762E"/>
<stop offset="1" stop-color="#F66D33"/>
</radialGradient>
<linearGradient id="paint5_linear_905_4891" x1="79.9994" y1="151.727" x2="200" y2="151.727" gradientUnits="userSpaceOnUse">
<stop stop-color="#FFB80B"/>
<stop offset="0.39" stop-color="#FEB50C"/>
<stop offset="0.58" stop-color="#FDAE10"/>
<stop offset="0.73" stop-color="#FCA017"/>
<stop offset="0.85" stop-color="#F98E21"/>
<stop offset="0.97" stop-color="#F7762E"/>
<stop offset="1" stop-color="#F66D33"/>
</linearGradient>
<radialGradient id="paint6_radial_905_4891" cx="0" cy="0" r="1" gradientUnits="userSpaceOnUse" gradientTransform="translate(139.428 130.63) rotate(-22.71) scale(20.6126 13.2069)">
<stop stop-color="#FF5B00"/>
<stop offset="0.17" stop-color="#C44600"/>
<stop offset="0.4" stop-color="#7F2D00"/>
<stop offset="0.6" stop-color="#481900"/>
<stop offset="0.78" stop-color="#210B00"/>
<stop offset="0.92" stop-color="#080300"/>
<stop offset="1"/>
</radialGradient>
</defs>
</svg>
