<svg width="273" height="280" viewBox="0 0 273 280" fill="none" xmlns="http://www.w3.org/2000/svg">
<g filter="url(#filter0_d_905_4827)">
<path fill-rule="evenodd" clip-rule="evenodd" d="M88.7643 108.899C88.7643 108.899 89.4496 102.982 89.8977 99.7296C89.8977 99.7296 93.9438 94.0805 100.387 89.4348L108.972 89.8813C108.972 89.8813 91.6637 103.766 88.7626 108.899H88.7643Z" fill="url(#paint0_linear_905_4827)"/>
<path fill-rule="evenodd" clip-rule="evenodd" d="M100.389 89.4348C100.389 89.4348 100.389 94.1975 96.0426 97.9602C91.6967 101.723 89.8071 100.402 89.8071 100.402L88.7643 107.986L108.973 89.8813L100.389 89.4348Z" fill="url(#paint1_linear_905_4827)"/>
<path fill-rule="evenodd" clip-rule="evenodd" d="M192.41 139.057C192.41 144.455 191.651 149.686 190.216 154.622C187.369 164.552 181.852 173.343 174.485 180.2C169.218 185.111 163.001 189.015 156.155 191.613C149.951 193.974 143.236 195.255 136.2 195.255C135.204 195.255 134.195 195.232 133.21 195.173H133.199C131.727 195.102 130.268 194.959 128.833 194.781C117.978 193.358 108.12 188.849 100.123 182.134C97.1217 179.631 94.3935 176.808 91.985 173.722C90.158 171.409 88.5089 168.953 87.0625 166.355C86.7182 165.737 86.3854 165.109 86.0543 164.48C86.0543 164.457 86.0428 164.444 86.0312 164.421C85.6869 163.745 85.3673 163.068 85.0576 162.379H85.0461C84.0724 160.233 83.2191 158.014 82.5304 155.735C82.0082 154.098 81.57 152.414 81.2142 150.706C81.2026 150.694 81.2026 150.67 81.2026 150.658C80.9539 149.46 80.7397 148.249 80.5733 147.027C80.1927 144.419 80.0033 141.762 80.0033 139.057C80.0033 137.503 80.0626 135.948 80.2043 134.431C80.2751 133.457 80.3822 132.497 80.5123 131.536C81.2356 126.008 82.7792 120.741 85.0082 115.841C86.1004 113.433 87.3574 111.12 88.7692 108.901C91.1185 105.199 93.8944 101.807 97.0261 98.7576C107.146 88.9093 120.968 82.8467 136.2 82.8467C136.793 82.8467 137.386 82.8583 137.968 82.8698C138.597 82.8929 139.225 82.9176 139.854 82.9654C143.082 83.1795 146.236 83.654 149.286 84.3887C151.065 84.8154 152.81 85.3146 154.518 85.9077C155.681 86.2997 156.819 86.738 157.946 87.2124C158.788 87.5683 159.607 87.9356 160.426 88.3277C160.567 88.3986 160.711 88.4579 160.852 88.5287C166.31 91.1975 171.256 94.7098 175.551 98.9207C176.167 99.5137 176.761 100.13 177.355 100.759C177.747 101.186 178.137 101.626 178.518 102.064C179.17 102.799 179.799 103.571 180.415 104.342C182.658 107.189 184.626 110.25 186.275 113.5C188.209 117.273 189.728 121.294 190.76 125.507C191.839 129.849 192.409 134.381 192.409 139.055L192.41 139.057Z" fill="url(#paint2_radial_905_4827)"/>
<path fill-rule="evenodd" clip-rule="evenodd" d="M160.851 88.5336C160.666 88.5534 160.48 88.5732 160.295 88.6111C159.661 88.728 159.165 88.6704 158.541 88.4941C158.093 88.3673 157.77 88.1827 157.292 88.1037C156.61 87.9966 155.976 87.7033 155.294 87.616C154.572 87.5188 153.948 87.2355 153.266 86.9917C152.73 86.7973 152.447 86.8648 151.93 86.9917C151.413 87.1284 151.052 86.9142 150.594 86.7182C150.076 86.4941 149.561 86.4546 149.014 86.3475C147.591 86.0543 146.177 85.5963 144.764 85.2355C143.885 85.0115 143.077 85.0115 142.18 85.0016C141.479 84.9917 140.844 85.196 140.143 85.196C139.675 85.196 139.274 85.1185 138.806 85.0493C138.329 84.962 137.841 85.0592 137.363 84.9917C136.652 84.8846 136.271 84.7775 135.549 85.0016C135.014 85.1762 134.594 85.1581 134.059 85.1861C133.464 85.2157 132.792 85.3706 132.207 85.5073C131.154 85.7512 130.004 85.9455 128.922 85.9258C128.26 85.9258 127.284 85.7413 126.65 85.9653C126.24 86.1119 126.036 86.5502 125.754 86.8434C125.209 87.4085 124.535 87.9159 124.077 88.5501C123.619 89.1844 123.102 89.8368 123.141 90.6358C123.181 91.3277 123.502 92.1366 123.803 92.7708C124.115 93.443 124.222 94.0575 123.53 94.5056C122.662 95.0805 121.658 95.6077 120.663 95.8894C120.001 96.0838 119.406 96.2008 118.85 95.723C118.645 95.5467 118.518 95.2057 118.265 95.069C118.001 94.9322 117.728 95.069 117.446 95.1563C116.744 95.3606 116.062 95.5945 115.35 95.7115C114.912 95.779 114.532 96.013 114.102 96.092C113.584 96.1892 113.214 95.8087 112.678 95.9355C111.927 96.1118 111.177 96.4232 110.397 96.4627C109.841 96.4924 109.14 96.2485 108.672 95.9652C108.398 95.8087 108.331 95.6538 108.018 95.7411C107.764 95.8004 107.383 96.1118 107.247 96.3062C107.062 96.5698 106.993 96.9108 106.809 97.1843C106.614 97.4858 106.428 97.779 106.253 98.1002C105.932 98.7246 105.552 99.3094 105.141 99.8646C104.85 100.255 104.644 100.781 104.323 101.141C104.156 101.336 103.795 101.473 103.581 101.619C102.996 102.029 102.382 102.398 101.817 102.838C100.725 103.697 99.6917 104.642 98.5796 105.471C97.7312 106.105 96.5418 106.476 95.5764 106.874C94.9718 107.118 94.3474 107.295 93.7428 107.547C93.5484 107.624 93.1876 107.713 93.0212 107.858C92.8071 108.042 92.6901 108.385 92.4941 108.637C91.9669 109.281 91.4117 109.924 91.0114 110.665C90.7676 111.093 90.6209 111.533 90.4661 112.001C90.2519 112.635 89.9109 113.22 89.6951 113.853C89.2569 115.179 89.1679 116.563 88.6819 117.879C88.3986 118.65 87.99 119.352 87.6391 120.054C87.0345 121.243 86.9472 122.657 86.7709 123.973C86.6737 124.744 86.7133 125.63 86.8483 126.382C86.995 127.19 86.9554 128.029 86.9455 128.858C86.9357 129.736 86.3805 130.592 85.8236 131.256C85.3162 131.871 84.5469 132.105 83.9818 132.65C83.5041 133.118 82.9291 133.655 82.7248 134.317C82.6375 134.61 82.715 134.942 82.6672 135.253C82.5403 135.945 82.3657 136.599 82.2669 137.301C82.1598 138.169 82.14 138.988 82.14 139.864C82.14 140.302 82.1103 140.752 82.1301 141.19C82.1499 141.609 82.3064 141.999 82.3344 142.419C82.3542 142.712 82.2949 143.004 82.3344 143.297C82.3921 143.628 82.5189 143.969 82.598 144.292C82.7924 145.072 82.939 145.833 83.0856 146.614C83.2224 147.335 83.5041 148.047 83.7298 148.749C84.0411 149.704 84.2471 150.689 84.4316 151.683C84.5782 152.424 84.5683 153.193 84.6754 153.945C84.7627 154.549 84.8994 155.164 84.9291 155.768C84.9587 156.684 84.7347 157.602 84.7248 158.528C84.7149 160.088 85.3393 161.648 85.7001 163.149C85.8072 163.567 85.9143 163.997 86.0312 164.416C82.1746 156.798 80 148.179 80 139.054C80 127.958 83.2174 117.616 88.7643 108.899C91.1234 105.194 93.8927 101.802 97.0212 98.7592C107.151 88.9142 120.966 82.85 136.204 82.85C137.432 82.85 138.64 82.8896 139.849 82.967C147.347 83.4448 154.444 85.3953 160.849 88.5336H160.851Z" fill="url(#paint3_linear_905_4827)"/>
<path style="mix-blend-mode:multiply" fill-rule="evenodd" clip-rule="evenodd" d="M139.787 165.467C139.787 165.467 145.034 173.215 151.979 179.498C158.923 185.781 159.943 190.003 159.943 190.003C159.943 190.003 173.068 184.514 182.434 171.516C191.799 158.518 139.787 165.467 139.787 165.467Z" fill="url(#paint4_linear_905_4827)"/>
<path style="mix-blend-mode:screen" fill-rule="evenodd" clip-rule="evenodd" d="M102.874 182.951C97.064 178.086 92.2486 172.061 88.7874 165.236C86.6128 160.946 84.9752 156.345 83.9621 151.52C83.9522 151.51 83.9522 151.49 83.9522 151.47C83.1729 147.727 82.7528 143.846 82.7528 139.869C82.7528 128.774 85.9703 118.431 91.5171 109.715C93.8763 106.01 96.6456 102.617 99.774 99.5747C109.904 89.7297 123.718 83.6655 138.956 83.6655C140.185 83.6655 141.393 83.705 142.602 83.7825C146.413 84.0263 150.118 84.6573 153.681 85.6243C149.289 84.1845 144.653 83.2751 139.851 82.967C138.642 82.8896 137.432 82.85 136.205 82.85C120.966 82.85 107.153 88.9142 97.0228 98.7609C93.8927 101.802 91.1251 105.196 88.7659 108.901C83.2174 117.616 80 127.96 80 139.054C80 143.03 80.4184 146.912 81.1993 150.655C81.1993 150.674 81.1993 150.694 81.2092 150.704C82.2224 155.529 83.8616 160.132 86.0345 164.421C89.4958 171.244 94.3112 177.27 100.122 182.135C106.28 187.302 113.55 191.16 121.523 193.313C114.626 191.063 108.316 187.517 102.873 182.951H102.874Z" fill="url(#paint5_radial_905_4827)"/>
<path style="mix-blend-mode:multiply" opacity="0.4" fill-rule="evenodd" clip-rule="evenodd" d="M149.286 84.3904C146.236 83.654 143.081 83.1795 139.854 82.967C139.225 82.9192 138.597 82.8962 137.968 82.8715C139.309 83.6194 140.554 84.9357 140.862 86.2882C141.373 88.6012 142.119 90.7494 142.548 93.0624C142.974 95.3408 142.892 98.1645 141.859 100.229C141.207 101.533 140.436 102.649 139.403 103.716C138.668 104.464 138.039 104.879 137.516 105.804C136.994 106.705 136.497 107.583 135.904 108.438C135.026 109.72 134.1 111.084 133.092 112.258C132.736 112.685 132.344 112.981 132.024 113.481C131.62 114.098 131.431 114.678 130.991 115.166C129.983 116.293 128.416 116.922 127.029 117.431C125.225 118.107 123.695 118.866 121.999 119.769C119.616 121.026 117.657 122.64 114.869 122.711C113.944 122.734 112.983 122.604 112.057 122.688C110.906 122.784 109.838 123.34 108.7 123.555C107.703 123.744 106.706 123.947 105.71 124.113C104.072 124.362 102.72 124.92 101.141 125.299C99.0887 125.81 96.9421 125.678 94.8779 125.963C93.0146 126.212 91.4018 126.438 89.5517 125.986C86.6935 125.275 85.163 123.922 85.7676 120.884C86.1712 118.891 86.0296 117.372 85.0081 115.841C82.7775 120.741 81.2355 126.009 80.5123 131.536C81.8649 132.106 83.4069 132.403 84.6045 132.522C88.7692 132.948 93.2535 131.087 97.0607 129.663C99.0063 128.928 100.988 127.859 103.087 127.622C105.293 127.385 107.238 127.658 109.446 127.111C117.051 125.237 124.548 122.579 131.334 118.558C134.146 116.897 135.391 114.523 137.348 112.117C139.068 110.016 141.002 108.273 143.055 106.517C145.072 104.797 146.851 103.089 148.05 100.68C149.32 98.1414 150.399 95.354 150.981 92.5649C151.597 89.6226 150.839 86.7874 149.284 84.3904H149.286ZM148.907 92.0311C148.788 92.6605 148.706 93.3359 148.515 93.929C148.029 95.4364 147.128 96.9899 145.716 97.7839C145.063 98.1513 144.197 97.9256 143.818 97.2732C143.617 96.9174 143.617 96.466 143.544 96.0756C143.403 95.3046 143.307 94.5451 143.319 93.7494C143.342 91.84 143.271 89.9999 143.093 88.0905C143.294 89.1696 143.045 86.4892 144.731 85.7528C145.525 85.397 146.724 85.7166 147.329 86.3343C148.088 87.1053 148.266 88.4101 148.551 89.4183C148.8 90.3195 149.073 91.0789 148.907 92.0278V92.0311Z" fill="url(#paint6_linear_905_4827)"/>
<path style="mix-blend-mode:multiply" opacity="0.4" fill-rule="evenodd" clip-rule="evenodd" d="M140.768 181.755C140.602 181.778 140.449 181.814 140.294 181.826L141.409 181.933C141.268 181.896 141.029 181.814 140.768 181.755ZM140.768 181.755C140.602 181.778 140.449 181.814 140.294 181.826L141.409 181.933C141.268 181.896 141.029 181.814 140.768 181.755ZM190.761 125.51C190.738 126.981 190.323 128.441 190.287 129.924C190.251 131.892 189.919 133.423 189.409 135.322C189.053 136.627 188.389 137.587 187.949 138.846C187.452 140.294 186.738 141.528 186.003 142.856C184.544 145.513 183.086 148.17 182.457 151.184C181.887 153.9 181.768 156.19 180.415 158.681C179.122 161.078 177.165 163.07 175.776 165.396C175.124 166.511 174.672 166.452 173.689 167.152C172.585 167.935 171.577 169.168 170.509 170.035C168.208 171.874 166.108 173.144 163.32 174.186C161.575 174.85 159.88 175.373 158.029 175.658C156.818 175.847 155.632 175.658 154.434 175.859C152.536 176.167 150.732 176.737 148.905 177.33C145.904 178.303 142.843 178.86 139.853 179.786C137.765 180.427 135.724 180.806 133.601 181.257C132.307 181.531 131.263 182.231 129.924 181.957C128.571 181.672 127.337 181.223 126.008 180.806C124.311 180.284 122.91 180.249 121.083 180.249C118.652 180.249 115.828 180.616 113.431 180.153C110.726 179.631 108.033 178.908 105.327 178.35C103.69 178.005 102.444 177.33 100.95 176.63C99.55 175.977 98.0442 175.788 96.5846 175.325C95.0426 174.839 93.5599 174.114 91.9817 173.724C94.3902 176.808 97.1184 179.631 100.12 182.135C108.117 188.85 117.975 193.359 128.83 194.783C130.265 194.961 131.724 195.102 133.195 195.175H133.207C136.386 194.451 139.495 193.514 142.698 192.529C148.024 190.868 152.627 187.653 157.954 186.087C159.936 185.494 161.715 184.854 163.566 183.941C164.93 183.265 166.378 183.088 167.753 182.493C172.701 180.392 176.425 175.588 178.633 170.878C179.63 168.743 180.59 166.323 182.382 164.722C183.117 164.058 183.995 163.477 184.636 162.729C185.359 161.91 185.845 160.89 186.486 160.001C187.613 158.411 188.705 156.809 189.832 155.208C189.974 155.019 190.106 154.829 190.211 154.627C191.646 149.691 192.405 144.459 192.405 139.062C192.405 134.388 191.835 129.856 190.756 125.513L190.761 125.51ZM139.202 182.158C139.403 182.028 139.736 181.755 139.95 181.695C140.164 181.625 140.483 181.684 140.768 181.755C141.184 181.695 141.599 181.648 141.991 181.814C142.217 181.921 142.643 182.122 142.739 182.384C142.846 182.633 142.703 182.788 142.538 182.954C142.324 183.168 142.159 183.168 141.862 183.228C141.245 183.346 140.64 183.453 139.999 183.394C139.62 183.358 139.05 183.335 138.813 182.979C138.587 182.634 138.92 182.349 139.205 182.16L139.202 182.158ZM142.892 189.489C142.548 189.928 142.203 190.379 141.754 190.712C141.327 191.045 140.853 191.246 140.39 191.506C139.251 192.147 138.077 192.835 136.795 193.166C136.284 193.297 135.775 193.274 135.241 193.308C134.601 193.367 133.971 193.379 133.332 193.391C132.573 193.402 131.838 193.557 131.078 193.605C130.319 193.641 129.571 193.664 128.813 193.712C127.556 193.794 126.441 193.582 125.255 193.155C124.187 192.763 123.083 192.265 122.123 191.624C121.448 191.173 120.866 190.534 120.284 189.964C119.739 189.453 119.299 188.908 118.991 188.219C118.884 187.971 118.766 187.709 118.825 187.437C118.848 187.307 118.907 187.2 118.907 187.163C119.121 186.997 119.334 186.844 119.537 186.76C119.94 186.582 120.39 186.498 120.818 186.452C121.851 186.31 122.978 186.488 124.009 186.57C124.625 186.618 125.172 186.653 125.777 186.559C126.584 186.44 127.39 186.191 128.174 185.977C130.072 185.466 131.935 185.064 133.892 184.85C135.838 184.636 137.879 184.424 139.836 184.755C140.571 184.873 141.462 185.088 142.103 185.514C142.577 185.834 142.956 186.344 143.218 186.855C143.67 187.722 143.479 188.741 142.899 189.489H142.892ZM157.781 184.613C157.437 185.017 156.94 185.254 156.511 185.55C155.918 185.966 155.289 186.298 154.673 186.654C154.151 186.962 153.653 187.213 153.106 187.461C152.572 187.71 152.027 187.961 151.493 188.232C150.912 188.529 150.282 188.73 149.666 188.944C149.215 189.111 148.729 189.312 148.243 189.229C147.851 189.147 147.413 188.992 147.128 188.695C146.701 188.244 146.772 187.758 146.913 187.557C146.913 187.142 146.795 186.549 146.925 186.145C147.007 185.908 147.292 185.552 147.424 185.315C147.922 184.414 148.633 183.761 149.381 183.05C150.034 182.42 150.663 181.946 151.541 181.638C152.526 181.305 153.653 181.223 154.673 181.093C155.788 180.962 157.674 180.878 158.172 182.16C158.516 183.05 158.398 183.868 157.78 184.616L157.781 184.613ZM141.409 181.933C141.268 181.896 141.029 181.814 140.768 181.755C140.602 181.778 140.449 181.814 140.294 181.826L141.409 181.933Z" fill="url(#paint7_linear_905_4827)"/>
<path style="mix-blend-mode:multiply" opacity="0.4" fill-rule="evenodd" clip-rule="evenodd" d="M186.277 113.504V113.729C186.206 115.283 185.577 116.35 185.02 117.762C184.569 118.901 184.046 119.922 183.466 121.001C182.481 122.805 182.018 124.5 181.295 126.434C180.168 129.459 179.598 132.556 177.831 135.309C176.241 137.765 175.873 140.778 174.58 143.399C173.121 146.33 170.89 148.429 168.495 150.566C167.427 151.526 166.538 152.678 165.575 153.722C164.556 154.826 163.76 156.249 162.538 157.127C159.892 159.05 156.997 160.711 154.411 162.739C152.857 163.949 151.754 165.562 150.045 166.57C148.337 167.59 146.487 168.302 144.79 169.335C143.259 170.272 141.752 171.28 140.091 171.956C138.194 172.715 136.615 172.49 134.67 172.585C132.51 172.681 130.279 173.249 128.251 173.949C126.566 174.542 125.154 175.147 123.434 174.542C122.296 174.139 121.263 173.391 120.065 173.142C117.278 172.572 114.098 173.142 111.263 173.071C109.044 173.012 106.601 172.501 104.43 172.063C102.295 171.648 100.55 170.154 98.4857 169.547C95.9355 168.799 92.957 169.44 90.4891 168.468C89.4809 168.076 88.5205 167.271 87.6292 166.712C87.4397 166.594 87.2503 166.475 87.0592 166.356C86.7149 165.739 86.3821 165.111 86.051 164.482C86.6556 164.73 87.2618 165.004 87.878 165.3C91.1053 166.842 95.1266 166.605 98.6027 167.21C102.517 167.898 106.433 168.918 110.383 169.369C111.985 169.547 113.599 169.536 115.189 169.358C117.42 169.109 119.733 169.144 121.927 168.765C125.747 168.089 129.472 166.285 133.434 166.796C134.169 166.892 134.988 167.282 135.736 167.271C136.839 167.234 137.599 166.274 138.488 165.717C140.055 164.732 141.704 164.921 143.08 163.63C144.432 162.36 145.927 161.543 147.576 160.711C151.87 158.528 155.347 154.981 158.716 151.612C161.539 148.8 164.279 145.823 166.213 142.311C168.111 138.859 167.732 134.754 169.155 131.171C170.188 128.607 171.053 126.2 172.727 123.945C173.534 122.866 174.518 121.94 175.373 120.907C176.285 119.803 176.844 118.606 177.544 117.372C178.315 115.996 179.289 114.726 179.905 113.266C180.486 111.866 180.438 110.632 180.415 109.173C180.392 107.571 180.415 105.945 180.415 104.344C182.658 107.191 184.626 110.252 186.275 113.502L186.277 113.504Z" fill="url(#paint8_linear_905_4827)"/>
<path style="mix-blend-mode:multiply" opacity="0.4" fill-rule="evenodd" clip-rule="evenodd" d="M177.355 100.761C176.761 100.132 176.168 99.5154 175.551 98.9223C171.256 94.7098 166.309 91.1992 160.852 88.5304C160.711 88.4595 160.567 88.4002 160.426 88.3294C159.607 87.9373 158.788 87.5699 157.946 87.2141C156.819 86.7396 155.679 86.3014 154.518 85.9093C154.885 86.1465 155.312 86.336 155.455 86.4068C156.155 86.7627 156.725 86.9999 157.211 87.6292C157.686 88.2453 157.9 88.7083 157.935 89.4924C157.958 90.2272 158.065 90.9867 158.195 91.7231C158.314 92.3985 158.646 93.0394 158.788 93.7164C158.859 94.1201 158.918 94.4759 159.048 94.8795C159.345 95.8169 159.653 96.7428 159.856 97.7147C160.211 99.4462 159.286 100.883 158.669 102.461C157.696 104.963 157.08 107.504 156.356 110.089C155.786 112.13 154.671 114.146 153.129 115.617C151.622 117.077 149.393 117.408 148.04 118.986C146.854 120.373 145.394 121.691 143.722 122.474C141.788 123.4 139.747 124.111 137.696 124.739C136.225 125.177 134.683 125.214 133.2 125.606C131.362 126.069 129.676 126.994 127.945 127.741C126.106 128.535 124.387 129.556 122.535 130.35C120.672 131.133 118.94 132.2 117.09 132.96C116.189 133.327 115.24 133.505 114.326 133.826C112.428 134.49 110.589 135.701 108.571 135.938C107.871 136.021 107.159 136.187 106.471 136.187C105.914 136.199 105.415 136.258 104.881 136.461C103.125 137.149 102.046 139.129 100.029 139.141C98.1793 139.141 96.3523 139.07 94.5122 139.283C93.6225 139.39 92.7329 139.33 91.8433 139.342C91.583 139.342 91.2387 139.401 90.9768 139.294C90.6802 139.175 90.3475 138.89 90.0509 138.724C89.387 138.357 88.7462 137.882 88.1531 137.431C86.99 136.53 85.448 137.027 84.107 136.755C83.7034 136.673 83.1103 136.719 82.7545 136.518C81.9242 136.019 80.8797 134.999 80.2043 134.431C80.0626 135.948 80.0033 137.503 80.0033 139.057C80.0033 141.762 80.1927 144.419 80.5733 147.029C80.7397 148.251 80.9522 149.46 81.2026 150.66C81.2026 150.671 81.2026 150.696 81.2142 150.707C81.57 152.416 82.0082 154.101 82.5304 155.737C83.2191 158.015 84.0724 160.233 85.0461 162.381H85.0576C86.588 162.63 88.1663 162.832 89.7083 162.607C91.9026 162.287 94.0855 161.943 96.3161 162.025C98.4034 162.121 100.351 162.832 102.39 163.177C104.68 163.556 107.064 163.865 109.39 164.019C111.514 164.149 113.626 164.327 115.738 164.564C117.327 164.753 118.917 165.063 120.507 165.169C124.635 165.454 128.67 164.374 132.726 163.946C134.754 163.732 136.772 163.223 138.764 162.795C139.986 162.534 141.172 162.213 142.251 161.549C143.675 160.66 144.576 159.295 145.846 158.215C147.246 157.017 148.706 155.854 150.164 154.739C151.409 153.79 152.584 152.757 153.889 151.915C154.885 151.263 155.882 150.645 156.819 149.91C158.658 148.462 160.118 146.79 161.636 145.034C163.76 142.566 164.638 139.138 165.491 136.077C166.262 133.265 166.796 130.454 168.338 127.927C169.098 126.693 169.668 125.27 170.023 123.869C170.249 122.991 170.332 122.006 170.735 121.176C171.376 119.823 172.633 118.851 173.404 117.569C174.009 116.561 174.686 115.624 175.112 114.509C175.943 112.314 176.572 110.179 176.928 107.841C177.188 106.122 177.747 104.543 178.28 102.894C178.363 102.621 178.447 102.349 178.518 102.064C178.139 101.626 177.747 101.186 177.355 100.759V100.761ZM104.215 139.164C104.334 138.867 106.435 138.049 106.754 137.953C106.743 137.965 106.718 137.976 106.683 137.989L105.308 138.582C106.827 138.072 109.566 139.615 108.238 141.358C107.846 141.869 106.827 142.118 106.222 142.213C105.617 142.32 105.237 142.118 104.87 141.597C104.561 141.146 104.336 140.363 104.252 139.829C104.215 139.64 104.133 139.355 104.215 139.166V139.164ZM87.476 154.302C85.8385 153.851 84.7479 153.246 83.7397 151.871C83.0873 150.981 82.5173 150.091 82.3393 148.999C82.1977 148.098 81.8418 147.291 82.0543 146.39C82.2207 145.678 82.5057 144.895 82.8369 144.23C83.2042 143.482 83.7495 142.711 83.7973 142.462C85.4349 142.32 86.9653 142.261 88.6012 142.248C90.4282 142.236 92.2552 142.474 94.0937 142.485C94.924 142.497 95.7543 142.533 96.5731 142.355C97.3688 142.2 98.1398 141.988 98.9454 141.857C100.346 141.62 101.65 141.454 102.967 142.154C103.963 142.688 104.426 143.792 104.889 144.788C105.151 145.358 105.304 145.762 105.304 146.401C105.316 147.172 105.268 147.932 105.174 148.703C105.138 148.988 105.103 149.284 105.056 149.569C103.906 152.085 100.738 152.915 98.377 153.793C94.924 155.062 91.0213 155.264 87.4744 154.304L87.476 154.302ZM112.746 159.688C112.011 161.538 108.914 162.203 107.135 162.274C106.257 162.31 105.201 162.132 104.43 161.669C104.003 161.409 103.552 160.91 103.303 160.472C103.102 160.139 102.65 159.523 101.736 159.796C101.926 158.777 102.247 157.803 102.673 156.865C103.077 156.414 103.504 155.987 103.944 155.584C104.774 154.836 105.7 154.183 106.697 153.674C108.25 152.892 109.876 153.473 111.37 154.16C112.378 154.623 113.161 155.312 113.375 156.414C113.624 157.671 113.209 158.561 112.746 159.689V159.688ZM133.554 159.332C132.984 160.696 132.19 161.004 130.932 161.645C129.461 162.393 127.67 162.949 126.008 162.961C125.154 162.972 124.359 162.569 123.588 162.261C123.077 162.06 122.52 161.928 122.116 161.549C121.001 160.529 120.823 159.034 121.512 159.343C121.085 158.429 120.812 157.493 120.705 156.508C120.894 156.353 121.013 156.152 121.072 155.903C121.665 154.788 122.769 153.862 123.859 153.246C125.805 152.131 128.284 152.001 130.36 152.867C131.273 153.246 131.854 153.709 132.543 154.409C132.863 154.742 133.314 155.05 133.563 155.454C134.179 156.487 133.989 158.289 133.551 159.333L133.554 159.332ZM139.948 159.118C139.629 159.378 139.011 159.889 138.596 159.806C138.251 159.735 137.599 159.035 137.706 158.668L137.48 158.442C137.978 157.671 138.477 156.889 138.963 156.093C139.722 156.426 140.398 156.378 140.861 157.208C141.287 157.979 140.516 158.656 139.948 159.118ZM155.857 121.807C155.228 122.649 154.398 123.444 153.426 123.848C152.203 124.359 150.566 124.737 150.506 122.899C150.459 121.82 150.637 121.036 151.124 120.041C151.824 118.629 152.488 118.273 153.841 117.573C154.338 117.632 154.861 117.751 155.241 117.881C156.001 118.13 156.724 118.807 156.831 119.612C156.95 120.454 156.345 121.179 155.857 121.807ZM170.699 113.81C170.106 115.66 169.31 117.453 168.493 119.209C167.496 121.368 167.378 123.586 166.88 125.864C166.595 127.146 165.991 128.558 164.734 129.055C164.188 129.269 163.655 129.222 163.048 129.222C162.503 129.222 161.495 129.423 161.529 129.897C161.21 129.008 160.663 127.81 160.45 126.8C160.225 125.685 160.131 124.487 159.953 123.372C159.763 122.197 159.679 121.022 159.561 119.836C159.465 118.733 159.241 117.571 159.253 116.456C159.3 112.779 161.328 108.199 164.781 106.502C165.837 105.991 166.882 105.754 168.043 105.945C169.396 106.146 170.167 106.515 170.771 107.809C171.59 109.588 171.269 111.985 170.701 113.812L170.699 113.81Z" fill="url(#paint9_linear_905_4827)"/>
<path style="mix-blend-mode:multiply" opacity="0.4" fill-rule="evenodd" clip-rule="evenodd" d="M154.34 117.311C154.162 117.406 153.996 117.489 153.843 117.571C153.534 117.523 153.238 117.512 152.989 117.535L154.342 117.309L154.34 117.311Z" fill="url(#paint10_linear_905_4827)"/>
<path style="mix-blend-mode:multiply" opacity="0.4" fill-rule="evenodd" clip-rule="evenodd" d="M83.799 142.462C83.7166 142.474 83.6211 142.474 83.5255 142.485C83.7512 142.343 83.8336 142.343 83.799 142.462Z" fill="url(#paint11_linear_905_4827)"/>
<path fill-rule="evenodd" clip-rule="evenodd" d="M146.979 83.8863L156.846 80C156.846 80 172.544 86.1004 182.434 99.4561L183.051 107.986C183.051 107.986 164.348 100.817 146.979 83.8863Z" fill="url(#paint12_linear_905_4827)"/>
<path fill-rule="evenodd" clip-rule="evenodd" d="M182.837 170.676C182.837 170.676 174.569 179.646 168.32 181.646L163.19 183.211C163.19 183.211 139.787 174.791 138.505 160.144C137.428 147.838 158.475 128.95 164.17 126.703C169.865 124.454 176.534 125.728 176.534 125.728L182.837 170.676Z" fill="url(#paint13_linear_905_4827)"/>
<path fill-rule="evenodd" clip-rule="evenodd" d="M176.534 125.728C171.598 124.161 150.266 133.986 144.538 156.029C143.376 160.501 154.197 177.493 167.122 181.648C171.412 183.027 191.081 165.844 191.903 154.2C192.725 142.558 183.867 128.055 176.536 125.728H176.534Z" fill="url(#paint14_linear_905_4827)"/>
<path fill-rule="evenodd" clip-rule="evenodd" d="M145.913 158.607C148.958 133.645 171.654 125.518 176.59 127.085C180.155 128.217 185.399 133.452 188.397 138.614C185.302 132.24 180.674 127.042 176.534 125.728C171.598 124.161 150.266 133.986 144.538 156.029C144.134 157.582 145.18 160.65 147.256 164.164C146.121 161.767 145.77 159.795 145.913 158.607Z" fill="url(#paint15_linear_905_4827)"/>
<path style="mix-blend-mode:multiply" fill-rule="evenodd" clip-rule="evenodd" d="M104.181 185.351C104.181 185.351 109.268 187.216 112.976 186.205C112.976 186.205 114.402 174.173 109.868 166.477C105.334 158.781 97.6505 170.411 97.6505 170.411L95.8927 177.776C95.8927 177.776 100.168 182.92 104.181 185.353V185.351Z" fill="url(#paint16_linear_905_4827)"/>
<path fill-rule="evenodd" clip-rule="evenodd" d="M108.591 183.409L111.853 182.536C111.853 182.536 113.425 175.87 110.695 168.351C107.594 159.816 96.2305 153.436 94.5451 153.297C92.8598 153.16 91.1959 156.997 91.1959 156.997L108.593 183.407L108.591 183.409Z" fill="url(#paint17_linear_905_4827)"/>
<path fill-rule="evenodd" clip-rule="evenodd" d="M159.943 190.003L154.526 197.049C154.526 197.049 145.121 201.601 135.681 199.395L128.833 194.781L159.943 190.003Z" fill="url(#paint18_linear_905_4827)"/>
<path fill-rule="evenodd" clip-rule="evenodd" d="M88.7561 162.279C89.3228 159.689 91.6044 155.386 93.6489 154.966C95.6934 154.546 105.357 163.72 107.593 169.623C109.828 175.526 108.701 182.073 108.591 183.407C108.481 184.742 97.5171 181.022 91.985 176.476C86.453 171.93 88.7561 162.279 88.7561 162.279Z" fill="url(#paint19_linear_905_4827)"/>
<path fill-rule="evenodd" clip-rule="evenodd" d="M107.593 169.625C105.356 163.722 95.6934 154.548 93.6489 154.968C92.8614 155.129 92.0377 155.87 91.2914 156.865C91.7494 156.449 92.2156 156.154 92.672 156.06C94.7164 155.64 104.56 162.941 106.757 168.86C109.454 176.129 107.972 181.374 107.706 183.666C108.238 183.7 108.573 183.63 108.591 183.41C108.701 182.076 109.83 175.529 107.593 169.626V169.625Z" fill="url(#paint20_linear_905_4827)"/>
<path fill-rule="evenodd" clip-rule="evenodd" d="M138.113 144.554C135.685 143.419 138.439 132.77 140.828 130.454C143.217 128.138 149.429 133.551 150.253 137.979C151.075 142.406 143.673 147.156 138.113 144.556V144.554Z" fill="url(#paint21_linear_905_4827)"/>
<path fill-rule="evenodd" clip-rule="evenodd" d="M140.543 143.742C138.599 142.8 140.803 133.965 142.717 132.044C144.632 130.121 149.607 134.614 150.266 138.287C150.925 141.961 144.996 145.9 140.543 143.744V143.742Z" fill="url(#paint22_linear_905_4827)"/>
<path fill-rule="evenodd" clip-rule="evenodd" d="M156.846 80C156.846 80 157.333 85.9884 164.076 93.331C170.819 100.674 182.434 99.4561 182.434 99.4561L183.051 107.986C183.051 107.986 158.355 97.0706 146.979 83.8863L156.846 80Z" fill="url(#paint23_linear_905_4827)"/>
<path fill-rule="evenodd" clip-rule="evenodd" d="M176.213 133.078C175.933 133.311 175.322 133.749 175.806 134.088C175.938 134.18 176.051 134.131 176.19 134.172C176.299 134.204 176.325 134.288 176.45 134.24C176.844 134.09 176.687 132.971 176.243 133.195L176.213 133.078Z" fill="#0EDBFF"/>
<path fill-rule="evenodd" clip-rule="evenodd" d="M178.249 137.146C178.427 137.047 178.612 136.994 178.801 136.989C178.844 137.231 179.066 137.706 178.72 137.895C178.43 138.054 178.518 137.535 178.381 137.414L178.249 137.146Z" fill="#0EDBFF"/>
<path fill-rule="evenodd" clip-rule="evenodd" d="M141.276 139.638C141.647 139.785 142.014 139.938 142.378 140.098C142.497 139.994 142.675 140.014 142.813 139.922C142.991 139.803 143.152 139.554 143.222 139.347C143.325 139.032 143.166 138.777 143.021 138.536C142.925 138.376 142.831 138.141 142.684 138.032C142.513 137.905 142.179 137.955 141.999 138.04C141.778 138.146 141.615 138.373 141.469 138.576C141.33 138.765 141.169 139.082 141.162 139.32C141.156 139.577 141.36 139.849 141.548 139.981L141.274 139.64L141.276 139.638Z" fill="#0EDBFF"/>
<path fill-rule="evenodd" clip-rule="evenodd" d="M88.878 167.656C89.2487 167.803 89.616 167.956 89.9801 168.116C90.0971 168.012 90.275 168.032 90.415 167.94C90.593 167.821 90.7544 167.572 90.8236 167.365C90.9274 167.05 90.7676 166.795 90.6226 166.554C90.5271 166.394 90.4332 166.159 90.2865 166.05C90.1152 165.921 89.7808 165.972 89.6012 166.058C89.3805 166.164 89.2174 166.391 89.0707 166.594C88.9324 166.783 88.7709 167.099 88.7643 167.338C88.7577 167.595 88.962 167.867 89.1498 167.999L88.8763 167.658L88.878 167.656Z" fill="#0EDBFF"/>
<path fill-rule="evenodd" clip-rule="evenodd" d="M151.895 148.958C151.737 149.068 151.607 149.208 151.508 149.375C151.66 149.566 151.734 149.745 151.994 149.819C152.098 149.849 152.208 149.852 152.292 149.77C152.401 149.665 152.342 149.548 152.371 149.444C152.442 149.192 152.511 149.126 152.37 148.895C152.284 148.757 152.225 148.701 152.073 148.701C151.968 148.701 151.737 148.731 151.684 148.847L151.897 148.956L151.895 148.958Z" fill="#0EDBFF"/>
<path fill-rule="evenodd" clip-rule="evenodd" d="M152.737 154.834C152.709 154.898 152.424 155.623 152.795 155.414C152.981 155.309 152.915 155.024 152.788 154.941L152.808 154.87L152.737 154.834Z" fill="#0EDBFF"/>
<path fill-rule="evenodd" clip-rule="evenodd" d="M171.292 165.536C171.043 165.86 171.012 165.992 170.9 166.328C171.005 166.427 171.213 166.482 171.351 166.477C171.569 166.467 171.579 166.398 171.585 166.19C171.59 166.022 171.659 165.89 171.62 165.729C171.579 165.564 171.414 165.394 171.223 165.5L171.294 165.536H171.292Z" fill="#0EDBFF"/>
<path fill-rule="evenodd" clip-rule="evenodd" d="M155.65 149.666C155.791 149.796 155.88 149.958 155.917 150.151C155.719 150.2 155.696 150.006 155.666 149.852C155.62 149.607 155.734 149.683 155.849 149.487C155.87 149.492 155.892 149.497 155.913 149.5L155.648 149.668L155.65 149.666Z" fill="#0EDBFF"/>
<path fill-rule="evenodd" clip-rule="evenodd" d="M173.44 133.778C173.282 133.889 173.154 134.027 173.053 134.194C173.147 134.309 173.103 134.52 173.32 134.503C173.473 134.492 173.6 134.327 173.673 134.2C173.758 134.054 173.766 133.933 173.776 133.774C173.781 133.693 173.781 133.345 173.633 133.574L173.439 133.778H173.44Z" fill="#0EDBFF"/>
<path fill-rule="evenodd" clip-rule="evenodd" d="M171.033 92.3886C171.213 92.3425 171.444 92.2437 171.628 92.2453C171.681 92.2453 171.75 92.2832 171.808 92.2898C171.999 92.3063 172.005 92.2651 172.098 92.4183C172.203 92.5913 172.251 92.7181 172.22 92.9224C172.109 93.6209 171.122 92.5682 171.467 92.3112L171.033 92.387V92.3886Z" fill="#0EDBFF"/>
<path fill-rule="evenodd" clip-rule="evenodd" d="M95.555 93.6325C95.242 93.728 94.7659 93.7626 94.728 94.1251C94.6951 94.4348 95.2074 94.7577 95.4661 94.8417C95.9273 94.9916 96.6802 95.0657 96.9076 94.5435C97.041 94.2371 96.9405 93.6457 96.7527 93.3771C96.3672 92.8252 95.5781 93.0509 94.9768 93.2849L95.555 93.6325Z" fill="#0EDBFF"/>
<path fill-rule="evenodd" clip-rule="evenodd" d="M175.625 166.305C175.485 165.229 175.289 164.167 176.246 163.602C176.766 163.295 177.72 163.187 178.213 163.551C178.569 163.814 178.88 164.305 179.102 164.674C179.43 165.22 179.345 165.22 179.173 165.717C178.78 166.859 178.511 167.612 177.376 167.613C175.875 167.617 175.645 166.45 175.625 165.001V166.305Z" fill="#0EDBFF"/>
<path fill-rule="evenodd" clip-rule="evenodd" d="M176.29 136.055C176.709 135.942 177.066 135.722 177.368 135.401C177.068 135.215 176.411 134.828 176.29 135.393V136.055Z" fill="#0EDBFF"/>
<path fill-rule="evenodd" clip-rule="evenodd" d="M91.2618 163.442C91.6802 163.328 92.0377 163.111 92.3392 162.788C92.0394 162.602 91.3804 162.215 91.2618 162.78V163.442Z" fill="#0EDBFF"/>
<path fill-rule="evenodd" clip-rule="evenodd" d="M91.2618 172.473C91.6802 172.36 92.0377 172.142 92.3392 171.819C92.0394 171.633 91.3804 171.246 91.2618 171.811V172.473Z" fill="#0EDBFF"/>
<path fill-rule="evenodd" clip-rule="evenodd" d="M154.836 140.149C155.253 139.638 155.852 138.704 156.607 139.217C157.045 139.513 157.17 140.301 156.752 140.614C156.363 140.904 156.007 140.986 155.569 141.106C155.235 141.199 154.735 140.976 154.836 140.48V140.149Z" fill="#0EDBFF"/>
<path fill-rule="evenodd" clip-rule="evenodd" d="M168.941 163.406C169.358 162.895 169.958 161.961 170.712 162.473C171.15 162.77 171.276 163.557 170.857 163.87C170.468 164.16 170.112 164.243 169.674 164.363C169.34 164.455 168.841 164.233 168.941 163.737V163.406Z" fill="#0EDBFF"/>
<path fill-rule="evenodd" clip-rule="evenodd" d="M166.818 86.3327C167.468 86.4414 168.575 86.504 168.503 87.4134C168.46 87.9406 167.839 88.4381 167.36 88.2272C166.916 88.0328 166.668 87.7627 166.348 87.4414C166.103 87.196 166.05 86.6523 166.531 86.4958L166.819 86.3327H166.818Z" fill="#0EDBFF"/>
<path fill-rule="evenodd" clip-rule="evenodd" d="M164.508 169.432C164.925 168.921 165.524 167.989 166.279 168.5C166.717 168.796 166.842 169.584 166.424 169.897C166.035 170.187 165.679 170.269 165.241 170.389C164.907 170.481 164.407 170.259 164.508 169.763V169.432Z" fill="#0EDBFF"/>
<path fill-rule="evenodd" clip-rule="evenodd" d="M145.281 139.376C144.749 139.714 143.853 140.134 143.762 140.864C143.708 141.306 143.91 141.564 144.309 141.755C144.648 141.918 145.157 141.932 145.497 141.76C145.984 141.515 146.548 141.108 146.767 140.589C146.925 140.215 146.899 139.958 146.722 139.586C146.628 139.386 146.439 139.147 146.225 139.073C145.544 138.838 145.136 139.505 144.632 139.806L145.279 139.375L145.281 139.376Z" fill="#0EDBFF"/>
<path fill-rule="evenodd" clip-rule="evenodd" d="M147.006 137.436C147.296 137.538 147.541 137.701 147.74 137.92C147.45 138.019 147.141 138.248 146.844 138.143C146.46 138.006 146.388 137.64 146.475 137.273C146.523 137.072 146.884 136.719 147.09 136.808C147.193 136.853 147.213 136.994 147.248 137.085C147.32 137.276 147.324 137.235 147.221 137.436H147.006Z" fill="#0EDBFF"/>
<path fill-rule="evenodd" clip-rule="evenodd" d="M161.704 134.228C160.295 135.462 158.971 136.938 158.225 138.704C157.844 139.604 158.52 139.648 159.337 139.49C160.92 139.18 162.511 138.744 164.075 138.342C165.001 138.105 166.328 137.615 166.972 136.83C167.465 136.227 167.671 135.187 167.562 134.429C167.411 133.368 166.656 132.955 165.692 132.69C163.491 132.08 160.368 134.456 159.551 136.484L161.704 134.23V134.228Z" fill="#0EDBFF"/>
<path fill-rule="evenodd" clip-rule="evenodd" d="M153.857 142.241C154.314 142.255 154.739 142.365 155.132 142.572C155.019 142.708 155.055 142.89 154.996 143.049C154.907 143.283 154.684 143.52 154.475 143.653C154.124 143.876 153.543 143.956 153.154 143.81C151.974 143.362 153.783 141.963 154.182 142.457L153.859 142.241H153.857Z" fill="#0EDBFF"/>
<path fill-rule="evenodd" clip-rule="evenodd" d="M164.506 87.3772C164.907 87.6556 165.338 87.8681 165.643 88.2421C165.994 88.6737 166.338 89.0625 166.61 89.5468C166.747 89.7906 167.078 90.3244 166.59 90.392C166.061 90.4644 165.126 89.7692 164.742 89.4974C164.084 89.0345 163.449 88.6094 162.974 87.9422C162.734 87.6045 162.368 87.0197 162.612 86.6144C162.816 86.2734 163.109 86.2141 163.483 86.2223C163.874 86.2306 164.099 86.3459 164.406 86.593C164.547 86.7067 165.233 87.4035 165 87.5913L164.506 87.3755V87.3772Z" fill="#0EDBFF"/>
<path fill-rule="evenodd" clip-rule="evenodd" d="M169.618 132.199C169.424 132.339 167.935 133.166 168.643 133.525C169.024 133.718 169.773 133.662 170.16 133.497C170.505 133.35 170.854 133.124 170.638 132.727C170.201 131.927 169.106 132.388 168.539 132.737L169.617 132.199H169.618Z" fill="#0EDBFF"/>
<path fill-rule="evenodd" clip-rule="evenodd" d="M91.8005 168.34C91.957 169.213 92.1366 170.168 92.8961 170.747C93.6835 171.345 94.5748 171.103 95.3474 170.646C95.9207 170.308 96.4611 169.948 97.0212 169.603C97.3474 169.402 97.6341 169.351 97.6489 168.885C97.6637 168.384 97.2024 167.711 96.9141 167.33C96.5698 166.875 95.8746 166.332 95.3376 166.132C94.1646 165.694 91.9257 166.129 91.9521 167.725L91.7989 168.34H91.8005Z" fill="#0EDBFF"/>
<path fill-rule="evenodd" clip-rule="evenodd" d="M170.333 170.056C170.444 170.669 170.569 171.34 171.103 171.745C171.656 172.165 172.28 171.995 172.822 171.676C173.224 171.439 173.605 171.185 173.997 170.943C174.226 170.801 174.427 170.766 174.437 170.439C174.448 170.086 174.124 169.615 173.921 169.348C173.679 169.028 173.191 168.648 172.816 168.508C171.992 168.2 170.42 168.506 170.44 169.626L170.333 170.058V170.056Z" fill="#0EDBFF"/>
<path style="mix-blend-mode:screen" d="M170.159 143.061C174.017 139.204 174.017 132.949 170.159 129.092C166.302 125.234 160.047 125.234 156.19 129.092C152.332 132.949 152.332 139.204 156.19 143.061C160.047 146.919 166.302 146.919 170.159 143.061Z" fill="url(#paint24_radial_905_4827)"/>
<path style="mix-blend-mode:screen" fill-rule="evenodd" clip-rule="evenodd" d="M169.488 92.2041C168.238 93.9257 165.103 93.779 162.487 91.8796C159.87 89.9784 158.763 87.0427 160.012 85.3228C161.263 83.6013 164.398 83.7479 167.014 85.6474C169.63 87.5485 170.737 90.4842 169.488 92.2041Z" fill="url(#paint25_radial_905_4827)"/>
<path fill-rule="evenodd" clip-rule="evenodd" d="M157.012 80.9769C157.012 80.9769 159.592 91.9356 166.847 96.0657C176.028 101.291 182.434 99.4561 182.434 99.4561C182.434 99.4561 174.229 99.1661 166.643 93.9932C160.309 89.6737 157.012 80.9769 157.012 80.9769Z" fill="url(#paint26_linear_905_4827)"/>
<path style="mix-blend-mode:multiply" opacity="0.4" fill-rule="evenodd" clip-rule="evenodd" d="M139.787 165.467L144.66 158.304C144.66 158.304 150.908 176.078 167.121 181.646L163.569 183.936C163.569 183.936 147.042 179.233 139.787 165.467Z" fill="url(#paint27_linear_905_4827)"/>
<path style="mix-blend-mode:multiply" fill-rule="evenodd" clip-rule="evenodd" d="M149.014 86.3492C149.014 86.3492 172.389 109.879 189.213 120.337C189.213 120.337 187.585 113.907 183.051 107.986C183.051 107.986 168.928 103.342 149.014 86.3492Z" fill="url(#paint28_linear_905_4827)"/>
<path style="mix-blend-mode:screen" d="M121.503 123.764C132.389 116.602 137.492 105.138 132.901 98.1587C128.309 91.1794 115.762 91.3274 104.876 98.4892C93.9895 105.651 88.8866 117.115 93.4781 124.094C98.0697 131.073 110.617 130.925 121.503 123.764Z" fill="url(#paint29_radial_905_4827)"/>
</g>
<defs>
<filter id="filter0_d_905_4827" x="-4" y="0" width="280" height="280" filterUnits="userSpaceOnUse" color-interpolation-filters="sRGB">
<feFlood flood-opacity="0" result="BackgroundImageFix"/>
<feColorMatrix in="SourceAlpha" type="matrix" values="0 0 0 0 0 0 0 0 0 0 0 0 0 0 0 0 0 0 127 0" result="hardAlpha"/>
<feOffset/>
<feGaussianBlur stdDeviation="40"/>
<feComposite in2="hardAlpha" operator="out"/>
<feColorMatrix type="matrix" values="0 0 0 0 0.298039 0 0 0 0 0.505882 0 0 0 0 0.937255 0 0 0 1 0"/>
<feBlend mode="normal" in2="BackgroundImageFix" result="effect1_dropShadow_905_4827"/>
<feBlend mode="normal" in="SourceGraphic" in2="effect1_dropShadow_905_4827" result="shape"/>
</filter>
<linearGradient id="paint0_linear_905_4827" x1="98.8679" y1="108.899" x2="98.8679" y2="89.4348" gradientUnits="userSpaceOnUse">
<stop stop-color="#9A00B3"/>
<stop offset="1" stop-color="#7F72FF"/>
</linearGradient>
<linearGradient id="paint1_linear_905_4827" x1="94.5599" y1="109.886" x2="101.874" y2="87.5568" gradientUnits="userSpaceOnUse">
<stop stop-color="#5B008B"/>
<stop offset="1" stop-color="#8E00FF"/>
</linearGradient>
<radialGradient id="paint2_radial_905_4827" cx="0" cy="0" r="1" gradientUnits="userSpaceOnUse" gradientTransform="translate(101.397 112.766) scale(90.2838 90.2838)">
<stop stop-color="#60DBFF"/>
<stop offset="0.09" stop-color="#5FD5FF"/>
<stop offset="0.21" stop-color="#5EC4FF"/>
<stop offset="0.34" stop-color="#5CA8FF"/>
<stop offset="0.49" stop-color="#5A81FF"/>
<stop offset="0.64" stop-color="#5651FF"/>
<stop offset="0.68" stop-color="#5643FF"/>
<stop offset="0.74" stop-color="#553DF8"/>
<stop offset="0.83" stop-color="#542EE4"/>
<stop offset="0.93" stop-color="#5315C5"/>
<stop offset="1" stop-color="#5200AB"/>
</radialGradient>
<linearGradient id="paint3_linear_905_4827" x1="80" y1="123.635" x2="160.851" y2="123.635" gradientUnits="userSpaceOnUse">
<stop offset="0.01" stop-color="#81E0FF"/>
<stop offset="0.32" stop-color="#82DDFF"/>
<stop offset="0.55" stop-color="#85D3FF"/>
<stop offset="0.75" stop-color="#8BC3FF"/>
<stop offset="0.94" stop-color="#93ADFF"/>
<stop offset="1" stop-color="#97A4FF"/>
</linearGradient>
<linearGradient id="paint4_linear_905_4827" x1="161.676" y1="190.003" x2="161.676" y2="163.612" gradientUnits="userSpaceOnUse">
<stop stop-color="#B8C2FF"/>
<stop offset="1" stop-color="#5B729C"/>
</linearGradient>
<radialGradient id="paint5_radial_905_4827" cx="0" cy="0" r="1" gradientUnits="userSpaceOnUse" gradientTransform="translate(95.1316 100.799) scale(73.9776 73.9776)">
<stop stop-color="#FFFFD9"/>
<stop offset="1"/>
</radialGradient>
<linearGradient id="paint6_linear_905_4827" x1="80.5123" y1="107.726" x2="151.197" y2="107.726" gradientUnits="userSpaceOnUse">
<stop stop-color="#B8C2FF"/>
<stop offset="1" stop-color="#7D72B3"/>
</linearGradient>
<linearGradient id="paint7_linear_905_4827" x1="91.985" y1="160.34" x2="192.41" y2="160.34" gradientUnits="userSpaceOnUse">
<stop stop-color="#B8C2FF"/>
<stop offset="1" stop-color="#7D72B3"/>
</linearGradient>
<linearGradient id="paint8_linear_905_4827" x1="86.0526" y1="139.568" x2="186.277" y2="139.568" gradientUnits="userSpaceOnUse">
<stop stop-color="#B8C2FF"/>
<stop offset="1" stop-color="#7D72B3"/>
</linearGradient>
<linearGradient id="paint9_linear_905_4827" x1="80.0033" y1="125.563" x2="178.518" y2="125.563" gradientUnits="userSpaceOnUse">
<stop stop-color="#B8C2FF"/>
<stop offset="1" stop-color="#7D72B3"/>
</linearGradient>
<linearGradient id="paint10_linear_905_4827" x1="152.987" y1="117.441" x2="154.34" y2="117.441" gradientUnits="userSpaceOnUse">
<stop stop-color="#E8DDFF"/>
<stop offset="1" stop-color="#AA8AD8"/>
</linearGradient>
<linearGradient id="paint11_linear_905_4827" x1="83.5255" y1="142.431" x2="83.8072" y2="142.431" gradientUnits="userSpaceOnUse">
<stop stop-color="#E8DDFF"/>
<stop offset="1" stop-color="#AA8AD8"/>
</linearGradient>
<linearGradient id="paint12_linear_905_4827" x1="146.979" y1="93.9932" x2="183.051" y2="93.9932" gradientUnits="userSpaceOnUse">
<stop stop-color="#7F72FF"/>
<stop offset="1" stop-color="#9A00B3"/>
</linearGradient>
<linearGradient id="paint13_linear_905_4827" x1="155.174" y1="180.587" x2="173.472" y2="124.724" gradientUnits="userSpaceOnUse">
<stop stop-color="#280077"/>
<stop offset="1" stop-color="#812CFF"/>
</linearGradient>
<linearGradient id="paint14_linear_905_4827" x1="160.404" y1="179.45" x2="177.861" y2="126.165" gradientUnits="userSpaceOnUse">
<stop stop-color="#7A00B3"/>
<stop offset="1" stop-color="#B136FF"/>
</linearGradient>
<linearGradient id="paint15_linear_905_4827" x1="166.424" y1="164.164" x2="166.424" y2="125.566" gradientUnits="userSpaceOnUse">
<stop stop-color="#8E00B3"/>
<stop offset="1" stop-color="#E05CFF"/>
</linearGradient>
<linearGradient id="paint16_linear_905_4827" x1="104.54" y1="186.504" x2="104.54" y2="163.844" gradientUnits="userSpaceOnUse">
<stop stop-color="#81A9CE"/>
<stop offset="1" stop-color="#5B729C"/>
</linearGradient>
<linearGradient id="paint17_linear_905_4827" x1="98.1728" y1="179.995" x2="105.731" y2="156.922" gradientUnits="userSpaceOnUse">
<stop stop-color="#280077"/>
<stop offset="1" stop-color="#812CFF"/>
</linearGradient>
<linearGradient id="paint18_linear_905_4827" x1="144.388" y1="200" x2="144.388" y2="190.003" gradientUnits="userSpaceOnUse">
<stop stop-color="#7A00B3"/>
<stop offset="0.92" stop-color="#7006FC"/>
<stop offset="1" stop-color="#7006F9"/>
</linearGradient>
<linearGradient id="paint19_linear_905_4827" x1="98.6258" y1="183.684" x2="98.6258" y2="154.953" gradientUnits="userSpaceOnUse">
<stop stop-color="#7A00B3"/>
<stop offset="1" stop-color="#B136FF"/>
</linearGradient>
<linearGradient id="paint20_linear_905_4827" x1="100.132" y1="183.672" x2="100.132" y2="154.953" gradientUnits="userSpaceOnUse">
<stop stop-color="#8E00B3"/>
<stop offset="1" stop-color="#E05CFF"/>
</linearGradient>
<linearGradient id="paint21_linear_905_4827" x1="141.586" y1="145.75" x2="146.393" y2="131.07" gradientUnits="userSpaceOnUse">
<stop stop-color="#5B008B"/>
<stop offset="1" stop-color="#8E00FF"/>
</linearGradient>
<linearGradient id="paint22_linear_905_4827" x1="143.261" y1="144.689" x2="147.238" y2="132.548" gradientUnits="userSpaceOnUse">
<stop stop-color="#A400CA"/>
<stop offset="1" stop-color="#B136FF"/>
</linearGradient>
<linearGradient id="paint23_linear_905_4827" x1="163.198" y1="101.484" x2="168.939" y2="83.9604" gradientUnits="userSpaceOnUse">
<stop stop-color="#5B008B"/>
<stop offset="1" stop-color="#8E00FF"/>
</linearGradient>
<radialGradient id="paint24_radial_905_4827" cx="0" cy="0" r="1" gradientUnits="userSpaceOnUse" gradientTransform="translate(163.174 136.076) scale(9.87795)">
<stop stop-color="#317AFF"/>
<stop offset="0.1" stop-color="#2967D7"/>
<stop offset="0.29" stop-color="#1C4896"/>
<stop offset="0.47" stop-color="#122E60"/>
<stop offset="0.64" stop-color="#0A1A37"/>
<stop offset="0.78" stop-color="#040B18"/>
<stop offset="0.91" stop-color="#010306"/>
<stop offset="1"/>
</radialGradient>
<radialGradient id="paint25_radial_905_4827" cx="0" cy="0" r="1" gradientUnits="userSpaceOnUse" gradientTransform="translate(164.549 89.0574) rotate(35.99) scale(5.85495 3.86426)">
<stop stop-color="#317AFF"/>
<stop offset="0.1" stop-color="#2967D7"/>
<stop offset="0.29" stop-color="#1C4896"/>
<stop offset="0.47" stop-color="#122E60"/>
<stop offset="0.64" stop-color="#0A1A37"/>
<stop offset="0.78" stop-color="#040B18"/>
<stop offset="0.91" stop-color="#010306"/>
<stop offset="1"/>
</radialGradient>
<linearGradient id="paint26_linear_905_4827" x1="169.724" y1="99.7691" x2="169.724" y2="80.9769" gradientUnits="userSpaceOnUse">
<stop stop-color="#B000D9"/>
<stop offset="1" stop-color="#E05CFF"/>
</linearGradient>
<linearGradient id="paint27_linear_905_4827" x1="153.454" y1="183.938" x2="153.454" y2="158.305" gradientUnits="userSpaceOnUse">
<stop stop-color="#B8C2FF"/>
<stop offset="1" stop-color="#7D72B3"/>
</linearGradient>
<linearGradient id="paint28_linear_905_4827" x1="169.114" y1="120.337" x2="169.114" y2="86.3492" gradientUnits="userSpaceOnUse">
<stop stop-color="#81A9CE"/>
<stop offset="1" stop-color="#5B729C"/>
</linearGradient>
<radialGradient id="paint29_radial_905_4827" cx="0" cy="0" r="1" gradientUnits="userSpaceOnUse" gradientTransform="translate(113.797 110.655) rotate(-33.34) scale(23.6383 15.1455)">
<stop stop-color="#06FEFF"/>
<stop offset="0.17" stop-color="#04C4C4"/>
<stop offset="0.4" stop-color="#037F7F"/>
<stop offset="0.6" stop-color="#014848"/>
<stop offset="0.78" stop-color="#002121"/>
<stop offset="0.92" stop-color="#000808"/>
<stop offset="1"/>
</radialGradient>
</defs>
</svg>
