<svg width="280" height="279" viewBox="0 0 280 279" fill="none" xmlns="http://www.w3.org/2000/svg">
<g filter="url(#filter0_d_905_5032)">
<path fill-rule="evenodd" clip-rule="evenodd" d="M200 152.624L199.565 154.184C199.553 154.256 199.528 154.316 199.505 154.402C198.319 158.465 196.724 162.357 194.765 166.021C191.572 171.982 187.425 177.352 182.504 181.934C176.784 187.255 170.05 191.487 162.613 194.316C155.89 196.867 148.599 198.259 140.969 198.259C139.893 198.259 138.793 198.235 137.728 198.175H137.716C136.12 198.091 134.536 197.945 132.976 197.752C122.734 196.41 113.29 192.528 105.298 186.737C104.547 186.193 103.81 185.637 103.096 185.068C104.498 183.859 107.462 183.738 107.462 183.738L103.338 180.46L92.9997 174.897C91.0167 172.394 89.2268 169.722 87.6551 166.905C87.2807 166.24 86.918 165.563 86.567 164.873C86.567 164.849 86.5435 164.836 86.5301 164.812C86.1674 164.075 85.8165 163.336 85.4773 162.599H85.4655C84.4127 160.265 83.4825 157.859 82.7319 155.392C82.1761 153.614 81.6926 151.789 81.3047 149.927C81.2929 149.915 81.2929 149.89 81.2929 149.878C81.0276 148.584 80.7976 147.267 80.6162 145.936C80.2049 143.106 80 140.228 80 137.29C80 136.613 80.0118 135.923 80.0369 135.258C80.0604 134.254 80.1209 133.252 80.2183 132.271C80.2905 131.292 80.3996 130.311 80.5205 129.344C80.5205 129.272 80.5323 129.212 80.544 129.126C80.7254 127.771 80.9437 126.455 81.2207 125.136C81.5952 123.237 82.067 121.363 82.6345 119.538C83.3969 116.974 84.3271 114.496 85.4286 112.101C86.4814 109.779 87.6786 107.531 89.0202 105.366C93.1794 103.165 95.8408 102.017 95.8408 102.017C95.8408 102.017 166.821 87.9288 167.92 86.7198C169.008 85.5226 174.39 86.2732 174.39 86.2732C177.715 88.4611 180.823 90.9646 183.664 93.7453C184.329 94.3867 184.97 95.0634 185.623 95.7401C186.047 96.2001 186.47 96.6837 186.881 97.1556C187.583 97.9531 188.271 98.7877 188.936 99.6222C191.366 102.718 193.507 106.043 195.297 109.561C195.999 110.916 196.638 112.306 197.231 113.72C197.231 113.732 197.243 113.744 197.243 113.757C202.72 135.184 195.962 153.357 195.962 153.357C197.461 152.85 198.828 152.656 200 152.62V152.624Z" fill="url(#paint0_radial_905_5032)"/>
<path fill-rule="evenodd" clip-rule="evenodd" d="M200 152.624L199.565 154.184C199.553 154.256 199.528 154.316 199.505 154.402C198.319 158.465 196.724 162.357 194.765 166.021C191.572 171.982 187.425 177.352 182.504 181.934C176.784 187.255 170.05 191.487 162.613 194.316C155.89 196.867 148.599 198.259 140.969 198.259C139.893 198.259 138.793 198.235 137.728 198.175H137.716C136.12 198.091 134.536 197.945 132.976 197.752C122.734 196.41 113.29 192.528 105.298 186.737C104.547 186.193 103.81 185.637 103.096 185.068C104.498 183.859 107.462 183.738 107.462 183.738L103.338 180.46L92.9997 174.897C91.0167 172.394 89.2268 169.722 87.6551 166.905C87.2807 166.24 86.918 165.563 86.567 164.873C86.567 164.849 86.5435 164.836 86.5301 164.812C86.1674 164.075 85.8165 163.336 85.4773 162.599H85.4655C84.4127 160.265 83.4825 157.859 82.7319 155.392C82.1761 153.614 81.6926 151.789 81.3047 149.927C81.2929 149.915 81.2929 149.89 81.2929 149.878C81.0276 148.584 80.7976 147.267 80.6162 145.936C80.2049 143.106 80 140.228 80 137.29C80 136.613 80.0118 135.923 80.0369 135.258C80.0604 134.254 80.1209 133.252 80.2183 132.271C80.2905 131.292 80.3996 130.311 80.5205 129.344C80.5205 129.272 80.5323 129.212 80.544 129.126C80.7254 127.771 80.9437 126.455 81.2207 125.136C81.5952 123.237 82.067 121.363 82.6345 119.538C83.3969 116.974 84.3271 114.496 85.4286 112.101C86.4814 109.779 87.6786 107.531 89.0202 105.366C93.1794 103.165 95.8408 102.017 95.8408 102.017C95.8408 102.017 166.821 87.9288 167.92 86.7198C169.008 85.5226 174.39 86.2732 174.39 86.2732C177.715 88.4611 180.823 90.9646 183.664 93.7453C184.329 94.3867 184.97 95.0634 185.623 95.7401C186.047 96.2001 186.47 96.6837 186.881 97.1556C187.583 97.9531 188.271 98.7877 188.936 99.6222C191.366 102.718 193.507 106.043 195.297 109.561C195.999 110.916 196.638 112.306 197.231 113.72C197.231 113.732 197.243 113.744 197.243 113.757C202.72 135.184 195.962 153.357 195.962 153.357C197.461 152.85 198.828 152.656 200 152.62V152.624Z" fill="url(#paint1_radial_905_5032)"/>
<path fill-rule="evenodd" clip-rule="evenodd" d="M198.259 137.292C198.259 139.456 198.138 141.583 197.896 143.676C197.545 146.928 196.917 150.097 196.022 153.156C196.01 153.228 195.985 153.289 195.962 153.361C194.848 157.182 193.349 160.833 191.512 164.28C188.513 169.878 184.608 174.921 179.988 179.226C174.62 184.231 168.283 188.211 161.306 190.859C154.983 193.265 148.139 194.571 140.967 194.571C139.951 194.571 138.924 194.548 137.92 194.487H137.908C136.408 194.415 134.921 194.269 133.458 194.088C123.833 192.83 114.969 189.178 107.46 183.738C106.335 182.94 105.247 182.08 104.196 181.199C103.906 180.957 103.615 180.715 103.338 180.462C100.618 178.104 98.1261 175.468 95.9013 172.627C94.0392 170.27 92.3584 167.766 90.8824 165.118C90.5315 164.49 90.1923 163.849 89.8548 163.207C89.8548 163.184 89.843 163.17 89.8313 163.147C89.4803 162.458 89.1546 161.768 88.8389 161.066H88.8272C87.8365 158.878 86.965 156.617 86.2631 154.294C85.7309 152.625 85.2842 150.909 84.9215 149.168C84.9098 149.156 84.9098 149.131 84.9098 149.119C84.6562 147.899 84.4379 146.664 84.2684 145.419C83.8822 142.759 83.6874 140.05 83.6874 137.293C83.6874 136.652 83.6991 136.012 83.7243 135.382C83.7478 134.439 83.8083 133.497 83.8939 132.577C83.9661 131.658 84.0635 130.738 84.1844 129.831C84.1844 129.759 84.1962 129.699 84.2079 129.626C84.3775 128.357 84.5823 127.111 84.8359 125.879C85.1868 124.089 85.6335 122.336 86.1658 120.618C86.8794 118.212 87.7626 115.878 88.7902 113.629C89.9035 111.175 91.1846 108.817 92.6237 106.555C93.616 104.984 94.6907 103.472 95.8408 102.02C97.4377 99.9647 99.1773 98.0304 101.041 96.2153C111.354 86.1792 125.442 80 140.967 80C141.572 80 142.176 80.0118 142.769 80.0235C143.41 80.047 144.05 80.0722 144.691 80.1209C146.47 80.2418 148.234 80.4349 149.964 80.7136C149.987 80.7136 150.001 80.7254 150.024 80.7254C151.475 80.9437 152.902 81.2325 154.304 81.5717C156.118 82.0065 157.896 82.5153 159.637 83.1198C160.823 83.5194 161.983 83.9661 163.132 84.4497C163.99 84.8124 164.824 85.1868 165.659 85.5864C165.803 85.6586 165.949 85.7191 166.094 85.7913C171.656 88.5115 176.699 92.0913 181.075 96.3832C181.703 96.9877 182.307 97.6173 182.913 98.2571C183.313 98.692 183.711 99.1403 184.099 99.5869C184.764 100.336 185.405 101.123 186.033 101.909C188.318 104.811 190.325 107.93 192.006 111.243C193.977 115.089 195.525 119.187 196.576 123.481C197.253 126.189 197.725 128.97 197.992 131.813C198.173 133.614 198.257 135.44 198.257 137.29L198.259 137.292Z" fill="url(#paint2_radial_905_5032)"/>
<path style="mix-blend-mode:screen" fill-rule="evenodd" clip-rule="evenodd" d="M112.998 114.462C112.998 114.462 111.479 117.841 112.745 121.269C114.011 124.698 117.562 122.423 121.8 121.269C126.038 120.116 130.392 115.659 133.141 112.906C135.89 110.15 138.524 106.371 138.296 102.705C138.067 99.0395 134.197 96.6317 134.197 96.6317C134.197 96.6317 135.604 94.8367 134.422 102.02C133.24 109.203 131.631 111.766 130.095 112.906C128.559 114.046 123.88 116.773 121.33 118.296C118.779 119.819 115.93 121.404 114.239 121.034C112.55 120.665 111.658 116.87 112.998 114.464V114.462Z" fill="url(#paint3_radial_905_5032)"/>
<path style="mix-blend-mode:screen" fill-rule="evenodd" clip-rule="evenodd" d="M120.762 111.989C120.762 111.989 118.593 113.915 119.165 115.47C119.738 117.025 123.862 116.029 126.496 112.689C129.131 109.349 127.049 106.653 127.049 106.653C127.049 106.653 126.082 112.226 123.518 113.206C120.954 114.185 120.119 113.774 120.119 113.774C120.119 113.774 119.721 113.325 120.761 111.989H120.762Z" fill="url(#paint4_radial_905_5032)"/>
<path style="mix-blend-mode:screen" fill-rule="evenodd" clip-rule="evenodd" d="M114.19 114.395C114.19 114.395 116.303 112.001 118.707 109.757C121.113 107.516 125.276 106.651 125.276 106.651C125.276 106.651 122.846 105.363 119.733 107.175C116.62 108.987 114.19 114.395 114.19 114.395Z" fill="url(#paint5_radial_905_5032)"/>
<path style="mix-blend-mode:screen" fill-rule="evenodd" clip-rule="evenodd" d="M105.563 114.437C105.563 114.437 110.461 108.995 116.417 106.651C122.374 104.307 124.436 103.62 127.071 101.444C129.705 99.2679 132.681 97.525 132.681 97.525C132.681 97.525 126.883 97.8205 118.022 103.434C109.161 109.047 105.539 112.612 105.565 114.437H105.563Z" fill="url(#paint6_radial_905_5032)"/>
<path style="mix-blend-mode:screen" fill-rule="evenodd" clip-rule="evenodd" d="M93.616 113.356C93.616 113.356 102.096 104.881 108.74 101.56C115.384 98.2386 119.852 96.0608 125.808 94.5714C131.766 93.082 140.972 90.4844 140.972 90.4844L142.635 89.6499C142.635 89.6499 123.692 90.0327 111.26 97.5267C98.828 105.021 93.616 113.356 93.616 113.356Z" fill="url(#paint7_radial_905_5032)"/>
<path style="mix-blend-mode:screen" fill-rule="evenodd" clip-rule="evenodd" d="M103.783 123.127C103.783 123.127 105.195 134.83 107.232 135.357C109.267 135.883 116.566 135.829 127.415 130.281C138.262 124.733 140.467 126.016 146.545 119.835C152.625 113.655 155.087 106.641 156.969 102.02C158.851 97.3991 159.402 92.1249 158.814 90.4844C158.814 90.4844 160.863 91.7068 160.863 96.2892C160.863 100.871 159.488 108.57 157.542 113.025C155.594 117.481 150.553 124.468 144.483 127.905C138.411 131.342 126.27 137.941 114.355 137.849C102.441 137.757 104.324 136.895 103.096 134.519C101.869 132.143 103.783 123.125 103.783 123.125V123.127Z" fill="url(#paint8_radial_905_5032)"/>
<g style="mix-blend-mode:multiply" opacity="0.5">
<path fill-rule="evenodd" clip-rule="evenodd" d="M85.212 133.119C85.212 133.119 87.3412 137.837 88.5333 142.151C89.7255 146.463 89.4972 153.796 94.422 154.941C99.3485 156.086 106.221 159.293 108.856 158.492C111.49 157.69 121.219 155.945 126.612 157.003C132.006 158.061 141.849 157.461 145.284 155.743C148.721 154.026 156.12 149.613 159.637 148.268C163.155 146.923 168.013 143.093 172.199 138.84C176.385 134.585 176.328 129.741 177.359 127.334C178.39 124.928 180.452 115.307 180.223 110.953C179.995 106.601 177.359 98.467 177.359 98.467L174.909 95.8777C174.909 95.8777 177.931 107.059 176.558 114.963C175.183 122.866 176.444 126.075 170.945 133.634C165.445 141.196 157.77 147.151 149.18 150.016C140.588 152.881 135.08 152.535 126.154 153.362C117.824 154.135 107.462 153.544 103.338 152.471C99.6374 151.507 94.652 149.027 90.8724 142.992C87.0927 136.957 85.2137 133.121 85.2137 133.121L85.212 133.119Z" fill="#7D72B3"/>
</g>
<g style="mix-blend-mode:multiply" opacity="0.4">
<path fill-rule="evenodd" clip-rule="evenodd" d="M104.159 120.747C104.159 120.747 104.948 133.456 106.565 134.551C108.182 135.646 111.606 136.098 114.813 135.01C118.02 133.922 129.019 130.313 130.908 129.168C132.798 128.023 144.377 122.238 146.659 120.519C148.94 118.801 151.986 112.689 153.017 111.42C154.047 110.152 156.853 102.591 157.656 99.7263C158.459 96.8617 159.031 93.4262 159.031 93.4262C159.031 93.4262 159.259 91.8227 157.886 91.3072C156.511 90.7917 156.284 91.3072 156.284 91.3072C156.284 91.3072 155.995 93.1979 154.793 98.6382C153.591 104.08 137.381 122.752 129.19 127.62C120.999 132.488 113.21 132.661 110.402 132.316C107.595 131.972 104.102 122.923 104.159 120.747Z" fill="#7D72B3"/>
</g>
<g style="mix-blend-mode:multiply" opacity="0.4">
<path fill-rule="evenodd" clip-rule="evenodd" d="M103.783 123.127C103.783 123.127 104.121 115.213 106.164 112.556C108.208 109.9 115.067 104.423 119.122 102.361C123.177 100.299 129.082 97.3756 131.138 96.9407C133.193 96.5058 134.64 96.9407 134.64 96.9407C134.64 96.9407 132.169 95.6024 126.498 97.0347C120.828 98.467 114.414 103.739 111.319 105.37C108.226 107 103.415 110.953 102.268 112.958C101.123 114.963 103.783 123.127 103.783 123.127Z" fill="#7D72B3"/>
</g>
<g style="mix-blend-mode:multiply" opacity="0.4">
<path fill-rule="evenodd" clip-rule="evenodd" d="M89.8464 114.783L107.423 99.3821L118.311 94.4555C118.311 94.4555 129.074 90.7984 134.001 89.6482C138.927 88.498 149.981 88.1538 149.981 88.1538L155.775 88.7835C155.775 88.7835 145.691 83.2844 130.792 87.2941C115.893 91.3038 105.991 96.311 101.637 100.423C97.2849 104.535 90.7128 112.77 89.8447 114.781L89.8464 114.783Z" fill="#7D72B3"/>
</g>
<path style="mix-blend-mode:screen" fill-rule="evenodd" clip-rule="evenodd" d="M89.3544 115.47C89.3544 115.47 79.911 126.866 84.4933 133.881C89.0757 140.895 91.1024 151.01 92.4305 153.362C93.7587 155.715 108.963 159.251 112.12 158.521C115.277 157.79 122.849 155.804 127.805 157.721C127.805 157.721 136.578 156.966 139.098 156.966C141.619 156.966 146.201 154.828 147.271 154.293C148.34 153.757 154.296 151.85 157.352 150.627C160.406 149.405 165.294 145.586 167.281 144.06C169.267 142.532 174.459 136.346 175.453 134.437C176.445 132.528 179.419 121.377 180.188 116.108C180.957 110.839 178.692 100.68 176.981 97.169C175.27 93.6563 169.878 90.372 169.878 90.372L170.192 88.7835L174.393 86.2783C174.393 86.2783 181.716 95.8795 182.405 104.171C182.808 109.032 183.933 119.404 182.653 123.854C181.625 127.427 178.128 137.931 175.073 141.683C172.019 145.435 162.855 155.011 157.967 156.867C153.079 158.722 138.662 161.222 130.169 161.395C123.909 161.523 110.12 160.403 103.343 160.175C96.5662 159.945 91.7203 155.698 89.027 153.545C86.3337 151.391 87.2488 145.529 84.5001 140.9C81.7513 136.271 80.2368 130.113 80.9168 126.762C81.5985 123.41 89.3611 115.471 89.3611 115.471L89.3544 115.47Z" fill="url(#paint9_radial_905_5032)"/>
<path fill-rule="evenodd" clip-rule="evenodd" d="M105.937 158.863C104.487 158.524 103.18 157.726 101.741 157.364C100.932 157.171 100.133 157.05 99.3351 156.82C98.5375 156.59 97.6308 156.434 96.808 156.397C95.139 156.336 93.4095 155.95 92.3466 154.534C91.4029 153.265 90.8236 151.959 90.387 150.436C89.8178 148.404 89.2738 146.372 88.6458 144.342C88.0648 142.468 87.2672 140.811 86.2279 139.142C85.8165 138.477 85.4655 137.812 85.0189 137.171C84.6075 136.59 84.04 136.034 83.7243 135.381L83.7125 135.369C82.915 133.676 82.6362 131.803 82.6849 129.964C82.7084 128.972 82.9872 128.041 83.2054 127.074C83.4959 125.853 83.8099 124.777 84.4396 123.676C85.0206 122.671 85.5881 121.644 86.1691 120.616C87.4637 118.343 88.8171 116.069 90.4257 114.026C92.4943 111.426 94.8031 108.946 97.1371 106.589C98.4922 105.21 100.027 104.001 101.575 102.853C102.881 101.886 104.09 100.821 105.383 99.8422C107.608 98.1496 110.147 97.0481 112.639 95.8391C115.649 94.3884 118.66 92.9846 121.792 91.8361C125.504 90.4811 129.324 89.4064 133.195 88.6189C137.609 87.724 142.263 87.5426 146.762 87.5661C149.228 87.5779 151.865 87.2639 154.222 88.1824C155.552 88.7029 157.1 89.2217 158.26 90.021C158.526 90.2023 158.647 90.2393 158.816 90.4811C158.925 90.6255 158.986 90.8203 159.046 90.9882C159.228 91.4113 159.446 92.1132 159.446 92.5598C159.446 93.0552 159.228 93.4917 159.228 94.0106C159.239 94.7477 159.046 95.4126 159.023 96.138C158.986 96.9725 158.781 97.6257 158.66 98.4351C158.418 99.9345 158.2 101.374 157.621 102.787C156.774 104.831 156.219 106.983 155.287 109.002C155.008 109.618 154.513 110.09 154.234 110.706C153.969 111.262 153.727 111.722 153.411 112.254C152.818 113.247 152.335 114.274 151.658 115.216C150.256 117.151 148.829 119.219 146.978 120.754C144.742 122.616 142.299 124.104 139.735 125.471C138.066 126.354 136.324 127.067 134.632 127.914C133.121 128.663 131.609 129.437 130.085 130.15C126.167 131.975 122.007 133.331 117.896 134.612C116.711 134.986 115.599 135.386 114.377 135.555C113.265 135.713 111.97 136.076 110.845 136.051C109.636 136.014 108.367 135.737 107.23 135.349C105.271 134.696 105.078 132.568 104.933 130.802C104.824 129.521 104.68 128.13 104.426 126.873C104.233 125.82 104.147 124.78 103.906 123.716C103.664 122.64 103.506 121.54 103.494 120.438C103.471 119.036 104.015 117.718 104.329 116.351C104.534 115.468 104.631 114.561 104.994 113.715C105.514 112.481 106.505 111.418 107.484 110.535C108.488 109.64 109.479 108.757 110.471 107.85C111.064 107.294 111.766 106.883 112.394 106.374C113.493 105.491 114.716 104.802 115.973 104.161C116.966 103.64 117.691 102.819 118.61 102.215C119.553 101.599 120.63 100.945 121.632 100.437C122.515 100.002 123.471 99.6994 124.389 99.3367C125.138 99.0463 125.828 98.6114 126.591 98.3578C127.292 98.116 128.018 98.0438 128.706 97.7533C129.383 97.4746 130.024 97.2211 130.726 97.0397C131.512 96.8466 132.395 96.5192 133.193 96.4957C134.765 96.4722 135.539 97.258 135.938 98.781C136.494 100.861 135.854 102.614 135.104 104.537C134.499 106.085 133.834 107.62 133.242 109.193C132.456 111.285 130.594 112.385 129.022 113.812C127.365 115.312 125.321 116.654 123.291 117.56C122.65 117.851 121.961 118.02 121.332 118.286C120.788 118.527 120.255 118.83 119.711 119.12C119.36 119.313 119.107 119.592 118.779 119.809C118.489 120.002 118.15 120.111 117.847 120.304C117.122 120.788 116.36 121.259 115.562 121.61C114.788 121.961 113.253 122.166 112.745 121.259C112.478 120.799 112.514 120.16 112.394 119.639C112.249 119.023 112.224 118.465 112.224 117.826C112.224 117.186 112.345 116.712 112.442 116.096C112.54 115.503 112.805 115.031 112.998 114.452C113.579 112.808 114.716 111.586 115.718 110.233C116.346 109.375 116.892 108.528 117.629 107.729C118.717 106.569 120.254 105.988 121.788 105.602C123.167 105.262 125.222 104.853 126.491 105.65C127.568 106.315 126.817 107.778 126.468 108.673C126.275 109.168 126.068 109.677 125.9 110.184C125.78 110.558 125.731 110.981 125.514 111.344C125.068 112.093 124.184 112.614 123.519 113.195C123.217 113.448 122.734 113.811 122.371 113.932C121.911 114.076 121.416 114.064 120.955 114.173C120.725 114.222 120.604 114.513 120.327 114.403C120.074 114.32 120.074 114.029 120.123 113.762C120.171 113.52 120.28 113.278 120.327 113.048C120.339 113 120.279 112.916 120.29 112.855C120.484 112.142 121.39 111.247 121.802 110.642C122.455 110.908 122.007 111.295 121.886 111.586C121.802 111.828 121.813 112.058 121.753 112.311C121.704 112.516 121.39 112.892 121.62 113.109C121.778 113.267 122.309 112.988 122.478 112.928C123.88 112.432 124.787 110.896 125.224 109.506C125.502 108.599 125.454 107.027 124.45 106.627C123.701 106.337 122.792 106.495 122.007 106.483C119.165 106.434 117.485 109.47 115.973 111.428C114.946 112.758 114.16 114.269 113.579 115.841C113.168 116.929 112.998 118.054 112.708 119.154C112.489 119.963 112.224 121.209 113.47 121.039C114.195 120.93 114.981 120.544 115.671 120.314C116.276 120.109 116.808 119.891 117.376 119.589C118.271 119.105 119.275 118.972 120.205 118.561C120.93 118.235 121.667 117.836 122.393 117.485C124.267 116.578 126.094 114.728 127.398 113.132C128.268 112.056 129.514 111.247 130.506 110.266C131.546 109.239 132.103 107.957 132.815 106.7C133.529 105.419 133.891 104.184 134.205 102.771C134.496 101.513 135.245 100.086 134.859 98.781C134.447 97.4259 132.706 97.4024 131.583 97.5955C130.651 97.7533 129.623 97.9095 128.742 98.2604C127.098 98.9136 125.477 99.6155 123.844 100.28C121.268 101.345 119.127 103.098 116.769 104.537C115.572 105.262 114.279 105.818 113.166 106.69C112.343 107.331 111.557 108.08 110.772 108.782C110.216 109.289 109.744 109.835 109.128 110.27C108.318 110.837 107.507 111.467 106.903 112.253C106.408 112.894 105.838 113.655 105.561 114.429C105.356 115.045 105.549 115.626 105.585 116.254C105.633 117.112 105.392 117.911 105.355 118.757C105.318 119.652 105.355 120.571 105.366 121.466C105.366 123.219 105.101 124.925 105.136 126.701C105.16 127.789 105.402 128.938 105.62 130.014C105.79 130.872 106.141 131.611 106.201 132.493C106.225 133.048 106.322 133.811 106.817 134.173C107.059 134.355 107.373 134.403 107.652 134.513C107.905 134.61 108.135 134.694 108.377 134.766C108.51 134.815 108.656 134.838 108.8 134.887C108.909 134.948 108.993 135.105 109.103 135.152C109.393 135.273 109.828 135.201 110.13 135.141C110.832 135.008 111.52 134.838 112.222 134.717C113.975 134.415 115.754 134.452 117.423 133.823C119.345 133.097 121.135 132.058 123.032 131.284C125.874 130.123 128.921 129.277 131.641 127.813C132.862 127.148 134.131 126.532 135.389 125.963C138.376 124.621 141.508 123.533 144.132 121.513C145.136 120.739 145.897 119.856 146.757 118.949C147.24 118.428 147.761 117.97 148.196 117.401C149.477 115.732 150.711 113.918 151.69 112.056C152.113 111.27 152.367 110.412 152.803 109.626C153.48 108.406 154.303 107.329 154.931 106.072C155.547 104.838 155.91 103.605 156.321 102.299C156.575 101.501 156.756 100.848 156.732 100.002C156.709 98.3091 156.89 96.8449 157.567 95.2985C157.941 94.4522 158.474 93.1945 158.195 92.2391C158.051 91.7673 157.372 91.6464 156.961 91.5137C155.994 91.188 154.99 90.9462 154.059 90.5348C153.201 90.1486 152.583 89.7003 151.641 89.5307C151.279 89.4585 150.951 89.4098 150.589 89.4215C149.682 89.4702 148.896 90.0982 147.989 90.063C147.687 90.0512 147.482 89.9538 147.166 89.8934C146.695 89.8094 146.188 89.8699 145.727 89.8564C144.688 89.8195 143.684 89.6264 142.631 89.6382C141.399 89.6499 140.188 89.759 138.956 89.8312C137.807 89.8917 136.647 89.7943 135.497 89.8312C134.759 89.8548 134.299 90.1939 133.646 90.4844C133.053 90.7497 132.389 90.8589 131.772 91.0889C131.228 91.3072 130.72 91.5003 130.14 91.5238C129.329 91.5356 128.52 91.4147 127.734 91.5842C126.79 91.8025 125.763 92.2005 124.88 92.5749C122.304 93.6748 119.802 95.0533 117.129 95.8996C115.834 96.2992 114.504 96.4806 113.247 96.9877C112.775 97.1808 112.363 97.5199 111.94 97.797C111.094 98.3645 110.211 98.8851 109.341 99.4291C107.395 100.663 105.544 102.017 103.694 103.395C101.518 105.016 99.4375 106.636 97.6358 108.691C94.4925 112.306 91.2149 115.958 88.4947 119.913C87.2001 121.775 85.7493 123.781 84.8308 125.862C84.8073 125.911 84.7939 125.946 84.7704 125.994C84.2633 127.192 83.9963 128.449 84.1659 129.742C84.1659 129.766 84.1659 129.791 84.1777 129.814C84.3221 130.879 84.7821 132.137 85.2053 133.104C85.6284 134.071 85.9794 135.099 86.5234 136.019C87.1161 137.023 87.9389 137.857 88.3738 138.946C88.8943 140.287 89.3661 141.726 89.7641 143.116C90.2846 144.869 90.6826 146.683 91.01 148.473C91.2283 149.586 91.4096 150.709 91.9285 151.725C92.6656 153.153 94.2389 153.685 95.5201 154.519C96.1968 154.966 96.6686 155.112 97.4914 155.147C98.6399 155.208 99.728 155.487 100.829 155.812C103.175 156.538 105.521 157.07 107.988 157.033C109.45 157.021 110.842 156.622 112.279 156.44C113.621 156.271 114.964 156.138 116.294 155.92C117.503 155.727 118.689 155.387 119.921 155.387C121.081 155.387 122.411 155.581 123.536 155.895C125.556 156.45 127.526 156.899 129.63 156.813C130.911 156.776 132.169 156.487 133.438 156.402C134.635 156.329 135.772 156.511 136.957 156.595C139.061 156.727 141.081 156.209 143.039 155.567C144.381 155.132 145.494 154.491 146.691 153.777C147.658 153.21 148.59 153.04 149.653 152.761C151.734 152.206 153.801 151.443 155.688 150.379C158.155 148.977 160.186 146.908 162.581 145.408C163.936 144.562 165.459 144.006 166.777 143.1C167.865 142.363 168.893 141.503 169.813 140.573C170.889 139.485 171.905 138.348 172.981 137.26C173.804 136.425 174.13 135.386 174.613 134.345C175.339 132.808 175.592 131.225 175.859 129.556C176.138 127.912 176.863 126.46 177.577 124.937C178.484 122.991 179.258 121.164 179.451 118.987C179.609 117.355 179.825 115.71 179.825 114.066C179.825 113.013 179.644 111.986 179.511 110.946C179.379 109.979 179.186 109.047 178.979 108.092C178.714 106.918 178.749 105.709 178.532 104.525C178.339 103.509 178.025 102.433 177.747 101.429C177.554 100.715 177.287 99.9782 176.998 99.3015C176.465 98.1043 175.764 96.8584 174.906 95.8559C174.543 95.4328 174.083 95.3001 173.673 94.9979C173.359 94.7561 173.287 94.5513 172.924 94.3699C172.415 94.1164 171.908 93.8628 171.413 93.5841C170.615 93.124 169.709 92.9914 168.909 92.5565C168.147 92.1451 167.459 91.601 166.733 91.141C165.911 90.6204 165.076 90.2712 164.364 89.5928C163.662 88.9161 163.204 88.0564 162.525 87.3797C161.835 86.6779 160.845 86.2195 160.059 85.615C158.692 84.5504 157.083 84.4665 155.549 83.8133C154.763 83.4741 154.012 83.4271 153.191 83.2575C152.259 83.0644 151.631 82.4952 150.641 82.386C149.757 82.2886 148.888 82.2769 148.03 82.0351C147.509 81.9024 147.025 81.7815 146.507 81.7329C145.479 81.6355 144.487 81.7815 143.471 81.8907C142.576 81.9881 141.669 81.9394 140.774 81.9394C140.025 81.9394 139.238 82.0116 138.489 81.8907C136.361 81.5649 134.027 81.6002 131.875 81.7463C129.82 81.8907 127.811 82.0368 125.865 82.7135C124.208 83.281 122.576 83.7663 120.955 84.4312C119.844 84.8778 118.875 85.4958 117.836 86.0751C115.332 87.4771 113.035 89.1949 110.652 90.7917C107.993 92.5565 105.489 94.516 102.925 96.4386C101.256 97.6962 99.5634 98.9422 97.9196 100.235C97.206 100.803 96.5175 101.395 95.8391 102C97.436 99.9446 99.1756 98.0102 101.039 96.1951C111.354 86.1792 125.442 80 140.967 80C141.572 80 142.176 80.0118 142.769 80.0235C143.41 80.047 144.05 80.0722 144.691 80.1209C146.47 80.2418 148.234 80.4349 149.964 80.7136C149.987 80.7136 150.001 80.7254 150.024 80.7254C151.996 81.2577 153.954 81.8252 155.913 82.4179C157.545 82.9133 159.189 83.3616 160.798 83.9174C161.862 84.2801 162.902 84.7519 163.929 85.175C164.859 85.5747 165.889 85.9122 166.758 86.4092C168.174 87.2068 169.49 88.2713 170.797 89.2385C171.667 89.8917 172.478 90.6406 173.263 91.4029C174.363 92.4792 175.356 93.6764 176.19 94.9576C178.15 97.9935 179.71 101.427 180.447 104.957C181.075 107.932 180.991 111.159 180.87 114.195C180.809 115.816 180.519 117.594 180.193 119.189C179.83 120.942 179.214 122.574 179.033 124.389C178.949 125.272 179.093 126.179 178.949 127.049C178.828 127.763 178.563 128.451 178.417 129.165C178.114 130.676 177.668 132.14 176.966 133.53C176.022 135.429 174.741 137.001 173.374 138.633C171.838 140.458 170.194 142.213 168.597 144.001C166.989 145.803 165.054 147.254 162.987 148.488C161.379 149.455 159.735 150.615 157.982 151.294C156.338 151.947 154.476 152.877 152.698 153.072C151.344 153.205 150.268 153.713 149.166 154.534C148.501 155.018 148.006 155.671 147.388 156.192C146.832 156.664 146.179 156.808 145.514 157.038C143.931 157.57 142.383 157.449 140.725 157.449C138.368 157.449 136.046 157.679 133.7 157.921C132.514 158.042 131.342 158.14 130.157 158.066C129.092 158.005 128.041 157.726 126.989 157.594C125.816 157.449 124.643 157.424 123.483 157.243C122.564 157.085 121.839 157.073 120.907 157.194C120.158 157.278 119.407 157.194 118.658 157.255C117.884 157.327 117.122 157.496 116.35 157.606C112.83 158.089 109.529 159.71 105.939 158.863H105.937Z" fill="#00C4FF"/>
<path style="mix-blend-mode:screen" fill-rule="evenodd" clip-rule="evenodd" d="M103.096 185.066C103.096 185.066 116.507 187.422 122.603 187.245C131.818 186.978 142.438 188.124 150.686 188.354C158.934 188.582 173.349 181.82 175.984 180.581C178.618 179.342 184.979 175.71 190.531 169.553C196.084 163.395 198.276 153.361 198.276 153.361H195.96C195.96 153.361 195.082 157.705 191.734 162.581C189.725 165.506 186.774 168.068 182.742 171.552C176.942 176.565 169.391 180.423 161.778 182.321C151.645 184.848 142.636 184.147 136.423 185.074C127.428 186.414 107.459 183.237 107.459 183.237L103.093 185.068L103.096 185.066Z" fill="url(#paint10_radial_905_5032)"/>
<path fill-rule="evenodd" clip-rule="evenodd" d="M99.5551 178.425C99.5551 178.425 101.694 183.988 103.095 185.066C103.095 185.066 106.04 185.247 107.46 183.736L103.336 180.458L99.5551 178.423V178.425Z" fill="url(#paint11_radial_905_5032)"/>
<path fill-rule="evenodd" clip-rule="evenodd" d="M198.448 142.991C198.448 142.991 199.882 149.275 200 152.624C200 152.624 197.762 154.034 195.962 153.361C195.962 153.361 198.074 145.674 198.448 142.991Z" fill="url(#paint12_radial_905_5032)"/>
<path fill-rule="evenodd" clip-rule="evenodd" d="M159.637 83.1198C159.637 83.1198 171.591 84.3187 174.39 86.2766C174.39 86.2766 172.412 88.4913 170.189 88.7818C170.189 88.7818 160.495 83.4053 159.637 83.1198Z" fill="#FF61C7"/>
<path fill-rule="evenodd" clip-rule="evenodd" d="M89.0202 105.368L93.9199 104.596L95.8391 102.018C95.8391 102.018 92.3247 103.565 89.0186 105.368H89.0202Z" fill="#FF61C7"/>
<g style="mix-blend-mode:multiply" opacity="0.5">
<path fill-rule="evenodd" clip-rule="evenodd" d="M92.998 174.897C92.998 174.897 116.187 181.629 134.286 181.975C152.385 182.321 159.186 178.287 167.012 175.263C174.838 172.239 187.689 165.298 191.562 160.173C195.438 155.048 198.447 142.991 198.447 142.991C198.447 142.991 194.726 161.076 191.51 164.28C188.293 167.484 173.922 177.164 171.401 178.425C168.881 179.686 162.033 184.885 149.648 183.437C149.648 183.437 141.323 184.611 138.309 184.381C135.295 184.152 130.62 187.19 122.028 184.411C122.028 184.411 110.075 183.808 107.46 183.236C104.846 182.663 92.998 174.897 92.998 174.897Z" fill="#54469B"/>
</g>
<path fill-rule="evenodd" clip-rule="evenodd" d="M98.6299 150.56C98.6299 150.56 117.849 153.891 131.772 152.469C145.696 151.047 153.225 147.571 157.196 144.974C161.167 142.378 168.948 134.063 171.86 130.28C174.77 126.495 176.239 117.036 176.239 117.036C176.239 117.036 176.764 126.277 174.388 130.28C172.012 134.283 163.844 141.894 160.51 144.105C157.177 146.317 147.623 151.562 142.635 152.469C137.646 153.374 129.412 155.898 123.449 154.805C117.485 153.71 103.026 153.896 98.6299 150.562V150.56Z" fill="#B04FE2"/>
<path fill-rule="evenodd" clip-rule="evenodd" d="M125.276 181.328C125.276 181.328 145.284 179.951 152.157 178.425C159.03 176.897 168.068 173.179 174.388 170.861C180.709 168.542 185.484 163.954 188.967 161.405C192.451 158.857 196.917 148.268 196.917 148.268C196.917 148.268 194.068 158.766 189.692 162.191C185.316 165.617 174.116 171.893 161.463 177.508C147.4 183.748 136.462 181.975 125.274 181.328H125.276Z" fill="#8B40E0"/>
<path fill-rule="evenodd" clip-rule="evenodd" d="M194.993 156.203C195.307 155.248 195.646 154.304 195.96 153.362C194.847 157.184 193.347 160.835 191.51 164.282L191.473 164.319C190.941 164.839 190.288 165.251 189.793 165.818C189.286 166.386 188.837 166.955 188.293 167.487C185.682 170.075 182.695 172.3 179.61 174.308C176.442 176.375 173.275 178.334 169.804 179.846C167.145 181.006 164.423 181.998 161.605 182.712C159.343 183.293 156.926 183.546 154.592 183.655C153.406 183.716 152.246 183.909 151.072 184.018C149.61 184.176 148.11 184.151 146.671 184.404C144.181 184.864 141.617 185.19 139.09 185.323C136.926 185.444 134.773 185.746 132.608 185.746C129.828 185.734 127.071 185.299 124.288 185.311C121.592 185.335 118.872 185.214 116.187 184.972C114.578 184.814 113.006 184.512 111.423 184.33C110.081 184.173 108.787 183.884 107.457 183.738C106.332 182.94 105.244 182.08 104.193 181.199C103.902 180.957 103.612 180.715 103.335 180.462C104.858 180.945 106.371 181.466 107.905 181.949C110.058 182.626 112.476 183.026 114.726 183.304C116.565 183.535 118.776 183.704 120.591 183.244C122.477 182.772 123.88 183.377 125.596 184.079C126.394 184.404 127.205 184.562 128.04 184.804C129.213 185.143 130.083 185.069 131.28 184.913C132.333 184.78 133.433 184.599 134.484 184.369C135.379 184.176 136.237 183.813 137.144 183.692C138.715 183.499 140.385 183.269 141.956 183.548C143.77 183.862 145.571 184.043 147.398 183.753C149.297 183.439 151.062 183.257 152.985 183.246C153.638 183.246 154.17 183.306 154.798 183.415C155.5 183.536 156.153 183.343 156.842 183.271C158.099 183.138 159.199 182.957 160.421 182.582C161.533 182.232 162.598 181.736 163.686 181.325C165.813 180.527 167.736 179.741 169.623 178.459C171.206 177.394 172.961 176.645 174.568 175.617C176.104 174.625 177.47 173.381 179.041 172.437C180.699 171.433 182.21 170.201 183.793 169.076C184.797 168.362 185.692 167.516 186.695 166.79C187.566 166.162 188.52 165.665 189.331 164.952C190.721 163.766 192.016 162.485 192.923 160.876C193.769 159.389 194.471 157.829 194.989 156.209L194.993 156.203Z" fill="#00C4FF"/>
<path fill-rule="evenodd" clip-rule="evenodd" d="M133.606 124.362C133.606 124.362 147.428 113.047 153.237 102.018C153.237 102.018 137.127 118.568 133.606 124.362Z" fill="#FF77F4"/>
<path fill-rule="evenodd" clip-rule="evenodd" d="M119.07 137.851C119.07 137.851 127.803 137.908 137.461 133.88C147.118 129.853 151.962 121.545 151.962 121.545C151.962 121.545 145.429 127.789 138.313 131.284C131.196 134.778 125.811 135.631 119.072 137.849L119.07 137.851Z" fill="#EA9CF4"/>
<path fill-rule="evenodd" clip-rule="evenodd" d="M153.584 119.552C153.584 119.552 154.563 117.058 156.395 112.687C158.229 108.317 159.671 105.974 159.671 105.974C159.671 105.974 159.08 112.644 153.584 119.552Z" fill="#EA9CF4"/>
<path fill-rule="evenodd" clip-rule="evenodd" d="M116.081 160.868C116.081 160.868 128.216 163.817 144.023 160.868C159.832 157.92 160.519 156.957 164.873 153.544C169.225 150.13 172.32 145.758 174.037 144.105C175.755 142.455 177.918 136.721 177.918 136.721C177.918 136.721 173.448 144.755 167.041 150.135C160.633 155.513 155.364 158.15 144.596 159.753C133.828 161.357 121.452 161.187 116.081 160.868Z" fill="#D374F4"/>
<path fill-rule="evenodd" clip-rule="evenodd" d="M126.728 187.212C126.728 187.212 137.725 188.16 142.191 189.077C146.659 189.994 155.25 189.961 160.176 188.144C165.103 186.327 174.86 181.103 174.86 181.103C174.86 181.103 165.754 186.213 154.907 187.358C144.06 188.503 137.461 186.671 126.728 187.21V187.212Z" fill="#D374F4"/>
<path fill-rule="evenodd" clip-rule="evenodd" d="M178.056 179.503C178.056 179.503 185.036 174.817 188.461 171.705C188.461 171.705 184.806 176.707 178.056 179.503Z" fill="#D374F4"/>
<path fill-rule="evenodd" clip-rule="evenodd" d="M125.019 119.835C125.019 119.835 132.986 113.839 135.513 109.507C138.042 105.173 138.294 102.705 138.294 102.705C138.294 102.705 139.419 106.92 134.637 112.278C129.855 117.636 125.017 119.835 125.017 119.835H125.019Z" fill="#F2C4F8"/>
<path style="mix-blend-mode:screen" opacity="0.5" fill-rule="evenodd" clip-rule="evenodd" d="M106.413 115.649C105.768 118.573 105.115 121.545 106.107 124.362C107.099 127.18 108.627 129.014 110.078 129.166C111.529 129.319 113.668 125.882 113.591 124.89C113.515 123.897 111.223 121.3 111.07 118.704C110.918 116.108 113.747 112.288 113.593 110.837C113.438 109.386 107.474 110.837 106.411 115.648L106.413 115.649Z" fill="url(#paint13_linear_905_5032)"/>
<path style="mix-blend-mode:screen" opacity="0.5" fill-rule="evenodd" clip-rule="evenodd" d="M107.711 103.694C106.753 102.666 100.314 108.694 95.8408 113.356C91.3677 118.017 86.9381 124.127 86.5553 128.021C86.1741 131.917 89.3813 137.8 95.1843 142.992C100.987 148.184 116.098 152.919 119.731 150.78C123.365 148.642 122.027 141.998 119.068 140.393C116.109 138.789 106.486 142.02 101.981 137.285C97.4763 132.55 99.5114 126.188 100.072 120.841C100.759 114.296 102.821 108.775 104.73 107.094C106.639 105.413 107.709 103.692 107.709 103.692L107.711 103.694Z" fill="url(#paint14_linear_905_5032)"/>
<path fill-rule="evenodd" clip-rule="evenodd" d="M87.9691 123.85C86.7249 128.073 86.5788 132.588 89.1764 136.056C91.774 139.523 93.7352 136.929 94.652 128.466C95.5688 120.002 95.0432 114.212 95.0432 114.212C95.0432 114.212 89.534 118.536 87.9691 123.852V123.85Z" fill="#FFFFF8"/>
<path fill-rule="evenodd" clip-rule="evenodd" d="M92.2139 138.527C90.4575 140.158 94.652 143.388 95.3354 141.832C96.0188 140.274 93.3557 137.468 92.2139 138.527Z" fill="#F5CEFA"/>
<path fill-rule="evenodd" clip-rule="evenodd" d="M87.5611 151.306C87.3949 153.987 88.9246 157.036 93.616 158.791C98.3075 160.547 101.981 160.069 101.981 160.069C101.981 160.069 96.4924 158.981 93.4716 156.865C90.4509 154.749 87.5611 151.306 87.5611 151.306Z" fill="#F5CEFA"/>
<path fill-rule="evenodd" clip-rule="evenodd" d="M106.799 116.066C105.251 114.016 107.266 111.211 110.105 109.485C112.944 107.759 113.285 108.283 112.677 109.789C112.07 111.297 111.141 114.476 109.813 116.064C108.485 117.653 107.716 117.278 106.799 116.064V116.066Z" fill="#FFFFF8"/>
<path fill-rule="evenodd" clip-rule="evenodd" d="M117.006 112.498C116.417 111.494 117.606 108.56 119.226 108.829C120.846 109.097 120.452 109.744 119.691 110.815C119.123 111.616 117.562 113.446 117.006 112.498Z" fill="#FFFFF8"/>
<path fill-rule="evenodd" clip-rule="evenodd" d="M128.738 117.522C128.186 116.382 132.706 112.899 133.317 113.263C133.928 113.628 133.532 115.471 132.477 116.163C131.423 116.855 128.93 117.921 128.736 117.522H128.738Z" fill="#FFFFF8"/>
</g>
<defs>
<filter id="filter0_d_905_5032" x="0" y="0" width="280" height="278.259" filterUnits="userSpaceOnUse" color-interpolation-filters="sRGB">
<feFlood flood-opacity="0" result="BackgroundImageFix"/>
<feColorMatrix in="SourceAlpha" type="matrix" values="0 0 0 0 0 0 0 0 0 0 0 0 0 0 0 0 0 0 127 0" result="hardAlpha"/>
<feOffset/>
<feGaussianBlur stdDeviation="40"/>
<feComposite in2="hardAlpha" operator="out"/>
<feColorMatrix type="matrix" values="0 0 0 0 0 0 0 0 0 0.768627 0 0 0 0 1 0 0 0 1 0"/>
<feBlend mode="normal" in2="BackgroundImageFix" result="effect1_dropShadow_905_5032"/>
<feBlend mode="normal" in="SourceGraphic" in2="effect1_dropShadow_905_5032" result="shape"/>
</filter>
<radialGradient id="paint0_radial_905_5032" cx="0" cy="0" r="1" gradientUnits="userSpaceOnUse" gradientTransform="translate(102.839 115.911) scale(93.6126 93.6126)">
<stop stop-color="#FF9AFF"/>
<stop offset="0.09" stop-color="#FB94FF"/>
<stop offset="0.21" stop-color="#F083FF"/>
<stop offset="0.34" stop-color="#DF67FF"/>
<stop offset="0.49" stop-color="#C740FF"/>
<stop offset="0.64" stop-color="#A810FF"/>
<stop offset="0.68" stop-color="#9F00FF"/>
<stop offset="0.74" stop-color="#9800F8"/>
<stop offset="0.83" stop-color="#8700E4"/>
<stop offset="0.93" stop-color="#6A00C5"/>
<stop offset="1" stop-color="#5200AB"/>
</radialGradient>
<radialGradient id="paint1_radial_905_5032" cx="0" cy="0" r="1" gradientUnits="userSpaceOnUse" gradientTransform="translate(102.839 115.911) scale(93.6126 93.6126)">
<stop stop-color="#FF9AFF"/>
<stop offset="0.09" stop-color="#FB94FF"/>
<stop offset="0.21" stop-color="#F083FF"/>
<stop offset="0.34" stop-color="#DF67FF"/>
<stop offset="0.49" stop-color="#C740FF"/>
<stop offset="0.64" stop-color="#A810FF"/>
<stop offset="0.68" stop-color="#9F00FF"/>
<stop offset="0.74" stop-color="#9800F8"/>
<stop offset="0.83" stop-color="#8700E4"/>
<stop offset="0.93" stop-color="#6A00C5"/>
<stop offset="1" stop-color="#5200AB"/>
</radialGradient>
<radialGradient id="paint2_radial_905_5032" cx="0" cy="0" r="1" gradientUnits="userSpaceOnUse" gradientTransform="translate(105.494 110.495) scale(92.0208 92.0208)">
<stop stop-color="#FF9AFF"/>
<stop offset="0.09" stop-color="#FB94FF"/>
<stop offset="0.21" stop-color="#F083FF"/>
<stop offset="0.34" stop-color="#DF67FF"/>
<stop offset="0.49" stop-color="#C740FF"/>
<stop offset="0.64" stop-color="#A810FF"/>
<stop offset="0.68" stop-color="#9F00FF"/>
<stop offset="0.74" stop-color="#9800F8"/>
<stop offset="0.83" stop-color="#8700E4"/>
<stop offset="0.93" stop-color="#6A00C5"/>
<stop offset="1" stop-color="#5200AB"/>
</radialGradient>
<radialGradient id="paint3_radial_905_5032" cx="0" cy="0" r="1" gradientUnits="userSpaceOnUse" gradientTransform="translate(117.596 100.762) scale(20.5759 20.5759)">
<stop stop-color="white"/>
<stop offset="1" stop-color="#623964"/>
</radialGradient>
<radialGradient id="paint4_radial_905_5032" cx="0" cy="0" r="1" gradientUnits="userSpaceOnUse" gradientTransform="translate(120.868 108.201) scale(7.15809)">
<stop stop-color="white"/>
<stop offset="1" stop-color="#623964"/>
</radialGradient>
<radialGradient id="paint5_radial_905_5032" cx="0" cy="0" r="1" gradientUnits="userSpaceOnUse" gradientTransform="translate(116.467 107.538) scale(7.54261 7.54261)">
<stop stop-color="white"/>
<stop offset="1" stop-color="#623964"/>
</radialGradient>
<radialGradient id="paint6_radial_905_5032" cx="0" cy="0" r="1" gradientUnits="userSpaceOnUse" gradientTransform="translate(111.131 100.274) scale(17.4242 17.4242)">
<stop stop-color="white"/>
<stop offset="1" stop-color="#623964"/>
</radialGradient>
<radialGradient id="paint7_radial_905_5032" cx="0" cy="0" r="1" gradientUnits="userSpaceOnUse" gradientTransform="translate(103.684 93.5018) scale(29.5408)">
<stop stop-color="white"/>
<stop offset="1" stop-color="#623964"/>
</radialGradient>
<radialGradient id="paint8_radial_905_5032" cx="0" cy="0" r="1" gradientUnits="userSpaceOnUse" gradientTransform="translate(114.633 98.1798) scale(41.1619 41.1619)">
<stop stop-color="white"/>
<stop offset="1" stop-color="#623964"/>
</radialGradient>
<radialGradient id="paint9_radial_905_5032" cx="0" cy="0" r="1" gradientUnits="userSpaceOnUse" gradientTransform="translate(101.798 98.4838) scale(69.5408 69.5408)">
<stop stop-color="white"/>
<stop offset="1" stop-color="#623964"/>
</radialGradient>
<radialGradient id="paint10_radial_905_5032" cx="0" cy="0" r="1" gradientUnits="userSpaceOnUse" gradientTransform="translate(122.643 159.048) scale(54.8082 54.8082)">
<stop stop-color="#FFFF4A"/>
<stop offset="1" stop-color="#360038"/>
</radialGradient>
<radialGradient id="paint11_radial_905_5032" cx="0" cy="0" r="1" gradientUnits="userSpaceOnUse" gradientTransform="translate(101.06 180.195) scale(5.91554)">
<stop stop-color="#6D00C2"/>
<stop offset="0.4" stop-color="#6600BC"/>
<stop offset="0.98" stop-color="#5200AB"/>
<stop offset="1" stop-color="#5200AB"/>
</radialGradient>
<radialGradient id="paint12_radial_905_5032" cx="0" cy="0" r="1" gradientUnits="userSpaceOnUse" gradientTransform="translate(196.729 145.8) scale(6.17916 6.17916)">
<stop stop-color="#1F0081"/>
<stop offset="0.73" stop-color="#250087"/>
<stop offset="1" stop-color="#2A008B"/>
</radialGradient>
<linearGradient id="paint13_linear_905_5032" x1="105.597" y1="119.736" x2="113.599" y2="119.736" gradientUnits="userSpaceOnUse">
<stop stop-color="#BDFFE8"/>
<stop offset="0.2" stop-color="#8ABBAA"/>
<stop offset="0.42" stop-color="#59796E"/>
<stop offset="0.61" stop-color="#33453E"/>
<stop offset="0.78" stop-color="#171F1C"/>
<stop offset="0.91" stop-color="#060807"/>
<stop offset="1"/>
</linearGradient>
<linearGradient id="paint14_linear_905_5032" x1="86.5251" y1="127.442" x2="121.928" y2="127.442" gradientUnits="userSpaceOnUse">
<stop stop-color="#BDFFE8"/>
<stop offset="0.2" stop-color="#8ABBAA"/>
<stop offset="0.42" stop-color="#59796E"/>
<stop offset="0.61" stop-color="#33453E"/>
<stop offset="0.78" stop-color="#171F1C"/>
<stop offset="0.91" stop-color="#060807"/>
<stop offset="1"/>
</linearGradient>
</defs>
</svg>
