<svg width="277" height="280" viewBox="0 0 277 280" fill="none" xmlns="http://www.w3.org/2000/svg">
<g filter="url(#filter0_d_905_5235)">
<path fill-rule="evenodd" clip-rule="evenodd" d="M171.095 93.4092C171.095 93.4092 178.306 95.4062 183.106 95.114C183.106 95.114 191.702 100.956 196.504 116.434C196.504 116.434 192.375 121.329 193.253 127.016C193.253 127.016 185.899 107.037 171.095 93.4092Z" fill="url(#paint0_linear_905_5235)"/>
<path fill-rule="evenodd" clip-rule="evenodd" d="M194.412 138.249C194.412 143.509 193.672 148.606 192.274 153.416C189.5 163.092 184.124 171.658 176.945 178.34C171.813 183.125 165.754 186.93 159.084 189.461C153.039 191.762 146.495 193.011 139.639 193.011C138.668 193.011 137.685 192.988 136.725 192.93H136.714C135.281 192.861 133.858 192.722 132.46 192.548C121.883 191.161 112.277 186.767 104.484 180.224C101.56 177.786 98.9012 175.034 96.5542 172.028C94.7739 169.774 93.167 167.38 91.7559 164.849C91.4204 164.248 91.0978 163.635 90.7735 163.022C90.7735 162.999 90.7623 162.986 90.751 162.964C90.4155 162.306 90.1041 161.646 89.8023 160.975H89.791C88.8423 158.883 88.0108 156.721 87.3397 154.501C86.8309 152.905 86.4038 151.264 86.0571 149.6C86.0459 149.589 86.0459 149.564 86.0459 149.553C85.8035 148.386 85.5948 147.206 85.4326 146.015C85.0634 143.472 84.8772 140.883 84.8772 138.247C84.8772 136.733 84.935 135.218 85.073 133.738C85.1421 132.789 85.2464 131.853 85.3732 130.917C86.078 125.53 87.5805 120.398 89.7541 115.623C90.8184 113.276 92.0433 111.023 93.419 108.86C95.7082 105.253 98.4132 101.948 101.465 98.9764C111.328 89.3831 124.796 83.4755 139.639 83.4755C140.217 83.4755 140.795 83.4868 141.362 83.498C141.975 83.5205 142.586 83.5446 143.2 83.5911C146.344 83.7998 149.419 84.2621 152.39 84.9781C154.124 85.3939 155.824 85.8803 157.488 86.4582C158.622 86.8403 159.731 87.2673 160.829 87.7296C161.649 88.0763 162.447 88.4343 163.245 88.8164C163.383 88.8854 163.523 88.9432 163.661 89.0122C168.979 91.6128 173.8 95.0353 177.983 99.1385C178.584 99.7164 179.163 100.318 179.741 100.93C180.123 101.346 180.504 101.774 180.875 102.201C181.51 102.917 182.124 103.67 182.724 104.422C184.909 107.196 186.827 110.178 188.434 113.345C190.319 117.022 191.799 120.94 192.804 125.045C193.855 129.277 194.411 133.693 194.411 138.247L194.412 138.249Z" fill="url(#paint1_radial_905_5235)"/>
<path style="mix-blend-mode:multiply" opacity="0.5" fill-rule="evenodd" clip-rule="evenodd" d="M86.9657 130.159C86.9657 130.159 96.734 135.255 105.485 128.326C114.235 121.398 107.236 95.5507 107.236 95.5507L86.9657 130.159Z" fill="url(#paint2_linear_905_5235)"/>
<path style="mix-blend-mode:multiply" opacity="0.89" fill-rule="evenodd" clip-rule="evenodd" d="M150.465 169.53C150.465 169.53 154.885 174.843 165.7 175.428C176.515 176.012 187.321 163.6 189.803 152.356C192.285 141.112 184.254 129.747 176.368 127.981C168.483 126.217 150.464 169.53 150.464 169.53H150.465Z" fill="url(#paint3_linear_905_5235)"/>
<path style="mix-blend-mode:screen" fill-rule="evenodd" clip-rule="evenodd" d="M107.165 181.02C101.503 176.28 96.8111 170.409 93.4383 163.759C91.3193 159.578 89.7236 155.095 88.7364 150.393C88.7267 150.383 88.7267 150.364 88.7267 150.345C87.9674 146.696 87.5581 142.915 87.5581 139.04C87.5581 128.228 90.6932 118.15 96.0983 109.656C98.3971 106.046 101.096 102.741 104.144 99.7758C114.015 90.1809 127.476 84.2717 142.325 84.2717C143.522 84.2717 144.699 84.3103 145.877 84.3857C149.592 84.6233 153.201 85.2381 156.673 86.1805C152.393 84.7774 147.876 83.8913 143.196 83.5911C142.018 83.5156 140.84 83.4771 139.644 83.4771C124.795 83.4771 111.334 89.3863 101.463 98.9812C98.4132 101.945 95.7162 105.252 93.4174 108.862C88.0124 117.356 84.8772 127.434 84.8772 138.245C84.8772 142.122 85.2849 145.903 86.0459 149.55C86.0459 149.569 86.0459 149.589 86.0555 149.598C87.0444 154.3 88.64 158.785 90.7574 162.964C94.1302 169.613 98.8225 175.485 104.484 180.226C110.485 185.26 117.569 189.02 125.339 191.118C118.618 188.925 112.469 185.47 107.165 181.02Z" fill="url(#paint4_radial_905_5235)"/>
<path fill-rule="evenodd" clip-rule="evenodd" d="M94.9087 169.841C94.9087 169.841 98.3778 175.495 97.5029 184.695C97.5029 184.695 105.109 197.989 126.575 199.083C126.575 199.083 137.38 191.118 147.723 192.415C147.723 192.415 129.866 166.958 94.9103 169.841H94.9087Z" fill="url(#paint5_linear_905_5235)"/>
<path fill-rule="evenodd" clip-rule="evenodd" d="M86.9657 130.159C86.9657 130.159 83.3682 120.231 80.1383 116.725C80.1383 116.725 77.6565 100.954 93.7192 95.5507C93.7192 95.5507 102.37 97.2009 107.236 95.5507C107.236 95.5507 109.088 106.21 101.751 117.601C95.4931 127.313 86.9673 130.159 86.9673 130.159H86.9657Z" fill="url(#paint6_linear_905_5235)"/>
<path fill-rule="evenodd" clip-rule="evenodd" d="M185.37 137.891C185.37 137.891 181.542 124.429 168.543 123.621C154.755 122.764 142.545 150.279 146.799 163.423C151.053 176.567 166.4 174.675 173.426 169.897C181.961 164.096 186.15 151.273 185.37 137.891Z" fill="url(#paint7_linear_905_5235)"/>
<path style="mix-blend-mode:multiply" opacity="0.5" fill-rule="evenodd" clip-rule="evenodd" d="M126.886 98.3567C126.886 98.3567 131.553 106.252 140.593 105.388C150.464 104.444 153.103 96.0868 152.735 92.7767C152.368 89.4665 126.886 98.3567 126.886 98.3567Z" fill="url(#paint8_linear_905_5235)"/>
<path fill-rule="evenodd" clip-rule="evenodd" d="M170.666 128.326C158.745 128.26 141.087 159.98 156.461 170.644C171.068 180.775 184.565 158.785 186.15 151.272C187.734 143.761 186.718 128.415 170.666 128.326Z" fill="url(#paint9_linear_905_5235)"/>
<path fill-rule="evenodd" clip-rule="evenodd" d="M165.118 170.323C164.552 170.276 163.996 170.196 163.476 170.114C156.077 168.843 153.303 163.698 152.679 158.508C152.286 155.214 152.759 151.907 153.466 149.548C154.864 144.879 162.367 133.93 170.957 132.392C174.009 131.837 177.2 132.486 180.31 135.04C182.934 137.213 184.241 140.069 184.541 143.236C185.697 155.051 173.177 171.039 165.12 170.323H165.118Z" fill="url(#paint10_linear_905_5235)"/>
<path fill-rule="evenodd" clip-rule="evenodd" d="M128.988 83.8527C128.988 83.8527 123.514 90.8824 126.214 97.2025C129.079 103.906 145.136 103.622 150.324 98.5012C155.512 93.3802 151.372 83.6103 146.908 81.8959C141.824 79.9438 135.112 80.313 128.988 83.8527Z" fill="url(#paint11_radial_905_5235)"/>
<path fill-rule="evenodd" clip-rule="evenodd" d="M127.964 93.0512C130.759 98.6858 149.899 99.4917 151.281 89.7153C152.596 80.4286 139.027 79.2776 135.111 80.3114C131.194 81.3453 124.199 85.4629 127.964 93.0512Z" fill="url(#paint12_linear_905_5235)"/>
<path fill-rule="evenodd" clip-rule="evenodd" d="M148.56 87.309C148.595 87.6204 148.595 87.9222 148.56 88.2112C148.549 88.5226 148.502 88.8356 148.433 89.1246C146.873 95.4014 134.26 97.4481 131.381 93.9566C130.584 92.9854 130.099 92.0254 129.868 91.1136C128.885 87.264 132.319 84.177 134.595 82.9859C137.405 81.5058 147.935 79.9904 148.56 87.309Z" fill="url(#paint13_linear_905_5235)"/>
<path fill-rule="evenodd" clip-rule="evenodd" d="M80.1383 116.725C80.4032 120.306 98.4147 103.327 93.7192 95.5507C93.7192 95.5507 78.6791 96.9376 80.1383 116.725Z" fill="url(#paint14_linear_905_5235)"/>
<path fill-rule="evenodd" clip-rule="evenodd" d="M97.503 184.695C96.3841 178.296 128.912 182.717 126.575 199.083C126.065 202.662 99.3619 195.321 97.503 184.695Z" fill="url(#paint15_linear_905_5235)"/>
<path fill-rule="evenodd" clip-rule="evenodd" d="M123.652 198.611C123.109 199.051 105.26 196.415 99.1211 185.571C98.7166 184.843 100.624 184.612 103.549 184.958C104.658 185.085 105.907 185.305 107.236 185.616C111.468 186.599 116.449 188.519 119.825 191.571C120.876 192.519 121.685 193.373 122.287 194.137C123.154 195.247 123.617 196.149 123.825 196.842C124.114 197.825 123.905 198.414 123.652 198.611Z" fill="url(#paint16_linear_905_5235)"/>
<path fill-rule="evenodd" clip-rule="evenodd" d="M122.287 194.137C115.213 192.888 110.126 188.703 107.236 185.618C111.468 186.6 116.449 188.52 119.825 191.572C120.876 192.521 121.685 193.375 122.287 194.139V194.137Z" fill="url(#paint17_linear_905_5235)"/>
<path fill-rule="evenodd" clip-rule="evenodd" d="M91.7639 100.471C91.4637 101.432 90.9564 102.715 90.1923 104.422C88.8262 107.462 86.1277 110.628 84.1612 112.169C83.1579 112.965 82.3408 113.337 82.0101 113.048C81.3278 112.459 81.4418 108.094 83.5303 104.039C85.6204 99.9748 91.2775 97.0885 91.857 97.7194C92.2198 98.1127 92.2808 98.8367 91.7639 100.471Z" fill="url(#paint18_linear_905_5235)"/>
<path fill-rule="evenodd" clip-rule="evenodd" d="M91.764 100.471C91.4638 101.432 90.9565 102.715 90.1924 104.422C88.8263 107.462 86.1278 110.628 84.1613 112.169C86.4568 105.921 90.5231 101.67 91.764 100.469V100.471Z" fill="url(#paint19_linear_905_5235)"/>
<path fill-rule="evenodd" clip-rule="evenodd" d="M97.5029 162.139C96.9362 161.792 96.3824 161.168 95.8847 160.37C95.8847 160.37 95.8847 160.359 95.8623 160.334C94.0467 157.41 92.9952 152.322 94.9135 151.282C97.283 149.987 100.786 150.658 102.37 154.865C102.37 154.865 102.37 154.876 102.381 154.888C102.439 155.026 102.497 155.177 102.532 155.327C102.544 155.35 102.555 155.374 102.555 155.397C102.577 155.512 102.613 155.616 102.648 155.685C102.694 155.836 102.741 155.986 102.775 156.148C103.757 160.159 100.15 163.743 97.5029 162.136V162.139Z" fill="url(#paint20_linear_905_5235)"/>
<path style="mix-blend-mode:multiply" opacity="0.4" fill-rule="evenodd" clip-rule="evenodd" d="M102.369 154.867C101.478 153.075 98.0102 150.995 95.8832 152.936C93.6518 154.971 95.6745 159.872 95.8607 160.334C94.0451 157.41 92.9936 152.322 94.9119 151.282C97.2814 149.987 100.784 150.658 102.369 154.865V154.867Z" fill="url(#paint21_radial_905_5235)"/>
<path fill-rule="evenodd" clip-rule="evenodd" d="M114.094 108.839C113.847 108.658 113.617 108.35 113.419 107.964C113.419 107.964 113.419 107.96 113.41 107.947C112.689 106.533 112.403 104.155 113.325 103.752C114.463 103.25 116.047 103.693 116.611 105.688C116.611 105.688 116.611 105.693 116.616 105.699C116.637 105.765 116.657 105.836 116.667 105.906C116.672 105.918 116.677 105.929 116.675 105.939C116.681 105.993 116.693 106.041 116.706 106.075C116.722 106.146 116.736 106.216 116.746 106.292C117.041 108.173 115.246 109.679 114.092 108.838L114.094 108.839Z" fill="url(#paint22_linear_905_5235)"/>
<path style="mix-blend-mode:multiply" opacity="0.4" fill-rule="evenodd" clip-rule="evenodd" d="M116.611 105.687C116.272 104.829 114.758 103.739 113.707 104.548C112.602 105.396 113.342 107.727 113.41 107.947C112.689 106.533 112.403 104.155 113.325 103.752C114.463 103.25 116.047 103.693 116.611 105.688V105.687Z" fill="url(#paint23_radial_905_5235)"/>
<path fill-rule="evenodd" clip-rule="evenodd" d="M155.109 185.295H155.092C154.983 185.35 154.856 185.405 154.729 185.422C154.711 185.44 154.692 185.459 154.674 185.459C154.583 185.477 154.493 185.496 154.438 185.531C154.329 185.568 154.202 185.604 154.058 185.641C152.226 186.13 150.502 185.459 149.541 184.371C148.76 183.501 148.489 182.393 149.051 181.414C149.324 180.942 149.831 180.47 150.484 180.052L150.502 180.035C152.878 178.492 157.05 177.532 157.94 179.091C158.193 179.508 158.357 179.98 158.412 180.47C158.683 182.212 157.795 184.225 155.109 185.295Z" fill="url(#paint24_linear_905_5235)"/>
<path style="mix-blend-mode:screen" opacity="0.5" fill-rule="evenodd" clip-rule="evenodd" d="M109.96 155.133C109.96 155.133 113.254 160.387 122.287 159.84C131.32 159.293 132.963 154.873 133.51 151.279C134.057 147.683 132.55 143.26 132.55 143.26C132.55 143.26 112.585 147.033 109.96 155.135V155.133Z" fill="url(#paint25_radial_905_5235)"/>
<path style="mix-blend-mode:multiply" opacity="0.4" fill-rule="evenodd" clip-rule="evenodd" d="M158.412 180.47C157.668 179.834 156.126 179.056 153.604 179.853C149.74 181.069 149.541 184.371 149.541 184.371C148.76 183.501 148.489 182.393 149.051 181.414C149.324 180.942 149.831 180.47 150.484 180.052L150.502 180.035C152.878 178.492 157.05 177.532 157.94 179.091C158.193 179.508 158.357 179.98 158.412 180.47Z" fill="url(#paint26_radial_905_5235)"/>
<path fill-rule="evenodd" clip-rule="evenodd" d="M132.993 148.348L132.982 148.543C133.006 162.532 112.045 160.821 108.763 153.375C108.311 152.346 107.929 151.202 107.64 149.999V149.988C105.791 142.498 106.947 132.463 110.288 130.163C113.802 127.747 120.554 127.689 125.466 130.163C131.002 132.95 133.189 141.284 132.991 148.348H132.993Z" fill="url(#paint27_linear_905_5235)"/>
<path style="mix-blend-mode:multiply" opacity="0.4" fill-rule="evenodd" clip-rule="evenodd" d="M132.993 148.348L132.982 148.543C132.982 148.543 133.295 139.793 129.063 135.122C124.82 130.452 116.359 129.134 111.514 134.393C106.798 139.525 107.595 149.513 107.64 149.988C105.791 142.498 106.947 132.463 110.288 130.163C113.802 127.747 120.554 127.689 125.466 130.163C131.002 132.95 133.189 141.284 132.991 148.348H132.993Z" fill="url(#paint28_linear_905_5235)"/>
<path fill-rule="evenodd" clip-rule="evenodd" d="M172.286 104.314C171.095 104.95 168.275 103.193 165.696 100.996C162.563 98.3021 159.813 94.939 160.887 94.4526C162.356 93.7944 167.754 94.2327 170.239 96.2794C171.304 97.1575 172.32 98.5108 172.933 99.8865C173.709 101.678 173.778 103.505 172.286 104.314Z" fill="url(#paint29_linear_905_5235)"/>
<path style="mix-blend-mode:multiply" opacity="0.4" fill-rule="evenodd" clip-rule="evenodd" d="M172.933 99.8865C172.922 99.8753 172.911 99.8512 172.898 99.84C168.994 93.9453 162.972 94.2005 162.532 95.8075C162.093 97.4144 165.696 100.996 165.696 100.996C162.563 98.3021 159.813 94.939 160.887 94.4526C162.356 93.7944 167.754 94.2327 170.239 96.2794C171.304 97.1575 172.32 98.5108 172.933 99.8865Z" fill="url(#paint30_linear_905_5235)"/>
<path fill-rule="evenodd" clip-rule="evenodd" d="M84.0199 115.248C84.0199 115.248 92.9342 110.775 93.8701 101.943C93.8701 101.943 89.3736 111.034 84.0199 115.248Z" fill="#E5BDFA"/>
<path fill-rule="evenodd" clip-rule="evenodd" d="M150.465 159.041C150.465 159.041 151.343 141.331 164.152 130.893C164.152 130.893 148.789 138.242 150.465 159.041Z" fill="#E5BDFA"/>
<path fill-rule="evenodd" clip-rule="evenodd" d="M128.489 93.8314C128.489 93.8314 130.89 97.477 139.101 97.1993C147.311 96.92 150.006 93.1732 150.465 92.1683C150.465 92.1683 148.428 98.4547 139.146 98.2347C129.352 98.0036 128.489 93.8314 128.489 93.8314Z" fill="#FFA5F7"/>
<path fill-rule="evenodd" clip-rule="evenodd" d="M111.516 183.07C111.516 183.07 123.965 188.095 126.487 195.327C126.487 195.327 126.209 187.028 111.516 183.07Z" fill="#FFA5F7"/>
<path style="mix-blend-mode:multiply" opacity="0.71" fill-rule="evenodd" clip-rule="evenodd" d="M184.54 143.238V143.26C184.54 143.26 180.31 135.956 168.576 139.159C158.057 142.026 153.512 155.56 152.679 158.509C152.286 155.215 152.759 151.908 153.466 149.55C154.864 144.88 162.367 133.932 170.957 132.394C174.009 131.839 177.2 132.487 180.31 135.041C182.934 137.215 184.241 140.071 184.541 143.238H184.54Z" fill="url(#paint31_linear_905_5235)"/>
<path style="mix-blend-mode:multiply" opacity="0.71" fill-rule="evenodd" clip-rule="evenodd" d="M148.56 87.309C148.595 87.6204 148.595 87.9222 148.56 88.2111C146.364 84.9861 142.317 84.2685 137.22 85.3665C132.11 86.4646 129.868 91.1119 129.868 91.1119C128.885 87.2624 132.319 84.1754 134.595 82.9843C137.405 81.5058 147.935 79.9904 148.56 87.309Z" fill="url(#paint32_linear_905_5235)"/>
</g>
<defs>
<filter id="filter0_d_905_5235" x="0" y="-0.000427246" width="276.504" height="280" filterUnits="userSpaceOnUse" color-interpolation-filters="sRGB">
<feFlood flood-opacity="0" result="BackgroundImageFix"/>
<feColorMatrix in="SourceAlpha" type="matrix" values="0 0 0 0 0 0 0 0 0 0 0 0 0 0 0 0 0 0 127 0" result="hardAlpha"/>
<feOffset/>
<feGaussianBlur stdDeviation="40"/>
<feComposite in2="hardAlpha" operator="out"/>
<feColorMatrix type="matrix" values="0 0 0 0 0.592157 0 0 0 0 0.501961 0 0 0 0 0.988235 0 0 0 1 0"/>
<feBlend mode="normal" in2="BackgroundImageFix" result="effect1_dropShadow_905_5235"/>
<feBlend mode="normal" in="SourceGraphic" in2="effect1_dropShadow_905_5235" result="shape"/>
</filter>
<linearGradient id="paint0_linear_905_5235" x1="180.616" y1="125.014" x2="185.297" y2="95.4608" gradientUnits="userSpaceOnUse">
<stop stop-color="#8931B3"/>
<stop offset="1" stop-color="#8E8CFF"/>
</linearGradient>
<radialGradient id="paint1_radial_905_5235" cx="0" cy="0" r="1" gradientUnits="userSpaceOnUse" gradientTransform="translate(121.058 119.2) scale(82.5867 82.5867)">
<stop stop-color="#FFB8E2"/>
<stop offset="0.22" stop-color="#FCB7E2"/>
<stop offset="0.33" stop-color="#F5B4E5"/>
<stop offset="0.42" stop-color="#E7B0E9"/>
<stop offset="0.49" stop-color="#D5AAEF"/>
<stop offset="0.55" stop-color="#BDA2F7"/>
<stop offset="0.58" stop-color="#AE9DFC"/>
<stop offset="0.64" stop-color="#A896FC"/>
<stop offset="0.72" stop-color="#9982FC"/>
<stop offset="0.81" stop-color="#8063FD"/>
<stop offset="0.91" stop-color="#5E37FE"/>
<stop offset="0.92" stop-color="#5E37FF"/>
<stop offset="0.99" stop-color="#5E9AFF"/>
</radialGradient>
<linearGradient id="paint2_linear_905_5235" x1="86.9657" y1="113.758" x2="109.886" y2="113.758" gradientUnits="userSpaceOnUse">
<stop stop-color="white"/>
<stop offset="0.17" stop-color="#DBCFEA"/>
<stop offset="0.36" stop-color="#B9A2D6"/>
<stop offset="0.55" stop-color="#9E7FC7"/>
<stop offset="0.72" stop-color="#8B66BC"/>
<stop offset="0.87" stop-color="#8057B5"/>
<stop offset="1" stop-color="#7C52B3"/>
</linearGradient>
<linearGradient id="paint3_linear_905_5235" x1="150.465" y1="151.688" x2="190.262" y2="151.688" gradientUnits="userSpaceOnUse">
<stop stop-color="#7C52B3"/>
<stop offset="0.13" stop-color="#8057B5"/>
<stop offset="0.28" stop-color="#8B66BC"/>
<stop offset="0.45" stop-color="#9E7FC7"/>
<stop offset="0.64" stop-color="#B9A2D6"/>
<stop offset="0.83" stop-color="#DBCFEA"/>
<stop offset="1" stop-color="white"/>
</linearGradient>
<radialGradient id="paint4_radial_905_5235" cx="0" cy="0" r="1" gradientUnits="userSpaceOnUse" gradientTransform="translate(99.6203 100.967) scale(72.0864 72.0864)">
<stop stop-color="#FFFFD9"/>
<stop offset="1"/>
</radialGradient>
<linearGradient id="paint5_linear_905_5235" x1="118.626" y1="198.117" x2="122.703" y2="172.366" gradientUnits="userSpaceOnUse">
<stop stop-color="#6D109D"/>
<stop offset="1" stop-color="#8E8CFF"/>
</linearGradient>
<linearGradient id="paint6_linear_905_5235" x1="102.37" y1="117.436" x2="84.3025" y2="101.729" gradientUnits="userSpaceOnUse">
<stop stop-color="#C98EFF"/>
<stop offset="1" stop-color="#8931B3"/>
</linearGradient>
<linearGradient id="paint7_linear_905_5235" x1="181.257" y1="161.418" x2="150.344" y2="137.773" gradientUnits="userSpaceOnUse">
<stop stop-color="#5400B3"/>
<stop offset="1" stop-color="#F2C0FF"/>
</linearGradient>
<linearGradient id="paint8_linear_905_5235" x1="126.886" y1="98.7468" x2="152.769" y2="98.7468" gradientUnits="userSpaceOnUse">
<stop stop-color="white"/>
<stop offset="0.17" stop-color="#DBCFEA"/>
<stop offset="0.36" stop-color="#B9A2D6"/>
<stop offset="0.55" stop-color="#9E7FC7"/>
<stop offset="0.72" stop-color="#8B66BC"/>
<stop offset="0.87" stop-color="#8057B5"/>
<stop offset="1" stop-color="#7C52B3"/>
</linearGradient>
<linearGradient id="paint9_linear_905_5235" x1="165.781" y1="173.572" x2="171.671" y2="128.282" gradientUnits="userSpaceOnUse">
<stop stop-color="#644FF7"/>
<stop offset="1" stop-color="#9F6DFF"/>
</linearGradient>
<linearGradient id="paint10_linear_905_5235" x1="155.249" y1="167.377" x2="179.354" y2="137.825" gradientUnits="userSpaceOnUse">
<stop stop-color="#935CE1"/>
<stop offset="0.22" stop-color="#8F5ADF"/>
<stop offset="0.43" stop-color="#8353DB"/>
<stop offset="0.63" stop-color="#7149D5"/>
<stop offset="0.82" stop-color="#563BCC"/>
<stop offset="0.99" stop-color="#392CC2"/>
</linearGradient>
<radialGradient id="paint11_radial_905_5235" cx="0" cy="0" r="1" gradientUnits="userSpaceOnUse" gradientTransform="translate(128.024 94.3869) rotate(-109.29) scale(20.5383 20.5383)">
<stop stop-color="#DEA5FF"/>
<stop offset="1" stop-color="#8931B3"/>
</radialGradient>
<linearGradient id="paint12_linear_905_5235" x1="150.362" y1="84.6281" x2="127.618" y2="92.5886" gradientUnits="userSpaceOnUse">
<stop stop-color="#C287F8"/>
<stop offset="1" stop-color="#CCB3FF"/>
</linearGradient>
<linearGradient id="paint13_linear_905_5235" x1="139.14" y1="95.6502" x2="139.14" y2="81.7578" gradientUnits="userSpaceOnUse">
<stop stop-color="#9F6DFF"/>
<stop offset="0.27" stop-color="#9B69FE"/>
<stop offset="0.52" stop-color="#905EFD"/>
<stop offset="0.76" stop-color="#7D4BFA"/>
<stop offset="1" stop-color="#6431F7"/>
</linearGradient>
<linearGradient id="paint14_linear_905_5235" x1="87.2691" y1="117.216" x2="87.2691" y2="95.5523" gradientUnits="userSpaceOnUse">
<stop stop-color="#FC9FF7"/>
<stop offset="1" stop-color="#F66DFF"/>
</linearGradient>
<linearGradient id="paint15_linear_905_5235" x1="112.084" y1="200" x2="112.084" y2="181.886" gradientUnits="userSpaceOnUse">
<stop stop-color="#C282F7"/>
<stop offset="1" stop-color="#DC6DFF"/>
</linearGradient>
<linearGradient id="paint16_linear_905_5235" x1="111.516" y1="198.656" x2="111.516" y2="184.801" gradientUnits="userSpaceOnUse">
<stop stop-color="#4848F7"/>
<stop offset="1" stop-color="#6D20FF"/>
</linearGradient>
<linearGradient id="paint17_linear_905_5235" x1="114.762" y1="194.137" x2="114.762" y2="185.618" gradientUnits="userSpaceOnUse">
<stop stop-color="#644FF7"/>
<stop offset="1" stop-color="#9F6DFF"/>
</linearGradient>
<linearGradient id="paint18_linear_905_5235" x1="86.8886" y1="113.146" x2="86.8886" y2="97.6327" gradientUnits="userSpaceOnUse">
<stop stop-color="#9F6DFF"/>
<stop offset="1" stop-color="#644FF7"/>
</linearGradient>
<linearGradient id="paint19_linear_905_5235" x1="87.3237" y1="105.916" x2="88.8391" y2="106.873" gradientUnits="userSpaceOnUse">
<stop stop-color="#9084FF"/>
<stop offset="1" stop-color="#C287F8"/>
</linearGradient>
<linearGradient id="paint20_linear_905_5235" x1="93.3291" y1="153.43" x2="102.772" y2="159.4" gradientUnits="userSpaceOnUse">
<stop stop-color="#9084FF"/>
<stop offset="0.49" stop-color="#D08BFC"/>
<stop offset="1" stop-color="#FFC9F8"/>
</linearGradient>
<radialGradient id="paint21_radial_905_5235" cx="0" cy="0" r="1" gradientUnits="userSpaceOnUse" gradientTransform="translate(98.1306 155.514) scale(4.53981)">
<stop stop-color="#1372B3"/>
<stop offset="1" stop-color="white"/>
</radialGradient>
<linearGradient id="paint22_linear_905_5235" x1="112.519" y1="104.678" x2="116.626" y2="107.785" gradientUnits="userSpaceOnUse">
<stop stop-color="#9084FF"/>
<stop offset="0.49" stop-color="#D08BFC"/>
<stop offset="1" stop-color="#FFC9F8"/>
</linearGradient>
<radialGradient id="paint23_radial_905_5235" cx="0" cy="0" r="1" gradientUnits="userSpaceOnUse" gradientTransform="translate(114.644 105.82) rotate(4.82) scale(2.09332 2.09332)">
<stop stop-color="#1372B3"/>
<stop offset="1" stop-color="white"/>
</radialGradient>
<linearGradient id="paint24_linear_905_5235" x1="158.436" y1="182.135" x2="148.764" y2="181.931" gradientUnits="userSpaceOnUse">
<stop stop-color="#9566FC"/>
<stop offset="1" stop-color="#5445B1"/>
</linearGradient>
<radialGradient id="paint25_radial_905_5235" cx="0" cy="0" r="1" gradientUnits="userSpaceOnUse" gradientTransform="translate(125.08 157.922) scale(10.2258)">
<stop stop-color="#FFFFE8"/>
<stop offset="0.2" stop-color="#BBBBAA"/>
<stop offset="0.42" stop-color="#79796E"/>
<stop offset="0.61" stop-color="#45453E"/>
<stop offset="0.78" stop-color="#1F1F1C"/>
<stop offset="0.91" stop-color="#080807"/>
<stop offset="1"/>
</radialGradient>
<radialGradient id="paint26_radial_905_5235" cx="0" cy="0" r="1" gradientUnits="userSpaceOnUse" gradientTransform="translate(153.581 181.334) scale(4.03414 4.03413)">
<stop stop-color="#1372B3"/>
<stop offset="1" stop-color="white"/>
</radialGradient>
<linearGradient id="paint27_linear_905_5235" x1="106.422" y1="135.656" x2="132.694" y2="152.265" gradientUnits="userSpaceOnUse">
<stop stop-color="#9084FF"/>
<stop offset="0.12" stop-color="#9684FE"/>
<stop offset="0.29" stop-color="#AA86FD"/>
<stop offset="0.49" stop-color="#C98AFC"/>
<stop offset="0.53" stop-color="#D08BFC"/>
<stop offset="1" stop-color="#FFC9F8"/>
</linearGradient>
<linearGradient id="paint28_linear_905_5235" x1="106.761" y1="139.159" x2="133.004" y2="139.159" gradientUnits="userSpaceOnUse">
<stop stop-color="#1372B3"/>
<stop offset="1" stop-color="white"/>
</linearGradient>
<linearGradient id="paint29_linear_905_5235" x1="160.895" y1="94.3145" x2="173.797" y2="102.471" gradientUnits="userSpaceOnUse">
<stop stop-color="#845FFF"/>
<stop offset="0.49" stop-color="#A972FC"/>
<stop offset="1" stop-color="#D4B0F8"/>
</linearGradient>
<linearGradient id="paint30_linear_905_5235" x1="160.651" y1="97.5829" x2="172.933" y2="97.5829" gradientUnits="userSpaceOnUse">
<stop stop-color="#1372B3"/>
<stop offset="1" stop-color="white"/>
</linearGradient>
<linearGradient id="paint31_linear_905_5235" x1="152.538" y1="145.359" x2="184.54" y2="145.359" gradientUnits="userSpaceOnUse">
<stop stop-color="#7C52B3"/>
<stop offset="1" stop-color="white"/>
</linearGradient>
<linearGradient id="paint32_linear_905_5235" x1="129.694" y1="86.4357" x2="148.585" y2="86.4357" gradientUnits="userSpaceOnUse">
<stop stop-color="#7C52B3"/>
<stop offset="1" stop-color="white"/>
</linearGradient>
</defs>
</svg>
