<svg width="280" height="274" viewBox="0 0 280 274" fill="none" xmlns="http://www.w3.org/2000/svg">
<g filter="url(#filter0_d_905_5111)">
<path fill-rule="evenodd" clip-rule="evenodd" d="M157.724 173.966L174.199 174.91C174.199 174.91 187.837 170.8 194.64 162.137L197.839 144.101L192.553 127.601L163.828 145.971C163.828 145.971 157.31 168.009 157.722 173.966H157.724Z" fill="url(#paint0_linear_905_5111)"/>
<path fill-rule="evenodd" clip-rule="evenodd" d="M193.835 139.753C193.835 144.887 193.113 149.862 191.748 154.556C189.041 163.999 183.793 172.36 176.787 178.881C171.778 183.552 165.865 187.265 159.355 189.736C153.455 191.981 147.068 193.2 140.377 193.2C139.429 193.2 138.47 193.178 137.533 193.122H137.522C136.123 193.054 134.735 192.918 133.37 192.749C123.047 191.395 113.671 187.107 106.066 180.721C103.212 178.341 100.617 175.655 98.3265 172.721C96.5889 170.521 95.0206 168.185 93.645 165.714C93.3175 165.128 93.0026 164.53 92.6861 163.931C92.6861 163.909 92.6752 163.897 92.6642 163.875C92.3367 163.232 92.0328 162.588 91.7382 161.934H91.7273C90.8029 159.892 89.9897 157.782 89.3348 155.615C88.8381 154.057 88.4214 152.456 88.083 150.831C88.072 150.821 88.072 150.797 88.072 150.786C87.8354 149.647 87.6317 148.495 87.4735 147.333C87.1131 144.851 86.9314 142.324 86.9314 139.751C86.9314 138.274 86.9878 136.795 87.1225 135.352C87.1899 134.426 87.2918 133.512 87.4155 132.599C88.1033 127.341 89.5714 122.332 91.6912 117.672C92.73 115.382 93.9254 113.182 95.2681 111.072C97.5024 107.551 100.142 104.325 103.121 101.425C112.745 92.0606 125.889 86.2949 140.377 86.2949C140.941 86.2949 141.505 86.3059 142.058 86.3169C142.656 86.3388 143.253 86.3623 143.852 86.4077C146.921 86.6114 149.922 87.0626 152.822 87.7614C154.514 88.1672 156.173 88.6419 157.798 89.206C158.904 89.5789 159.986 89.9956 161.058 90.4468C161.859 90.7853 162.637 91.1347 163.416 91.5075C163.551 91.5749 163.687 91.6313 163.822 91.6987C169.013 94.2368 173.716 97.5772 177.801 101.582C178.387 102.146 178.952 102.732 179.516 103.33C179.889 103.736 180.26 104.154 180.622 104.571C181.243 105.27 181.841 106.005 182.427 106.738C184.56 109.445 186.432 112.356 188 115.448C189.84 119.036 191.284 122.86 192.265 126.866C193.291 130.996 193.833 135.306 193.833 139.751L193.835 139.753Z" fill="url(#paint1_radial_905_5111)"/>
<path style="mix-blend-mode:multiply" opacity="0.71" fill-rule="evenodd" clip-rule="evenodd" d="M109.433 135.612C109.433 135.612 118.887 144.063 121.239 147.544C123.591 151.026 131.5 174.795 131.714 179.799C131.927 184.804 127.191 191.564 127.191 191.564C127.191 191.564 119.166 189.303 114.68 186.626L117.391 167.952L109.435 135.614L109.433 135.612Z" fill="url(#paint2_linear_905_5111)"/>
<path style="mix-blend-mode:multiply" opacity="0.71" fill-rule="evenodd" clip-rule="evenodd" d="M165.24 151.328L180.027 158.657C180.027 158.657 182.96 160.632 186.446 156.934C186.446 156.934 186.797 151.778 184.658 146.806L165.238 151.328H165.24Z" fill="url(#paint3_linear_905_5111)"/>
<g style="mix-blend-mode:multiply" opacity="0.3">
<path fill-rule="evenodd" clip-rule="evenodd" d="M110.977 138.413C109.769 143.554 110.536 148.948 112.394 153.846C112.796 154.904 113.226 156.262 113.883 157.214C114.4 157.965 115.276 158.416 115.987 158.957C116.929 159.673 117.784 160.489 118.709 161.222C119.757 162.054 120.822 162.563 122.088 163.015C124.493 163.87 126.909 164.509 129.446 163.757C131.699 163.088 133.892 161.462 135.197 159.525C135.805 158.625 136.509 157.826 137.151 156.953C137.784 156.093 138.18 155.008 138.574 154.023C139.352 152.069 139.6 149.598 139.462 147.508C139.396 146.51 139.277 145.495 139.033 144.525C138.777 143.512 138.313 142.572 138.119 141.539C137.801 139.848 137.046 138.348 136.369 136.764C134.688 132.836 130.32 130.487 126.293 129.903C124.402 129.628 122.53 130.066 120.672 130.352C118.709 130.655 117.281 131.567 115.534 132.422C114.505 132.927 113.496 133.491 112.761 134.385C111.024 136.505 110.771 139.482 110.98 138.409L110.977 138.413Z" fill="#7D72B3"/>
<path fill-rule="evenodd" clip-rule="evenodd" d="M127.105 166.866C128.012 166.049 129.247 165.119 130.415 164.708C131.216 164.426 131.963 164.732 132.617 165.199C133.934 166.14 133.682 168.332 132.64 169.445C130.738 171.474 127.161 169.854 127.171 167.262L127.106 166.864L127.105 166.866Z" fill="#7D72B3"/>
<path fill-rule="evenodd" clip-rule="evenodd" d="M145.546 149.81C145.021 149.1 144.656 148.864 144.684 148.155C144.704 147.623 145.304 146.607 145.585 146.097C146.428 144.558 147.769 143.461 149.425 142.938C150.592 142.568 151.681 142.398 152.902 142.388C153.997 142.38 154.902 142.702 155.933 143.035C157.802 143.638 159.867 144.635 161.243 146.097C162.537 147.471 162.349 149.954 161.215 151.356C160.347 152.428 159.087 153.077 157.942 153.811C156.688 154.615 155.314 155.641 153.862 156.039C152.922 156.298 152.248 156.431 151.322 156.16C150.426 155.897 149.704 155.635 148.888 155.22C148.14 154.839 147.573 154.684 146.964 154.086C146.425 153.559 145.978 153.02 145.602 152.362C145.071 151.43 145.259 150.289 145.544 149.813L145.546 149.81Z" fill="#7D72B3"/>
<path fill-rule="evenodd" clip-rule="evenodd" d="M141.475 140.123C141.259 140.817 140.786 142.216 142.039 142.139C142.61 142.105 143.46 141.622 143.763 141.27C145.015 139.812 142.025 138.828 141.76 140.123H141.475Z" fill="#7D72B3"/>
<path fill-rule="evenodd" clip-rule="evenodd" d="M160.123 175.071C159.524 173.814 159.391 173.335 159.797 171.997C160.403 169.999 161.409 167.796 162.465 165.988C163.136 164.838 163.964 163.275 165.232 162.725C166.249 162.285 167.435 162.015 168.539 161.946C170.947 161.797 172.807 162.935 174.52 164.522C175.577 165.503 176.458 166.317 177.07 167.657C177.602 168.818 177.918 170.35 177.794 171.622C177.442 175.246 174.286 177.811 171.952 180.285C170.109 182.237 167.034 184.689 164.163 183.646C162.178 182.925 160.994 180.819 160.181 178.989C159.642 177.777 159.839 176.365 160.124 175.069L160.123 175.071Z" fill="#7D72B3"/>
<path fill-rule="evenodd" clip-rule="evenodd" d="M156.989 165.586C156.287 166.158 156.054 166.858 155.883 167.759C155.758 168.412 155.49 169.864 156.129 170.396C156.692 170.863 157.726 170.074 158.175 169.785C158.562 169.534 158.844 169.271 159.142 168.915C159.297 168.73 159.504 168.569 159.595 168.342C159.741 167.978 159.687 167.47 159.67 167.085C159.65 166.606 159.377 166.217 159.045 165.899C158.763 165.628 158.525 165.561 158.142 165.479C157.729 165.391 157.216 165.219 156.991 165.586H156.989Z" fill="#7D72B3"/>
<path fill-rule="evenodd" clip-rule="evenodd" d="M136.631 189.079C136.554 189.289 136.479 189.421 136.588 189.623C136.698 189.827 137.06 190.121 137.207 190.258C137.751 190.762 138.334 190.912 139.045 191.063C139.744 191.21 140.468 191.303 141.176 191.16C141.627 191.069 142.201 190.969 142.498 190.585C143.048 189.872 142.592 188.8 142.227 188.119C141.947 187.597 141.552 187.129 141.231 186.63C140.886 186.095 140.391 185.648 139.904 185.241C139.3 184.736 138.367 184.048 137.588 184.608C136.853 185.136 136.446 186.088 136.252 186.939C136.143 187.415 136.167 187.981 136.333 188.443C136.452 188.775 136.692 189.001 136.631 189.082V189.079Z" fill="#7D72B3"/>
<path fill-rule="evenodd" clip-rule="evenodd" d="M179.996 168.342C179.573 167.988 179.413 167.967 179.458 167.485C179.507 166.972 179.547 166.474 179.74 165.99C180.157 164.939 181.026 164.071 181.858 163.334C182.338 162.911 182.913 162.654 183.511 162.452C183.823 162.347 184.079 162.222 184.404 162.267C184.956 162.344 185.326 162.687 185.496 163.209C185.766 164.031 185.362 164.945 184.915 165.617C184.345 166.477 183.898 167.45 182.994 168.016C182.576 168.277 182.137 168.534 181.694 168.754C181.426 168.887 181.128 169.026 180.82 168.989C180.605 168.962 179.934 168.788 179.996 168.34V168.342Z" fill="#7D72B3"/>
<path fill-rule="evenodd" clip-rule="evenodd" d="M92.7347 131.288C92.8459 131.761 92.8679 132.251 93.0214 132.712C93.3332 133.657 94.0147 134.467 94.7151 135.151C96.0468 136.453 97.9442 136.988 99.7224 137.349C100.645 137.537 101.64 137.696 102.583 137.707C103.353 137.716 104.166 137.881 104.929 137.821C106.21 137.721 107.429 137.357 108.529 136.706C110.159 135.74 111.494 134.239 110.956 132.256C110.663 131.17 109.944 130.241 109.159 129.469C108.302 128.626 107.611 127.75 106.489 127.236C105.999 127.01 105.498 126.783 104.995 126.584C104.391 126.343 103.82 126.012 103.174 125.901C102.638 125.809 102.087 125.602 101.546 125.577C101.017 125.552 100.446 125.55 99.9167 125.592C97.9912 125.751 96.0029 126.876 94.6681 128.247C94.1401 128.79 93.6888 129.398 93.1608 129.936C92.6751 130.431 92.7331 131.028 92.7331 131.288H92.7347Z" fill="#7D72B3"/>
<path fill-rule="evenodd" clip-rule="evenodd" d="M132.333 117.846C131.8 118.681 131.603 118.868 131.525 119.844C131.426 121.083 131.512 122.254 131.819 123.465C132.519 126.229 134.686 128.457 136.535 130.539C139.57 133.956 142.989 137.067 147.161 139.026C148.803 139.797 150.542 140.674 152.419 140.427C154.24 140.187 155.892 139.504 157.627 138.952C159.151 138.468 160.789 138.017 162.371 137.801C163.114 137.699 163.855 137.6 164.601 137.517C165.683 137.398 166.598 136.964 167.632 136.66C169.127 136.221 170.683 135.955 172.163 135.479C172.848 135.259 173.49 134.985 174.128 134.655C175.164 134.117 176.273 133.799 177.302 133.232C181.113 131.131 183.713 126.926 183.917 122.545C184.021 120.312 183.206 117.976 182.082 116.081C181.446 115.004 180.641 114.038 179.938 113.004C179.027 111.667 177.948 110.467 176.781 109.348C174.615 107.274 172.176 105.936 169.323 105.055C167.756 104.573 166.307 104.363 164.651 104.369C162.13 104.377 159.56 104.723 157.088 105.223C154.614 105.723 152.109 106.251 149.679 106.937C147.117 107.659 144.538 108.751 142.132 109.876C139.648 111.037 137.483 112.577 135.894 114.829C135.537 115.335 135.123 115.822 134.783 116.333C134.516 116.736 134.37 117.05 133.977 117.342C133.262 117.873 132.599 117.991 132.333 117.843V117.846Z" fill="#7D72B3"/>
</g>
<path style="mix-blend-mode:multiply" opacity="0.71" fill-rule="evenodd" clip-rule="evenodd" d="M186.032 127.534L193.836 139.753C193.836 139.753 194.084 131.582 192.936 129.939C191.787 128.294 186.034 127.534 186.034 127.534H186.032Z" fill="url(#paint4_linear_905_5111)"/>
<path style="mix-blend-mode:multiply" opacity="0.71" fill-rule="evenodd" clip-rule="evenodd" d="M93.0199 118.313C93.0199 118.313 108.285 128.167 150.036 126.307L166.846 127.601C166.846 127.601 182.819 122.166 186.448 112.617C186.448 112.617 181.73 105.814 180.624 104.573C179.518 103.332 159.861 107.575 159.861 107.575L93.0199 118.313Z" fill="url(#paint5_linear_905_5111)"/>
<path fill-rule="evenodd" clip-rule="evenodd" d="M95.2698 107.987V104.885C95.2698 104.885 103.708 93.9736 117.604 81.9895C117.604 81.9895 153.732 78.7964 163.994 81.9895L168.055 91.2804L180.027 95.8224L180.622 104.574C180.622 104.574 172.757 117.072 158.435 121.437L151.191 119.719C151.191 119.719 143.257 123.004 122.307 123.004C101.358 123.004 93.0199 118.315 93.0199 118.315V111.133L95.2698 107.988V107.987Z" fill="url(#paint6_linear_905_5111)"/>
<path fill-rule="evenodd" clip-rule="evenodd" d="M125.511 175.723L122.002 184.883L111.182 187.456L100.238 186.959C100.238 186.959 88.6281 179.593 83.0661 167.948L84.2741 157.354L80.1661 153.564C80.1661 153.564 79.1727 143.668 87.4092 134.631C87.4092 134.631 96.4917 132.104 109.433 135.612L117.41 144.458C117.41 144.458 123.943 156.914 125.511 175.723Z" fill="url(#paint7_linear_905_5111)"/>
<path style="mix-blend-mode:multiply" opacity="0.71" fill-rule="evenodd" clip-rule="evenodd" d="M139.733 181.985C139.733 181.985 142.188 185.231 143.684 185.872C145.181 186.513 153.519 188.437 154.479 188.33C155.441 188.224 155.441 179.42 154.907 177.996C154.373 176.572 153.411 175.442 153.411 175.442L139.731 181.983L139.733 181.985Z" fill="url(#paint8_linear_905_5111)"/>
<path fill-rule="evenodd" clip-rule="evenodd" d="M200 115.687L199.583 119.173L193.501 130.501C190.093 130.592 186.46 127.872 186.032 127.534C186.021 127.523 185.998 127.512 185.987 127.499C183.551 123.527 182.692 114.794 182.692 114.794L185.536 111.285L190.195 110.439L191.369 111.127L195.499 109.964L198.737 112.029L199.696 112.649L200 115.684V115.687Z" fill="url(#paint9_linear_905_5111)"/>
<path fill-rule="evenodd" clip-rule="evenodd" d="M187.278 132.693C187.278 132.693 180.484 128.977 177.169 129.102L168.693 134.908C168.693 134.908 165.248 144.254 165.241 151.33C165.241 151.33 173.412 154.277 179.16 153.467C179.16 153.467 185.725 150.546 187.994 145.749C187.994 145.749 188.885 137.517 187.279 132.695L187.278 132.693Z" fill="url(#paint10_linear_905_5111)"/>
<path fill-rule="evenodd" clip-rule="evenodd" d="M95.2698 104.885C95.2698 104.885 110.977 105.4 128.294 100.957C128.294 100.957 145.825 94.8056 149.245 92.4523C152.665 90.099 163.996 81.9894 163.996 81.9894C163.996 81.9894 146.039 77.5132 117.606 81.9894C117.606 81.9894 102.652 93.1605 95.2713 104.885H95.2698Z" fill="url(#paint11_linear_905_5111)"/>
<path fill-rule="evenodd" clip-rule="evenodd" d="M168.055 91.2788C168.055 91.2788 157.152 103.849 155.871 104.883C154.587 105.917 136.822 113.074 136.822 113.074L126.798 115.648C126.798 115.648 139.34 115.545 141.477 115.648L145.467 111.761L159.292 112.331C159.292 112.331 171.977 104.678 180.029 95.8209L168.057 91.2788H168.055Z" fill="url(#paint12_linear_905_5111)"/>
<path fill-rule="evenodd" clip-rule="evenodd" d="M93.0199 111.131L104.136 112.189C104.136 112.189 111.547 112.51 115.823 111.067C115.823 111.067 100.94 110.34 95.2698 107.987L93.0199 111.131Z" fill="url(#paint13_linear_905_5111)"/>
<path fill-rule="evenodd" clip-rule="evenodd" d="M168.691 134.907C168.691 134.907 173.547 136.727 176.738 136.514C179.931 136.3 187.276 132.693 187.276 132.693C187.276 132.693 183.909 129.749 177.168 129.102L168.691 134.908V134.907Z" fill="url(#paint14_linear_905_5111)"/>
<path fill-rule="evenodd" clip-rule="evenodd" d="M80.163 153.569C80.163 153.569 94.8389 150.361 98.8686 148.741C102.898 147.121 109.429 135.618 109.429 135.618C109.429 135.618 101.366 131.877 87.4077 134.633C87.4077 134.633 78.7106 142.725 80.1614 153.57L80.163 153.569Z" fill="url(#paint15_linear_905_5111)"/>
<path fill-rule="evenodd" clip-rule="evenodd" d="M84.2757 157.357C84.2757 157.357 94.5552 156.007 98.1823 155.01C101.811 154.014 107.494 150.499 107.494 150.499C107.494 150.499 103.14 160.411 101.568 162.654C101.568 162.654 89.3536 167.256 83.0646 167.952C83.0646 167.952 82.7387 162.433 84.2741 157.359L84.2757 157.357Z" fill="url(#paint16_linear_905_5111)"/>
<path fill-rule="evenodd" clip-rule="evenodd" d="M139.196 179.539C139.196 179.539 141.547 174.389 144.327 173.289C144.327 173.289 150.954 173.351 153.412 175.442L151.81 185.2L142.617 184.572C142.617 184.572 139.197 182.826 139.197 179.539H139.196Z" fill="url(#paint17_linear_905_5111)"/>
<path fill-rule="evenodd" clip-rule="evenodd" d="M139.196 179.539C139.196 179.539 142.082 180.368 144.754 179.539C147.427 178.71 150.739 174.397 150.739 174.397C150.739 174.397 148.602 173 144.327 173.289C144.327 173.289 139.944 175.13 139.196 179.539Z" fill="url(#paint18_linear_905_5111)"/>
<path style="mix-blend-mode:multiply" opacity="0.5" fill-rule="evenodd" clip-rule="evenodd" d="M125.511 175.723L122.002 184.884L111.182 187.456L100.238 186.959C100.238 186.959 111.08 186.294 111.407 184.692C111.724 183.09 112.468 178.497 112.468 178.497C109.805 170.487 101.57 162.656 101.57 162.656C105.01 157.804 107.494 150.493 107.494 150.493L102.823 153.1L99.7773 148.237C104.832 143.736 109.435 135.612 109.435 135.612L117.411 144.458C117.411 144.458 123.945 156.914 125.513 175.723H125.511Z" fill="url(#paint19_linear_905_5111)"/>
<path style="mix-blend-mode:multiply" opacity="0.5" fill-rule="evenodd" clip-rule="evenodd" d="M146.658 178.501L151.808 185.2L153.412 175.444L150.739 174.397L146.658 178.501Z" fill="url(#paint20_linear_905_5111)"/>
<path style="mix-blend-mode:multiply" opacity="0.71" fill-rule="evenodd" clip-rule="evenodd" d="M176.738 136.513C176.738 136.513 178.531 142.691 178.744 145.255C178.957 147.819 179.157 153.465 179.157 153.465C179.157 153.465 184.09 151.798 187.991 145.747C187.991 145.747 189.02 138.702 187.276 132.693C187.276 132.693 180.824 136.004 176.738 136.514V136.513Z" fill="url(#paint21_linear_905_5111)"/>
<path style="mix-blend-mode:multiply" opacity="0.5" fill-rule="evenodd" clip-rule="evenodd" d="M186.938 115.797L188.238 116.817C188.238 116.817 191.077 115.662 191.171 114.197C191.264 112.732 191.366 111.128 191.366 111.128L190.202 110.439L186.94 115.797H186.938Z" fill="url(#paint22_linear_905_5111)"/>
<path style="mix-blend-mode:multiply" opacity="0.71" fill-rule="evenodd" clip-rule="evenodd" d="M200 115.687L199.583 119.173L193.501 130.501C190.093 130.592 186.46 127.872 186.032 127.534C189.091 129.531 192.317 129.373 192.317 129.373C192.317 129.373 192.531 125.796 192.317 123.551C192.102 121.306 190.488 116.815 190.488 116.815L198.736 112.032L199.695 112.653L199.998 115.687H200Z" fill="url(#paint23_linear_905_5111)"/>
<path fill-rule="evenodd" clip-rule="evenodd" d="M190.2 110.44L186.938 115.799C186.938 115.799 184.978 116.314 182.692 114.801L185.534 111.288L190.2 110.44Z" fill="url(#paint24_linear_905_5111)"/>
<path fill-rule="evenodd" clip-rule="evenodd" d="M191.366 111.13L191.171 114.199C191.171 114.199 189.503 116.367 187.298 117.307C187.298 117.307 191.53 116.847 193.487 115.99C193.487 115.99 198.573 113.959 199.701 112.649L195.502 109.964L191.366 111.13Z" fill="url(#paint25_linear_905_5111)"/>
<path style="mix-blend-mode:multiply" opacity="0.5" fill-rule="evenodd" clip-rule="evenodd" d="M129.632 100.317L140.383 111.628L155.871 104.885C155.871 104.885 167.201 92.4601 168.055 91.2804L163.994 81.9894C163.994 81.9894 152.878 89.6744 149.243 92.4523C145.608 95.2302 129.632 100.317 129.632 100.317Z" fill="url(#paint26_linear_905_5111)"/>
<path style="mix-blend-mode:multiply" opacity="0.5" fill-rule="evenodd" clip-rule="evenodd" d="M145.466 111.763L151.191 119.719C151.191 119.719 146.827 121.187 142.19 121.751L141.475 115.648L145.466 111.761V111.763Z" fill="url(#paint27_linear_905_5111)"/>
<path style="mix-blend-mode:multiply" opacity="0.5" fill-rule="evenodd" clip-rule="evenodd" d="M159.291 112.333L158.435 121.437C158.435 121.437 173.451 116.057 180.622 104.574L180.027 95.8224C180.027 95.8224 168.579 106.599 159.291 112.333Z" fill="url(#paint28_linear_905_5111)"/>
<path style="mix-blend-mode:multiply" opacity="0.2" fill-rule="evenodd" clip-rule="evenodd" d="M97.1342 111.523L107.494 122.42H112.642L113.579 111.628C113.579 111.628 101.961 112.709 97.1342 111.523Z" fill="url(#paint29_linear_905_5111)"/>
<g style="mix-blend-mode:soft-light">
<path fill-rule="evenodd" clip-rule="evenodd" d="M99.4326 101.358C99.2164 100.762 99.3621 100.546 99.6879 99.9962C100.202 99.1314 100.91 98.4044 101.532 97.621C102.743 96.0966 104.036 94.6771 105.668 93.5803C107.354 92.4476 109.007 91.2192 110.788 90.24C112.006 89.571 113.236 88.8848 114.544 88.4085C115.465 88.0732 116.419 87.8068 117.358 87.5232C119.194 86.9655 121.698 86.7211 123.471 87.6611C124.552 88.2345 124.974 89.2952 125.378 90.3888C125.577 90.9278 125.751 91.3916 125.645 91.9791C125.552 92.4914 125.294 93.0226 125.066 93.4832C124.324 94.9967 122.947 96.3849 121.657 97.444C119.025 99.6046 116.039 101.163 112.825 102.254C111.965 102.547 111.103 102.871 110.218 103.081C109.645 103.218 109.056 103.28 108.484 103.423C107.157 103.752 105.801 104.049 104.437 104.198C104.064 104.239 103.642 104.369 103.274 104.368C102.939 104.366 102.613 104.158 102.283 104.1C101.731 104.004 100.948 104.026 100.456 103.753C99.1427 103.031 98.9876 101.604 99.4326 101.359V101.358Z" fill="#FFA989"/>
<path fill-rule="evenodd" clip-rule="evenodd" d="M121.38 99.791C121.499 99.2364 121.466 99.2129 121.815 98.898C122.013 98.6128 122.238 98.3511 122.494 98.1146C122.815 97.8373 123.164 97.5975 123.539 97.3986C124.618 96.7985 125.936 96.1279 127.2 96.5008C128.051 96.7515 128.532 97.162 128.335 98.0926C128.223 98.6175 127.786 99.1471 127.376 99.4714C126.639 100.054 125.8 100.402 124.94 100.766C124.288 101.04 123.334 101.204 122.624 101.048C121.977 100.905 121.289 100.201 121.38 99.7926V99.791Z" fill="#FFA989"/>
<path fill-rule="evenodd" clip-rule="evenodd" d="M140.051 84.3991C139.067 84.7062 138.544 84.9005 137.726 85.4582C136.508 86.2871 135.203 87.119 134.091 88.0841C133.391 88.692 132.697 89.4378 132.22 90.24C131.843 90.8761 131.72 91.6297 131.664 92.3598C131.606 93.1103 131.844 94.453 132.659 94.7899C132.972 94.9184 133.536 94.804 133.847 94.8071C134.581 94.8134 135.172 94.6912 135.883 94.5157C136.573 94.3449 137.268 94.2995 137.953 94.0958C138.649 93.8906 139.344 93.6978 140.048 93.5224C141.566 93.1448 143.039 92.7813 144.458 92.1044C145.801 91.4652 147.192 90.9341 148.51 90.2416C149.461 89.7402 150.388 89.2294 151.368 88.7876C152.721 88.175 154.077 87.5765 155.379 86.8636C155.935 86.5597 156.305 86.2056 156.743 85.7591C157.171 85.3235 157.679 84.9553 157.998 84.4242C158.141 84.1876 158.474 83.7395 158.464 83.4434C158.451 83.0674 157.91 82.6036 157.63 82.4281C157.141 82.1226 156.45 81.9315 155.885 81.8625C155.061 81.7607 154.111 81.6604 153.285 81.7121C152.27 81.7779 151.164 81.9283 150.163 82.1179C149.497 82.2432 148.906 82.4077 148.223 82.4171C146.996 82.4359 145.832 82.5237 144.613 82.7211C143.922 82.8323 143.255 83.0721 142.583 83.2632C141.972 83.4371 141.322 83.564 140.745 83.8366C140.458 83.9729 139.405 84.2064 140.052 84.4038L140.051 84.3991Z" fill="#FFA989"/>
<path fill-rule="evenodd" clip-rule="evenodd" d="M137.199 82.4031C136.546 82.7102 135.575 83.0486 135.177 83.7317C134.917 84.1782 135.279 84.266 135.675 84.2691C136.374 84.2738 137.091 83.9401 137.762 83.7568C138.279 83.6158 138.827 83.3525 139.26 83.0392C139.465 82.8903 139.877 82.7399 139.739 82.4313C139.658 82.2495 139.233 82.0584 139.056 82.0036C138.387 81.8014 137.565 81.955 137.057 82.4031H137.199Z" fill="#FFA989"/>
<path fill-rule="evenodd" clip-rule="evenodd" d="M160.572 103.069C159.979 103.261 159.388 103.365 158.807 103.545C158.216 103.727 157.677 104.1 157.176 104.454C156.312 105.066 155.377 105.85 154.855 106.785C154.418 107.568 153.947 108.989 154.865 109.632C156.127 110.514 158.098 109.618 159.36 109.199C161.339 108.543 163.516 107.78 165.194 106.495C165.904 105.951 166.595 105.289 167.245 104.673C167.786 104.161 168.359 103.526 168.812 102.935C169.146 102.498 169.196 101.895 169.136 101.361C169.08 100.85 168.575 100.435 168.107 100.25C167.172 99.8803 166.376 100.322 165.456 100.471C164.497 100.626 163.38 100.907 162.523 101.392C161.218 102.132 159.839 102.765 160.572 103.072V103.069Z" fill="#FFA989"/>
<path fill-rule="evenodd" clip-rule="evenodd" d="M163.852 97.7949C163.692 97.5819 163.595 97.3484 163.56 97.0915C163.848 97.0163 164.011 96.6841 164.209 96.5008C164.38 96.341 164.588 96.2344 164.795 96.1326C165.136 95.965 165.754 95.6735 166.139 95.8208C166.875 96.1028 167.054 96.8204 166.673 97.5129C166.294 98.2054 165.578 98.6629 164.81 98.7616C164.243 98.8353 163.018 98.0331 163.709 97.3656L163.852 97.7934V97.7949Z" fill="#FFA989"/>
<path fill-rule="evenodd" clip-rule="evenodd" d="M172.26 95.8005C171.772 95.8929 171.101 95.8976 170.647 96.1248C170.55 96.1733 170.423 96.3269 170.322 96.3943C169.832 96.7249 169.274 96.9912 168.829 97.3798C168.345 97.8028 167.806 98.5705 168.06 99.2364C168.939 101.546 172.154 100.258 173.62 99.4416C174.114 99.1674 174.437 98.7695 174.886 98.4436C175.223 98.1992 175.501 98.0159 175.747 97.6649C176.107 97.1526 176.181 96.8079 175.93 96.2204C175.743 95.7832 175.287 95.509 174.828 95.4041C174.44 95.3148 174.007 95.2051 173.609 95.2223C172.632 95.2646 171.795 95.9007 170.977 96.3708L172.26 95.8005Z" fill="#FFA989"/>
<path fill-rule="evenodd" clip-rule="evenodd" d="M88.1738 137.273C85.96 138.311 83.9969 139.997 82.7513 142.12C82.1935 143.071 81.7392 144.04 81.3616 145.077C81.1657 145.614 81.0842 146.183 80.8743 146.716C80.6926 147.179 80.4983 147.615 80.4121 148.112C80.2131 149.243 79.6804 151.543 81.4979 151.692C82.3126 151.759 83.2652 151.56 84.0595 151.396C85.6263 151.071 87.2589 150.438 88.705 149.758C90.3125 149.001 91.9388 148.154 93.3238 147.041C94.6305 145.992 96.0923 145.136 97.2767 143.936C98.6915 142.504 100.735 140.156 99.1396 138.116C97.6324 136.188 94.3782 136.629 92.2694 136.883C91.2729 137.002 90.1621 137.013 89.1922 137.306C88.9682 137.373 88.6909 137.481 88.4903 137.594C88.3415 137.677 88.213 137.843 88.1754 137.274L88.1738 137.273Z" fill="#FFA989"/>
<path fill-rule="evenodd" clip-rule="evenodd" d="M96.0123 146.822C96.1581 146.332 96.2066 146.114 96.5576 145.775C96.9242 145.423 97.2548 145.038 97.6089 144.674C98.1619 144.104 99.337 143.439 100.152 143.392C100.521 143.371 101.023 143.381 101.295 143.681C101.579 143.993 101.444 144.61 101.299 144.959C101.15 145.313 100.985 145.569 100.694 145.824C100.363 146.114 99.9731 146.526 99.5861 146.733C99.0816 147.002 98.4502 147.197 97.8972 147.359C97.4459 147.493 96.7487 147.725 96.3226 147.363C96.0719 147.15 95.8306 146.647 96.0123 146.822Z" fill="#FFA989"/>
<path fill-rule="evenodd" clip-rule="evenodd" d="M89.8832 158.509C89.4084 158.617 88.719 158.676 88.2913 158.974C87.9184 159.232 87.6145 159.627 87.3434 159.983C86.7841 160.719 86.3015 161.512 85.7438 162.252C85.2863 162.856 84.857 163.53 84.4731 164.185C84.2115 164.632 84.0658 165.05 84.318 165.532C84.9463 166.739 86.8953 166.446 87.9435 166.195C89.0731 165.924 90.0853 165.377 91.1428 164.914C92.0939 164.497 93.0856 164.138 94.0006 163.643C95.5752 162.792 97.4945 161.926 98.3452 160.249C98.6774 159.596 98.8043 159.066 98.5176 158.377C98.2512 157.736 97.7702 157.26 97.1592 156.926C96.5231 156.578 95.8306 156.657 95.1334 156.652C94.1604 156.646 93.0856 156.793 92.1471 157.075C91.5486 157.255 90.9251 157.548 90.3469 157.785C89.4554 158.151 88.9979 158.878 89.8847 158.507L89.8832 158.509Z" fill="#FFA989"/>
<path fill-rule="evenodd" clip-rule="evenodd" d="M84.3258 159.507C84.2914 159.267 84.2992 159.029 84.3478 158.794C84.7677 158.665 84.9494 158.198 85.4727 158.36C85.8566 158.477 85.9177 158.919 85.8237 159.221C85.6325 159.826 84.1551 161.08 84.1833 159.792L84.3258 159.507Z" fill="#FFA989"/>
<path fill-rule="evenodd" clip-rule="evenodd" d="M177.675 131.002C176.964 131.032 176.254 131.087 175.546 131.167C175.358 131.321 175.153 131.451 174.933 131.556C174.2 131.943 173.534 132.22 172.898 132.77C172.384 133.213 171.173 133.993 171.245 134.818C171.311 135.574 172.409 135.72 172.991 135.723C173.586 135.726 174.189 135.593 174.786 135.562C175.613 135.519 176.43 135.414 177.254 135.316C178.305 135.189 179.427 134.993 180.356 134.462C180.909 134.145 181.288 133.809 181.683 133.309C181.865 133.078 182.144 132.848 182.086 132.527C182.048 132.315 181.656 131.888 181.503 131.745C181.276 131.537 180.956 131.405 180.676 131.28C179.317 130.673 177.765 131.15 177.677 131.001L177.675 131.002Z" fill="#FFA989"/>
<path fill-rule="evenodd" clip-rule="evenodd" d="M142.758 176.608C142.183 176.862 141.826 176.92 141.569 177.454C141.475 177.651 141.167 178.073 141.174 178.334C141.185 178.69 141.546 178.674 141.846 178.593C142.235 178.488 142.624 178.135 142.954 177.922C143.227 177.747 143.415 177.567 143.622 177.318C143.744 177.17 143.85 177.095 143.891 176.893C143.927 176.71 143.832 176.547 144.016 176.429C143.897 175.604 142.338 176.739 142.045 176.752L142.758 176.609V176.608Z" fill="#FFA989"/>
<path fill-rule="evenodd" clip-rule="evenodd" d="M146.749 175.041C145.862 175.434 145.265 175.74 144.811 176.619C144.668 176.896 144.532 177.184 144.676 177.465C145.138 178.363 146.127 177.564 146.638 177.178C146.99 176.913 147.374 176.727 147.676 176.399C147.814 176.252 147.905 176.081 148.03 175.926C148.143 175.787 148.364 175.636 148.436 175.467C148.579 175.134 148.349 174.881 148.04 174.784C147.454 174.601 147.011 174.986 146.464 175.04H146.749V175.041Z" fill="#FFA989"/>
<path fill-rule="evenodd" clip-rule="evenodd" d="M100.145 155.516C99.8823 156.083 98.9328 158.22 100.192 158.208C101.292 158.197 103.086 157.011 103.146 155.801C103.185 154.993 102.538 154.599 101.784 154.513C100.827 154.404 100.269 155.165 99.8603 155.944L100.145 155.516Z" fill="#FFA989"/>
<path fill-rule="evenodd" clip-rule="evenodd" d="M103.423 137.13C103.177 137.467 102.829 137.754 103.177 138.098C103.348 138.268 103.527 138.374 103.774 138.409C104.257 138.476 104.971 138.042 104.995 137.558C105.012 137.194 104.838 136.9 104.564 136.699C104.174 136.416 103.906 136.594 103.567 136.845L103.425 137.13H103.423Z" fill="#FFA989"/>
</g>
<path fill-rule="evenodd" clip-rule="evenodd" d="M116.606 103.464C116.606 103.464 122.973 101.503 124.379 100.95C125.782 100.397 132.886 99.2427 132.886 99.2427C132.886 99.2427 138.982 96.6246 140.693 95.8193C142.404 95.014 146.75 92.8769 146.75 92.8769L151.813 90.5565C151.813 90.5565 148.389 94.0692 145.397 95.2192C142.404 96.3692 134.779 99.4322 134.779 99.4322C134.779 99.4322 132.499 100.067 129.292 101.104C126.085 102.14 116.608 103.462 116.608 103.462L116.606 103.464Z" fill="#FFBD4A"/>
<path fill-rule="evenodd" clip-rule="evenodd" d="M156.243 112.22L159.169 113.629C159.169 113.629 162.192 111.83 162.666 110.103C162.666 110.103 156.939 111.68 156.245 112.22H156.243Z" fill="#FFAB4A"/>
<path fill-rule="evenodd" clip-rule="evenodd" d="M140.104 115.65L141.575 116.497L142.636 114.519L140.104 115.65Z" fill="#FFAB4A"/>
<path style="mix-blend-mode:multiply" opacity="0.71" fill-rule="evenodd" clip-rule="evenodd" d="M116.606 134.689C116.606 134.689 120.062 138.142 127.652 140.469C127.652 140.469 128.186 139.913 128.827 136.651C129.468 133.389 128.827 132.247 128.827 132.247C128.827 132.247 119.509 133.423 116.606 134.689Z" fill="url(#paint30_linear_905_5111)"/>
<path style="mix-blend-mode:multiply" opacity="0.71" fill-rule="evenodd" clip-rule="evenodd" d="M121.707 145.009C121.707 145.009 121.809 146.163 122.237 146.955C122.665 147.748 127.456 148.944 128.09 148.677C129.265 148.184 127.937 145.324 127.438 144.469C126.94 143.613 126.126 142.771 126.126 142.771L121.709 145.008L121.707 145.009Z" fill="url(#paint31_linear_905_5111)"/>
<path fill-rule="evenodd" clip-rule="evenodd" d="M91.9513 165.888C91.9513 165.888 98.4346 162.993 100.465 161.534C102.496 160.075 105.546 154.814 105.546 154.814L102.283 162.925L100.109 163.745L97.7938 164.243L91.9513 165.887V165.888Z" fill="#FFAB4A"/>
<path fill-rule="evenodd" clip-rule="evenodd" d="M95.9497 149.699L101.462 146.592C101.462 146.592 100.943 148.362 100.152 148.839C99.3605 149.315 95.9481 149.699 95.9481 149.699H95.9497Z" fill="#FFAB4A"/>
<path fill-rule="evenodd" clip-rule="evenodd" d="M174.822 136.445L177.266 138.415C177.266 138.415 177.866 136.803 177.984 136.289C178.103 135.775 174.822 136.444 174.822 136.444V136.445Z" fill="#FF864A"/>
<path fill-rule="evenodd" clip-rule="evenodd" d="M188.813 117.104L192.32 115.974L195.392 115.17C195.392 115.17 191.961 116.985 191.364 117.306C190.769 117.627 188.812 117.104 188.812 117.104H188.813Z" fill="#FFAB4A"/>
<path fill-rule="evenodd" clip-rule="evenodd" d="M186.032 115.882L187.298 114.898V116.081L186.032 115.882Z" fill="#FFAB4A"/>
<path fill-rule="evenodd" clip-rule="evenodd" d="M143.808 179.765L147.999 177.383L147.499 179.596L143.808 179.765Z" fill="#FF864A"/>
<path fill-rule="evenodd" clip-rule="evenodd" d="M96.8318 111.523C96.8318 111.523 100.028 111.263 101.903 111.263C103.779 111.263 107.484 111.628 107.484 111.628L111.075 111.98C111.075 111.98 109.017 112.148 104.67 112.22C100.324 112.292 96.8318 111.523 96.8318 111.523Z" fill="#FFB14A"/>
<path fill-rule="evenodd" clip-rule="evenodd" d="M114.824 131.701C114.824 131.701 118.102 128.057 119.528 127.534C120.954 127.01 127.641 130.066 128.817 130.498C129.994 130.93 126.552 137.705 125.676 138.415C124.8 139.125 114.967 135.534 114.824 131.7V131.701Z" fill="url(#paint32_linear_905_5111)"/>
<path fill-rule="evenodd" clip-rule="evenodd" d="M127.102 146.952C126.798 147.822 123.807 147.369 122.735 146.952L122.657 146.907L122.431 146.748C122.409 146.737 122.386 146.714 122.375 146.692C121.607 145.902 121.427 143.747 121.945 142.608C121.945 142.608 124.553 141.807 125.511 142.145C126.132 142.36 126.752 143.961 127.023 145.293V145.304C127.158 146.015 127.204 146.658 127.102 146.951V146.952Z" fill="url(#paint33_linear_905_5111)"/>
<path style="mix-blend-mode:multiply" opacity="0.5" fill-rule="evenodd" clip-rule="evenodd" d="M123.191 133.751L125.676 138.416C125.676 138.416 128.858 134.952 129.057 130.965L123.193 133.752L123.191 133.751Z" fill="url(#paint34_linear_905_5111)"/>
<path fill-rule="evenodd" clip-rule="evenodd" d="M91.0458 119.161L85.0231 120.621C85.0231 120.621 84.0408 124.104 84.1833 125.558L87.9154 129.511C87.9154 129.511 89.0716 122.424 91.0458 119.161Z" fill="url(#paint35_linear_905_5111)"/>
<path fill-rule="evenodd" clip-rule="evenodd" d="M114.824 131.701C114.824 131.701 117.765 133.151 121.372 133.751C124.979 134.351 129.055 130.963 129.055 130.963C129.055 130.963 125.192 127.51 119.634 126.869C119.634 126.869 116 128.944 114.824 131.701Z" fill="url(#paint36_linear_905_5111)"/>
<path style="mix-blend-mode:multiply" opacity="0.5" fill-rule="evenodd" clip-rule="evenodd" d="M127.102 146.952C126.798 147.822 123.807 147.369 122.735 146.952L122.657 146.907L122.431 146.748L122.364 146.703L122.375 146.692L123.186 145.564L126.527 144.752L127.023 145.295V145.306C127.158 146.017 127.204 146.659 127.102 146.952Z" fill="url(#paint37_linear_905_5111)"/>
<path fill-rule="evenodd" clip-rule="evenodd" d="M121.942 142.603C121.942 142.603 121.88 144.992 122.895 145.47C123.91 145.948 126.224 144.986 126.53 144.756C126.835 144.525 125.823 142.343 124.947 142.061C124.072 141.779 121.944 142.601 121.944 142.601L121.942 142.603Z" fill="url(#paint38_linear_905_5111)"/>
<path style="mix-blend-mode:multiply" opacity="0.71" fill-rule="evenodd" clip-rule="evenodd" d="M173.848 174.439C173.848 174.439 172.709 174.23 171.831 174.429C170.952 174.629 169.53 179.22 169.53 179.909C169.53 182.618 172.679 181.85 173.636 181.598C174.593 181.346 174.824 179.295 174.824 179.295L173.848 174.441V174.439Z" fill="url(#paint39_linear_905_5111)"/>
<path fill-rule="evenodd" clip-rule="evenodd" d="M170.534 179.118C169.779 178.591 171.012 175.832 171.701 174.909L171.765 174.845L171.978 174.67C171.996 174.651 172.024 174.635 172.047 174.631C173.014 174.103 175.139 174.504 176.098 175.309C176.098 175.309 176.173 178.035 175.59 178.869C175.217 179.409 173.508 179.578 172.152 179.484L172.141 179.481C171.421 179.422 170.788 179.293 170.532 179.118H170.534Z" fill="url(#paint40_linear_905_5111)"/>
<path style="mix-blend-mode:multiply" opacity="0.5" fill-rule="evenodd" clip-rule="evenodd" d="M170.534 179.118C169.779 178.591 171.012 175.832 171.701 174.91L171.765 174.845L171.978 174.67L172.04 174.617L172.047 174.631L172.917 175.715L172.807 179.151L172.152 179.484L172.141 179.481C171.421 179.422 170.788 179.293 170.532 179.118H170.534Z" fill="url(#paint41_linear_905_5111)"/>
<path fill-rule="evenodd" clip-rule="evenodd" d="M176.104 175.309C176.104 175.309 173.818 174.61 173.086 175.461C172.353 176.312 172.663 178.798 172.803 179.154C172.944 179.509 175.316 179.116 175.822 178.349C176.328 177.581 176.104 175.309 176.104 175.309Z" fill="url(#paint42_linear_905_5111)"/>
<path fill-rule="evenodd" clip-rule="evenodd" d="M102.82 170.36L108.404 170.753L117.04 170.36L119.83 171.337L116.838 170.908L111.075 173.615L110.657 174.397L107.494 173.545L102.82 170.36Z" fill="url(#paint43_linear_905_5111)"/>
<path fill-rule="evenodd" clip-rule="evenodd" d="M102.82 170.36L107.494 173.25L109.159 172.992L111.672 172.779L116.838 170.908L111.075 173.615L110.657 174.397L107.075 173.741L102.82 170.36Z" fill="url(#paint44_linear_905_5111)"/>
<path fill-rule="evenodd" clip-rule="evenodd" d="M113.58 103.755L118.121 106.45L123.191 106.052L129.29 101.105L121.435 100.543L116.606 101.787L113.58 103.755Z" fill="url(#paint45_linear_905_5111)"/>
<path fill-rule="evenodd" clip-rule="evenodd" d="M113.58 103.755H115.092L117.872 104.371H120.864L124.125 103.086L127.702 101.106H129.29C129.29 101.106 126.053 104.421 123.191 106.052L118.119 106.45L113.579 103.756L113.58 103.755Z" fill="url(#paint46_linear_905_5111)"/>
<path fill-rule="evenodd" clip-rule="evenodd" d="M85.457 167.565L87.6066 165.548L89.9521 165.888C89.9521 165.888 90.2513 167.38 89.9521 168.555C89.6528 169.73 87.6066 168.997 87.6066 168.997L85.457 167.565Z" fill="url(#paint47_linear_905_5111)"/>
<path fill-rule="evenodd" clip-rule="evenodd" d="M85.457 167.565C85.457 167.565 87.6223 168.271 87.978 168.271C88.3336 168.271 89.1891 168.237 89.5463 167.952C89.9019 167.666 89.9521 165.89 89.9521 165.89C89.9521 165.89 90.2513 167.56 89.9521 168.556C89.9521 168.556 89.9019 169.412 88.3884 169.358L87.3904 169.056L85.457 167.566V167.565Z" fill="url(#paint48_linear_905_5111)"/>
<path fill-rule="evenodd" clip-rule="evenodd" d="M180.376 135.612C180.376 135.612 180.936 134.36 181.683 133.821C182.432 133.282 184.622 133.343 184.622 133.343L184.896 133.821C184.896 133.821 184.141 135.756 183.552 136.096C182.965 136.436 181.735 136.096 181.735 136.096L180.375 135.612H180.376Z" fill="url(#paint49_linear_905_5111)"/>
<path fill-rule="evenodd" clip-rule="evenodd" d="M184.624 133.343C184.624 133.343 183.848 134.645 183.314 134.993C182.78 135.341 182.092 135.607 182.092 135.607C182.092 135.607 181.233 135.751 180.376 135.612C180.376 135.612 181.639 136.218 182.637 136.246C182.637 136.246 183.761 136.264 183.925 136.096C184.09 135.928 184.898 133.821 184.898 133.821L184.624 133.343Z" fill="url(#paint50_linear_905_5111)"/>
</g>
<defs>
<filter id="filter0_d_905_5111" x="-0.00183105" y="0" width="280.002" height="273.2" filterUnits="userSpaceOnUse" color-interpolation-filters="sRGB">
<feFlood flood-opacity="0" result="BackgroundImageFix"/>
<feColorMatrix in="SourceAlpha" type="matrix" values="0 0 0 0 0 0 0 0 0 0 0 0 0 0 0 0 0 0 127 0" result="hardAlpha"/>
<feOffset/>
<feGaussianBlur stdDeviation="40"/>
<feComposite in2="hardAlpha" operator="out"/>
<feColorMatrix type="matrix" values="0 0 0 0 0.996078 0 0 0 0 0.482353 0 0 0 0 0.329412 0 0 0 1 0"/>
<feBlend mode="normal" in2="BackgroundImageFix" result="effect1_dropShadow_905_5111"/>
<feBlend mode="normal" in="SourceGraphic" in2="effect1_dropShadow_905_5111" result="shape"/>
</filter>
<linearGradient id="paint0_linear_905_5111" x1="182.059" y1="172.412" x2="170.024" y2="134.838" gradientUnits="userSpaceOnUse">
<stop stop-color="#5B006F"/>
<stop offset="0.02" stop-color="#5C0270"/>
<stop offset="0.23" stop-color="#691A7B"/>
<stop offset="0.46" stop-color="#732B84"/>
<stop offset="0.7" stop-color="#793589"/>
<stop offset="0.99" stop-color="#7B398B"/>
</linearGradient>
<radialGradient id="paint1_radial_905_5111" cx="0" cy="0" r="1" gradientUnits="userSpaceOnUse" gradientTransform="translate(112.979 118.171) scale(85.8634 85.8634)">
<stop stop-color="#9D4863"/>
<stop offset="0.24" stop-color="#994562"/>
<stop offset="0.42" stop-color="#903C61"/>
<stop offset="0.58" stop-color="#7F2D5E"/>
<stop offset="0.73" stop-color="#68195B"/>
<stop offset="0.87" stop-color="#4C0057"/>
<stop offset="0.98" stop-color="#4C0086"/>
</radialGradient>
<linearGradient id="paint2_linear_905_5111" x1="109.433" y1="163.588" x2="131.72" y2="163.588" gradientUnits="userSpaceOnUse">
<stop stop-color="#CA528D"/>
<stop offset="1" stop-color="#8E7090"/>
</linearGradient>
<linearGradient id="paint3_linear_905_5111" x1="165.24" y1="152.995" x2="186.468" y2="152.995" gradientUnits="userSpaceOnUse">
<stop stop-color="#CA528D"/>
<stop offset="1" stop-color="#8E7090"/>
</linearGradient>
<linearGradient id="paint4_linear_905_5111" x1="186.032" y1="133.644" x2="193.858" y2="133.644" gradientUnits="userSpaceOnUse">
<stop stop-color="#CA528D"/>
<stop offset="1" stop-color="#8E7090"/>
</linearGradient>
<linearGradient id="paint5_linear_905_5111" x1="93.0199" y1="115.974" x2="186.446" y2="115.974" gradientUnits="userSpaceOnUse">
<stop stop-color="#CA528D"/>
<stop offset="1" stop-color="#8E7090"/>
</linearGradient>
<linearGradient id="paint6_linear_905_5111" x1="93.0199" y1="101.787" x2="180.622" y2="101.787" gradientUnits="userSpaceOnUse">
<stop stop-color="#DE6863"/>
<stop offset="0.25" stop-color="#DB6462"/>
<stop offset="0.43" stop-color="#D35B61"/>
<stop offset="0.6" stop-color="#C54A5F"/>
<stop offset="0.76" stop-color="#B1335C"/>
<stop offset="0.91" stop-color="#981559"/>
<stop offset="1" stop-color="#860057"/>
</linearGradient>
<linearGradient id="paint7_linear_905_5111" x1="102.82" y1="187.456" x2="102.82" y2="133.751" gradientUnits="userSpaceOnUse">
<stop stop-color="#860057"/>
<stop offset="0.03" stop-color="#8C0656"/>
<stop offset="0.19" stop-color="#A92455"/>
<stop offset="0.36" stop-color="#C03B54"/>
<stop offset="0.54" stop-color="#D14C54"/>
<stop offset="0.74" stop-color="#DA5554"/>
<stop offset="0.99" stop-color="#DE5954"/>
</linearGradient>
<linearGradient id="paint8_linear_905_5111" x1="139.733" y1="181.889" x2="155.267" y2="181.889" gradientUnits="userSpaceOnUse">
<stop stop-color="#CA528D"/>
<stop offset="1" stop-color="#8E7090"/>
</linearGradient>
<linearGradient id="paint9_linear_905_5111" x1="191.345" y1="130.504" x2="191.345" y2="109.967" gradientUnits="userSpaceOnUse">
<stop stop-color="#860057"/>
<stop offset="0.03" stop-color="#880456"/>
<stop offset="0.23" stop-color="#951B55"/>
<stop offset="0.45" stop-color="#9D2C54"/>
<stop offset="0.69" stop-color="#A33554"/>
<stop offset="0.99" stop-color="#A53954"/>
</linearGradient>
<linearGradient id="paint10_linear_905_5111" x1="176.738" y1="153.606" x2="176.738" y2="129.097" gradientUnits="userSpaceOnUse">
<stop stop-color="#860057"/>
<stop offset="0.03" stop-color="#880456"/>
<stop offset="0.23" stop-color="#951B55"/>
<stop offset="0.45" stop-color="#9D2C54"/>
<stop offset="0.69" stop-color="#A33554"/>
<stop offset="0.99" stop-color="#A53954"/>
</linearGradient>
<linearGradient id="paint11_linear_905_5111" x1="129.632" y1="104.902" x2="129.632" y2="79.9997" gradientUnits="userSpaceOnUse">
<stop stop-color="#F49F57"/>
<stop offset="0.1" stop-color="#F69656"/>
<stop offset="0.35" stop-color="#FB8555"/>
<stop offset="0.63" stop-color="#FE7C54"/>
<stop offset="0.99" stop-color="#FF7954"/>
</linearGradient>
<linearGradient id="paint12_linear_905_5111" x1="153.412" y1="115.65" x2="153.412" y2="91.2788" gradientUnits="userSpaceOnUse">
<stop stop-color="#F47D57"/>
<stop offset="0.4" stop-color="#FB7A54"/>
<stop offset="0.99" stop-color="#FF7954"/>
</linearGradient>
<linearGradient id="paint13_linear_905_5111" x1="93.0199" y1="110.103" x2="115.823" y2="110.103" gradientUnits="userSpaceOnUse">
<stop stop-color="#F49F57"/>
<stop offset="0.1" stop-color="#F69656"/>
<stop offset="0.35" stop-color="#FB8555"/>
<stop offset="0.63" stop-color="#FE7C54"/>
<stop offset="0.99" stop-color="#FF7954"/>
</linearGradient>
<linearGradient id="paint14_linear_905_5111" x1="168.691" y1="132.815" x2="187.278" y2="132.815" gradientUnits="userSpaceOnUse">
<stop stop-color="#C75357"/>
<stop offset="0.13" stop-color="#D25856"/>
<stop offset="0.37" stop-color="#E35F54"/>
<stop offset="0.65" stop-color="#EC6354"/>
<stop offset="0.99" stop-color="#F06554"/>
</linearGradient>
<linearGradient id="paint15_linear_905_5111" x1="80" y1="143.593" x2="109.43" y2="143.593" gradientUnits="userSpaceOnUse">
<stop stop-color="#F49F57"/>
<stop offset="0.1" stop-color="#F69656"/>
<stop offset="0.35" stop-color="#FB8555"/>
<stop offset="0.63" stop-color="#FE7C54"/>
<stop offset="0.99" stop-color="#FF7954"/>
</linearGradient>
<linearGradient id="paint16_linear_905_5111" x1="83.0364" y1="159.225" x2="107.494" y2="159.225" gradientUnits="userSpaceOnUse">
<stop stop-color="#F49F57"/>
<stop offset="0.1" stop-color="#F69656"/>
<stop offset="0.35" stop-color="#FB8555"/>
<stop offset="0.63" stop-color="#FE7C54"/>
<stop offset="0.99" stop-color="#FF7954"/>
</linearGradient>
<linearGradient id="paint17_linear_905_5111" x1="146.304" y1="185.2" x2="146.304" y2="173.289" gradientUnits="userSpaceOnUse">
<stop stop-color="#860057"/>
<stop offset="0.03" stop-color="#880456"/>
<stop offset="0.23" stop-color="#951B55"/>
<stop offset="0.45" stop-color="#9D2C54"/>
<stop offset="0.69" stop-color="#A33554"/>
<stop offset="0.99" stop-color="#A53954"/>
</linearGradient>
<linearGradient id="paint18_linear_905_5111" x1="139.196" y1="176.58" x2="150.739" y2="176.58" gradientUnits="userSpaceOnUse">
<stop stop-color="#C75357"/>
<stop offset="0.26" stop-color="#D15048"/>
<stop offset="0.58" stop-color="#D84F3F"/>
<stop offset="0.99" stop-color="#DB4F3C"/>
</linearGradient>
<linearGradient id="paint19_linear_905_5111" x1="99.7758" y1="161.534" x2="125.511" y2="161.534" gradientUnits="userSpaceOnUse">
<stop stop-color="#CA528D"/>
<stop offset="1" stop-color="#8E7090"/>
</linearGradient>
<linearGradient id="paint20_linear_905_5111" x1="146.658" y1="179.799" x2="153.412" y2="179.799" gradientUnits="userSpaceOnUse">
<stop stop-color="#CA528D"/>
<stop offset="1" stop-color="#8E7090"/>
</linearGradient>
<linearGradient id="paint21_linear_905_5111" x1="176.738" y1="143.079" x2="188.293" y2="143.079" gradientUnits="userSpaceOnUse">
<stop stop-color="#CA528D"/>
<stop offset="1" stop-color="#8E7090"/>
</linearGradient>
<linearGradient id="paint22_linear_905_5111" x1="186.938" y1="113.629" x2="191.366" y2="113.629" gradientUnits="userSpaceOnUse">
<stop stop-color="#CA528D"/>
<stop offset="1" stop-color="#8E7090"/>
</linearGradient>
<linearGradient id="paint23_linear_905_5111" x1="186.032" y1="121.268" x2="200" y2="121.268" gradientUnits="userSpaceOnUse">
<stop stop-color="#CA528D"/>
<stop offset="1" stop-color="#8E7090"/>
</linearGradient>
<linearGradient id="paint24_linear_905_5111" x1="182.582" y1="114.207" x2="190.618" y2="112.747" gradientUnits="userSpaceOnUse">
<stop stop-color="#F47D57"/>
<stop offset="0.4" stop-color="#FB7A54"/>
<stop offset="0.99" stop-color="#FF7954"/>
</linearGradient>
<linearGradient id="paint25_linear_905_5111" x1="186.788" y1="114.518" x2="199.615" y2="112.187" gradientUnits="userSpaceOnUse">
<stop stop-color="#F47D57"/>
<stop offset="0.4" stop-color="#FB7A54"/>
<stop offset="0.99" stop-color="#FF7954"/>
</linearGradient>
<linearGradient id="paint26_linear_905_5111" x1="129.632" y1="96.8079" x2="168.055" y2="96.8079" gradientUnits="userSpaceOnUse">
<stop stop-color="#CA528D"/>
<stop offset="1" stop-color="#8E7090"/>
</linearGradient>
<linearGradient id="paint27_linear_905_5111" x1="141.475" y1="116.756" x2="151.191" y2="116.756" gradientUnits="userSpaceOnUse">
<stop stop-color="#CA528D"/>
<stop offset="1" stop-color="#8E7090"/>
</linearGradient>
<linearGradient id="paint28_linear_905_5111" x1="158.435" y1="108.629" x2="180.622" y2="108.629" gradientUnits="userSpaceOnUse">
<stop stop-color="#CA528D"/>
<stop offset="1" stop-color="#8E7090"/>
</linearGradient>
<linearGradient id="paint29_linear_905_5111" x1="97.1342" y1="116.972" x2="113.58" y2="116.972" gradientUnits="userSpaceOnUse">
<stop stop-color="#CA528D"/>
<stop offset="1" stop-color="#8E7090"/>
</linearGradient>
<linearGradient id="paint30_linear_905_5111" x1="116.606" y1="136.358" x2="129.112" y2="136.358" gradientUnits="userSpaceOnUse">
<stop stop-color="#CA528D"/>
<stop offset="1" stop-color="#8E7090"/>
</linearGradient>
<linearGradient id="paint31_linear_905_5111" x1="121.707" y1="145.744" x2="128.562" y2="145.744" gradientUnits="userSpaceOnUse">
<stop stop-color="#CA528D"/>
<stop offset="1" stop-color="#8E7090"/>
</linearGradient>
<linearGradient id="paint32_linear_905_5111" x1="121.942" y1="138.506" x2="121.942" y2="127.474" gradientUnits="userSpaceOnUse">
<stop stop-color="#A20057"/>
<stop offset="0.28" stop-color="#BA2355"/>
<stop offset="0.57" stop-color="#CD4054"/>
<stop offset="0.82" stop-color="#D95254"/>
<stop offset="0.99" stop-color="#DE5954"/>
</linearGradient>
<linearGradient id="paint33_linear_905_5111" x1="124.404" y1="147.449" x2="124.404" y2="142.062" gradientUnits="userSpaceOnUse">
<stop stop-color="#A20057"/>
<stop offset="0.28" stop-color="#BA2355"/>
<stop offset="0.57" stop-color="#CD4054"/>
<stop offset="0.82" stop-color="#D95254"/>
<stop offset="0.99" stop-color="#DE5954"/>
</linearGradient>
<linearGradient id="paint34_linear_905_5111" x1="123.191" y1="134.689" x2="129.057" y2="134.689" gradientUnits="userSpaceOnUse">
<stop stop-color="#CA528D"/>
<stop offset="1" stop-color="#8E7090"/>
</linearGradient>
<linearGradient id="paint35_linear_905_5111" x1="87.6067" y1="129.511" x2="87.6067" y2="119.161" gradientUnits="userSpaceOnUse">
<stop stop-color="#A20057"/>
<stop offset="0.28" stop-color="#BA2355"/>
<stop offset="0.57" stop-color="#CD4054"/>
<stop offset="0.82" stop-color="#D95254"/>
<stop offset="0.99" stop-color="#DE5954"/>
</linearGradient>
<linearGradient id="paint36_linear_905_5111" x1="121.941" y1="133.823" x2="121.941" y2="126.869" gradientUnits="userSpaceOnUse">
<stop stop-color="#F49F57"/>
<stop offset="0.1" stop-color="#F69656"/>
<stop offset="0.35" stop-color="#FB8555"/>
<stop offset="0.63" stop-color="#FE7C54"/>
<stop offset="0.99" stop-color="#FF7954"/>
</linearGradient>
<linearGradient id="paint37_linear_905_5111" x1="122.364" y1="146.1" x2="127.158" y2="146.1" gradientUnits="userSpaceOnUse">
<stop stop-color="#CA528D"/>
<stop offset="1" stop-color="#8E7090"/>
</linearGradient>
<linearGradient id="paint38_linear_905_5111" x1="124.263" y1="145.602" x2="124.263" y2="142.003" gradientUnits="userSpaceOnUse">
<stop stop-color="#F47D57"/>
<stop offset="0.4" stop-color="#FB7A54"/>
<stop offset="0.99" stop-color="#FF7954"/>
</linearGradient>
<linearGradient id="paint39_linear_905_5111" x1="173.58" y1="174.378" x2="171.473" y2="181.978" gradientUnits="userSpaceOnUse">
<stop stop-color="#CA528D"/>
<stop offset="1" stop-color="#8E7090"/>
</linearGradient>
<linearGradient id="paint40_linear_905_5111" x1="170.737" y1="176.389" x2="175.926" y2="177.828" gradientUnits="userSpaceOnUse">
<stop stop-color="#A20057"/>
<stop offset="0.28" stop-color="#BA2355"/>
<stop offset="0.57" stop-color="#CD4054"/>
<stop offset="0.82" stop-color="#D95254"/>
<stop offset="0.99" stop-color="#DE5954"/>
</linearGradient>
<linearGradient id="paint41_linear_905_5111" x1="172.58" y1="174.783" x2="171.299" y2="179.401" gradientUnits="userSpaceOnUse">
<stop stop-color="#CA528D"/>
<stop offset="1" stop-color="#8E7090"/>
</linearGradient>
<linearGradient id="paint42_linear_905_5111" x1="172.553" y1="176.746" x2="176.021" y2="177.708" gradientUnits="userSpaceOnUse">
<stop stop-color="#F47D57"/>
<stop offset="0.4" stop-color="#FB7A54"/>
<stop offset="0.99" stop-color="#FF7954"/>
</linearGradient>
<linearGradient id="paint43_linear_905_5111" x1="102.82" y1="172.379" x2="119.83" y2="172.379" gradientUnits="userSpaceOnUse">
<stop stop-color="#860057"/>
<stop offset="0.21" stop-color="#89094C"/>
<stop offset="0.55" stop-color="#8D1343"/>
<stop offset="0.99" stop-color="#8F1640"/>
</linearGradient>
<linearGradient id="paint44_linear_905_5111" x1="102.82" y1="172.379" x2="116.838" y2="172.379" gradientUnits="userSpaceOnUse">
<stop stop-color="#F49F57"/>
<stop offset="0.1" stop-color="#F69656"/>
<stop offset="0.35" stop-color="#FB8555"/>
<stop offset="0.63" stop-color="#FE7C54"/>
<stop offset="0.99" stop-color="#FF7954"/>
</linearGradient>
<linearGradient id="paint45_linear_905_5111" x1="121.435" y1="106.45" x2="121.435" y2="100.543" gradientUnits="userSpaceOnUse">
<stop stop-color="#860057"/>
<stop offset="0.03" stop-color="#880456"/>
<stop offset="0.23" stop-color="#951B55"/>
<stop offset="0.45" stop-color="#9D2C54"/>
<stop offset="0.69" stop-color="#A33554"/>
<stop offset="0.99" stop-color="#A53954"/>
</linearGradient>
<linearGradient id="paint46_linear_905_5111" x1="113.58" y1="103.777" x2="129.29" y2="103.777" gradientUnits="userSpaceOnUse">
<stop stop-color="#F49F57"/>
<stop offset="0.1" stop-color="#F69656"/>
<stop offset="0.35" stop-color="#FB8555"/>
<stop offset="0.63" stop-color="#FE7C54"/>
<stop offset="0.99" stop-color="#FF7954"/>
</linearGradient>
<linearGradient id="paint47_linear_905_5111" x1="87.7711" y1="169.224" x2="87.7711" y2="165.548" gradientUnits="userSpaceOnUse">
<stop stop-color="#860057"/>
<stop offset="0.03" stop-color="#880456"/>
<stop offset="0.23" stop-color="#951B55"/>
<stop offset="0.45" stop-color="#9D2C54"/>
<stop offset="0.69" stop-color="#A33554"/>
<stop offset="0.99" stop-color="#A53954"/>
</linearGradient>
<linearGradient id="paint48_linear_905_5111" x1="85.457" y1="167.624" x2="90.0853" y2="167.624" gradientUnits="userSpaceOnUse">
<stop stop-color="#F49F57"/>
<stop offset="0.1" stop-color="#F69656"/>
<stop offset="0.35" stop-color="#FB8555"/>
<stop offset="0.63" stop-color="#FE7C54"/>
<stop offset="0.99" stop-color="#FF7954"/>
</linearGradient>
<linearGradient id="paint49_linear_905_5111" x1="180.376" y1="134.794" x2="184.898" y2="134.794" gradientUnits="userSpaceOnUse">
<stop stop-color="#860057"/>
<stop offset="0.21" stop-color="#89094C"/>
<stop offset="0.55" stop-color="#8D1343"/>
<stop offset="0.99" stop-color="#8F1640"/>
</linearGradient>
<linearGradient id="paint50_linear_905_5111" x1="180.376" y1="134.796" x2="184.898" y2="134.796" gradientUnits="userSpaceOnUse">
<stop stop-color="#C75357"/>
<stop offset="0.13" stop-color="#D25856"/>
<stop offset="0.37" stop-color="#E35F54"/>
<stop offset="0.65" stop-color="#EC6354"/>
<stop offset="0.99" stop-color="#F06554"/>
</linearGradient>
</defs>
</svg>
