<svg width="202" height="202" viewBox="0 0 202 202" fill="none" xmlns="http://www.w3.org/2000/svg">
<g filter="url(#filter0_d_905_6030)">
<path d="M121.127 98.6912C121.149 98.8535 121.167 99.0136 121.185 99.1732C121.233 99.6026 121.266 100.031 121.283 100.456C121.289 100.521 121.292 100.59 121.295 100.656C121.353 102.319 121.208 103.949 120.88 105.519C120.822 105.803 120.757 106.085 120.685 106.362C118.699 114.198 112.118 120.419 103.618 121.544C103.441 121.568 103.263 121.588 103.085 121.605C102.987 121.615 102.889 121.625 102.791 121.632C102.78 121.636 102.771 121.638 102.759 121.636C99.4805 121.935 96.3006 121.431 93.4221 120.279C93.2292 120.205 93.0384 120.129 92.8504 120.045C91.0809 119.279 89.4346 118.261 87.9628 117.041C87.9187 117.005 87.8752 116.969 87.8306 116.929C87.6485 116.779 87.4749 116.625 87.3008 116.47C87.188 116.368 87.0751 116.263 86.965 116.157C86.778 115.98 86.5964 115.798 86.4174 115.613C85.554 114.737 84.7668 113.786 84.0715 112.757C83.9634 112.6 83.8614 112.442 83.7593 112.281C83.7437 112.256 83.7292 112.234 83.7136 112.209C83.569 111.979 83.4272 111.748 83.2907 111.511C83.194 111.346 83.1026 111.178 83.0108 111.007C82.9629 110.92 82.9183 110.83 82.8737 110.743C82.8334 110.667 82.7942 110.594 82.7566 110.517C82.2472 109.509 81.819 108.451 81.4831 107.344C81.3966 107.053 81.3128 106.76 81.237 106.461C81.1451 106.109 81.0624 105.753 80.9904 105.393C80.898 104.946 80.8233 104.493 80.7626 104.035C80.2682 100.302 80.8211 96.6703 82.1876 93.4394C82.403 92.9332 82.6352 92.4394 82.8899 91.9552C82.9044 91.9295 82.9157 91.901 82.9302 91.8747C83.4207 90.9504 83.9747 90.0714 84.5975 89.2374C84.7297 89.0547 84.8678 88.8742 85.0096 88.6958C85.0564 88.6383 85.0999 88.5819 85.1467 88.5276C85.5701 88.0026 86.0182 87.5045 86.4927 87.0274C89.5538 83.935 93.6257 81.7975 98.2742 81.1823C98.8207 81.1097 99.3639 81.0592 99.9045 81.0324C99.9641 81.0302 100.021 81.0259 100.081 81.027C101.389 80.9652 102.682 81.0345 103.945 81.2215C104.175 81.2543 104.402 81.293 104.627 81.3354C105.896 81.567 107.13 81.9206 108.312 82.3832C108.372 82.4053 108.429 82.4278 108.487 82.4531C108.536 82.4719 108.582 82.4939 108.631 82.5133C108.83 82.5965 109.03 82.6755 109.228 82.7637C109.385 82.833 109.542 82.9055 109.699 82.9807C109.959 83.1054 110.216 83.2338 110.472 83.3714C111.897 84.1236 113.228 85.0473 114.436 86.1134C114.589 86.2493 114.742 86.3885 114.891 86.5309C115.676 87.2681 116.404 88.0677 117.067 88.9231C117.071 88.9285 117.078 88.9365 117.082 88.9424C117.447 89.4185 117.786 89.9139 118.108 90.4222C118.099 90.4067 118.09 90.3868 118.079 90.3674C118.169 90.5055 118.26 90.6501 118.345 90.7919C118.436 90.9332 118.521 91.0783 118.604 91.2234C118.694 91.383 118.784 91.5394 118.869 91.7022C119.616 93.0847 120.21 94.5688 120.622 96.14C120.843 96.9675 121.012 97.8192 121.128 98.6907L121.127 98.6912Z" fill="url(#paint0_linear_905_6030)"/>
<g style="mix-blend-mode:color-dodge" opacity="0.65">
<path d="M121.127 98.6912C121.149 98.8535 121.167 99.0136 121.186 99.1732C121.233 99.6026 121.266 100.031 121.283 100.456C121.289 100.521 121.292 100.59 121.295 100.656C121.353 102.319 121.208 103.949 120.88 105.519C120.822 105.803 120.757 106.085 120.685 106.362C118.699 114.198 112.118 120.419 103.618 121.544C103.441 121.568 103.263 121.588 103.085 121.605C102.987 121.615 102.889 121.625 102.791 121.632C102.78 121.636 102.771 121.638 102.759 121.636C110.727 120.239 116.976 114.57 119.433 107.324C119.55 106.984 119.656 106.643 119.754 106.296C119.809 106.099 119.864 105.903 119.914 105.707C119.989 105.415 120.058 105.117 120.12 104.814C120.285 104.017 120.406 103.208 120.481 102.383C120.488 102.325 120.493 102.27 120.497 102.213C120.523 101.885 120.542 101.555 120.553 101.226C120.575 100.709 120.572 100.193 120.555 99.6719C120.536 99.1485 120.5 98.6241 120.443 98.0996C120.423 97.9277 120.404 97.759 120.381 97.5881C120.327 97.1835 120.262 96.7832 120.186 96.3877C119.881 94.7633 119.394 93.2137 118.75 91.7575C118.676 91.5872 118.599 91.4168 118.52 91.247C118.39 90.9698 118.252 90.6963 118.111 90.4265C118.099 90.4072 118.09 90.3873 118.079 90.3674C118.169 90.5055 118.261 90.6501 118.346 90.7919C118.437 90.9332 118.522 91.0783 118.604 91.2234C118.694 91.383 118.784 91.5394 118.869 91.7022C119.617 93.0847 120.21 94.5688 120.622 96.14C120.843 96.9675 121.013 97.8191 121.129 98.6907L121.127 98.6912Z" fill="white"/>
</g>
<path d="M104.627 81.336C104.787 83.5476 104.566 86.8495 101.702 88.2837C97.5569 90.3621 88.7135 93.844 84.5964 89.238C84.7286 89.0553 84.8667 88.8747 85.0086 88.6963C85.0553 88.6388 85.0988 88.5824 85.1456 88.5281C85.3326 88.7168 85.5905 88.8479 85.9371 88.9011C88.7059 89.3186 96.6289 89.6431 98.7712 87.3014C100.914 84.9592 102.384 84.1752 100.655 82.3456C100.298 81.9722 100.127 81.517 100.08 81.027C101.388 80.9652 102.681 81.0345 103.944 81.2215C104.174 81.2543 104.401 81.293 104.626 81.3354L104.627 81.336Z" fill="#87000D"/>
<path d="M110.471 83.3719C110.517 83.7685 110.573 84.3262 110.59 84.9941C110.68 88.4175 109.781 94.7032 101.848 96.4592C93.0631 98.4065 92.8831 98.5478 91.6521 99.4618C90.4205 100.376 87.2368 99.5956 85.6071 100.337C84.4733 100.854 82.1295 103.172 81.2364 106.461C81.1445 106.109 81.0618 105.753 80.9898 105.393C80.8974 104.946 80.8227 104.493 80.762 104.035C80.2676 100.302 80.8205 96.6704 82.187 93.4394C82.2842 93.2433 82.382 93.0498 82.483 92.8591C82.1236 95.1395 82.1612 98.1007 84.6238 98.5892C85.9725 98.8584 87.0509 98.9889 87.9273 99.0051C88.2561 99.0158 88.5586 99.0056 88.8348 98.9841C90.053 98.8772 90.7918 98.4908 91.3716 97.9207C92.4355 96.8783 96.5009 96.9412 99.1844 96.2104C101.867 95.4796 107.652 92.6371 108.313 90.8215C108.832 89.4035 109.812 86.3676 109.326 83.3064C109.299 83.1264 109.266 82.9448 109.227 82.7637C109.383 82.833 109.54 82.9055 109.698 82.9808C109.958 83.1054 110.215 83.2338 110.471 83.3714V83.3719Z" fill="#87000D"/>
<path d="M118.87 91.7178C117.862 92.0074 116.496 93.1713 114.963 96.5806C111.751 103.71 113.594 102.787 110.582 105.146C107.571 107.504 102.504 110.885 99.134 111.106C96.2888 111.294 87.6861 111.168 84.0709 112.758C83.9629 112.601 83.8608 112.443 83.7588 112.283C83.4933 111.867 83.2418 111.443 83.0103 111.009C83.798 110.601 84.9307 110.304 86.5599 110.286C91.4646 110.241 96.9476 110.57 99.8943 109.426C102.838 108.282 110.662 104.61 111.691 101.535C112.705 98.5005 115.937 94.3582 114.777 86.5717C115.594 87.2961 116.36 88.087 117.058 88.9322C117.062 88.9376 117.068 88.9457 117.072 88.9516C117.631 89.677 118.144 90.4416 118.604 91.2401C118.694 91.3997 118.784 91.556 118.869 91.7188L118.87 91.7178Z" fill="#87000D"/>
<path d="M121.291 100.659C121.352 102.319 121.207 103.949 120.88 105.519C120.821 105.803 120.756 106.085 120.685 106.362C119.524 107.149 118.441 108.116 117.959 109.202C116.687 112.075 113.641 116.31 107.109 117.475C101.314 118.51 96.6106 117.035 93.4216 120.279C93.2287 120.205 93.0379 120.129 92.8499 120.045C91.0804 119.279 89.434 118.261 87.9623 117.041C89.8956 117.389 92.276 117.687 94.4253 117.577C99.0523 117.34 102.862 116.61 105.974 115.147C109.086 113.683 111.346 113.158 111.963 110.447C112.581 107.736 114.257 105.636 117.491 104.531C119.64 103.799 120.799 102.368 121.291 100.659Z" fill="#87000D"/>
<path d="M121.185 99.1738C122.053 100.86 122.587 103.194 120.88 105.519C119.534 106.362 118.194 107.452 117.643 108.694C116.37 111.567 113.325 115.802 106.792 116.968C100.842 118.029 96.0399 116.447 92.8498 120.045C89.693 120.32 86.9988 117.559 87.3008 116.47C89.2916 116.844 91.831 117.184 94.1087 117.069C98.7357 116.832 102.546 116.102 105.658 114.639C108.77 113.175 111.029 112.651 111.647 109.939C112.265 107.228 113.94 105.128 117.175 104.023C119.722 103.154 120.881 101.303 121.185 99.1738Z" fill="url(#paint1_linear_905_6030)"/>
<path d="M87.5812 116.884C89.5721 117.258 92.1115 117.598 94.3892 117.483C99.0162 117.246 102.826 116.516 105.938 115.052C109.05 113.589 111.31 113.064 111.927 110.353C112.545 107.642 114.221 105.542 117.455 104.437C119.948 103.586 121.109 101.794 121.442 99.7235C121.361 99.5343 121.276 99.35 121.185 99.1738C120.881 101.303 119.722 103.154 117.175 104.023C113.94 105.127 112.265 107.228 111.647 109.939C111.029 112.651 108.769 113.175 105.658 114.639C102.545 116.102 98.7352 116.832 94.1088 117.069C91.831 117.184 89.2916 116.844 87.3008 116.47C87.2078 116.806 87.4002 117.301 87.8026 117.817C87.5974 117.458 87.513 117.128 87.5807 116.884H87.5812Z" fill="#FCFE02"/>
<path d="M107.008 104.951C106.905 105.082 106.792 105.205 106.669 105.324C106.793 105.208 106.905 105.082 107.008 104.951ZM115.954 86.9919C115.578 86.72 115.192 86.5035 114.763 86.281C114.657 86.2262 114.547 86.1714 114.434 86.1139C114.952 89.5915 114.594 92.3378 113.951 94.5833C113.56 95.9423 113.066 97.1195 112.597 98.1614C112.567 98.2286 112.537 98.2925 112.5 98.3576C111.827 99.6337 110.397 100.34 108.96 100.08C107.581 99.8325 105.941 99.5504 104.58 99.3489C103.578 99.2022 102.729 99.098 102.247 99.0867C101.387 99.0652 100.54 99.5891 99.704 100.175C98.6809 100.893 97.674 101.706 96.6848 101.726C94.8868 101.765 93.191 105.596 92.5984 107.177C92.2367 108.145 91.0664 108.955 90.2142 109.441C89.8397 109.652 89.4173 109.757 88.9875 109.753C88.1122 109.749 87.2374 109.745 86.3787 109.753C85.0762 109.766 84.0919 109.96 83.3487 110.248C83.1198 110.335 82.9489 110.52 82.8732 110.743C82.8248 110.878 82.8119 111.031 82.8436 111.18C82.9452 111.65 83.1187 111.919 83.4336 112.118C83.4653 112.137 83.4992 112.152 83.5336 112.165C83.5921 112.189 83.6523 112.207 83.7136 112.21C83.82 112.22 83.929 112.202 84.0317 112.162C87.6973 110.633 96.0867 110.761 98.8841 110.577C102.236 110.359 107.274 106.987 110.269 104.637C112.932 102.547 111.78 103.043 113.733 98.1797C113.812 97.983 113.899 97.7762 113.99 97.5564C114.174 97.1115 114.383 96.6268 114.623 96.0965C116.151 92.6844 117.516 91.5302 118.519 91.2471C118.544 91.2374 118.571 91.2309 118.597 91.2245C117.734 88.7753 116.941 87.7082 115.953 86.9914L115.954 86.9919ZM93.4935 106.359C93.4968 106.313 93.5032 106.274 93.5102 106.234C93.5693 105.862 93.7423 105.491 93.9691 105.136C94.0115 105.07 94.054 105.004 94.0991 104.938C94.1523 104.862 94.2055 104.789 94.2619 104.715C94.3001 104.662 94.3382 104.612 94.3796 104.562C94.3973 104.538 94.4129 104.518 94.4307 104.494C94.9153 103.886 95.4424 103.351 95.6466 102.966C96.0486 102.213 97.3924 102.534 98.509 101.887C99.5052 101.308 100.871 100.523 101.859 99.767C101.979 99.6762 102.093 99.5827 102.201 99.4935C102.249 99.451 102.32 99.4177 102.407 99.3968C102.727 99.3097 103.271 99.3366 103.948 99.436C104.283 99.4881 104.65 99.5563 105.033 99.638C105.055 99.6439 105.076 99.6504 105.098 99.6536C105.615 99.7713 106.059 99.9921 106.426 100.286C106.468 100.317 106.506 100.347 106.54 100.379C106.636 100.466 106.729 100.555 106.817 100.652C106.845 100.682 106.873 100.711 106.895 100.744C106.931 100.784 106.963 100.828 106.996 100.869C107.032 100.912 107.061 100.956 107.088 101.001C107.124 101.044 107.151 101.092 107.175 101.137C107.205 101.181 107.233 101.228 107.256 101.273C107.286 101.32 107.311 101.368 107.329 101.417C107.373 101.501 107.412 101.583 107.444 101.672C107.459 101.715 107.477 101.758 107.491 101.798C107.505 101.835 107.519 101.872 107.528 101.913C107.557 101.996 107.577 102.081 107.594 102.166C107.61 102.218 107.62 102.27 107.627 102.324C107.703 102.737 107.702 103.164 107.619 103.578C107.602 103.679 107.577 103.782 107.548 103.882C107.504 104.032 107.449 104.181 107.384 104.324C107.284 104.542 107.158 104.753 107.007 104.951C106.905 105.082 106.791 105.205 106.669 105.324C106.482 105.501 106.266 105.663 106.026 105.802C103.641 107.191 101.065 108.343 99.6385 108.899C98.7153 109.258 97.5386 109.471 96.2119 109.596C96.1523 109.601 96.0932 109.606 96.033 109.604C95.9556 109.609 95.8981 109.607 95.8406 109.603C95.7799 109.599 95.7192 109.595 95.6585 109.588C95.4784 109.566 95.3076 109.526 95.1432 109.464C95.0362 109.43 94.9347 109.386 94.8342 109.333C93.8632 108.833 93.2646 107.714 93.4699 106.521C93.4812 106.468 93.4887 106.413 93.4909 106.362C93.4935 106.362 93.4935 106.358 93.4935 106.358V106.359Z" fill="url(#paint2_linear_905_6030)"/>
<path d="M96.6509 109.889C97.9797 109.764 99.1543 109.551 100.079 109.192C101.505 108.637 104.082 107.485 106.467 106.094C108.793 104.738 108.564 101.471 106.427 100.286C108.144 101.648 108.183 104.545 106.028 105.802C103.642 107.192 101.066 108.345 99.639 108.899C98.7153 109.259 97.5402 109.472 96.2119 109.596C95.7041 109.644 95.2329 109.539 94.8256 109.327C95.3124 109.73 95.948 109.955 96.6514 109.889L96.6509 109.889Z" fill="#FCFE02"/>
<path d="M114.89 86.5314C114.9 86.5873 114.907 86.6405 114.914 86.6937C115.456 90.6522 114.859 93.6521 114.021 96.0379C113.737 96.8477 113.424 97.5897 113.121 98.2727C113.093 98.3334 113.067 98.3941 113.039 98.4548C112.986 98.573 112.929 98.6859 112.862 98.7939C112.157 99.9782 110.781 100.62 109.399 100.373C108.048 100.131 106.442 99.854 105.099 99.6531C105.078 99.6498 105.056 99.6439 105.034 99.6375C104.651 99.5558 104.284 99.4876 103.953 99.4349C103.272 99.3355 102.728 99.3086 102.409 99.3957C101.935 99.4462 101.463 99.6472 100.997 99.919C99.6793 100.679 98.3886 101.989 97.1275 102.018C96.1447 102.04 95.1915 103.194 94.4317 104.493C94.414 104.517 94.3984 104.537 94.3807 104.561C94.3393 104.611 94.3006 104.661 94.263 104.714C94.2066 104.788 94.1534 104.861 94.1002 104.937C94.055 105.003 94.0126 105.069 93.9701 105.135C93.7434 105.49 93.5704 105.861 93.5113 106.233C93.5043 106.272 93.4984 106.315 93.4946 106.355C93.3081 106.786 93.1545 107.167 93.0405 107.467C92.6762 108.438 91.5065 109.248 90.6537 109.73C90.2819 109.942 89.8574 110.049 89.4275 110.046C88.5522 110.041 87.6774 110.037 86.8188 110.046C85.5158 110.056 84.5319 110.252 83.7882 110.537C83.6399 110.595 83.5174 110.693 83.4282 110.816C83.2928 110.996 83.2342 111.235 83.2831 111.469C83.2853 111.484 83.2901 111.498 83.2917 111.51C83.3616 111.81 83.4615 112.022 83.6131 112.188C83.5507 112.173 83.4911 112.15 83.4352 112.116C83.1203 111.917 82.9468 111.648 82.8452 111.178C82.8135 111.029 82.8264 110.877 82.8748 110.741C82.9505 110.518 83.1214 110.333 83.3503 110.246C84.0934 109.959 85.0778 109.765 86.3803 109.752C87.2384 109.743 88.1138 109.747 88.9891 109.752C89.4195 109.755 89.8413 109.651 90.2158 109.439C91.068 108.954 92.2383 108.143 92.5999 107.176C93.1932 105.594 94.889 101.764 96.6863 101.724C97.6756 101.704 98.6831 100.892 99.7056 100.173C100.542 99.5875 101.389 99.0636 102.248 99.0851C102.731 99.0964 103.58 99.2001 104.582 99.3473C105.943 99.5488 107.582 99.8309 108.961 100.078C110.399 100.339 111.829 99.6321 112.502 98.3559C112.538 98.2909 112.569 98.227 112.599 98.1598C113.068 97.1179 113.561 95.9406 113.952 94.5817C114.596 92.3357 114.953 89.5899 114.436 86.1123C114.549 86.1693 114.658 86.2241 114.765 86.2794C115.194 86.5019 115.581 86.7184 115.943 86.9801C115.613 86.7802 115.258 86.5991 114.875 86.4062C114.88 86.4476 114.889 86.4884 114.892 86.5303L114.89 86.5314Z" fill="#FCFE02"/>
<path d="M102.568 80.4687C102.032 80.3897 101.768 80.343 101.084 80.2833C100.594 80.2404 100.392 80.5429 100.127 80.8217C99.9743 80.9819 99.8587 81.1748 99.8023 81.3886C99.6153 82.1006 99.6379 82.8271 100.18 83.3397C101.641 84.7239 100.37 85.3429 98.5079 87.1671C96.6455 88.9913 89.8638 88.8377 87.4963 88.5497C86.7414 88.4583 86.4856 87.9704 86.4856 87.3476C86.5184 87.1956 86.5313 87.0715 86.5076 87.0064C86.3964 86.6996 85.2616 87.418 85.1272 87.9618C85.016 88.4169 85.1525 88.8849 85.4695 89.2133C88.9514 92.8225 97.3935 89.5507 101.008 87.8877C104.206 86.4164 104.119 82.6933 103.984 81.4091C104.048 81.337 104.085 81.2575 104.088 81.1689C104.105 80.4526 103.104 80.5477 102.567 80.4687H102.568Z" fill="url(#paint3_linear_905_6030)"/>
<path d="M85.2369 87.7286C85.347 88.2106 85.6662 88.5631 86.3293 88.6437C89.0019 88.9682 96.6589 89.1423 98.761 87.0827C100.864 85.0231 102.298 84.3241 100.649 82.7615C100.09 82.2333 100.022 81.5042 100.175 80.7696C100.159 80.7868 100.143 80.804 100.127 80.8212C99.9743 80.9813 99.8587 81.1742 99.8023 81.3881C99.6153 82.1001 99.6379 82.8265 100.18 83.3391C101.641 84.7233 100.37 85.3423 98.5079 87.1666C96.6455 88.9908 89.8638 88.8371 87.4963 88.5491C86.7414 88.4578 86.4856 87.9699 86.4856 87.3471C86.5184 87.195 86.5313 87.0709 86.5077 87.0059C86.412 86.7415 85.5577 87.238 85.2363 87.7286H85.2369Z" fill="#FCFE02"/>
<path d="M109.682 83.7438C109.65 83.3902 109.662 83.1452 109.698 82.9813C109.194 82.4198 108.901 82.5009 108.545 82.4456C108.524 82.4423 108.503 82.4456 108.486 82.4536C108.416 82.4719 108.373 82.5498 108.398 82.6245C109.56 86.0677 108.574 88.4975 107.974 90.1396C107.897 90.3513 107.761 90.5733 107.575 90.7995C107.27 91.1761 106.801 91.3766 106.316 91.3508C104.951 91.2761 102.75 91.1315 101.919 90.9413C100.679 90.6549 96.7369 90.951 96.105 92.9886C95.4731 95.0256 91.5258 94.7215 90.1524 95.1287C89.7763 95.2389 89.6548 95.4802 89.6753 95.7687C89.7591 97.0169 88.8123 98.083 87.5662 97.9771C86.8553 97.918 86.0338 97.7955 85.0709 97.6042C82.8119 97.1583 82.5948 94.6323 82.8506 92.4555C82.871 92.3599 82.8968 92.2148 82.8984 92.0918C82.9097 92.0181 82.9183 91.9451 82.9296 91.8741C82.9151 91.8999 82.9038 91.9284 82.8893 91.9547C82.8743 91.8849 82.8383 91.8414 82.7716 91.8623C82.5164 91.9322 81.1075 94.0482 80.6991 95.2292C80.2935 96.4097 79.2097 102.888 80.9898 105.393C81.6739 101.661 84.8264 99.9121 86.0531 99.3527C86.5604 99.1201 87.2229 99.0384 87.9273 99.0056C88.2255 98.99 88.5286 98.9863 88.8349 98.9846C90.1223 98.9707 91.4135 98.9857 92.0976 98.4774C93.3291 97.5629 93.5698 97.6816 102.293 95.4748C111.017 93.268 110.098 86.3273 109.76 84.3434C109.721 84.114 109.695 83.9162 109.681 83.7438H109.682ZM90.7403 95.9165C90.8042 95.6285 91.2701 95.5129 91.5006 95.4404C92.4425 95.1562 93.4473 95.1164 94.4097 94.9412C95.8766 94.672 97.6095 94.1417 97.9996 93.1138C98.3892 92.0853 100.344 91.5259 101.24 91.483C101.246 91.4824 101.254 91.4808 101.261 91.483C102.936 91.4265 103.445 93.7483 101.907 94.4087C101.073 94.7655 100.284 95.0503 99.6315 95.2271C98.2624 95.6005 96.8368 95.6811 95.4344 95.8697C94.407 96.0089 93.3958 96.269 92.4205 96.6204C92.0046 96.7714 91.6333 97.0524 91.2088 96.7988C90.9219 96.6295 90.6634 96.2668 90.7403 95.917V95.9165Z" fill="url(#paint4_linear_905_6030)"/>
<path d="M91.3114 97.2958C91.7451 97.557 92.1239 97.269 92.5505 97.1137C93.5467 96.751 94.579 96.4845 95.6294 96.3426C97.062 96.1486 98.5192 96.068 99.919 95.6849C100.586 95.5022 101.393 95.2088 102.242 94.8429C103.463 94.3163 103.418 92.7581 102.538 92.1095C103.04 92.8327 102.915 93.9762 101.905 94.4082C101.075 94.7639 100.285 95.0487 99.632 95.2266C98.2618 95.5995 96.8363 95.6795 95.4349 95.8692C94.407 96.0084 93.3968 96.2674 92.4221 96.6199C92.0046 96.7708 91.6333 97.0503 91.2094 96.7977C91.0605 96.7091 90.9197 96.5683 90.8289 96.4049C90.7644 96.7585 91.0234 97.1223 91.3114 97.2958Z" fill="#FCFE02"/>
<path d="M82.6776 92.1847C82.7469 92.1654 82.7829 92.2094 82.799 92.283C82.8135 92.2551 82.8264 92.2266 82.8409 92.1987C82.8297 92.2723 82.82 92.3481 82.8098 92.4228C82.8071 92.5501 82.7818 92.6989 82.7614 92.7994C82.503 95.0455 82.7292 97.6542 85.0381 98.1201C86.0214 98.3184 86.8634 98.4452 87.5899 98.5091C88.8639 98.6209 89.8295 97.5215 89.7414 96.2319C89.7209 95.9321 89.8461 95.6844 90.2293 95.5699C90.6468 95.4452 91.298 95.3861 92.0229 95.3088C92.6693 95.1691 93.3356 95.1062 93.99 95.0089C95.0797 94.7532 96.0265 94.297 96.3108 93.3674C96.954 91.2643 100.983 90.9634 102.252 91.2616C103.1 91.4609 105.35 91.6135 106.747 91.6925C107.24 91.7205 107.722 91.512 108.033 91.1251C108.221 90.8903 108.36 90.6614 108.439 90.4427C109.049 88.7479 110.052 86.2391 108.863 82.682C108.834 82.5976 108.889 82.5149 108.968 82.4998C108.825 82.4698 108.69 82.4676 108.546 82.4445C108.445 82.4278 108.367 82.5289 108.4 82.6261C109.559 86.0683 108.574 88.4981 107.975 90.1402C107.897 90.3519 107.761 90.5738 107.576 90.8011C107.271 91.1761 106.8 91.3787 106.317 91.3524C104.951 91.2777 102.75 91.1332 101.92 90.9413C100.68 90.6549 96.7374 90.951 96.1055 92.9886C95.4736 95.0256 91.5264 94.7215 90.153 95.1288C89.7779 95.24 89.6554 95.4802 89.6747 95.7703C89.7591 97.0185 88.8134 98.0841 87.5673 97.9777C86.8564 97.917 86.0332 97.7955 85.0714 97.6048C82.8135 97.1572 82.5959 94.6312 82.8517 92.4566C82.8716 92.3593 82.8968 92.2148 82.8995 92.0918C82.9097 92.0192 82.9194 91.9456 82.9307 91.8747C82.9167 91.9015 82.9038 91.9295 82.8898 91.9563C82.8743 91.8849 82.8393 91.8419 82.7716 91.8612C82.518 91.9322 81.1075 94.0476 80.7007 95.2282C80.6717 95.3114 80.6395 95.4243 80.6051 95.5575C81.0602 94.3233 82.4272 92.2556 82.6792 92.1842L82.6776 92.1847Z" fill="#FCFE02"/>
<path style="mix-blend-mode:color-burn" opacity="0.35" d="M121.127 98.6912C121.149 98.8535 121.167 99.0136 121.185 99.1732C121.233 99.6026 121.266 100.031 121.283 100.456C121.289 100.521 121.292 100.59 121.295 100.656C121.353 102.319 121.207 103.949 120.88 105.519C120.822 105.803 120.757 106.085 120.685 106.362C118.699 114.198 112.118 120.419 103.618 121.544C103.441 121.568 103.263 121.588 103.085 121.605C102.987 121.615 102.889 121.625 102.791 121.632C102.78 121.636 102.771 121.638 102.759 121.636C99.4805 121.935 96.3005 121.431 93.422 120.279C93.2291 120.205 93.0384 120.129 92.8503 120.045C91.0809 119.279 89.4345 118.261 87.9627 117.041C87.9187 117.005 87.8752 116.969 87.8306 116.929C87.6484 116.779 87.4749 116.625 87.3008 116.47C87.1879 116.368 87.0751 116.263 86.9649 116.157C86.6318 115.841 86.3115 115.51 86.0026 115.176C86.0498 115.193 86.095 115.214 86.1423 115.232C89.2712 116.483 92.7557 116.971 96.3381 116.497C104.838 115.372 111.419 109.151 113.405 101.315C113.477 101.038 113.542 100.756 113.6 100.472C113.678 100.101 113.746 99.7283 113.798 99.3522C113.862 98.9529 113.908 98.5505 113.944 98.1459C113.964 97.9508 113.977 97.7541 113.989 97.5569C114.019 97.054 114.03 96.5478 114.02 96.0384C114.021 96.0024 114.022 95.9632 114.017 95.9245C114.019 95.8219 114.017 95.7171 114.012 95.6129C113.999 95.269 113.978 94.9262 113.95 94.5844C113.936 94.4329 113.922 94.2787 113.905 94.1277C113.886 93.9676 113.868 93.808 113.847 93.6457C113.513 91.1235 112.732 88.7683 111.587 86.6572C111.502 86.4938 111.412 86.3374 111.322 86.1784C111.092 85.7759 110.847 85.3821 110.589 84.9952C110.338 84.6196 110.073 84.2553 109.8 83.8974C109.797 83.892 109.79 83.884 109.786 83.8781C109.75 83.8346 109.717 83.7878 109.681 83.7448C109.566 83.5976 109.447 83.4514 109.326 83.308C109.101 83.0372 108.868 82.7739 108.629 82.5138C108.829 82.5982 109.029 82.6771 109.227 82.7653C109.383 82.8346 109.54 82.9071 109.698 82.9823C109.958 83.107 110.215 83.2354 110.471 83.373C111.896 84.1253 113.226 85.0489 114.434 86.115C114.588 86.2509 114.741 86.3901 114.89 86.5325C115.675 87.2697 116.403 88.0693 117.066 88.9247C117.07 88.9301 117.077 88.9381 117.081 88.944C117.446 89.4201 117.785 89.9155 118.107 90.4239C118.098 90.4083 118.089 90.3884 118.078 90.369C118.168 90.5071 118.259 90.6517 118.344 90.7935C118.435 90.9349 118.52 91.0799 118.602 91.225C118.693 91.3846 118.782 91.541 118.867 91.7038C119.615 93.0863 120.209 94.5704 120.621 96.1416C120.842 96.9691 121.011 97.8208 121.127 98.6923L121.127 98.6912Z" fill="url(#paint5_linear_905_6030)"/>
<g style="mix-blend-mode:overlay" opacity="0.5">
<path d="M120.621 96.1411C120.483 96.2286 120.334 96.3114 120.185 96.3882C118.646 97.1991 116.624 97.7042 114.306 98.0862C114.189 98.1077 114.068 98.1265 113.944 98.1458C113.874 98.1582 113.804 98.1706 113.733 98.1797C113.533 98.2119 113.326 98.2426 113.12 98.2727L113.094 98.2764C112.899 98.3054 112.702 98.3312 112.501 98.3581C110.048 98.6977 107.346 98.9653 104.581 99.3495C104.371 99.3774 104.162 99.408 103.952 99.436C103.254 99.5375 102.559 99.6477 101.859 99.767C101.571 99.8169 101.283 99.8675 100.996 99.9201C100.565 100.001 100.134 100.085 99.704 100.175C98.1748 100.495 96.6574 100.885 95.1867 101.375C86.7205 104.184 87.0456 108.866 81.4826 107.345C81.3961 107.053 81.3122 106.76 81.2365 106.461C81.1446 106.11 81.0618 105.754 80.9898 105.394C79.2097 102.889 80.2935 96.4103 80.6991 95.2297C81.1075 94.0487 82.5164 91.9327 82.7716 91.8628C82.8383 91.8419 82.8737 91.8854 82.8893 91.9552C82.9038 91.9295 82.9151 91.901 82.9296 91.8747C83.4202 90.9504 83.9742 90.0714 84.5969 89.2374C84.7291 89.0547 84.8672 88.8742 85.0091 88.6958C85.0558 88.6383 85.0993 88.5819 85.1461 88.5276C85.5695 88.0026 86.0176 87.5045 86.4921 87.0274C89.5538 83.935 93.6257 81.7975 98.2742 81.1823C98.8207 81.1097 99.3639 81.0592 99.9044 81.0324C99.9641 81.0302 100.021 81.0259 100.081 81.027C101.389 80.9652 102.682 81.0345 103.945 81.2215C104.175 81.2543 104.402 81.293 104.627 81.3354C105.896 81.567 107.13 81.9206 108.312 82.3832C108.372 82.4053 108.429 82.4278 108.487 82.4531C108.504 82.445 108.524 82.4423 108.546 82.445C108.902 82.4998 109.194 82.4192 109.698 82.9807C109.958 83.1054 110.216 83.2338 110.472 83.3714C111.897 84.1236 113.227 85.0473 114.435 86.1134C114.548 86.1703 114.657 86.2251 114.764 86.2805C115.193 86.5029 115.579 86.7195 115.942 86.9812C116.943 87.7082 117.736 88.7753 118.604 91.2239C118.694 91.3835 118.784 91.5399 118.869 91.7027C119.617 93.0853 120.21 94.5694 120.622 96.1405L120.621 96.1411Z" fill="#FFF7F5"/>
</g>
<path style="mix-blend-mode:color-dodge" opacity="0.5" d="M111.057 104.53C113.426 102.161 113.426 98.3197 111.057 95.9506C108.688 93.5815 104.847 93.5815 102.478 95.9506C100.108 98.3197 100.108 102.161 102.478 104.53C104.847 106.899 108.688 106.899 111.057 104.53Z" fill="url(#paint6_radial_905_6030)"/>
<path style="mix-blend-mode:color-dodge" opacity="0.5" d="M94.7074 116.83C94.932 118.527 93.738 120.086 92.0411 120.31C90.3437 120.535 88.7854 119.341 88.5608 117.644C88.3362 115.947 89.5302 114.388 91.2271 114.164C92.9245 113.939 94.4828 115.133 94.7074 116.83Z" fill="url(#paint7_radial_905_6030)"/>
</g>
<defs>
<filter id="filter0_d_905_6030" x="0" y="0.279236" width="202" height="201.441" filterUnits="userSpaceOnUse" color-interpolation-filters="sRGB">
<feFlood flood-opacity="0" result="BackgroundImageFix"/>
<feColorMatrix in="SourceAlpha" type="matrix" values="0 0 0 0 0 0 0 0 0 0 0 0 0 0 0 0 0 0 127 0" result="hardAlpha"/>
<feOffset/>
<feGaussianBlur stdDeviation="40"/>
<feComposite in2="hardAlpha" operator="out"/>
<feColorMatrix type="matrix" values="0 0 0 0 0.894118 0 0 0 0 0.152941 0 0 0 0 0.52549 0 0 0 1 0"/>
<feBlend mode="normal" in2="BackgroundImageFix" result="effect1_dropShadow_905_6030"/>
<feBlend mode="normal" in="SourceGraphic" in2="effect1_dropShadow_905_6030" result="shape"/>
</filter>
<linearGradient id="paint0_linear_905_6030" x1="79.6894" y1="97.6566" x2="119.81" y2="104.649" gradientUnits="userSpaceOnUse">
<stop stop-color="#FF5F06"/>
<stop offset="0.02" stop-color="#FC5C09"/>
<stop offset="0.34" stop-color="#DE343C"/>
<stop offset="0.62" stop-color="#C81761"/>
<stop offset="0.85" stop-color="#BA0677"/>
<stop offset="0.99" stop-color="#B60080"/>
</linearGradient>
<linearGradient id="paint1_linear_905_6030" x1="86.6935" y1="112.298" x2="122.744" y2="107.526" gradientUnits="userSpaceOnUse">
<stop stop-color="#FFBB2F"/>
<stop offset="0.1" stop-color="#FFC625"/>
<stop offset="0.33" stop-color="#FFDC12"/>
<stop offset="0.48" stop-color="#FFE50C"/>
<stop offset="0.55" stop-color="#FFBF0C"/>
<stop offset="0.64" stop-color="#FF9B0C"/>
<stop offset="0.73" stop-color="#FF7F0C"/>
<stop offset="0.81" stop-color="#FF6B0C"/>
<stop offset="0.9" stop-color="#FF5F0C"/>
<stop offset="0.98" stop-color="#FF5C0C"/>
</linearGradient>
<linearGradient id="paint2_linear_905_6030" x1="81.5821" y1="101.67" x2="119.316" y2="96.6751" gradientUnits="userSpaceOnUse">
<stop stop-color="#FFBB2F"/>
<stop offset="0.1" stop-color="#FFC625"/>
<stop offset="0.33" stop-color="#FFDC12"/>
<stop offset="0.48" stop-color="#FFE50C"/>
<stop offset="0.55" stop-color="#FFBF0C"/>
<stop offset="0.64" stop-color="#FF9B0C"/>
<stop offset="0.73" stop-color="#FF7F0C"/>
<stop offset="0.81" stop-color="#FF6B0C"/>
<stop offset="0.9" stop-color="#FF5F0C"/>
<stop offset="0.98" stop-color="#FF5C0C"/>
</linearGradient>
<linearGradient id="paint3_linear_905_6030" x1="84.9114" y1="87.0281" x2="104.526" y2="84.4318" gradientUnits="userSpaceOnUse">
<stop stop-color="#FFBB2F"/>
<stop offset="0.1" stop-color="#FFC625"/>
<stop offset="0.33" stop-color="#FFDC12"/>
<stop offset="0.48" stop-color="#FFE50C"/>
<stop offset="0.52" stop-color="#FFDE11"/>
<stop offset="0.68" stop-color="#FFCA21"/>
<stop offset="0.84" stop-color="#FFBE2B"/>
<stop offset="1" stop-color="#FFBB2F"/>
</linearGradient>
<linearGradient id="paint4_linear_905_6030" x1="79.2164" y1="95.9751" x2="110.861" y2="91.7865" gradientUnits="userSpaceOnUse">
<stop stop-color="#FFBB2F"/>
<stop offset="0.1" stop-color="#FFC625"/>
<stop offset="0.33" stop-color="#FFDC12"/>
<stop offset="0.48" stop-color="#FFE50C"/>
<stop offset="0.55" stop-color="#FFBF0C"/>
<stop offset="0.64" stop-color="#FF9B0C"/>
<stop offset="0.73" stop-color="#FF7F0C"/>
<stop offset="0.81" stop-color="#FF6B0C"/>
<stop offset="0.9" stop-color="#FF5F0C"/>
<stop offset="0.98" stop-color="#FF5C0C"/>
</linearGradient>
<linearGradient id="paint5_linear_905_6030" x1="103.653" y1="121.719" x2="103.653" y2="82.5121" gradientUnits="userSpaceOnUse">
<stop stop-color="#1C0067"/>
<stop offset="0.1" stop-color="#1C007F"/>
<stop offset="0.29" stop-color="#1C00A4"/>
<stop offset="0.47" stop-color="#1C00C2"/>
<stop offset="0.65" stop-color="#1C00D7"/>
<stop offset="0.83" stop-color="#1C00E3"/>
<stop offset="1" stop-color="#1C00E8"/>
</linearGradient>
<radialGradient id="paint6_radial_905_6030" cx="0" cy="0" r="1" gradientUnits="userSpaceOnUse" gradientTransform="translate(106.765 100.239) rotate(-7.54) scale(6.06594)">
<stop stop-color="white"/>
<stop offset="0.12" stop-color="#E7E7E7"/>
<stop offset="0.37" stop-color="#ACACAC"/>
<stop offset="0.72" stop-color="#4D4D4D"/>
<stop offset="1"/>
</radialGradient>
<radialGradient id="paint7_radial_905_6030" cx="0" cy="0" r="1" gradientUnits="userSpaceOnUse" gradientTransform="translate(91.6334 117.235) rotate(-7.54) scale(3.09987)">
<stop stop-color="white"/>
<stop offset="0.12" stop-color="#E7E7E7"/>
<stop offset="0.37" stop-color="#ACACAC"/>
<stop offset="0.72" stop-color="#4D4D4D"/>
<stop offset="1"/>
</radialGradient>
</defs>
</svg>
