<svg width="202" height="202" viewBox="0 0 202 202" fill="none" xmlns="http://www.w3.org/2000/svg">
<g filter="url(#filter0_d_905_5830)">
<path fill-rule="evenodd" clip-rule="evenodd" d="M121.931 100.463C121.931 102.406 121.657 104.288 121.141 106.063C120.117 109.636 118.132 112.799 115.481 115.266C113.586 117.033 111.349 118.438 108.886 119.372C106.654 120.222 104.238 120.683 101.707 120.683C101.348 120.683 100.985 120.675 100.631 120.653H100.627C100.097 120.628 99.5723 120.576 99.0561 120.512C95.1506 120 91.6037 118.378 88.7266 115.962C87.6467 115.062 86.6651 114.046 85.7986 112.935C85.1412 112.103 84.5479 111.22 84.0269 110.285C83.903 110.063 83.7839 109.837 83.6642 109.61C83.6642 109.602 83.66 109.597 83.6559 109.589C83.532 109.346 83.417 109.102 83.3062 108.855H83.302C82.9523 108.082 82.6447 107.284 82.3969 106.464C82.209 105.875 82.0514 105.269 81.9233 104.654C81.9192 104.65 81.9192 104.641 81.9192 104.637C81.8297 104.206 81.7526 103.771 81.6928 103.331C81.5564 102.392 81.4877 101.436 81.4877 100.463C81.4877 99.9038 81.509 99.3443 81.56 98.7978C81.5855 98.4475 81.624 98.1019 81.6708 97.7563C81.931 95.7672 82.4858 93.8722 83.2884 92.1094C83.6814 91.2429 84.1336 90.4107 84.6416 89.6123C85.4868 88.2804 86.4855 87.06 87.6123 85.9629C91.2534 82.4207 96.2264 80.2395 101.707 80.2395C101.92 80.2395 102.134 80.2437 102.343 80.2478C102.569 80.2561 102.795 80.265 103.021 80.2822C104.183 80.3592 105.318 80.5299 106.415 80.7943C107.055 80.9478 107.683 81.1274 108.297 81.3408C108.716 81.4819 109.125 81.6395 109.531 81.8102C109.834 81.9383 110.128 82.0704 110.423 82.2115C110.474 82.237 110.525 82.2583 110.576 82.2838C112.54 83.244 114.32 84.5077 115.865 86.0227C116.086 86.2361 116.3 86.4584 116.514 86.6842C116.655 86.8377 116.795 86.996 116.932 87.1537C117.167 87.418 117.393 87.696 117.615 87.9734C118.422 88.9976 119.13 90.0989 119.723 91.2684C120.419 92.6257 120.966 94.0726 121.337 95.5882C121.725 97.1506 121.93 98.7812 121.93 100.463L121.931 100.463Z" fill="url(#paint0_radial_905_5830)"/>
<g style="mix-blend-mode:multiply" opacity="0.4">
<path fill-rule="evenodd" clip-rule="evenodd" d="M86.5721 91.413C86.188 92.1989 85.894 92.8403 85.8176 93.6991C85.7618 94.328 85.6552 94.9409 85.7174 95.5769C85.7826 96.2425 86.0446 96.821 86.2455 97.4493C86.4844 98.1967 86.872 98.9003 87.4351 99.4575C88.4024 100.415 89.7699 100.434 90.9168 99.8024C91.503 99.48 91.9908 99.0467 92.6102 98.7705C93.4625 98.3906 94.2663 98.0326 94.8578 97.2727C95.5027 96.4446 95.7445 95.4714 95.8512 94.4377C95.9147 93.8195 96 93.2416 95.8631 92.6245C95.7552 92.1391 95.5549 91.6406 95.3083 91.2091C95.1198 90.8795 94.9023 90.5464 94.667 90.2471C94.325 89.812 93.9563 89.6627 93.4702 89.4416C93.1715 89.3058 92.935 89.1511 92.5942 89.1393C92.219 89.1263 91.7922 89.1209 91.4212 89.1654C90.9755 89.2187 90.5807 89.3853 90.1611 89.5269C89.7616 89.6615 89.3455 89.7433 88.9555 89.9069C88.5637 90.0711 88.1914 90.192 87.7819 90.3093C87.2632 90.4581 86.8448 90.601 86.4536 90.9886C86.3617 91.0799 86.2082 91.1978 86.1329 91.3016C85.9859 91.5031 86.0333 91.7182 86.5721 91.4148V91.413Z" fill="#B9BFE2"/>
<path fill-rule="evenodd" clip-rule="evenodd" d="M93.9047 100.04C94.0155 99.6667 94.0914 98.9554 94.4506 98.6828C94.5952 98.5731 94.8062 98.4854 94.9822 98.4439C95.275 98.3752 95.4813 98.4694 95.7368 98.6081C96.3781 98.9566 96.2584 99.9459 95.9027 100.471C95.5969 100.923 94.8264 101.325 94.3344 100.956C93.9888 100.697 93.8027 100.162 93.9224 99.7337C93.9521 99.7278 93.9823 99.7212 94.0119 99.7153L93.9041 100.039L93.9047 100.04Z" fill="#B9BFE2"/>
<path fill-rule="evenodd" clip-rule="evenodd" d="M106.09 106.186C106.053 106.584 105.938 107.197 106.002 107.637C106.063 108.056 106.142 108.473 106.247 108.884C106.434 109.61 106.701 110.456 107.488 110.733C108.186 110.979 109.022 110.741 109.681 110.475C110.384 110.19 111.173 109.964 111.808 109.54C112.442 109.117 113.062 108.585 113.535 107.993C114.054 107.343 114.272 106.765 114.292 105.915C114.319 104.714 113.824 103.658 113.21 102.652C112.53 101.542 111.275 101.217 110.073 101.651C109.067 102.013 108.549 103.097 107.814 103.817C107.584 104.043 107.414 104.297 107.169 104.488C106.889 104.706 106.782 104.933 106.607 105.222C106.466 105.452 106.278 105.595 106.17 105.858C106.034 106.19 106.091 106.586 106.091 106.187L106.09 106.186Z" fill="#B9BFE2"/>
<path fill-rule="evenodd" clip-rule="evenodd" d="M115.363 105.539C115.431 105.442 115.903 104.404 116.331 104.451C116.537 104.473 116.699 104.701 116.797 104.868C116.956 105.137 117.083 105.387 116.874 105.693C116.606 106.084 115.518 106.374 115.45 105.668C115.421 105.661 115.392 105.654 115.363 105.647V105.539V105.539Z" fill="#B9BFE2"/>
<path fill-rule="evenodd" clip-rule="evenodd" d="M98.9138 83.9618C98.9814 83.8652 99.4538 82.8268 99.8817 82.8736C100.087 82.8961 100.249 83.1243 100.348 83.2909C100.507 83.56 100.633 83.8101 100.425 84.1159C100.157 84.5071 99.0685 84.797 99.0009 84.091C98.9719 84.0839 98.9429 84.0774 98.9138 84.0703V83.9624V83.9618Z" fill="#B9BFE2"/>
<path fill-rule="evenodd" clip-rule="evenodd" d="M110.137 99.2026C110.205 99.106 110.677 98.0675 111.105 98.1144C111.311 98.1369 111.472 98.3651 111.571 98.5316C111.73 98.8007 111.857 99.0509 111.648 99.3567C111.38 99.7479 110.292 100.038 110.224 99.3318C110.195 99.3247 110.166 99.3176 110.137 99.3111V99.2032V99.2026Z" fill="#B9BFE2"/>
<path fill-rule="evenodd" clip-rule="evenodd" d="M107.384 94.2166C107.142 94.8662 106.846 95.2669 107.045 95.8822C107.141 96.1809 107.184 96.4933 107.269 96.7944C107.435 97.3818 107.893 97.7398 108.304 98.157C108.848 98.7083 109.332 98.879 110.061 98.5293C110.301 98.4149 110.515 98.2536 110.727 98.0978C111.052 97.8583 111.184 97.6989 111.376 97.3403C111.545 97.0231 111.593 96.7274 111.722 96.3972C111.859 96.041 112.013 95.7583 112.025 95.3629C112.036 94.983 112.064 94.5693 111.963 94.2041C111.832 93.7347 111.583 93.3228 111.33 92.9144C111.108 92.5552 110.845 92.2108 110.511 91.9417C110.234 91.7177 109.879 91.7224 109.539 91.6501C108.95 91.5256 108.098 92.0022 107.784 92.4858C107.344 93.1645 107.107 93.9552 107.385 94.2166H107.384Z" fill="#B9BFE2"/>
<path fill-rule="evenodd" clip-rule="evenodd" d="M105.982 98.0983C106.04 98.5613 106.188 98.9862 106.429 99.3727C106.502 99.3099 106.622 99.2779 106.718 99.2654C106.722 99.1303 106.824 99.0829 106.85 98.9661C106.878 98.8375 106.842 98.6626 106.844 98.5298C106.847 98.288 106.763 98.096 106.684 97.8814C106.618 97.7036 106.527 97.4031 106.302 97.444C105.875 97.5216 105.916 97.8731 105.981 98.0983H105.982Z" fill="#B9BFE2"/>
<path fill-rule="evenodd" clip-rule="evenodd" d="M85.763 111.038C85.7926 111.406 85.776 111.714 85.9787 112.024C86.1803 112.333 86.4304 112.612 86.6847 112.879C86.856 113.058 87.1719 113.437 87.4635 113.274C87.7024 113.141 87.7824 112.662 87.7575 112.42C87.7374 112.226 87.6662 112.01 87.6188 111.819C87.5637 111.596 87.4712 111.383 87.3402 111.195C87.1168 110.874 86.5934 110.277 86.1412 110.565C86.0119 110.648 85.8804 110.709 85.811 110.843C85.7452 110.97 85.7636 111.105 85.7636 111.038H85.763Z" fill="#B9BFE2"/>
<path fill-rule="evenodd" clip-rule="evenodd" d="M95.9141 109.421C95.8417 109.231 95.7914 109.037 95.7617 108.837C95.7315 108.775 95.7422 108.722 95.7943 108.677C95.8654 108.465 95.9348 108.254 96.0439 108.056C96.2401 107.703 96.4724 107.31 96.828 107.095C96.9584 107.016 97.0942 106.996 97.24 106.96C97.3882 106.925 97.5346 106.867 97.6851 106.841C97.943 106.796 98.2316 106.852 98.4806 106.918C98.7591 106.992 99.1023 107.078 99.3542 107.219C99.5955 107.354 99.7431 107.592 99.8907 107.817C100.194 108.279 100.322 108.935 99.899 109.383C99.7822 109.507 99.634 109.601 99.4941 109.697C99.3459 109.798 99.2049 109.926 99.046 110.011C98.8558 110.112 98.6033 110.133 98.394 110.176C97.9898 110.259 97.5618 110.252 97.1641 110.136C96.7439 110.014 96.4392 109.723 95.9135 109.42L95.9141 109.421Z" fill="#B9BFE2"/>
</g>
<path fill-rule="evenodd" clip-rule="evenodd" d="M113.463 93.2747C113.463 93.2747 112.375 95.2438 112.954 98.7663C114.244 106.606 118.554 105.408 118.276 101.769L113.463 93.2747Z" fill="url(#paint1_linear_905_5830)"/>
<path style="mix-blend-mode:screen" fill-rule="evenodd" clip-rule="evenodd" d="M107.855 113.21C107.487 116.21 103.956 118.246 99.9671 117.757C95.9786 117.268 93.0435 114.44 93.4115 111.439C93.7796 108.439 97.3111 106.403 101.3 106.892C105.288 107.381 108.223 110.21 107.855 113.21Z" fill="url(#paint2_radial_905_5830)"/>
<path fill-rule="evenodd" clip-rule="evenodd" d="M110.576 82.2856C110.509 82.2927 110.442 82.2998 110.376 82.3135C110.148 82.3555 109.969 82.3348 109.745 82.2714C109.583 82.2257 109.467 82.1593 109.295 82.1309C109.05 82.0924 108.822 81.9869 108.576 81.9554C108.317 81.9205 108.092 81.8185 107.847 81.7308C107.654 81.6609 107.552 81.6852 107.366 81.7308C107.18 81.78 107.05 81.7029 106.885 81.6324C106.699 81.5518 106.514 81.5376 106.317 81.4991C105.805 81.3935 105.296 81.2288 104.788 81.099C104.472 81.0183 104.181 81.0183 103.858 81.0148C103.606 81.0112 103.378 81.0847 103.125 81.0847C102.957 81.0847 102.813 81.0569 102.644 81.032C102.473 81.0006 102.297 81.0355 102.125 81.0112C101.869 80.9727 101.732 80.9342 101.473 81.0148C101.28 81.0776 101.129 81.0711 100.936 81.0812C100.722 81.0918 100.48 81.1476 100.27 81.1968C99.8912 81.2845 99.4775 81.3544 99.0881 81.3473C98.8498 81.3473 98.4989 81.2809 98.2707 81.3615C98.1231 81.4143 98.0496 81.572 97.9482 81.6775C97.752 81.8808 97.5096 82.0633 97.3448 82.2915C97.1801 82.5197 96.9939 82.7544 97.0082 83.0419C97.0224 83.2909 97.138 83.5819 97.2465 83.8101C97.3585 84.0519 97.397 84.273 97.1481 84.4342C96.8357 84.6411 96.4747 84.8308 96.1167 84.9321C95.8784 85.0021 95.6645 85.0441 95.4641 84.8723C95.3906 84.8088 95.345 84.6861 95.2537 84.6375C95.1589 84.5883 95.0611 84.6375 94.9591 84.669C94.7066 84.7424 94.4612 84.8266 94.2052 84.8687C94.0475 84.893 93.9106 84.9772 93.7565 85.0056C93.5704 85.0406 93.437 84.9037 93.2444 84.9493C92.9741 85.0127 92.7044 85.1248 92.4234 85.139C92.2237 85.1497 91.9712 85.0619 91.8023 84.96C91.7039 84.9037 91.6796 84.848 91.5675 84.8794C91.4763 84.9007 91.3393 85.0127 91.2901 85.0827C91.2238 85.1775 91.1989 85.3002 91.1325 85.3986C91.0625 85.5071 90.9956 85.6126 90.9327 85.7282C90.8171 85.9528 90.6802 86.1632 90.5326 86.363C90.4271 86.5034 90.3536 86.6925 90.2381 86.8223C90.1782 86.8923 90.0484 86.9415 89.9713 86.9942C89.7609 87.1418 89.5398 87.2746 89.3365 87.4328C88.9435 87.7416 88.5719 88.0819 88.1718 88.38C87.8666 88.6082 87.4386 88.7416 87.0913 88.885C86.8737 88.9727 86.6491 89.0362 86.4316 89.1268C86.3616 89.1547 86.2318 89.1867 86.172 89.2389C86.0949 89.3053 86.0528 89.4285 85.9823 89.5192C85.7926 89.751 85.5929 89.9821 85.4494 90.2489C85.3617 90.403 85.3089 90.5612 85.2532 90.7296C85.1762 90.9578 85.0535 91.1682 84.9758 91.3958C84.8182 91.8729 84.7862 92.3708 84.6113 92.8444C84.5094 93.1218 84.3624 93.3743 84.2361 93.6268C84.0186 94.0548 83.9872 94.5633 83.9237 95.0369C83.8888 95.3143 83.9024 95.6332 83.9516 95.9035C84.0044 96.1945 83.9901 96.4962 83.9866 96.7944C83.983 97.1103 83.7833 97.4185 83.5829 97.6574C83.4004 97.8785 83.1236 97.9626 82.9203 98.1588C82.7484 98.3271 82.5415 98.5204 82.468 98.7586C82.4366 98.8642 82.4644 98.9833 82.4473 99.0953C82.4016 99.3443 82.3388 99.5796 82.3032 99.8321C82.2647 100.144 82.2576 100.439 82.2576 100.754C82.2576 100.912 82.2469 101.074 82.254 101.232C82.2611 101.382 82.3169 101.523 82.3275 101.674C82.3346 101.779 82.3133 101.884 82.3275 101.99C82.3483 102.109 82.3939 102.231 82.4224 102.348C82.4923 102.628 82.5451 102.902 82.5978 103.182C82.647 103.442 82.7484 103.698 82.8296 103.95C82.9416 104.294 83.0157 104.649 83.0821 105.006C83.1348 105.273 83.1313 105.55 83.1698 105.82C83.2012 106.037 83.2504 106.258 83.2611 106.476C83.2717 106.806 83.1911 107.136 83.1876 107.469C83.184 108.03 83.4087 108.591 83.5385 109.131C83.577 109.282 83.6155 109.437 83.6576 109.587C82.2688 106.844 81.4865 103.743 81.4865 100.46C81.4865 96.4684 82.644 92.7472 84.6398 89.6111C85.4885 88.2781 86.4849 87.0576 87.6105 85.9629C91.2552 82.4225 96.2258 80.2407 101.708 80.2407C102.15 80.2407 102.585 80.2549 103.02 80.2828C105.717 80.4547 108.271 81.1565 110.575 82.2856H110.576Z" fill="url(#paint3_linear_905_5830)"/>
<path style="mix-blend-mode:screen" fill-rule="evenodd" clip-rule="evenodd" d="M112.485 93.2949C111.829 94.4329 109.503 94.3203 107.293 93.0436C105.082 91.7668 103.822 89.8096 104.479 88.6716C105.136 87.5336 107.461 87.6462 109.672 88.9229C111.883 90.1997 113.143 92.1568 112.485 93.2949Z" fill="url(#paint4_radial_905_5830)"/>
<path fill-rule="evenodd" clip-rule="evenodd" d="M116.984 107.504C116.984 107.504 114.965 107.533 113.324 109.589C111.684 111.644 111.698 113.464 111.934 114.075C112.17 114.685 116.984 107.504 116.984 107.504Z" fill="url(#paint5_radial_905_5830)"/>
<path style="mix-blend-mode:screen" fill-rule="evenodd" clip-rule="evenodd" d="M115.067 103.321C112.739 103.635 110.553 101.678 110.185 98.9495C109.818 96.2212 111.407 93.7554 113.736 93.4413C116.064 93.1277 118.25 95.0849 118.617 97.8132C118.985 100.542 117.395 103.007 115.067 103.321V103.321Z" fill="url(#paint6_radial_905_5830)"/>
<path style="mix-blend-mode:screen" fill-rule="evenodd" clip-rule="evenodd" d="M89.7165 116.256C87.6259 114.506 85.8934 112.338 84.6481 109.882C83.8657 108.339 83.2765 106.683 82.912 104.947C82.9084 104.944 82.9084 104.937 82.9084 104.93C82.6281 103.582 82.4769 102.186 82.4769 100.756C82.4769 96.7635 83.6345 93.0424 85.6302 89.9063C86.479 88.5732 87.4754 87.3528 88.601 86.258C92.2456 82.7159 97.2156 80.5341 102.698 80.5341C103.141 80.5341 103.575 80.5483 104.01 80.5762C105.381 80.6639 106.714 80.8909 107.996 81.2388C106.416 80.7208 104.748 80.3936 103.02 80.2828C102.585 80.2549 102.15 80.2407 101.709 80.2407C96.2258 80.2407 91.2558 82.4225 87.6111 85.9652C86.4849 87.0594 85.4891 88.2804 84.6404 89.6135C82.6447 92.7496 81.4871 96.4707 81.4871 100.463C81.4871 101.894 81.6376 103.29 81.9186 104.637C81.9186 104.644 81.9186 104.651 81.9221 104.654C82.2866 106.391 82.8764 108.047 83.6582 109.59C84.9035 112.045 86.6361 114.213 88.7266 115.963C90.9422 117.822 93.5579 119.21 96.4267 119.985C93.945 119.175 91.6748 117.9 89.7165 116.257V116.256Z" fill="url(#paint7_radial_905_5830)"/>
<path fill-rule="evenodd" clip-rule="evenodd" d="M115.109 115.602C115.109 115.602 112.808 116.16 112.037 114.435C111.266 112.71 114.202 108.181 116.562 107.588C118.922 106.995 119.379 109.769 119.379 109.769L115.109 115.602V115.602Z" fill="#004A59"/>
<path fill-rule="evenodd" clip-rule="evenodd" d="M101.171 83.9215C101.171 83.9215 102.117 87.1056 105.497 89.502C110.947 93.3672 113.199 91.9749 113.199 91.9749L101.171 83.9215Z" fill="url(#paint8_radial_905_5830)"/>
<path fill-rule="evenodd" clip-rule="evenodd" d="M108.583 119.189C108.583 119.189 110.927 117.959 110.976 116.287C111.025 114.616 107.438 112.332 100.442 111.325C94.0351 110.403 89.135 111.812 88.812 113.052C88.4883 114.292 90.1598 117.312 93.5568 118.821C96.9537 120.331 106.843 120.042 108.584 119.189L108.583 119.189Z" fill="#004A59"/>
<path fill-rule="evenodd" clip-rule="evenodd" d="M97.3799 89.7504C97.3799 89.7504 98.806 92.0057 101.019 92.2013C103.232 92.3969 103.887 90.662 103.887 90.662C103.887 90.662 98.8463 90.6223 97.3799 89.7504Z" fill="url(#paint9_radial_905_5830)"/>
<path fill-rule="evenodd" clip-rule="evenodd" d="M96.4415 87.9639C96.4415 87.9639 97.2121 90.8641 100.214 91.6305C103.516 92.4739 104.484 90.3123 104.005 89.1292C103.527 87.9461 99.6251 86.1324 96.4415 87.9639Z" fill="#00777A"/>
<path fill-rule="evenodd" clip-rule="evenodd" d="M89.9713 86.9966C89.9713 86.9966 92.0518 87.3824 95.1144 85.5628C98.177 83.7431 97.544 82.0651 97.544 82.0651L89.9713 86.996V86.9966Z" fill="url(#paint10_radial_905_5830)"/>
<path fill-rule="evenodd" clip-rule="evenodd" d="M89.2447 85.66C89.2447 85.66 88.4647 86.7316 89.9714 86.9966C91.4781 87.2615 96.572 84.762 97.5114 82.8724C98.4515 80.9822 93.5123 79.9218 89.2441 85.6606L89.2447 85.66Z" fill="#00777A"/>
<path fill-rule="evenodd" clip-rule="evenodd" d="M102.747 81.7326C102.747 81.7326 100.744 82.0775 100.636 83.1184C100.528 84.1592 103.807 88.319 107.376 90.5215C110.944 92.7241 114.438 91.9808 114.978 91.4402C115.517 90.8991 110.314 82.2743 102.748 81.7332L102.747 81.7326Z" fill="#006D7A"/>
<path fill-rule="evenodd" clip-rule="evenodd" d="M116.746 93.6298C116.746 93.6298 114.837 91.6299 113.324 92.3803C112.079 92.9973 112.614 99.1083 113.907 101.439C115.201 103.77 116.873 103.559 117.52 103.044C118.167 102.529 118.311 95.6978 116.746 93.6292V93.6298Z" fill="#004A59"/>
<path fill-rule="evenodd" clip-rule="evenodd" d="M116.617 89.1292C116.617 89.1292 116.035 88.9431 115.645 89.5038C115.256 90.0645 117.952 93.9042 119.084 94.3571C120.216 94.8093 120.443 93.1846 120.443 93.1846L116.617 89.1286V89.1292Z" fill="#004A59"/>
<path fill-rule="evenodd" clip-rule="evenodd" d="M102.154 83.0555C101.253 84.5836 109.376 93.2646 114.285 91.6281C115.255 91.3045 115.781 84.9321 112.506 81.9098C109.783 79.3978 103.933 80.0362 102.154 83.0555Z" fill="url(#paint11_radial_905_5830)"/>
<path fill-rule="evenodd" clip-rule="evenodd" d="M114.285 93.3542C112.816 93.9688 113.045 100.471 114.878 102.358C116.712 104.246 119.515 101.496 119.785 98.6383C120.055 95.7808 116.604 92.3845 114.286 93.3548L114.285 93.3542Z" fill="url(#paint12_radial_905_5830)"/>
<path fill-rule="evenodd" clip-rule="evenodd" d="M116.172 89.8677C116.085 91.1865 118.924 94.0304 119.8 93.7311C120.675 93.4318 121.51 91.3412 120.917 89.8677C120.324 88.3936 116.28 88.2502 116.172 89.8677Z" fill="url(#paint13_radial_905_5830)"/>
<path fill-rule="evenodd" clip-rule="evenodd" d="M90.4242 112.384C86.6283 113.362 92.9332 120.825 98.3258 121.806C104.634 122.954 110.373 118.696 110.481 116.349C110.589 114.002 97.541 110.551 90.4236 112.384H90.4242Z" fill="url(#paint14_radial_905_5830)"/>
<path fill-rule="evenodd" clip-rule="evenodd" d="M112.629 114.336C111.932 112.668 115.945 107.424 117.806 108.043C119.666 108.663 120.879 112.999 118.372 114.778C116.879 115.837 113.357 116.078 112.629 114.336Z" fill="url(#paint15_radial_905_5830)"/>
<path fill-rule="evenodd" clip-rule="evenodd" d="M90.0496 86.5817C91.9096 86.9865 96.31 83.9268 97.1131 82.4676C97.9169 81.0083 93.8045 79.0748 91.0359 80.4979C89.0758 81.5056 88.4001 86.2231 90.0496 86.5817Z" fill="url(#paint16_radial_905_5830)"/>
<path fill-rule="evenodd" clip-rule="evenodd" d="M97.2157 86.6178C95.1423 87.5792 97.4871 90.2975 99.8746 91.084C102.262 91.8706 104.365 90.4409 103.96 88.8512C103.556 87.2609 100.887 84.9161 97.2157 86.6178Z" fill="url(#paint17_radial_905_5830)"/>
<path fill-rule="evenodd" clip-rule="evenodd" d="M91.9587 111.18C91.9587 111.18 99.9588 110.031 107.79 113.319C107.79 113.319 100.416 108.789 91.9587 111.18Z" fill="url(#paint18_radial_905_5830)"/>
<path fill-rule="evenodd" clip-rule="evenodd" d="M115.645 89.895C115.645 89.895 116.174 92.4402 118.276 93.7531C118.276 93.7531 116.287 91.7591 115.645 89.895Z" fill="url(#paint19_radial_905_5830)"/>
<path style="mix-blend-mode:screen" fill-rule="evenodd" clip-rule="evenodd" d="M81.4864 100.462C81.5795 101.489 82.0881 95.9307 83.9243 95.0393C85.7606 94.1478 91.347 98.1458 93.923 99.7343C99.874 103.404 106.557 99.2376 108.211 96.9965C109.864 94.7554 107.386 91.2488 105.983 90.4682C104.581 89.6875 103.874 93.1366 101.02 92.733C98.1652 92.3293 95.9691 89.0486 95.7463 87.9663C95.5234 86.8839 98.2191 85.3203 99.3512 85.1585C100.483 84.9967 101.731 81.8238 100.937 81.0823C100.144 80.3408 98.8391 83.8676 95.7463 85.9664C93.5283 87.4713 90.0774 88.8085 88.2441 86.0938C88.2441 86.0938 80.7153 91.9352 81.487 100.462H81.4864Z" fill="url(#paint20_radial_905_5830)"/>
<path style="mix-blend-mode:screen" fill-rule="evenodd" clip-rule="evenodd" d="M102.801 83.34C102.713 84.7229 105.753 84.0869 108.482 83.9215C111.212 83.7561 113.324 83.7662 113.324 83.7662C113.324 83.7662 111.269 81.3592 107.824 80.9816C104.379 80.604 102.854 82.4919 102.801 83.34Z" fill="url(#paint21_linear_905_5830)"/>
<path style="mix-blend-mode:screen" fill-rule="evenodd" clip-rule="evenodd" d="M89.7468 85.021C90.5748 85.4004 90.7775 82.8896 91.9096 81.7326C93.0417 80.5756 94.3896 80.3551 94.3896 80.3551C94.3896 80.3551 92.0714 80.3094 90.6157 80.9816C89.16 81.6537 89.0426 84.698 89.7468 85.021Z" fill="url(#paint22_linear_905_5830)"/>
<path style="mix-blend-mode:screen" fill-rule="evenodd" clip-rule="evenodd" d="M96.9507 87.1839C96.9507 87.1839 98.2985 86.1288 100.078 86.21C101.857 86.2906 103.15 87.4814 103.15 87.4814C103.15 87.4814 101.803 87.073 100.86 87.3694C99.9161 87.6658 98.4604 89.2365 96.9507 87.1845V87.1839Z" fill="url(#paint23_linear_905_5830)"/>
<path style="mix-blend-mode:screen" fill-rule="evenodd" clip-rule="evenodd" d="M114.123 93.753C114.123 93.753 116.01 93.043 117.763 94.6813C119.515 96.3196 119.65 97.7949 119.65 97.7949C119.65 97.7949 118.518 96.0742 117.385 95.9135C116.253 95.7529 114.865 96.5887 114.292 96.0765C113.718 95.5644 113.629 94.2604 114.123 93.753Z" fill="url(#paint24_linear_905_5830)"/>
<path style="mix-blend-mode:screen" fill-rule="evenodd" clip-rule="evenodd" d="M116.562 89.3639C116.562 89.3639 116.96 88.8305 118.275 88.8619C119.591 88.8933 120.411 89.4985 120.728 89.895C121.044 90.2915 120.863 91.6299 120.863 91.6299C120.863 91.6299 120.755 90.55 120.215 90.0372C119.676 89.5251 116.546 90.7651 116.561 89.3633L116.562 89.3639Z" fill="url(#paint25_linear_905_5830)"/>
<path style="mix-blend-mode:screen" fill-rule="evenodd" clip-rule="evenodd" d="M113.324 112.063C113.324 112.063 115.67 108.264 117.358 108.529C119.046 108.793 119.65 111.416 119.65 111.416C119.65 111.416 118.633 110.009 116.562 110.232C114.49 110.455 113.324 112.063 113.324 112.063Z" fill="url(#paint26_linear_905_5830)"/>
<path style="mix-blend-mode:screen" fill-rule="evenodd" clip-rule="evenodd" d="M89.7467 113.314C89.7467 113.314 92.9658 111.692 99.404 112.602C105.842 113.512 109.508 115.609 109.508 115.609C109.508 115.609 102.845 114.165 98.9138 114.813C94.9828 115.46 93.7849 118.908 93.7849 118.908C93.7849 118.908 88.9317 116.829 89.7467 113.314Z" fill="url(#paint27_linear_905_5830)"/>
<path fill-rule="evenodd" clip-rule="evenodd" d="M100.17 121.552C100.17 121.552 104.613 120.927 106.861 119.892C106.861 119.892 102.176 122.522 100.17 121.552Z" fill="#FFFF8D"/>
<path fill-rule="evenodd" clip-rule="evenodd" d="M113.198 114.435C113.198 114.435 114.986 115.028 117.358 114.813C117.358 114.813 114.562 115.889 113.198 114.435Z" fill="#FFFF8D"/>
<path fill-rule="evenodd" clip-rule="evenodd" d="M113.801 98.937C113.801 98.937 115.261 101.61 116.725 102.286C116.725 102.286 114.982 102.904 113.801 98.937Z" fill="#FFFF8D"/>
<path fill-rule="evenodd" clip-rule="evenodd" d="M106.401 87.9639C106.401 87.9639 109.075 90.9317 113.324 91.3069L106.401 87.9639Z" fill="#FFFF8D"/>
<path fill-rule="evenodd" clip-rule="evenodd" d="M97.6276 89.1292C97.6276 89.1292 99.059 91.0307 101.708 91.0852L97.6276 89.1292Z" fill="#FFFF8D"/>
<path fill-rule="evenodd" clip-rule="evenodd" d="M89.9713 86.2053C89.9713 86.2053 92.7874 85.7921 95.7451 83.6963L89.9713 86.2053Z" fill="#FFFF8D"/>
<path fill-rule="evenodd" clip-rule="evenodd" d="M84.4258 97.7883C84.4258 97.7883 87.5435 100.222 88.86 106.109C88.86 106.109 89.6145 100.329 84.4258 97.7883Z" fill="url(#paint28_radial_905_5830)"/>
<path fill-rule="evenodd" clip-rule="evenodd" d="M84.507 110.189C84.507 110.189 87.0456 111.419 88.3822 110.131C89.7188 108.843 88.8991 104.48 87.0628 101.176C85.2266 97.8713 82.9778 96.4097 82.0371 96.8886C81.3887 97.2187 77.958 105.439 84.507 110.189Z" fill="#00777A"/>
<path fill-rule="evenodd" clip-rule="evenodd" d="M82.4888 97.7083C80.8102 97.2845 79.4807 103.087 80.3366 106.234C81.4497 110.325 86.9277 110.931 88.0841 109.691C89.2405 108.451 88.4569 99.2145 82.4888 97.7083Z" fill="url(#paint29_radial_905_5830)"/>
<path style="mix-blend-mode:screen" fill-rule="evenodd" clip-rule="evenodd" d="M80.7023 105.797C80.7023 105.797 80.2405 99.8303 81.7301 98.7545C83.2196 97.6787 85.4684 99.95 85.4684 99.95C85.4684 99.95 84.3884 100.24 82.9783 101.023C81.5682 101.806 80.7017 105.797 80.7017 105.797L80.7023 105.797Z" fill="url(#paint30_linear_905_5830)"/>
<path fill-rule="evenodd" clip-rule="evenodd" d="M82.6868 108.7C82.6868 108.7 84.6653 109.774 86.1335 109.892C86.1335 109.892 84.2124 110.636 82.6868 108.7Z" fill="#FFFF8D"/>
</g>
<defs>
<filter id="filter0_d_905_5830" x="0.0693359" y="0" width="201.861" height="201.999" filterUnits="userSpaceOnUse" color-interpolation-filters="sRGB">
<feFlood flood-opacity="0" result="BackgroundImageFix"/>
<feColorMatrix in="SourceAlpha" type="matrix" values="0 0 0 0 0 0 0 0 0 0 0 0 0 0 0 0 0 0 127 0" result="hardAlpha"/>
<feOffset/>
<feGaussianBlur stdDeviation="40"/>
<feComposite in2="hardAlpha" operator="out"/>
<feColorMatrix type="matrix" values="0 0 0 0 0.278431 0 0 0 0 0.992157 0 0 0 0 0.117647 0 0 0 1 0"/>
<feBlend mode="normal" in2="BackgroundImageFix" result="effect1_dropShadow_905_5830"/>
<feBlend mode="normal" in="SourceGraphic" in2="effect1_dropShadow_905_5830" result="shape"/>
</filter>
<radialGradient id="paint0_radial_905_5830" cx="0" cy="0" r="1" gradientUnits="userSpaceOnUse" gradientTransform="translate(89.1848 91.004) scale(32.4832 32.4832)">
<stop stop-color="#0CC463"/>
<stop offset="0.21" stop-color="#0BC063"/>
<stop offset="0.36" stop-color="#0AB764"/>
<stop offset="0.5" stop-color="#08A667"/>
<stop offset="0.63" stop-color="#068F6A"/>
<stop offset="0.76" stop-color="#03716E"/>
<stop offset="0.87" stop-color="#004F74"/>
</radialGradient>
<linearGradient id="paint1_linear_905_5830" x1="115.536" y1="104.599" x2="115.536" y2="93.2747" gradientUnits="userSpaceOnUse">
<stop stop-color="#007C6F"/>
<stop offset="0.66" stop-color="#29D73A"/>
<stop offset="0.99" stop-color="#3BFF24"/>
</linearGradient>
<radialGradient id="paint2_radial_905_5830" cx="0" cy="0" r="1" gradientUnits="userSpaceOnUse" gradientTransform="translate(100.773 112.088) rotate(6.99) scale(7.28928 5.45605)">
<stop stop-color="#00FF00"/>
<stop offset="1"/>
</radialGradient>
<linearGradient id="paint3_linear_905_5830" x1="81.4865" y1="94.9148" x2="110.576" y2="94.9148" gradientUnits="userSpaceOnUse">
<stop offset="0.01" stop-color="#92FF2C"/>
<stop offset="0.23" stop-color="#8FFC2D"/>
<stop offset="0.39" stop-color="#85F231"/>
<stop offset="0.54" stop-color="#75E339"/>
<stop offset="0.67" stop-color="#5FCD44"/>
<stop offset="0.8" stop-color="#42B052"/>
<stop offset="0.91" stop-color="#1E8E63"/>
<stop offset="1" stop-color="#007072"/>
</linearGradient>
<radialGradient id="paint4_radial_905_5830" cx="0" cy="0" r="1" gradientUnits="userSpaceOnUse" gradientTransform="translate(108.448 90.7039) rotate(30) scale(4.61494 2.37436)">
<stop stop-color="#00FF00"/>
<stop offset="1"/>
</radialGradient>
<radialGradient id="paint5_radial_905_5830" cx="0" cy="0" r="1" gradientUnits="userSpaceOnUse" gradientTransform="translate(115.543 110.681) scale(2.90317 2.90317)">
<stop offset="0.01" stop-color="#3BFF24"/>
<stop offset="0.53" stop-color="#25D732"/>
<stop offset="1" stop-color="#11B140"/>
</radialGradient>
<radialGradient id="paint6_radial_905_5830" cx="0" cy="0" r="1" gradientUnits="userSpaceOnUse" gradientTransform="translate(114.855 98.3326) rotate(82.33) scale(4.99381 4.24623)">
<stop stop-color="#00FF00"/>
<stop offset="1"/>
</radialGradient>
<radialGradient id="paint7_radial_905_5830" cx="0" cy="0" r="1" gradientUnits="userSpaceOnUse" gradientTransform="translate(86.9307 86.6984) scale(26.6164 26.6164)">
<stop stop-color="#FFFF4A"/>
<stop offset="1"/>
</radialGradient>
<radialGradient id="paint8_radial_905_5830" cx="0" cy="0" r="1" gradientUnits="userSpaceOnUse" gradientTransform="translate(109.843 87.9112) scale(4.26111)">
<stop offset="0.02" stop-color="#B0FF24"/>
<stop offset="0.29" stop-color="#88F72A"/>
<stop offset="0.89" stop-color="#24E33C"/>
<stop offset="1" stop-color="#11E040"/>
</radialGradient>
<radialGradient id="paint9_radial_905_5830" cx="0" cy="0" r="1" gradientUnits="userSpaceOnUse" gradientTransform="translate(102.071 90.9358) scale(1.73372)">
<stop offset="0.02" stop-color="#B0FF24"/>
<stop offset="0.29" stop-color="#88F72A"/>
<stop offset="0.89" stop-color="#24E33C"/>
<stop offset="1" stop-color="#11E040"/>
</radialGradient>
<radialGradient id="paint10_radial_905_5830" cx="0" cy="0" r="1" gradientUnits="userSpaceOnUse" gradientTransform="translate(95.4706 84.4526) scale(2.60859)">
<stop offset="0.02" stop-color="#B0FF24"/>
<stop offset="0.29" stop-color="#88F72A"/>
<stop offset="0.89" stop-color="#24E33C"/>
<stop offset="1" stop-color="#11E040"/>
</radialGradient>
<radialGradient id="paint11_radial_905_5830" cx="0" cy="0" r="1" gradientUnits="userSpaceOnUse" gradientTransform="translate(108.233 88.4244) scale(6.11397)">
<stop offset="0.01" stop-color="#00FF24"/>
<stop offset="0.19" stop-color="#27FF1E"/>
<stop offset="0.58" stop-color="#8CFF10"/>
<stop offset="1" stop-color="#FFFF00"/>
</radialGradient>
<radialGradient id="paint12_radial_905_5830" cx="0" cy="0" r="1" gradientUnits="userSpaceOnUse" gradientTransform="translate(114.378 99.0526) scale(4.15145 4.15146)">
<stop offset="0.01" stop-color="#00FF24"/>
<stop offset="0.19" stop-color="#27FF1E"/>
<stop offset="0.58" stop-color="#8CFF10"/>
<stop offset="1" stop-color="#FFFF00"/>
</radialGradient>
<radialGradient id="paint13_radial_905_5830" cx="0" cy="0" r="1" gradientUnits="userSpaceOnUse" gradientTransform="translate(117.915 92.1201) scale(2.49834 2.49834)">
<stop offset="0.01" stop-color="#00FF24"/>
<stop offset="0.19" stop-color="#27FF1E"/>
<stop offset="0.58" stop-color="#8CFF10"/>
<stop offset="1" stop-color="#FFFF00"/>
</radialGradient>
<radialGradient id="paint14_radial_905_5830" cx="0" cy="0" r="1" gradientUnits="userSpaceOnUse" gradientTransform="translate(99.3477 118.991) scale(9.28091 9.28091)">
<stop offset="0.01" stop-color="#00FF24"/>
<stop offset="0.19" stop-color="#27FF1E"/>
<stop offset="0.58" stop-color="#8CFF10"/>
<stop offset="1" stop-color="#FFFF00"/>
</radialGradient>
<radialGradient id="paint15_radial_905_5830" cx="0" cy="0" r="1" gradientUnits="userSpaceOnUse" gradientTransform="translate(115.99 113.347) scale(3.55932)">
<stop offset="0.01" stop-color="#00FF24"/>
<stop offset="0.19" stop-color="#27FF1E"/>
<stop offset="0.58" stop-color="#8CFF10"/>
<stop offset="1" stop-color="#FFFF00"/>
</radialGradient>
<radialGradient id="paint16_radial_905_5830" cx="0" cy="0" r="1" gradientUnits="userSpaceOnUse" gradientTransform="translate(92.9664 84.6529) scale(3.76737)">
<stop offset="0.01" stop-color="#00FF24"/>
<stop offset="0.19" stop-color="#27FF1E"/>
<stop offset="0.58" stop-color="#8CFF10"/>
<stop offset="1" stop-color="#FFFF00"/>
</radialGradient>
<radialGradient id="paint17_radial_905_5830" cx="0" cy="0" r="1" gradientUnits="userSpaceOnUse" gradientTransform="translate(100.025 89.7385) scale(3.4467)">
<stop offset="0.01" stop-color="#00FF24"/>
<stop offset="0.19" stop-color="#27FF1E"/>
<stop offset="0.58" stop-color="#8CFF10"/>
<stop offset="1" stop-color="#FFFF00"/>
</radialGradient>
<radialGradient id="paint18_radial_905_5830" cx="0" cy="0" r="1" gradientUnits="userSpaceOnUse" gradientTransform="translate(99.481 112.477) scale(6.72033 6.72033)">
<stop offset="0.01" stop-color="#3BFF24"/>
<stop offset="0.53" stop-color="#25D732"/>
<stop offset="1" stop-color="#11B140"/>
</radialGradient>
<radialGradient id="paint19_radial_905_5830" cx="0" cy="0" r="1" gradientUnits="userSpaceOnUse" gradientTransform="translate(117.542 91.7503) scale(1.66438)">
<stop offset="0.01" stop-color="#3BFF24"/>
<stop offset="0.53" stop-color="#25D732"/>
<stop offset="1" stop-color="#11B140"/>
</radialGradient>
<radialGradient id="paint20_radial_905_5830" cx="0" cy="0" r="1" gradientUnits="userSpaceOnUse" gradientTransform="translate(87.4119 88.8619) scale(21.0939)">
<stop stop-color="#97FF11"/>
<stop offset="1"/>
</radialGradient>
<linearGradient id="paint21_linear_905_5830" x1="104.864" y1="80.6817" x2="110.862" y2="86.3647" gradientUnits="userSpaceOnUse">
<stop stop-color="#FFFFE8"/>
<stop offset="0.2" stop-color="#BBBBAA"/>
<stop offset="0.42" stop-color="#79796E"/>
<stop offset="0.61" stop-color="#45453E"/>
<stop offset="0.78" stop-color="#1F1F1C"/>
<stop offset="0.91" stop-color="#080807"/>
<stop offset="1"/>
</linearGradient>
<linearGradient id="paint22_linear_905_5830" x1="90.3656" y1="81.0877" x2="92.1906" y2="82.8167" gradientUnits="userSpaceOnUse">
<stop stop-color="#FFFFE8"/>
<stop offset="0.2" stop-color="#BBBBAA"/>
<stop offset="0.42" stop-color="#79796E"/>
<stop offset="0.61" stop-color="#45453E"/>
<stop offset="0.78" stop-color="#1F1F1C"/>
<stop offset="0.91" stop-color="#080807"/>
<stop offset="1"/>
</linearGradient>
<linearGradient id="paint23_linear_905_5830" x1="98.3217" y1="85.737" x2="101.737" y2="88.9727" gradientUnits="userSpaceOnUse">
<stop stop-color="#FFFFE8"/>
<stop offset="0.2" stop-color="#BBBBAA"/>
<stop offset="0.42" stop-color="#79796E"/>
<stop offset="0.61" stop-color="#45453E"/>
<stop offset="0.78" stop-color="#1F1F1C"/>
<stop offset="0.91" stop-color="#080807"/>
<stop offset="1"/>
</linearGradient>
<linearGradient id="paint24_linear_905_5830" x1="114.212" y1="93.6594" x2="119.142" y2="98.3307" gradientUnits="userSpaceOnUse">
<stop stop-color="#FFFFE8"/>
<stop offset="0.2" stop-color="#BBBBAA"/>
<stop offset="0.42" stop-color="#79796E"/>
<stop offset="0.61" stop-color="#45453E"/>
<stop offset="0.78" stop-color="#1F1F1C"/>
<stop offset="0.91" stop-color="#080807"/>
<stop offset="1"/>
</linearGradient>
<linearGradient id="paint25_linear_905_5830" x1="117.346" y1="88.5335" x2="120.746" y2="91.7538" gradientUnits="userSpaceOnUse">
<stop stop-color="#FFFFE8"/>
<stop offset="0.2" stop-color="#BBBBAA"/>
<stop offset="0.42" stop-color="#79796E"/>
<stop offset="0.61" stop-color="#45453E"/>
<stop offset="0.78" stop-color="#1F1F1C"/>
<stop offset="0.91" stop-color="#080807"/>
<stop offset="1"/>
</linearGradient>
<linearGradient id="paint26_linear_905_5830" x1="115.064" y1="109.806" x2="118.284" y2="112.858" gradientUnits="userSpaceOnUse">
<stop stop-color="#FFFFE8"/>
<stop offset="0.2" stop-color="#BBBBAA"/>
<stop offset="0.42" stop-color="#79796E"/>
<stop offset="0.61" stop-color="#45453E"/>
<stop offset="0.78" stop-color="#1F1F1C"/>
<stop offset="0.91" stop-color="#080807"/>
<stop offset="1"/>
</linearGradient>
<linearGradient id="paint27_linear_905_5830" x1="93.223" y1="109.645" x2="104.782" y2="120.596" gradientUnits="userSpaceOnUse">
<stop stop-color="#FFFFE8"/>
<stop offset="0.2" stop-color="#BBBBAA"/>
<stop offset="0.42" stop-color="#79796E"/>
<stop offset="0.61" stop-color="#45453E"/>
<stop offset="0.78" stop-color="#1F1F1C"/>
<stop offset="0.91" stop-color="#080807"/>
<stop offset="1"/>
</linearGradient>
<radialGradient id="paint28_radial_905_5830" cx="0" cy="0" r="1" gradientUnits="userSpaceOnUse" gradientTransform="translate(88.0362 102.163) rotate(14.16) scale(3.14738)">
<stop offset="0.02" stop-color="#B0FF24"/>
<stop offset="0.29" stop-color="#88F72A"/>
<stop offset="0.89" stop-color="#24E33C"/>
<stop offset="1" stop-color="#11E040"/>
</radialGradient>
<radialGradient id="paint29_radial_905_5830" cx="0" cy="0" r="1" gradientUnits="userSpaceOnUse" gradientTransform="translate(83.7929 106.358) rotate(14.16) scale(4.94275)">
<stop offset="0.01" stop-color="#00FF24"/>
<stop offset="0.19" stop-color="#27FF1E"/>
<stop offset="0.58" stop-color="#8CFF10"/>
<stop offset="1" stop-color="#FFFF00"/>
</radialGradient>
<linearGradient id="paint30_linear_905_5830" x1="80.8352" y1="99.323" x2="83.7272" y2="103.883" gradientUnits="userSpaceOnUse">
<stop stop-color="#FFFFE8"/>
<stop offset="0.2" stop-color="#BBBBAA"/>
<stop offset="0.42" stop-color="#79796E"/>
<stop offset="0.61" stop-color="#45453E"/>
<stop offset="0.78" stop-color="#1F1F1C"/>
<stop offset="0.91" stop-color="#080807"/>
<stop offset="1"/>
</linearGradient>
</defs>
</svg>
