<svg width="202" height="202" viewBox="0 0 202 202" fill="none" xmlns="http://www.w3.org/2000/svg">
<g filter="url(#filter0_d_905_5753)">
<path fill-rule="evenodd" clip-rule="evenodd" d="M121.335 96.8236C121.335 98.7711 121.061 100.658 120.543 102.439C119.516 106.02 117.526 109.192 114.868 111.666C112.968 113.437 110.725 114.846 108.256 115.783C106.018 116.635 103.595 117.097 101.057 117.097C100.698 117.097 100.334 117.089 99.9785 117.067H99.9743C99.4436 117.042 98.9171 116.99 98.3994 116.926C94.4836 116.412 90.9272 114.786 88.0425 112.363C86.9597 111.461 85.9755 110.442 85.1066 109.329C84.4475 108.495 83.8526 107.608 83.3302 106.671C83.206 106.449 83.0866 106.222 82.9665 105.995C82.9665 105.987 82.9624 105.982 82.9582 105.973C82.834 105.73 82.7187 105.486 82.6076 105.237H82.6034C82.2522 104.463 81.9443 103.662 81.6959 102.84C81.5075 102.25 81.3494 101.642 81.2211 101.026C81.2169 101.022 81.2169 101.013 81.2169 101.009C81.1272 100.577 81.0499 100.14 80.9899 99.6988C80.8532 98.7574 80.7842 97.7988 80.7842 96.823C80.7842 96.2625 80.8056 95.7015 80.8567 95.1541C80.8823 94.8029 80.9209 94.4564 80.9679 94.11C81.2288 92.1155 81.7856 90.2155 82.5897 88.448C82.9838 87.5791 83.4372 86.7447 83.9465 85.9442C84.794 84.6088 85.7954 83.3851 86.9252 82.2851C90.576 78.7329 95.5616 76.5459 101.057 76.5459C101.271 76.5459 101.485 76.55 101.695 76.5542C101.922 76.5625 102.148 76.5714 102.375 76.5887C103.54 76.6659 104.678 76.8371 105.778 77.1021C106.42 77.2561 107.049 77.4361 107.665 77.6501C108.085 77.7915 108.495 77.9496 108.902 78.1208C109.206 78.2491 109.501 78.3817 109.796 78.5231C109.848 78.5487 109.899 78.5701 109.95 78.5956C111.919 79.5584 113.704 80.8255 115.253 82.3445C115.475 82.5585 115.69 82.7807 115.903 83.0077C116.045 83.1617 116.186 83.3203 116.323 83.4784C116.558 83.7435 116.785 84.0222 117.008 84.3004C117.817 85.3273 118.527 86.4315 119.122 87.6041C119.819 88.9651 120.367 90.4158 120.739 91.9354C121.129 93.502 121.334 95.1369 121.334 96.823L121.335 96.8236Z" fill="url(#paint0_radial_905_5753)"/>
<g style="mix-blend-mode:multiply" opacity="0.4">
<path fill-rule="evenodd" clip-rule="evenodd" d="M80.7825 96.8218C80.7825 96.8218 85.5637 105.306 90.1856 106.622C94.8075 107.938 100.087 107.101 101.89 107.774C103.694 108.446 104.676 111.202 104.676 111.202L105.348 111.587C105.348 111.587 106.891 109.193 107.835 110.607C107.835 110.607 107.458 108.603 108.594 106.162C109.729 103.721 110.486 101.099 111.891 100.261C113.296 99.423 115.868 99.0338 117.907 99.842C119.946 100.65 121.001 100.495 121.001 100.495L121.154 99.5348L121.306 98.6879C121.306 98.6879 119.355 98.9981 117.786 97.9937C117.786 97.9937 118.001 98.3693 119.217 96.0985C120.433 93.8277 120.292 91.7791 120.292 91.7791L120.118 89.8922C120.118 89.8922 119.465 96.4361 116.705 98.3349C116.705 98.3349 110.552 97.0613 107.95 104.324C107.95 104.324 107.505 109.181 104.927 109.045C102.349 108.91 103.24 105.734 99.5102 105.702C95.7803 105.67 93.5166 107.203 89.8236 105.097C86.1312 102.991 80.7825 96.8218 80.7825 96.8218Z" fill="#7D72B3"/>
</g>
<g style="mix-blend-mode:multiply" opacity="0.4">
<path fill-rule="evenodd" clip-rule="evenodd" d="M99.9786 117.067C99.9786 117.067 102.536 113.247 105.349 113.269C108.161 113.29 109.459 114.31 111.675 113.016C113.892 111.722 114.813 110.913 115.835 110.222C116.856 109.53 117.029 109.312 117.029 109.312L117.49 108.703C117.49 108.703 115.936 107.948 114.566 109.056C113.196 110.163 110.719 112.672 108.755 112.66C106.79 112.648 106.886 111.517 104.677 112.403C102.469 113.29 97.8188 116.424 97.8188 116.424C97.8188 116.424 98.6604 117.039 99.9791 117.067H99.9786Z" fill="#7D72B3"/>
</g>
<g style="mix-blend-mode:multiply" opacity="0.4">
<path fill-rule="evenodd" clip-rule="evenodd" d="M81.8968 103.464L82.1399 104.133C82.1399 104.133 86.0932 106.315 88.5899 109.353C91.0866 112.39 91.5305 114.448 91.5305 114.448C91.5305 114.448 91.9745 112.638 89.8231 109.233C87.6717 105.829 83.0409 103.962 81.8962 103.463L81.8968 103.464Z" fill="#7D72B3"/>
</g>
<path fill-rule="evenodd" clip-rule="evenodd" d="M109.949 78.5974C109.883 78.6046 109.815 78.6117 109.749 78.6254C109.52 78.6676 109.341 78.6468 109.116 78.5832C108.954 78.5374 108.838 78.4708 108.666 78.4423C108.42 78.4037 108.191 78.2979 107.945 78.2664C107.685 78.2313 107.46 78.1291 107.214 78.0412C107.02 77.971 106.918 77.9954 106.732 78.0412C106.545 78.0905 106.415 78.0132 106.25 77.9425C106.063 77.8617 105.877 77.8474 105.68 77.8088C105.166 77.703 104.656 77.5378 104.146 77.4076C103.83 77.3268 103.538 77.3268 103.214 77.3232C102.961 77.3197 102.733 77.3934 102.479 77.3934C102.311 77.3934 102.166 77.3654 101.997 77.3405C101.825 77.309 101.649 77.344 101.477 77.3197C101.22 77.281 101.083 77.2424 100.822 77.3232C100.629 77.3868 100.478 77.3797 100.285 77.3898C100.07 77.4005 99.8275 77.4564 99.6166 77.5057C99.2368 77.5936 98.822 77.6638 98.4315 77.6566C98.1926 77.6566 97.8408 77.5901 97.612 77.6709C97.464 77.7238 97.3903 77.8819 97.2887 77.9877C97.092 78.1915 96.8489 78.3746 96.6837 78.6034C96.5185 78.8322 96.3318 79.0675 96.3461 79.3558C96.3604 79.6054 96.4763 79.8972 96.585 80.126C96.6973 80.3685 96.7366 80.5901 96.4864 80.7518C96.1732 80.9592 95.8112 81.1494 95.4523 81.251C95.2134 81.3211 94.9988 81.3633 94.7979 81.191C94.7243 81.1274 94.6785 81.0044 94.587 80.955C94.4919 80.9057 94.3932 80.955 94.2916 80.9865C94.0384 81.0602 93.7924 81.1446 93.5356 81.1868C93.3776 81.2112 93.2403 81.2956 93.0852 81.3241C92.8985 81.3592 92.7648 81.2219 92.5717 81.2676C92.3007 81.3312 92.0303 81.4436 91.7486 81.4578C91.5483 81.4685 91.2951 81.3806 91.1263 81.2783C91.0277 81.2219 91.0033 81.166 90.891 81.1975C90.7995 81.2189 90.6622 81.3312 90.6129 81.4014C90.5463 81.4964 90.5213 81.6195 90.4548 81.7181C90.3846 81.8269 90.3175 81.9327 90.2545 82.0486C90.1386 82.2738 90.0013 82.4848 89.8533 82.6851C89.7475 82.8259 89.6739 83.0155 89.558 83.1456C89.4979 83.2158 89.3678 83.2651 89.2905 83.318C89.0795 83.466 88.8579 83.5991 88.654 83.7578C88.26 84.0674 87.8874 84.4085 87.4862 84.7075C87.1801 84.9363 86.7511 85.07 86.4028 85.2138C86.1847 85.3018 85.9594 85.3648 85.7413 85.4563C85.6712 85.4842 85.5411 85.5163 85.481 85.5686C85.4038 85.6352 85.3616 85.7588 85.2909 85.8497C85.1007 86.0821 84.9004 86.3139 84.756 86.5813C84.668 86.7358 84.6151 86.8945 84.5593 87.0633C84.482 87.2921 84.359 87.5031 84.2811 87.7313C84.123 88.2097 84.0909 88.7089 83.9156 89.1838C83.8134 89.4619 83.666 89.7151 83.5394 89.9683C83.3213 90.3973 83.2898 90.9073 83.2262 91.3821C83.1912 91.6602 83.2054 91.98 83.2542 92.251C83.3071 92.5428 83.2928 92.8453 83.2892 93.1442C83.2857 93.461 83.0854 93.77 82.8845 94.0095C82.7015 94.2312 82.4239 94.3156 82.2201 94.5123C82.0477 94.6811 81.8403 94.8748 81.7666 95.1138C81.7351 95.2195 81.7631 95.339 81.7452 95.4513C81.6995 95.7009 81.6365 95.9369 81.6008 96.19C81.5622 96.5032 81.5551 96.7986 81.5551 97.1148C81.5551 97.2729 81.5444 97.4351 81.5515 97.5932C81.5586 97.7441 81.6151 97.885 81.6252 98.0365C81.6323 98.1423 81.6109 98.2475 81.6252 98.3533C81.646 98.4728 81.6917 98.5958 81.7203 98.7123C81.7904 98.9934 81.8433 99.2679 81.8962 99.549C81.9455 99.8094 82.0471 100.066 82.1286 100.319C82.2409 100.664 82.3152 101.019 82.3817 101.378C82.4346 101.645 82.4311 101.923 82.4697 102.194C82.5012 102.412 82.5505 102.633 82.5612 102.852C82.5719 103.182 82.4911 103.513 82.4875 103.847C82.4839 104.41 82.7092 104.973 82.8393 105.514C82.878 105.665 82.9166 105.82 82.9588 105.971C81.5663 103.221 80.7819 100.112 80.7819 96.82C80.7819 92.8174 81.9425 89.0863 83.9436 85.9418C84.7946 84.6053 85.7936 83.3816 86.9222 82.2839C90.5778 78.7341 95.561 76.5465 101.058 76.5465C101.502 76.5465 101.937 76.5607 102.374 76.5887C105.078 76.761 107.638 77.4647 109.949 78.5968V78.5974Z" fill="url(#paint1_linear_905_5753)"/>
<g style="mix-blend-mode:multiply" opacity="0.4">
<path fill-rule="evenodd" clip-rule="evenodd" d="M85.7419 85.4587C85.7419 85.4587 90.3062 89.5392 96.3277 89.6562C102.349 89.7733 104.587 89.3686 106.59 87.1382C108.594 84.9077 110.751 81.1303 110.751 81.1303C110.751 81.1303 108.179 82.3695 106.399 84.7919C104.62 87.2142 96.2148 91.3405 85.7419 85.4587Z" fill="#7D72B3"/>
</g>
<g opacity="0.7">
<g style="mix-blend-mode:multiply" opacity="0.4">
<path fill-rule="evenodd" clip-rule="evenodd" d="M86.1045 85.5752C85.5072 86.2824 84.9866 87.0027 84.5854 87.8407C84.2288 88.5847 84.0981 89.4138 83.9691 90.2191C83.8924 90.6975 83.8253 91.1771 83.7534 91.6561C83.6892 92.081 83.5668 92.5291 83.6399 92.9588C83.7397 93.5412 83.7694 94.1837 84.0482 94.715C84.3465 95.2837 84.6567 95.7824 85.0531 96.2845C85.4412 96.7766 85.9101 96.9971 86.5371 97.0411C86.877 97.0649 87.2152 97.0126 87.5557 97.0577C88.0282 97.1195 88.5013 97.2063 88.9714 97.2818C89.9193 97.4339 90.9843 97.4411 91.6654 96.6637C92.2181 96.0332 92.479 95.2469 92.8314 94.4963C93.2064 93.6969 93.6777 93.0337 94.379 92.4905C94.8948 92.0911 95.3471 91.6418 95.8427 91.2199C96.0674 91.0285 96.2035 90.8217 96.459 90.6785C96.7092 90.5382 96.8441 90.3819 97.0634 90.1804C97.2607 89.9992 97.4997 89.8768 97.6756 89.6699C97.9549 89.3413 98.1784 88.8979 98.3287 88.4974C98.4862 88.0778 98.5635 87.6315 98.6253 87.1887C98.6865 86.7561 98.5557 86.321 98.4214 85.9092C98.1647 85.1247 97.4949 84.6314 96.8643 84.1441C96.084 83.5415 95.164 83.274 94.203 83.085C93.3294 82.9133 92.2775 82.8782 91.3997 83.0339C90.4708 83.1985 89.5164 83.3317 88.6516 83.734C88.0193 84.0282 87.6372 84.4365 87.1267 84.8691C86.8664 85.0896 86.552 85.2412 86.3166 85.4896C85.9915 85.8337 85.6872 86.2075 86.1033 85.5758L86.1045 85.5752Z" fill="#7D72B3"/>
</g>
<g style="mix-blend-mode:multiply" opacity="0.4">
<path fill-rule="evenodd" clip-rule="evenodd" d="M95.2948 81.7912C95.4208 81.5713 95.564 81.2564 95.7387 81.0483C95.8326 80.9366 95.9551 80.8504 96.0668 80.7565C96.4062 80.4725 96.777 80.2318 97.2067 80.1082C97.4432 80.0398 97.7035 80.0345 97.9412 80.0951C98.1831 80.1569 98.6199 80.3215 98.8054 80.498C99.1507 80.8267 98.923 81.3871 98.819 81.7698C98.7144 82.1561 98.5938 82.521 98.2491 82.7659C98.0238 82.9252 97.7552 83.0529 97.4866 83.1141C97.3368 83.148 97.1859 83.1379 97.0343 83.1563C96.9119 83.1712 96.7948 83.2015 96.6706 83.2015C96.3901 83.2015 95.964 83.0012 95.8469 82.7267C95.7857 82.5828 95.7506 82.4343 95.6859 82.2904C95.6365 82.1811 95.5979 82.0658 95.5521 81.9553C95.466 81.7478 95.3911 81.5464 95.2954 81.7918L95.2948 81.7912Z" fill="#7D72B3"/>
</g>
<g style="mix-blend-mode:multiply" opacity="0.4">
<path fill-rule="evenodd" clip-rule="evenodd" d="M98.6467 83.9533C98.5635 84.1774 98.5177 84.4068 98.5106 84.6427C98.6146 84.7039 98.6508 84.8323 98.753 84.8923C98.8511 84.95 98.9694 84.9262 99.0811 84.9262C99.2838 84.9256 99.4805 84.9286 99.5143 84.6784C99.5441 84.4597 99.3509 84.3004 99.1869 84.1815C99.0686 84.0959 98.8345 83.8963 98.7001 84.0615L98.6461 83.9533H98.6467Z" fill="#7D72B3"/>
</g>
<g style="mix-blend-mode:multiply" opacity="0.4">
<path fill-rule="evenodd" clip-rule="evenodd" d="M101.458 87.2511C101.194 87.4383 100.911 87.6071 100.659 87.8074C100.34 88.0611 100.09 88.3832 99.8418 88.7042C99.534 89.1029 99.172 89.5201 99.2487 90.0568C99.3242 90.5863 99.5036 91.0255 99.9096 91.3809C100.379 91.7922 101.105 91.7898 101.652 92.056C102.119 92.2837 102.418 92.7538 102.652 93.2013C103.007 93.8806 103.753 94.0012 104.433 94.1296C104.876 94.2128 105.315 94.277 105.762 94.331C106.363 94.4041 106.957 94.5194 107.559 94.5771C108.662 94.6835 109.775 94.9378 110.888 94.8487C112.067 94.7542 113.135 94.334 114.105 93.6583C114.932 93.083 115.671 92.084 115.889 91.0945C116.118 90.0544 115.776 88.8967 115.273 87.988C114.619 86.8077 113.847 85.7017 113.006 84.6468C112.542 84.0626 112.002 83.542 111.528 82.9644C111.116 82.464 110.685 82.0159 110.193 81.5933C109.092 80.6466 107.726 79.8651 106.246 79.7872C105.683 79.7575 105.113 79.8407 104.584 80.0451C104.12 80.2246 103.784 80.4915 103.439 80.8463C102.564 81.7472 102.106 82.8942 101.728 84.0716C101.554 84.6112 101.392 85.2215 101.455 85.795C101.475 85.9704 101.568 86.1088 101.566 86.2752C101.564 86.431 101.565 86.5867 101.566 86.7418C101.566 86.8327 101.575 86.9034 101.542 86.9801C101.489 87.1049 101.363 87.2362 101.458 87.2511Z" fill="#7D72B3"/>
</g>
<g style="mix-blend-mode:multiply" opacity="0.4">
<path fill-rule="evenodd" clip-rule="evenodd" d="M96.8085 91.252C96.2368 91.5854 95.6508 91.8451 95.2306 92.38C95.1557 92.4751 95.0458 92.5814 95.0844 92.7098C95.1278 92.8513 95.2865 92.9315 95.4101 92.9832C95.8344 93.1609 96.3533 93.253 96.8079 93.1627C97.2168 93.0813 97.7552 92.8049 97.9757 92.4346C98.2556 91.9657 97.9395 91.2122 97.3481 91.2496C97.259 91.2555 97.1912 91.2977 97.1056 91.3084C97.0355 91.3168 96.96 91.3031 96.8887 91.3061C96.8073 91.3096 96.7895 91.3257 96.7223 91.3536C96.651 91.3833 96.5577 91.4647 96.8079 91.2526L96.8085 91.252Z" fill="#7D72B3"/>
</g>
<g style="mix-blend-mode:multiply" opacity="0.4">
<path fill-rule="evenodd" clip-rule="evenodd" d="M85.0775 99.0902C84.8457 99.3006 84.6139 99.4629 84.4802 99.7416C84.3548 100.004 84.2674 100.254 84.2068 100.538C84.1545 100.783 84.0856 101.046 84.1486 101.296C84.205 101.52 84.3102 101.744 84.3869 101.964C84.4873 102.251 84.5794 102.519 84.6412 102.816C84.7179 103.184 84.854 103.498 85.0186 103.836C85.1797 104.167 85.3615 104.487 85.5594 104.798C85.7639 105.12 86.001 105.373 86.2649 105.648C87.189 106.611 88.3188 107.631 89.697 107.805C90.3929 107.892 91.1192 107.713 91.6279 107.214C92.1842 106.668 92.5384 105.883 92.6572 105.117C92.7583 104.464 92.6911 103.789 92.3387 103.222C92.0576 102.77 91.7503 102.283 91.3866 101.892C91.1412 101.628 90.8583 101.401 90.5914 101.16C90.3258 100.92 90.0708 100.666 89.7814 100.454C89.2727 100.082 88.7812 99.6905 88.2689 99.3214C87.8053 98.988 87.3049 98.6249 86.7391 98.4888C86.3487 98.3949 85.9202 98.3171 85.5351 98.4674C85.3699 98.5322 85.2427 98.5893 85.1589 98.739C85.1173 98.8133 85.0192 98.9411 85.0139 99.0267C84.9996 99.0302 84.9848 99.0338 85.0787 99.0914L85.0775 99.0902Z" fill="#7D72B3"/>
</g>
<g style="mix-blend-mode:multiply" opacity="0.4">
<path fill-rule="evenodd" clip-rule="evenodd" d="M88.6992 98.1715C88.7176 98.3343 88.7366 98.4971 88.755 98.6606C88.7663 98.7141 88.7782 98.767 88.7895 98.8198C88.8222 98.8537 88.944 98.868 88.9868 98.8733C89.152 98.8924 89.3309 98.8038 89.4605 98.7028C89.6584 98.5488 89.7475 98.1899 89.5645 98.0068C89.4183 97.8606 89.2281 97.8083 89.0231 97.8499C88.9167 97.8713 88.4662 98.1097 88.6445 98.2796L88.6986 98.1715H88.6992Z" fill="#7D72B3"/>
</g>
<g style="mix-blend-mode:multiply" opacity="0.4">
<path fill-rule="evenodd" clip-rule="evenodd" d="M115.838 93.7385C115.908 93.3748 115.916 93.1424 116.139 92.872C116.333 92.6367 116.546 92.4162 116.732 92.1749C117.074 91.7316 117.285 91.2086 117.413 90.6654C117.525 90.1858 117.408 89.7198 117.623 89.2563C117.674 89.1463 117.734 88.9377 117.85 88.8842C117.956 88.8355 118.173 88.8765 118.269 88.9342C118.367 88.9924 118.468 89.1196 118.551 89.1927C118.699 89.324 118.827 89.4702 118.961 89.6158C119.637 90.351 120.01 91.4487 120.005 92.4394C120.002 93.0212 119.939 93.559 119.746 94.1046C119.667 94.3269 119.586 94.5254 119.466 94.7286C119.318 94.9771 119.137 95.1262 118.896 95.2801C118.196 95.7277 117.179 95.5607 116.595 95.008C116.378 94.8029 116.278 94.5212 116.136 94.2799C116.025 94.0909 115.921 93.9192 115.882 93.6939C115.867 93.691 115.852 93.688 115.838 93.7385H115.838Z" fill="#7D72B3"/>
</g>
<g style="mix-blend-mode:multiply" opacity="0.4">
<path fill-rule="evenodd" clip-rule="evenodd" d="M115.838 86.116C115.953 86.5112 116.012 86.9426 116.417 87.1471C116.487 87.1821 116.637 87.2392 116.715 87.2434C116.818 87.2487 116.891 87.1899 116.972 87.131C117.398 86.8184 117.153 86.1017 116.866 85.7772C116.696 85.5864 116.502 85.524 116.267 85.4545C116.16 85.423 116.186 85.4141 116.095 85.4527C116.025 85.483 115.98 85.5157 115.944 85.5728C115.907 85.631 115.892 85.7237 115.889 85.7915C115.886 85.8675 115.861 85.9085 115.849 85.9656C115.819 86.1035 115.833 86.2128 115.891 86.3323L115.837 86.116H115.838Z" fill="#7D72B3"/>
</g>
<g style="mix-blend-mode:multiply" opacity="0.4">
<path fill-rule="evenodd" clip-rule="evenodd" d="M112.648 102.604C112.543 102.874 112.461 103.155 112.342 103.417C112.216 103.696 112.09 103.979 111.972 104.262C111.659 105.008 111.485 105.783 111.283 106.563C111.07 107.384 110.935 108.219 110.851 109.063C110.807 109.498 110.74 109.915 110.752 110.353C110.76 110.665 110.759 111.045 110.869 111.341C110.938 111.526 111.11 111.807 111.303 111.89C111.554 111.998 111.872 111.788 112.084 111.684C112.911 111.274 113.614 110.652 114.27 110.011C114.917 109.381 115.574 108.782 116.11 108.05C116.353 107.717 116.625 107.387 116.829 107.027C116.999 106.726 117.116 106.398 117.272 106.089C117.417 105.801 117.523 105.495 117.66 105.202C117.827 104.846 117.981 104.481 118.097 104.104C118.319 103.385 118.515 102.651 118.263 101.908C118.048 101.278 117.524 100.794 116.872 100.653C116.518 100.577 116.121 100.472 115.757 100.501C115.4 100.528 115.016 100.626 114.686 100.763C114.398 100.881 114.106 101.021 113.841 101.187C113.693 101.28 113.592 101.409 113.475 101.536C113.277 101.748 113.082 101.978 112.931 102.226C112.854 102.353 112.785 102.427 112.688 102.535C112.556 102.684 112.499 102.909 112.649 102.604H112.648Z" fill="#7D72B3"/>
</g>
<g style="mix-blend-mode:multiply" opacity="0.4">
<path fill-rule="evenodd" clip-rule="evenodd" d="M109.458 111.957C109.029 112.119 108.672 112.275 108.306 112.546C107.868 112.872 107.46 113.206 107.146 113.655C107.031 113.82 106.802 114.102 106.974 114.297C107.123 114.466 107.365 114.451 107.567 114.446C107.863 114.44 108.158 114.387 108.432 114.272C108.688 114.165 108.918 114.025 109.181 113.935C109.434 113.848 109.778 113.68 109.948 113.463C110.045 113.339 110.101 113.169 110.191 113.036C110.264 112.929 110.287 112.846 110.271 112.711C110.252 112.56 110.158 112.345 110.041 112.238C109.936 112.142 109.735 112.045 109.594 112.063C109.519 112.073 109.424 112.098 109.355 112.128C109.184 112.201 109.045 112.413 109.458 111.957Z" fill="#7D72B3"/>
</g>
<g style="mix-blend-mode:multiply" opacity="0.4">
<path fill-rule="evenodd" clip-rule="evenodd" d="M108.918 109.47C108.831 109.147 108.731 108.893 108.759 108.569C108.785 108.276 108.781 108.028 108.935 107.763C108.999 107.652 109.187 107.299 109.313 107.254C109.357 107.238 109.487 107.245 109.528 107.25C109.747 107.279 109.878 107.548 109.923 107.745C109.993 108.048 109.944 108.404 109.947 108.714C109.949 108.957 109.915 109.18 109.824 109.406C109.749 109.589 109.604 109.587 109.418 109.579C109.236 109.572 109.161 109.521 109.026 109.415C108.977 109.376 108.904 109.362 108.86 109.322C108.8 109.269 108.822 109.198 108.918 109.47Z" fill="#7D72B3"/>
</g>
<g style="mix-blend-mode:multiply" opacity="0.4">
<path fill-rule="evenodd" clip-rule="evenodd" d="M108.54 96.6577C108.502 96.8824 108.486 97.1082 108.493 97.3346C108.575 97.3346 108.66 97.4856 108.767 97.5123C108.917 97.5504 109.072 97.4571 109.188 97.3644C109.443 97.1605 109.514 96.773 109.457 96.4682C109.401 96.1692 109.056 96.1389 108.809 96.1698C108.726 96.1805 108.602 96.2191 108.537 96.2768C108.386 96.4099 108.373 96.571 108.377 96.7659L108.54 96.6577Z" fill="#7D72B3"/>
</g>
<g style="mix-blend-mode:multiply" opacity="0.4">
<path fill-rule="evenodd" clip-rule="evenodd" d="M89.1859 110.605C89.3238 110.366 89.4438 110.108 89.6204 109.896C89.8188 109.659 90.0441 109.406 90.2717 109.199C90.5558 108.94 90.885 108.701 91.1893 108.466C91.4716 108.247 91.7604 108.035 92.0635 107.845C92.5913 107.514 93.1363 107.296 93.7228 107.093C94.2001 106.929 94.7046 106.874 95.2015 106.975C95.712 107.08 96.2076 107.368 96.5832 107.723C96.944 108.064 97.3219 108.478 97.5436 108.927C97.9971 109.844 97.8218 110.837 97.5115 111.768C97.3731 112.183 97.0842 112.681 96.736 112.951C96.5381 113.104 96.2997 113.204 96.0585 113.258C95.7833 113.32 95.4713 113.414 95.1926 113.449C93.9713 113.604 92.7179 113.515 91.5578 113.088C91.0984 112.919 90.6473 112.711 90.2075 112.497C89.8581 112.327 89.5657 112.11 89.3333 111.798C89.1604 111.566 89.0136 111.29 89.0225 110.995C89.0266 110.862 89.0712 110.743 89.0879 110.614C89.1455 110.612 89.1936 110.576 89.1865 110.605L89.1859 110.605Z" fill="#7D72B3"/>
</g>
<g style="mix-blend-mode:multiply" opacity="0.4">
<path fill-rule="evenodd" clip-rule="evenodd" d="M98.3762 111.146C98.2907 111.369 98.2366 111.599 98.214 111.835C98.2966 111.883 98.2918 112.019 98.3536 112.094C98.4238 112.179 98.4987 112.223 98.6033 112.228C98.7114 112.234 98.8416 112.239 98.9485 112.223C99.1161 112.197 99.1524 112.135 99.2398 112.012C99.3372 111.873 99.3628 111.813 99.3509 111.629C99.3426 111.503 99.3075 111.37 99.2297 111.266C99.1809 111.2 99.0942 111.097 99.0264 111.048C98.8665 110.933 98.7465 110.998 98.5926 111.092L98.3762 111.146Z" fill="#7D72B3"/>
</g>
<g style="mix-blend-mode:multiply" opacity="0.4">
<path fill-rule="evenodd" clip-rule="evenodd" d="M118.378 100.604C118.192 100.458 118.037 100.285 117.916 100.086C117.933 100.004 117.93 99.9234 117.907 99.842C117.877 99.634 117.837 99.4646 117.88 99.2537C117.981 98.7598 118.409 98.3943 118.908 98.3378C119.236 98.3004 119.713 98.566 119.886 98.8323C120.07 99.1146 120.144 99.4944 120.159 99.8242C120.172 100.097 120.11 100.423 119.945 100.651C119.831 100.809 119.599 100.815 119.417 100.821C119.207 100.829 118.996 100.794 118.797 100.727C118.647 100.676 118.479 100.566 118.378 100.604Z" fill="#7D72B3"/>
</g>
</g>
<path style="mix-blend-mode:screen" fill-rule="evenodd" clip-rule="evenodd" d="M89.035 112.658C86.9389 110.903 85.2017 108.73 83.9531 106.268C83.1686 104.72 82.5779 103.06 82.2124 101.319C82.2088 101.316 82.2088 101.309 82.2088 101.302C81.9277 99.9514 81.7762 98.5512 81.7762 97.1166C81.7762 93.1139 82.9368 89.3829 84.9379 86.2384C85.7889 84.9018 86.7879 83.6781 87.9165 82.5805C91.5703 79.0283 96.5541 76.8407 102.051 76.8407C102.495 76.8407 102.93 76.8549 103.367 76.8829C104.742 76.9708 106.078 77.1984 107.363 77.5473C105.779 77.0279 104.107 76.6998 102.374 76.5887C101.938 76.5607 101.502 76.5465 101.059 76.5465C95.5611 76.5465 90.5778 78.7341 86.9234 82.2863C85.7943 83.3834 84.7958 84.6076 83.9448 85.9442C81.9438 89.0887 80.7831 92.8197 80.7831 96.8224C80.7831 98.257 80.934 99.6572 81.2157 101.007C81.2157 101.015 81.2157 101.022 81.2193 101.025C81.5848 102.766 82.1761 104.427 82.96 105.973C84.2087 108.435 85.9458 110.609 88.0419 112.364C90.2634 114.228 92.8861 115.62 95.7625 116.396C93.2742 115.585 90.998 114.306 89.0344 112.658H89.035Z" fill="url(#paint2_radial_905_5753)"/>
<g style="mix-blend-mode:multiply" opacity="0.4">
<path fill-rule="evenodd" clip-rule="evenodd" d="M83.1353 94.6412C83.1353 94.6412 94.4883 99.2733 100.649 98.9024C106.809 98.5316 109.432 95.0026 111.891 91.7803C114.351 88.5579 115.274 84.6783 115.274 84.6783C115.274 84.6783 110.607 93.6826 104.816 96.0664L101.485 96.7403C101.485 96.7403 103.22 95.4459 104.432 94.1301C105.644 92.8149 110.312 90.9013 110.75 89.3644C111.187 87.8275 111.134 85.3017 111.891 83.6858C112.647 82.0705 113.401 80.7363 113.401 80.7363L111.397 80.3904L110.457 82.603C110.457 82.603 110.193 86.277 109.474 88.2691C108.755 90.2612 101.727 95.714 100.145 96.6268C98.5629 97.5397 84.5628 95.6123 83.1347 94.6418L83.1353 94.6412Z" fill="#7D72B3"/>
</g>
<g style="mix-blend-mode:soft-light">
<g style="mix-blend-mode:multiply" opacity="0.4">
<path fill-rule="evenodd" clip-rule="evenodd" d="M103.389 114.058C103.431 114.042 104.165 113.711 104.376 113.726C104.465 113.732 104.558 113.805 104.625 113.842C104.821 113.951 104.947 114.114 104.925 114.342C104.893 114.668 104.537 115.093 104.147 115.235C103.663 115.411 103.153 115.189 102.982 114.87C102.808 114.546 103.25 113.951 103.736 113.941L103.389 114.058Z" fill="#7D72B3"/>
</g>
<path fill-rule="evenodd" clip-rule="evenodd" d="M93.8892 93.8823C93.6218 94.3394 92.9508 95.1767 93.1541 95.8311C93.2409 96.111 93.44 96.4022 93.5654 96.6672C93.9083 97.3929 94.5988 98.1215 95.4582 97.5961C96.4216 97.0072 96.0032 95.9339 95.5955 95.1506C95.4439 94.8594 95.2217 94.5004 94.9192 94.3364C94.7546 94.2472 94.4859 94.1539 94.3029 94.1177C93.9814 94.0541 94.2096 93.8479 93.8892 93.8823Z" fill="#FF9F84"/>
<path fill-rule="evenodd" clip-rule="evenodd" d="M100.376 78.9617C100.338 79.1976 100.331 79.4342 100.356 79.6695C100.431 79.6547 100.487 79.7236 100.566 79.7224C100.654 79.7212 100.782 79.6612 100.852 79.6131C101.002 79.5102 101.08 79.2981 101.079 79.1239C101.078 78.9433 101.062 78.7888 100.891 78.6889C100.686 78.5695 100.482 78.655 100.377 78.8535V78.9617H100.376Z" fill="#FFEF84"/>
<path fill-rule="evenodd" clip-rule="evenodd" d="M96.1054 101.018C96.1441 100.868 96.2029 100.461 96.3253 100.282C96.427 100.134 96.6136 100.051 96.7764 99.9965C97.1318 99.8789 97.4979 99.8937 97.7814 100.149C98.2782 100.597 98.2604 101.267 97.7861 101.725C97.5704 101.934 97.275 102.145 96.966 102.157C96.8138 102.163 96.6136 102.181 96.4828 102.104C96.3235 102.009 96.197 101.842 96.1441 101.669C96.0555 101.381 96.1102 101.162 96.2683 100.909L96.106 101.018L96.1054 101.018Z" fill="#FF9F84"/>
<path fill-rule="evenodd" clip-rule="evenodd" d="M92.3755 100.802C92.3755 101.028 92.2442 101.558 92.5693 101.663C92.7262 101.713 92.8926 101.504 92.9181 101.371C92.9437 101.237 92.9288 101.029 92.8765 100.91C92.7969 100.728 92.637 100.601 92.4837 100.802H92.3755Z" fill="#FF9F84"/>
<path fill-rule="evenodd" clip-rule="evenodd" d="M83.7255 96.8556C83.7528 97.2128 83.751 97.7352 83.9679 98.0639C84.0583 98.2006 84.148 98.3414 84.3198 98.3717C84.4713 98.3985 84.5581 98.3075 84.6443 98.1964C84.7964 97.9979 84.8178 97.8624 84.8083 97.6134C84.8006 97.3929 84.7316 97.1463 84.6324 96.9484C84.5599 96.8033 84.4357 96.6976 84.3204 96.5846C84.217 96.483 84.1427 96.461 83.9947 96.4765C83.7986 96.4973 83.8116 96.7326 83.7795 96.9097L83.7255 96.8556Z" fill="#FF9F84"/>
<path fill-rule="evenodd" clip-rule="evenodd" d="M113.783 95.1797C113.788 95.1458 113.829 94.5462 113.94 94.4113C113.987 94.3542 114.095 94.3168 114.159 94.2853C114.347 94.1926 114.551 94.1646 114.745 94.2573C115.022 94.3893 115.24 94.7708 115.187 95.0787C115.121 95.4596 114.688 95.7223 114.322 95.7271C113.951 95.7318 113.623 95.2362 113.836 94.9099L113.782 95.1803L113.783 95.1797Z" fill="#FF9F84"/>
<path fill-rule="evenodd" clip-rule="evenodd" d="M92.9372 99.9948C92.9396 99.9781 92.9598 99.678 93.0156 99.6102C93.0388 99.5817 93.0929 99.5633 93.1256 99.5472C93.2195 99.5009 93.3217 99.4872 93.4186 99.533C93.5571 99.599 93.6658 99.7897 93.6397 99.9437C93.607 100.134 93.3901 100.266 93.2076 100.268C93.0222 100.271 92.8582 100.023 92.9651 99.8593L92.9384 99.9942L92.9372 99.9948Z" fill="#FF9F84"/>
<path fill-rule="evenodd" clip-rule="evenodd" d="M102.173 103.698C102.175 103.682 102.195 103.382 102.251 103.314C102.274 103.285 102.328 103.267 102.361 103.251C102.455 103.205 102.557 103.191 102.654 103.237C102.793 103.303 102.901 103.493 102.875 103.647C102.842 103.838 102.626 103.969 102.443 103.972C102.258 103.974 102.094 103.726 102.201 103.563L102.174 103.698L102.173 103.698Z" fill="#FF9F84"/>
<path fill-rule="evenodd" clip-rule="evenodd" d="M108.405 87.3515C108.407 87.3349 108.427 87.0347 108.483 86.967C108.506 86.9385 108.56 86.92 108.593 86.904C108.687 86.8576 108.789 86.844 108.886 86.8897C109.024 86.9557 109.133 87.1465 109.107 87.3004C109.074 87.4912 108.857 87.6225 108.675 87.6249C108.49 87.6273 108.326 87.3794 108.433 87.216L108.406 87.3509L108.405 87.3515Z" fill="#FF9F84"/>
<path fill-rule="evenodd" clip-rule="evenodd" d="M95.696 111.076C95.6984 111.059 95.7186 110.759 95.7744 110.691C95.7976 110.662 95.8517 110.644 95.8844 110.628C95.9783 110.582 96.0805 110.568 96.1774 110.614C96.3158 110.68 96.4246 110.871 96.3985 111.024C96.3658 111.215 96.1488 111.347 95.9664 111.349C95.781 111.351 95.6169 111.103 95.7239 110.94L95.6966 111.075L95.696 111.076Z" fill="#FF9F84"/>
<path fill-rule="evenodd" clip-rule="evenodd" d="M112.432 100.262C112.124 100.454 111.934 100.54 111.751 100.823C111.614 101.033 111.465 101.227 111.358 101.456C111.273 101.637 111.169 101.91 111.185 102.114C111.226 102.647 111.888 102.179 112.079 102.017C112.334 101.799 112.577 101.503 112.596 101.158C112.604 101.022 112.608 100.871 112.555 100.745C112.531 100.69 112.503 100.626 112.475 100.573C112.413 100.455 112.359 100.453 112.432 100.262V100.262Z" fill="#FF9F84"/>
<path fill-rule="evenodd" clip-rule="evenodd" d="M118.919 102.586C118.943 102.351 118.824 103.199 118.872 103.236C118.948 103.237 119.034 103.248 119.108 103.237C119.213 103.222 119.242 103.168 119.324 103.105C119.493 102.975 119.616 102.899 119.622 102.667C119.627 102.476 119.593 102.36 119.405 102.303C119.323 102.278 119.283 102.245 119.193 102.27C119.01 102.323 118.883 102.477 118.81 102.64L118.918 102.586H118.919Z" fill="#FF9F84"/>
<path fill-rule="evenodd" clip-rule="evenodd" d="M101.689 79.0728C101.705 78.9136 101.625 79.4883 101.657 79.5132C101.708 79.5144 101.767 79.5215 101.817 79.5138C101.888 79.5031 101.907 79.4675 101.963 79.4241C102.077 79.3361 102.16 79.2844 102.164 79.1275C102.168 78.998 102.145 78.9195 102.018 78.8803C101.962 78.863 101.935 78.8405 101.874 78.8583C101.75 78.8939 101.664 78.998 101.615 79.1091L101.688 79.0722L101.689 79.0728Z" fill="#FFEF84"/>
<path fill-rule="evenodd" clip-rule="evenodd" d="M112.673 95.6147C112.69 95.4554 112.609 96.0301 112.641 96.0551C112.693 96.0563 112.751 96.0634 112.801 96.0557C112.873 96.045 112.892 96.0093 112.948 95.966C113.062 95.878 113.145 95.8263 113.15 95.6694C113.153 95.5398 113.13 95.4614 113.003 95.4228C112.947 95.4055 112.92 95.3829 112.859 95.4008C112.735 95.4364 112.649 95.5404 112.6 95.6516L112.673 95.6147H112.673Z" fill="#FFEF84"/>
<path fill-rule="evenodd" clip-rule="evenodd" d="M101.09 111.398C101.25 111.398 100.67 111.377 100.649 111.412C100.653 111.463 100.652 111.522 100.665 111.571C100.683 111.641 100.721 111.656 100.77 111.708C100.869 111.813 100.929 111.89 101.085 111.878C101.215 111.868 101.29 111.837 101.316 111.706C101.327 111.649 101.347 111.62 101.323 111.561C101.275 111.442 101.162 111.367 101.047 111.329L101.091 111.398H101.09Z" fill="#FFEF84"/>
<path fill-rule="evenodd" clip-rule="evenodd" d="M91.8722 94.0041C91.8882 93.8449 91.808 94.4196 91.8401 94.4445C91.8912 94.4457 91.9501 94.4528 92 94.4451C92.0713 94.4344 92.0903 94.3988 92.1462 94.3554C92.2603 94.2674 92.3435 94.2157 92.3476 94.0588C92.3512 93.9293 92.328 93.8508 92.2009 93.8116C92.145 93.7944 92.1182 93.7718 92.057 93.7896C91.9334 93.8253 91.8472 93.9293 91.7979 94.0404L91.871 94.0035L91.8722 94.0041Z" fill="#FFEF84"/>
<path fill-rule="evenodd" clip-rule="evenodd" d="M100.781 109.678C100.805 109.444 100.686 110.292 100.734 110.329C100.809 110.33 100.896 110.34 100.97 110.33C101.075 110.314 101.104 110.261 101.186 110.197C101.355 110.067 101.477 109.991 101.484 109.76C101.489 109.568 101.455 109.453 101.267 109.395C101.184 109.37 101.145 109.337 101.055 109.363C100.872 109.416 100.745 109.569 100.672 109.732L100.78 109.678H100.781Z" fill="#FF9F84"/>
</g>
<path fill-rule="evenodd" clip-rule="evenodd" d="M89.4563 96.3267C96.0246 97.3655 95.6193 99.0991 103.242 97.0226C110.864 94.9461 116.323 83.4796 116.323 83.4796C116.323 83.4796 116.704 82.631 116.381 82.1311C116.253 81.932 115.253 82.3451 115.253 82.3451C115.425 86.0256 110.275 93.6256 104.458 95.8144C103.837 96.048 103.21 96.1294 102.626 96.2607C102.352 96.1229 101.678 95.5018 104.863 93.3427C108.61 90.8026 110.296 89.8547 109.949 87.2142C109.602 84.5737 112.936 80.3898 112.936 80.3898C112.936 80.3898 113.177 79.2767 112.546 78.5831C111.735 77.6911 109.949 78.5968 109.949 78.5968C109.949 78.5968 109.485 83.7738 102.917 86.5706C96.3485 89.368 92.6994 87.9791 90.1855 87.2136C87.6716 86.4482 86.9234 82.2857 86.9234 82.2857C86.9234 82.2857 84.7952 81.8435 84.0232 83.2003C83.4556 84.1975 84.2787 85.4373 84.2787 85.4373C84.2787 85.4373 88.2398 86.8725 91.8074 88.2418C95.3756 89.6105 102.187 88.3844 104.619 87.2136C107.052 86.0429 107.052 84.1738 108.998 82.4729C109.803 81.7698 110.612 81.2944 111.289 80.9758C111.289 80.9758 109.16 84.2588 109.404 86.5706C109.647 88.8818 108.187 88.8004 104.619 92.8548C102.116 95.7003 99.9303 96.6013 98.8469 96.8871C96.0989 97.1361 93.604 96.8271 90.1855 95.9C84.6716 94.4047 81.3601 92.0073 81.3601 92.0073C81.3601 92.0073 80.8805 91.7791 80.6981 92.3068C80.6208 92.5303 81.1129 93.1579 81.1129 93.1579C81.1129 93.1579 82.8875 95.2867 89.4557 96.3255L89.4563 96.3267Z" fill="url(#paint3_linear_905_5753)"/>
<path fill-rule="evenodd" clip-rule="evenodd" d="M94.0729 115.759C94.0729 115.759 92.4564 114.751 91.2398 111.629C90.0233 108.506 90.1855 108.71 87.9153 106.743C85.645 104.776 81.6953 102.841 81.6953 102.841C81.6953 102.841 81.4285 102.933 81.4279 103.013C81.4279 103.418 81.8968 103.465 81.8968 103.465C81.8968 103.465 85.582 105.045 87.8838 107.587C90.1855 110.129 92.6727 114.639 90.9023 114.37C90.9023 114.37 91.3004 115.501 92.2335 115.76C93.1683 116.021 94.0729 115.76 94.0729 115.76V115.759Z" fill="url(#paint4_radial_905_5753)"/>
<path d="M110.215 100.653C110.968 99.848 111.879 98.7651 115.569 98.7437C119.258 98.7182 121.154 99.5353 121.154 99.5353C121.154 99.5353 121.913 99.322 121.994 98.3349C122.074 97.3584 121.33 96.8604 121.33 96.8604C121.291 97.1688 120.919 99.1972 117.786 97.9943C117.786 97.9646 118.894 96.9584 119.134 94.9128C119.377 92.8369 120.118 89.8928 120.118 89.8928C120.118 89.8928 120.554 89.1653 120.27 88.5776C120.177 88.3844 119.459 88.2964 119.459 88.2964C120.079 92.4352 118.513 97.4208 116.809 97.9943C114.742 98.0199 112.221 98.3794 111.078 99.1324C109.675 100.061 108.267 104.259 107.363 107.213C107.136 107.945 106.675 108.741 106.084 109.536C103.824 110.08 104.539 107.371 103.563 106.536C102.591 105.706 100.726 106.151 99.5096 105.702C98.2943 105.253 97.9692 104.29 96.6724 104.135C95.3756 103.981 93.33 106.395 90.9974 105.398C88.6659 104.402 80.8556 95.1529 80.8556 95.1529C80.8556 95.1529 80.1513 94.9836 80.0093 95.4703C79.9005 95.8441 80.7831 96.8223 80.7831 96.8223C80.7831 96.8223 86.2138 105.018 91.4009 106.084C96.5922 107.15 101.296 106.152 102.918 107.56C104.531 108.964 104.656 111.207 104.656 111.224C102.97 113.012 100.988 114.553 100.05 115.024C98.4286 115.842 95.7619 116.398 95.7619 116.398C96.1256 116.818 96.8578 117.154 97.6465 117.365C98.784 117.669 99.5108 117.096 99.5108 117.096C99.5108 117.096 98.8517 116.522 99.7117 115.803C101.903 113.98 103.456 113.184 105.729 112.645C107.107 112.319 107.518 112.944 107.715 112.743V112.747C109.833 113.42 111.511 111.832 113.334 110.372C115.153 108.917 117.489 108.703 117.489 108.703C117.489 108.703 118.699 108.499 119.012 107.966C119.298 107.479 118.623 106.949 118.623 106.949C118.623 106.949 117.591 107.372 115.649 108.357C113.701 109.341 111.617 112.204 109.242 112.114C107.932 112.067 108.206 110.74 108.082 110.553C108.082 110.459 108.086 110.364 108.082 110.27V110.266C108.043 109.303 107.842 108.43 107.842 107.733C107.842 107.553 107.855 107.386 107.889 107.232C108.107 106.2 109.46 101.458 110.213 100.654L110.215 100.653ZM106.081 109.546C105.665 110.106 105.186 110.663 104.677 111.202L106.081 109.546ZM107.9 110.979C107.93 111.202 107.973 111.42 107.939 111.643C107.926 111.758 107.904 111.852 107.793 111.891C107.729 111.912 107.656 111.921 107.592 111.938C107.489 111.963 107.391 112.002 107.288 112.015C107.13 112.037 106.954 112.019 106.796 112.019C106.625 112.019 106.441 112.037 106.27 112.015C106.188 112.002 106.107 111.985 106.026 111.972C105.945 111.959 105.834 111.955 105.761 111.912C105.586 111.814 105.483 111.63 105.35 111.587C105.364 111.433 105.355 111.296 105.419 111.159C105.436 111.108 105.453 111.057 105.466 111.005C105.495 110.916 105.53 110.834 105.569 110.749C105.662 110.531 105.757 110.321 105.894 110.128C105.958 110.03 106.022 109.932 106.082 109.829C106.155 109.718 106.253 109.632 106.347 109.538C106.484 109.401 106.617 109.277 106.788 109.182C106.921 109.11 107.135 109.007 107.284 109.062C107.438 109.113 107.502 109.315 107.562 109.451C107.605 109.55 107.618 109.657 107.648 109.764C107.682 109.896 107.742 110.017 107.772 110.153C107.807 110.303 107.807 110.457 107.836 110.607C107.862 110.731 107.879 110.855 107.901 110.979H107.9Z" fill="url(#paint5_linear_905_5753)"/>
<path fill-rule="evenodd" clip-rule="evenodd" d="M84.8107 82.7593C84.8107 82.7593 85.7259 84.6403 88.0775 86.3352C88.0775 86.3352 87.2972 83.6068 86.7344 82.4735C86.7344 82.4735 85.9624 81.746 84.8101 82.7593H84.8107Z" fill="#FFFF0E"/>
<path fill-rule="evenodd" clip-rule="evenodd" d="M97.1419 88.4968C97.1419 88.4968 98.7418 87.8525 99.238 88.0938C99.238 88.0938 97.7059 88.5176 97.1419 88.4968Z" fill="#FFFF0E"/>
<path fill-rule="evenodd" clip-rule="evenodd" d="M102.491 87.0163C102.779 86.9236 103.072 86.8386 103.354 86.7287C103.603 86.6306 103.84 86.5171 104.074 86.387C104.37 86.2217 104.659 86.0405 104.926 85.8331C104.995 85.7796 105.075 85.7451 105.147 85.6958C105.23 85.6381 105.312 85.5716 105.393 85.511C105.465 85.4569 105.522 85.382 105.591 85.3232C105.66 85.2643 105.731 85.2067 105.802 85.1514C105.924 85.0575 106.051 84.9541 106.162 84.8477C106.216 84.7966 106.267 84.7419 106.325 84.6944C106.364 84.6617 106.397 84.6516 106.442 84.6326C106.459 84.6694 106.415 84.7568 106.4 84.7924C106.367 84.8709 106.314 84.9285 106.273 85.0004C106.177 85.1639 106.021 85.2685 105.904 85.4153C105.826 85.5133 105.72 85.5888 105.616 85.6595C105.471 85.7582 105.304 85.8426 105.148 85.9234C104.99 86.006 104.821 86.0553 104.666 86.1457C104.518 86.2312 104.372 86.2978 104.219 86.3679C104.118 86.4143 104.025 86.4844 103.929 86.5415C103.847 86.5902 103.766 86.6383 103.685 86.6865C103.564 86.759 103.447 86.8297 103.322 86.8963C103.255 86.9313 103.187 86.9605 103.122 86.9961C102.973 87.0775 102.799 87.1399 102.629 87.1388C102.566 87.1388 102.509 87.1447 102.451 87.1185C102.426 87.1073 102.376 87.0924 102.374 87.0621C102.415 87.0591 102.451 87.0056 102.492 87.0169L102.491 87.0163Z" fill="#FFFF0E"/>
<path fill-rule="evenodd" clip-rule="evenodd" d="M106.809 84.2391C106.734 84.2772 106.669 84.3271 106.615 84.3895C106.615 84.4341 106.59 84.4852 106.668 84.4828C106.751 84.4804 106.809 84.4287 106.861 84.3705C106.888 84.3408 106.943 84.2516 106.911 84.2094C106.871 84.1565 106.761 84.2296 106.729 84.2594L106.809 84.2391Z" fill="#FFFF0E"/>
<path fill-rule="evenodd" clip-rule="evenodd" d="M110.236 78.7252C110.177 78.803 110.092 78.894 110.054 78.9908C110.025 79.0633 110 79.1382 109.972 79.2113C109.917 79.3551 109.886 79.5037 109.84 79.6493C109.757 79.915 109.693 80.1848 109.587 80.4445C109.539 80.5622 109.481 80.6739 109.424 80.7874C109.394 80.848 109.349 80.9033 109.322 80.9651C109.298 81.0204 109.266 81.0662 109.241 81.1202C109.218 81.1713 109.21 81.2236 109.177 81.27C109.137 81.3253 109.112 81.3782 109.08 81.437C109.054 81.4845 108.95 81.6016 108.981 81.6628C109.013 81.6682 109.043 81.6195 109.062 81.5998C109.12 81.5404 109.187 81.4929 109.247 81.4364C109.36 81.33 109.46 81.2088 109.567 81.0971C109.613 81.0483 109.645 80.9907 109.686 80.939C109.746 80.8647 109.817 80.8041 109.875 80.7274C109.968 80.602 110.071 80.4825 110.175 80.3667C110.227 80.3084 110.264 80.2395 110.315 80.1794C110.362 80.1248 110.415 80.076 110.463 80.0231C110.616 79.855 110.778 79.6939 110.926 79.521C111.043 79.3831 111.154 79.2345 111.255 79.0836C111.334 78.9641 111.406 78.8435 111.479 78.7181C111.508 78.6681 111.573 78.5475 111.55 78.4857C111.521 78.4072 111.428 78.3751 111.355 78.3638C111.242 78.3472 111.095 78.3448 110.985 78.3716C110.861 78.4019 110.751 78.4482 110.634 78.497C110.529 78.541 110.442 78.6188 110.342 78.6687C110.269 78.705 110.186 78.7394 110.236 78.7246V78.7252Z" fill="#FFFF0E"/>
<path fill-rule="evenodd" clip-rule="evenodd" d="M111.29 81.1576C111.257 81.2266 111.215 81.3413 111.165 81.4114C111.119 81.475 111.076 81.5338 111.036 81.6016C110.967 81.7193 110.901 81.8387 110.833 81.957C110.709 82.1727 110.553 82.3718 110.458 82.6024C110.421 82.6933 110.381 82.7825 110.337 82.8698C110.29 82.962 110.268 83.0624 110.236 83.1599C110.203 83.2555 110.192 83.3518 110.17 83.4499C110.152 83.5289 110.116 83.6038 110.138 83.6858C110.215 83.5854 110.271 83.4737 110.342 83.3679C110.392 83.2936 110.431 83.2169 110.499 83.1569C110.567 83.0963 110.621 83.0303 110.681 82.9626C110.741 82.896 110.8 82.8276 110.845 82.7504C110.886 82.6791 110.913 82.6048 110.961 82.537C111.006 82.4734 111.038 82.4003 111.08 82.3344C111.129 82.2565 111.179 82.1799 111.21 82.0919C111.269 81.9261 111.328 81.7508 111.372 81.5808C111.393 81.5012 111.406 81.393 111.392 81.3098C111.381 81.245 111.277 81.0626 111.29 81.1582V81.1576Z" fill="#FFFF0E"/>
<path fill-rule="evenodd" clip-rule="evenodd" d="M109.891 83.9355C109.859 84.043 109.818 84.1643 109.793 84.276C109.788 84.3039 109.777 84.3634 109.801 84.3806C109.826 84.3996 109.888 84.3741 109.907 84.3562C109.929 84.336 109.941 84.3069 109.957 84.2807C109.99 84.2273 110.029 84.1435 110.013 84.0763C109.997 84.0038 109.93 83.9414 109.87 84.0163L109.89 83.9355H109.891Z" fill="#FFFF0E"/>
<path fill-rule="evenodd" clip-rule="evenodd" d="M107.762 89.8143C107.533 90.0336 107.269 90.2268 107.083 90.4853C107.066 90.5102 106.972 90.6178 106.994 90.663C107.02 90.7141 107.127 90.6802 107.161 90.6683C107.293 90.6238 107.426 90.5512 107.551 90.4882C107.646 90.4401 107.735 90.3789 107.825 90.3212C108.034 90.1875 108.21 90.0092 108.37 89.8203C108.439 89.7394 108.514 89.6497 108.552 89.5492C108.563 89.5213 108.605 89.4411 108.595 89.4078C108.562 89.2967 108.296 89.4143 108.243 89.4488C108.181 89.4892 108.126 89.5451 108.068 89.592C108.02 89.6313 107.974 89.6639 107.924 89.6972C107.882 89.7252 107.844 89.7626 107.803 89.7929C107.761 89.825 107.731 89.8975 107.763 89.8143H107.762Z" fill="#FFFF0E"/>
<path fill-rule="evenodd" clip-rule="evenodd" d="M106.729 90.8686C106.651 90.9049 106.574 90.9423 106.496 90.9804C106.496 91.016 106.4 91.0814 106.448 91.1289C106.474 91.1551 106.56 91.1206 106.586 91.1123C106.642 91.0933 106.672 91.054 106.714 91.0148C106.756 90.9744 106.752 90.9584 106.729 90.909V90.8686Z" fill="#FFFF0E"/>
<path fill-rule="evenodd" clip-rule="evenodd" d="M101.484 95.8828C101.3 96.023 101.098 96.1538 100.891 96.2625C100.647 96.3915 100.386 96.4895 100.146 96.6256C99.7717 96.8372 99.3759 96.9965 98.9842 97.1694C98.9218 97.1968 98.3465 97.4226 98.5635 97.5385C98.6639 97.592 98.7643 97.5807 98.8737 97.5837C98.9634 97.586 99.0502 97.6098 99.1399 97.6134C99.2315 97.6169 99.3242 97.6122 99.4157 97.6128C99.8858 97.6164 100.381 97.504 100.81 97.3144C100.906 97.2722 101.024 97.2402 101.111 97.1801C101.165 97.1439 101.215 97.0886 101.262 97.044C101.357 96.9561 101.427 96.8556 101.486 96.7392C101.569 96.5739 101.627 96.42 101.62 96.2328C101.618 96.1657 101.596 96.0842 101.549 96.0319C101.51 95.9891 101.464 95.9767 101.484 95.881L101.484 95.8828Z" fill="#FFFF0E"/>
<path fill-rule="evenodd" clip-rule="evenodd" d="M98.1326 97.315C98.0274 97.2633 97.9086 97.1837 97.7939 97.1783C97.7528 97.1766 97.7148 97.1837 97.675 97.192C97.587 97.2104 97.448 97.2211 97.3808 97.2877C97.2786 97.3893 97.4973 97.4701 97.5787 97.4904C97.6762 97.5147 97.8147 97.5171 97.9175 97.504C98.0001 97.4933 98.1653 97.4214 98.1653 97.3186C98.1724 97.3168 98.1802 97.3156 98.1873 97.3138H98.1332L98.1326 97.315Z" fill="#FFFF0E"/>
<path fill-rule="evenodd" clip-rule="evenodd" d="M104.35 96.0177C104.788 95.8863 105.201 95.708 105.61 95.503C105.768 95.4233 105.924 95.333 106.074 95.2397C106.172 95.1791 106.269 95.1006 106.371 95.0489C106.414 95.0275 106.666 94.8802 106.701 94.9509C106.746 95.0424 106.471 95.2254 106.431 95.2599C106.327 95.3526 106.213 95.4245 106.099 95.5048C106.004 95.5725 105.898 95.6064 105.797 95.664C105.664 95.7401 105.53 95.8061 105.389 95.8655C105.284 95.9095 105.177 95.9624 105.068 95.9903C104.984 96.0123 104.9 96.0456 104.816 96.0652C104.753 96.0795 104.689 96.061 104.626 96.0765C104.548 96.0955 104.402 96.1335 104.349 96.0165L104.35 96.0177Z" fill="#FFFF0E"/>
<path fill-rule="evenodd" clip-rule="evenodd" d="M113.905 98.3694C114.117 98.3694 114.372 98.3913 114.591 98.3604C114.751 98.3379 114.91 98.3034 115.07 98.2885C115.385 98.2588 115.695 98.178 116.012 98.1661C116.138 98.1613 116.265 98.1673 116.39 98.1673C116.459 98.1673 116.556 98.1501 116.624 98.1649C116.653 98.1715 116.734 98.2125 116.755 98.2356C116.831 98.3176 116.758 98.3058 116.705 98.3355C116.592 98.3997 116.505 98.452 116.373 98.4799C116.174 98.5221 115.978 98.5756 115.776 98.6047C115.637 98.6243 115.498 98.5999 115.36 98.6219C115.175 98.6511 114.998 98.654 114.811 98.6534C114.658 98.6534 114.506 98.6528 114.354 98.6534C114.238 98.654 114.144 98.632 114.031 98.6166C113.936 98.6035 113.879 98.6219 113.798 98.5774C113.761 98.5566 113.702 98.4995 113.905 98.3699V98.3694Z" fill="#FFFF0E"/>
<path fill-rule="evenodd" clip-rule="evenodd" d="M119.013 98.572C119.285 98.5964 119.452 98.6291 119.698 98.5833C119.857 98.553 120.02 98.5274 120.18 98.5013C120.41 98.4638 120.656 98.3551 120.853 98.2279C120.963 98.1572 121.184 98.0033 121.327 98.0437C121.437 98.0752 121.562 98.2089 121.571 98.3301C121.581 98.4817 121.411 98.6059 121.306 98.6891C121.124 98.8335 120.853 98.8858 120.626 98.8989C120.349 98.9149 120.081 98.8763 119.812 98.8157C119.73 98.7973 119.648 98.7729 119.566 98.7545C119.494 98.7384 119.345 98.758 119.013 98.5726V98.572Z" fill="#FFFF0E"/>
<path fill-rule="evenodd" clip-rule="evenodd" d="M119.621 88.5574C119.604 88.7416 119.49 89.198 119.722 89.3466C119.846 89.4257 119.904 89.2176 119.906 89.1237C119.909 88.9882 119.822 88.634 119.662 88.5978L119.621 88.5574Z" fill="#FFFF0E"/>
<path fill-rule="evenodd" clip-rule="evenodd" d="M81.4012 92.7472C81.5937 92.9944 81.7358 93.2512 82.0026 93.4063C82.1583 93.4966 82.3093 93.6024 82.4834 93.6547C82.6456 93.7041 82.8542 93.7593 83.0236 93.7207C83.1151 93.6999 83.1389 93.7308 83.1347 93.6125C83.133 93.5602 83.0937 93.4907 83.0658 93.4491C83.0105 93.3647 82.9255 93.3112 82.8602 93.2357C82.7835 93.1466 82.7377 93.061 82.6438 92.9879C82.333 92.7448 82.043 92.5422 81.6668 92.4209C81.5313 92.3776 81.5218 92.3615 81.4023 92.4358C81.3079 92.4952 81.3043 92.4709 81.2906 92.582C81.2728 92.7294 81.3792 92.8471 81.4546 92.9624L81.4006 92.746L81.4012 92.7472Z" fill="#FFFF0E"/>
<path fill-rule="evenodd" clip-rule="evenodd" d="M81.5634 96.7475C81.8784 97.2491 82.2373 97.7067 82.6183 98.1596C82.8875 98.4805 83.0509 98.8864 83.3582 99.1812C83.4093 99.2299 83.9478 99.6935 83.9418 99.426C83.9406 99.3648 83.7879 99.1253 83.7546 99.0718C83.6649 98.925 83.565 98.7705 83.4551 98.638C83.3647 98.5292 83.2601 98.4222 83.1835 98.3016C83.1015 98.172 83.0319 98.0948 82.9279 97.9795C82.7978 97.8345 82.7276 97.6526 82.6124 97.4975C82.5054 97.3537 82.396 97.217 82.2926 97.0702C82.1541 96.8741 82.0109 96.6548 81.791 96.5722C81.7334 96.5508 81.6454 96.4872 81.5723 96.5407C81.4552 96.6268 81.5485 96.9198 81.5628 96.7475H81.5634Z" fill="#FFFF0E"/>
<path fill-rule="evenodd" clip-rule="evenodd" d="M101.079 106.262C101.532 106.181 101.899 106.11 102.345 106.214C102.563 106.265 102.784 106.333 102.998 106.397C103.137 106.439 103.347 106.479 103.447 106.583C103.553 106.691 103.516 106.886 103.42 106.981C103.288 107.113 102.996 107.084 102.832 107.069C102.495 107.037 102.173 106.996 101.849 106.898C101.665 106.842 101.409 106.751 101.255 106.629C101.184 106.573 100.999 106.418 101.08 106.262H101.079Z" fill="#FFFF0E"/>
<path fill-rule="evenodd" clip-rule="evenodd" d="M107.296 108.695C107.067 108.644 107.048 108.235 107.111 108.071C107.147 107.979 107.205 107.829 107.308 107.787C107.413 107.744 107.45 107.817 107.539 107.849C107.444 108.054 107.327 108.246 107.188 108.425L107.296 108.695V108.695Z" fill="#FFFF0E"/>
<path fill-rule="evenodd" clip-rule="evenodd" d="M115.838 108.533C116.139 108.336 116.344 108.197 116.673 108.1C116.84 108.05 117.013 108.029 117.18 107.979C117.375 107.92 117.572 107.827 117.773 107.787C117.846 107.772 117.916 107.777 117.988 107.764C118.069 107.75 118.029 107.71 118.121 107.761C118.291 107.853 118.214 107.978 118.104 108.071C117.894 108.249 117.716 108.319 117.445 108.383C117.293 108.418 117.172 108.504 117.026 108.549C116.937 108.577 116.845 108.591 116.756 108.615C116.424 108.702 116.02 108.641 115.837 108.533L115.838 108.533Z" fill="#FFFF0E"/>
<path fill-rule="evenodd" clip-rule="evenodd" d="M88.591 107.83C88.7812 108.223 88.9405 108.6 89.1883 108.954C89.2994 109.113 89.3838 109.268 89.5639 109.344C89.7065 109.405 89.8034 109.428 89.823 109.234C89.8331 109.133 89.7499 108.988 89.6947 108.89C89.5354 108.606 89.3084 108.36 89.1194 108.1C89.0457 107.999 88.9429 107.863 88.8472 107.786C88.7782 107.73 88.5738 107.666 88.5904 107.829L88.591 107.83Z" fill="#FFFF0E"/>
<path fill-rule="evenodd" clip-rule="evenodd" d="M96.5381 116.48C96.9951 116.384 97.3915 116.242 97.8247 116.085C98.0042 116.02 98.1825 116.02 98.3644 115.981C98.381 115.977 98.4012 115.942 98.4262 115.936C98.4708 115.925 98.545 115.939 98.5926 115.939C98.6401 115.939 98.8469 115.911 98.888 115.941C99.0567 116.065 98.696 116.393 98.6181 116.475C98.321 116.788 97.8289 116.96 97.3915 116.915C97.1704 116.893 96.9695 116.774 96.755 116.75C96.6177 116.735 96.3152 116.684 96.3289 116.489C96.3449 116.486 96.3604 116.483 96.5387 116.48H96.5381Z" fill="#FFFF0E"/>
<path fill-rule="evenodd" clip-rule="evenodd" d="M104.377 111.884C103.973 112.16 103.528 112.399 103.238 112.804C103.038 113.085 103.404 113.027 103.566 112.965C103.701 112.914 103.802 112.864 103.92 112.781C104.026 112.708 104.085 112.634 104.173 112.545C104.237 112.48 104.319 112.428 104.378 112.359C104.437 112.287 104.461 112.133 104.53 112.085C104.518 112.054 104.505 112.025 104.486 111.992L104.378 111.884L104.377 111.884Z" fill="#FFFF0E"/>
<path fill-rule="evenodd" clip-rule="evenodd" d="M93.3485 105.667C93.6427 105.543 93.9351 105.439 94.2096 105.291C94.4652 105.155 94.7106 105.013 94.9709 104.884C95.3049 104.718 95.6657 104.485 96.0532 104.476C96.1988 104.473 96.295 104.403 96.43 104.463C96.5375 104.512 96.6183 104.555 96.6867 104.652C96.884 104.933 96.4929 105.203 96.279 105.347C96.115 105.458 95.9646 105.593 95.7816 105.67C95.567 105.761 95.3364 105.802 95.1195 105.883C94.76 106.016 94.3778 106.164 93.9951 106.211C93.7966 106.236 93.6147 106.163 93.4555 106.06C93.3752 106.007 93.2938 105.937 93.2403 105.857C93.1904 105.783 93.1589 105.661 93.3491 105.668L93.3485 105.667Z" fill="#FFFF0E"/>
<path style="mix-blend-mode:screen" d="M102.431 99.7767C106.1 98.2413 108.276 95.0897 107.291 92.7374C106.307 90.3851 102.535 89.7229 98.8659 91.2583C95.1971 92.7938 93.021 95.9454 94.0055 98.2977C94.99 100.65 98.7621 101.312 102.431 99.7767Z" fill="url(#paint6_radial_905_5753)"/>
</g>
<defs>
<filter id="filter0_d_905_5753" x="0" y="0.545868" width="202" height="200.908" filterUnits="userSpaceOnUse" color-interpolation-filters="sRGB">
<feFlood flood-opacity="0" result="BackgroundImageFix"/>
<feColorMatrix in="SourceAlpha" type="matrix" values="0 0 0 0 0 0 0 0 0 0 0 0 0 0 0 0 0 0 127 0" result="hardAlpha"/>
<feOffset dy="4"/>
<feGaussianBlur stdDeviation="40"/>
<feComposite in2="hardAlpha" operator="out"/>
<feColorMatrix type="matrix" values="0 0 0 0 0.682353 0 0 0 0 0.25098 0 0 0 0 0.364706 0 0 0 1 0"/>
<feBlend mode="normal" in2="BackgroundImageFix" result="effect1_dropShadow_905_5753"/>
<feBlend mode="normal" in="SourceGraphic" in2="effect1_dropShadow_905_5753" result="shape"/>
</filter>
<radialGradient id="paint0_radial_905_5753" cx="0" cy="0" r="1" gradientUnits="userSpaceOnUse" gradientTransform="translate(88.5019 87.339) scale(32.5697 32.5697)">
<stop stop-color="#DE6863"/>
<stop offset="0.2" stop-color="#DA6562"/>
<stop offset="0.35" stop-color="#D15D61"/>
<stop offset="0.49" stop-color="#C04F60"/>
<stop offset="0.62" stop-color="#A93B5D"/>
<stop offset="0.74" stop-color="#8B225A"/>
<stop offset="0.86" stop-color="#660357"/>
<stop offset="0.87" stop-color="#630057"/>
</radialGradient>
<linearGradient id="paint1_linear_905_5753" x1="80.783" y1="91.2603" x2="109.949" y2="91.2603" gradientUnits="userSpaceOnUse">
<stop offset="0.01" stop-color="#FF7D85"/>
<stop offset="0.3" stop-color="#FC7B83"/>
<stop offset="0.51" stop-color="#F2747E"/>
<stop offset="0.7" stop-color="#E26A77"/>
<stop offset="0.87" stop-color="#CC5C6C"/>
<stop offset="1" stop-color="#B54D61"/>
</linearGradient>
<radialGradient id="paint2_radial_905_5753" cx="0" cy="0" r="1" gradientUnits="userSpaceOnUse" gradientTransform="translate(86.2418 83.022) scale(26.6873 26.6873)">
<stop stop-color="#FFFF4A"/>
<stop offset="1"/>
</radialGradient>
<linearGradient id="paint3_linear_905_5753" x1="80.6903" y1="88.0932" x2="116.511" y2="88.0932" gradientUnits="userSpaceOnUse">
<stop stop-color="#FFB80B"/>
<stop offset="0.39" stop-color="#FEB50C"/>
<stop offset="0.58" stop-color="#FDAE10"/>
<stop offset="0.73" stop-color="#FCA017"/>
<stop offset="0.85" stop-color="#F98E21"/>
<stop offset="0.97" stop-color="#F7762E"/>
<stop offset="1" stop-color="#F66D33"/>
</linearGradient>
<radialGradient id="paint4_radial_905_5753" cx="0" cy="0" r="1" gradientUnits="userSpaceOnUse" gradientTransform="translate(83.8348 106.31) scale(10.2981 10.2981)">
<stop stop-color="#FFB80B"/>
<stop offset="0.39" stop-color="#FEB50C"/>
<stop offset="0.58" stop-color="#FDAE10"/>
<stop offset="0.73" stop-color="#FCA017"/>
<stop offset="0.85" stop-color="#F98E21"/>
<stop offset="0.97" stop-color="#F7762E"/>
<stop offset="1" stop-color="#F66D33"/>
</radialGradient>
<linearGradient id="paint5_linear_905_5753" x1="79.9998" y1="102.875" x2="122" y2="102.875" gradientUnits="userSpaceOnUse">
<stop stop-color="#FFB80B"/>
<stop offset="0.39" stop-color="#FEB50C"/>
<stop offset="0.58" stop-color="#FDAE10"/>
<stop offset="0.73" stop-color="#FCA017"/>
<stop offset="0.85" stop-color="#F98E21"/>
<stop offset="0.97" stop-color="#F7762E"/>
<stop offset="1" stop-color="#F66D33"/>
</linearGradient>
<radialGradient id="paint6_radial_905_5753" cx="0" cy="0" r="1" gradientUnits="userSpaceOnUse" gradientTransform="translate(100.8 95.4912) rotate(-22.71) scale(7.2144 4.6224)">
<stop stop-color="#FF5B00"/>
<stop offset="0.17" stop-color="#C44600"/>
<stop offset="0.4" stop-color="#7F2D00"/>
<stop offset="0.6" stop-color="#481900"/>
<stop offset="0.78" stop-color="#210B00"/>
<stop offset="0.92" stop-color="#080300"/>
<stop offset="1"/>
</radialGradient>
</defs>
</svg>
