<svg width="200" height="202" viewBox="0 0 200 202" fill="none" xmlns="http://www.w3.org/2000/svg">
<g filter="url(#filter0_d_905_5690)">
<path fill-rule="evenodd" clip-rule="evenodd" d="M83.3957 90.1147C83.3957 90.1147 83.6356 88.0436 83.7924 86.9053C83.7924 86.9053 85.2085 84.9282 87.4636 83.3022L90.4683 83.4584C90.4683 83.4584 84.4105 88.318 83.3951 90.1147H83.3957Z" fill="url(#paint0_linear_905_5690)"/>
<path fill-rule="evenodd" clip-rule="evenodd" d="M87.4642 83.3022C87.4642 83.3022 87.4642 84.9691 85.9431 86.2861C84.422 87.603 83.7607 87.1406 83.7607 87.1406L83.3957 89.7953L90.4688 83.4584L87.4642 83.3022Z" fill="url(#paint1_linear_905_5690)"/>
<path fill-rule="evenodd" clip-rule="evenodd" d="M119.672 100.67C119.672 102.559 119.406 104.39 118.904 106.118C117.907 109.593 115.976 112.67 113.398 115.07C111.554 116.789 109.378 118.155 106.983 119.065C104.811 119.891 102.461 120.339 99.9983 120.339C99.6494 120.339 99.2965 120.331 98.9517 120.311H98.9477C98.4328 120.286 97.9219 120.236 97.4197 120.173C93.6205 119.675 90.1702 118.097 87.3713 115.747C86.3208 114.871 85.3659 113.883 84.5229 112.803C83.8835 111.993 83.3063 111.133 82.8001 110.224C82.6796 110.008 82.5631 109.788 82.4472 109.568C82.4472 109.56 82.4432 109.555 82.4391 109.547C82.3186 109.311 82.2068 109.074 82.0983 108.833H82.0943C81.7535 108.081 81.4549 107.305 81.2138 106.507C81.0311 105.934 80.8777 105.345 80.7531 104.747C80.7491 104.743 80.7491 104.734 80.7491 104.73C80.662 104.311 80.5871 103.887 80.5288 103.459C80.3957 102.547 80.3293 101.617 80.3293 100.67C80.3293 100.126 80.3501 99.5819 80.3997 99.0508C80.4245 98.71 80.462 98.3739 80.5075 98.0377C80.7606 96.1027 81.3009 94.2593 82.0811 92.5445C82.4633 91.7015 82.9033 90.8919 83.3974 90.1153C84.2197 88.8197 85.1912 87.6324 86.2873 86.5652C89.8294 83.1183 94.667 80.9964 99.9983 80.9964C100.206 80.9964 100.413 81.0004 100.617 81.0044C100.837 81.0125 101.057 81.0212 101.277 81.0379C102.407 81.1128 103.511 81.2789 104.578 81.5361C105.201 81.6854 105.812 81.8601 106.409 82.0677C106.817 82.2049 107.215 82.3583 107.609 82.5244C107.904 82.6489 108.191 82.7775 108.477 82.9147C108.527 82.9395 108.577 82.9603 108.626 82.9851C110.537 83.9191 112.268 85.1485 113.771 86.6222C113.987 86.8298 114.195 87.0455 114.402 87.2657C114.54 87.4151 114.676 87.569 114.809 87.7224C115.038 87.9796 115.258 88.25 115.474 88.5198C116.258 89.5162 116.947 90.5875 117.525 91.7251C118.201 93.0455 118.733 94.453 119.094 95.9274C119.472 97.4473 119.671 99.0335 119.671 100.669L119.672 100.67Z" fill="url(#paint2_radial_905_5690)"/>
<path fill-rule="evenodd" clip-rule="evenodd" d="M108.626 82.9868C108.561 82.9937 108.496 83.0006 108.432 83.0139C108.21 83.0548 108.036 83.0347 107.818 82.973C107.661 82.9286 107.548 82.864 107.38 82.8363C107.142 82.7988 106.92 82.6962 106.681 82.6656C106.428 82.6316 106.21 82.5324 105.971 82.4471C105.784 82.3791 105.685 82.4027 105.504 82.4471C105.323 82.495 105.196 82.42 105.036 82.3514C104.855 82.273 104.674 82.2591 104.483 82.2216C103.985 82.119 103.49 81.9587 102.995 81.8324C102.688 81.754 102.405 81.754 102.091 81.7506C101.846 81.7471 101.624 81.8186 101.378 81.8186C101.214 81.8186 101.074 81.7915 100.91 81.7673C100.743 81.7367 100.573 81.7707 100.405 81.7471C100.156 81.7096 100.023 81.6721 99.7705 81.7506C99.5831 81.8117 99.4361 81.8053 99.2487 81.8151C99.0405 81.8255 98.8053 81.8797 98.6006 81.9276C98.2321 82.0129 97.8297 82.081 97.4508 82.074C97.2191 82.074 96.8777 82.0095 96.6557 82.0879C96.5121 82.1392 96.4407 82.2926 96.3421 82.3952C96.1512 82.593 95.9154 82.7706 95.7551 82.9926C95.5948 83.2145 95.4137 83.4429 95.4276 83.7225C95.4414 83.9647 95.5538 84.2478 95.6594 84.4698C95.7683 84.7051 95.8058 84.9201 95.5636 85.077C95.2598 85.2782 94.9086 85.4627 94.5604 85.5613C94.3286 85.6293 94.1204 85.6703 93.9255 85.5031C93.854 85.4414 93.8096 85.322 93.7208 85.2742C93.6286 85.2263 93.5329 85.2742 93.4343 85.3047C93.1886 85.3762 92.9499 85.4581 92.7008 85.499C92.5475 85.5227 92.4143 85.6045 92.2638 85.6322C92.0827 85.6662 91.953 85.5331 91.7656 85.5774C91.5027 85.6391 91.2403 85.7481 90.967 85.762C90.7727 85.7723 90.5271 85.687 90.3633 85.5878C90.2676 85.5331 90.2439 85.4789 90.1344 85.5094C90.0456 85.5302 89.9124 85.6391 89.8645 85.7072C89.8 85.7994 89.7758 85.9188 89.7112 86.0145C89.6431 86.12 89.578 86.2227 89.5169 86.3351C89.4044 86.5536 89.2712 86.7583 89.1277 86.9526C89.0256 87.0893 88.9535 87.2732 88.8411 87.3995C88.7828 87.4675 88.6566 87.5154 88.5816 87.5667C88.3769 87.7103 88.1619 87.8394 87.9641 87.9934C87.5818 88.2938 87.2203 88.6248 86.8311 88.9148C86.5341 89.1368 86.1178 89.2665 85.7799 89.4061C85.5683 89.4914 85.3498 89.5531 85.1382 89.6413C85.0701 89.6684 84.9439 89.6996 84.8856 89.7503C84.8107 89.8149 84.7697 89.9348 84.7011 90.023C84.5166 90.2485 84.3223 90.4733 84.1822 90.7328C84.0968 90.8827 84.0455 91.0367 83.9913 91.2004C83.9164 91.4224 83.797 91.6271 83.7215 91.8485C83.5681 92.3127 83.537 92.797 83.3669 93.2577C83.2677 93.5276 83.1247 93.7732 83.0019 94.0188C82.7903 94.4352 82.7597 94.9299 82.698 95.3906C82.664 95.6604 82.6778 95.9706 82.7251 96.2336C82.7764 96.5167 82.7626 96.8102 82.7591 97.1002C82.7557 97.4075 82.5614 97.7073 82.3665 97.9397C82.1889 98.1548 81.9196 98.2367 81.7218 98.4275C81.5546 98.5913 81.3534 98.7792 81.2819 99.011C81.2513 99.1137 81.2784 99.2296 81.2617 99.3385C81.2173 99.5807 81.1562 99.8096 81.1216 100.055C81.0841 100.359 81.0772 100.646 81.0772 100.952C81.0772 101.106 81.0668 101.263 81.0737 101.417C81.0806 101.563 81.1354 101.7 81.1452 101.847C81.1521 101.949 81.1314 102.051 81.1452 102.154C81.1654 102.27 81.2098 102.389 81.2375 102.502C81.3055 102.775 81.3568 103.041 81.4082 103.315C81.456 103.567 81.5546 103.816 81.6336 104.062C81.7426 104.396 81.8147 104.741 81.8792 105.089C81.9306 105.348 81.9271 105.618 81.9646 105.881C81.9951 106.092 82.043 106.307 82.0534 106.519C82.0637 106.84 81.9853 107.161 81.9819 107.485C81.9784 108.031 82.1969 108.577 82.3232 109.102C82.3607 109.249 82.3982 109.399 82.4391 109.545C81.0893 106.879 80.3282 103.863 80.3282 100.669C80.3282 96.7854 81.4543 93.1655 83.3957 90.1147C84.2214 88.8179 85.1906 87.6307 86.2856 86.5657C89.8311 83.12 94.6665 80.9975 99.9994 80.9975C100.43 80.9975 100.852 81.0114 101.275 81.0385C103.9 81.2057 106.384 81.8884 108.625 82.9868H108.626Z" fill="url(#paint3_linear_905_5690)"/>
<path style="mix-blend-mode:multiply" fill-rule="evenodd" clip-rule="evenodd" d="M101.254 109.913C101.254 109.913 103.09 112.625 105.521 114.824C107.951 117.023 108.308 118.501 108.308 118.501C108.308 118.501 112.902 116.58 116.18 112.031C119.458 107.481 101.254 109.913 101.254 109.913Z" fill="url(#paint4_linear_905_5690)"/>
<path style="mix-blend-mode:screen" fill-rule="evenodd" clip-rule="evenodd" d="M88.3343 116.033C86.3006 114.33 84.6152 112.221 83.4038 109.833C82.6427 108.331 82.0695 106.721 81.7149 105.032C81.7114 105.028 81.7114 105.021 81.7114 105.015C81.4387 103.705 81.2917 102.346 81.2917 100.954C81.2917 97.0708 82.4178 93.4509 84.3592 90.4001C85.1849 89.1033 86.1541 87.9161 87.2491 86.8512C90.7946 83.4054 95.6294 81.2829 100.963 81.2829C101.393 81.2829 101.816 81.2968 102.239 81.3239C103.573 81.4092 104.869 81.6301 106.117 81.9685C104.579 81.4646 102.957 81.1463 101.276 81.0385C100.853 81.0114 100.43 80.9975 100 80.9975C94.6665 80.9975 89.8317 83.12 86.2862 86.5663C85.1906 87.6307 84.222 88.8185 83.3963 90.1153C81.4543 93.1655 80.3282 96.7859 80.3282 100.669C80.3282 102.061 80.4746 103.419 80.7479 104.729C80.7479 104.736 80.7479 104.743 80.7514 104.746C81.106 106.435 81.6797 108.046 82.4403 109.547C83.6517 111.935 85.3371 114.045 87.3708 115.747C89.5261 117.556 92.0706 118.906 94.8613 119.66C92.4471 118.872 90.2388 117.631 88.3337 116.033H88.3343Z" fill="url(#paint5_radial_905_5690)"/>
<path style="mix-blend-mode:multiply" opacity="0.4" fill-rule="evenodd" clip-rule="evenodd" d="M104.578 81.5366C103.511 81.2789 102.407 81.1128 101.277 81.0384C101.057 81.0217 100.837 81.0137 100.617 81.005C101.086 81.2668 101.522 81.7275 101.63 82.2009C101.809 83.0104 102.07 83.7623 102.22 84.5718C102.369 85.3693 102.34 86.3576 101.979 87.08C101.751 87.5367 101.481 87.9271 101.119 88.3007C100.862 88.5625 100.642 88.7078 100.459 89.0313C100.276 89.3467 100.102 89.654 99.8945 89.9532C99.5871 90.4018 99.2631 90.8793 98.9102 91.2904C98.7857 91.4397 98.6484 91.5435 98.5366 91.7182C98.3953 91.9344 98.329 92.1374 98.1751 92.3081C97.8222 92.7025 97.2738 92.9227 96.7883 93.1009C96.157 93.3373 95.6213 93.6031 95.028 93.9191C94.1936 94.359 93.5081 94.9241 92.5325 94.9489C92.2084 94.957 91.8723 94.9114 91.5482 94.9408C91.1452 94.9743 90.7715 95.1691 90.3731 95.2441C90.0243 95.3104 89.6754 95.3813 89.3266 95.4396C88.7534 95.5266 88.2801 95.7221 87.7277 95.8547C87.0092 96.0335 86.2579 95.9873 85.5354 96.0871C84.8833 96.1742 84.3188 96.2531 83.6713 96.0952C82.6709 95.8461 82.1352 95.3727 82.3469 94.3094C82.4881 93.6118 82.4385 93.0801 82.081 92.5445C81.3003 94.2593 80.7606 96.1032 80.5075 98.0377C80.9809 98.2372 81.5206 98.341 81.9398 98.3825C83.3974 98.5319 84.9669 97.8803 86.2994 97.3821C86.9804 97.125 87.674 96.7508 88.4086 96.6677C89.1807 96.5847 89.8617 96.6804 90.6343 96.489C93.2959 95.8328 95.92 94.9028 98.295 93.4953C99.2792 92.9141 99.7152 92.0832 100.4 91.2408C101.002 90.5056 101.679 89.8956 102.397 89.2809C103.103 88.679 103.726 88.081 104.146 87.238C104.59 86.3495 104.968 85.3739 105.172 84.3977C105.387 83.3679 105.122 82.3756 104.578 81.5366H104.578ZM104.446 84.2109C104.404 84.4312 104.375 84.6676 104.308 84.8751C104.138 85.4027 103.823 85.9465 103.329 86.2244C103.1 86.353 102.797 86.274 102.664 86.0456C102.594 85.9211 102.594 85.7631 102.569 85.6264C102.519 85.3566 102.486 85.0908 102.49 84.8123C102.498 84.144 102.473 83.4999 102.411 82.8317C102.481 83.2093 102.394 82.2712 102.984 82.0135C103.262 81.8889 103.682 82.0008 103.893 82.217C104.159 82.4869 104.221 82.9435 104.321 83.2964C104.408 83.6118 104.504 83.8776 104.446 84.2097V84.2109Z" fill="url(#paint6_linear_905_5690)"/>
<path style="mix-blend-mode:multiply" opacity="0.4" fill-rule="evenodd" clip-rule="evenodd" d="M101.597 115.614C101.539 115.622 101.485 115.635 101.431 115.639L101.821 115.676C101.772 115.664 101.688 115.635 101.597 115.614ZM101.597 115.614C101.539 115.622 101.485 115.635 101.431 115.639L101.821 115.676C101.772 115.664 101.688 115.635 101.597 115.614ZM119.095 95.9285C119.087 96.4434 118.941 96.9543 118.929 97.4732C118.916 98.1623 118.8 98.6979 118.621 99.3627C118.497 99.8194 118.264 100.156 118.11 100.596C117.936 101.103 117.687 101.535 117.429 102C116.919 102.93 116.408 103.86 116.188 104.914C115.988 105.865 115.947 106.667 115.474 107.538C115.021 108.377 114.336 109.074 113.85 109.889C113.622 110.279 113.464 110.258 113.119 110.503C112.733 110.777 112.38 111.209 112.007 111.512C111.201 112.156 110.466 112.6 109.49 112.965C108.88 113.198 108.286 113.38 107.638 113.48C107.214 113.546 106.799 113.48 106.38 113.551C105.716 113.658 105.084 113.858 104.445 114.065C103.394 114.406 102.323 114.601 101.277 114.925C100.546 115.149 99.8316 115.282 99.0884 115.44C98.6358 115.536 98.2702 115.781 97.8014 115.685C97.328 115.585 96.8962 115.428 96.4309 115.282C95.837 115.099 95.3468 115.087 94.7074 115.087C93.8563 115.087 92.8681 115.216 92.0291 115.054C91.0823 114.871 90.1396 114.618 89.1928 114.422C88.6197 114.302 88.1838 114.065 87.6608 113.82C87.1707 113.592 86.6437 113.526 86.1328 113.364C85.5931 113.194 85.0742 112.94 84.5218 112.803C85.3648 113.883 86.3196 114.871 87.3702 115.747C90.169 118.098 93.6194 119.676 97.4186 120.174C97.9208 120.236 98.4316 120.286 98.9466 120.311H98.9506C100.063 120.058 101.151 119.73 102.272 119.385C104.137 118.804 105.748 117.678 107.612 117.131C108.306 116.923 108.929 116.699 109.576 116.379C110.054 116.143 110.56 116.081 111.042 115.872C112.773 115.137 114.077 113.456 114.85 111.807C115.199 111.06 115.535 110.213 116.162 109.653C116.419 109.42 116.727 109.217 116.951 108.955C117.204 108.668 117.374 108.312 117.598 108C117.993 107.444 118.375 106.883 118.769 106.323C118.819 106.257 118.865 106.19 118.902 106.119C119.404 104.392 119.67 102.561 119.67 100.672C119.67 99.0358 119.471 97.4496 119.093 95.9297L119.095 95.9285ZM101.049 115.755C101.119 115.71 101.236 115.614 101.311 115.593C101.386 115.569 101.497 115.589 101.597 115.614C101.742 115.593 101.888 115.577 102.025 115.635C102.104 115.672 102.253 115.743 102.287 115.834C102.324 115.921 102.274 115.976 102.216 116.034C102.141 116.109 102.084 116.109 101.98 116.13C101.764 116.171 101.552 116.209 101.328 116.188C101.195 116.175 100.996 116.167 100.913 116.043C100.834 115.922 100.95 115.822 101.05 115.756L101.049 115.755ZM102.34 118.321C102.22 118.475 102.099 118.633 101.942 118.749C101.793 118.866 101.627 118.936 101.465 119.027C101.066 119.251 100.655 119.492 100.206 119.608C100.028 119.654 99.8495 119.646 99.6627 119.658C99.4384 119.679 99.2181 119.683 98.9944 119.687C98.7286 119.691 98.4714 119.745 98.2056 119.762C97.9398 119.774 97.678 119.782 97.4128 119.799C96.9729 119.828 96.5825 119.754 96.1673 119.604C95.7937 119.467 95.4074 119.293 95.0712 119.069C94.8348 118.911 94.6313 118.687 94.4277 118.487C94.2369 118.309 94.0829 118.118 93.9751 117.877C93.9376 117.79 93.8961 117.698 93.9169 117.603C93.925 117.557 93.9457 117.52 93.9457 117.507C94.0207 117.449 94.0951 117.395 94.166 117.366C94.3072 117.304 94.4647 117.274 94.6146 117.258C94.9761 117.208 95.3705 117.271 95.7314 117.3C95.9471 117.316 96.1385 117.328 96.3501 117.296C96.6327 117.254 96.9146 117.167 97.1891 117.092C97.8533 116.913 98.5055 116.773 99.1905 116.698C99.8714 116.623 100.586 116.548 101.271 116.664C101.528 116.706 101.84 116.781 102.064 116.93C102.23 117.042 102.363 117.221 102.455 117.399C102.613 117.703 102.546 118.06 102.343 118.321H102.34ZM107.552 116.615C107.431 116.756 107.257 116.839 107.107 116.943C106.9 117.088 106.679 117.204 106.464 117.329C106.281 117.437 106.107 117.524 105.915 117.612C105.729 117.699 105.538 117.786 105.351 117.881C105.147 117.985 104.927 118.055 104.711 118.13C104.553 118.189 104.383 118.259 104.213 118.23C104.076 118.201 103.923 118.147 103.823 118.043C103.674 117.885 103.698 117.715 103.748 117.645C103.748 117.5 103.706 117.292 103.752 117.151C103.781 117.068 103.881 116.943 103.927 116.86C104.101 116.545 104.35 116.316 104.612 116.067C104.84 115.847 105.06 115.681 105.368 115.573C105.712 115.457 106.107 115.428 106.464 115.382C106.854 115.337 107.514 115.307 107.688 115.756C107.809 116.067 107.767 116.354 107.551 116.616L107.552 116.615ZM101.821 115.676C101.772 115.664 101.688 115.635 101.597 115.614C101.539 115.622 101.485 115.635 101.431 115.639L101.821 115.676Z" fill="url(#paint7_linear_905_5690)"/>
<path style="mix-blend-mode:multiply" opacity="0.4" fill-rule="evenodd" clip-rule="evenodd" d="M117.525 91.7263V91.8053C117.5 92.349 117.28 92.7226 117.085 93.2168C116.927 93.6152 116.744 93.9727 116.541 94.3504C116.197 94.9817 116.035 95.5751 115.782 96.252C115.387 97.3106 115.188 98.3946 114.569 99.3581C114.013 100.218 113.884 101.272 113.431 102.19C112.92 103.216 112.14 103.95 111.301 104.698C110.928 105.034 110.616 105.437 110.28 105.803C109.923 106.189 109.644 106.687 109.216 106.995C108.29 107.667 107.277 108.249 106.372 108.958C105.828 109.382 105.442 109.947 104.844 110.3C104.246 110.657 103.599 110.906 103.005 111.267C102.469 111.595 101.941 111.948 101.36 112.185C100.696 112.45 100.144 112.371 99.4626 112.405C98.7067 112.438 97.926 112.637 97.2162 112.882C96.6263 113.09 96.1322 113.301 95.5302 113.09C95.1318 112.949 94.7703 112.687 94.3511 112.6C93.3755 112.4 92.2626 112.6 91.2703 112.575C90.4936 112.554 89.6385 112.375 88.8786 112.222C88.1313 112.077 87.5207 111.554 86.7982 111.342C85.9056 111.08 84.8631 111.304 83.9994 110.964C83.6465 110.827 83.3104 110.545 82.9984 110.349C82.9321 110.308 82.8658 110.266 82.7989 110.225C82.6784 110.008 82.5619 109.789 82.446 109.569C82.6577 109.656 82.8698 109.751 83.0855 109.855C84.215 110.395 85.6225 110.312 86.8391 110.523C88.2091 110.764 89.5797 111.121 90.9624 111.279C91.5229 111.342 92.0879 111.338 92.6443 111.275C93.4251 111.188 94.2346 111.2 95.0026 111.068C96.3398 110.831 97.6434 110.2 99.0302 110.379C99.2873 110.412 99.5739 110.549 99.8357 110.545C100.222 110.532 100.488 110.196 100.799 110.001C101.348 109.656 101.925 109.722 102.406 109.27C102.88 108.826 103.403 108.54 103.98 108.249C105.483 107.485 106.7 106.243 107.879 105.064C108.867 104.08 109.826 103.038 110.503 101.809C111.167 100.601 111.034 99.1638 111.533 97.9097C111.894 97.0125 112.197 96.1701 112.783 95.3808C113.065 95.0031 113.409 94.679 113.709 94.3175C114.028 93.9312 114.224 93.512 114.469 93.0801C114.738 92.5987 115.079 92.1541 115.295 91.6432C115.498 91.1531 115.482 90.7213 115.474 90.2104C115.466 89.6499 115.474 89.0808 115.474 88.5204C116.258 89.5167 116.947 90.5881 117.525 91.7257L117.525 91.7263Z" fill="url(#paint8_linear_905_5690)"/>
<path style="mix-blend-mode:multiply" opacity="0.4" fill-rule="evenodd" clip-rule="evenodd" d="M114.402 87.2663C114.195 87.046 113.987 86.8304 113.771 86.6228C112.268 85.1485 110.536 83.9197 108.626 82.9856C108.577 82.9608 108.527 82.9401 108.477 82.9153C108.191 82.7781 107.904 82.6495 107.609 82.5249C107.215 82.3589 106.816 82.2055 106.409 82.0683C106.538 82.1513 106.687 82.2176 106.738 82.2424C106.983 82.3669 107.182 82.45 107.352 82.6702C107.518 82.8859 107.593 83.0479 107.605 83.3224C107.613 83.5795 107.651 83.8453 107.696 84.1031C107.738 84.3395 107.854 84.5638 107.904 84.8008C107.929 84.942 107.95 85.0666 107.995 85.2078C108.099 85.5359 108.207 85.86 108.278 86.2002C108.402 86.8062 108.078 87.309 107.862 87.8614C107.522 88.7372 107.306 89.6263 107.053 90.531C106.853 91.2454 106.463 91.9512 105.923 92.4661C105.396 92.9769 104.616 93.0928 104.142 93.6452C103.727 94.1307 103.216 94.592 102.631 94.8659C101.954 95.1899 101.24 95.439 100.522 95.6587C100.007 95.8121 99.4672 95.8248 98.9483 95.962C98.3048 96.124 97.7149 96.4481 97.1089 96.7093C96.4655 96.9872 95.8635 97.3447 95.2154 97.6226C94.5633 97.8965 93.9572 98.2701 93.3097 98.5359C92.9943 98.6645 92.6622 98.7268 92.3422 98.8392C91.678 99.0716 91.0345 99.4954 90.3281 99.5784C90.0831 99.6072 89.834 99.6655 89.593 99.6655C89.3981 99.6695 89.2234 99.6903 89.0366 99.7612C88.4219 100.002 88.0442 100.695 87.3385 100.699C86.691 100.699 86.0515 100.675 85.4074 100.749C85.0961 100.786 84.7847 100.766 84.4734 100.77C84.3823 100.77 84.2617 100.79 84.1701 100.753C84.0663 100.711 83.9498 100.612 83.846 100.553C83.6136 100.425 83.3894 100.259 83.1818 100.101C82.7747 99.7854 82.235 99.9595 81.7657 99.8644C81.6244 99.8356 81.4168 99.8517 81.2923 99.7814C81.0017 99.6067 80.6361 99.2497 80.3997 99.0508C80.3501 99.5819 80.3293 100.126 80.3293 100.67C80.3293 101.617 80.3957 102.547 80.5288 103.46C80.5871 103.888 80.6615 104.311 80.7491 104.731C80.7491 104.735 80.7491 104.744 80.7531 104.748C80.8777 105.346 81.0311 105.935 81.2138 106.508C81.4549 107.305 81.7535 108.082 82.0943 108.833H82.0983C82.634 108.92 83.1864 108.991 83.7261 108.912C84.4941 108.801 85.2581 108.68 86.0388 108.709C86.7694 108.742 87.4509 108.991 88.1647 109.112C88.9662 109.245 89.8005 109.353 90.6147 109.407C91.3579 109.452 92.0971 109.514 92.8363 109.597C93.3928 109.664 93.9492 109.772 94.5056 109.809C95.9505 109.909 97.3626 109.531 98.7822 109.381C99.492 109.306 100.198 109.128 100.895 108.978C101.323 108.887 101.738 108.775 102.116 108.542C102.614 108.231 102.93 107.753 103.374 107.375C103.864 106.956 104.375 106.549 104.886 106.159C105.321 105.826 105.733 105.465 106.189 105.17C106.538 104.942 106.887 104.726 107.215 104.469C107.858 103.962 108.369 103.376 108.901 102.762C109.644 101.898 109.952 100.698 110.25 99.6268C110.52 98.6426 110.707 97.6589 111.247 96.7744C111.512 96.3425 111.712 95.8444 111.836 95.3542C111.915 95.0469 111.944 94.7021 112.085 94.4115C112.31 93.9381 112.75 93.5979 113.02 93.1493C113.231 92.7965 113.468 92.4684 113.618 92.078C113.908 91.31 114.128 90.5627 114.253 89.7445C114.344 89.1426 114.54 88.5902 114.726 88.013C114.755 87.9173 114.785 87.8221 114.809 87.7224C114.677 87.569 114.54 87.4151 114.402 87.2657V87.2663ZM88.8036 100.707C88.8451 100.604 89.5803 100.317 89.6921 100.284C89.6881 100.288 89.6795 100.292 89.6674 100.296L89.1859 100.504C89.7175 100.325 90.6764 100.865 90.2117 101.475C90.0744 101.654 89.7175 101.741 89.5059 101.775C89.2943 101.812 89.1611 101.741 89.0325 101.559C88.9247 101.401 88.8457 101.127 88.8163 100.94C88.8036 100.874 88.7748 100.774 88.8036 100.708V100.707ZM82.9448 106.006C82.3717 105.848 81.9899 105.636 81.6371 105.155C81.4087 104.843 81.2092 104.532 81.147 104.15C81.0974 103.834 80.9728 103.552 81.0472 103.236C81.1054 102.987 81.2052 102.713 81.3211 102.48C81.4497 102.219 81.6405 101.949 81.6573 101.862C82.2304 101.812 82.7661 101.791 83.3386 101.787C83.9781 101.783 84.6175 101.866 85.261 101.87C85.5516 101.874 85.8422 101.887 86.1288 101.824C86.4073 101.77 86.6771 101.696 86.9591 101.65C87.4492 101.567 87.9058 101.509 88.3666 101.754C88.7154 101.941 88.8774 102.327 89.0394 102.676C89.1311 102.875 89.1847 103.017 89.1847 103.24C89.1888 103.51 89.1721 103.776 89.1392 104.046C89.1265 104.146 89.1144 104.249 89.0977 104.349C88.6952 105.23 87.5864 105.52 86.7601 105.828C85.5516 106.272 84.1856 106.342 82.9442 106.006L82.9448 106.006ZM91.7892 107.891C91.5321 108.538 90.4481 108.771 89.8253 108.796C89.518 108.809 89.1484 108.746 88.8786 108.584C88.7292 108.493 88.5712 108.318 88.4842 108.165C88.4138 108.049 88.2558 107.833 87.9358 107.929C88.0021 107.572 88.1146 107.231 88.2639 106.903C88.4052 106.745 88.5545 106.596 88.7085 106.454C88.9991 106.193 89.3231 105.964 89.672 105.786C90.2157 105.512 90.7848 105.716 91.3078 105.956C91.6607 106.118 91.9345 106.359 92.0095 106.745C92.0966 107.185 91.9513 107.496 91.7892 107.891V107.891ZM99.0723 107.766C98.8727 108.244 98.5948 108.351 98.1543 108.576C97.6394 108.837 97.0126 109.032 96.4309 109.036C96.1322 109.04 95.8537 108.899 95.5838 108.791C95.4051 108.721 95.2102 108.675 95.0689 108.542C94.6786 108.185 94.6163 107.662 94.8573 107.77C94.708 107.45 94.6123 107.123 94.5748 106.778C94.6411 106.724 94.6826 106.653 94.7034 106.566C94.9109 106.176 95.2973 105.852 95.679 105.636C96.3599 105.246 97.2277 105.2 97.9542 105.504C98.2737 105.636 98.4772 105.798 98.7182 106.043C98.8301 106.16 98.9881 106.268 99.0751 106.409C99.2908 106.77 99.2245 107.401 99.0711 107.767L99.0723 107.766ZM101.31 107.691C101.198 107.782 100.982 107.961 100.837 107.932C100.716 107.907 100.488 107.662 100.525 107.534L100.446 107.455C100.62 107.185 100.795 106.911 100.965 106.633C101.231 106.749 101.467 106.732 101.629 107.023C101.779 107.293 101.509 107.53 101.31 107.691ZM106.878 94.6323C106.658 94.927 106.367 95.2055 106.027 95.3468C105.599 95.5255 105.026 95.6581 105.005 95.0146C104.989 94.637 105.051 94.3625 105.222 94.0142C105.467 93.5201 105.699 93.3955 106.172 93.1505C106.347 93.1712 106.529 93.2128 106.663 93.2583C106.928 93.3454 107.182 93.5824 107.219 93.8643C107.261 94.159 107.049 94.4127 106.878 94.6323ZM112.073 91.8335C111.865 92.4811 111.587 93.1084 111.301 93.7231C110.952 94.479 110.91 95.2551 110.736 96.0525C110.637 96.5011 110.425 96.9952 109.985 97.1694C109.794 97.2443 109.607 97.2276 109.395 97.2276C109.204 97.2276 108.851 97.298 108.863 97.464C108.752 97.1527 108.56 96.7335 108.486 96.38C108.407 95.9897 108.374 95.5705 108.312 95.1801C108.245 94.769 108.216 94.3579 108.174 93.9427C108.141 93.5564 108.063 93.1499 108.067 92.7596C108.083 91.4726 108.793 89.8696 110.002 89.2757C110.371 89.097 110.737 89.014 111.143 89.0809C111.617 89.1512 111.887 89.2804 112.098 89.733C112.385 90.3557 112.272 91.1947 112.073 91.8341L112.073 91.8335Z" fill="url(#paint9_linear_905_5690)"/>
<path style="mix-blend-mode:multiply" opacity="0.4" fill-rule="evenodd" clip-rule="evenodd" d="M106.347 93.0588C106.285 93.0922 106.227 93.1211 106.173 93.1499C106.065 93.1332 105.961 93.1291 105.874 93.1372L106.348 93.0582L106.347 93.0588Z" fill="url(#paint10_linear_905_5690)"/>
<path style="mix-blend-mode:multiply" opacity="0.4" fill-rule="evenodd" clip-rule="evenodd" d="M81.6578 101.862C81.629 101.866 81.5956 101.866 81.5621 101.87C81.6411 101.82 81.67 101.82 81.6578 101.862Z" fill="url(#paint11_linear_905_5690)"/>
<path fill-rule="evenodd" clip-rule="evenodd" d="M103.771 81.3602L107.224 80C107.224 80 112.719 82.1351 116.18 86.8096L116.396 89.7953C116.396 89.7953 109.85 87.2859 103.771 81.3602Z" fill="url(#paint12_linear_905_5690)"/>
<path fill-rule="evenodd" clip-rule="evenodd" d="M116.321 111.737C116.321 111.737 113.427 114.876 111.24 115.576L109.445 116.124C109.445 116.124 101.254 113.177 100.805 108.05C100.428 103.743 107.794 97.1325 109.788 96.346C111.781 95.5589 114.115 96.0047 114.115 96.0047L116.321 111.737Z" fill="url(#paint13_linear_905_5690)"/>
<path fill-rule="evenodd" clip-rule="evenodd" d="M114.115 96.0046C112.388 95.4563 104.921 98.8951 102.916 106.61C102.51 108.175 106.297 114.123 110.821 115.577C112.322 116.059 119.206 110.045 119.494 105.97C119.782 101.895 116.682 96.8194 114.116 96.0046H114.115Z" fill="url(#paint14_linear_905_5690)"/>
<path fill-rule="evenodd" clip-rule="evenodd" d="M103.398 107.512C104.463 98.7758 112.407 95.9314 114.135 96.4798C115.382 96.8759 117.218 98.7083 118.267 100.515C117.184 98.2839 115.564 96.4648 114.115 96.0046C112.388 95.4563 104.921 98.8951 102.916 106.61C102.775 107.154 103.141 108.227 103.868 109.457C103.471 108.618 103.348 107.928 103.398 107.512Z" fill="url(#paint15_linear_905_5690)"/>
<path style="mix-blend-mode:multiply" fill-rule="evenodd" clip-rule="evenodd" d="M88.7915 116.873C88.7915 116.873 90.572 117.526 91.8699 117.172C91.8699 117.172 92.3687 112.961 90.7819 110.267C89.1951 107.574 86.5059 111.644 86.5059 111.644L85.8906 114.222C85.8906 114.222 87.3869 116.022 88.7915 116.873V116.873Z" fill="url(#paint16_linear_905_5690)"/>
<path fill-rule="evenodd" clip-rule="evenodd" d="M90.3351 116.193L91.4767 115.887C91.4767 115.887 92.0268 113.555 91.0714 110.923C89.9862 107.936 86.0088 105.702 85.419 105.654C84.8291 105.606 84.2468 106.949 84.2468 106.949L90.3356 116.193L90.3351 116.193Z" fill="url(#paint17_linear_905_5690)"/>
<path fill-rule="evenodd" clip-rule="evenodd" d="M108.308 118.501L106.412 120.967C106.412 120.967 103.121 122.56 99.8167 121.788L97.4197 120.173L108.308 118.501Z" fill="url(#paint18_linear_905_5690)"/>
<path fill-rule="evenodd" clip-rule="evenodd" d="M83.3928 108.798C83.5912 107.891 84.3898 106.385 85.1053 106.238C85.8209 106.091 89.2032 109.302 89.9857 111.368C90.7681 113.434 90.3737 115.725 90.3351 116.193C90.2964 116.66 86.4592 115.358 84.523 113.767C82.5868 112.175 83.3928 108.798 83.3928 108.798Z" fill="url(#paint19_linear_905_5690)"/>
<path fill-rule="evenodd" clip-rule="evenodd" d="M89.9857 111.369C89.2026 109.303 85.8209 106.092 85.1053 106.239C84.8297 106.295 84.5414 106.555 84.2802 106.903C84.4405 106.757 84.6037 106.654 84.7634 106.621C85.479 106.474 88.9241 109.029 89.6933 111.101C90.6372 113.645 90.1183 115.481 90.0254 116.283C90.2117 116.295 90.3287 116.27 90.3351 116.194C90.3737 115.727 90.7687 113.435 89.9857 111.369V111.369Z" fill="url(#paint20_linear_905_5690)"/>
<path fill-rule="evenodd" clip-rule="evenodd" d="M100.668 102.594C99.8178 102.197 100.782 98.4696 101.618 97.6589C102.454 96.8482 104.628 98.7429 104.917 100.293C105.204 101.842 102.614 103.504 100.668 102.595V102.594Z" fill="url(#paint21_linear_905_5690)"/>
<path fill-rule="evenodd" clip-rule="evenodd" d="M101.518 102.31C100.838 101.98 101.609 98.8876 102.279 98.2153C102.949 97.5424 104.691 99.1148 104.921 100.401C105.152 101.686 103.077 103.065 101.518 102.31V102.31Z" fill="url(#paint22_linear_905_5690)"/>
<path fill-rule="evenodd" clip-rule="evenodd" d="M107.224 80C107.224 80 107.395 82.0959 109.755 84.6658C112.115 87.2357 116.18 86.8096 116.18 86.8096L116.396 89.7953C116.396 89.7953 107.752 85.9747 103.771 81.3602L107.224 80Z" fill="url(#paint23_linear_905_5690)"/>
<path fill-rule="evenodd" clip-rule="evenodd" d="M114.003 98.5774C113.905 98.6587 113.691 98.8121 113.86 98.9309C113.906 98.9632 113.946 98.9459 113.995 98.9603C114.033 98.9712 114.042 99.0006 114.086 98.9839C114.224 98.9315 114.169 98.5399 114.013 98.6184L114.003 98.5774Z" fill="#0EDBFF"/>
<path fill-rule="evenodd" clip-rule="evenodd" d="M114.715 100.001C114.778 99.9664 114.842 99.948 114.908 99.9463C114.923 100.031 115.001 100.197 114.88 100.263C114.779 100.319 114.809 100.137 114.761 100.095L114.715 100.001Z" fill="#0EDBFF"/>
<path fill-rule="evenodd" clip-rule="evenodd" d="M101.775 100.873C101.904 100.925 102.033 100.978 102.161 101.034C102.202 100.998 102.264 101.005 102.313 100.973C102.375 100.931 102.432 100.844 102.456 100.771C102.492 100.661 102.436 100.572 102.385 100.488C102.352 100.432 102.319 100.349 102.268 100.311C102.208 100.267 102.091 100.284 102.028 100.314C101.951 100.351 101.894 100.431 101.842 100.502C101.794 100.568 101.737 100.679 101.735 100.762C101.733 100.852 101.804 100.947 101.87 100.993L101.774 100.874L101.775 100.873Z" fill="#0EDBFF"/>
<path fill-rule="evenodd" clip-rule="evenodd" d="M83.4355 110.68C83.5652 110.731 83.6938 110.785 83.8212 110.841C83.8622 110.804 83.9244 110.811 83.9734 110.779C84.0357 110.737 84.0922 110.65 84.1164 110.578C84.1528 110.467 84.0968 110.378 84.0461 110.294C84.0126 110.238 83.9798 110.156 83.9285 110.117C83.8685 110.072 83.7514 110.09 83.6886 110.12C83.6113 110.157 83.5542 110.237 83.5029 110.308C83.4545 110.374 83.398 110.485 83.3957 110.568C83.3934 110.658 83.4649 110.753 83.5306 110.8L83.4349 110.68L83.4355 110.68Z" fill="#0EDBFF"/>
<path fill-rule="evenodd" clip-rule="evenodd" d="M105.492 104.135C105.436 104.174 105.391 104.223 105.356 104.281C105.409 104.348 105.435 104.411 105.526 104.437C105.562 104.447 105.601 104.448 105.63 104.42C105.669 104.383 105.648 104.342 105.658 104.305C105.683 104.217 105.707 104.194 105.658 104.113C105.628 104.065 105.607 104.045 105.554 104.045C105.517 104.045 105.436 104.056 105.418 104.097L105.492 104.135L105.492 104.135Z" fill="#0EDBFF"/>
<path fill-rule="evenodd" clip-rule="evenodd" d="M105.786 106.192C105.776 106.214 105.677 106.468 105.806 106.395C105.871 106.358 105.848 106.258 105.804 106.229L105.811 106.205L105.786 106.192Z" fill="#0EDBFF"/>
<path fill-rule="evenodd" clip-rule="evenodd" d="M112.28 109.938C112.193 110.051 112.182 110.097 112.143 110.215C112.18 110.25 112.253 110.269 112.301 110.267C112.377 110.263 112.381 110.239 112.383 110.166C112.385 110.108 112.409 110.062 112.395 110.005C112.381 109.947 112.323 109.888 112.256 109.925L112.281 109.938H112.28Z" fill="#0EDBFF"/>
<path fill-rule="evenodd" clip-rule="evenodd" d="M106.806 104.383C106.855 104.429 106.886 104.485 106.899 104.553C106.83 104.57 106.822 104.502 106.811 104.448C106.795 104.362 106.835 104.389 106.875 104.32C106.883 104.322 106.89 104.324 106.898 104.325L106.805 104.384L106.806 104.383Z" fill="#0EDBFF"/>
<path fill-rule="evenodd" clip-rule="evenodd" d="M113.032 98.8225C112.977 98.8611 112.932 98.9095 112.897 98.9678C112.93 99.0081 112.914 99.0819 112.99 99.0762C113.044 99.0721 113.088 99.0145 113.114 98.9701C113.144 98.9188 113.146 98.8767 113.15 98.8207C113.152 98.7925 113.152 98.6708 113.1 98.751L113.032 98.8225H113.032Z" fill="#0EDBFF"/>
<path fill-rule="evenodd" clip-rule="evenodd" d="M112.19 84.336C112.253 84.3199 112.333 84.2853 112.398 84.2858C112.416 84.2858 112.441 84.2991 112.461 84.3014C112.528 84.3072 112.53 84.2928 112.562 84.3464C112.599 84.4069 112.616 84.4513 112.605 84.5228C112.566 84.7673 112.221 84.3988 112.342 84.3089L112.19 84.3354V84.336Z" fill="#0EDBFF"/>
<path fill-rule="evenodd" clip-rule="evenodd" d="M85.7724 84.7713C85.6629 84.8048 85.4962 84.8169 85.483 84.9437C85.4714 85.0521 85.6507 85.1651 85.7413 85.1946C85.9027 85.247 86.1662 85.273 86.2458 85.0902C86.2925 84.9829 86.2573 84.7759 86.1916 84.682C86.0567 84.4888 85.7805 84.5678 85.57 84.6497L85.7724 84.7713Z" fill="#0EDBFF"/>
<path fill-rule="evenodd" clip-rule="evenodd" d="M113.797 110.207C113.748 109.83 113.679 109.458 114.014 109.261C114.196 109.153 114.53 109.115 114.703 109.243C114.827 109.335 114.936 109.507 115.014 109.636C115.129 109.827 115.099 109.827 115.039 110.001C114.901 110.401 114.807 110.664 114.41 110.665C113.885 110.666 113.804 110.258 113.797 109.75V110.207Z" fill="#0EDBFF"/>
<path fill-rule="evenodd" clip-rule="evenodd" d="M114.03 99.6193C114.176 99.5795 114.301 99.5029 114.407 99.3904C114.302 99.3253 114.072 99.1898 114.03 99.3875V99.6193Z" fill="#0EDBFF"/>
<path fill-rule="evenodd" clip-rule="evenodd" d="M84.2698 109.205C84.4163 109.165 84.5414 109.089 84.6469 108.976C84.542 108.911 84.3114 108.775 84.2698 108.973V109.205Z" fill="#0EDBFF"/>
<path fill-rule="evenodd" clip-rule="evenodd" d="M84.2698 112.366C84.4163 112.326 84.5414 112.25 84.6469 112.137C84.542 112.072 84.3114 111.936 84.2698 112.134V112.366Z" fill="#0EDBFF"/>
<path fill-rule="evenodd" clip-rule="evenodd" d="M106.521 101.052C106.667 100.873 106.877 100.546 107.141 100.726C107.294 100.83 107.338 101.105 107.191 101.215C107.055 101.316 106.931 101.345 106.777 101.387C106.66 101.419 106.486 101.342 106.521 101.168V101.052Z" fill="#0EDBFF"/>
<path fill-rule="evenodd" clip-rule="evenodd" d="M111.458 109.192C111.603 109.013 111.813 108.686 112.077 108.866C112.231 108.969 112.275 109.245 112.128 109.355C111.992 109.456 111.868 109.485 111.714 109.527C111.597 109.559 111.422 109.481 111.458 109.308V109.192Z" fill="#0EDBFF"/>
<path fill-rule="evenodd" clip-rule="evenodd" d="M110.714 82.2164C110.942 82.2545 111.33 82.2764 111.304 82.5947C111.289 82.7792 111.072 82.9533 110.904 82.8795C110.749 82.8115 110.662 82.7169 110.55 82.6045C110.464 82.5186 110.446 82.3283 110.614 82.2735L110.715 82.2164H110.714Z" fill="#0EDBFF"/>
<path fill-rule="evenodd" clip-rule="evenodd" d="M109.906 111.301C110.052 111.122 110.262 110.796 110.526 110.975C110.679 111.079 110.723 111.354 110.577 111.464C110.44 111.565 110.316 111.594 110.163 111.636C110.045 111.668 109.871 111.591 109.906 111.417V111.301Z" fill="#0EDBFF"/>
<path fill-rule="evenodd" clip-rule="evenodd" d="M103.176 100.782C102.99 100.9 102.677 101.047 102.645 101.302C102.626 101.457 102.697 101.547 102.836 101.614C102.955 101.671 103.133 101.676 103.252 101.616C103.423 101.53 103.62 101.388 103.697 101.206C103.752 101.075 103.743 100.985 103.681 100.855C103.648 100.785 103.582 100.702 103.507 100.676C103.269 100.593 103.126 100.827 102.949 100.932L103.176 100.781L103.176 100.782Z" fill="#0EDBFF"/>
<path fill-rule="evenodd" clip-rule="evenodd" d="M103.78 100.103C103.882 100.138 103.968 100.195 104.037 100.272C103.936 100.307 103.827 100.387 103.724 100.35C103.589 100.302 103.564 100.174 103.594 100.045C103.611 99.9751 103.737 99.8517 103.81 99.8828C103.846 99.8984 103.853 99.948 103.865 99.9797C103.89 100.047 103.891 100.032 103.856 100.103H103.78Z" fill="#0EDBFF"/>
<path fill-rule="evenodd" clip-rule="evenodd" d="M108.925 98.9799C108.432 99.4117 107.968 99.9284 107.707 100.546C107.574 100.861 107.81 100.877 108.096 100.822C108.65 100.713 109.207 100.56 109.754 100.42C110.078 100.337 110.543 100.165 110.769 99.8903C110.941 99.6793 111.013 99.3154 110.975 99.0502C110.922 98.6789 110.658 98.5342 110.32 98.4413C109.55 98.228 108.457 99.0594 108.171 99.7692L108.925 98.9804V98.9799Z" fill="#0EDBFF"/>
<path fill-rule="evenodd" clip-rule="evenodd" d="M106.178 101.784C106.338 101.789 106.487 101.828 106.625 101.9C106.585 101.948 106.597 102.012 106.577 102.067C106.546 102.149 106.468 102.232 106.394 102.279C106.272 102.356 106.068 102.385 105.932 102.333C105.519 102.177 106.152 101.687 106.292 101.86L106.179 101.784H106.178Z" fill="#0EDBFF"/>
<path fill-rule="evenodd" clip-rule="evenodd" d="M109.905 82.582C110.045 82.6794 110.197 82.7538 110.303 82.8847C110.426 83.0358 110.547 83.1719 110.642 83.3414C110.69 83.4267 110.805 83.6135 110.635 83.6372C110.45 83.6625 110.122 83.4192 109.988 83.3241C109.758 83.1621 109.535 83.0133 109.369 82.7798C109.285 82.6616 109.157 82.4569 109.242 82.315C109.314 82.1957 109.416 82.1749 109.547 82.1778C109.684 82.1807 109.763 82.221 109.87 82.3075C109.92 82.3473 110.16 82.5912 110.078 82.657L109.905 82.5814V82.582Z" fill="#0EDBFF"/>
<path fill-rule="evenodd" clip-rule="evenodd" d="M111.695 98.2695C111.627 98.3185 111.105 98.608 111.353 98.7337C111.486 98.8011 111.749 98.7815 111.884 98.7239C112.005 98.6725 112.127 98.5935 112.051 98.4546C111.899 98.1744 111.515 98.3358 111.317 98.458L111.694 98.2695H111.695Z" fill="#0EDBFF"/>
<path fill-rule="evenodd" clip-rule="evenodd" d="M84.4583 110.919C84.5131 111.225 84.576 111.559 84.8418 111.761C85.1174 111.971 85.4293 111.886 85.6998 111.726C85.9004 111.608 86.0895 111.482 86.2856 111.361C86.3997 111.291 86.5001 111.273 86.5053 111.11C86.5105 110.934 86.349 110.699 86.2481 110.565C86.1276 110.406 85.8843 110.216 85.6963 110.146C85.2858 109.993 84.5022 110.145 84.5114 110.704L84.4578 110.919H84.4583Z" fill="#0EDBFF"/>
<path fill-rule="evenodd" clip-rule="evenodd" d="M111.945 111.52C111.983 111.734 112.027 111.969 112.214 112.111C112.408 112.258 112.626 112.198 112.816 112.087C112.957 112.004 113.09 111.915 113.227 111.83C113.307 111.78 113.378 111.768 113.381 111.654C113.385 111.53 113.272 111.365 113.201 111.272C113.116 111.16 112.945 111.027 112.814 110.978C112.525 110.87 111.975 110.977 111.982 111.369L111.945 111.52V111.52Z" fill="#0EDBFF"/>
<path style="mix-blend-mode:screen" d="M111.884 102.071C113.234 100.721 113.234 98.5322 111.884 97.182C110.534 95.8319 108.345 95.8319 106.995 97.182C105.644 98.5322 105.644 100.721 106.995 102.071C108.345 103.422 110.534 103.422 111.884 102.071Z" fill="url(#paint24_radial_905_5690)"/>
<path style="mix-blend-mode:screen" fill-rule="evenodd" clip-rule="evenodd" d="M111.649 84.2714C111.211 84.874 110.114 84.8227 109.198 84.1578C108.283 83.4924 107.895 82.465 108.332 81.863C108.77 81.2604 109.867 81.3118 110.783 81.9766C111.699 82.642 112.086 83.6695 111.649 84.2714Z" fill="url(#paint25_radial_905_5690)"/>
<path fill-rule="evenodd" clip-rule="evenodd" d="M107.282 80.3419C107.282 80.3419 108.185 84.1775 110.725 85.623C113.938 87.452 116.18 86.8096 116.18 86.8096C116.18 86.8096 113.308 86.7081 110.653 84.8976C108.436 83.3858 107.282 80.3419 107.282 80.3419Z" fill="url(#paint26_linear_905_5690)"/>
<path style="mix-blend-mode:multiply" opacity="0.4" fill-rule="evenodd" clip-rule="evenodd" d="M101.254 109.913L102.959 107.406C102.959 107.406 105.146 113.627 110.82 115.576L109.577 116.378C109.577 116.378 103.793 114.731 101.254 109.913Z" fill="url(#paint27_linear_905_5690)"/>
<path style="mix-blend-mode:multiply" fill-rule="evenodd" clip-rule="evenodd" d="M104.483 82.2222C104.483 82.2222 112.664 90.4578 118.553 94.118C118.553 94.118 117.983 91.8675 116.396 89.7952C116.396 89.7952 111.453 88.1698 104.483 82.2222Z" fill="url(#paint28_linear_905_5690)"/>
<path style="mix-blend-mode:screen" d="M94.8543 95.3172C98.6645 92.8106 100.451 88.7983 98.8435 86.3556C97.2364 83.9128 92.8449 83.9646 89.0347 86.4712C85.2245 88.9779 83.4385 92.9901 85.0455 95.4329C86.6526 97.8757 91.0441 97.8239 94.8543 95.3172Z" fill="url(#paint29_radial_905_5690)"/>
</g>
<defs>
<filter id="filter0_d_905_5690" x="-1" y="0" width="202" height="202" filterUnits="userSpaceOnUse" color-interpolation-filters="sRGB">
<feFlood flood-opacity="0" result="BackgroundImageFix"/>
<feColorMatrix in="SourceAlpha" type="matrix" values="0 0 0 0 0 0 0 0 0 0 0 0 0 0 0 0 0 0 127 0" result="hardAlpha"/>
<feOffset/>
<feGaussianBlur stdDeviation="40"/>
<feComposite in2="hardAlpha" operator="out"/>
<feColorMatrix type="matrix" values="0 0 0 0 0.298039 0 0 0 0 0.505882 0 0 0 0 0.937255 0 0 0 1 0"/>
<feBlend mode="normal" in2="BackgroundImageFix" result="effect1_dropShadow_905_5690"/>
<feBlend mode="normal" in="SourceGraphic" in2="effect1_dropShadow_905_5690" result="shape"/>
</filter>
<linearGradient id="paint0_linear_905_5690" x1="86.932" y1="90.1147" x2="86.932" y2="83.3022" gradientUnits="userSpaceOnUse">
<stop stop-color="#9A00B3"/>
<stop offset="1" stop-color="#7F72FF"/>
</linearGradient>
<linearGradient id="paint1_linear_905_5690" x1="85.4242" y1="90.4601" x2="87.9843" y2="82.6449" gradientUnits="userSpaceOnUse">
<stop stop-color="#5B008B"/>
<stop offset="1" stop-color="#8E00FF"/>
</linearGradient>
<radialGradient id="paint2_radial_905_5690" cx="0" cy="0" r="1" gradientUnits="userSpaceOnUse" gradientTransform="translate(87.8171 91.468) scale(31.5993 31.5993)">
<stop stop-color="#60DBFF"/>
<stop offset="0.09" stop-color="#5FD5FF"/>
<stop offset="0.21" stop-color="#5EC4FF"/>
<stop offset="0.34" stop-color="#5CA8FF"/>
<stop offset="0.49" stop-color="#5A81FF"/>
<stop offset="0.64" stop-color="#5651FF"/>
<stop offset="0.68" stop-color="#5643FF"/>
<stop offset="0.74" stop-color="#553DF8"/>
<stop offset="0.83" stop-color="#542EE4"/>
<stop offset="0.93" stop-color="#5315C5"/>
<stop offset="1" stop-color="#5200AB"/>
</radialGradient>
<linearGradient id="paint3_linear_905_5690" x1="80.3282" y1="95.2724" x2="108.626" y2="95.2724" gradientUnits="userSpaceOnUse">
<stop offset="0.01" stop-color="#81E0FF"/>
<stop offset="0.32" stop-color="#82DDFF"/>
<stop offset="0.55" stop-color="#85D3FF"/>
<stop offset="0.75" stop-color="#8BC3FF"/>
<stop offset="0.94" stop-color="#93ADFF"/>
<stop offset="1" stop-color="#97A4FF"/>
</linearGradient>
<linearGradient id="paint4_linear_905_5690" x1="108.915" y1="118.501" x2="108.915" y2="109.264" gradientUnits="userSpaceOnUse">
<stop stop-color="#B8C2FF"/>
<stop offset="1" stop-color="#5B729C"/>
</linearGradient>
<radialGradient id="paint5_radial_905_5690" cx="0" cy="0" r="1" gradientUnits="userSpaceOnUse" gradientTransform="translate(85.6242 87.2796) scale(25.8921 25.8922)">
<stop stop-color="#FFFFD9"/>
<stop offset="1"/>
</radialGradient>
<linearGradient id="paint6_linear_905_5690" x1="80.5075" y1="89.7041" x2="105.247" y2="89.7041" gradientUnits="userSpaceOnUse">
<stop stop-color="#B8C2FF"/>
<stop offset="1" stop-color="#7D72B3"/>
</linearGradient>
<linearGradient id="paint7_linear_905_5690" x1="84.5229" y1="108.119" x2="119.672" y2="108.119" gradientUnits="userSpaceOnUse">
<stop stop-color="#B8C2FF"/>
<stop offset="1" stop-color="#7D72B3"/>
</linearGradient>
<linearGradient id="paint8_linear_905_5690" x1="82.4466" y1="100.849" x2="117.525" y2="100.849" gradientUnits="userSpaceOnUse">
<stop stop-color="#B8C2FF"/>
<stop offset="1" stop-color="#7D72B3"/>
</linearGradient>
<linearGradient id="paint9_linear_905_5690" x1="80.3293" y1="95.947" x2="114.809" y2="95.947" gradientUnits="userSpaceOnUse">
<stop stop-color="#B8C2FF"/>
<stop offset="1" stop-color="#7D72B3"/>
</linearGradient>
<linearGradient id="paint10_linear_905_5690" x1="105.874" y1="93.1044" x2="106.347" y2="93.1044" gradientUnits="userSpaceOnUse">
<stop stop-color="#E8DDFF"/>
<stop offset="1" stop-color="#AA8AD8"/>
</linearGradient>
<linearGradient id="paint11_linear_905_5690" x1="81.5621" y1="101.851" x2="81.6607" y2="101.851" gradientUnits="userSpaceOnUse">
<stop stop-color="#E8DDFF"/>
<stop offset="1" stop-color="#AA8AD8"/>
</linearGradient>
<linearGradient id="paint12_linear_905_5690" x1="103.771" y1="84.8976" x2="116.396" y2="84.8976" gradientUnits="userSpaceOnUse">
<stop stop-color="#7F72FF"/>
<stop offset="1" stop-color="#9A00B3"/>
</linearGradient>
<linearGradient id="paint13_linear_905_5690" x1="106.639" y1="115.205" x2="113.043" y2="95.6535" gradientUnits="userSpaceOnUse">
<stop stop-color="#280077"/>
<stop offset="1" stop-color="#812CFF"/>
</linearGradient>
<linearGradient id="paint14_linear_905_5690" x1="108.47" y1="114.807" x2="114.58" y2="96.1578" gradientUnits="userSpaceOnUse">
<stop stop-color="#7A00B3"/>
<stop offset="1" stop-color="#B136FF"/>
</linearGradient>
<linearGradient id="paint15_linear_905_5690" x1="110.577" y1="109.457" x2="110.577" y2="95.9481" gradientUnits="userSpaceOnUse">
<stop stop-color="#8E00B3"/>
<stop offset="1" stop-color="#E05CFF"/>
</linearGradient>
<linearGradient id="paint16_linear_905_5690" x1="88.9172" y1="117.277" x2="88.9172" y2="109.345" gradientUnits="userSpaceOnUse">
<stop stop-color="#81A9CE"/>
<stop offset="1" stop-color="#5B729C"/>
</linearGradient>
<linearGradient id="paint17_linear_905_5690" x1="86.6887" y1="114.998" x2="89.3341" y2="106.923" gradientUnits="userSpaceOnUse">
<stop stop-color="#280077"/>
<stop offset="1" stop-color="#812CFF"/>
</linearGradient>
<linearGradient id="paint18_linear_905_5690" x1="102.864" y1="122" x2="102.864" y2="118.501" gradientUnits="userSpaceOnUse">
<stop stop-color="#7A00B3"/>
<stop offset="0.92" stop-color="#7006FC"/>
<stop offset="1" stop-color="#7006F9"/>
</linearGradient>
<linearGradient id="paint19_linear_905_5690" x1="86.8472" y1="116.289" x2="86.8472" y2="106.234" gradientUnits="userSpaceOnUse">
<stop stop-color="#7A00B3"/>
<stop offset="1" stop-color="#B136FF"/>
</linearGradient>
<linearGradient id="paint20_linear_905_5690" x1="87.3742" y1="116.285" x2="87.3742" y2="106.234" gradientUnits="userSpaceOnUse">
<stop stop-color="#8E00B3"/>
<stop offset="1" stop-color="#E05CFF"/>
</linearGradient>
<linearGradient id="paint21_linear_905_5690" x1="101.883" y1="103.013" x2="103.566" y2="97.8746" gradientUnits="userSpaceOnUse">
<stop stop-color="#5B008B"/>
<stop offset="1" stop-color="#8E00FF"/>
</linearGradient>
<linearGradient id="paint22_linear_905_5690" x1="102.47" y1="102.641" x2="103.861" y2="98.3918" gradientUnits="userSpaceOnUse">
<stop stop-color="#A400CA"/>
<stop offset="1" stop-color="#B136FF"/>
</linearGradient>
<linearGradient id="paint23_linear_905_5690" x1="109.448" y1="87.5194" x2="111.457" y2="81.3861" gradientUnits="userSpaceOnUse">
<stop stop-color="#5B008B"/>
<stop offset="1" stop-color="#8E00FF"/>
</linearGradient>
<radialGradient id="paint24_radial_905_5690" cx="0" cy="0" r="1" gradientUnits="userSpaceOnUse" gradientTransform="translate(109.439 99.6265) scale(3.45728)">
<stop stop-color="#317AFF"/>
<stop offset="0.1" stop-color="#2967D7"/>
<stop offset="0.29" stop-color="#1C4896"/>
<stop offset="0.47" stop-color="#122E60"/>
<stop offset="0.64" stop-color="#0A1A37"/>
<stop offset="0.78" stop-color="#040B18"/>
<stop offset="0.91" stop-color="#010306"/>
<stop offset="1"/>
</radialGradient>
<radialGradient id="paint25_radial_905_5690" cx="0" cy="0" r="1" gradientUnits="userSpaceOnUse" gradientTransform="translate(109.92 83.1701) rotate(35.99) scale(2.04923 1.35249)">
<stop stop-color="#317AFF"/>
<stop offset="0.1" stop-color="#2967D7"/>
<stop offset="0.29" stop-color="#1C4896"/>
<stop offset="0.47" stop-color="#122E60"/>
<stop offset="0.64" stop-color="#0A1A37"/>
<stop offset="0.78" stop-color="#040B18"/>
<stop offset="0.91" stop-color="#010306"/>
<stop offset="1"/>
</radialGradient>
<linearGradient id="paint26_linear_905_5690" x1="111.731" y1="86.9192" x2="111.731" y2="80.3419" gradientUnits="userSpaceOnUse">
<stop stop-color="#B000D9"/>
<stop offset="1" stop-color="#E05CFF"/>
</linearGradient>
<linearGradient id="paint27_linear_905_5690" x1="106.037" y1="116.378" x2="106.037" y2="107.407" gradientUnits="userSpaceOnUse">
<stop stop-color="#B8C2FF"/>
<stop offset="1" stop-color="#7D72B3"/>
</linearGradient>
<linearGradient id="paint28_linear_905_5690" x1="111.518" y1="94.118" x2="111.518" y2="82.2222" gradientUnits="userSpaceOnUse">
<stop stop-color="#81A9CE"/>
<stop offset="1" stop-color="#5B729C"/>
</linearGradient>
<radialGradient id="paint29_radial_905_5690" cx="0" cy="0" r="1" gradientUnits="userSpaceOnUse" gradientTransform="translate(92.1572 90.7292) rotate(-33.34) scale(8.2734 5.30092)">
<stop stop-color="#06FEFF"/>
<stop offset="0.17" stop-color="#04C4C4"/>
<stop offset="0.4" stop-color="#037F7F"/>
<stop offset="0.6" stop-color="#014848"/>
<stop offset="0.78" stop-color="#002121"/>
<stop offset="0.92" stop-color="#000808"/>
<stop offset="1"/>
</radialGradient>
</defs>
</svg>
