<svg width="202" height="202" viewBox="0 0 202 202" fill="none" xmlns="http://www.w3.org/2000/svg">
<g filter="url(#filter0_d_905_5892)">
<path fill-rule="evenodd" clip-rule="evenodd" d="M122 105.723L121.848 106.269C121.844 106.294 121.835 106.315 121.827 106.345C121.412 107.768 120.853 109.13 120.168 110.412C119.05 112.498 117.599 114.378 115.876 115.982C113.875 117.844 111.517 119.325 108.914 120.315C106.561 121.208 104.01 121.695 101.339 121.695C100.962 121.695 100.577 121.687 100.205 121.666H100.201C99.6418 121.637 99.0877 121.585 98.5417 121.518C94.9568 121.048 91.6516 119.689 88.8542 117.663C88.5915 117.472 88.3335 117.278 88.0837 117.078C88.5744 116.655 89.6117 116.613 89.6117 116.613L88.1683 115.466L84.5499 113.519C83.8558 112.642 83.2294 111.707 82.6793 110.721C82.5482 110.489 82.4213 110.252 82.2985 110.01C82.2985 110.002 82.2902 109.997 82.2855 109.989C82.1586 109.731 82.0358 109.472 81.9171 109.214H81.9129C81.5445 108.398 81.2189 107.555 80.9562 106.692C80.7616 106.07 80.5924 105.431 80.4566 104.779C80.4525 104.775 80.4525 104.766 80.4525 104.762C80.3597 104.309 80.2792 103.848 80.2157 103.382C80.0717 102.392 80 101.385 80 100.356C80 100.119 80.0041 99.8778 80.0129 99.6451C80.0212 99.2936 80.0423 98.9428 80.0764 98.5996C80.1017 98.257 80.1399 97.9137 80.1822 97.5752C80.1822 97.55 80.1863 97.5288 80.1904 97.4988C80.2539 97.0246 80.3303 96.5638 80.4273 96.1025C80.5583 95.4378 80.7234 94.7819 80.9221 94.1431C81.1889 93.2457 81.5145 92.3783 81.9 91.5402C82.2685 90.7274 82.6875 89.9405 83.1571 89.183C84.6128 88.4125 85.5443 88.0105 85.5443 88.0105C85.5443 88.0105 110.387 83.0798 110.772 82.6567C111.153 82.2376 113.037 82.5003 113.037 82.5003C114.2 83.2661 115.288 84.1424 116.282 85.1156C116.515 85.3401 116.74 85.5769 116.968 85.8137C117.116 85.9748 117.264 86.144 117.408 86.3092C117.654 86.5883 117.895 86.8804 118.128 87.1725C118.978 88.2562 119.727 89.4198 120.354 90.651C120.6 91.1253 120.823 91.6119 121.031 92.1068C121.031 92.1109 121.035 92.115 121.035 92.1197C122.952 99.6192 120.587 105.98 120.587 105.98C121.111 105.802 121.59 105.734 122 105.722V105.723Z" fill="url(#paint0_radial_905_5892)"/>
<path fill-rule="evenodd" clip-rule="evenodd" d="M122 105.723L121.848 106.269C121.844 106.294 121.835 106.315 121.827 106.345C121.412 107.768 120.853 109.13 120.168 110.412C119.05 112.498 117.599 114.378 115.876 115.982C113.875 117.844 111.517 119.325 108.914 120.315C106.561 121.208 104.01 121.695 101.339 121.695C100.962 121.695 100.577 121.687 100.205 121.666H100.201C99.6418 121.637 99.0877 121.585 98.5417 121.518C94.9568 121.048 91.6516 119.689 88.8542 117.663C88.5915 117.472 88.3335 117.278 88.0837 117.078C88.5744 116.655 89.6117 116.613 89.6117 116.613L88.1683 115.466L84.5499 113.519C83.8558 112.642 83.2294 111.707 82.6793 110.721C82.5482 110.489 82.4213 110.252 82.2985 110.01C82.2985 110.002 82.2902 109.997 82.2855 109.989C82.1586 109.731 82.0358 109.472 81.9171 109.214H81.9129C81.5445 108.398 81.2189 107.555 80.9562 106.692C80.7616 106.07 80.5924 105.431 80.4566 104.779C80.4525 104.775 80.4525 104.766 80.4525 104.762C80.3597 104.309 80.2792 103.848 80.2157 103.382C80.0717 102.392 80 101.385 80 100.356C80 100.119 80.0041 99.8778 80.0129 99.6451C80.0212 99.2936 80.0423 98.9428 80.0764 98.5996C80.1017 98.257 80.1399 97.9137 80.1822 97.5752C80.1822 97.55 80.1863 97.5288 80.1904 97.4988C80.2539 97.0246 80.3303 96.5638 80.4273 96.1025C80.5583 95.4378 80.7234 94.7819 80.9221 94.1431C81.1889 93.2457 81.5145 92.3783 81.9 91.5402C82.2685 90.7274 82.6875 89.9405 83.1571 89.183C84.6128 88.4125 85.5443 88.0105 85.5443 88.0105C85.5443 88.0105 110.387 83.0798 110.772 82.6567C111.153 82.2376 113.037 82.5003 113.037 82.5003C114.2 83.2661 115.288 84.1424 116.282 85.1156C116.515 85.3401 116.74 85.5769 116.968 85.8137C117.116 85.9748 117.264 86.144 117.408 86.3092C117.654 86.5883 117.895 86.8804 118.128 87.1725C118.978 88.2562 119.727 89.4198 120.354 90.651C120.6 91.1253 120.823 91.6119 121.031 92.1068C121.031 92.1109 121.035 92.115 121.035 92.1197C122.952 99.6192 120.587 105.98 120.587 105.98C121.111 105.802 121.59 105.734 122 105.722V105.723Z" fill="url(#paint1_radial_905_5892)"/>
<path fill-rule="evenodd" clip-rule="evenodd" d="M121.391 100.357C121.391 101.114 121.348 101.859 121.264 102.591C121.141 103.73 120.921 104.839 120.608 105.909C120.604 105.935 120.595 105.956 120.587 105.981C120.197 107.319 119.672 108.596 119.029 109.803C117.98 111.762 116.613 113.527 114.996 115.034C113.117 116.786 110.899 118.179 108.457 119.105C106.244 119.947 103.848 120.405 101.338 120.405C100.983 120.405 100.623 120.396 100.272 120.375H100.268C99.7429 120.35 99.2222 120.299 98.7103 120.235C95.3417 119.795 92.2392 118.517 89.6111 116.613C89.2173 116.334 88.8365 116.033 88.4686 115.724C88.3669 115.64 88.2653 115.555 88.1683 115.466C87.2162 114.641 86.3441 113.719 85.5654 112.724C84.9136 111.899 84.3254 111.023 83.8088 110.096C83.686 109.876 83.5672 109.652 83.4491 109.427C83.4491 109.419 83.445 109.414 83.4409 109.406C83.3181 109.165 83.2041 108.924 83.0936 108.678H83.0895C82.7427 107.912 82.4377 107.121 82.192 106.308C82.0057 105.724 81.8494 105.123 81.7225 104.514C81.7184 104.509 81.7184 104.501 81.7184 104.496C81.6296 104.069 81.5532 103.637 81.4939 103.201C81.3587 102.27 81.2905 101.322 81.2905 100.357C81.2905 100.133 81.2946 99.9089 81.3035 99.6886C81.3117 99.3583 81.3328 99.0286 81.3628 98.7065C81.3881 98.3851 81.4222 98.063 81.4645 97.7457C81.4645 97.7204 81.4686 97.6992 81.4727 97.674C81.5321 97.2297 81.6038 96.7936 81.6925 96.3622C81.8153 95.7357 81.9717 95.1222 82.158 94.521C82.4077 93.6788 82.7169 92.8619 83.0765 92.075C83.4662 91.2158 83.9146 90.3907 84.4182 89.5991C84.7656 89.049 85.1417 88.5201 85.5442 88.0117C86.1031 87.2924 86.712 86.6154 87.3643 85.9801C90.9739 82.4674 95.9047 80.3047 101.338 80.3047C101.55 80.3047 101.762 80.3088 101.969 80.3129C102.194 80.3212 102.417 80.33 102.642 80.347C103.264 80.3893 103.882 80.4569 104.487 80.5545C104.496 80.5545 104.5 80.5586 104.508 80.5586C105.016 80.635 105.516 80.7361 106.007 80.8548C106.641 81.007 107.264 81.1851 107.873 81.3966C108.288 81.5365 108.694 81.6928 109.096 81.8621C109.396 81.989 109.688 82.1201 109.98 82.26C110.031 82.2852 110.082 82.3064 110.133 82.3317C112.08 83.2837 113.845 84.5367 115.376 86.0388C115.596 86.2504 115.807 86.4708 116.02 86.6947C116.159 86.8469 116.299 87.0038 116.435 87.1601C116.667 87.4223 116.892 87.6979 117.112 87.9729C117.911 88.9885 118.614 90.0804 119.202 91.2399C119.892 92.5857 120.434 94.0203 120.802 95.523C121.038 96.471 121.204 97.4442 121.297 98.4391C121.361 99.0697 121.39 99.7085 121.39 100.356L121.391 100.357Z" fill="url(#paint2_radial_905_5892)"/>
<path style="mix-blend-mode:screen" fill-rule="evenodd" clip-rule="evenodd" d="M91.5493 92.3665C91.5493 92.3665 91.0175 93.549 91.4606 94.749C91.9037 95.9491 93.1467 95.1528 94.63 94.749C96.1134 94.3453 97.6372 92.7855 98.5993 91.8217C99.5614 90.8573 100.483 89.5344 100.404 88.2515C100.324 86.9686 98.969 86.1258 98.969 86.1258C98.969 86.1258 99.4614 85.4976 99.0477 88.0117C98.634 90.5259 98.071 91.4227 97.5332 91.8217C96.9955 92.2208 95.3582 93.1752 94.4655 93.7082C93.5728 94.2413 92.5755 94.796 91.9837 94.6668C91.3924 94.5375 91.0804 93.2093 91.5493 92.3671V92.3665Z" fill="url(#paint3_radial_905_5892)"/>
<path style="mix-blend-mode:screen" fill-rule="evenodd" clip-rule="evenodd" d="M94.2668 91.5008C94.2668 91.5008 93.5075 92.1749 93.7079 92.7191C93.9083 93.2633 95.3517 92.9148 96.2737 91.7459C97.1958 90.577 96.4671 89.6331 96.4671 89.6331C96.4671 89.6331 96.1286 91.5837 95.2312 91.9269C94.3338 92.2695 94.0417 92.1256 94.0417 92.1256C94.0417 92.1256 93.9024 91.9686 94.2662 91.5008H94.2668Z" fill="url(#paint4_radial_905_5892)"/>
<path style="mix-blend-mode:screen" fill-rule="evenodd" clip-rule="evenodd" d="M91.9666 92.343C91.9666 92.343 92.7059 91.5049 93.5474 90.7198C94.3896 89.9352 95.8465 89.6326 95.8465 89.6326C95.8465 89.6326 94.9961 89.1818 93.9065 89.8159C92.8169 90.45 91.9666 92.343 91.9666 92.343Z" fill="url(#paint5_radial_905_5892)"/>
<path style="mix-blend-mode:screen" fill-rule="evenodd" clip-rule="evenodd" d="M88.947 92.3577C88.947 92.3577 90.6613 90.453 92.7459 89.6326C94.831 88.8122 95.5527 88.5718 96.4748 87.8101C97.3969 87.0485 98.4382 86.4385 98.4382 86.4385C98.4382 86.4385 96.4089 86.5419 93.3077 88.5066C90.2064 90.4712 88.9388 91.7189 88.9476 92.3577H88.947Z" fill="url(#paint6_radial_905_5892)"/>
<path style="mix-blend-mode:screen" fill-rule="evenodd" clip-rule="evenodd" d="M84.7656 91.9792C84.7656 91.9792 87.7335 89.0131 90.059 87.8507C92.3845 86.6882 93.9483 85.926 96.0329 85.4047C98.118 84.8834 101.34 83.9743 101.34 83.9743L101.922 83.6822C101.922 83.6822 95.2924 83.8162 90.9411 86.4391C86.5898 89.0619 84.7656 91.9792 84.7656 91.9792Z" fill="url(#paint7_radial_905_5892)"/>
<path style="mix-blend-mode:screen" fill-rule="evenodd" clip-rule="evenodd" d="M88.3241 95.399C88.3241 95.399 88.8183 99.4952 89.5312 99.6798C90.2435 99.8637 92.7982 99.8449 96.5953 97.9032C100.392 95.9614 101.163 96.4104 103.291 94.2471C105.419 92.0838 106.28 89.629 106.939 88.0117C107.598 86.3944 107.791 84.5484 107.585 83.9743C107.585 83.9743 108.302 84.4021 108.302 86.0059C108.302 87.6097 107.821 90.3043 107.14 91.8635C106.458 93.4232 104.694 95.8686 102.569 97.0716C100.444 98.2746 96.1945 100.584 92.0242 100.552C87.8545 100.52 88.5133 100.218 88.0837 99.3865C87.6541 98.5549 88.3241 95.3984 88.3241 95.3984V95.399Z" fill="url(#paint8_radial_905_5892)"/>
<g style="mix-blend-mode:multiply" opacity="0.5">
<path fill-rule="evenodd" clip-rule="evenodd" d="M81.8242 98.8964C81.8242 98.8964 82.5694 100.548 82.9867 102.058C83.4039 103.567 83.324 106.133 85.0477 106.534C86.772 106.935 89.1774 108.057 90.0995 107.777C91.0216 107.496 94.4267 106.885 96.3144 107.256C98.202 107.626 101.647 107.416 102.849 106.815C104.052 106.214 106.642 104.669 107.873 104.199C109.104 103.728 110.804 102.387 112.27 100.899C113.735 99.4094 113.715 97.7139 114.076 96.8718C114.436 96.0296 115.158 92.6621 115.078 91.1382C114.998 89.6149 114.076 86.7682 114.076 86.7682L113.218 85.8619C113.218 85.8619 114.276 89.7754 113.795 92.5416C113.314 95.3079 113.755 96.431 111.831 99.0768C109.906 101.723 107.22 103.808 104.213 104.81C101.206 105.813 99.2781 105.692 96.1539 105.982C93.2384 106.252 89.6117 106.045 88.1684 105.67C86.8731 105.332 85.1282 104.464 83.8053 102.352C82.4824 100.24 81.8248 98.8969 81.8248 98.8969L81.8242 98.8964Z" fill="#7D72B3"/>
</g>
<g style="mix-blend-mode:multiply" opacity="0.4">
<path fill-rule="evenodd" clip-rule="evenodd" d="M88.4557 94.5662C88.4557 94.5662 88.7319 99.0145 89.2978 99.3976C89.8638 99.7808 91.0621 99.9389 92.1846 99.5581C93.3071 99.1773 97.1565 97.9143 97.8176 97.5135C98.4794 97.1127 102.532 95.0881 103.331 94.4863C104.129 93.8851 105.195 91.7459 105.556 91.3016C105.917 90.8579 106.899 88.2115 107.18 87.2089C107.46 86.2063 107.661 85.0039 107.661 85.0039C107.661 85.0039 107.741 84.4426 107.26 84.2622C106.779 84.0818 106.699 84.2622 106.699 84.2622C106.699 84.2622 106.598 84.924 106.178 86.8281C105.757 88.7328 100.083 95.2679 97.2164 96.9717C94.3497 98.6754 91.6233 98.7359 90.6407 98.6154C89.6581 98.495 88.4357 95.3279 88.4557 94.5662Z" fill="#7D72B3"/>
</g>
<g style="mix-blend-mode:multiply" opacity="0.4">
<path fill-rule="evenodd" clip-rule="evenodd" d="M88.324 95.399C88.324 95.399 88.4422 92.6292 89.1574 91.6995C89.8726 90.7697 92.2733 88.8527 93.6926 88.131C95.1119 87.4093 97.1788 86.3862 97.8981 86.2339C98.6175 86.0817 99.1241 86.2339 99.1241 86.2339C99.1241 86.2339 98.259 85.7656 96.2743 86.2669C94.2897 86.7682 92.0447 88.6135 90.9616 89.1842C89.8791 89.7548 88.1953 91.1382 87.7939 91.8399C87.3931 92.5416 88.324 95.399 88.324 95.399Z" fill="#7D72B3"/>
</g>
<g style="mix-blend-mode:multiply" opacity="0.4">
<path fill-rule="evenodd" clip-rule="evenodd" d="M83.4463 92.4788L89.5982 87.0884L93.4088 85.3642C93.4088 85.3642 97.1759 84.0842 98.9002 83.6816C100.625 83.279 104.493 83.1585 104.493 83.1585L106.521 83.3789C106.521 83.3789 102.992 81.4542 97.7771 82.8576C92.5625 84.2611 89.0969 86.0136 87.573 87.4528C86.0497 88.8921 83.7495 91.7741 83.4457 92.4782L83.4463 92.4788Z" fill="#7D72B3"/>
</g>
<path style="mix-blend-mode:screen" fill-rule="evenodd" clip-rule="evenodd" d="M83.2741 92.7191C83.2741 92.7191 79.9689 96.7078 81.5727 99.1632C83.1765 101.618 83.8859 105.158 84.3507 105.982C84.8156 106.805 90.1371 108.043 91.242 107.787C92.3469 107.531 94.9974 106.836 96.7316 107.507C96.7316 107.507 99.8023 107.243 100.684 107.243C101.567 107.243 103.17 106.495 103.545 106.307C103.919 106.12 106.004 105.452 107.073 105.024C108.142 104.596 109.853 103.26 110.548 102.726C111.244 102.191 113.061 100.026 113.409 99.3577C113.756 98.6895 114.797 94.7866 115.066 92.9425C115.335 91.0983 114.542 87.5427 113.943 86.3139C113.345 85.0844 111.457 83.9349 111.457 83.9349L111.567 83.3789L113.038 82.5021C113.038 82.5021 115.601 85.8625 115.842 88.7646C115.983 90.4659 116.376 94.0961 115.929 95.6535C115.569 96.9041 114.345 100.581 113.276 101.894C112.207 103.207 108.999 106.559 107.288 107.208C105.578 107.857 100.532 108.733 97.5591 108.793C95.3682 108.838 90.5421 108.446 88.1701 108.366C85.7982 108.285 84.1021 106.799 83.1595 106.046C82.2168 105.292 82.5371 103.24 81.5751 101.62C80.613 99.9995 80.0829 97.8444 80.3209 96.6714C80.5595 95.4983 83.2764 92.7197 83.2764 92.7197L83.2741 92.7191Z" fill="url(#paint9_radial_905_5892)"/>
<path fill-rule="evenodd" clip-rule="evenodd" d="M89.0781 107.907C88.5703 107.788 88.1131 107.509 87.6095 107.382C87.3262 107.314 87.0464 107.272 86.7673 107.192C86.4881 107.111 86.1708 107.056 85.8828 107.044C85.2987 107.022 84.6933 106.887 84.3213 106.392C83.991 105.947 83.7883 105.49 83.6355 104.957C83.4363 104.246 83.2458 103.535 83.026 102.824C82.8227 102.169 82.5436 101.589 82.1798 101.004C82.0358 100.772 81.913 100.539 81.7566 100.314C81.6126 100.111 81.414 99.9166 81.3035 99.688L81.2994 99.6839C81.0203 99.0915 80.9227 98.4356 80.9397 97.7921C80.948 97.4448 81.0455 97.1192 81.1219 96.7807C81.2236 96.3534 81.3335 95.9767 81.5539 95.5912C81.7572 95.2397 81.9559 94.8801 82.1592 94.5204C82.6123 93.7247 83.086 92.9289 83.649 92.2137C84.373 91.304 85.1811 90.4359 85.998 89.6108C86.4723 89.1283 87.0094 88.7052 87.5513 88.3032C88.0085 87.9647 88.4316 87.5921 88.8842 87.2495C89.6629 86.6571 90.5514 86.2716 91.4236 85.8484C92.4773 85.3407 93.531 84.8493 94.6271 84.4474C95.9265 83.9731 97.2635 83.597 98.6181 83.3213C100.163 83.0081 101.792 82.9446 103.367 82.9529C104.23 82.957 105.153 82.8471 105.978 83.1685C106.443 83.3507 106.985 83.5323 107.391 83.8121C107.484 83.8755 107.526 83.8885 107.586 83.9731C107.624 84.0236 107.645 84.0918 107.666 84.1506C107.73 84.2987 107.806 84.5443 107.806 84.7007C107.806 84.874 107.73 85.0268 107.73 85.2084C107.734 85.4664 107.666 85.6991 107.658 85.953C107.645 86.2451 107.573 86.4737 107.531 86.757C107.446 87.2818 107.37 87.7855 107.167 88.2803C106.871 88.9955 106.677 89.7489 106.35 90.4553C106.253 90.671 106.079 90.8362 105.982 91.0518C105.889 91.2464 105.804 91.4074 105.694 91.5937C105.486 91.941 105.317 92.3007 105.08 92.6304C104.59 93.3074 104.09 94.0314 103.442 94.5686C102.66 95.2203 101.805 95.741 100.907 96.2194C100.323 96.5285 99.7136 96.7783 99.1212 97.0745C98.5922 97.3366 98.0633 97.6075 97.5297 97.8573C96.1586 98.4961 94.7023 98.9704 93.2636 99.4188C92.8487 99.5499 92.4597 99.6897 92.0318 99.7491C91.6428 99.8043 91.1897 99.9313 90.7959 99.9225C90.3728 99.9095 89.9285 99.8126 89.5306 99.6768C88.8448 99.4482 88.7772 98.7036 88.7267 98.0853C88.6885 97.6369 88.6379 97.1503 88.5492 96.7101C88.4816 96.3417 88.4516 95.9779 88.367 95.6053C88.2824 95.2286 88.2271 94.8436 88.223 94.4581C88.2148 93.9674 88.4052 93.506 88.5151 93.0277C88.5868 92.7185 88.6209 92.4012 88.7478 92.105C88.93 91.673 89.2767 91.301 89.6194 90.9919C89.9708 90.6787 90.3175 90.3695 90.6649 90.0522C90.8723 89.8577 91.118 89.7137 91.3378 89.5356C91.7227 89.2265 92.1506 88.9855 92.5907 88.761C92.9381 88.5788 93.1919 88.2915 93.5134 88.0799C93.8437 87.8642 94.2204 87.6356 94.5713 87.4575C94.8804 87.3053 95.2148 87.1995 95.5362 87.0726C95.7984 86.9709 96.0399 86.8187 96.3067 86.73C96.5524 86.6453 96.8063 86.6201 97.0472 86.5184C97.284 86.4208 97.5085 86.3321 97.7542 86.2686C98.0292 86.201 98.3384 86.0864 98.6175 86.0782C99.1676 86.07 99.4385 86.345 99.5784 86.8781C99.7729 87.6062 99.549 88.2198 99.2863 88.8927C99.0747 89.4345 98.842 89.9717 98.6346 90.5223C98.3595 91.2546 97.7078 91.6395 97.1577 92.1391C96.5776 92.6639 95.8624 93.1334 95.1519 93.4508C94.9274 93.5525 94.6864 93.6118 94.4661 93.7047C94.2756 93.7893 94.0894 93.8951 93.8989 93.9968C93.7761 94.0644 93.6874 94.1619 93.5728 94.2377C93.4711 94.3053 93.3524 94.3435 93.2466 94.4111C92.9927 94.5803 92.7259 94.7455 92.4468 94.8683C92.1758 94.9911 91.6387 95.0628 91.4606 94.7455C91.3672 94.5845 91.3801 94.3605 91.3378 94.1784C91.2872 93.9627 91.2784 93.7676 91.2784 93.5437C91.2784 93.3197 91.3207 93.154 91.3548 92.9383C91.3889 92.7309 91.4818 92.5657 91.5493 92.363C91.7527 91.7876 92.1506 91.3598 92.5014 90.8861C92.7212 90.5858 92.9122 90.2896 93.1702 90.0099C93.551 89.6038 94.0888 89.4004 94.6259 89.2653C95.1084 89.1465 95.8277 89.0031 96.272 89.2823C96.6488 89.515 96.3861 90.0269 96.2638 90.3401C96.1962 90.5135 96.1239 90.6916 96.0652 90.8691C96.0229 91.0001 96.0058 91.1482 95.93 91.2752C95.7737 91.5373 95.4645 91.7195 95.2318 91.9228C95.126 92.0115 94.9568 92.1385 94.8298 92.1808C94.6688 92.2313 94.4954 92.2272 94.3344 92.2654C94.2539 92.2825 94.2116 92.3841 94.1146 92.3459C94.0259 92.3166 94.0259 92.2149 94.0429 92.1214C94.06 92.0368 94.0982 91.9522 94.1146 91.8717C94.1187 91.8546 94.0976 91.8252 94.1017 91.8041C94.1693 91.5543 94.4866 91.2411 94.6306 91.0295C94.8592 91.1224 94.7023 91.2581 94.66 91.3598C94.6306 91.4444 94.6347 91.5249 94.6136 91.6137C94.5965 91.6854 94.4866 91.817 94.5671 91.8928C94.6224 91.9481 94.8081 91.8505 94.8675 91.8294C95.3582 91.656 95.6755 91.1183 95.8283 90.6316C95.9259 90.3143 95.9088 89.7642 95.5574 89.6243C95.2953 89.5227 94.9774 89.5779 94.7023 89.5738C93.7079 89.5568 93.1197 90.6193 92.5907 91.3046C92.2311 91.77 91.956 92.2989 91.7527 92.849C91.6087 93.2298 91.5493 93.6236 91.4477 94.0085C91.3713 94.2918 91.2784 94.7279 91.7145 94.6685C91.9684 94.6303 92.2434 94.4951 92.485 94.4146C92.6965 94.3429 92.8828 94.2665 93.0815 94.1607C93.3947 93.9915 93.7461 93.9451 94.0717 93.8011C94.3256 93.6871 94.5836 93.5472 94.8375 93.4244C95.4933 93.107 96.1328 92.4594 96.5894 91.9011C96.8938 91.5243 97.3299 91.2411 97.6772 90.8979C98.041 90.5382 98.2361 90.0898 98.4853 89.6496C98.7351 89.2012 98.862 88.7692 98.9719 88.2744C99.0736 87.8342 99.3357 87.3347 99.2005 86.8781C99.0565 86.4038 98.4471 86.3956 98.0539 86.4631C97.7278 86.5184 97.3681 86.573 97.0595 86.6959C96.4842 86.9245 95.9171 87.1701 95.3452 87.4029C94.4437 87.7755 93.6944 88.389 92.8693 88.8927C92.4503 89.1465 91.9978 89.3411 91.6081 89.6461C91.3201 89.8706 91.0451 90.1327 90.7701 90.3783C90.5755 90.5558 90.4104 90.7468 90.1947 90.899C89.9114 91.0977 89.6276 91.3181 89.416 91.5931C89.2427 91.8176 89.0434 92.0838 88.9465 92.3548C88.8748 92.5704 88.9423 92.7738 88.9547 92.9936C88.9717 93.2939 88.8871 93.5736 88.8742 93.8698C88.8612 94.1831 88.8742 94.5045 88.8783 94.8178C88.8783 95.4313 88.7854 96.0284 88.7978 96.6502C88.806 97.031 88.8906 97.433 88.967 97.8097C89.0264 98.11 89.1492 98.3686 89.1704 98.6771C89.1786 98.8717 89.2127 99.1385 89.3861 99.2654C89.4707 99.3289 89.5806 99.3459 89.6781 99.3841C89.7669 99.4182 89.8474 99.4476 89.932 99.4729C89.9784 99.4899 90.0296 99.4982 90.0801 99.5152C90.1183 99.5364 90.1477 99.5916 90.1859 99.6081C90.2876 99.6504 90.4398 99.6251 90.5456 99.6039C90.7912 99.5575 91.0322 99.4982 91.2778 99.4558C91.8914 99.3501 92.5137 99.363 93.0979 99.1426C93.7708 98.8887 94.3973 98.5249 95.0614 98.254C96.0558 97.8479 97.1224 97.5517 98.0745 97.0392C98.5017 96.8065 98.946 96.5908 99.3862 96.3916C100.432 95.922 101.528 95.5412 102.446 94.8342C102.798 94.5633 103.064 94.2542 103.365 93.9368C103.534 93.7546 103.716 93.5942 103.869 93.395C104.317 92.8108 104.749 92.1761 105.092 91.5243C105.24 91.2493 105.328 90.949 105.481 90.674C105.718 90.2467 106.006 89.87 106.226 89.4298C106.441 88.9979 106.568 88.5665 106.712 88.1093C106.801 87.8301 106.865 87.6015 106.856 87.3053C106.848 86.7129 106.912 86.2004 107.148 85.6592C107.28 85.363 107.466 84.9228 107.368 84.5884C107.318 84.4233 107.08 84.381 106.936 84.3345C106.598 84.2205 106.246 84.1359 105.921 83.9919C105.62 83.8567 105.404 83.6998 105.074 83.6405C104.948 83.6152 104.833 83.5981 104.706 83.6023C104.389 83.6193 104.114 83.8391 103.796 83.8268C103.69 83.8226 103.619 83.7886 103.508 83.7674C103.343 83.738 103.166 83.7592 103.005 83.7545C102.641 83.7415 102.289 83.674 101.921 83.6781C101.49 83.6822 101.066 83.7204 100.634 83.7457C100.232 83.7668 99.8264 83.7327 99.4238 83.7457C99.1658 83.7539 99.0048 83.8726 98.7762 83.9743C98.5687 84.0671 98.336 84.1053 98.1203 84.1858C97.9299 84.2622 97.7518 84.3298 97.5491 84.338C97.2652 84.3422 96.982 84.2998 96.7069 84.3592C96.3766 84.4356 96.017 84.5749 95.7079 84.7059C94.8063 85.0909 93.9307 85.5734 92.9951 85.8696C92.542 86.0094 92.0765 86.0729 91.6363 86.2504C91.4712 86.318 91.3272 86.4367 91.1791 86.5337C90.8829 86.7323 90.5738 86.9145 90.2694 87.1049C89.5882 87.5369 88.9406 88.0105 88.2929 88.493C87.5313 89.0602 86.8031 89.6273 86.1726 90.3466C85.0724 91.6119 83.9252 92.8901 82.9732 94.2742C82.52 94.9259 82.0123 95.6282 81.6908 96.3564C81.6826 96.3734 81.6779 96.3857 81.6697 96.4028C81.4922 96.8218 81.3987 97.262 81.4581 97.7145C81.4581 97.7227 81.4581 97.7316 81.4622 97.7398C81.5127 98.1124 81.6738 98.5526 81.8219 98.8911C81.97 99.2296 82.0928 99.5892 82.2832 99.9113C82.4907 100.263 82.7786 100.555 82.9308 100.936C83.113 101.405 83.2782 101.909 83.4175 102.395C83.5996 103.009 83.7389 103.644 83.8535 104.27C83.9299 104.66 83.9934 105.053 84.175 105.409C84.433 105.908 84.9836 106.094 85.4321 106.386C85.6689 106.543 85.834 106.594 86.122 106.606C86.524 106.627 86.9048 106.725 87.2903 106.839C88.1113 107.093 88.9324 107.279 89.7957 107.266C90.3076 107.262 90.7947 107.122 91.2978 107.059C91.7674 106.999 92.2375 106.953 92.703 106.877C93.1261 106.809 93.541 106.69 93.9724 106.69C94.3785 106.69 94.8439 106.758 95.2377 106.868C95.9447 107.062 96.6341 107.219 97.3704 107.189C97.8188 107.176 98.259 107.075 98.7033 107.045C99.1223 107.02 99.5202 107.083 99.9351 107.113C100.672 107.159 101.378 106.978 102.064 106.753C102.533 106.601 102.923 106.377 103.342 106.127C103.68 105.928 104.007 105.869 104.379 105.771C105.107 105.577 105.83 105.31 106.491 104.937C107.354 104.447 108.065 103.722 108.903 103.198C109.378 102.901 109.911 102.707 110.372 102.39C110.753 102.132 111.112 101.831 111.434 101.505C111.811 101.124 112.167 100.726 112.543 100.346C112.831 100.054 112.945 99.6897 113.115 99.3254C113.369 98.7876 113.457 98.2334 113.551 97.6493C113.648 97.0739 113.902 96.5656 114.152 96.0325C114.469 95.3514 114.74 94.712 114.808 93.9503C114.863 93.3791 114.939 92.8032 114.939 92.2278C114.939 91.8593 114.875 91.4997 114.829 91.1359C114.783 90.7974 114.715 90.4712 114.643 90.1368C114.55 89.726 114.562 89.3029 114.486 88.8885C114.419 88.533 114.309 88.1563 114.211 87.8048C114.144 87.5551 114.05 87.2971 113.949 87.0602C113.763 86.6412 113.517 86.2051 113.217 85.8543C113.09 85.7062 112.929 85.6598 112.786 85.554C112.676 85.4694 112.65 85.3977 112.523 85.3342C112.345 85.2454 112.168 85.1567 111.995 85.0591C111.715 84.8981 111.398 84.8517 111.118 84.6995C110.852 84.5555 110.611 84.3651 110.357 84.2041C110.069 84.0219 109.777 83.8996 109.527 83.6622C109.282 83.4254 109.121 83.1245 108.884 82.8876C108.642 82.642 108.296 82.4815 108.021 82.27C107.542 81.8974 106.979 81.868 106.442 81.6394C106.167 81.5207 105.904 81.5042 105.617 81.4448C105.291 81.3773 105.071 81.178 104.724 81.1398C104.415 81.1057 104.111 81.1016 103.81 81.017C103.628 80.9706 103.459 80.9283 103.277 80.9112C102.918 80.8771 102.57 80.9283 102.215 80.9665C101.902 81.0005 101.584 80.9835 101.271 80.9835C101.009 80.9835 100.733 81.0088 100.471 80.9665C99.7265 80.8524 98.9096 80.8648 98.1562 80.9159C97.4368 80.9665 96.734 81.0176 96.0528 81.2544C95.4728 81.4531 94.9015 81.6229 94.3344 81.8556C93.9454 82.012 93.6063 82.2282 93.2425 82.431C92.3662 82.9217 91.5623 83.5229 90.7283 84.0818C89.7974 84.6995 88.9212 85.3853 88.0238 86.0582C87.4396 86.4984 86.8472 86.9345 86.2719 87.387C86.0221 87.5856 85.7811 87.7931 85.5437 88.0047C86.1026 87.2853 86.7115 86.6083 87.3638 85.973C90.974 82.4674 95.9047 80.3047 101.339 80.3047C101.55 80.3047 101.762 80.3088 101.969 80.3129C102.194 80.3212 102.418 80.33 102.642 80.347C103.264 80.3893 103.882 80.4569 104.487 80.5545C104.496 80.5545 104.5 80.5586 104.509 80.5586C105.198 80.7449 105.884 80.9435 106.57 81.151C107.141 81.3244 107.716 81.4813 108.279 81.6758C108.652 81.8027 109.016 81.9679 109.375 82.116C109.701 82.2559 110.061 82.374 110.365 82.5479C110.861 82.8271 111.322 83.1997 111.779 83.5382C112.083 83.7668 112.367 84.0289 112.642 84.2957C113.027 84.6724 113.374 85.0915 113.667 85.5399C114.352 86.6024 114.898 87.8043 115.156 89.0396C115.376 90.081 115.347 91.2105 115.304 92.2731C115.283 92.8402 115.182 93.4626 115.068 94.0209C114.941 94.6344 114.725 95.2056 114.662 95.8409C114.632 96.1501 114.683 96.4674 114.632 96.7719C114.59 97.0216 114.497 97.2626 114.446 97.5123C114.34 98.0413 114.184 98.5537 113.938 99.0403C113.608 99.705 113.159 100.255 112.681 100.826C112.143 101.465 111.568 102.079 111.009 102.705C110.446 103.336 109.769 103.844 109.046 104.276C108.483 104.614 107.907 105.02 107.294 105.258C106.718 105.486 106.067 105.812 105.444 105.88C104.97 105.926 104.594 106.104 104.208 106.392C103.976 106.561 103.802 106.79 103.586 106.972C103.391 107.137 103.163 107.188 102.93 107.268C102.376 107.454 101.834 107.412 101.254 107.412C100.429 107.412 99.616 107.493 98.795 107.577C98.3801 107.619 97.9699 107.654 97.555 107.628C97.1824 107.607 96.8145 107.509 96.446 107.463C96.0358 107.412 95.625 107.403 95.2189 107.34C94.8974 107.284 94.6435 107.28 94.3174 107.323C94.0553 107.352 93.7926 107.323 93.5305 107.344C93.2595 107.369 92.9927 107.428 92.7224 107.467C91.4906 107.636 90.3352 108.203 89.0787 107.907H89.0781Z" fill="#00C4FF"/>
<path style="mix-blend-mode:screen" fill-rule="evenodd" clip-rule="evenodd" d="M88.0837 117.078C88.0837 117.078 92.7776 117.902 94.9109 117.841C98.1362 117.747 101.853 118.148 104.74 118.228C107.627 118.308 112.672 115.942 113.594 115.508C114.516 115.074 116.742 113.803 118.686 111.648C120.629 109.493 121.396 105.981 121.396 105.981H120.586C120.586 105.981 120.279 107.501 119.107 109.208C118.404 110.232 117.371 111.129 115.96 112.348C113.93 114.102 111.287 115.453 108.622 116.117C105.076 117.001 101.923 116.756 99.7482 117.081C96.5999 117.55 89.6105 116.438 89.6105 116.438L88.0825 117.078L88.0837 117.078Z" fill="url(#paint10_radial_905_5892)"/>
<path fill-rule="evenodd" clip-rule="evenodd" d="M86.8442 114.753C86.8442 114.753 87.593 116.7 88.0831 117.078C88.0831 117.078 89.1139 117.141 89.6111 116.612L88.1677 115.465L86.8442 114.753V114.753Z" fill="url(#paint11_radial_905_5892)"/>
<path fill-rule="evenodd" clip-rule="evenodd" d="M121.457 102.351C121.457 102.351 121.959 104.551 122 105.723C122 105.723 121.217 106.217 120.587 105.981C120.587 105.981 121.326 103.291 121.457 102.351Z" fill="url(#paint12_radial_905_5892)"/>
<path fill-rule="evenodd" clip-rule="evenodd" d="M107.873 81.3966C107.873 81.3966 112.057 81.8162 113.037 82.5015C113.037 82.5015 112.344 83.2767 111.566 83.3783C111.566 83.3783 108.173 81.4965 107.873 81.3966Z" fill="#FF61C7"/>
<path fill-rule="evenodd" clip-rule="evenodd" d="M83.1571 89.1836L84.872 88.9132L85.5437 88.0111C85.5437 88.0111 84.3137 88.5524 83.1565 89.1836H83.1571Z" fill="#FF61C7"/>
<g style="mix-blend-mode:multiply" opacity="0.5">
<path fill-rule="evenodd" clip-rule="evenodd" d="M84.5493 113.519C84.5493 113.519 92.6653 115.875 99.0001 115.996C105.335 116.117 107.715 114.705 110.454 113.647C113.193 112.588 117.691 110.159 119.047 108.365C120.403 106.572 121.456 102.351 121.456 102.351C121.456 102.351 120.154 108.681 119.029 109.803C117.903 110.924 112.873 114.312 111.99 114.753C111.108 115.195 108.712 117.014 104.377 116.508C104.377 116.508 101.463 116.919 100.408 116.838C99.3533 116.758 97.7171 117.821 94.7099 116.849C94.7099 116.849 90.5261 116.638 89.6111 116.437C88.6961 116.237 84.5493 113.519 84.5493 113.519Z" fill="#54469B"/>
</g>
<path fill-rule="evenodd" clip-rule="evenodd" d="M86.5204 105.001C86.5204 105.001 93.2471 106.167 98.1203 105.669C102.993 105.171 105.629 103.955 107.018 103.045C108.408 102.137 111.132 99.2267 112.151 97.9026C113.169 96.5779 113.684 93.2675 113.684 93.2675C113.684 93.2675 113.867 96.5015 113.036 97.9026C112.204 99.3036 109.345 101.968 108.179 102.742C107.012 103.516 103.668 105.352 101.922 105.669C100.176 105.986 97.294 106.869 95.2071 106.486C93.1196 106.103 88.059 106.168 86.5204 105.001V105.001Z" fill="#B04FE2"/>
<path fill-rule="evenodd" clip-rule="evenodd" d="M95.8465 115.77C95.8465 115.77 102.849 115.288 105.255 114.753C107.66 114.219 110.824 112.918 113.036 112.106C115.248 111.294 116.919 109.689 118.138 108.797C119.358 107.905 120.921 104.199 120.921 104.199C120.921 104.199 119.924 107.873 118.392 109.072C116.861 110.271 112.941 112.467 108.512 114.433C103.59 116.616 99.7617 115.996 95.8459 115.77H95.8465Z" fill="#8B40E0"/>
<path fill-rule="evenodd" clip-rule="evenodd" d="M120.247 106.976C120.357 106.642 120.476 106.311 120.586 105.982C120.196 107.319 119.672 108.597 119.029 109.803L119.016 109.816C118.829 109.998 118.601 110.142 118.427 110.341C118.25 110.54 118.093 110.739 117.903 110.925C116.989 111.831 115.943 112.61 114.864 113.312C113.755 114.036 112.646 114.722 111.431 115.251C110.501 115.657 109.548 116.004 108.562 116.254C107.77 116.457 106.924 116.546 106.107 116.584C105.692 116.605 105.286 116.673 104.875 116.711C104.363 116.766 103.839 116.757 103.335 116.846C102.463 117.007 101.566 117.121 100.681 117.168C99.9239 117.21 99.1705 117.316 98.4129 117.316C97.4397 117.312 96.4747 117.159 95.5009 117.164C94.5571 117.172 93.605 117.129 92.6653 117.045C92.1023 116.99 91.5522 116.884 90.998 116.82C90.5285 116.765 90.0754 116.664 89.6099 116.613C89.2161 116.334 88.8353 116.033 88.4674 115.724C88.3658 115.64 88.2641 115.555 88.1671 115.466C88.7002 115.636 89.2297 115.818 89.7668 115.987C90.5202 116.224 91.3665 116.364 92.154 116.461C92.7975 116.542 93.5715 116.601 94.2068 116.44C94.8668 116.275 95.3581 116.487 95.9587 116.732C96.2379 116.846 96.5217 116.901 96.8138 116.986C97.2246 117.105 97.529 117.079 97.9481 117.024C98.3166 116.978 98.7015 116.914 99.0694 116.834C99.3826 116.766 99.6829 116.639 100 116.597C100.55 116.529 101.135 116.449 101.685 116.547C102.319 116.656 102.95 116.72 103.589 116.618C104.254 116.508 104.872 116.445 105.545 116.441C105.773 116.441 105.959 116.462 106.179 116.5C106.425 116.542 106.654 116.475 106.895 116.45C107.335 116.403 107.72 116.34 108.147 116.209C108.537 116.086 108.909 115.912 109.29 115.768C110.035 115.489 110.707 115.214 111.368 114.765C111.922 114.393 112.536 114.131 113.099 113.771C113.637 113.424 114.114 112.988 114.664 112.658C115.244 112.306 115.773 111.875 116.328 111.481C116.679 111.231 116.992 110.935 117.343 110.681C117.648 110.462 117.982 110.288 118.266 110.038C118.752 109.623 119.205 109.174 119.523 108.611C119.819 108.091 120.065 107.545 120.246 106.978L120.247 106.976Z" fill="#00C4FF"/>
<path fill-rule="evenodd" clip-rule="evenodd" d="M98.7621 95.8316C98.7621 95.8316 103.6 91.8711 105.633 88.0111C105.633 88.0111 99.9945 93.8034 98.7621 95.8316Z" fill="#FF77F4"/>
<path fill-rule="evenodd" clip-rule="evenodd" d="M93.6744 100.552C93.6744 100.552 96.731 100.572 100.111 99.1626C103.491 97.7533 105.187 94.8454 105.187 94.8454C105.187 94.8454 102.9 97.031 100.409 98.254C97.9188 99.477 96.034 99.7755 93.675 100.552L93.6744 100.552Z" fill="#EA9CF4"/>
<path fill-rule="evenodd" clip-rule="evenodd" d="M105.754 94.1478C105.754 94.1478 106.097 93.2751 106.738 91.7453C107.38 90.2156 107.885 89.3957 107.885 89.3957C107.885 89.3957 107.678 91.73 105.754 94.1478Z" fill="#EA9CF4"/>
<path fill-rule="evenodd" clip-rule="evenodd" d="M92.6283 108.609C92.6283 108.609 96.8755 109.641 102.408 108.609C107.941 107.577 108.182 107.24 109.705 106.045C111.229 104.85 112.312 103.32 112.913 102.742C113.514 102.164 114.271 100.157 114.271 100.157C114.271 100.157 112.707 102.969 110.464 104.852C108.222 106.734 106.377 107.657 102.608 108.218C98.8396 108.78 94.5083 108.72 92.6283 108.609Z" fill="#D374F4"/>
<path fill-rule="evenodd" clip-rule="evenodd" d="M96.3549 117.829C96.3549 117.829 100.204 118.161 101.767 118.482C103.331 118.803 106.337 118.791 108.062 118.155C109.786 117.519 113.201 115.691 113.201 115.691C113.201 115.691 110.014 117.479 106.218 117.88C102.421 118.281 100.111 117.64 96.3549 117.828V117.829Z" fill="#D374F4"/>
<path fill-rule="evenodd" clip-rule="evenodd" d="M114.319 115.131C114.319 115.131 116.762 113.491 117.961 112.402C117.961 112.402 116.682 114.152 114.319 115.131Z" fill="#D374F4"/>
<path fill-rule="evenodd" clip-rule="evenodd" d="M95.7566 94.2471C95.7566 94.2471 98.5452 92.1485 99.4296 90.6322C100.315 89.1154 100.403 88.2515 100.403 88.2515C100.403 88.2515 100.797 89.7266 99.1229 91.6019C97.4491 93.4773 95.756 94.2471 95.756 94.2471H95.7566Z" fill="#F2C4F8"/>
<path style="mix-blend-mode:screen" opacity="0.5" fill-rule="evenodd" clip-rule="evenodd" d="M89.2444 92.782C89.0187 93.8052 88.7901 94.8454 89.1374 95.8315C89.4847 96.8177 90.0195 97.4594 90.5273 97.5129C91.0351 97.5664 91.7838 96.3634 91.7568 96.0161C91.7303 95.6687 90.9281 94.7596 90.8746 93.851C90.8212 92.9424 91.8114 91.6054 91.7574 91.0977C91.7033 90.5899 89.6158 91.0977 89.2438 92.7814L89.2444 92.782Z" fill="url(#paint13_linear_905_5892)"/>
<path style="mix-blend-mode:screen" opacity="0.5" fill-rule="evenodd" clip-rule="evenodd" d="M89.6987 88.5976C89.3637 88.238 87.1099 90.3478 85.5443 91.9792C83.9787 93.6106 82.4284 95.7493 82.2944 97.1121C82.161 98.4756 83.2835 100.535 85.3145 102.352C87.3456 104.169 92.6342 105.826 93.906 105.078C95.1778 104.33 94.7094 102.004 93.6739 101.442C92.6383 100.881 89.2703 102.012 87.6935 100.354C86.1167 98.6971 86.829 96.4704 87.0253 94.5991C87.2657 92.3083 87.9873 90.376 88.6556 89.7877C89.3238 89.1994 89.6981 88.597 89.6981 88.597L89.6987 88.5976Z" fill="url(#paint14_linear_905_5892)"/>
<path fill-rule="evenodd" clip-rule="evenodd" d="M82.7892 95.6523C82.3538 97.1303 82.3026 98.7106 83.2118 99.9242C84.1209 101.138 84.8074 100.23 85.1282 97.2678C85.4491 94.3053 85.2652 92.2789 85.2652 92.2789C85.2652 92.2789 83.337 93.7922 82.7892 95.6529V95.6523Z" fill="#FFFFF8"/>
<path fill-rule="evenodd" clip-rule="evenodd" d="M84.2748 100.789C83.6601 101.36 85.1281 102.491 85.3673 101.946C85.6065 101.401 84.6744 100.418 84.2748 100.789Z" fill="#F5CEFA"/>
<path fill-rule="evenodd" clip-rule="evenodd" d="M82.6464 105.262C82.5882 106.2 83.1236 107.267 84.7656 107.882C86.4077 108.496 87.6935 108.329 87.6935 108.329C87.6935 108.329 85.7724 107.948 84.7151 107.208C83.6578 106.467 82.6464 105.262 82.6464 105.262Z" fill="#F5CEFA"/>
<path fill-rule="evenodd" clip-rule="evenodd" d="M89.3795 92.9278C88.8377 92.2102 89.5429 91.2287 90.5367 90.6246C91.5305 90.0205 91.6498 90.2038 91.4371 90.731C91.2243 91.2587 90.8993 92.3712 90.4344 92.9272C89.9696 93.4831 89.7004 93.3521 89.3795 92.9272V92.9278Z" fill="#FFFFF8"/>
<path fill-rule="evenodd" clip-rule="evenodd" d="M92.9521 91.6789C92.7458 91.3275 93.1619 90.3008 93.729 90.3948C94.2961 90.4888 94.158 90.7151 93.8918 91.09C93.6932 91.3704 93.1466 92.0109 92.9521 91.6789Z" fill="#FFFFF8"/>
<path fill-rule="evenodd" clip-rule="evenodd" d="M97.0583 93.4373C96.865 93.0382 98.447 91.8194 98.661 91.9469C98.8749 92.0744 98.7362 92.7197 98.3671 92.9618C97.9981 93.204 97.1253 93.5772 97.0577 93.4373H97.0583Z" fill="#FFFFF8"/>
</g>
<defs>
<filter id="filter0_d_905_5892" x="0" y="0.304718" width="202" height="201.391" filterUnits="userSpaceOnUse" color-interpolation-filters="sRGB">
<feFlood flood-opacity="0" result="BackgroundImageFix"/>
<feColorMatrix in="SourceAlpha" type="matrix" values="0 0 0 0 0 0 0 0 0 0 0 0 0 0 0 0 0 0 127 0" result="hardAlpha"/>
<feOffset/>
<feGaussianBlur stdDeviation="40"/>
<feComposite in2="hardAlpha" operator="out"/>
<feColorMatrix type="matrix" values="0 0 0 0 0 0 0 0 0 0.768627 0 0 0 0 1 0 0 0 1 0"/>
<feBlend mode="normal" in2="BackgroundImageFix" result="effect1_dropShadow_905_5892"/>
<feBlend mode="normal" in="SourceGraphic" in2="effect1_dropShadow_905_5892" result="shape"/>
</filter>
<radialGradient id="paint0_radial_905_5892" cx="0" cy="0" r="1" gradientUnits="userSpaceOnUse" gradientTransform="translate(87.9938 92.8737) scale(32.7644 32.7644)">
<stop stop-color="#FF9AFF"/>
<stop offset="0.09" stop-color="#FB94FF"/>
<stop offset="0.21" stop-color="#F083FF"/>
<stop offset="0.34" stop-color="#DF67FF"/>
<stop offset="0.49" stop-color="#C740FF"/>
<stop offset="0.64" stop-color="#A810FF"/>
<stop offset="0.68" stop-color="#9F00FF"/>
<stop offset="0.74" stop-color="#9800F8"/>
<stop offset="0.83" stop-color="#8700E4"/>
<stop offset="0.93" stop-color="#6A00C5"/>
<stop offset="1" stop-color="#5200AB"/>
</radialGradient>
<radialGradient id="paint1_radial_905_5892" cx="0" cy="0" r="1" gradientUnits="userSpaceOnUse" gradientTransform="translate(87.9938 92.8737) scale(32.7644 32.7644)">
<stop stop-color="#FF9AFF"/>
<stop offset="0.09" stop-color="#FB94FF"/>
<stop offset="0.21" stop-color="#F083FF"/>
<stop offset="0.34" stop-color="#DF67FF"/>
<stop offset="0.49" stop-color="#C740FF"/>
<stop offset="0.64" stop-color="#A810FF"/>
<stop offset="0.68" stop-color="#9F00FF"/>
<stop offset="0.74" stop-color="#9800F8"/>
<stop offset="0.83" stop-color="#8700E4"/>
<stop offset="0.93" stop-color="#6A00C5"/>
<stop offset="1" stop-color="#5200AB"/>
</radialGradient>
<radialGradient id="paint2_radial_905_5892" cx="0" cy="0" r="1" gradientUnits="userSpaceOnUse" gradientTransform="translate(88.9229 90.9778) scale(32.2073 32.2073)">
<stop stop-color="#FF9AFF"/>
<stop offset="0.09" stop-color="#FB94FF"/>
<stop offset="0.21" stop-color="#F083FF"/>
<stop offset="0.34" stop-color="#DF67FF"/>
<stop offset="0.49" stop-color="#C740FF"/>
<stop offset="0.64" stop-color="#A810FF"/>
<stop offset="0.68" stop-color="#9F00FF"/>
<stop offset="0.74" stop-color="#9800F8"/>
<stop offset="0.83" stop-color="#8700E4"/>
<stop offset="0.93" stop-color="#6A00C5"/>
<stop offset="1" stop-color="#5200AB"/>
</radialGradient>
<radialGradient id="paint3_radial_905_5892" cx="0" cy="0" r="1" gradientUnits="userSpaceOnUse" gradientTransform="translate(93.1584 87.5715) scale(7.20158)">
<stop stop-color="white"/>
<stop offset="1" stop-color="#623964"/>
</radialGradient>
<radialGradient id="paint4_radial_905_5892" cx="0" cy="0" r="1" gradientUnits="userSpaceOnUse" gradientTransform="translate(94.3038 90.175) scale(2.50533)">
<stop stop-color="white"/>
<stop offset="1" stop-color="#623964"/>
</radialGradient>
<radialGradient id="paint5_radial_905_5892" cx="0" cy="0" r="1" gradientUnits="userSpaceOnUse" gradientTransform="translate(92.7635 89.9429) scale(2.63991 2.63991)">
<stop stop-color="white"/>
<stop offset="1" stop-color="#623964"/>
</radialGradient>
<radialGradient id="paint6_radial_905_5892" cx="0" cy="0" r="1" gradientUnits="userSpaceOnUse" gradientTransform="translate(90.8958 87.4005) scale(6.09848)">
<stop stop-color="white"/>
<stop offset="1" stop-color="#623964"/>
</radialGradient>
<radialGradient id="paint7_radial_905_5892" cx="0" cy="0" r="1" gradientUnits="userSpaceOnUse" gradientTransform="translate(88.2894 85.0304) scale(10.3393)">
<stop stop-color="white"/>
<stop offset="1" stop-color="#623964"/>
</radialGradient>
<radialGradient id="paint8_radial_905_5892" cx="0" cy="0" r="1" gradientUnits="userSpaceOnUse" gradientTransform="translate(92.1218 86.6677) scale(14.4067 14.4067)">
<stop stop-color="white"/>
<stop offset="1" stop-color="#623964"/>
</radialGradient>
<radialGradient id="paint9_radial_905_5892" cx="0" cy="0" r="1" gradientUnits="userSpaceOnUse" gradientTransform="translate(87.6295 86.774) scale(24.3393)">
<stop stop-color="white"/>
<stop offset="1" stop-color="#623964"/>
</radialGradient>
<radialGradient id="paint10_radial_905_5892" cx="0" cy="0" r="1" gradientUnits="userSpaceOnUse" gradientTransform="translate(94.925 107.972) scale(19.1829)">
<stop stop-color="#FFFF4A"/>
<stop offset="1" stop-color="#360038"/>
</radialGradient>
<radialGradient id="paint11_radial_905_5892" cx="0" cy="0" r="1" gradientUnits="userSpaceOnUse" gradientTransform="translate(87.3708 115.373) scale(2.07044)">
<stop stop-color="#6D00C2"/>
<stop offset="0.4" stop-color="#6600BC"/>
<stop offset="0.98" stop-color="#5200AB"/>
<stop offset="1" stop-color="#5200AB"/>
</radialGradient>
<radialGradient id="paint12_radial_905_5892" cx="0" cy="0" r="1" gradientUnits="userSpaceOnUse" gradientTransform="translate(120.855 103.335) scale(2.16271)">
<stop stop-color="#1F0081"/>
<stop offset="0.73" stop-color="#250087"/>
<stop offset="1" stop-color="#2A008B"/>
</radialGradient>
<linearGradient id="paint13_linear_905_5892" x1="88.9588" y1="94.2124" x2="91.7597" y2="94.2124" gradientUnits="userSpaceOnUse">
<stop stop-color="#BDFFE8"/>
<stop offset="0.2" stop-color="#8ABBAA"/>
<stop offset="0.42" stop-color="#59796E"/>
<stop offset="0.61" stop-color="#33453E"/>
<stop offset="0.78" stop-color="#171F1C"/>
<stop offset="0.91" stop-color="#060807"/>
<stop offset="1"/>
</linearGradient>
<linearGradient id="paint14_linear_905_5892" x1="82.2838" y1="96.9094" x2="94.6747" y2="96.9094" gradientUnits="userSpaceOnUse">
<stop stop-color="#BDFFE8"/>
<stop offset="0.2" stop-color="#8ABBAA"/>
<stop offset="0.42" stop-color="#59796E"/>
<stop offset="0.61" stop-color="#33453E"/>
<stop offset="0.78" stop-color="#171F1C"/>
<stop offset="0.91" stop-color="#060807"/>
<stop offset="1"/>
</linearGradient>
</defs>
</svg>
