<svg width="202" height="202" viewBox="0 0 202 202" fill="none" xmlns="http://www.w3.org/2000/svg">
<g filter="url(#filter0_d_905_6058)">
<path fill-rule="evenodd" clip-rule="evenodd" d="M112.495 84.6934C112.495 84.6934 115.019 85.3923 116.699 85.2901C116.699 85.2901 119.708 87.3347 121.388 92.7521C121.388 92.7521 119.943 94.4652 120.25 96.4559C120.25 96.4559 117.677 89.463 112.495 84.6934Z" fill="url(#paint0_linear_905_6058)"/>
<path fill-rule="evenodd" clip-rule="evenodd" d="M120.656 100.387C120.656 102.228 120.397 104.012 119.908 105.696C118.937 109.082 117.055 112.081 114.543 114.419C112.746 116.094 110.626 117.426 108.291 118.312C106.175 119.117 103.885 119.554 101.486 119.554C101.146 119.554 100.802 119.546 100.466 119.526H100.462C99.9601 119.502 99.4623 119.453 98.9729 119.392C95.2708 118.907 91.9086 117.369 89.1814 115.079C88.1577 114.225 87.2272 113.262 86.4058 112.21C85.7827 111.421 85.2203 110.583 84.7264 109.697C84.609 109.487 84.496 109.272 84.3826 109.058C84.3826 109.05 84.3786 109.045 84.3747 109.038C84.2573 108.807 84.1483 108.576 84.0426 108.341H84.0387C83.7066 107.609 83.4156 106.852 83.1807 106.075C83.0026 105.517 82.8532 104.943 82.7318 104.36C82.7279 104.356 82.7279 104.348 82.7279 104.344C82.643 103.935 82.57 103.522 82.5133 103.105C82.384 102.215 82.3188 101.309 82.3188 100.387C82.3188 99.8568 82.3391 99.3264 82.3874 98.8084C82.4116 98.4763 82.4481 98.1487 82.4925 97.8212C82.7391 95.9356 83.265 94.1393 84.0258 92.4683C84.3983 91.6469 84.827 90.8581 85.3085 90.1012C86.1097 88.8387 87.0564 87.6819 88.1245 86.6419C91.5766 83.2842 96.2906 81.2166 101.486 81.2166C101.688 81.2166 101.89 81.2205 102.088 81.2244C102.303 81.2323 102.517 81.2407 102.732 81.257C103.832 81.3301 104.908 81.4919 105.948 81.7425C106.555 81.888 107.15 82.0582 107.733 82.2605C108.129 82.3942 108.518 82.5437 108.902 82.7055C109.189 82.8269 109.468 82.9522 109.748 83.0859C109.796 83.11 109.845 83.1303 109.893 83.1544C111.755 84.0646 113.442 85.2625 114.906 86.6986C115.116 86.9009 115.319 87.1116 115.521 87.3257C115.655 87.4712 115.788 87.6212 115.918 87.7707C116.14 88.0212 116.355 88.2848 116.565 88.5477C117.33 89.5186 118.001 90.5625 118.564 91.6711C119.223 92.9577 119.741 94.3292 120.093 95.7659C120.461 97.247 120.656 98.7926 120.656 100.387L120.656 100.387Z" fill="url(#paint1_radial_905_6058)"/>
<path style="mix-blend-mode:multiply" opacity="0.5" fill-rule="evenodd" clip-rule="evenodd" d="M83.0498 97.556C83.0498 97.556 86.4687 99.3393 89.5314 96.9143C92.5941 94.4893 90.1444 85.4429 90.1444 85.4429L83.0498 97.556Z" fill="url(#paint2_linear_905_6058)"/>
<path style="mix-blend-mode:multiply" opacity="0.89" fill-rule="evenodd" clip-rule="evenodd" d="M105.275 111.336C105.275 111.336 106.821 113.195 110.607 113.4C114.392 113.604 118.174 109.26 119.043 105.325C119.912 101.39 117.101 97.4116 114.341 96.7935C111.581 96.176 105.274 111.336 105.274 111.336H105.275Z" fill="url(#paint3_linear_905_6058)"/>
<path style="mix-blend-mode:screen" fill-rule="evenodd" clip-rule="evenodd" d="M90.1197 115.357C88.138 113.698 86.4957 111.643 85.3152 109.316C84.5736 107.853 84.0151 106.283 83.6696 104.638C83.6662 104.634 83.6662 104.628 83.6662 104.621C83.4004 103.344 83.2572 102.02 83.2572 100.664C83.2572 96.88 84.3545 93.3527 86.2462 90.3799C87.0508 89.1163 87.9953 87.9594 89.0623 86.9217C92.5171 83.5635 97.2283 81.4953 102.425 81.4953C102.845 81.4953 103.256 81.5087 103.669 81.5351C104.969 81.6183 106.232 81.8335 107.447 82.1633C105.949 81.6722 104.368 81.3621 102.731 81.257C102.318 81.2306 101.906 81.2171 101.487 81.2171C96.29 81.2171 91.5788 83.2853 88.124 86.6436C87.0564 87.6807 86.1125 88.8382 85.3079 90.1018C83.4162 93.0746 82.3188 96.6019 82.3188 100.386C82.3188 101.743 82.4616 103.066 82.7279 104.343C82.7279 104.349 82.7279 104.356 82.7313 104.359C83.0774 106.005 83.6358 107.575 84.3769 109.038C85.5574 111.365 87.1997 113.42 89.1814 115.079C91.2816 116.841 93.7611 118.157 96.4805 118.891C94.128 118.124 91.9761 116.915 90.1197 115.357Z" fill="url(#paint4_radial_905_6058)"/>
<path fill-rule="evenodd" clip-rule="evenodd" d="M85.8298 111.445C85.8298 111.445 87.044 113.423 86.7378 116.643C86.7378 116.643 89.3999 121.296 96.913 121.679C96.913 121.679 100.695 118.891 104.315 119.345C104.315 119.345 98.0649 110.435 85.8304 111.445H85.8298Z" fill="url(#paint5_linear_905_6058)"/>
<path fill-rule="evenodd" clip-rule="evenodd" d="M83.0498 97.556C83.0498 97.556 81.7907 94.0809 80.6602 92.8538C80.6602 92.8538 79.7916 87.3341 85.4135 85.4429C85.4135 85.4429 88.4414 86.0205 90.1444 85.4429C90.1444 85.4429 90.7928 89.1736 88.2245 93.1605C86.0344 96.5598 83.0504 97.556 83.0504 97.556H83.0498Z" fill="url(#paint6_linear_905_6058)"/>
<path fill-rule="evenodd" clip-rule="evenodd" d="M117.491 100.262C117.491 100.262 116.152 95.5501 111.602 95.2675C106.776 94.9675 102.502 104.598 103.991 109.198C105.48 113.799 110.852 113.136 113.311 111.464C116.298 109.434 117.764 104.946 117.491 100.262Z" fill="url(#paint7_linear_905_6058)"/>
<path style="mix-blend-mode:multiply" opacity="0.5" fill-rule="evenodd" clip-rule="evenodd" d="M97.0221 86.425C97.0221 86.425 98.6554 89.1882 101.819 88.8859C105.274 88.5556 106.198 85.6305 106.069 84.472C105.94 83.3134 97.0221 86.425 97.0221 86.425Z" fill="url(#paint8_linear_905_6058)"/>
<path fill-rule="evenodd" clip-rule="evenodd" d="M112.345 96.9143C108.173 96.8913 101.992 107.993 107.373 111.725C112.486 115.271 117.21 107.575 117.764 104.946C118.319 102.317 117.963 96.9452 112.345 96.9143Z" fill="url(#paint9_linear_905_6058)"/>
<path fill-rule="evenodd" clip-rule="evenodd" d="M110.403 111.613C110.205 111.597 110.011 111.569 109.829 111.54C107.239 111.095 106.268 109.294 106.049 107.478C105.912 106.325 106.078 105.167 106.325 104.342C106.814 102.708 109.44 98.8758 112.447 98.3375C113.515 98.1431 114.632 98.3701 115.72 99.264C116.639 100.025 117.096 101.024 117.201 102.133C117.606 106.268 113.224 111.864 110.404 111.613H110.403Z" fill="url(#paint10_linear_905_6058)"/>
<path fill-rule="evenodd" clip-rule="evenodd" d="M97.7575 81.3486C97.7575 81.3486 95.8416 83.809 96.7866 86.021C97.7895 88.3673 103.409 88.2679 105.225 86.4756C107.041 84.6832 105.592 81.2638 104.03 80.6637C102.25 79.9805 99.901 80.1097 97.7575 81.3486Z" fill="url(#paint11_radial_905_6058)"/>
<path fill-rule="evenodd" clip-rule="evenodd" d="M97.3991 84.5681C98.3773 86.5402 105.076 86.8222 105.56 83.4005C106.02 80.1502 101.271 79.7473 99.9005 80.1092C98.5296 80.471 96.0816 81.9122 97.3991 84.5681Z" fill="url(#paint12_linear_905_6058)"/>
<path fill-rule="evenodd" clip-rule="evenodd" d="M104.608 82.5583C104.62 82.6673 104.62 82.7729 104.608 82.8741C104.604 82.9831 104.588 83.0926 104.563 83.1938C104.017 85.3906 99.6028 86.107 98.5953 84.8849C98.3161 84.545 98.1464 84.209 98.0655 83.8899C97.7217 82.5426 98.9235 81.4621 99.7202 81.0452C100.703 80.5272 104.389 79.9968 104.608 82.5583Z" fill="url(#paint13_linear_905_6058)"/>
<path fill-rule="evenodd" clip-rule="evenodd" d="M80.6603 92.8538C80.753 94.1073 87.057 88.1645 85.4136 85.4429C85.4136 85.4429 80.1495 85.9283 80.6603 92.8538Z" fill="url(#paint14_linear_905_6058)"/>
<path fill-rule="evenodd" clip-rule="evenodd" d="M86.7378 116.643C86.3462 114.404 97.7311 115.951 96.913 121.679C96.7344 122.932 87.3884 120.362 86.7378 116.643Z" fill="url(#paint15_linear_905_6058)"/>
<path fill-rule="evenodd" clip-rule="evenodd" d="M95.8899 121.514C95.7 121.668 89.4527 120.746 87.3042 116.95C87.1626 116.695 87.8301 116.614 88.8538 116.736C89.242 116.78 89.6792 116.857 90.1444 116.966C91.6254 117.31 93.3689 117.982 94.5505 119.05C94.9185 119.382 95.2017 119.681 95.4123 119.948C95.7158 120.336 95.8776 120.652 95.9506 120.895C96.0517 121.239 95.9787 121.445 95.8899 121.514Z" fill="url(#paint16_linear_905_6058)"/>
<path fill-rule="evenodd" clip-rule="evenodd" d="M95.4124 119.948C92.9363 119.511 91.1558 118.046 90.1444 116.966C91.6255 117.31 93.3689 117.982 94.5505 119.05C94.9185 119.382 95.2017 119.681 95.4124 119.949V119.948Z" fill="url(#paint17_linear_905_6058)"/>
<path fill-rule="evenodd" clip-rule="evenodd" d="M84.7293 87.165C84.6242 87.5015 84.4466 87.9505 84.1792 88.5477C83.7011 89.6119 82.7566 90.7199 82.0683 91.2592C81.7171 91.5379 81.4311 91.6683 81.3154 91.5671C81.0766 91.3609 81.1165 89.8332 81.8475 88.414C82.579 86.9914 84.559 85.9811 84.7618 86.202C84.8888 86.3396 84.9102 86.593 84.7293 87.165Z" fill="url(#paint18_linear_905_6058)"/>
<path fill-rule="evenodd" clip-rule="evenodd" d="M84.7292 87.165C84.6241 87.5015 84.4466 87.9504 84.1791 88.5477C83.701 89.6119 82.7565 90.7198 82.0682 91.2592C82.8717 89.0725 84.2949 87.5847 84.7292 87.1644V87.165Z" fill="url(#paint19_linear_905_6058)"/>
<path fill-rule="evenodd" clip-rule="evenodd" d="M86.7378 108.749C86.5395 108.627 86.3456 108.409 86.1715 108.13C86.1715 108.13 86.1715 108.126 86.1636 108.117C85.5281 107.094 85.1601 105.313 85.8315 104.949C86.6608 104.495 87.8868 104.73 88.4414 106.203C88.4414 106.203 88.4414 106.207 88.4453 106.211C88.4655 106.259 88.4858 106.312 88.4981 106.365C88.5021 106.373 88.506 106.381 88.506 106.389C88.5139 106.429 88.5262 106.466 88.5386 106.49C88.5549 106.543 88.5712 106.595 88.583 106.652C88.9268 108.056 87.6643 109.31 86.7378 108.748V108.749Z" fill="url(#paint20_linear_905_6058)"/>
<path style="mix-blend-mode:multiply" opacity="0.4" fill-rule="evenodd" clip-rule="evenodd" d="M88.4409 106.204C88.1291 105.576 86.9154 104.848 86.171 105.528C85.39 106.24 86.0979 107.955 86.1631 108.117C85.5277 107.094 85.1596 105.313 85.8311 104.949C86.6604 104.495 87.8863 104.73 88.4409 106.203V106.204Z" fill="url(#paint21_radial_905_6058)"/>
<path fill-rule="evenodd" clip-rule="evenodd" d="M92.5446 90.0939C92.4581 90.0304 92.3778 89.9226 92.3086 89.7877C92.3086 89.7877 92.3086 89.786 92.3053 89.7815C92.053 89.2865 91.953 88.4544 92.2755 88.3134C92.6739 88.1375 93.2284 88.2926 93.4256 88.991C93.4256 88.991 93.4256 88.9927 93.4273 88.9949C93.4346 89.018 93.4419 89.0427 93.4453 89.0674C93.447 89.0713 93.4487 89.0753 93.4481 89.0787C93.4503 89.0978 93.4543 89.1146 93.4588 89.1264C93.4644 89.1511 93.4694 89.1759 93.4728 89.2023C93.5762 89.8608 92.948 90.3878 92.5441 90.0934L92.5446 90.0939Z" fill="url(#paint22_linear_905_6058)"/>
<path style="mix-blend-mode:multiply" opacity="0.4" fill-rule="evenodd" clip-rule="evenodd" d="M93.4256 88.9904C93.3071 88.6904 92.7772 88.3089 92.4092 88.5921C92.0227 88.8887 92.2817 89.7046 92.3053 89.7815C92.053 89.2865 91.953 88.4544 92.2755 88.3134C92.6739 88.1375 93.2284 88.2926 93.4256 88.991V88.9904Z" fill="url(#paint23_radial_905_6058)"/>
<path fill-rule="evenodd" clip-rule="evenodd" d="M106.9 116.854H106.894C106.856 116.873 106.811 116.892 106.767 116.898C106.761 116.904 106.754 116.911 106.748 116.911C106.716 116.917 106.684 116.924 106.665 116.936C106.627 116.949 106.583 116.961 106.532 116.974C105.891 117.146 105.288 116.911 104.951 116.53C104.678 116.225 104.583 115.838 104.78 115.495C104.875 115.33 105.053 115.165 105.281 115.018L105.288 115.012C106.119 114.472 107.579 114.136 107.891 114.682C107.979 114.828 108.037 114.993 108.056 115.165C108.151 115.774 107.84 116.479 106.9 116.854Z" fill="url(#paint24_linear_905_6058)"/>
<path style="mix-blend-mode:screen" opacity="0.5" fill-rule="evenodd" clip-rule="evenodd" d="M91.0979 106.297C91.0979 106.297 92.2508 108.136 95.4124 107.944C98.574 107.753 99.1488 106.206 99.3404 104.948C99.5319 103.689 99.0044 102.141 99.0044 102.141C99.0044 102.141 92.0165 103.462 91.0979 106.297V106.297Z" fill="url(#paint25_radial_905_6058)"/>
<path style="mix-blend-mode:multiply" opacity="0.4" fill-rule="evenodd" clip-rule="evenodd" d="M108.056 115.165C107.796 114.942 107.256 114.67 106.373 114.949C105.021 115.374 104.951 116.53 104.951 116.53C104.678 116.225 104.583 115.838 104.78 115.495C104.875 115.33 105.053 115.165 105.281 115.018L105.288 115.012C106.119 114.472 107.579 114.136 107.891 114.682C107.979 114.828 108.037 114.993 108.056 115.165Z" fill="url(#paint26_radial_905_6058)"/>
<path fill-rule="evenodd" clip-rule="evenodd" d="M99.1594 103.922L99.1554 103.99C99.1639 108.886 91.8277 108.287 90.6787 105.682C90.5208 105.321 90.3871 104.921 90.2859 104.5V104.496C89.6387 101.874 90.0432 98.3622 91.2125 97.5571C92.4424 96.7115 94.8055 96.6913 96.5248 97.5571C98.4627 98.5325 99.2279 101.45 99.1588 103.922H99.1594Z" fill="url(#paint27_linear_905_6058)"/>
<path style="mix-blend-mode:multiply" opacity="0.4" fill-rule="evenodd" clip-rule="evenodd" d="M99.1594 103.922L99.1554 103.99C99.1554 103.99 99.265 100.928 97.7839 99.2927C96.299 97.6582 93.3374 97.1969 91.6417 99.0376C89.991 100.834 90.2702 104.33 90.2859 104.496C89.6387 101.874 90.0432 98.3622 91.2125 97.5571C92.4424 96.7115 94.8055 96.6913 96.5248 97.5571C98.4627 98.5325 99.2279 101.45 99.1588 103.922H99.1594Z" fill="url(#paint28_linear_905_6058)"/>
<path fill-rule="evenodd" clip-rule="evenodd" d="M112.912 88.5101C112.495 88.7326 111.508 88.1179 110.606 87.3487C109.509 86.4059 108.546 85.2288 108.922 85.0586C109.436 84.8282 111.326 84.9816 112.196 85.698C112.568 86.0053 112.924 86.479 113.138 86.9605C113.41 87.5875 113.434 88.2269 112.912 88.5101Z" fill="url(#paint29_linear_905_6058)"/>
<path style="mix-blend-mode:multiply" opacity="0.4" fill-rule="evenodd" clip-rule="evenodd" d="M113.138 86.9605C113.134 86.9565 113.131 86.9481 113.126 86.9442C111.76 84.881 109.652 84.9704 109.498 85.5328C109.344 86.0952 110.606 87.3487 110.606 87.3487C109.509 86.4059 108.546 85.2288 108.922 85.0586C109.436 84.8282 111.326 84.9816 112.196 85.698C112.568 86.0053 112.924 86.479 113.138 86.9605Z" fill="url(#paint30_linear_905_6058)"/>
<path fill-rule="evenodd" clip-rule="evenodd" d="M82.0188 92.3369C82.0188 92.3369 85.1388 90.7715 85.4664 87.6802C85.4664 87.6802 83.8926 90.862 82.0188 92.3369Z" fill="#E5BDFA"/>
<path fill-rule="evenodd" clip-rule="evenodd" d="M105.275 107.664C105.275 107.664 105.582 101.466 110.065 97.8127C110.065 97.8127 104.688 100.385 105.275 107.664Z" fill="#E5BDFA"/>
<path fill-rule="evenodd" clip-rule="evenodd" d="M97.5828 84.8411C97.5828 84.8411 98.4233 86.1171 101.297 86.0199C104.171 85.9221 105.114 84.6108 105.275 84.259C105.275 84.259 104.562 86.4593 101.313 86.3823C97.885 86.3014 97.5828 84.8411 97.5828 84.8411Z" fill="#FFA5F7"/>
<path fill-rule="evenodd" clip-rule="evenodd" d="M91.6423 116.075C91.6423 116.075 95.9995 117.833 96.8822 120.365C96.8822 120.365 96.785 117.46 91.6423 116.075Z" fill="#FFA5F7"/>
<path style="mix-blend-mode:multiply" opacity="0.71" fill-rule="evenodd" clip-rule="evenodd" d="M117.201 102.133V102.141C117.201 102.141 115.72 99.5848 111.614 100.706C107.932 101.709 106.341 106.446 106.049 107.478C105.912 106.325 106.078 105.168 106.325 104.343C106.814 102.708 109.44 98.8763 112.447 98.3381C113.515 98.1437 114.632 98.3707 115.72 99.2646C116.639 100.025 117.096 101.025 117.201 102.133H117.201Z" fill="url(#paint31_linear_905_6058)"/>
<path style="mix-blend-mode:multiply" opacity="0.71" fill-rule="evenodd" clip-rule="evenodd" d="M104.608 82.5583C104.62 82.6673 104.62 82.7729 104.608 82.8741C103.839 81.7453 102.423 81.4941 100.639 81.8784C98.8504 82.2627 98.0655 83.8893 98.0655 83.8893C97.7217 82.542 98.9235 81.4615 99.7202 81.0446C100.703 80.5272 104.389 79.9968 104.608 82.5583Z" fill="url(#paint32_linear_905_6058)"/>
</g>
<defs>
<filter id="filter0_d_905_6058" x="0.611816" y="0" width="200.776" height="202" filterUnits="userSpaceOnUse" color-interpolation-filters="sRGB">
<feFlood flood-opacity="0" result="BackgroundImageFix"/>
<feColorMatrix in="SourceAlpha" type="matrix" values="0 0 0 0 0 0 0 0 0 0 0 0 0 0 0 0 0 0 127 0" result="hardAlpha"/>
<feOffset/>
<feGaussianBlur stdDeviation="40"/>
<feComposite in2="hardAlpha" operator="out"/>
<feColorMatrix type="matrix" values="0 0 0 0 0.592157 0 0 0 0 0.501961 0 0 0 0 0.988235 0 0 0 1 0"/>
<feBlend mode="normal" in2="BackgroundImageFix" result="effect1_dropShadow_905_6058"/>
<feBlend mode="normal" in="SourceGraphic" in2="effect1_dropShadow_905_6058" result="shape"/>
</filter>
<linearGradient id="paint0_linear_905_6058" x1="115.827" y1="95.7552" x2="117.466" y2="85.4114" gradientUnits="userSpaceOnUse">
<stop stop-color="#8931B3"/>
<stop offset="1" stop-color="#8E8CFF"/>
</linearGradient>
<radialGradient id="paint1_radial_905_6058" cx="0" cy="0" r="1" gradientUnits="userSpaceOnUse" gradientTransform="translate(94.982 93.7202) scale(28.9053 28.9053)">
<stop stop-color="#FFB8E2"/>
<stop offset="0.22" stop-color="#FCB7E2"/>
<stop offset="0.33" stop-color="#F5B4E5"/>
<stop offset="0.42" stop-color="#E7B0E9"/>
<stop offset="0.49" stop-color="#D5AAEF"/>
<stop offset="0.55" stop-color="#BDA2F7"/>
<stop offset="0.58" stop-color="#AE9DFC"/>
<stop offset="0.64" stop-color="#A896FC"/>
<stop offset="0.72" stop-color="#9982FC"/>
<stop offset="0.81" stop-color="#8063FD"/>
<stop offset="0.91" stop-color="#5E37FE"/>
<stop offset="0.92" stop-color="#5E37FF"/>
<stop offset="0.99" stop-color="#5E9AFF"/>
</radialGradient>
<linearGradient id="paint2_linear_905_6058" x1="83.0498" y1="91.8155" x2="91.072" y2="91.8155" gradientUnits="userSpaceOnUse">
<stop stop-color="white"/>
<stop offset="0.17" stop-color="#DBCFEA"/>
<stop offset="0.36" stop-color="#B9A2D6"/>
<stop offset="0.55" stop-color="#9E7FC7"/>
<stop offset="0.72" stop-color="#8B66BC"/>
<stop offset="0.87" stop-color="#8057B5"/>
<stop offset="1" stop-color="#7C52B3"/>
</linearGradient>
<linearGradient id="paint3_linear_905_6058" x1="105.275" y1="105.091" x2="119.204" y2="105.091" gradientUnits="userSpaceOnUse">
<stop stop-color="#7C52B3"/>
<stop offset="0.13" stop-color="#8057B5"/>
<stop offset="0.28" stop-color="#8B66BC"/>
<stop offset="0.45" stop-color="#9E7FC7"/>
<stop offset="0.64" stop-color="#B9A2D6"/>
<stop offset="0.83" stop-color="#DBCFEA"/>
<stop offset="1" stop-color="white"/>
</linearGradient>
<radialGradient id="paint4_radial_905_6058" cx="0" cy="0" r="1" gradientUnits="userSpaceOnUse" gradientTransform="translate(87.4789 87.3386) scale(25.2302 25.2302)">
<stop stop-color="#FFFFD9"/>
<stop offset="1"/>
</radialGradient>
<linearGradient id="paint5_linear_905_6058" x1="94.1307" y1="121.341" x2="95.5578" y2="112.328" gradientUnits="userSpaceOnUse">
<stop stop-color="#6D109D"/>
<stop offset="1" stop-color="#8E8CFF"/>
</linearGradient>
<linearGradient id="paint6_linear_905_6058" x1="88.4414" y1="93.1027" x2="82.1177" y2="87.6055" gradientUnits="userSpaceOnUse">
<stop stop-color="#C98EFF"/>
<stop offset="1" stop-color="#8931B3"/>
</linearGradient>
<linearGradient id="paint7_linear_905_6058" x1="116.052" y1="108.497" x2="105.232" y2="100.221" gradientUnits="userSpaceOnUse">
<stop stop-color="#5400B3"/>
<stop offset="1" stop-color="#F2C0FF"/>
</linearGradient>
<linearGradient id="paint8_linear_905_6058" x1="97.0221" y1="86.5615" x2="106.081" y2="86.5615" gradientUnits="userSpaceOnUse">
<stop stop-color="white"/>
<stop offset="0.17" stop-color="#DBCFEA"/>
<stop offset="0.36" stop-color="#B9A2D6"/>
<stop offset="0.55" stop-color="#9E7FC7"/>
<stop offset="0.72" stop-color="#8B66BC"/>
<stop offset="0.87" stop-color="#8057B5"/>
<stop offset="1" stop-color="#7C52B3"/>
</linearGradient>
<linearGradient id="paint9_linear_905_6058" x1="110.635" y1="112.75" x2="112.697" y2="96.8989" gradientUnits="userSpaceOnUse">
<stop stop-color="#644FF7"/>
<stop offset="1" stop-color="#9F6DFF"/>
</linearGradient>
<linearGradient id="paint10_linear_905_6058" x1="106.949" y1="110.582" x2="115.386" y2="100.239" gradientUnits="userSpaceOnUse">
<stop stop-color="#935CE1"/>
<stop offset="0.22" stop-color="#8F5ADF"/>
<stop offset="0.43" stop-color="#8353DB"/>
<stop offset="0.63" stop-color="#7149D5"/>
<stop offset="0.82" stop-color="#563BCC"/>
<stop offset="0.99" stop-color="#392CC2"/>
</linearGradient>
<radialGradient id="paint11_radial_905_6058" cx="0" cy="0" r="1" gradientUnits="userSpaceOnUse" gradientTransform="translate(97.4202 85.0356) rotate(-109.29) scale(7.18841)">
<stop stop-color="#DEA5FF"/>
<stop offset="1" stop-color="#8931B3"/>
</radialGradient>
<linearGradient id="paint12_linear_905_6058" x1="105.239" y1="81.62" x2="97.278" y2="84.4062" gradientUnits="userSpaceOnUse">
<stop stop-color="#C287F8"/>
<stop offset="1" stop-color="#CCB3FF"/>
</linearGradient>
<linearGradient id="paint13_linear_905_6058" x1="101.311" y1="85.4777" x2="101.311" y2="80.6154" gradientUnits="userSpaceOnUse">
<stop stop-color="#9F6DFF"/>
<stop offset="0.27" stop-color="#9B69FE"/>
<stop offset="0.52" stop-color="#905EFD"/>
<stop offset="0.76" stop-color="#7D4BFA"/>
<stop offset="1" stop-color="#6431F7"/>
</linearGradient>
<linearGradient id="paint14_linear_905_6058" x1="83.156" y1="93.0257" x2="83.156" y2="85.4434" gradientUnits="userSpaceOnUse">
<stop stop-color="#FC9FF7"/>
<stop offset="1" stop-color="#F66DFF"/>
</linearGradient>
<linearGradient id="paint15_linear_905_6058" x1="91.8411" y1="122" x2="91.8411" y2="115.66" gradientUnits="userSpaceOnUse">
<stop stop-color="#C282F7"/>
<stop offset="1" stop-color="#DC6DFF"/>
</linearGradient>
<linearGradient id="paint16_linear_905_6058" x1="91.6423" y1="121.53" x2="91.6423" y2="116.68" gradientUnits="userSpaceOnUse">
<stop stop-color="#4848F7"/>
<stop offset="1" stop-color="#6D20FF"/>
</linearGradient>
<linearGradient id="paint17_linear_905_6058" x1="92.7784" y1="119.948" x2="92.7784" y2="116.966" gradientUnits="userSpaceOnUse">
<stop stop-color="#644FF7"/>
<stop offset="1" stop-color="#9F6DFF"/>
</linearGradient>
<linearGradient id="paint18_linear_905_6058" x1="83.0229" y1="91.6014" x2="83.0229" y2="86.1716" gradientUnits="userSpaceOnUse">
<stop stop-color="#9F6DFF"/>
<stop offset="1" stop-color="#644FF7"/>
</linearGradient>
<linearGradient id="paint19_linear_905_6058" x1="83.1751" y1="89.0708" x2="83.7055" y2="89.4056" gradientUnits="userSpaceOnUse">
<stop stop-color="#9084FF"/>
<stop offset="1" stop-color="#C287F8"/>
</linearGradient>
<linearGradient id="paint20_linear_905_6058" x1="85.277" y1="105.701" x2="88.5818" y2="107.79" gradientUnits="userSpaceOnUse">
<stop stop-color="#9084FF"/>
<stop offset="0.49" stop-color="#D08BFC"/>
<stop offset="1" stop-color="#FFC9F8"/>
</linearGradient>
<radialGradient id="paint21_radial_905_6058" cx="0" cy="0" r="1" gradientUnits="userSpaceOnUse" gradientTransform="translate(86.9576 106.43) scale(1.58893)">
<stop stop-color="#1372B3"/>
<stop offset="1" stop-color="white"/>
</radialGradient>
<linearGradient id="paint22_linear_905_6058" x1="91.9935" y1="88.6374" x2="93.431" y2="89.7251" gradientUnits="userSpaceOnUse">
<stop stop-color="#9084FF"/>
<stop offset="0.49" stop-color="#D08BFC"/>
<stop offset="1" stop-color="#FFC9F8"/>
</linearGradient>
<radialGradient id="paint23_radial_905_6058" cx="0" cy="0" r="1" gradientUnits="userSpaceOnUse" gradientTransform="translate(92.7373 89.0373) rotate(4.82) scale(0.732663)">
<stop stop-color="#1372B3"/>
<stop offset="1" stop-color="white"/>
</radialGradient>
<linearGradient id="paint24_linear_905_6058" x1="108.064" y1="115.747" x2="104.679" y2="115.676" gradientUnits="userSpaceOnUse">
<stop stop-color="#9566FC"/>
<stop offset="1" stop-color="#5445B1"/>
</linearGradient>
<radialGradient id="paint25_radial_905_6058" cx="0" cy="0" r="1" gradientUnits="userSpaceOnUse" gradientTransform="translate(96.39 107.273) scale(3.57903)">
<stop stop-color="#FFFFE8"/>
<stop offset="0.2" stop-color="#BBBBAA"/>
<stop offset="0.42" stop-color="#79796E"/>
<stop offset="0.61" stop-color="#45453E"/>
<stop offset="0.78" stop-color="#1F1F1C"/>
<stop offset="0.91" stop-color="#080807"/>
<stop offset="1"/>
</radialGradient>
<radialGradient id="paint26_radial_905_6058" cx="0" cy="0" r="1" gradientUnits="userSpaceOnUse" gradientTransform="translate(106.365 115.467) scale(1.41195 1.41195)">
<stop stop-color="#1372B3"/>
<stop offset="1" stop-color="white"/>
</radialGradient>
<linearGradient id="paint27_linear_905_6058" x1="89.8595" y1="99.4798" x2="99.0549" y2="105.293" gradientUnits="userSpaceOnUse">
<stop stop-color="#9084FF"/>
<stop offset="0.12" stop-color="#9684FE"/>
<stop offset="0.29" stop-color="#AA86FD"/>
<stop offset="0.49" stop-color="#C98AFC"/>
<stop offset="0.53" stop-color="#D08BFC"/>
<stop offset="1" stop-color="#FFC9F8"/>
</linearGradient>
<linearGradient id="paint28_linear_905_6058" x1="89.978" y1="100.706" x2="99.1633" y2="100.706" gradientUnits="userSpaceOnUse">
<stop stop-color="#1372B3"/>
<stop offset="1" stop-color="white"/>
</linearGradient>
<linearGradient id="paint29_linear_905_6058" x1="108.925" y1="85.0103" x2="113.441" y2="87.8651" gradientUnits="userSpaceOnUse">
<stop stop-color="#845FFF"/>
<stop offset="0.49" stop-color="#A972FC"/>
<stop offset="1" stop-color="#D4B0F8"/>
</linearGradient>
<linearGradient id="paint30_linear_905_6058" x1="108.84" y1="86.1542" x2="113.138" y2="86.1542" gradientUnits="userSpaceOnUse">
<stop stop-color="#1372B3"/>
<stop offset="1" stop-color="white"/>
</linearGradient>
<linearGradient id="paint31_linear_905_6058" x1="106" y1="102.876" x2="117.201" y2="102.876" gradientUnits="userSpaceOnUse">
<stop stop-color="#7C52B3"/>
<stop offset="1" stop-color="white"/>
</linearGradient>
<linearGradient id="paint32_linear_905_6058" x1="98.0048" y1="82.2526" x2="104.617" y2="82.2526" gradientUnits="userSpaceOnUse">
<stop stop-color="#7C52B3"/>
<stop offset="1" stop-color="white"/>
</linearGradient>
</defs>
</svg>
