<svg width="202" height="200" viewBox="0 0 202 200" fill="none" xmlns="http://www.w3.org/2000/svg">
<g filter="url(#filter0_d_905_5936)">
<path fill-rule="evenodd" clip-rule="evenodd" d="M107.204 113.078L112.97 113.408C112.97 113.408 117.744 111.97 120.125 108.938L121.244 102.625L119.394 96.8504L109.34 103.28C109.34 103.28 107.059 110.993 107.203 113.078H107.204Z" fill="url(#paint0_linear_905_5936)"/>
<path fill-rule="evenodd" clip-rule="evenodd" d="M119.843 101.104C119.843 102.901 119.59 104.642 119.112 106.284C118.165 109.589 116.328 112.516 113.876 114.798C112.123 116.433 110.053 117.733 107.775 118.598C105.71 119.383 103.475 119.81 101.133 119.81C100.801 119.81 100.465 119.802 100.137 119.783H100.133C99.6437 119.759 99.1579 119.711 98.6802 119.652C95.0671 119.178 91.7856 117.677 89.1238 115.442C88.1247 114.609 87.2166 113.669 86.4149 112.642C85.8068 111.872 85.2579 111.055 84.7764 110.19C84.6618 109.985 84.5516 109.775 84.4408 109.566C84.4408 109.558 84.437 109.554 84.4331 109.546C84.3185 109.321 84.2121 109.096 84.109 108.867H84.1052C83.7817 108.152 83.497 107.414 83.2678 106.655C83.094 106.11 82.9481 105.55 82.8297 104.981C82.8258 104.977 82.8258 104.969 82.8258 104.965C82.743 104.566 82.6718 104.163 82.6164 103.757C82.4902 102.888 82.4266 102.003 82.4266 101.103C82.4266 100.586 82.4464 100.068 82.4935 99.5631C82.5171 99.2391 82.5528 98.9194 82.5961 98.5997C82.8368 96.7593 83.3506 95.0062 84.0926 93.3754C84.4561 92.5737 84.8745 91.8038 85.3445 91.0651C86.1265 89.8329 87.0505 88.7038 88.0929 87.6888C91.4615 84.4112 96.0618 82.3932 101.133 82.3932C101.33 82.3932 101.527 82.3971 101.721 82.4009C101.93 82.4086 102.139 82.4168 102.349 82.4327C103.423 82.504 104.473 82.6619 105.488 82.9065C106.08 83.0485 106.661 83.2147 107.23 83.4121C107.617 83.5426 107.996 83.6885 108.371 83.8464C108.651 83.9648 108.924 84.0871 109.196 84.2176C109.243 84.2412 109.291 84.261 109.338 84.2845C111.155 85.1729 112.801 86.342 114.231 87.7436C114.436 87.9411 114.634 88.1461 114.831 88.3556C114.962 88.4976 115.092 88.6441 115.218 88.7899C115.436 89.0345 115.645 89.2917 115.85 89.5483C116.597 90.4959 117.252 91.5148 117.801 92.5967C118.444 93.8525 118.95 95.191 119.293 96.5932C119.653 98.0387 119.842 99.5472 119.842 101.103L119.843 101.104Z" fill="url(#paint1_radial_905_5936)"/>
<path style="mix-blend-mode:multiply" opacity="0.71" fill-rule="evenodd" clip-rule="evenodd" d="M90.3022 99.6542C90.3022 99.6542 93.6111 102.612 94.4342 103.831C95.2573 105.049 98.0255 113.368 98.1006 115.12C98.1752 116.871 96.5174 119.237 96.5174 119.237C96.5174 119.237 93.7087 118.446 92.1387 117.509L93.0874 110.973L90.3028 99.6547L90.3022 99.6542Z" fill="url(#paint2_linear_905_5936)"/>
<path style="mix-blend-mode:multiply" opacity="0.71" fill-rule="evenodd" clip-rule="evenodd" d="M109.835 105.155L115.01 107.72C115.01 107.72 116.037 108.411 117.257 107.117C117.257 107.117 117.38 105.312 116.631 103.572L109.834 105.155H109.835Z" fill="url(#paint3_linear_905_5936)"/>
<g style="mix-blend-mode:multiply" opacity="0.3">
<path fill-rule="evenodd" clip-rule="evenodd" d="M90.8423 100.635C90.4195 102.434 90.6882 104.322 91.3386 106.036C91.479 106.406 91.6298 106.882 91.8596 107.215C92.0405 107.478 92.3471 107.636 92.596 107.825C92.9256 108.075 93.225 108.361 93.5485 108.618C93.9154 108.909 94.2883 109.087 94.7314 109.245C95.5731 109.545 96.4187 109.768 97.3065 109.505C98.095 109.271 98.8628 108.702 99.3195 108.024C99.5323 107.709 99.7785 107.429 100.003 107.123C100.225 106.822 100.364 106.443 100.501 106.098C100.774 105.414 100.86 104.549 100.812 103.818C100.789 103.469 100.747 103.113 100.662 102.774C100.573 102.419 100.41 102.09 100.342 101.729C100.231 101.137 99.9666 100.612 99.7297 100.057C99.1413 98.6825 97.6125 97.8605 96.2032 97.6559C95.5413 97.56 94.886 97.713 94.2356 97.8133C93.5485 97.9191 93.049 98.2383 92.4375 98.5377C92.0773 98.7143 91.7241 98.9117 91.4669 99.2248C90.8588 99.9667 90.7705 101.009 90.8434 100.633L90.8423 100.635Z" fill="#7D72B3"/>
<path fill-rule="evenodd" clip-rule="evenodd" d="M96.4873 110.593C96.8048 110.307 97.2369 109.982 97.646 109.838C97.9262 109.739 98.1878 109.846 98.4165 110.01C98.8776 110.339 98.7894 111.106 98.4247 111.496C97.759 112.206 96.507 111.639 96.5103 110.732L96.4879 110.592L96.4873 110.593Z" fill="#7D72B3"/>
<path fill-rule="evenodd" clip-rule="evenodd" d="M102.942 104.623C102.758 104.375 102.63 104.292 102.64 104.044C102.647 103.858 102.857 103.503 102.955 103.324C103.25 102.785 103.72 102.401 104.299 102.218C104.708 102.089 105.089 102.029 105.516 102.026C105.899 102.023 106.216 102.136 106.577 102.252C107.231 102.463 107.954 102.812 108.436 103.324C108.889 103.805 108.823 104.674 108.426 105.165C108.122 105.54 107.681 105.767 107.28 106.024C106.842 106.305 106.361 106.665 105.852 106.804C105.523 106.894 105.287 106.941 104.963 106.846C104.65 106.754 104.397 106.662 104.111 106.517C103.85 106.384 103.651 106.329 103.438 106.12C103.249 105.936 103.093 105.747 102.961 105.517C102.775 105.19 102.841 104.791 102.941 104.625L102.942 104.623Z" fill="#7D72B3"/>
<path fill-rule="evenodd" clip-rule="evenodd" d="M101.517 101.233C101.441 101.476 101.276 101.966 101.714 101.939C101.914 101.927 102.212 101.758 102.317 101.634C102.756 101.124 101.709 100.78 101.617 101.233H101.517Z" fill="#7D72B3"/>
<path fill-rule="evenodd" clip-rule="evenodd" d="M108.044 113.465C107.834 113.025 107.788 112.857 107.93 112.389C108.142 111.69 108.494 110.919 108.863 110.286C109.098 109.883 109.388 109.336 109.832 109.144C110.188 108.99 110.603 108.895 110.989 108.871C111.832 108.819 112.483 109.217 113.083 109.773C113.453 110.116 113.761 110.401 113.975 110.87C114.161 111.276 114.272 111.813 114.229 112.258C114.105 113.526 113.001 114.424 112.184 115.29C111.539 115.973 110.462 116.831 109.458 116.466C108.763 116.214 108.348 115.477 108.064 114.836C107.875 114.412 107.944 113.918 108.044 113.464L108.044 113.465Z" fill="#7D72B3"/>
<path fill-rule="evenodd" clip-rule="evenodd" d="M106.947 110.145C106.701 110.345 106.619 110.59 106.56 110.906C106.516 111.134 106.422 111.643 106.646 111.828C106.843 111.992 107.205 111.716 107.362 111.615C107.497 111.527 107.596 111.435 107.7 111.31C107.755 111.246 107.827 111.189 107.859 111.11C107.91 110.982 107.891 110.805 107.885 110.67C107.878 110.502 107.783 110.366 107.666 110.255C107.568 110.16 107.484 110.136 107.35 110.108C107.206 110.077 107.026 110.017 106.947 110.145H106.947Z" fill="#7D72B3"/>
<path fill-rule="evenodd" clip-rule="evenodd" d="M99.8213 118.368C99.7944 118.441 99.7681 118.487 99.8065 118.558C99.8449 118.629 99.9715 118.732 100.023 118.78C100.213 118.957 100.417 119.009 100.666 119.062C100.911 119.114 101.164 119.146 101.412 119.096C101.57 119.064 101.771 119.029 101.875 118.895C102.067 118.645 101.908 118.27 101.78 118.032C101.682 117.849 101.544 117.685 101.431 117.511C101.311 117.323 101.137 117.167 100.967 117.024C100.756 116.848 100.429 116.607 100.156 116.803C99.8992 116.988 99.7566 117.321 99.6886 117.619C99.6507 117.785 99.659 117.983 99.7171 118.145C99.7588 118.261 99.8427 118.34 99.8213 118.369V118.368Z" fill="#7D72B3"/>
<path fill-rule="evenodd" clip-rule="evenodd" d="M114.999 111.11C114.851 110.986 114.795 110.979 114.811 110.81C114.828 110.63 114.842 110.456 114.91 110.286C115.056 109.919 115.36 109.615 115.651 109.357C115.819 109.209 116.02 109.119 116.23 109.048C116.339 109.012 116.428 108.968 116.542 108.984C116.735 109.01 116.865 109.131 116.924 109.313C117.019 109.601 116.877 109.921 116.721 110.156C116.521 110.457 116.365 110.798 116.049 110.996C115.902 111.087 115.749 111.177 115.593 111.254C115.5 111.3 115.396 111.349 115.287 111.336C115.212 111.327 114.978 111.266 114.999 111.109V111.11Z" fill="#7D72B3"/>
<path fill-rule="evenodd" clip-rule="evenodd" d="M84.4577 98.1407C84.4967 98.3063 84.5043 98.4779 84.5581 98.6391C84.6672 98.9698 84.9057 99.2533 85.1509 99.493C85.617 99.9486 86.281 100.136 86.9034 100.262C87.2264 100.328 87.5746 100.384 87.9048 100.387C88.174 100.391 88.4586 100.448 88.7257 100.427C89.1742 100.392 89.6009 100.265 89.9858 100.037C90.5561 99.6991 91.0233 99.1738 90.8352 98.4796C90.7327 98.0996 90.481 97.7744 90.2063 97.504C89.9063 97.209 89.6645 96.9025 89.2718 96.7226C89.1002 96.6436 88.9247 96.5641 88.7487 96.4945C88.5376 96.41 88.3374 96.2943 88.1115 96.2554C87.924 96.223 87.7309 96.1507 87.5417 96.1419C87.3564 96.1331 87.1568 96.1326 86.9714 96.1474C86.2975 96.2027 85.6016 96.5965 85.1344 97.0763C84.9496 97.2666 84.7917 97.4793 84.6069 97.6674C84.4369 97.8407 84.4572 98.0496 84.4572 98.1407H84.4577Z" fill="#7D72B3"/>
<path fill-rule="evenodd" clip-rule="evenodd" d="M98.3172 93.4363C98.1307 93.7285 98.0617 93.7938 98.0342 94.1354C97.9997 94.5692 98.0298 94.9788 98.1373 95.4027C98.3824 96.37 99.1408 97.1498 99.7879 97.8786C100.85 99.0746 102.047 100.164 103.507 100.849C104.082 101.119 104.69 101.426 105.347 101.339C105.984 101.255 106.563 101.016 107.17 100.823C107.704 100.654 108.277 100.496 108.83 100.42C109.09 100.385 109.35 100.35 109.611 100.321C109.99 100.279 110.31 100.127 110.672 100.021C111.195 99.8675 111.74 99.7743 112.258 99.6076C112.497 99.5308 112.722 99.4348 112.945 99.3191C113.308 99.131 113.696 99.0197 114.056 98.8212C115.39 98.0859 116.3 96.614 116.372 95.0808C116.408 94.2994 116.123 93.4818 115.729 92.8182C115.507 92.4415 115.225 92.1032 114.979 91.7412C114.66 91.2735 114.282 90.8534 113.874 90.4619C113.116 89.7359 112.262 89.2676 111.264 88.9594C110.715 88.7905 110.208 88.717 109.628 88.7192C108.746 88.7219 107.847 88.8431 106.981 89.0181C106.116 89.193 105.239 89.3778 104.388 89.618C103.492 89.8708 102.589 90.253 101.747 90.6467C100.878 91.053 100.12 91.5921 99.5636 92.3801C99.4386 92.5572 99.2938 92.7278 99.1748 92.9065C99.0811 93.0475 99.0301 93.1577 98.8924 93.2597C98.6424 93.4456 98.4104 93.4867 98.3172 93.4352V93.4363Z" fill="#7D72B3"/>
</g>
<path style="mix-blend-mode:multiply" opacity="0.71" fill-rule="evenodd" clip-rule="evenodd" d="M117.112 96.8268L119.843 101.103C119.843 101.103 119.93 98.2438 119.528 97.6685C119.126 97.0927 117.112 96.8268 117.112 96.8268H117.112Z" fill="url(#paint4_linear_905_5936)"/>
<path style="mix-blend-mode:multiply" opacity="0.71" fill-rule="evenodd" clip-rule="evenodd" d="M84.5576 93.5997C84.5576 93.5997 89.9004 97.0483 104.513 96.3974L110.397 96.8504C110.397 96.8504 115.987 94.9481 117.257 91.6058C117.257 91.6058 115.606 89.2248 115.219 88.7905C114.832 88.3562 107.952 89.8412 107.952 89.8412L84.5576 93.5997Z" fill="url(#paint5_linear_905_5936)"/>
<path fill-rule="evenodd" clip-rule="evenodd" d="M85.3451 89.9854V88.8996C85.3451 88.8996 88.2986 85.0808 93.162 80.8863C93.162 80.8863 105.807 79.7687 109.399 80.8863L110.82 84.1381L115.01 85.7279L115.218 88.791C115.218 88.791 112.466 93.1654 107.453 94.6931L104.917 94.0915C104.917 94.0915 102.14 95.2415 94.8082 95.2415C87.476 95.2415 84.5576 93.6002 84.5576 93.6002V91.0865L85.3451 89.9859V89.9854Z" fill="url(#paint6_linear_905_5936)"/>
<path fill-rule="evenodd" clip-rule="evenodd" d="M95.9296 113.693L94.7013 116.899L90.9143 117.8L87.0839 117.626C87.0839 117.626 83.0205 115.047 81.0738 110.972L81.4966 107.264L80.0588 105.937C80.0588 105.937 79.7111 102.474 82.5939 99.3109C82.5939 99.3109 85.7728 98.4264 90.3023 99.6542L93.094 102.75C93.094 102.75 95.3807 107.11 95.9296 113.693Z" fill="url(#paint7_linear_905_5936)"/>
<path style="mix-blend-mode:multiply" opacity="0.71" fill-rule="evenodd" clip-rule="evenodd" d="M100.907 115.885C100.907 115.885 101.766 117.021 102.29 117.245C102.814 117.47 105.732 118.143 106.068 118.106C106.405 118.068 106.405 114.987 106.218 114.489C106.031 113.99 105.694 113.595 105.694 113.595L100.907 115.884L100.907 115.885Z" fill="url(#paint8_linear_905_5936)"/>
<path fill-rule="evenodd" clip-rule="evenodd" d="M122.001 92.6806L121.855 93.9007L119.726 97.8654C118.533 97.8972 117.262 96.9452 117.112 96.8268C117.108 96.823 117.1 96.8191 117.096 96.8147C116.243 95.4246 115.943 92.368 115.943 92.368L116.938 91.1397L118.569 90.8436L118.98 91.0843L120.425 90.6774L121.559 91.4001L121.894 91.6173L122.001 92.6795V92.6806Z" fill="url(#paint9_linear_905_5936)"/>
<path fill-rule="evenodd" clip-rule="evenodd" d="M117.548 98.6326C117.548 98.6326 115.17 97.3318 114.01 97.3757L111.043 99.408C111.043 99.408 109.837 102.679 109.835 105.155C109.835 105.155 112.695 106.187 114.707 105.903C114.707 105.903 117.004 104.881 117.798 103.202C117.798 103.202 118.11 100.321 117.548 98.6331L117.548 98.6326Z" fill="url(#paint10_linear_905_5936)"/>
<path fill-rule="evenodd" clip-rule="evenodd" d="M85.3451 88.8996C85.3451 88.8996 90.8425 89.08 96.9036 87.5248C96.9036 87.5248 103.039 85.372 104.236 84.5483C105.433 83.7247 109.399 80.8863 109.399 80.8863C109.399 80.8863 103.114 79.3196 93.1626 80.8863C93.1626 80.8863 87.929 84.7962 85.3456 88.8996H85.3451Z" fill="url(#paint11_linear_905_5936)"/>
<path fill-rule="evenodd" clip-rule="evenodd" d="M110.82 84.1376C110.82 84.1376 107.004 88.5371 106.555 88.899C106.106 89.261 99.8883 91.7659 99.8883 91.7659L96.3799 92.6669C96.3799 92.6669 100.77 92.6307 101.518 92.6669L102.914 91.3064L107.753 91.506C107.753 91.506 112.193 88.8272 115.011 85.7273L110.821 84.1376H110.82Z" fill="url(#paint12_linear_905_5936)"/>
<path fill-rule="evenodd" clip-rule="evenodd" d="M84.5576 91.0859L88.4483 91.4561C88.4483 91.4561 91.0421 91.5685 92.5386 91.0634C92.5386 91.0634 87.3296 90.809 85.3451 89.9854L84.5576 91.0859Z" fill="url(#paint13_linear_905_5936)"/>
<path fill-rule="evenodd" clip-rule="evenodd" d="M111.043 99.4074C111.043 99.4074 112.742 100.045 113.859 99.97C114.977 99.8949 117.547 98.6326 117.547 98.6326C117.547 98.6326 116.369 97.6022 114.009 97.3757L111.043 99.408V99.4074Z" fill="url(#paint14_linear_905_5936)"/>
<path fill-rule="evenodd" clip-rule="evenodd" d="M80.0577 105.939C80.0577 105.939 85.1942 104.817 86.6046 104.249C88.015 103.682 90.3006 99.6564 90.3006 99.6564C90.3006 99.6564 87.4787 98.3469 82.5933 99.3114C82.5933 99.3114 79.5493 102.144 80.0571 105.94L80.0577 105.939Z" fill="url(#paint15_linear_905_5936)"/>
<path fill-rule="evenodd" clip-rule="evenodd" d="M81.4971 107.265C81.4971 107.265 85.095 106.792 86.3644 106.444C87.6345 106.095 89.6234 104.865 89.6234 104.865C89.6234 104.865 88.0995 108.334 87.5495 109.119C87.5495 109.119 83.2744 110.73 81.0732 110.973C81.0732 110.973 80.9592 109.042 81.4966 107.266L81.4971 107.265Z" fill="url(#paint16_linear_905_5936)"/>
<path fill-rule="evenodd" clip-rule="evenodd" d="M100.719 115.029C100.719 115.029 101.542 113.226 102.515 112.841C102.515 112.841 104.835 112.863 105.695 113.595L105.134 117.01L101.917 116.79C101.917 116.79 100.72 116.179 100.72 115.029H100.719Z" fill="url(#paint17_linear_905_5936)"/>
<path fill-rule="evenodd" clip-rule="evenodd" d="M100.719 115.029C100.719 115.029 101.729 115.319 102.665 115.029C103.6 114.739 104.759 113.229 104.759 113.229C104.759 113.229 104.012 112.74 102.515 112.841C102.515 112.841 100.981 113.486 100.719 115.029Z" fill="url(#paint18_linear_905_5936)"/>
<path style="mix-blend-mode:multiply" opacity="0.5" fill-rule="evenodd" clip-rule="evenodd" d="M95.9297 113.693L94.7013 116.899L90.9143 117.8L87.0839 117.626C87.0839 117.626 90.8787 117.393 90.9933 116.832C91.104 116.271 91.3645 114.664 91.3645 114.664C90.4323 111.86 87.5501 109.12 87.5501 109.12C88.7543 107.421 89.6234 104.863 89.6234 104.863L87.9888 105.775L86.9227 104.073C88.6918 102.497 90.3029 99.6542 90.3029 99.6542L93.0946 102.75C93.0946 102.75 95.3813 107.11 95.9302 113.693H95.9297Z" fill="url(#paint19_linear_905_5936)"/>
<path style="mix-blend-mode:multiply" opacity="0.5" fill-rule="evenodd" clip-rule="evenodd" d="M103.331 114.665L105.133 117.01L105.695 113.595L104.759 113.229L103.331 114.665Z" fill="url(#paint20_linear_905_5936)"/>
<path style="mix-blend-mode:multiply" opacity="0.71" fill-rule="evenodd" clip-rule="evenodd" d="M113.859 99.9695C113.859 99.9695 114.486 102.132 114.561 103.029C114.635 103.927 114.706 105.903 114.706 105.903C114.706 105.903 116.432 105.319 117.797 103.202C117.797 103.202 118.158 100.736 117.547 98.6326C117.547 98.6326 115.289 99.7913 113.859 99.97V99.9695Z" fill="url(#paint21_linear_905_5936)"/>
<path style="mix-blend-mode:multiply" opacity="0.5" fill-rule="evenodd" clip-rule="evenodd" d="M117.429 92.719L117.884 93.076C117.884 93.076 118.878 92.6718 118.911 92.1591C118.943 91.6464 118.979 91.0848 118.979 91.0848L118.571 90.8436L117.43 92.719H117.429Z" fill="url(#paint22_linear_905_5936)"/>
<path style="mix-blend-mode:multiply" opacity="0.71" fill-rule="evenodd" clip-rule="evenodd" d="M122.001 92.6806L121.855 93.9007L119.726 97.8654C118.533 97.8972 117.262 96.9452 117.112 96.8268C118.182 97.526 119.311 97.4706 119.311 97.4706C119.311 97.4706 119.387 96.2187 119.311 95.4328C119.236 94.647 118.671 93.0754 118.671 93.0754L121.558 91.4012L121.894 91.6184L122 92.6806H122.001Z" fill="url(#paint23_linear_905_5936)"/>
<path fill-rule="evenodd" clip-rule="evenodd" d="M118.571 90.8441L117.429 92.7195C117.429 92.7195 116.743 92.8999 115.943 92.3702L116.938 91.1408L118.571 90.8441Z" fill="url(#paint24_linear_905_5936)"/>
<path fill-rule="evenodd" clip-rule="evenodd" d="M118.979 91.0854L118.911 92.1596C118.911 92.1596 118.327 92.9186 117.555 93.2476C117.555 93.2476 119.036 93.0864 119.721 92.7864C119.721 92.7864 121.501 92.0757 121.896 91.6173L120.426 90.6774L118.979 91.0854Z" fill="url(#paint25_linear_905_5936)"/>
<path style="mix-blend-mode:multiply" opacity="0.5" fill-rule="evenodd" clip-rule="evenodd" d="M97.3718 87.3011L101.135 91.2598L106.555 88.8996C106.555 88.8996 110.521 84.551 110.82 84.1381L109.399 80.8863C109.399 80.8863 105.508 83.576 104.236 84.5483C102.964 85.5205 97.3718 87.3011 97.3718 87.3011Z" fill="url(#paint26_linear_905_5936)"/>
<path style="mix-blend-mode:multiply" opacity="0.5" fill-rule="evenodd" clip-rule="evenodd" d="M102.914 91.3069L104.917 94.0915C104.917 94.0915 103.39 94.6053 101.767 94.8028L101.517 92.6669L102.914 91.3064V91.3069Z" fill="url(#paint27_linear_905_5936)"/>
<path style="mix-blend-mode:multiply" opacity="0.5" fill-rule="evenodd" clip-rule="evenodd" d="M107.752 91.5065L107.453 94.6931C107.453 94.6931 112.709 92.81 115.218 88.791L115.01 85.7278C115.01 85.7278 111.003 89.4995 107.752 91.5065Z" fill="url(#paint28_linear_905_5936)"/>
<path style="mix-blend-mode:multiply" opacity="0.2" fill-rule="evenodd" clip-rule="evenodd" d="M85.9976 91.223L89.6234 95.0369H91.4253L91.7532 91.2598C91.7532 91.2598 87.6871 91.6381 85.9976 91.223Z" fill="url(#paint29_linear_905_5936)"/>
<g style="mix-blend-mode:soft-light">
<path fill-rule="evenodd" clip-rule="evenodd" d="M86.8021 87.6652C86.7264 87.4568 86.7774 87.3812 86.8915 87.1887C87.0714 86.886 87.3192 86.6315 87.5369 86.3574C87.9608 85.8238 88.4132 85.327 88.9846 84.9431C89.5747 84.5466 90.1532 84.1167 90.7767 83.774C91.2028 83.5398 91.6332 83.2997 92.0911 83.133C92.4135 83.0156 92.7475 82.9224 93.076 82.8231C93.7187 82.6279 94.595 82.5424 95.2157 82.8714C95.5941 83.0721 95.7416 83.4433 95.8831 83.8261C95.9527 84.0147 96.0136 84.177 95.9763 84.3827C95.9439 84.562 95.8535 84.7479 95.7739 84.9091C95.514 85.4388 95.032 85.9247 94.5807 86.2954C93.6594 87.0516 92.6143 87.5972 91.4895 87.9789C91.1885 88.0814 90.8869 88.1949 90.5771 88.2684C90.3764 88.3161 90.1702 88.3381 89.97 88.388C89.5056 88.5031 89.0312 88.6073 88.5536 88.6594C88.4231 88.6737 88.2756 88.7192 88.1467 88.7186C88.0294 88.7181 87.9153 88.6451 87.7996 88.6249C87.6066 88.5914 87.3324 88.5991 87.1602 88.5037C86.7007 88.2509 86.6464 87.7513 86.8021 87.6658V87.6652Z" fill="#FFA989"/>
<path fill-rule="evenodd" clip-rule="evenodd" d="M94.4837 87.1168C94.5254 86.9227 94.5138 86.9145 94.6361 86.8043C94.7052 86.7045 94.7842 86.6129 94.8736 86.5301C94.986 86.433 95.1083 86.3491 95.2393 86.2795C95.6172 86.0695 96.0783 85.8348 96.5209 85.9653C96.8186 86.053 96.987 86.1967 96.9179 86.5224C96.8789 86.7061 96.726 86.8915 96.5823 87.005C96.3245 87.209 96.0306 87.3307 95.7296 87.4579C95.5014 87.5539 95.1675 87.6115 94.9191 87.5566C94.6926 87.5067 94.4519 87.2605 94.4837 87.1174V87.1168Z" fill="#FFA989"/>
<path fill-rule="evenodd" clip-rule="evenodd" d="M101.019 81.7297C100.674 81.8372 100.491 81.9052 100.205 82.1004C99.7786 82.3905 99.3219 82.6817 98.9325 83.0195C98.6874 83.2322 98.4445 83.4932 98.2778 83.774C98.1456 83.9966 98.1028 84.2604 98.0831 84.516C98.0628 84.7786 98.1462 85.2486 98.4313 85.3665C98.541 85.4114 98.7384 85.3714 98.847 85.3725C99.1042 85.3747 99.3109 85.3319 99.5598 85.2705C99.8011 85.2107 100.045 85.1948 100.284 85.1235C100.528 85.0517 100.771 84.9843 101.017 84.9228C101.549 84.7907 102.064 84.6635 102.561 84.4266C103.031 84.2028 103.518 84.0169 103.979 83.7746C104.312 83.5991 104.637 83.4203 104.979 83.2657C105.453 83.0513 105.927 82.8418 106.383 82.5923C106.578 82.4859 106.707 82.362 106.861 82.2057C107.011 82.0532 107.188 81.9244 107.3 81.7385C107.35 81.6557 107.467 81.4988 107.463 81.3952C107.459 81.2636 107.269 81.1013 107.171 81.0399C107 80.9329 106.758 80.866 106.56 80.8419C106.272 80.8062 105.94 80.7712 105.651 80.7892C105.295 80.8123 104.908 80.8649 104.558 80.9313C104.325 80.9751 104.118 81.0327 103.879 81.036C103.449 81.0426 103.042 81.0733 102.615 81.1424C102.374 81.1813 102.14 81.2652 101.905 81.3321C101.691 81.393 101.463 81.4374 101.261 81.5328C101.161 81.5805 100.793 81.6622 101.019 81.7313L101.019 81.7297Z" fill="#FFA989"/>
<path fill-rule="evenodd" clip-rule="evenodd" d="M100.02 81.0311C99.7918 81.1386 99.4518 81.257 99.3125 81.4961C99.2215 81.6524 99.3482 81.6831 99.4869 81.6842C99.7315 81.6858 99.9826 81.569 100.217 81.5049C100.398 81.4555 100.59 81.3634 100.742 81.2537C100.813 81.2016 100.958 81.149 100.909 81.041C100.881 80.9773 100.732 80.9104 100.67 80.8913C100.436 80.8205 100.148 80.8743 99.9706 81.0311H100.02Z" fill="#FFA989"/>
<path fill-rule="evenodd" clip-rule="evenodd" d="M108.201 88.264C107.993 88.3315 107.786 88.3677 107.583 88.4307C107.376 88.4944 107.188 88.6249 107.012 88.7488C106.71 88.9632 106.383 89.2374 106.2 89.5648C106.047 89.839 105.882 90.3363 106.203 90.5612C106.645 90.8699 107.335 90.5562 107.777 90.4098C108.469 90.18 109.231 89.913 109.819 89.4633C110.067 89.273 110.309 89.0411 110.537 88.8256C110.726 88.6463 110.926 88.4242 111.085 88.2174C111.202 88.0644 111.219 87.8533 111.198 87.6663C111.179 87.4876 111.002 87.3422 110.838 87.2775C110.511 87.1481 110.232 87.3028 109.91 87.3548C109.575 87.4091 109.184 87.5073 108.884 87.6773C108.427 87.9361 107.944 88.1577 108.201 88.2651V88.264Z" fill="#FFA989"/>
<path fill-rule="evenodd" clip-rule="evenodd" d="M109.349 86.4182C109.293 86.3437 109.259 86.262 109.247 86.172C109.348 86.1457 109.405 86.0294 109.474 85.9653C109.534 85.9094 109.607 85.8721 109.679 85.8364C109.798 85.7777 110.015 85.6758 110.149 85.7273C110.407 85.826 110.47 86.0772 110.336 86.3195C110.204 86.5619 109.953 86.722 109.684 86.7566C109.486 86.7824 109.057 86.5016 109.299 86.268L109.349 86.4177V86.4182Z" fill="#FFA989"/>
<path fill-rule="evenodd" clip-rule="evenodd" d="M112.292 85.7202C112.121 85.7525 111.886 85.7542 111.727 85.8337C111.693 85.8507 111.649 85.9044 111.614 85.928C111.442 86.0437 111.247 86.1369 111.091 86.2729C110.921 86.421 110.733 86.6897 110.822 86.9227C111.129 87.731 112.255 87.2803 112.768 86.9946C112.941 86.8986 113.054 86.7593 113.211 86.6453C113.329 86.5597 113.426 86.4956 113.512 86.3727C113.638 86.1934 113.664 86.0728 113.576 85.8671C113.511 85.7141 113.351 85.6182 113.191 85.5814C113.055 85.5502 112.903 85.5118 112.764 85.5178C112.422 85.5326 112.129 85.7553 111.843 85.9198L112.292 85.7202Z" fill="#FFA989"/>
<path fill-rule="evenodd" clip-rule="evenodd" d="M82.8615 100.235C82.0867 100.599 81.3996 101.189 80.9636 101.932C80.7684 102.265 80.6094 102.604 80.4772 102.967C80.4087 103.155 80.3802 103.354 80.3067 103.54C80.2431 103.703 80.1751 103.855 80.1449 104.029C80.0753 104.425 79.8888 105.23 80.5249 105.282C80.8101 105.306 81.1435 105.236 81.4215 105.178C81.9699 105.065 82.5413 104.843 83.0474 104.605C83.6101 104.341 84.1793 104.044 84.664 103.655C85.1214 103.287 85.633 102.988 86.0475 102.568C86.5427 102.066 87.2578 101.244 86.6996 100.53C86.172 99.856 85.0331 100.01 84.295 100.099C83.9462 100.141 83.5574 100.144 83.218 100.247C83.1396 100.271 83.0425 100.308 82.9723 100.348C82.9202 100.377 82.8752 100.435 82.8621 100.236L82.8615 100.235Z" fill="#FFA989"/>
<path fill-rule="evenodd" clip-rule="evenodd" d="M85.605 103.578C85.656 103.406 85.673 103.33 85.7958 103.211C85.9241 103.088 86.0398 102.953 86.1638 102.826C86.3573 102.626 86.7686 102.394 87.0538 102.377C87.1832 102.37 87.3587 102.374 87.4541 102.478C87.5533 102.587 87.5062 102.803 87.4552 102.926C87.4031 103.05 87.3455 103.139 87.2435 103.228C87.1278 103.33 86.9913 103.474 86.8558 103.546C86.6792 103.641 86.4582 103.709 86.2647 103.766C86.1067 103.812 85.8627 103.894 85.7136 103.767C85.6258 103.692 85.5414 103.516 85.605 103.578Z" fill="#FFA989"/>
<path fill-rule="evenodd" clip-rule="evenodd" d="M83.4598 107.668C83.2936 107.706 83.0524 107.727 82.9027 107.831C82.7721 107.921 82.6658 108.06 82.5709 108.184C82.3751 108.442 82.2062 108.719 82.011 108.978C81.8509 109.19 81.7006 109.426 81.5663 109.655C81.4747 109.811 81.4237 109.957 81.512 110.126C81.7319 110.549 82.4141 110.446 82.7809 110.358C83.1763 110.263 83.5305 110.072 83.9007 109.91C84.2335 109.764 84.5807 109.638 84.9009 109.465C85.452 109.167 86.1238 108.864 86.4215 108.277C86.5378 108.049 86.5822 107.863 86.4818 107.622C86.3886 107.398 86.2203 107.231 86.0064 107.114C85.7838 106.992 85.5414 107.02 85.2974 107.018C84.9568 107.016 84.5807 107.068 84.2522 107.166C84.0427 107.229 83.8245 107.332 83.6221 107.415C83.3101 107.543 83.15 107.797 83.4603 107.667L83.4598 107.668Z" fill="#FFA989"/>
<path fill-rule="evenodd" clip-rule="evenodd" d="M81.5148 108.017C81.5027 107.933 81.5054 107.85 81.5224 107.768C81.6694 107.723 81.733 107.559 81.9162 107.616C82.0505 107.657 82.0719 107.812 82.039 107.918C81.9721 108.129 81.455 108.568 81.4649 108.117L81.5148 108.017Z" fill="#FFA989"/>
<path fill-rule="evenodd" clip-rule="evenodd" d="M114.187 98.0409C113.938 98.0513 113.69 98.0705 113.442 98.0985C113.376 98.1522 113.304 98.1977 113.227 98.2345C112.971 98.3699 112.738 98.467 112.515 98.6594C112.335 98.8146 111.911 99.0877 111.937 99.3762C111.96 99.641 112.344 99.692 112.547 99.6931C112.756 99.6942 112.967 99.6476 113.176 99.6366C113.465 99.6218 113.751 99.5851 114.039 99.5505C114.407 99.5061 114.8 99.4376 115.125 99.2517C115.319 99.1409 115.452 99.023 115.59 98.8481C115.653 98.7675 115.751 98.6869 115.731 98.5745C115.717 98.5004 115.58 98.3507 115.527 98.3008C115.447 98.2279 115.335 98.1818 115.237 98.138C114.762 97.9257 114.218 98.0924 114.188 98.0403L114.187 98.0409Z" fill="#FFA989"/>
<path fill-rule="evenodd" clip-rule="evenodd" d="M101.966 114.003C101.765 114.092 101.64 114.112 101.55 114.299C101.517 114.368 101.409 114.515 101.412 114.607C101.416 114.732 101.542 114.726 101.647 114.698C101.783 114.661 101.919 114.537 102.035 114.463C102.13 114.401 102.196 114.338 102.268 114.251C102.311 114.2 102.348 114.173 102.363 114.103C102.375 114.038 102.342 113.981 102.406 113.94C102.365 113.651 101.819 114.049 101.717 114.053L101.966 114.003V114.003Z" fill="#FFA989"/>
<path fill-rule="evenodd" clip-rule="evenodd" d="M103.363 113.454C103.052 113.592 102.844 113.699 102.684 114.007C102.635 114.104 102.587 114.205 102.637 114.303C102.799 114.617 103.145 114.337 103.324 114.202C103.447 114.11 103.582 114.044 103.687 113.93C103.736 113.878 103.768 113.819 103.811 113.764C103.851 113.715 103.928 113.663 103.953 113.604C104.003 113.487 103.923 113.398 103.815 113.364C103.61 113.3 103.454 113.435 103.263 113.454H103.363V113.454Z" fill="#FFA989"/>
<path fill-rule="evenodd" clip-rule="evenodd" d="M87.0517 106.621C86.9595 106.819 86.6272 107.567 87.0681 107.563C87.4531 107.559 88.081 107.144 88.1018 106.72C88.1155 106.437 87.889 106.3 87.6253 106.27C87.2902 106.231 87.095 106.498 86.9519 106.77L87.0517 106.621Z" fill="#FFA989"/>
<path fill-rule="evenodd" clip-rule="evenodd" d="M88.1987 100.186C88.1126 100.303 87.9909 100.404 88.1126 100.524C88.1724 100.584 88.2349 100.621 88.3216 100.633C88.4905 100.657 88.7405 100.505 88.7488 100.335C88.7548 100.208 88.6939 100.105 88.5979 100.035C88.4614 99.9355 88.3676 99.998 88.2492 100.086L88.1993 100.186H88.1987Z" fill="#FFA989"/>
</g>
<path fill-rule="evenodd" clip-rule="evenodd" d="M92.8127 88.4022C92.8127 88.4022 95.0413 87.7162 95.5332 87.5226C96.0245 87.3291 98.5108 86.9249 98.5108 86.9249C98.5108 86.9249 100.645 86.0086 101.243 85.7267C101.842 85.4449 103.363 84.6969 103.363 84.6969L105.135 83.8848C105.135 83.8848 103.937 85.1142 102.89 85.5167C101.842 85.9192 99.1733 86.9913 99.1733 86.9913C99.1733 86.9913 98.3754 87.2134 97.2529 87.5764C96.1304 87.9388 92.8133 88.4017 92.8133 88.4017L92.8127 88.4022Z" fill="#FFBD4A"/>
<path fill-rule="evenodd" clip-rule="evenodd" d="M106.686 91.467L107.71 91.96C107.71 91.96 108.768 91.3305 108.934 90.7262C108.934 90.7262 106.929 91.2779 106.686 91.467H106.686Z" fill="#FFAB4A"/>
<path fill-rule="evenodd" clip-rule="evenodd" d="M101.037 92.6674L101.552 92.9641L101.923 92.2715L101.037 92.6674Z" fill="#FFAB4A"/>
<path style="mix-blend-mode:multiply" opacity="0.71" fill-rule="evenodd" clip-rule="evenodd" d="M92.8127 99.3312C92.8127 99.3312 94.0224 100.54 96.6787 101.354C96.6787 101.354 96.8657 101.159 97.09 100.018C97.3143 98.876 97.09 98.4763 97.09 98.4763C97.09 98.4763 93.8289 98.8881 92.8127 99.3312Z" fill="url(#paint30_linear_905_5936)"/>
<path style="mix-blend-mode:multiply" opacity="0.71" fill-rule="evenodd" clip-rule="evenodd" d="M94.5981 102.943C94.5981 102.943 94.6338 103.347 94.7835 103.624C94.9332 103.902 96.6101 104.32 96.8322 104.227C97.2435 104.054 96.7785 103.054 96.6041 102.754C96.4297 102.455 96.1445 102.16 96.1445 102.16L94.5987 102.943L94.5981 102.943Z" fill="url(#paint31_linear_905_5936)"/>
<path fill-rule="evenodd" clip-rule="evenodd" d="M84.1836 110.251C84.1836 110.251 86.4527 109.237 87.1634 108.727C87.8741 108.216 88.9418 106.375 88.9418 106.375L87.7995 109.214L87.0389 109.501L86.2285 109.675L84.1836 110.25V110.251Z" fill="#FFAB4A"/>
<path fill-rule="evenodd" clip-rule="evenodd" d="M85.5831 104.585L87.5122 103.497C87.5122 103.497 87.3307 104.117 87.0538 104.283C86.7769 104.45 85.5825 104.585 85.5825 104.585H85.5831Z" fill="#FFAB4A"/>
<path fill-rule="evenodd" clip-rule="evenodd" d="M113.188 99.9459L114.044 100.635C114.044 100.635 114.254 100.071 114.295 99.8911C114.337 99.7112 113.188 99.9454 113.188 99.9454V99.9459Z" fill="#FF864A"/>
<path fill-rule="evenodd" clip-rule="evenodd" d="M118.085 93.1763L119.313 92.7809L120.388 92.4996C120.388 92.4996 119.187 93.1346 118.978 93.2471C118.77 93.3595 118.085 93.1763 118.085 93.1763H118.085Z" fill="#FFAB4A"/>
<path fill-rule="evenodd" clip-rule="evenodd" d="M117.112 92.7486L117.555 92.4042V92.8182L117.112 92.7486Z" fill="#FFAB4A"/>
<path fill-rule="evenodd" clip-rule="evenodd" d="M102.333 115.108L103.8 114.274L103.625 115.048L102.333 115.108Z" fill="#FF864A"/>
<path fill-rule="evenodd" clip-rule="evenodd" d="M85.8917 91.223C85.8917 91.223 87.0104 91.132 87.6668 91.132C88.3232 91.132 89.6201 91.2598 89.6201 91.2598L90.8769 91.3831C90.8769 91.3831 90.1564 91.4418 88.6352 91.467C87.114 91.4923 85.8917 91.223 85.8917 91.223Z" fill="#FFB14A"/>
<path fill-rule="evenodd" clip-rule="evenodd" d="M92.1892 98.2854C92.1892 98.2854 93.3364 97.0099 93.8354 96.8268C94.3344 96.6436 96.6749 97.7129 97.0867 97.8643C97.4985 98.0156 96.2937 100.387 95.9872 100.635C95.6807 100.884 92.2391 99.6267 92.1892 98.2849V98.2854Z" fill="url(#paint32_linear_905_5936)"/>
<path fill-rule="evenodd" clip-rule="evenodd" d="M96.4862 103.623C96.3798 103.928 95.3329 103.769 94.9579 103.623L94.9304 103.607L94.8515 103.552C94.8438 103.548 94.8356 103.54 94.8317 103.532C94.563 103.256 94.5 102.501 94.6815 102.103C94.6815 102.103 95.594 101.822 95.9296 101.941C96.1467 102.016 96.3639 102.576 96.4587 103.043V103.046C96.5059 103.295 96.5218 103.52 96.4862 103.623V103.623Z" fill="url(#paint33_linear_905_5936)"/>
<path style="mix-blend-mode:multiply" opacity="0.5" fill-rule="evenodd" clip-rule="evenodd" d="M95.1176 99.0027L95.9873 100.636C95.9873 100.636 97.101 99.4233 97.1706 98.0277L95.1181 99.0033L95.1176 99.0027Z" fill="url(#paint34_linear_905_5936)"/>
<path fill-rule="evenodd" clip-rule="evenodd" d="M83.8666 93.8963L81.7587 94.4074C81.7587 94.4074 81.4149 95.6264 81.4648 96.1353L82.771 97.5188C82.771 97.5188 83.1757 95.0386 83.8666 93.8963Z" fill="url(#paint35_linear_905_5936)"/>
<path fill-rule="evenodd" clip-rule="evenodd" d="M92.1892 98.2855C92.1892 98.2855 93.2185 98.7927 94.4808 99.0027C95.7432 99.2128 97.17 98.0272 97.17 98.0272C97.17 98.0272 95.8178 96.8186 93.8727 96.5943C93.8727 96.5943 92.6005 97.3203 92.1892 98.2855Z" fill="url(#paint36_linear_905_5936)"/>
<path style="mix-blend-mode:multiply" opacity="0.5" fill-rule="evenodd" clip-rule="evenodd" d="M96.4863 103.623C96.3799 103.928 95.333 103.769 94.958 103.623L94.9305 103.607L94.8516 103.552L94.828 103.536L94.8318 103.532L95.1159 103.137L96.285 102.853L96.4588 103.043V103.047C96.506 103.296 96.5219 103.521 96.4863 103.623Z" fill="url(#paint37_linear_905_5936)"/>
<path fill-rule="evenodd" clip-rule="evenodd" d="M94.6804 102.101C94.6804 102.101 94.6585 102.937 95.0138 103.105C95.3692 103.272 96.1791 102.935 96.2861 102.854C96.393 102.774 96.0387 102.01 95.7322 101.911C95.4257 101.813 94.681 102.1 94.681 102.1L94.6804 102.101Z" fill="url(#paint38_linear_905_5936)"/>
<path style="mix-blend-mode:multiply" opacity="0.71" fill-rule="evenodd" clip-rule="evenodd" d="M112.847 113.244C112.847 113.244 112.449 113.17 112.142 113.24C111.834 113.31 111.336 114.917 111.336 115.158C111.336 116.106 112.438 115.838 112.773 115.749C113.108 115.661 113.189 114.943 113.189 114.943L112.847 113.244V113.244Z" fill="url(#paint39_linear_905_5936)"/>
<path fill-rule="evenodd" clip-rule="evenodd" d="M111.687 114.881C111.423 114.697 111.855 113.731 112.096 113.408L112.118 113.386L112.193 113.324C112.199 113.318 112.209 113.312 112.217 113.311C112.556 113.126 113.299 113.266 113.635 113.548C113.635 113.548 113.661 114.502 113.457 114.794C113.327 114.983 112.728 115.042 112.254 115.01L112.25 115.008C111.998 114.988 111.776 114.943 111.687 114.881H111.687Z" fill="url(#paint40_linear_905_5936)"/>
<path style="mix-blend-mode:multiply" opacity="0.5" fill-rule="evenodd" clip-rule="evenodd" d="M111.687 114.881C111.423 114.697 111.855 113.731 112.096 113.408L112.118 113.386L112.193 113.324L112.214 113.306L112.217 113.311L112.522 113.69L112.483 114.893L112.254 115.01L112.25 115.008C111.998 114.988 111.776 114.943 111.687 114.881H111.687Z" fill="url(#paint41_linear_905_5936)"/>
<path fill-rule="evenodd" clip-rule="evenodd" d="M113.637 113.548C113.637 113.548 112.837 113.304 112.581 113.601C112.324 113.899 112.433 114.769 112.482 114.894C112.531 115.018 113.361 114.881 113.538 114.612C113.715 114.343 113.637 113.548 113.637 113.548Z" fill="url(#paint42_linear_905_5936)"/>
<path fill-rule="evenodd" clip-rule="evenodd" d="M87.9877 111.816L89.9421 111.953L92.9647 111.816L93.9413 112.158L92.8939 112.008L90.877 112.955L90.7306 113.229L89.6235 112.931L87.9877 111.816Z" fill="url(#paint43_linear_905_5936)"/>
<path fill-rule="evenodd" clip-rule="evenodd" d="M87.9877 111.816L89.6235 112.828L90.2064 112.737L91.0859 112.663L92.8939 112.008L90.877 112.955L90.7306 113.229L89.477 112.999L87.9877 111.816Z" fill="url(#paint44_linear_905_5936)"/>
<path fill-rule="evenodd" clip-rule="evenodd" d="M91.7538 88.5042L93.343 89.4474L95.1175 89.3081L97.2523 87.5769L94.5027 87.3801L92.8127 87.8155L91.7538 88.5042Z" fill="url(#paint45_linear_905_5936)"/>
<path fill-rule="evenodd" clip-rule="evenodd" d="M91.7538 88.5042H92.283L93.2558 88.7197H94.3032L95.4444 88.2701L96.6963 87.5769H97.2523C97.2523 87.5769 96.1194 88.7373 95.1175 89.3081L93.3425 89.4474L91.7533 88.5048L91.7538 88.5042Z" fill="url(#paint46_linear_905_5936)"/>
<path fill-rule="evenodd" clip-rule="evenodd" d="M81.9106 110.838L82.663 110.132L83.4839 110.251C83.4839 110.251 83.5886 110.773 83.4839 111.184C83.3792 111.595 82.663 111.339 82.663 111.339L81.9106 110.838Z" fill="url(#paint47_linear_905_5936)"/>
<path fill-rule="evenodd" clip-rule="evenodd" d="M81.9106 110.838C81.9106 110.838 82.6685 111.085 82.793 111.085C82.9174 111.085 83.2169 111.073 83.3419 110.973C83.4664 110.873 83.4839 110.251 83.4839 110.251C83.4839 110.251 83.5886 110.836 83.4839 111.185C83.4839 111.185 83.4664 111.484 82.9366 111.465L82.5873 111.36L81.9106 110.838V110.838Z" fill="url(#paint48_linear_905_5936)"/>
<path fill-rule="evenodd" clip-rule="evenodd" d="M115.132 99.6542C115.132 99.6542 115.328 99.216 115.59 99.0274C115.852 98.8387 116.618 98.8601 116.618 98.8601L116.714 99.0274C116.714 99.0274 116.45 99.7046 116.244 99.8236C116.038 99.9426 115.608 99.8236 115.608 99.8236L115.132 99.6542H115.132Z" fill="url(#paint49_linear_905_5936)"/>
<path fill-rule="evenodd" clip-rule="evenodd" d="M116.619 98.8601C116.619 98.8601 116.348 99.3158 116.161 99.4376C115.974 99.5593 115.733 99.6525 115.733 99.6525C115.733 99.6525 115.432 99.703 115.132 99.6542C115.132 99.6542 115.574 99.8664 115.924 99.8763C115.924 99.8763 116.317 99.8823 116.374 99.8236C116.432 99.7649 116.715 99.0274 116.715 99.0274L116.619 98.8601Z" fill="url(#paint50_linear_905_5936)"/>
</g>
<defs>
<filter id="filter0_d_905_5936" x="0" y="0.190002" width="202.001" height="199.62" filterUnits="userSpaceOnUse" color-interpolation-filters="sRGB">
<feFlood flood-opacity="0" result="BackgroundImageFix"/>
<feColorMatrix in="SourceAlpha" type="matrix" values="0 0 0 0 0 0 0 0 0 0 0 0 0 0 0 0 0 0 127 0" result="hardAlpha"/>
<feOffset/>
<feGaussianBlur stdDeviation="40"/>
<feComposite in2="hardAlpha" operator="out"/>
<feColorMatrix type="matrix" values="0 0 0 0 0.996078 0 0 0 0 0.482353 0 0 0 0 0.329412 0 0 0 1 0"/>
<feBlend mode="normal" in2="BackgroundImageFix" result="effect1_dropShadow_905_5936"/>
<feBlend mode="normal" in="SourceGraphic" in2="effect1_dropShadow_905_5936" result="shape"/>
</filter>
<linearGradient id="paint0_linear_905_5936" x1="115.721" y1="112.534" x2="111.509" y2="99.3832" gradientUnits="userSpaceOnUse">
<stop stop-color="#5B006F"/>
<stop offset="0.02" stop-color="#5C0270"/>
<stop offset="0.23" stop-color="#691A7B"/>
<stop offset="0.46" stop-color="#732B84"/>
<stop offset="0.7" stop-color="#793589"/>
<stop offset="0.99" stop-color="#7B398B"/>
</linearGradient>
<radialGradient id="paint1_radial_905_5936" cx="0" cy="0" r="1" gradientUnits="userSpaceOnUse" gradientTransform="translate(91.5432 93.5498) scale(30.0522)">
<stop stop-color="#9D4863"/>
<stop offset="0.24" stop-color="#994562"/>
<stop offset="0.42" stop-color="#903C61"/>
<stop offset="0.58" stop-color="#7F2D5E"/>
<stop offset="0.73" stop-color="#68195B"/>
<stop offset="0.87" stop-color="#4C0057"/>
<stop offset="0.98" stop-color="#4C0086"/>
</radialGradient>
<linearGradient id="paint2_linear_905_5936" x1="90.3022" y1="109.446" x2="98.1028" y2="109.446" gradientUnits="userSpaceOnUse">
<stop stop-color="#CA528D"/>
<stop offset="1" stop-color="#8E7090"/>
</linearGradient>
<linearGradient id="paint3_linear_905_5936" x1="109.835" y1="105.738" x2="117.264" y2="105.738" gradientUnits="userSpaceOnUse">
<stop stop-color="#CA528D"/>
<stop offset="1" stop-color="#8E7090"/>
</linearGradient>
<linearGradient id="paint4_linear_905_5936" x1="117.112" y1="98.9654" x2="119.851" y2="98.9654" gradientUnits="userSpaceOnUse">
<stop stop-color="#CA528D"/>
<stop offset="1" stop-color="#8E7090"/>
</linearGradient>
<linearGradient id="paint5_linear_905_5936" x1="84.5576" y1="92.781" x2="117.257" y2="92.781" gradientUnits="userSpaceOnUse">
<stop stop-color="#CA528D"/>
<stop offset="1" stop-color="#8E7090"/>
</linearGradient>
<linearGradient id="paint6_linear_905_5936" x1="84.5576" y1="87.8155" x2="115.218" y2="87.8155" gradientUnits="userSpaceOnUse">
<stop stop-color="#DE6863"/>
<stop offset="0.25" stop-color="#DB6462"/>
<stop offset="0.43" stop-color="#D35B61"/>
<stop offset="0.6" stop-color="#C54A5F"/>
<stop offset="0.76" stop-color="#B1335C"/>
<stop offset="0.91" stop-color="#981559"/>
<stop offset="1" stop-color="#860057"/>
</linearGradient>
<linearGradient id="paint7_linear_905_5936" x1="87.9876" y1="117.8" x2="87.9876" y2="99.0027" gradientUnits="userSpaceOnUse">
<stop stop-color="#860057"/>
<stop offset="0.03" stop-color="#8C0656"/>
<stop offset="0.19" stop-color="#A92455"/>
<stop offset="0.36" stop-color="#C03B54"/>
<stop offset="0.54" stop-color="#D14C54"/>
<stop offset="0.74" stop-color="#DA5554"/>
<stop offset="0.99" stop-color="#DE5954"/>
</linearGradient>
<linearGradient id="paint8_linear_905_5936" x1="100.907" y1="115.851" x2="106.344" y2="115.851" gradientUnits="userSpaceOnUse">
<stop stop-color="#CA528D"/>
<stop offset="1" stop-color="#8E7090"/>
</linearGradient>
<linearGradient id="paint9_linear_905_5936" x1="118.972" y1="97.8665" x2="118.972" y2="90.6785" gradientUnits="userSpaceOnUse">
<stop stop-color="#860057"/>
<stop offset="0.03" stop-color="#880456"/>
<stop offset="0.23" stop-color="#951B55"/>
<stop offset="0.45" stop-color="#9D2C54"/>
<stop offset="0.69" stop-color="#A33554"/>
<stop offset="0.99" stop-color="#A53954"/>
</linearGradient>
<linearGradient id="paint10_linear_905_5936" x1="113.859" y1="105.952" x2="113.859" y2="97.3741" gradientUnits="userSpaceOnUse">
<stop stop-color="#860057"/>
<stop offset="0.03" stop-color="#880456"/>
<stop offset="0.23" stop-color="#951B55"/>
<stop offset="0.45" stop-color="#9D2C54"/>
<stop offset="0.69" stop-color="#A33554"/>
<stop offset="0.99" stop-color="#A53954"/>
</linearGradient>
<linearGradient id="paint11_linear_905_5936" x1="97.3719" y1="88.9056" x2="97.3719" y2="80.1899" gradientUnits="userSpaceOnUse">
<stop stop-color="#F49F57"/>
<stop offset="0.1" stop-color="#F69656"/>
<stop offset="0.35" stop-color="#FB8555"/>
<stop offset="0.63" stop-color="#FE7C54"/>
<stop offset="0.99" stop-color="#FF7954"/>
</linearGradient>
<linearGradient id="paint12_linear_905_5936" x1="105.695" y1="92.6674" x2="105.695" y2="84.1376" gradientUnits="userSpaceOnUse">
<stop stop-color="#F47D57"/>
<stop offset="0.4" stop-color="#FB7A54"/>
<stop offset="0.99" stop-color="#FF7954"/>
</linearGradient>
<linearGradient id="paint13_linear_905_5936" x1="84.5576" y1="90.7262" x2="92.5386" y2="90.7262" gradientUnits="userSpaceOnUse">
<stop stop-color="#F49F57"/>
<stop offset="0.1" stop-color="#F69656"/>
<stop offset="0.35" stop-color="#FB8555"/>
<stop offset="0.63" stop-color="#FE7C54"/>
<stop offset="0.99" stop-color="#FF7954"/>
</linearGradient>
<linearGradient id="paint14_linear_905_5936" x1="111.043" y1="98.6753" x2="117.548" y2="98.6753" gradientUnits="userSpaceOnUse">
<stop stop-color="#C75357"/>
<stop offset="0.13" stop-color="#D25856"/>
<stop offset="0.37" stop-color="#E35F54"/>
<stop offset="0.65" stop-color="#EC6354"/>
<stop offset="0.99" stop-color="#F06554"/>
</linearGradient>
<linearGradient id="paint15_linear_905_5936" x1="80.0007" y1="102.448" x2="90.3012" y2="102.448" gradientUnits="userSpaceOnUse">
<stop stop-color="#F49F57"/>
<stop offset="0.1" stop-color="#F69656"/>
<stop offset="0.35" stop-color="#FB8555"/>
<stop offset="0.63" stop-color="#FE7C54"/>
<stop offset="0.99" stop-color="#FF7954"/>
</linearGradient>
<linearGradient id="paint16_linear_905_5936" x1="81.0634" y1="107.919" x2="89.6234" y2="107.919" gradientUnits="userSpaceOnUse">
<stop stop-color="#F49F57"/>
<stop offset="0.1" stop-color="#F69656"/>
<stop offset="0.35" stop-color="#FB8555"/>
<stop offset="0.63" stop-color="#FE7C54"/>
<stop offset="0.99" stop-color="#FF7954"/>
</linearGradient>
<linearGradient id="paint17_linear_905_5936" x1="103.207" y1="117.01" x2="103.207" y2="112.841" gradientUnits="userSpaceOnUse">
<stop stop-color="#860057"/>
<stop offset="0.03" stop-color="#880456"/>
<stop offset="0.23" stop-color="#951B55"/>
<stop offset="0.45" stop-color="#9D2C54"/>
<stop offset="0.69" stop-color="#A33554"/>
<stop offset="0.99" stop-color="#A53954"/>
</linearGradient>
<linearGradient id="paint18_linear_905_5936" x1="100.719" y1="113.993" x2="104.759" y2="113.993" gradientUnits="userSpaceOnUse">
<stop stop-color="#C75357"/>
<stop offset="0.26" stop-color="#D15048"/>
<stop offset="0.58" stop-color="#D84F3F"/>
<stop offset="0.99" stop-color="#DB4F3C"/>
</linearGradient>
<linearGradient id="paint19_linear_905_5936" x1="86.9222" y1="108.727" x2="95.9297" y2="108.727" gradientUnits="userSpaceOnUse">
<stop stop-color="#CA528D"/>
<stop offset="1" stop-color="#8E7090"/>
</linearGradient>
<linearGradient id="paint20_linear_905_5936" x1="103.331" y1="115.12" x2="105.695" y2="115.12" gradientUnits="userSpaceOnUse">
<stop stop-color="#CA528D"/>
<stop offset="1" stop-color="#8E7090"/>
</linearGradient>
<linearGradient id="paint21_linear_905_5936" x1="113.859" y1="102.268" x2="117.903" y2="102.268" gradientUnits="userSpaceOnUse">
<stop stop-color="#CA528D"/>
<stop offset="1" stop-color="#8E7090"/>
</linearGradient>
<linearGradient id="paint22_linear_905_5936" x1="117.429" y1="91.96" x2="118.979" y2="91.96" gradientUnits="userSpaceOnUse">
<stop stop-color="#CA528D"/>
<stop offset="1" stop-color="#8E7090"/>
</linearGradient>
<linearGradient id="paint23_linear_905_5936" x1="117.112" y1="94.6339" x2="122.001" y2="94.6339" gradientUnits="userSpaceOnUse">
<stop stop-color="#CA528D"/>
<stop offset="1" stop-color="#8E7090"/>
</linearGradient>
<linearGradient id="paint24_linear_905_5936" x1="115.904" y1="92.1626" x2="118.717" y2="91.6515" gradientUnits="userSpaceOnUse">
<stop stop-color="#F47D57"/>
<stop offset="0.4" stop-color="#FB7A54"/>
<stop offset="0.99" stop-color="#FF7954"/>
</linearGradient>
<linearGradient id="paint25_linear_905_5936" x1="117.376" y1="92.2713" x2="121.866" y2="91.4554" gradientUnits="userSpaceOnUse">
<stop stop-color="#F47D57"/>
<stop offset="0.4" stop-color="#FB7A54"/>
<stop offset="0.99" stop-color="#FF7954"/>
</linearGradient>
<linearGradient id="paint26_linear_905_5936" x1="97.3718" y1="86.0727" x2="110.82" y2="86.0727" gradientUnits="userSpaceOnUse">
<stop stop-color="#CA528D"/>
<stop offset="1" stop-color="#8E7090"/>
</linearGradient>
<linearGradient id="paint27_linear_905_5936" x1="101.517" y1="93.0546" x2="104.917" y2="93.0546" gradientUnits="userSpaceOnUse">
<stop stop-color="#CA528D"/>
<stop offset="1" stop-color="#8E7090"/>
</linearGradient>
<linearGradient id="paint28_linear_905_5936" x1="107.453" y1="90.2102" x2="115.218" y2="90.2102" gradientUnits="userSpaceOnUse">
<stop stop-color="#CA528D"/>
<stop offset="1" stop-color="#8E7090"/>
</linearGradient>
<linearGradient id="paint29_linear_905_5936" x1="85.9976" y1="93.1302" x2="91.7538" y2="93.1302" gradientUnits="userSpaceOnUse">
<stop stop-color="#CA528D"/>
<stop offset="1" stop-color="#8E7090"/>
</linearGradient>
<linearGradient id="paint30_linear_905_5936" x1="92.8127" y1="99.9152" x2="97.1898" y2="99.9152" gradientUnits="userSpaceOnUse">
<stop stop-color="#CA528D"/>
<stop offset="1" stop-color="#8E7090"/>
</linearGradient>
<linearGradient id="paint31_linear_905_5936" x1="94.5981" y1="103.2" x2="96.9973" y2="103.2" gradientUnits="userSpaceOnUse">
<stop stop-color="#CA528D"/>
<stop offset="1" stop-color="#8E7090"/>
</linearGradient>
<linearGradient id="paint32_linear_905_5936" x1="94.6804" y1="100.667" x2="94.6804" y2="96.8059" gradientUnits="userSpaceOnUse">
<stop stop-color="#A20057"/>
<stop offset="0.28" stop-color="#BA2355"/>
<stop offset="0.57" stop-color="#CD4054"/>
<stop offset="0.82" stop-color="#D95254"/>
<stop offset="0.99" stop-color="#DE5954"/>
</linearGradient>
<linearGradient id="paint33_linear_905_5936" x1="95.5419" y1="103.797" x2="95.5419" y2="101.912" gradientUnits="userSpaceOnUse">
<stop stop-color="#A20057"/>
<stop offset="0.28" stop-color="#BA2355"/>
<stop offset="0.57" stop-color="#CD4054"/>
<stop offset="0.82" stop-color="#D95254"/>
<stop offset="0.99" stop-color="#DE5954"/>
</linearGradient>
<linearGradient id="paint34_linear_905_5936" x1="95.1176" y1="99.3312" x2="97.1706" y2="99.3312" gradientUnits="userSpaceOnUse">
<stop stop-color="#CA528D"/>
<stop offset="1" stop-color="#8E7090"/>
</linearGradient>
<linearGradient id="paint35_linear_905_5936" x1="82.663" y1="97.5188" x2="82.663" y2="93.8963" gradientUnits="userSpaceOnUse">
<stop stop-color="#A20057"/>
<stop offset="0.28" stop-color="#BA2355"/>
<stop offset="0.57" stop-color="#CD4054"/>
<stop offset="0.82" stop-color="#D95254"/>
<stop offset="0.99" stop-color="#DE5954"/>
</linearGradient>
<linearGradient id="paint36_linear_905_5936" x1="94.6799" y1="99.028" x2="94.6799" y2="96.5943" gradientUnits="userSpaceOnUse">
<stop stop-color="#F49F57"/>
<stop offset="0.1" stop-color="#F69656"/>
<stop offset="0.35" stop-color="#FB8555"/>
<stop offset="0.63" stop-color="#FE7C54"/>
<stop offset="0.99" stop-color="#FF7954"/>
</linearGradient>
<linearGradient id="paint37_linear_905_5936" x1="94.828" y1="103.325" x2="96.506" y2="103.325" gradientUnits="userSpaceOnUse">
<stop stop-color="#CA528D"/>
<stop offset="1" stop-color="#8E7090"/>
</linearGradient>
<linearGradient id="paint38_linear_905_5936" x1="95.4926" y1="103.151" x2="95.4926" y2="101.891" gradientUnits="userSpaceOnUse">
<stop stop-color="#F47D57"/>
<stop offset="0.4" stop-color="#FB7A54"/>
<stop offset="0.99" stop-color="#FF7954"/>
</linearGradient>
<linearGradient id="paint39_linear_905_5936" x1="112.754" y1="113.222" x2="112.016" y2="115.882" gradientUnits="userSpaceOnUse">
<stop stop-color="#CA528D"/>
<stop offset="1" stop-color="#8E7090"/>
</linearGradient>
<linearGradient id="paint40_linear_905_5936" x1="111.758" y1="113.926" x2="113.575" y2="114.43" gradientUnits="userSpaceOnUse">
<stop stop-color="#A20057"/>
<stop offset="0.28" stop-color="#BA2355"/>
<stop offset="0.57" stop-color="#CD4054"/>
<stop offset="0.82" stop-color="#D95254"/>
<stop offset="0.99" stop-color="#DE5954"/>
</linearGradient>
<linearGradient id="paint41_linear_905_5936" x1="112.404" y1="113.364" x2="111.955" y2="114.981" gradientUnits="userSpaceOnUse">
<stop stop-color="#CA528D"/>
<stop offset="1" stop-color="#8E7090"/>
</linearGradient>
<linearGradient id="paint42_linear_905_5936" x1="112.394" y1="114.051" x2="113.608" y2="114.388" gradientUnits="userSpaceOnUse">
<stop stop-color="#F47D57"/>
<stop offset="0.4" stop-color="#FB7A54"/>
<stop offset="0.99" stop-color="#FF7954"/>
</linearGradient>
<linearGradient id="paint43_linear_905_5936" x1="87.9877" y1="112.523" x2="93.9413" y2="112.523" gradientUnits="userSpaceOnUse">
<stop stop-color="#860057"/>
<stop offset="0.21" stop-color="#89094C"/>
<stop offset="0.55" stop-color="#8D1343"/>
<stop offset="0.99" stop-color="#8F1640"/>
</linearGradient>
<linearGradient id="paint44_linear_905_5936" x1="87.9877" y1="112.523" x2="92.8939" y2="112.523" gradientUnits="userSpaceOnUse">
<stop stop-color="#F49F57"/>
<stop offset="0.1" stop-color="#F69656"/>
<stop offset="0.35" stop-color="#FB8555"/>
<stop offset="0.63" stop-color="#FE7C54"/>
<stop offset="0.99" stop-color="#FF7954"/>
</linearGradient>
<linearGradient id="paint45_linear_905_5936" x1="94.5027" y1="89.4474" x2="94.5027" y2="87.3801" gradientUnits="userSpaceOnUse">
<stop stop-color="#860057"/>
<stop offset="0.03" stop-color="#880456"/>
<stop offset="0.23" stop-color="#951B55"/>
<stop offset="0.45" stop-color="#9D2C54"/>
<stop offset="0.69" stop-color="#A33554"/>
<stop offset="0.99" stop-color="#A53954"/>
</linearGradient>
<linearGradient id="paint46_linear_905_5936" x1="91.7538" y1="88.5119" x2="97.2523" y2="88.5119" gradientUnits="userSpaceOnUse">
<stop stop-color="#F49F57"/>
<stop offset="0.1" stop-color="#F69656"/>
<stop offset="0.35" stop-color="#FB8555"/>
<stop offset="0.63" stop-color="#FE7C54"/>
<stop offset="0.99" stop-color="#FF7954"/>
</linearGradient>
<linearGradient id="paint47_linear_905_5936" x1="82.7206" y1="111.418" x2="82.7206" y2="110.132" gradientUnits="userSpaceOnUse">
<stop stop-color="#860057"/>
<stop offset="0.03" stop-color="#880456"/>
<stop offset="0.23" stop-color="#951B55"/>
<stop offset="0.45" stop-color="#9D2C54"/>
<stop offset="0.69" stop-color="#A33554"/>
<stop offset="0.99" stop-color="#A53954"/>
</linearGradient>
<linearGradient id="paint48_linear_905_5936" x1="81.9106" y1="110.858" x2="83.5305" y2="110.858" gradientUnits="userSpaceOnUse">
<stop stop-color="#F49F57"/>
<stop offset="0.1" stop-color="#F69656"/>
<stop offset="0.35" stop-color="#FB8555"/>
<stop offset="0.63" stop-color="#FE7C54"/>
<stop offset="0.99" stop-color="#FF7954"/>
</linearGradient>
<linearGradient id="paint49_linear_905_5936" x1="115.132" y1="99.3679" x2="116.715" y2="99.3679" gradientUnits="userSpaceOnUse">
<stop stop-color="#860057"/>
<stop offset="0.21" stop-color="#89094C"/>
<stop offset="0.55" stop-color="#8D1343"/>
<stop offset="0.99" stop-color="#8F1640"/>
</linearGradient>
<linearGradient id="paint50_linear_905_5936" x1="115.132" y1="99.3685" x2="116.715" y2="99.3685" gradientUnits="userSpaceOnUse">
<stop stop-color="#C75357"/>
<stop offset="0.13" stop-color="#D25856"/>
<stop offset="0.37" stop-color="#E35F54"/>
<stop offset="0.65" stop-color="#EC6354"/>
<stop offset="0.99" stop-color="#F06554"/>
</linearGradient>
</defs>
</svg>
