<svg width="7" height="12" viewBox="0 0 7 12" fill="none" xmlns="http://www.w3.org/2000/svg">
<path d="M6.80679 5.52671C6.86927 5.58868 6.91887 5.66242 6.95272 5.74366C6.98656 5.8249 7.00399 5.91203 7.00399 6.00004C7.00399 6.08805 6.98656 6.17519 6.95272 6.25643C6.91887 6.33767 6.86927 6.4114 6.80679 6.47337L1.47346 11.8067C1.41148 11.8692 1.33775 11.9188 1.25651 11.9526C1.17527 11.9865 1.08813 12.0039 1.00012 12.0039C0.912114 12.0039 0.824977 11.9865 0.743738 11.9526C0.662498 11.9188 0.588764 11.8692 0.526789 11.8067C0.464303 11.7447 0.414707 11.671 0.380861 11.5898C0.347015 11.5085 0.32959 11.4214 0.32959 11.3334C0.32959 11.2454 0.347015 11.1582 0.380861 11.077C0.414707 10.9958 0.464303 10.922 0.526789 10.86L5.39346 6.00004L0.526789 1.14004C0.401253 1.01451 0.330728 0.844243 0.330728 0.666709C0.330728 0.489174 0.401253 0.318911 0.526789 0.193375C0.652325 0.0678396 0.822588 -0.00268555 1.00012 -0.00268555C1.17766 -0.00268555 1.34792 0.0678396 1.47346 0.193375L6.80679 5.52671Z" fill="white"/>
</svg>
