<svg width="10" height="18" viewBox="0 0 10 18" fill="none" xmlns="http://www.w3.org/2000/svg">
<path d="M9.70994 8.28994C9.80367 8.3829 9.87806 8.4935 9.92883 8.61536C9.9796 8.73722 10.0057 8.86793 10.0057 8.99994C10.0057 9.13195 9.9796 9.26266 9.92883 9.38452C9.87806 9.50638 9.80367 9.61698 9.70994 9.70994L1.70994 17.7099C1.61698 17.8037 1.50638 17.8781 1.38452 17.9288C1.26266 17.9796 1.13195 18.0057 0.999939 18.0057C0.867927 18.0057 0.737221 17.9796 0.615362 17.9288C0.493503 17.8781 0.382902 17.8037 0.289939 17.7099C0.196211 17.617 0.121816 17.5064 0.0710478 17.3845C0.0202791 17.2627 -0.00585938 17.132 -0.00585938 16.9999C-0.00585938 16.8679 0.0202791 16.7372 0.0710478 16.6154C0.121816 16.4935 0.196211 16.3829 0.289939 16.2899L7.58994 8.99994L0.289939 1.70994C0.101635 1.52164 -0.00415278 1.26624 -0.00415277 0.999941C-0.00415277 0.733639 0.101635 0.478245 0.289939 0.289941C0.478243 0.101637 0.733637 -0.00415039 0.999939 -0.00415039C1.26624 -0.00415039 1.52164 0.101637 1.70994 0.289941L9.70994 8.28994Z" fill="white"/>
</svg>
