<svg width="17" height="20" viewBox="0 0 17 20" fill="none" xmlns="http://www.w3.org/2000/svg">
<path fill-rule="evenodd" clip-rule="evenodd" d="M4.5 4C4.5 1.79086 6.29086 0 8.5 0C10.7091 0 12.5 1.79086 12.5 4C14.7091 4 16.5 5.79086 16.5 8V16C16.5 18.2091 14.7091 20 12.5 20H4.5C2.29086 20 0.5 18.2091 0.5 16V8C0.5 5.79086 2.29086 4 4.5 4ZM6.5 4C6.5 2.89543 7.39543 2 8.5 2C9.60457 2 10.5 2.89543 10.5 4H6.5ZM6.5 7C6.5 7.55228 6.05228 8 5.5 8C4.94772 8 4.5 7.55228 4.5 7C4.5 6.44772 4.94772 6 5.5 6C6.05228 6 6.5 6.44772 6.5 7ZM11.5 8C12.0523 8 12.5 7.55228 12.5 7C12.5 6.44772 12.0523 6 11.5 6C10.9477 6 10.5 6.44772 10.5 7C10.5 7.55228 10.9477 8 11.5 8Z" fill="white"/>
</svg>
