<svg width="46" height="46" viewBox="0 0 46 46" fill="none" xmlns="http://www.w3.org/2000/svg">
<g clip-path="url(#clip0_401_14719)">
<path d="M0 0H46V46H0" fill="#F7931A"/>
<path d="M35.1289 19.4062C35.668 15.543 32.8828 13.6562 29.0195 12.3086L30.2773 7.36719L27.2227 6.55859L26.0547 11.4102L23.5391 10.7812L24.7969 5.92969L21.6523 5.12109L20.4844 10.1523L18.5078 9.70312L14.2852 8.625L13.5664 11.8594L15.7227 12.3984C16.9805 12.7578 17.25 13.6562 17.0703 14.2852L15.7227 19.9453L13.7461 27.9414C13.5664 28.3906 13.207 28.9297 12.3086 28.6602L10.1523 28.1211L8.625 31.625L14.7344 33.1523L13.5664 38.2734L16.5312 38.9922L17.7891 34.0508L20.125 34.5898L18.957 39.5312L22.0117 40.3398L23.2695 35.3086C28.4805 36.2969 32.4336 35.8477 34.0508 31.1758C35.3086 27.4023 33.9609 25.2461 31.1758 23.8086C33.1523 23.3594 34.6797 22.0117 35.1289 19.4062ZM28.2109 29.1094C27.2227 32.793 20.8438 30.9062 18.7773 30.3672L20.4844 23.6289C22.5508 24.168 29.1992 25.1562 28.2109 29.1094ZM29.0195 19.2266C28.2109 22.7305 23 21.0234 21.2031 20.5742L22.7305 14.4648C24.5273 14.9141 30.0078 15.7227 29.0195 19.2266Z" fill="white"/>
</g>
<defs>
<clipPath id="clip0_401_14719">
<rect width="46" height="46" rx="8" fill="white"/>
</clipPath>
</defs>
</svg>
