<svg width="24" height="23" viewBox="0 0 24 23" fill="none" xmlns="http://www.w3.org/2000/svg">
<g filter="url(#filter0_d_401_17230)">
<path d="M13 15C13.0012 15.6571 12.8729 16.3079 12.6224 16.9153C12.3718 17.5227 12.0041 18.0748 11.54 18.54L10.12 20C9.17703 20.9108 7.91402 21.4148 6.60304 21.4034C5.29205 21.392 4.03799 20.8661 3.11095 19.9391C2.18391 19.0121 1.65807 17.758 1.64667 16.447C1.63528 15.136 2.13925 13.873 3.05004 12.93L4.46004 11.51C4.9211 11.037 5.47133 10.6599 6.07894 10.4008C6.68655 10.1416 7.33949 10.0054 8.00004 10C8.26526 10 8.51961 10.1054 8.70715 10.2929C8.89469 10.4804 9.00004 10.7348 9.00004 11C9.00004 11.2652 8.89469 11.5196 8.70715 11.7071C8.51961 11.8947 8.26526 12 8.00004 12C7.20466 12.0007 6.44211 12.3172 5.88004 12.88L4.46004 14.29C3.89646 14.8536 3.57984 15.618 3.57984 16.415C3.57984 17.212 3.89646 17.9764 4.46004 18.54C5.02363 19.1036 5.78801 19.4202 6.58504 19.4202C7.38207 19.4202 8.14646 19.1036 8.71004 18.54L10.12 17.12C10.6828 16.5579 10.9993 15.7954 11 15C11 14.7348 11.1054 14.4804 11.2929 14.2929C11.4805 14.1054 11.7348 14 12 14C12.2653 14 12.5196 14.1054 12.7072 14.2929C12.8947 14.4804 13 14.7348 13 15ZM22.41 5.59001C22.4098 4.60186 22.1168 3.63593 21.568 2.81418C21.0192 1.99244 20.2393 1.35173 19.3266 0.972964C18.4139 0.594198 17.4095 0.494358 16.4401 0.686051C15.4707 0.877744 14.5799 1.35237 13.88 2.05001L12.46 3.46001C11.996 3.9252 11.6282 4.47728 11.3777 5.0847C11.1272 5.69212 10.9989 6.34296 11 7.00001C11 7.26522 11.1054 7.51958 11.2929 7.70711C11.4805 7.89465 11.7348 8.00001 12 8.00001C12.2653 8.00001 12.5196 7.89465 12.7072 7.70711C12.8947 7.51958 13 7.26522 13 7.00001C13.0007 6.20463 13.3173 5.44208 13.88 4.88001L15.29 3.46001C15.5691 3.18095 15.9004 2.95959 16.265 2.80856C16.6296 2.65754 17.0204 2.5798 17.415 2.5798C17.8097 2.5798 18.2005 2.65754 18.5651 2.80856C18.9297 2.95959 19.261 3.18095 19.54 3.46001C19.8191 3.73907 20.0405 4.07036 20.1915 4.43497C20.3425 4.79957 20.4202 5.19036 20.4202 5.58501C20.4202 5.97966 20.3425 6.37044 20.1915 6.73505C20.0405 7.09966 19.8191 7.43095 19.54 7.71001L18.12 9.12001C17.558 9.68278 16.7954 9.99931 16 10C15.7348 10 15.4805 10.1054 15.2929 10.2929C15.1054 10.4804 15 10.7348 15 11C15 11.2652 15.1054 11.5196 15.2929 11.7071C15.4805 11.8947 15.7348 12 16 12C16.6571 12.0012 17.3079 11.8728 17.9153 11.6223C18.5228 11.3718 19.0749 11.004 19.54 10.54L21 9.12001C21.9164 8.17485 22.4231 6.90641 22.41 5.59001ZM8.29004 14.71C8.38301 14.8037 8.49361 14.8781 8.61547 14.9289C8.73733 14.9797 8.86803 15.0058 9.00004 15.0058C9.13206 15.0058 9.26276 14.9797 9.38462 14.9289C9.50648 14.8781 9.61708 14.8037 9.71004 14.71L15.71 8.71001C15.8983 8.5217 16.0041 8.26631 16.0041 8.00001C16.0041 7.73371 15.8983 7.47831 15.71 7.29001C15.5217 7.1017 15.2663 6.99592 15 6.99592C14.7337 6.99592 14.4783 7.1017 14.29 7.29001L8.29004 13.29C8.19631 13.383 8.12192 13.4936 8.07115 13.6154C8.02038 13.7373 7.99425 13.868 7.99425 14C7.99425 14.132 8.02038 14.2627 8.07115 14.3846C8.12192 14.5064 8.19631 14.617 8.29004 14.71Z" fill="white"/>
</g>
<defs>
<filter id="filter0_d_401_17230" x="-2.35352" y="0.591064" width="28.7637" height="28.8125" filterUnits="userSpaceOnUse" color-interpolation-filters="sRGB">
<feFlood flood-opacity="0" result="BackgroundImageFix"/>
<feColorMatrix in="SourceAlpha" type="matrix" values="0 0 0 0 0 0 0 0 0 0 0 0 0 0 0 0 0 0 127 0" result="hardAlpha"/>
<feOffset dy="4"/>
<feGaussianBlur stdDeviation="2"/>
<feComposite in2="hardAlpha" operator="out"/>
<feColorMatrix type="matrix" values="0 0 0 0 0 0 0 0 0 0 0 0 0 0 0 0 0 0 0.25 0"/>
<feBlend mode="normal" in2="BackgroundImageFix" result="effect1_dropShadow_401_17230"/>
<feBlend mode="normal" in="SourceGraphic" in2="effect1_dropShadow_401_17230" result="shape"/>
</filter>
</defs>
</svg>
