<svg width="18" height="24" viewBox="0 0 18 24" fill="none" xmlns="http://www.w3.org/2000/svg">
<path d="M17.3474 6.86586C17.2849 6.7236 17.1445 6.63166 16.9894 6.63166H11.027L13.0323 0.646623C13.0723 0.527286 13.0523 0.396358 12.9791 0.294144C12.9056 0.192194 12.7875 0.131866 12.6616 0.131866H5.22451C5.05644 0.131866 4.90733 0.239349 4.85385 0.398465L0.6133 13.0548C0.573258 13.1741 0.593279 13.3051 0.666514 13.4073C0.740013 13.5092 0.858034 13.5698 0.983693 13.5698H4.72977L1.46131 23.3262C1.40282 23.5011 1.47421 23.6929 1.6328 23.7867C1.69471 23.8233 1.76347 23.8412 1.8317 23.8412C1.93786 23.8412 2.04298 23.798 2.11911 23.7156L17.2768 7.28762C17.3822 7.17355 17.4098 7.00811 17.3474 6.86586Z" fill="url(#paint0_linear_401_16970)"/>
<defs>
<linearGradient id="paint0_linear_401_16970" x1="8.98669" y1="0.131866" x2="1.64074" y2="23.8125" gradientUnits="userSpaceOnUse">
<stop stop-color="#CC9300"/>
<stop offset="0.508061" stop-color="#FEB701"/>
<stop offset="1" stop-color="#CC9300"/>
</linearGradient>
</defs>
</svg>
