<svg width="22" height="16" viewBox="0 0 22 16" fill="none" xmlns="http://www.w3.org/2000/svg">
<path d="M11 8C13.2091 8 15 6.20914 15 4C15 1.79086 13.2091 0 11 0C8.79086 0 7 1.79086 7 4C7 6.20914 8.79086 8 11 8Z" fill="white"/>
<path d="M17.9287 15.0033C18.0073 15.55 17.5523 16 17 16L5 16C4.44772 16 3.99266 15.55 4.07129 15.0033C4.28531 13.5153 4.97471 12.1258 6.05025 11.0503C7.36301 9.7375 9.14349 9 11 9C12.8565 9 14.637 9.7375 15.9497 11.0503C17.0253 12.1258 17.7147 13.5153 17.9287 15.0033Z" fill="white"/>
<path d="M7.00972 8.22756C7.36273 7.90891 7.27957 7.37389 6.99461 6.99316C6.37002 6.15868 6.0001 5.12254 6.0001 4C6.0001 3.52901 5.74773 3.05593 5.27872 3.01276C5.18702 3.00431 5.09412 3 5.00021 3C3.34336 3 2.00021 4.34315 2.00021 6C2.00021 7.65685 3.34336 9 5.00021 9C5.77316 9 6.47784 8.70768 7.00972 8.22756Z" fill="white"/>
<path d="M5.34325 10.3431C5.46439 10.222 5.39687 10.0128 5.22573 10.0051C5.15076 10.0017 5.07558 10 5.00021 10C3.67413 10 2.40236 10.5268 1.46468 11.4645C0.764679 12.1645 0.293671 13.0506 0.0998646 14.0066C-0.00986865 14.5479 0.447926 15 1.00021 15L2.92659 15C3.00544 15 3.07035 14.939 3.08157 14.861C3.32617 13.1604 4.11403 11.5724 5.34325 10.3431Z" fill="white"/>
<path d="M18.9186 14.861C18.9299 14.939 18.9948 15 19.0736 15H21.0002C21.5525 15 22.0103 14.5479 21.9006 14.0066C21.7068 13.0506 21.2357 12.1645 20.5357 11.4645C19.5981 10.5268 18.3263 10 17.0002 10C16.9248 10 16.8495 10.0017 16.7745 10.0051C16.6033 10.0128 16.5358 10.222 16.657 10.3431C17.8862 11.5724 18.674 13.1604 18.9186 14.861Z" fill="white"/>
<path d="M15.0057 6.99307C14.7207 7.37377 14.6376 7.90875 14.9905 8.2274C15.5224 8.70762 16.2272 9 17.0002 9C18.6571 9 20.0002 7.65685 20.0002 6C20.0002 4.34315 18.6571 3 17.0002 3C16.9062 3 16.8132 3.00432 16.7214 3.01278C16.2524 3.05601 16.0001 3.52905 16.0001 4C16.0001 5.1225 15.6302 6.1586 15.0057 6.99307Z" fill="white"/>
</svg>
