<svg width="38" height="46" viewBox="0 0 38 46" fill="none" xmlns="http://www.w3.org/2000/svg">
<path d="M17.6295 27.8548C17.9433 28.8577 18.0202 29.916 17.851 30.9528L15.9713 42.5297C15.8636 43.1881 16.0605 43.8557 16.5035 44.3541L16.8542 44.7448C17.0757 44.9909 17.3557 45.1724 17.6726 45.274L19.8292 45.957L25.77 29.2146L17.6264 27.8517L17.6295 27.8548Z" fill="url(#paint0_linear_915_12863)"/>
<g style="mix-blend-mode:multiply" opacity="0.5">
<path d="M17.8541 30.9559L17.488 33.2202C18.7463 31.7989 20.0538 31.0943 21.1583 31.4266C22.4751 31.8235 23.2227 33.6078 23.3365 36.0967L25.7762 29.2207L17.6326 27.8578C17.9464 28.8608 18.0234 29.9191 17.8541 30.9559Z" fill="#BD3EA9"/>
</g>
<g style="mix-blend-mode:multiply" opacity="0.5">
<path d="M24.4409 31.3066L25.0531 29.0977L17.6326 27.8578C17.7925 28.4178 17.9187 28.9592 17.9279 29.4361L24.444 31.3097L24.4409 31.3066Z" fill="#BD3EA9"/>
</g>
<g style="mix-blend-mode:multiply" opacity="0.5">
<path d="M20.1677 45.0186L19.6324 44.3449C18.328 45.1325 16.4544 44.2864 16.0852 43.6434C16.1806 43.9019 16.3221 44.1449 16.5098 44.3572L16.8605 44.7479C17.082 44.994 17.362 45.1755 17.6788 45.2771L19.8355 45.96L20.1677 45.0217V45.0186Z" fill="#BD3EA9"/>
</g>
<path d="M15.8974 0.390732L15.879 0.399962C15.2237 0.790679 14.756 1.43059 14.5838 2.17511L10.1782 21.4618C10.0305 22.114 10.0459 22.7908 10.2243 23.4338L10.4028 24.0768C10.7843 25.4428 11.858 26.5072 13.227 26.8733L18.9401 28.4054L25.2377 0.587629L17.531 0.00924462C16.9619 -0.0338265 16.3897 0.0984635 15.8974 0.390732Z" fill="url(#paint1_linear_915_12863)"/>
<path d="M10.0859 22.4678C10.0982 22.7785 10.1444 23.0892 10.2305 23.3938L10.412 24.0429C10.7966 25.4212 11.8826 26.4949 13.264 26.8641L19.0294 28.4116L19.3155 27.1502L17.1311 23.9507L10.0859 22.4678Z" fill="url(#paint2_linear_915_12863)"/>
<path d="M15.8975 0.390732L15.8791 0.399962C15.4822 0.636853 15.1561 0.96604 14.9192 1.35368L24.161 1.849L25.0101 1.58749L25.2347 0.587629L17.5311 0.00924462C16.962 -0.0338265 16.3898 0.0984635 15.8975 0.390732Z" fill="url(#paint3_linear_915_12863)"/>
<path d="M10.0858 21.8217C12.2917 22.4863 18.134 23.4554 18.3032 23.0277C18.5309 22.4586 19.3246 20.585 19.3246 20.585L10.6212 19.4682L10.0828 21.8217H10.0858Z" fill="url(#paint4_linear_915_12863)"/>
<path d="M18.897 44.0926L23.9302 31.5958C24.1086 31.1559 24.0871 30.6605 23.8748 30.2391C23.6595 29.8084 23.2657 29.4945 22.798 29.3776L19.5 28.5562C18.1802 28.227 17.1342 27.2272 16.7435 25.9258L16.485 25.0644C16.2666 24.3291 16.2697 23.5446 16.5004 22.8154L23.0042 2.04284C23.158 1.5506 23.5179 1.15065 23.9886 0.94145L24.4901 0.719941C25.0439 0.476896 25.6807 0.529197 26.1853 0.86146L33.5074 5.65159C34.1442 6.06692 34.6118 6.6976 34.8303 7.42674C35.0549 8.18048 34.9933 8.9896 34.658 9.70335L30.4955 18.5914C30.2709 19.0713 30.2247 19.6159 30.3632 20.1266C30.5478 20.8096 31.0462 21.3603 31.7045 21.6187L36.2793 23.4061C37.1992 23.7661 37.8268 24.6244 37.8883 25.6089C37.9314 26.2857 37.7037 26.9503 37.2546 27.4548L21.2167 45.5355C20.6445 46.1815 19.6231 46.1539 19.0878 45.474C18.7801 45.0832 18.7032 44.5572 18.8878 44.0957L18.897 44.0926Z" fill="url(#paint5_linear_915_12863)"/>
<g style="mix-blend-mode:soft-light" opacity="0.3">
<path d="M18.3954 24.9259C18.1185 24.2306 18.0816 23.4615 18.3001 22.7416L23.9978 3.76566C24.1177 3.36571 24.3854 3.02422 24.7453 2.81194C25.2899 2.49198 25.9667 2.50736 26.4959 2.85501L32.5258 6.80525C32.8643 7.02676 33.1165 7.35594 33.2457 7.74051C33.3934 8.18045 33.3627 8.66038 33.1627 9.07879L28.9879 17.8561C28.6433 18.5821 28.6125 19.4189 28.9079 20.1665C29.2124 20.9387 29.8308 21.5448 30.6092 21.8309L35.1901 23.5169C35.9777 23.8061 36.5192 24.5352 36.5715 25.372C36.6053 25.9258 36.4207 26.4734 36.0577 26.8949L21.4289 43.7511C21.2012 44.0157 20.7766 43.9603 20.6197 43.6496C20.5582 43.5265 20.5521 43.3788 20.6013 43.2496L25.3422 31.2081C25.5299 30.7282 25.5699 30.2021 25.4529 29.6976C25.2468 28.8054 24.5792 28.0916 23.7024 27.827L20.5151 26.8672C19.5491 26.578 18.7677 25.8612 18.3954 24.9259Z" fill="white"/>
</g>
<path style="mix-blend-mode:screen" opacity="0.5" d="M27.5912 21.3572C30.0586 25.1167 31.6061 29.1469 32.2675 33.0818L37.2576 27.4548C37.7068 26.9472 37.9344 26.2827 37.8914 25.6089C37.8298 24.6244 37.1992 23.7661 36.2824 23.4061L31.7076 21.6187C31.0492 21.3603 30.5508 20.8096 30.3662 20.1266C30.2278 19.6159 30.2739 19.0713 30.4985 18.5914L34.661 9.70335C34.9933 8.99268 35.0548 8.18048 34.8333 7.42673C34.618 6.6976 34.1473 6.06692 33.5104 5.65159L26.2283 0.886071C25.6992 0.538425 25.0285 0.483048 24.4501 0.738398L24.0286 0.922989C23.5333 1.14142 23.158 1.5629 22.9949 2.07668L19.5769 12.9921C22.5827 15.1088 25.3454 17.9238 27.5943 21.3541L27.5912 21.3572Z" fill="url(#paint6_radial_915_12863)"/>
<g style="mix-blend-mode:soft-light">
<path d="M22.1397 11.4108C22.1397 11.4108 24.8655 3.14422 25.0378 2.80272C25.207 2.46123 26.2315 2.46123 26.6561 2.71658C27.0806 2.97193 32.4522 6.54992 32.4522 6.80834C32.4522 7.06677 21.8013 12.7737 22.1397 11.4108Z" fill="white"/>
</g>
<path d="M28.0189 5.10393C27.6097 4.98702 25.8038 3.3134 25.8899 2.63349C25.9761 1.95051 29.5479 4.64861 29.5479 4.64861C29.5479 4.64861 28.6188 5.27314 28.022 5.10393H28.0189Z" fill="white"/>
<g style="mix-blend-mode:soft-light" opacity="0.5">
<path d="M22.4597 36.8812L19.9554 43.1019C19.8139 43.4526 19.8723 43.8557 20.1061 44.151C20.5153 44.6679 21.2906 44.6894 21.7244 44.1972L25.3731 40.0808C25.6592 39.7577 25.7208 39.2963 25.53 38.9117C25.1885 38.2195 24.7947 37.4811 24.3425 36.7335C23.8933 35.9859 22.7827 36.0752 22.4566 36.8843L22.4597 36.8812Z" fill="white"/>
</g>
<path d="M35.1872 23.5753C36.1316 23.8337 36.6454 24.006 36.6454 24.5198C36.6454 25.0336 36.4731 25.5504 36.4731 25.5504L35.1841 23.5753H35.1872Z" fill="white"/>
<g style="mix-blend-mode:multiply" opacity="0.5">
<path d="M37.8944 25.6089C37.8329 24.6244 37.2022 23.7661 36.2854 23.4061L31.7106 21.6187C31.0522 21.3603 30.5538 20.8096 30.3692 20.1266C30.2308 19.6159 30.2769 19.0713 30.5015 18.5914L34.6641 9.70336C34.9963 8.99269 35.0578 8.18049 34.8363 7.42674C34.621 6.69761 34.1503 6.06693 33.5134 5.6516L26.1883 0.861467C25.7637 0.584581 25.2469 0.504592 24.7638 0.630729C25.1023 0.630729 25.4407 0.726101 25.736 0.919921L33.0581 5.71005C33.695 6.12538 34.1626 6.75606 34.381 7.4852C34.6056 8.23894 34.5441 9.04806 34.2087 9.76182L30.0462 18.6499C29.8216 19.1298 29.7755 19.6743 29.9139 20.185C30.0985 20.868 30.5969 21.4187 31.2553 21.6771L35.8301 23.4646C36.7499 23.8245 37.3775 24.6829 37.4391 25.6674C37.4821 26.3442 37.2545 27.0087 36.8053 27.5133L20.7675 45.5939C20.589 45.797 20.3675 45.9324 20.1306 46.0031C20.5275 46.0185 20.9336 45.8647 21.2228 45.5386L37.2606 27.4579C37.7098 26.9503 37.9375 26.2858 37.8944 25.612V25.6089Z" fill="#E07090"/>
</g>
<path style="mix-blend-mode:screen" opacity="0.5" d="M19.5216 45.3016C19.2139 44.9109 19.137 44.3848 19.3216 43.9234L24.3548 31.4266C24.5332 30.9866 24.5117 30.4913 24.2994 30.0698C24.084 29.6391 23.6902 29.3253 23.2226 29.2084L19.9246 28.387C18.6048 28.0578 17.5587 27.0579 17.168 25.7566L16.9096 24.8951C16.6912 24.1599 16.6942 23.3753 16.925 22.6462L23.4318 1.87361C23.5856 1.38137 23.9456 0.981422 24.4163 0.772219L24.7116 0.643005C24.6378 0.664541 24.564 0.689153 24.4932 0.722995L23.9917 0.944503C23.521 1.15063 23.1611 1.55365 23.0072 2.04589L16.5004 22.8154C16.2697 23.5476 16.2666 24.3321 16.485 25.0644L16.7435 25.9258C17.1311 27.2271 18.1802 28.2301 19.5 28.5562L22.798 29.3776C23.2657 29.4945 23.6595 29.8083 23.8748 30.239C24.0871 30.6636 24.1086 31.1589 23.9302 31.5958L18.897 44.0926C18.7124 44.5541 18.7863 45.0801 19.097 45.4709C19.5431 46.0369 20.3276 46.1477 20.906 45.7939C20.4107 45.9016 19.8661 45.7354 19.5216 45.2986V45.3016Z" fill="url(#paint7_linear_915_12863)"/>
<path d="M9.10141 42.4098L5.78186 43.1174L5.60034 40.1239L7.16013 39.0902C7.16013 39.0902 8.61225 39.5086 8.71992 39.5271C8.8276 39.5455 9.10141 42.4098 9.10141 42.4098Z" fill="url(#paint8_linear_915_12863)"/>
<path d="M5.87416 37.3581L0.668701 30.6913L1.01635 30.1806L7.03093 29.8391C7.10476 29.8361 7.18168 29.8422 7.25244 29.8607C7.60316 29.956 7.88927 30.2175 8.01233 30.5621L10.0459 36.2352L5.87416 37.3612V37.3581Z" fill="url(#paint9_linear_915_12863)"/>
<g style="mix-blend-mode:soft-light" opacity="0.5">
<path d="M8.70445 32.4972L8.00916 30.5621C7.8861 30.2175 7.60306 29.956 7.24926 29.8607C7.1785 29.8422 7.10159 29.833 7.02775 29.8391L1.01317 30.1806L0.665527 30.6913L3.46515 34.2754C3.92663 34.4385 4.41887 34.5277 4.9265 34.5277C6.46167 34.5277 7.82457 33.7309 8.70138 32.4941L8.70445 32.4972Z" fill="white"/>
</g>
<path d="M12.6393 44.351C12.4763 44.3726 12.3163 44.2803 12.2547 44.1295L7.68305 34.6754C7.66151 34.6262 7.63382 34.58 7.59998 34.5431C7.34771 34.2632 6.88315 34.3831 6.80009 34.7492L6.36322 36.6505C6.33861 36.752 6.274 36.8413 6.18171 36.8936C6.00942 36.992 5.79099 36.9397 5.68024 36.7736L1.39158 30.3468C1.34236 30.2698 1.26544 30.2145 1.17622 30.1899C0.948562 30.1252 0.714748 30.2791 0.690135 30.516L0.0102264 36.4444C-0.00823263 36.6167 -0.00207961 36.792 0.031762 36.9643C0.0932922 37.2689 0.237888 37.5519 0.450168 37.7796L5.2403 42.9082C5.35413 43.0312 5.5141 43.105 5.68331 43.1112C5.97558 43.1204 6.23709 42.9328 6.32015 42.6497L6.84623 40.8284C6.89546 40.6592 7.03698 40.5362 7.21234 40.5146C7.37232 40.4931 7.52922 40.5608 7.62459 40.69L11.2949 45.6893C11.3779 45.8031 11.5225 45.8585 11.661 45.8308L12.7716 45.6093C12.907 45.5816 13.0146 45.4801 13.0516 45.3478C13.1223 45.0955 13.3223 44.2649 13.0639 44.2987L12.6393 44.3541V44.351Z" fill="url(#paint10_linear_915_12863)"/>
<path d="M11.8425 44.7171L7.83073 35.0353C7.71382 34.7554 7.50154 34.5246 7.23389 34.3831L12.2394 34.1647H12.2486C12.6239 34.2847 12.8824 34.6261 12.8947 35.0199L13.19 44.4802C13.1962 44.6679 13.0577 44.8309 12.8731 44.8555L12.2271 44.9386C12.064 44.9602 11.904 44.8679 11.8425 44.7171Z" fill="url(#paint11_linear_915_12863)"/>
<path style="mix-blend-mode:screen" opacity="0.5" d="M13.0209 39.0071L12.8978 35.023C12.8855 34.6292 12.6271 34.2877 12.2518 34.1708H12.2425L7.23706 34.3862C7.50779 34.5277 7.717 34.7585 7.8339 35.0384L10.169 40.6777C10.1997 40.6777 10.2336 40.6807 10.2643 40.6807C11.335 40.6807 12.3072 40.0439 13.0209 39.0102V39.0071Z" fill="url(#paint12_linear_915_12863)"/>
<g style="mix-blend-mode:soft-light">
<path d="M12.2486 34.1678H12.2394L7.23389 34.3831C7.50462 34.5247 7.71382 34.7554 7.83073 35.0354L8.03993 35.5399L12.6824 34.4631C12.5716 34.3278 12.424 34.2232 12.2486 34.1678Z" fill="white"/>
</g>
<g style="mix-blend-mode:soft-light">
<path d="M7.37841 30.2852L8.14139 31.7558C8.14139 31.7558 3.56969 30.559 3.8958 30.3406C4.22191 30.1222 7.37841 30.2852 7.37841 30.2852Z" fill="white"/>
</g>
<path d="M10.5903 34.6385C10.9164 34.5831 12.224 34.257 12.387 34.42C12.5501 34.5831 12.4424 35.2353 12.4424 35.2353L10.5934 34.6354L10.5903 34.6385Z" fill="white"/>
<path d="M6.79718 34.7492L6.36032 36.6505C6.33571 36.7521 6.2711 36.8413 6.1788 36.8936C6.06497 36.9582 5.93268 36.9551 5.82501 36.9028C5.66503 38.8687 5.47121 41.2376 5.33276 42.9881C5.43429 43.062 5.55735 43.1051 5.68656 43.1112C5.90499 43.1204 6.10497 43.0158 6.22803 42.8435C6.44954 40.37 6.84641 35.9214 6.96639 34.4939C6.88948 34.5554 6.82487 34.6416 6.80026 34.7523L6.79718 34.7492Z" fill="url(#paint13_linear_915_12863)"/>
<path d="M1.1394 38.5149L2.65305 40.1393L3.65907 33.7494L1.69318 30.799L1.1394 38.5149Z" fill="url(#paint14_linear_915_12863)"/>
<defs>
<linearGradient id="paint0_linear_915_12863" x1="16.1282" y1="20.7665" x2="23.1857" y2="43.8065" gradientUnits="userSpaceOnUse">
<stop stop-color="#F63F00"/>
<stop offset="0.55" stop-color="#F66A00"/>
<stop offset="1" stop-color="#FA9300"/>
</linearGradient>
<linearGradient id="paint1_linear_915_12863" x1="10.0767" y1="4.38097" x2="22.9242" y2="18.1207" gradientUnits="userSpaceOnUse">
<stop stop-color="#E36B42"/>
<stop offset="0.55" stop-color="#F37719"/>
<stop offset="1" stop-color="#FA9300"/>
</linearGradient>
<linearGradient id="paint2_linear_915_12863" x1="15.2883" y1="19.945" x2="12.8456" y2="40.1116" gradientUnits="userSpaceOnUse">
<stop stop-color="#F63F00"/>
<stop offset="0.55" stop-color="#F66A00"/>
<stop offset="1" stop-color="#FA9300"/>
</linearGradient>
<linearGradient id="paint3_linear_915_12863" x1="19.3463" y1="22.2001" x2="20.0539" y2="1.74132" gradientUnits="userSpaceOnUse">
<stop stop-color="#F63F00"/>
<stop offset="0.55" stop-color="#F66A00"/>
<stop offset="1" stop-color="#FA9300"/>
</linearGradient>
<linearGradient id="paint4_linear_915_12863" x1="13.4792" y1="30.2575" x2="17.2295" y2="2.59046" gradientUnits="userSpaceOnUse">
<stop stop-color="#E16033"/>
<stop offset="0.55" stop-color="#F66A00"/>
<stop offset="1" stop-color="#FA9300"/>
</linearGradient>
<linearGradient id="paint5_linear_915_12863" x1="11.8764" y1="-2.575" x2="37.4976" y2="46.6553" gradientUnits="userSpaceOnUse">
<stop stop-color="#FCF800"/>
<stop offset="0.27" stop-color="#FCD400"/>
<stop offset="0.58" stop-color="#FCB200"/>
<stop offset="0.83" stop-color="#FC9E00"/>
<stop offset="1" stop-color="#FC9700"/>
</linearGradient>
<radialGradient id="paint6_radial_915_12863" cx="0" cy="0" r="1" gradientUnits="userSpaceOnUse" gradientTransform="translate(45.9474 5.08631) scale(32.4704 32.4704)">
<stop stop-color="#FFF261"/>
<stop offset="0.11" stop-color="#FAED5F"/>
<stop offset="0.23" stop-color="#ECE05A"/>
<stop offset="0.36" stop-color="#D6CB51"/>
<stop offset="0.5" stop-color="#B6AD45"/>
<stop offset="0.64" stop-color="#8E8636"/>
<stop offset="0.78" stop-color="#5C5723"/>
<stop offset="0.92" stop-color="#22210D"/>
<stop offset="1"/>
</radialGradient>
<linearGradient id="paint7_linear_915_12863" x1="23.5395" y1="23.2831" x2="43.6506" y2="22.6031" gradientUnits="userSpaceOnUse">
<stop stop-color="#FFF261"/>
<stop offset="0.11" stop-color="#FAED5F"/>
<stop offset="0.23" stop-color="#ECE05A"/>
<stop offset="0.36" stop-color="#D6CB51"/>
<stop offset="0.5" stop-color="#B6AD45"/>
<stop offset="0.64" stop-color="#8E8636"/>
<stop offset="0.78" stop-color="#5C5723"/>
<stop offset="0.92" stop-color="#22210D"/>
<stop offset="1"/>
</linearGradient>
<linearGradient id="paint8_linear_915_12863" x1="7.00323" y1="39.844" x2="8.50149" y2="48.3044" gradientUnits="userSpaceOnUse">
<stop stop-color="#F63F00"/>
<stop offset="0.55" stop-color="#F66A00"/>
<stop offset="1" stop-color="#FA9300"/>
</linearGradient>
<linearGradient id="paint9_linear_915_12863" x1="8.06463" y1="40.2654" x2="2.37924" y2="25.5474" gradientUnits="userSpaceOnUse">
<stop stop-color="#FCF800"/>
<stop offset="0.27" stop-color="#FCD400"/>
<stop offset="0.58" stop-color="#FCB200"/>
<stop offset="0.83" stop-color="#FC9E00"/>
<stop offset="1" stop-color="#FC9700"/>
</linearGradient>
<linearGradient id="paint10_linear_915_12863" x1="3.23133" y1="25.0859" x2="8.48909" y2="49.3842" gradientUnits="userSpaceOnUse">
<stop stop-color="#F63F00"/>
<stop offset="0.55" stop-color="#F66A00"/>
<stop offset="1" stop-color="#FA9300"/>
</linearGradient>
<linearGradient id="paint11_linear_915_12863" x1="9.76278" y1="47.9321" x2="10.7442" y2="29.433" gradientUnits="userSpaceOnUse">
<stop stop-color="#FCF800"/>
<stop offset="0.27" stop-color="#FCD400"/>
<stop offset="0.58" stop-color="#FCB200"/>
<stop offset="0.83" stop-color="#FC9E00"/>
<stop offset="1" stop-color="#FC9700"/>
</linearGradient>
<linearGradient id="paint12_linear_915_12863" x1="8.23693" y1="44.9202" x2="11.938" y2="28.8146" gradientUnits="userSpaceOnUse">
<stop stop-color="#FFF261"/>
<stop offset="0.11" stop-color="#FAED5F"/>
<stop offset="0.23" stop-color="#ECE05A"/>
<stop offset="0.36" stop-color="#D6CB51"/>
<stop offset="0.5" stop-color="#B6AD45"/>
<stop offset="0.64" stop-color="#8E8636"/>
<stop offset="0.78" stop-color="#5C5723"/>
<stop offset="0.92" stop-color="#22210D"/>
<stop offset="1"/>
</linearGradient>
<linearGradient id="paint13_linear_915_12863" x1="9.93215" y1="30.0883" x2="-3.45376" y2="63.6069" gradientUnits="userSpaceOnUse">
<stop stop-color="#F63F00"/>
<stop offset="0.55" stop-color="#F66A00"/>
<stop offset="1" stop-color="#FA9300"/>
</linearGradient>
<linearGradient id="paint14_linear_915_12863" x1="5.0958" y1="28.1563" x2="-8.2901" y2="61.6749" gradientUnits="userSpaceOnUse">
<stop stop-color="#F63F00"/>
<stop offset="0.55" stop-color="#F66A00"/>
<stop offset="1" stop-color="#FA9300"/>
</linearGradient>
</defs>
</svg>
