<svg width="29" height="32" viewBox="0 0 29 32" fill="none" xmlns="http://www.w3.org/2000/svg">
<path d="M10.5325 10.767C10.5325 10.767 4.51484 10.042 3.98103 11.0642C3.44723 12.0864 6.46456 28.4545 6.92454 29.5127C7.38452 30.5708 11.7799 31.6839 16.5028 31.5249C21.2256 31.3659 24.3755 29.8837 24.6386 28.8767C24.9017 27.8696 27.4799 11.1172 26.7322 10.5152C25.9845 9.91329 10.5344 10.7651 10.5344 10.7651L10.5325 10.767Z" fill="url(#paint0_linear_401_17039)"/>
<g style="mix-blend-mode:multiply" opacity="0.3">
<path d="M24.2355 11.687L23.7982 10.3032C22.4864 10.3013 20.8698 10.3354 19.2192 10.3884L16.5615 12.4688C17.3584 12.4782 16.5615 26.7604 16.5615 31.523C19.1927 31.4283 21.3298 30.9229 22.7476 30.3191C23.2398 26.8721 25.3883 11.403 24.2355 11.6851V11.687Z" fill="#72108D"/>
</g>
<path style="mix-blend-mode:multiply" opacity="0.22" d="M25.9997 12.5142C25.8426 11.2648 25.2122 11.1853 25.2122 11.1853L6.2318 12.0125C5.68285 11.9103 7.87108 25.6076 8.68315 30.5822C10.4833 31.1917 13.423 31.629 16.5047 31.5268C20.0407 31.4075 22.6946 30.5462 23.9156 29.6982C24.5232 25.3142 26.1284 13.5288 26.0016 12.5142H25.9997Z" fill="url(#paint1_linear_401_17039)"/>
<g opacity="0.88">
<g style="mix-blend-mode:screen" opacity="0.6">
<path d="M7.66845 24.574L7.81799 25.0851C7.85207 25.1987 7.90696 25.2763 7.96564 25.2915L8.23065 25.3577C8.38019 25.3956 8.46348 25.7855 8.37073 26.0183L8.20794 26.4329C8.17197 26.5256 8.16061 26.6563 8.17765 26.7812L8.25715 27.3472C8.30258 27.6652 8.1644 27.9188 8.02432 27.775L7.77446 27.5213C7.71956 27.4645 7.65709 27.4683 7.60788 27.5308L7.39208 27.8147C7.27094 27.9737 7.10247 27.739 7.10814 27.4191L7.11761 26.8474C7.1195 26.7206 7.093 26.5919 7.04568 26.5048L6.83178 26.113C6.71252 25.8934 6.74659 25.4959 6.88856 25.4391L7.14411 25.3407C7.2009 25.318 7.24633 25.2347 7.26526 25.1192L7.34855 24.593C7.39587 24.2977 7.58516 24.2863 7.66845 24.5721V24.574Z" fill="#FCC20C"/>
</g>
<g style="mix-blend-mode:screen" opacity="0.6">
<path d="M6.47393 17.1935L6.64998 17.6951C6.68973 17.8068 6.74841 17.8806 6.80898 17.892L7.07778 17.945C7.22921 17.9753 7.33143 18.3595 7.25193 18.5981L7.10996 19.0221C7.07778 19.1167 7.07399 19.2473 7.0986 19.3723L7.20839 19.9345C7.27086 20.2487 7.14592 20.5099 6.99827 20.3736L6.73516 20.1332C6.67648 20.0802 6.61401 20.0859 6.57047 20.1521L6.36982 20.4474C6.25625 20.6121 6.07642 20.3869 6.06506 20.067L6.04424 19.4953C6.03856 19.3685 6.00638 19.2416 5.95338 19.1565L5.71865 18.776C5.58804 18.564 5.5994 18.1646 5.73947 18.1002L5.98934 17.9866C6.04424 17.962 6.08588 17.8768 6.09724 17.7576L6.15403 17.2276C6.18621 16.9304 6.37361 16.9096 6.47204 17.1916L6.47393 17.1935Z" fill="#FCC20C"/>
</g>
<g style="mix-blend-mode:screen" opacity="0.6">
<path d="M5.26251 11.9122L5.4253 12.4195C5.46127 12.5331 5.51995 12.6069 5.57863 12.6202L5.84553 12.6788C5.99508 12.7129 6.08972 13.0991 6.00454 13.3357L5.85311 13.7559C5.81903 13.8487 5.81146 13.9812 5.83418 14.1061L5.93072 14.6702C5.98561 14.9863 5.855 15.2438 5.71114 15.1056L5.4537 14.8576C5.39691 14.8027 5.33444 14.8084 5.28901 14.8728L5.08079 15.1624C4.96343 15.3252 4.78928 15.0961 4.78549 14.7743L4.77792 14.2027C4.77792 14.0758 4.74574 13.9471 4.69463 13.8619L4.46937 13.4758C4.34255 13.26 4.36526 12.8606 4.50723 12.8019L4.75899 12.6959C4.81578 12.6713 4.85742 12.588 4.87257 12.4706L4.94071 11.9425C4.97857 11.6472 5.16787 11.6302 5.25873 11.9141L5.26251 11.9122Z" fill="#FCC20C"/>
</g>
<g style="mix-blend-mode:screen" opacity="0.6">
<path d="M23.8245 24.6232L23.8624 25.1533C23.87 25.2706 23.9078 25.3577 23.9627 25.3861L24.2088 25.5072C24.347 25.5754 24.3451 25.9748 24.205 26.183L23.9571 26.554C23.9022 26.6373 23.8643 26.7623 23.8548 26.8891L23.8132 27.4608C23.7905 27.7807 23.6012 27.9983 23.4952 27.8299L23.3059 27.5289C23.2642 27.4626 23.2018 27.4532 23.1412 27.5043L22.8705 27.7352C22.7191 27.8639 22.6036 27.6008 22.6774 27.2885L22.808 26.732C22.8364 26.607 22.8383 26.4764 22.808 26.3818L22.6831 25.954C22.6131 25.7136 22.7304 25.3331 22.8819 25.3085L23.1526 25.265C23.2131 25.2555 23.2737 25.1836 23.3172 25.0738L23.5103 24.5778C23.6182 24.2996 23.8056 24.3279 23.8264 24.6251L23.8245 24.6232Z" fill="#FCC20C"/>
</g>
<g style="mix-blend-mode:screen" opacity="0.6">
<path d="M25.0399 18.9861L25.0929 19.5161C25.1042 19.6335 25.1459 19.7187 25.2008 19.7452L25.4506 19.8587C25.5907 19.9231 25.6002 20.3225 25.4677 20.5345L25.231 20.9131C25.178 20.9983 25.144 21.1232 25.1383 21.2519L25.1137 21.8236C25.1004 22.1435 24.9187 22.3688 24.807 22.2022L24.6083 21.9069C24.5647 21.8406 24.5023 21.8331 24.4436 21.8861L24.1786 22.1246C24.0309 22.259 23.9079 21.9978 23.9703 21.6835L24.0839 21.1232C24.1085 20.9983 24.1047 20.8677 24.0745 20.773L23.9363 20.349C23.8587 20.1105 23.9647 19.7262 24.1142 19.6978L24.383 19.6467C24.4436 19.6354 24.5023 19.5615 24.542 19.4499L24.7199 18.9482C24.8203 18.6662 25.0077 18.6908 25.038 18.9861H25.0399Z" fill="#FCC20C"/>
</g>
<g style="mix-blend-mode:screen" opacity="0.6">
<path d="M26.9083 9.93032L26.9991 10.4547C27.02 10.572 27.0654 10.6534 27.1222 10.6742L27.3796 10.7708C27.5235 10.8238 27.5632 11.2213 27.4459 11.4428L27.2376 11.8365C27.1922 11.9236 27.1657 12.0523 27.1695 12.181L27.1865 12.7527C27.196 13.0726 27.0313 13.3092 26.9083 13.1521L26.6887 12.8719C26.6395 12.8095 26.577 12.8057 26.5221 12.8644L26.276 13.1218C26.1378 13.2657 25.9978 13.0158 26.0375 12.6978L26.1095 12.1299C26.1246 12.0031 26.1132 11.8725 26.0754 11.7816L25.9069 11.3689C25.8123 11.138 25.8899 10.7462 26.0375 10.7064L26.3025 10.6364C26.3612 10.6212 26.4161 10.5436 26.4464 10.4282L26.5884 9.91518C26.6679 9.62745 26.8572 9.63692 26.9083 9.93032Z" fill="#FCC20C"/>
</g>
<g style="mix-blend-mode:screen" opacity="0.6">
<path d="M11.4184 25.6057L11.6171 26.1243C11.6607 26.2398 11.7459 26.3193 11.8462 26.3383L12.2891 26.4215C12.5371 26.4689 12.6374 26.8626 12.4576 27.0897L12.1358 27.4948C12.0639 27.5857 12.0317 27.7144 12.0487 27.8412L12.1244 28.4129C12.1661 28.7328 11.9068 28.977 11.6853 28.8256L11.2878 28.5568C11.1988 28.4962 11.0947 28.4962 11.0057 28.5568L10.6082 28.8256C10.3867 28.977 10.1255 28.7328 10.1691 28.4129L10.2448 27.8412C10.2618 27.7144 10.2296 27.5838 10.1577 27.4948L9.83589 27.0897C9.65607 26.8626 9.7545 26.4689 10.0044 26.4215L10.4473 26.3383C10.5457 26.3193 10.6309 26.2398 10.6764 26.1243L10.8751 25.6057C10.9868 25.3142 11.3067 25.3142 11.4184 25.6057Z" fill="#FCC20C"/>
</g>
<g style="mix-blend-mode:screen" opacity="0.6">
<path d="M20.1655 25.6057L20.3642 26.1243C20.4078 26.2398 20.4929 26.3193 20.5933 26.3383L21.0362 26.4215C21.2842 26.4689 21.3845 26.8626 21.2047 27.0897L20.8829 27.4948C20.8109 27.5857 20.7788 27.7144 20.7958 27.8412L20.8715 28.4129C20.9132 28.7328 20.6538 28.977 20.4324 28.8256L20.0348 28.5568C19.9459 28.4962 19.8418 28.4962 19.7528 28.5568L19.3553 28.8256C19.1338 28.977 18.8726 28.7328 18.9161 28.4129L18.9918 27.8412C19.0089 27.7144 18.9767 27.5838 18.9048 27.4948L18.583 27.0897C18.4031 26.8626 18.5016 26.4689 18.7514 26.4215L19.1944 26.3383C19.2928 26.3193 19.378 26.2398 19.4234 26.1243L19.6222 25.6057C19.7339 25.3142 20.0538 25.3142 20.1655 25.6057Z" fill="#FCC20C"/>
</g>
<g style="mix-blend-mode:screen" opacity="0.6">
<path d="M15.8402 26.3231L16.0749 26.8418C16.1279 26.9572 16.2282 27.0367 16.3437 27.0557L16.868 27.1389C17.1614 27.1863 17.2788 27.58 17.0668 27.8072L16.6882 28.2122C16.603 28.3031 16.5652 28.4318 16.586 28.5586L16.675 29.1284C16.7242 29.4483 16.4175 29.6925 16.1563 29.5411L15.6887 29.2723C15.5846 29.2117 15.4597 29.2117 15.3556 29.2723L14.888 29.5411C14.6249 29.6925 14.3183 29.4483 14.3694 29.1284L14.4583 28.5586C14.4791 28.4318 14.4394 28.3012 14.3561 28.2122L13.9775 27.8072C13.7655 27.58 13.8829 27.1863 14.1763 27.1389L14.7006 27.0557C14.818 27.0367 14.9183 26.9572 14.9694 26.8418L15.2041 26.3231C15.3348 26.0316 15.7152 26.0316 15.8458 26.3231H15.8402Z" fill="#FCC20C"/>
</g>
<g style="mix-blend-mode:screen" opacity="0.6">
<path d="M9.32293 20.6973L9.52168 21.216C9.56522 21.3314 9.6504 21.411 9.75073 21.4299L10.1937 21.5132C10.4416 21.5605 10.542 21.9542 10.3621 22.1814L10.0403 22.5865C9.96842 22.6773 9.93624 22.806 9.95327 22.9329L10.029 23.5045C10.0706 23.8244 9.8113 24.0686 9.58983 23.9172L9.19231 23.6484C9.10335 23.5878 8.99923 23.5878 8.91027 23.6484L8.51275 23.9172C8.29128 24.0686 8.03005 23.8244 8.07359 23.5045L8.14931 22.9329C8.16634 22.806 8.13417 22.6754 8.06223 22.5865L7.74044 22.1814C7.56061 21.9542 7.65904 21.5605 7.90891 21.5132L8.35185 21.4299C8.45028 21.411 8.53547 21.3314 8.5809 21.216L8.77965 20.6973C8.89134 20.4058 9.21124 20.4058 9.32293 20.6973Z" fill="#FCC20C"/>
</g>
<g style="mix-blend-mode:screen" opacity="0.6">
<path d="M18.2934 20.4758L18.5451 20.9945C18.6019 21.11 18.7098 21.1895 18.8348 21.2084L19.397 21.2917C19.7112 21.339 19.838 21.7327 19.609 21.9599L19.202 22.365C19.1111 22.4558 19.0695 22.5846 19.0922 22.7114L19.1887 23.2831C19.2417 23.603 18.9124 23.8471 18.6322 23.6957L18.1287 23.4269C18.017 23.3663 17.8826 23.3663 17.7709 23.4269L17.2674 23.6957C16.9854 23.8471 16.656 23.603 16.7109 23.2831L16.8074 22.7114C16.8283 22.5846 16.7866 22.4539 16.6976 22.365L16.2907 21.9599C16.0635 21.7327 16.1884 21.339 16.5027 21.2917L17.0649 21.2084C17.1898 21.1895 17.2977 21.11 17.3545 20.9945L17.6062 20.4758C17.7463 20.1843 18.1552 20.1843 18.2953 20.4758H18.2934Z" fill="#FCC20C"/>
</g>
<g style="mix-blend-mode:screen" opacity="0.6">
<path d="M13.7447 21.4166L13.9794 21.9353C14.0324 22.0508 14.1328 22.1303 14.2482 22.1492L14.7726 22.2325C15.066 22.2798 15.1833 22.6735 14.9713 22.9007L14.5927 23.3058C14.5076 23.3966 14.4697 23.5254 14.4905 23.6522L14.5795 24.2238C14.6287 24.5438 14.3221 24.7879 14.0608 24.6365L13.5933 24.3677C13.4892 24.3071 13.3642 24.3071 13.2601 24.3677L12.7926 24.6365C12.5294 24.7879 12.2228 24.5438 12.2739 24.2238L12.3629 23.6522C12.3837 23.5254 12.3439 23.3947 12.2607 23.3058L11.8821 22.9007C11.6701 22.6735 11.7874 22.2798 12.0808 22.2325L12.6052 22.1492C12.7225 22.1303 12.8229 22.0508 12.874 21.9353L13.1087 21.4166C13.2393 21.1251 13.6198 21.1251 13.7504 21.4166H13.7447Z" fill="#FCC20C"/>
</g>
<g style="mix-blend-mode:screen" opacity="0.6">
<path d="M11.405 15.4596L11.6037 15.9782C11.6473 16.0937 11.7324 16.1732 11.8328 16.1921L12.2757 16.2754C12.5237 16.3227 12.624 16.7165 12.4442 16.9436L12.1224 17.3487C12.0504 17.4396 12.0183 17.5683 12.0353 17.6951L12.111 18.2649C12.1527 18.5848 11.8933 18.829 11.6719 18.6776L11.2743 18.4088C11.1854 18.3482 11.0813 18.3482 10.9923 18.4088L10.5948 18.6776C10.3733 18.829 10.1121 18.5848 10.1556 18.2649L10.2313 17.6951C10.2484 17.5683 10.2162 17.4377 10.1443 17.3487L9.82247 16.9436C9.64264 16.7165 9.74107 16.3227 9.99094 16.2754L10.4339 16.1921C10.5323 16.1732 10.6175 16.0937 10.6629 15.9782L10.8617 15.4596C10.9734 15.1681 11.2933 15.1681 11.405 15.4596Z" fill="#FCC20C"/>
</g>
<g style="mix-blend-mode:screen" opacity="0.6">
<path d="M20.9323 15.2381L21.1841 15.7568C21.2408 15.8722 21.3487 15.9517 21.4737 15.9707L22.0359 16.054C22.3501 16.1013 22.4769 16.495 22.2479 16.7222L21.8409 17.1272C21.75 17.2181 21.7084 17.3468 21.7311 17.4737L21.8277 18.0434C21.8807 18.3633 21.5513 18.6075 21.2711 18.4561L20.7676 18.1873C20.6559 18.1267 20.5215 18.1267 20.4098 18.1873L19.9063 18.4561C19.6243 18.6075 19.2949 18.3633 19.3498 18.0434L19.4463 17.4737C19.4672 17.3468 19.4255 17.2162 19.3366 17.1272L18.9296 16.7222C18.7024 16.495 18.8274 16.1013 19.1416 16.054L19.7038 15.9707C19.8287 15.9517 19.9366 15.8722 19.9934 15.7568L20.2452 15.2381C20.3852 14.9466 20.7941 14.9466 20.9342 15.2381H20.9323Z" fill="#FCC20C"/>
</g>
<g style="mix-blend-mode:screen" opacity="0.6">
<path d="M15.827 16.1789L16.0617 16.6975C16.1147 16.813 16.215 16.8925 16.3305 16.9114L16.8548 16.9947C17.1482 17.0421 17.2656 17.4358 17.0536 17.6629L16.675 18.068C16.5898 18.1589 16.552 18.2876 16.5728 18.4144L16.6618 18.9861C16.711 19.306 16.4043 19.5502 16.1431 19.3988L15.6755 19.13C15.5714 19.0694 15.4465 19.0694 15.3424 19.13L14.8748 19.3988C14.6117 19.5502 14.3051 19.306 14.3562 18.9861L14.4451 18.4144C14.466 18.2876 14.4262 18.157 14.3429 18.068L13.9643 17.6629C13.7523 17.4358 13.8697 17.0421 14.1631 16.9947L14.6874 16.9114C14.8048 16.8925 14.9051 16.813 14.9562 16.6975L15.191 16.1789C15.3216 15.8874 15.7021 15.8874 15.8327 16.1789H15.827Z" fill="#FCC20C"/>
</g>
<g style="mix-blend-mode:screen" opacity="0.6">
<path d="M9.74871 10.4206L9.94746 10.9392C9.991 11.0547 10.0762 11.1342 10.1765 11.1531L10.6195 11.2364C10.8674 11.2838 10.9678 11.6775 10.7879 11.9046L10.4661 12.3097C10.3942 12.4006 10.362 12.5293 10.3791 12.6561L10.4548 13.2278C10.4964 13.5477 10.2371 13.7919 10.0156 13.6405L9.61809 13.3717C9.52913 13.3111 9.42502 13.3111 9.33605 13.3717L8.93853 13.6405C8.71706 13.7919 8.45584 13.5477 8.49937 13.2278L8.57509 12.6561C8.59213 12.5293 8.55995 12.3987 8.48801 12.3097L8.16622 11.9046C7.98639 11.6775 8.08482 11.2838 8.33469 11.2364L8.77763 11.1531C8.87607 11.1342 8.96125 11.0547 9.00668 10.9392L9.20544 10.4206C9.31712 10.1291 9.63702 10.1291 9.74871 10.4206Z" fill="#FCC20C"/>
</g>
<g style="mix-blend-mode:screen" opacity="0.6">
<path d="M19.1169 10.4206L19.3686 10.9392C19.4254 11.0547 19.5333 11.1342 19.6582 11.1531L20.2204 11.2364C20.5347 11.2838 20.6615 11.6775 20.4325 11.9046L20.0255 12.3097C19.9346 12.4006 19.893 12.5293 19.9157 12.6561L20.0122 13.2278C20.0652 13.5477 19.7359 13.7919 19.4557 13.6405L18.9522 13.3717C18.8405 13.3111 18.7061 13.3111 18.5944 13.3717L18.0909 13.6405C17.8089 13.7919 17.4795 13.5477 17.5344 13.2278L17.6309 12.6561C17.6517 12.5293 17.6101 12.3987 17.5211 12.3097L17.1141 11.9046C16.887 11.6775 17.0119 11.2838 17.3262 11.2364L17.8884 11.1531C18.0133 11.1342 18.1212 11.0547 18.178 10.9392L18.4297 10.4206C18.5698 10.1291 18.9787 10.1291 19.1188 10.4206H19.1169Z" fill="#FCC20C"/>
</g>
<g style="mix-blend-mode:screen" opacity="0.6">
<path d="M14.1724 11.138L14.4072 11.6567C14.4602 11.7721 14.5605 11.8516 14.676 11.8706L15.2003 11.9539C15.4937 12.0012 15.6111 12.3949 15.3991 12.6221L15.0205 13.0272C14.9353 13.118 14.8974 13.2467 14.9183 13.3736L15.0072 13.9452C15.0564 14.2651 14.7498 14.5093 14.4886 14.3579L14.021 14.0891C13.9169 14.0285 13.792 14.0285 13.6879 14.0891L13.2203 14.3579C12.9572 14.5093 12.6505 14.2651 12.7016 13.9452L12.7906 13.3736C12.8114 13.2467 12.7717 13.1161 12.6884 13.0272L12.3098 12.6221C12.0978 12.3949 12.2152 12.0012 12.5086 11.9539L13.0329 11.8706C13.1503 11.8516 13.2506 11.7721 13.3017 11.6567L13.5364 11.138C13.667 10.8465 14.0475 10.8465 14.1781 11.138H14.1724Z" fill="#FCC20C"/>
</g>
</g>
<path style="mix-blend-mode:screen" d="M11.036 12.4517L8.29129 11.9236L7.05521 11.9766C6.85455 12.1962 6.89998 12.5236 6.89241 13.1862C6.87916 14.2386 8.53169 27.7845 8.94624 30.6674C9.97789 30.9892 11.3313 31.2542 12.8457 31.4056C12.6469 29.719 10.6669 12.836 11.036 12.4517Z" fill="url(#paint2_linear_401_17039)"/>
<path d="M7.58135 12.1924C18.9314 13.4266 34.2168 10.8143 22.6055 9.38516C10.9924 7.95411 -2.65373 11.0793 7.58135 12.1924Z" fill="url(#paint3_linear_401_17039)"/>
<path d="M26.7321 10.5171C26.6507 10.3259 26.3176 10.1329 25.6948 9.94925C27.5745 10.7102 21.6534 12.4347 15.6017 12.5142C9.56512 12.5937 1.34602 11.9841 4.86687 10.4036C4.32738 10.6193 4.01126 10.8446 3.98287 11.0623C3.8958 11.2289 3.90337 11.8024 3.97908 12.6505C4.22138 11.4276 10.0573 12.9363 17.3735 12.9363C24.6896 12.9363 26.7946 9.60663 26.8173 12.7375C26.9006 11.4825 26.8911 10.6421 26.734 10.5152L26.7321 10.5171Z" fill="url(#paint4_linear_401_17039)"/>
<path style="mix-blend-mode:color-dodge" opacity="0.4" d="M26.7321 10.5171C26.6507 10.3259 26.3176 10.1329 25.6948 9.94925C27.5745 10.7102 21.6534 12.4347 15.6017 12.5142C9.56512 12.5937 1.34602 11.9841 4.86687 10.4036C4.32738 10.6193 4.01126 10.8446 3.98287 11.0623C3.8958 11.2289 3.90337 11.8024 3.97908 12.6505C4.22138 11.4276 10.0573 12.9363 17.3735 12.9363C24.6896 12.9363 26.7946 9.60663 26.8173 12.7375C26.9006 11.4825 26.8911 10.6421 26.734 10.5152L26.7321 10.5171Z" fill="url(#paint5_linear_401_17039)"/>
<g style="mix-blend-mode:color-dodge" opacity="0.76">
<path d="M14.591 12.7678C15.4598 13.0234 16.1091 12.8341 17.0802 12.5785C18.0513 12.323 16.3438 12.5218 15.4277 12.5104C14.7462 12.5028 13.2432 12.3703 14.591 12.7678Z" fill="#7483FB"/>
</g>
<path d="M4.66077 11.7343C4.4923 11.5488 6.22244 11.9879 5.75299 12.0012C5.28354 12.0144 4.86899 11.9633 4.66077 11.7343Z" fill="#FFE5FF"/>
<g style="mix-blend-mode:multiply" opacity="0.29">
<path d="M16.5028 31.1084C11.78 31.2674 7.3827 30.1544 6.92461 29.0963C6.51195 28.1441 4.036 14.8444 3.92242 11.4049C3.79749 13.985 6.49302 28.517 6.92461 29.5127C7.38459 30.5727 11.78 31.6839 16.5028 31.5249C21.2257 31.3659 24.3755 29.8837 24.6387 28.8767C24.8734 27.9794 26.9442 14.5831 26.8647 11.2478C26.7909 15.1548 24.8639 27.5971 24.6387 28.4602C24.3755 29.4673 21.2276 30.9494 16.5028 31.1084Z" fill="#724C8D"/>
</g>
<g style="mix-blend-mode:multiply" opacity="0.58">
<path d="M4.33496 15.2021L4.50532 16.3019C4.50532 16.3019 7.4034 18.3955 15.967 18.0775C24.6461 17.7557 26.5731 15.1132 26.5731 15.1132L26.6753 13.8354L4.33496 15.2021Z" fill="#724C8D"/>
</g>
<path d="M9.71841 8.39516C9.71841 8.39516 2.41359 7.65314 2.30191 8.99712C2.0918 11.5204 2.93604 13.8544 3.50014 15.0829C4.06234 16.3114 11.4769 17.5986 16.8264 17.2295C22.1758 16.8622 27.4741 14.9674 27.7315 13.7711C27.989 12.5766 28.9449 8.15855 28.0723 7.48088C27.1996 6.80321 9.71652 8.39516 9.71652 8.39516H9.71841Z" fill="url(#paint6_linear_401_17039)"/>
<g style="mix-blend-mode:multiply" opacity="0.3">
<path d="M25.2917 8.95358L24.7409 7.34081C23.253 7.38813 21.4225 7.49224 19.5523 7.61717L16.6221 10.1688C17.525 10.1499 16.8682 15.9839 16.8928 17.2257C19.8722 17.0137 23.4934 16.2546 26.0072 15.1075C26.4293 11.0301 26.5865 8.57878 25.2917 8.95548V8.95358Z" fill="#72108D"/>
</g>
<path style="mix-blend-mode:multiply" opacity="0.22" d="M27.3247 9.86028C27.0975 8.39705 26.3801 8.32701 26.3801 8.32701L4.89154 10.0269C4.26687 9.92843 4.35394 10.2919 5.47077 16.1145C7.67414 16.9285 13.3378 17.468 16.8265 17.2295C20.8319 16.9531 25.2443 15.7284 26.9271 14.6115C27.4401 9.4287 27.5083 11.0509 27.3247 9.86028Z" fill="url(#paint7_linear_401_17039)"/>
<path style="mix-blend-mode:screen" d="M10.3564 10.3581L7.22363 9.84325L5.82286 9.95493C5.60328 10.2199 5.18684 10.2729 5.20388 11.0509C5.23038 12.2889 5.1982 12.658 5.78311 16.035C7.18388 16.3 8.74366 16.9228 10.4662 17.0421C10.1747 15.0658 9.95324 10.8238 10.3564 10.3581Z" fill="url(#paint8_linear_401_17039)"/>
<path style="mix-blend-mode:color-dodge" opacity="0.18" d="M27.9607 7.40516C27.088 6.7256 9.71849 8.39517 9.71849 8.39517C9.71849 8.39517 2.57836 7.67775 2.30199 8.99712C2.14677 9.73725 2.33417 11.9387 3.42071 14.8917C2.47614 11.0131 28.0761 11.2573 27.7316 13.773C28.3752 8.58257 28.6932 7.97683 27.9607 7.40706V7.40516Z" fill="url(#paint9_linear_401_17039)"/>
<path d="M6.42868 10.1878C19.346 11.2043 36.5736 7.54524 23.3515 6.30726C10.1294 5.06928 -5.21853 9.2697 6.42868 10.1878Z" fill="url(#paint10_linear_401_17039)"/>
<mask id="mask0_401_17039" style="mask-type:luminance" maskUnits="userSpaceOnUse" x="2" y="7" width="27" height="11">
<path d="M9.71841 8.39516C9.71841 8.39516 2.41359 7.65314 2.30191 8.99712C2.0918 11.5204 2.93604 13.8544 3.50014 15.0829C4.06234 16.3114 11.4769 17.5986 16.8264 17.2295C22.1758 16.8622 27.4741 14.9674 27.7315 13.7711C27.989 12.5766 28.9449 8.15855 28.0723 7.48088C27.1996 6.80321 9.71652 8.39516 9.71652 8.39516H9.71841Z" fill="white"/>
</mask>
<g mask="url(#mask0_401_17039)">
<g opacity="0.88">
<g style="mix-blend-mode:screen" opacity="0.6">
<path d="M6.47393 17.1935L6.64998 17.6951C6.68973 17.8068 6.74841 17.8806 6.80898 17.892L7.07778 17.945C7.22921 17.9753 7.33143 18.3596 7.25193 18.5981L7.10996 19.0221C7.07778 19.1167 7.07399 19.2473 7.0986 19.3723L7.20839 19.9345C7.27086 20.2487 7.14592 20.5099 6.99827 20.3736L6.73516 20.1332C6.67648 20.0802 6.61401 20.0859 6.57047 20.1522L6.36982 20.4475C6.25625 20.6121 6.07642 20.3869 6.06506 20.067L6.04424 19.4953C6.03856 19.3685 6.00638 19.2417 5.95338 19.1565L5.71865 18.776C5.58804 18.564 5.5994 18.1646 5.73947 18.1002L5.98934 17.9866C6.04424 17.962 6.08588 17.8769 6.09724 17.7576L6.15403 17.2276C6.18621 16.9304 6.37361 16.9096 6.47204 17.1916L6.47393 17.1935Z" fill="#FCC20C"/>
</g>
<g style="mix-blend-mode:screen" opacity="0.6">
<path d="M5.26251 11.9122L5.4253 12.4195C5.46127 12.5331 5.51995 12.6069 5.57863 12.6202L5.84553 12.6789C5.99508 12.7129 6.08972 13.0991 6.00454 13.3357L5.85311 13.7559C5.81903 13.8487 5.81146 13.9812 5.83418 14.1061L5.93072 14.6702C5.98561 14.9863 5.855 15.2438 5.71114 15.1056L5.4537 14.8576C5.39691 14.8027 5.33444 14.8084 5.28901 14.8728L5.08079 15.1624C4.96343 15.3252 4.78928 15.0961 4.78549 14.7743L4.77792 14.2027C4.77792 14.0758 4.74574 13.9471 4.69463 13.8619L4.46937 13.4758C4.34255 13.26 4.36526 12.8606 4.50723 12.8019L4.75899 12.6959C4.81578 12.6713 4.85742 12.588 4.87257 12.4706L4.94071 11.9425C4.97857 11.6472 5.16787 11.6302 5.25873 11.9141L5.26251 11.9122Z" fill="#FCC20C"/>
</g>
<g style="mix-blend-mode:screen" opacity="0.6">
<path d="M26.9083 9.93034L26.9991 10.4547C27.02 10.572 27.0654 10.6534 27.1222 10.6743L27.3796 10.7708C27.5235 10.8238 27.5632 11.2213 27.4459 11.4428L27.2376 11.8365C27.1922 11.9236 27.1657 12.0523 27.1695 12.181L27.1865 12.7527C27.196 13.0726 27.0313 13.3092 26.9083 13.1521L26.6887 12.872C26.6395 12.8095 26.577 12.8057 26.5221 12.8644L26.276 13.1218C26.1378 13.2657 25.9978 13.0158 26.0375 12.6978L26.1095 12.1299C26.1246 12.0031 26.1132 11.8725 26.0754 11.7816L25.9069 11.369C25.8123 11.138 25.8899 10.7462 26.0375 10.7064L26.3025 10.6364C26.3612 10.6213 26.4161 10.5436 26.4464 10.4282L26.5884 9.91519C26.6679 9.62747 26.8572 9.63693 26.9083 9.93034Z" fill="#FCC20C"/>
</g>
<g style="mix-blend-mode:screen" opacity="0.6">
<path d="M11.405 15.4596L11.6037 15.9782C11.6473 16.0937 11.7324 16.1732 11.8328 16.1921L12.2757 16.2754C12.5237 16.3228 12.624 16.7165 12.4442 16.9436L12.1224 17.3487C12.0504 17.4396 12.0183 17.5683 12.0353 17.6951L12.111 18.2649C12.1527 18.5848 11.8933 18.829 11.6719 18.6776L11.2743 18.4088C11.1854 18.3482 11.0813 18.3482 10.9923 18.4088L10.5948 18.6776C10.3733 18.829 10.1121 18.5848 10.1556 18.2649L10.2313 17.6951C10.2484 17.5683 10.2162 17.4377 10.1443 17.3487L9.82247 16.9436C9.64264 16.7165 9.74107 16.3228 9.99094 16.2754L10.4339 16.1921C10.5323 16.1732 10.6175 16.0937 10.6629 15.9782L10.8617 15.4596C10.9734 15.1681 11.2933 15.1681 11.405 15.4596Z" fill="#FCC20C"/>
</g>
<g style="mix-blend-mode:screen" opacity="0.6">
<path d="M20.9323 15.2381L21.1841 15.7568C21.2408 15.8723 21.3487 15.9518 21.4737 15.9707L22.0359 16.054C22.3501 16.1013 22.4769 16.495 22.2479 16.7222L21.8409 17.1273C21.75 17.2181 21.7084 17.3468 21.7311 17.4737L21.8277 18.0434C21.8807 18.3633 21.5513 18.6075 21.2711 18.4561L20.7676 18.1873C20.6559 18.1267 20.5215 18.1267 20.4098 18.1873L19.9063 18.4561C19.6243 18.6075 19.2949 18.3633 19.3498 18.0434L19.4463 17.4737C19.4672 17.3468 19.4255 17.2162 19.3366 17.1273L18.9296 16.7222C18.7024 16.495 18.8274 16.1013 19.1416 16.054L19.7038 15.9707C19.8287 15.9518 19.9366 15.8723 19.9934 15.7568L20.2452 15.2381C20.3852 14.9466 20.7941 14.9466 20.9342 15.2381H20.9323Z" fill="#FCC20C"/>
</g>
<g style="mix-blend-mode:screen" opacity="0.6">
<path d="M15.827 16.1789L16.0617 16.6976C16.1147 16.813 16.215 16.8925 16.3305 16.9115L16.8548 16.9948C17.1482 17.0421 17.2656 17.4358 17.0536 17.663L16.675 18.068C16.5898 18.1589 16.552 18.2876 16.5728 18.4145L16.6618 18.9861C16.711 19.306 16.4043 19.5502 16.1431 19.3988L15.6755 19.13C15.5714 19.0694 15.4465 19.0694 15.3424 19.13L14.8748 19.3988C14.6117 19.5502 14.3051 19.306 14.3562 18.9861L14.4451 18.4145C14.466 18.2876 14.4262 18.157 14.3429 18.068L13.9643 17.663C13.7523 17.4358 13.8697 17.0421 14.1631 16.9948L14.6874 16.9115C14.8048 16.8925 14.9051 16.813 14.9562 16.6976L15.191 16.1789C15.3216 15.8874 15.7021 15.8874 15.8327 16.1789H15.827Z" fill="#FCC20C"/>
</g>
<g style="mix-blend-mode:screen" opacity="0.6">
<path d="M9.16961 10.7803L9.36836 11.2989C9.4119 11.4144 9.49708 11.4939 9.59741 11.5128L10.0404 11.5961C10.2883 11.6434 10.3887 12.0372 10.2088 12.2643L9.88703 12.6694C9.81509 12.7603 9.78291 12.889 9.79995 13.0158L9.87567 13.5875C9.91731 13.9074 9.65798 14.1516 9.43651 14.0001L9.03899 13.7313C8.95002 13.6708 8.84591 13.6708 8.75695 13.7313L8.35943 14.0001C8.13796 14.1516 7.87673 13.9074 7.92027 13.5875L7.99599 13.0158C8.01302 12.889 7.98084 12.7584 7.90891 12.6694L7.58711 12.2643C7.40729 12.0372 7.50572 11.6434 7.75559 11.5961L8.19853 11.5128C8.29696 11.4939 8.38215 11.4144 8.42758 11.2989L8.62633 10.7803C8.73802 10.4888 9.05792 10.4888 9.16961 10.7803Z" fill="#FCC20C"/>
</g>
<g style="mix-blend-mode:screen" opacity="0.6">
<path d="M19.1169 10.4206L19.3686 10.9393C19.4254 11.0547 19.5333 11.1342 19.6582 11.1532L20.2204 11.2365C20.5347 11.2838 20.6615 11.6775 20.4325 11.9047L20.0255 12.3097C19.9346 12.4006 19.893 12.5293 19.9157 12.6562L20.0122 13.2278C20.0652 13.5477 19.7359 13.7919 19.4557 13.6405L18.9522 13.3717C18.8405 13.3111 18.7061 13.3111 18.5944 13.3717L18.0909 13.6405C17.8089 13.7919 17.4795 13.5477 17.5344 13.2278L17.6309 12.6562C17.6517 12.5293 17.6101 12.3987 17.5211 12.3097L17.1141 11.9047C16.887 11.6775 17.0119 11.2838 17.3262 11.2365L17.8884 11.1532C18.0133 11.1342 18.1212 11.0547 18.178 10.9393L18.4297 10.4206C18.5698 10.1291 18.9787 10.1291 19.1188 10.4206H19.1169Z" fill="#FCC20C"/>
</g>
<g style="mix-blend-mode:screen" opacity="0.6">
<path d="M14.1724 11.138L14.4072 11.6567C14.4602 11.7722 14.5605 11.8517 14.676 11.8706L15.2003 11.9539C15.4937 12.0012 15.6111 12.3949 15.3991 12.6221L15.0205 13.0272C14.9353 13.118 14.8974 13.2467 14.9183 13.3736L15.0072 13.9452C15.0564 14.2651 14.7498 14.5093 14.4886 14.3579L14.021 14.0891C13.9169 14.0285 13.792 14.0285 13.6879 14.0891L13.2203 14.3579C12.9572 14.5093 12.6505 14.2651 12.7016 13.9452L12.7906 13.3736C12.8114 13.2467 12.7717 13.1161 12.6884 13.0272L12.3098 12.6221C12.0978 12.3949 12.2152 12.0012 12.5086 11.9539L13.0329 11.8706C13.1503 11.8517 13.2506 11.7722 13.3017 11.6567L13.5364 11.138C13.667 10.8465 14.0475 10.8465 14.1781 11.138H14.1724Z" fill="#FCC20C"/>
</g>
</g>
</g>
<path d="M28.0742 7.48087C27.9739 7.2575 27.5878 7.0455 26.8741 6.85242C29.0359 7.67584 22.3917 9.93411 15.5336 10.2597C8.69252 10.5834 -0.649094 10.1821 3.27874 8.18693C2.67679 8.46141 2.32659 8.73778 2.30199 8.99711C2.20923 9.19587 2.30199 9.86975 2.41935 10.8635C2.64461 9.41355 9.26229 10.9695 17.5571 10.6894C25.85 10.4092 28.1064 6.40947 28.256 10.0931C28.3014 8.61095 28.256 7.62284 28.0742 7.48087Z" fill="url(#paint11_linear_401_17039)"/>
<path style="mix-blend-mode:screen" opacity="0.76" d="M28.0742 7.48087C27.9739 7.2575 27.5878 7.0455 26.8741 6.85242C29.0359 7.67584 22.3917 9.93411 15.5336 10.2597C8.69252 10.5834 -0.649094 10.1821 3.27874 8.18693C2.67679 8.46141 2.32659 8.73778 2.30199 8.99711C2.20923 9.19587 2.30199 9.86975 2.41935 10.8635C2.64461 9.41355 9.26229 10.9695 17.5571 10.6894C25.85 10.4092 28.1064 6.40947 28.256 10.0931C28.3014 8.61095 28.256 7.62284 28.0742 7.48087Z" fill="url(#paint12_linear_401_17039)"/>
<path d="M11.4012 10.5966C12.3969 10.8635 13.332 10.8257 14.4243 10.4887C15.5165 10.1518 13.3813 10.2408 12.3401 10.2616C11.5659 10.2786 9.85661 10.1802 11.4031 10.5966H11.4012Z" fill="#FFE5FF"/>
<path d="M3.10076 9.75808C2.90201 9.54607 4.88012 9.99659 4.3501 10.0307C3.82008 10.0647 3.34495 10.0212 3.10076 9.75808Z" fill="#FFE5FF"/>
<g style="mix-blend-mode:multiply" opacity="0.58">
<path d="M4.04356 7.92004C4.04356 7.92004 2.6655 9.39841 7.09496 9.39841C11.5244 9.39841 13.6218 8.83054 13.6218 8.83054C13.6218 8.83054 17.985 10.909 18.4961 11.687C19.0072 12.465 16.8606 27.3074 16.4858 28.7215C16.111 30.1355 15.0547 31.523 15.0547 31.523L16.0769 31.5419L17.4928 31.4492C17.4928 31.4492 23.8701 13.0764 23.8512 12.8909C23.8323 12.7054 20.1846 8.65449 23.0145 9.01793C25.8426 9.38138 29.4902 8.69992 27.9399 7.74588C26.3896 6.79185 21.4907 7.31051 21.3847 7.3408C21.2787 7.37108 4.04924 7.92004 4.04924 7.92004H4.04356Z" fill="#724C8D"/>
</g>
<path d="M1.12834 4.91785C1.53722 5.91542 3.45476 8.49549 7.0835 8.72643C10.7123 8.95736 13.2961 8.34405 13.2961 8.34405C13.2961 8.34405 17.8959 10.3808 18.867 11.4447C19.8381 12.5085 17.4019 27.2923 16.8226 29.3367C16.2434 31.381 15.9367 31.5419 15.9367 31.5419H14.9581C14.9581 31.5419 15.6661 32.0625 16.6201 31.9943C17.5741 31.9262 19.8229 31.7009 20.4022 31.4037C20.9814 31.1066 24.2865 19.6221 25.1061 15.329C25.9238 11.0339 25.2443 10.8635 24.8335 10.3013C24.4246 9.73914 22.3443 8.34216 22.3443 8.34216C22.3443 8.34216 26.3308 8.71696 27.2527 8.34216C28.1726 7.96736 29.6037 5.34187 28.343 3.12714C27.0823 0.912406 24.3205 -0.109776 22.7532 0.0265146C21.1858 0.162806 18.2537 2.34346 16.2869 4.99357C16.2869 4.99357 14.5492 4.94246 13.4248 5.55577C13.4248 5.55577 11.0227 1.90052 7.28983 0.929443C3.55697 -0.041631 1.51261 -0.0170228 1.12834 0.929443C0.745971 1.87591 0.71947 3.92027 1.12834 4.91785ZM5.68841 5.46112C5.71681 4.86295 5.93449 4.03196 5.93449 4.03196C7.82743 4.2875 10.9432 6.51927 10.9432 6.51927C6.18815 6.24669 5.68841 5.46112 5.68841 5.46112Z" fill="url(#paint13_linear_401_17039)"/>
<g style="mix-blend-mode:multiply">
<path d="M28.1387 5.55577C27.9002 7.09851 27.2017 7.69478 26.418 7.88218C25.6344 8.06958 21.8674 7.88218 21.8674 7.88218C21.8674 7.88218 21.6119 7.38812 21.1689 7.01332C21.1689 7.01332 24.5138 3.70827 26.1644 3.23125C27.815 2.75423 28.3772 4.01492 28.1387 5.55766V5.55577Z" fill="#AA2EC5"/>
</g>
<g style="mix-blend-mode:multiply">
<path d="M10.9451 6.51926C10.9451 6.51926 7.83123 4.28938 5.9383 4.03195C6.42667 2.23177 7.43182 2.42106 10.1009 3.48489C13.0917 4.67744 14.2331 7.60769 14.2331 7.60769C11.9673 8.11878 9.23957 8.5958 7.66276 8.32511C6.23927 8.08092 5.51049 7.46572 5.69221 5.46111C5.73007 5.51222 6.35663 6.25425 10.9451 6.51736V6.51926Z" fill="#AA2EC5"/>
</g>
<g style="mix-blend-mode:multiply">
<path d="M21.1689 7.01332C21.1689 7.01332 24.5138 3.70827 26.1644 3.23125C27.815 2.75423 28.3772 4.01492 28.1387 5.55766C28.0914 5.85864 28.0232 6.11418 27.9456 6.34701C27.9873 6.16529 28.0289 5.97032 28.0706 5.75452C28.54 3.39404 25.6173 3.84645 21.8674 7.88407C21.8674 7.88407 21.6119 7.39002 21.1689 7.01522V7.01332Z" fill="#AA2EC5"/>
</g>
<g style="mix-blend-mode:multiply">
<path d="M10.101 3.48489C13.0919 4.67744 14.2333 7.60769 14.2333 7.60769C13.5386 7.76481 12.7985 7.91813 12.064 8.04875C13.1998 7.81592 12.9745 7.36918 10.9453 6.51736C10.9453 6.51736 7.83141 4.28749 5.93848 4.03005C6.42685 2.22988 7.432 2.41917 10.101 3.483V3.48489Z" fill="#AA2EC5"/>
</g>
<path style="mix-blend-mode:multiply" d="M17.8071 27.6141C18.4716 24.6233 20.5935 11.9974 19.596 10.8635C18.5984 9.72968 14.9696 8.5712 14.9696 8.5712C19.0073 6.73127 22.3445 8.34216 22.3445 8.34216C22.3445 8.34216 26.331 8.71696 27.2529 8.34216C28.1728 7.96736 29.6039 5.34186 28.3432 3.12713C28.2788 3.01356 28.2069 2.90377 28.135 2.79776C27.8037 2.42675 27.3589 2.18256 26.7531 2.18256C24.1977 2.18256 20.567 6.51927 20.567 6.51927C18.5227 4.8232 16.2871 4.99356 16.2871 4.99356C18.8823 5.06928 20.567 6.85242 20.567 6.85242C16.6562 5.41379 14.6895 7.67774 14.6895 7.67774C14.6895 7.67774 14.3942 6.86567 13.4345 5.55198C13.4307 5.55198 13.4288 5.55387 13.425 5.55576C13.425 5.55576 13.336 5.41947 13.1676 5.198C13.0313 5.02006 12.8855 4.83834 12.7246 4.64526C12.7152 4.63391 12.7019 4.62066 12.6924 4.60741C11.1346 2.76369 7.14237 0.730683 5.83435 2.30939C4.52633 3.88809 4.57555 8.09229 5.65263 8.49359C6.09747 8.60906 6.57259 8.69235 7.08558 8.72453C10.7143 8.95547 13.2982 8.34216 13.2982 8.34216C13.2982 8.34216 17.898 10.379 18.8691 11.4428C19.8401 12.5066 17.4039 27.2904 16.8247 29.3348C16.2455 31.3791 15.9388 31.54 15.9388 31.54H14.9602C14.9602 31.54 15.3596 31.8334 15.9634 31.9508C16.802 31.7634 17.1446 30.603 17.809 27.6122L17.8071 27.6141ZM5.69049 5.45922C5.71888 4.86106 5.93657 4.03006 5.93657 4.03006C7.8295 4.28561 10.9453 6.51737 10.9453 6.51737C6.19022 6.24479 5.69049 5.45922 5.69049 5.45922Z" fill="url(#paint14_linear_401_17039)"/>
<path style="mix-blend-mode:multiply" opacity="0.51" d="M18.6323 5.5463C18.6323 5.5463 18.7516 4.54304 19.698 4.03195C20.6445 3.52086 24.5042 2.77126 25.0153 2.18256C25.5264 1.59386 23.2416 1.1263 21.6421 1.21148C20.0407 1.29667 18.8822 2.4646 18.6266 3.28235C18.3711 4.1001 18.1951 4.71719 17.542 5.09767L18.6342 5.5463H18.6323Z" fill="url(#paint15_linear_401_17039)"/>
<g style="mix-blend-mode:multiply" opacity="0.19">
<path d="M17.54 5.09767C17.54 5.09767 18.125 4.78155 18.3748 4.03195C18.6247 3.28235 19.0771 1.9838 20.705 1.39321C22.331 0.802613 20.5687 1.3137 20.1599 2.54032C19.751 3.76694 19.8854 3.92973 19.4614 4.18339C18.6247 4.68691 18.6342 5.5463 18.6342 5.5463L17.5419 5.09767H17.54Z" fill="#EF71C3"/>
</g>
<path style="mix-blend-mode:multiply" opacity="0.51" d="M0.836929 2.6804C1.12844 0.929438 4.4865 2.07277 5.20392 4.03195C5.92134 5.99114 5.92134 7.52441 7.3524 8.29105C8.78345 9.05768 5.56736 9.18072 3.44349 7.50927C1.31963 5.83781 0.545417 4.42947 0.836929 2.6804Z" fill="url(#paint16_linear_401_17039)"/>
<path style="mix-blend-mode:multiply" opacity="0.51" d="M23.4272 0.0340864C23.4272 0.0340864 26.0073 0.240416 27.7829 4.03196C28.7748 6.15015 29.0095 3.87863 27.9532 2.51572C26.897 1.15092 24.5611 -0.0473097 23.4272 0.0340864Z" fill="url(#paint17_linear_401_17039)"/>
<path style="mix-blend-mode:multiply" opacity="0.51" d="M17.7805 24.3109C17.7805 24.3109 18.956 15.8533 21.8881 13.4436C24.8203 11.0339 25.2632 15.3479 24.1104 19.6013C22.9558 23.8528 21.9563 29.1663 20.1164 29.5752C18.2764 29.984 17.2107 27.3074 17.7805 24.3109Z" fill="url(#paint18_linear_401_17039)"/>
<g style="mix-blend-mode:multiply">
<path d="M14.9695 8.57119C14.9695 8.57119 17.7937 7.16475 21.0515 7.92381C21.0515 7.92381 18.1061 5.69962 14.9695 8.57119Z" fill="#AA2EC5"/>
</g>
<path style="mix-blend-mode:color-dodge" opacity="0.6" d="M3.76337 0.249881C3.76337 0.249881 2.75065 0.247988 3.26174 0.486497C3.77283 0.725006 5.90238 1.44053 6.70309 1.40646C7.5038 1.37239 9.56141 2.21096 8.6812 1.99895C7.80099 1.78694 6.63873 1.46704 6.00649 2.13524C5.37425 2.80344 5.11681 3.82752 5.11681 3.82752C5.11681 3.82752 4.30096 2.32832 2.79229 1.94405C1.28552 1.55979 0.882324 2.49868 0.882324 2.49868C0.882324 2.49868 0.906932 1.26449 1.23252 0.747722C1.5581 0.230951 3.0857 0.162806 3.76337 0.249881Z" fill="url(#paint19_linear_401_17039)"/>
<path style="mix-blend-mode:color-dodge" opacity="0.6" d="M17.6254 5.18853C17.6254 5.18853 15.8839 4.90838 15.3917 5.36458C14.8996 5.82077 15.3917 7.24236 15.3917 7.24236L14.6876 7.67774C14.6876 7.67774 13.6805 5.91542 13.4231 5.55576C13.4231 5.55576 15.6681 4.53547 17.6254 5.18853Z" fill="url(#paint20_linear_401_17039)"/>
<path style="mix-blend-mode:color-dodge" opacity="0.6" d="M19.4596 1.73015C18.2482 2.75611 18.4905 2.54789 20.001 1.73015C21.5116 0.9124 22.7552 0.895364 24.3756 1.32127C25.994 1.74718 25.375 2.09359 24.4399 2.51571C23.5048 2.93784 22.0359 3.34482 20.8207 3.61929C19.6054 3.89377 18.9864 4.35564 18.8539 4.89513C18.7214 5.43461 18.9864 4.96706 21.1708 4.54115C23.3553 4.11524 24.0178 3.05331 25.2936 2.55546C26.5676 2.05573 26.6793 2.19581 26.6793 2.19581C26.6793 2.19581 25.6173 0.948366 24.6822 0.401309C23.7471 -0.143856 22.6095 -0.0567806 21.9962 0.210123C21.3829 0.477026 20.3512 0.97676 19.4634 1.73015H19.4596Z" fill="url(#paint21_linear_401_17039)"/>
<path style="mix-blend-mode:color-dodge" opacity="0.6" d="M17.8203 9.70128C17.8203 9.70128 19.8022 10.2729 21.167 10.3638C22.5337 10.4547 23.8152 10.7272 24.0329 10.2351C24.2506 9.74292 23.7944 9.32837 24.2506 9.74292C24.7068 10.1575 25.3939 10.6875 25.4394 11.492C25.4848 12.2946 25.5473 13.8752 25.3523 13.8354C25.1573 13.7957 25.4299 12.7338 24.3396 12.0031C23.2492 11.2724 21.7765 11.2781 21.167 11.9236C20.5575 12.5691 19.9196 14.0777 19.8533 12.7508C19.7871 11.4238 19.9707 11.3406 19.594 10.8635C19.2173 10.3865 17.8203 9.70128 17.8203 9.70128Z" fill="url(#paint22_linear_401_17039)"/>
<defs>
<linearGradient id="paint0_linear_401_17039" x1="15.3935" y1="31.5419" x2="15.3935" y2="4.7967" gradientUnits="userSpaceOnUse">
<stop stop-color="#923665"/>
<stop offset="0.08" stop-color="#9F335C"/>
<stop offset="0.4" stop-color="#D1293E"/>
<stop offset="0.65" stop-color="#F0232C"/>
<stop offset="0.79" stop-color="#FC2125"/>
</linearGradient>
<linearGradient id="paint1_linear_401_17039" x1="16.075" y1="31.5419" x2="16.075" y2="2.33777" gradientUnits="userSpaceOnUse">
<stop stop-color="#8800FC"/>
<stop offset="1" stop-color="#4E78F1"/>
</linearGradient>
<linearGradient id="paint2_linear_401_17039" x1="9.8681" y1="31.5419" x2="9.8681" y2="2.33778" gradientUnits="userSpaceOnUse">
<stop/>
<stop offset="0.09" stop-color="#21070E"/>
<stop offset="0.28" stop-color="#5C1528"/>
<stop offset="0.45" stop-color="#8D213E"/>
<stop offset="0.61" stop-color="#B32A4F"/>
<stop offset="0.77" stop-color="#CE305B"/>
<stop offset="0.9" stop-color="#DF3462"/>
<stop offset="1" stop-color="#E53665"/>
</linearGradient>
<linearGradient id="paint3_linear_401_17039" x1="15.3651" y1="31.1861" x2="15.3651" y2="9.71643" gradientUnits="userSpaceOnUse">
<stop stop-color="#4D3DC6"/>
<stop offset="0.19" stop-color="#5141C6"/>
<stop offset="0.41" stop-color="#5E4EC8"/>
<stop offset="0.63" stop-color="#7464CA"/>
<stop offset="0.86" stop-color="#9383CE"/>
<stop offset="1" stop-color="#AA9AD1"/>
</linearGradient>
<linearGradient id="paint4_linear_401_17039" x1="15.3935" y1="133.696" x2="15.3935" y2="8.5428" gradientUnits="userSpaceOnUse">
<stop stop-color="#4D3DC6"/>
<stop offset="0.19" stop-color="#5141C6"/>
<stop offset="0.41" stop-color="#5E4EC8"/>
<stop offset="0.63" stop-color="#7464CA"/>
<stop offset="0.86" stop-color="#9383CE"/>
<stop offset="1" stop-color="#AA9AD1"/>
</linearGradient>
<linearGradient id="paint5_linear_401_17039" x1="18.7875" y1="52.4758" x2="15.3064" y2="10.519" gradientUnits="userSpaceOnUse">
<stop offset="0.92"/>
<stop offset="0.94" stop-color="#1B1F3B"/>
<stop offset="0.99" stop-color="#606CD0"/>
<stop offset="1" stop-color="#7483FB"/>
</linearGradient>
<linearGradient id="paint6_linear_401_17039" x1="15.9306" y1="26.464" x2="15.282" y2="7.31474" gradientUnits="userSpaceOnUse">
<stop stop-color="#923665"/>
<stop offset="0.08" stop-color="#9F335C"/>
<stop offset="0.4" stop-color="#D1293E"/>
<stop offset="0.65" stop-color="#F0232C"/>
<stop offset="0.79" stop-color="#FC2125"/>
</linearGradient>
<linearGradient id="paint7_linear_401_17039" x1="16.191" y1="17.2635" x2="15.7739" y2="4.94949" gradientUnits="userSpaceOnUse">
<stop stop-color="#8800FC"/>
<stop offset="1" stop-color="#4E78F1"/>
</linearGradient>
<linearGradient id="paint8_linear_401_17039" x1="7.99651" y1="17.1774" x2="7.6258" y2="6.2331" gradientUnits="userSpaceOnUse">
<stop/>
<stop offset="0.09" stop-color="#21070E"/>
<stop offset="0.28" stop-color="#5C1528"/>
<stop offset="0.45" stop-color="#8D213E"/>
<stop offset="0.61" stop-color="#B32A4F"/>
<stop offset="0.77" stop-color="#CE305B"/>
<stop offset="0.9" stop-color="#DF3462"/>
<stop offset="1" stop-color="#E53665"/>
</linearGradient>
<linearGradient id="paint9_linear_401_17039" x1="15.5218" y1="15.0077" x2="15.3959" y2="11.2902" gradientUnits="userSpaceOnUse">
<stop offset="0.09"/>
<stop offset="0.87" stop-color="#636FD6"/>
<stop offset="1" stop-color="#7483FB"/>
</linearGradient>
<linearGradient id="paint10_linear_401_17039" x1="16.0111" y1="32.2456" x2="15.155" y2="6.97244" gradientUnits="userSpaceOnUse">
<stop stop-color="#923665"/>
<stop offset="0.08" stop-color="#9F335C"/>
<stop offset="0.4" stop-color="#D1293E"/>
<stop offset="0.65" stop-color="#F0232C"/>
<stop offset="0.79" stop-color="#FC2125"/>
</linearGradient>
<linearGradient id="paint11_linear_401_17039" x1="20.1414" y1="152.9" x2="15.1517" y2="5.5918" gradientUnits="userSpaceOnUse">
<stop stop-color="#923665"/>
<stop offset="0.08" stop-color="#9F335C"/>
<stop offset="0.4" stop-color="#D1293E"/>
<stop offset="0.65" stop-color="#F0232C"/>
<stop offset="0.79" stop-color="#FC2125"/>
</linearGradient>
<linearGradient id="paint12_linear_401_17039" x1="46.2313" y1="8.85553" x2="6.87939" y2="8.85697" gradientUnits="userSpaceOnUse">
<stop offset="0.38"/>
<stop offset="0.4" stop-color="#140C10"/>
<stop offset="0.47" stop-color="#4A2B3C"/>
<stop offset="0.54" stop-color="#7A4763"/>
<stop offset="0.61" stop-color="#A35F84"/>
<stop offset="0.68" stop-color="#C4729E"/>
<stop offset="0.75" stop-color="#DD81B3"/>
<stop offset="0.83" stop-color="#EF8CC2"/>
<stop offset="0.91" stop-color="#FA92CB"/>
<stop offset="1" stop-color="#FE95CE"/>
</linearGradient>
<linearGradient id="paint13_linear_401_17039" x1="14.8351" y1="20.9585" x2="14.8351" y2="3.11578" gradientUnits="userSpaceOnUse">
<stop stop-color="#FF7C13"/>
<stop offset="0.17" stop-color="#FF8114"/>
<stop offset="0.4" stop-color="#FF9116"/>
<stop offset="0.64" stop-color="#FFAB1B"/>
<stop offset="0.85" stop-color="#FFC721"/>
</linearGradient>
<linearGradient id="paint14_linear_401_17039" x1="16.8436" y1="31.9527" x2="16.8436" y2="9.54038" gradientUnits="userSpaceOnUse">
<stop stop-color="#7B00C6"/>
<stop offset="0.06" stop-color="#8307C3"/>
<stop offset="0.71" stop-color="#D053AC"/>
<stop offset="1" stop-color="#EF71A4"/>
</linearGradient>
<linearGradient id="paint15_linear_401_17039" x1="21.3127" y1="5.5463" x2="21.3127" y2="1.03544" gradientUnits="userSpaceOnUse">
<stop offset="0.41" stop-color="#EF71C3"/>
<stop offset="0.49" stop-color="#EF76C5"/>
<stop offset="0.58" stop-color="#F187CC"/>
<stop offset="0.69" stop-color="#F4A2D7"/>
<stop offset="0.81" stop-color="#F8C7E7"/>
<stop offset="0.93" stop-color="#FEF7FB"/>
<stop offset="0.95" stop-color="white"/>
</linearGradient>
<linearGradient id="paint16_linear_401_17039" x1="4.24231" y1="8.83053" x2="4.24231" y2="1.81533" gradientUnits="userSpaceOnUse">
<stop offset="0.05" stop-color="white"/>
<stop offset="0.07" stop-color="#FEF7FB"/>
<stop offset="0.19" stop-color="#F8C7E7"/>
<stop offset="0.31" stop-color="#F4A2D7"/>
<stop offset="0.42" stop-color="#F187CC"/>
<stop offset="0.51" stop-color="#EF76C5"/>
<stop offset="0.59" stop-color="#EF71C3"/>
</linearGradient>
<linearGradient id="paint17_linear_401_17039" x1="26.8459" y1="1.25503" x2="24.5233" y2="4.45976" gradientUnits="userSpaceOnUse">
<stop stop-color="white"/>
<stop offset="0.02" stop-color="#FEF7FB"/>
<stop offset="0.15" stop-color="#F8C7E7"/>
<stop offset="0.28" stop-color="#F4A2D7"/>
<stop offset="0.4" stop-color="#F187CC"/>
<stop offset="0.51" stop-color="#EF76C5"/>
<stop offset="0.59" stop-color="#EF71C3"/>
</linearGradient>
<linearGradient id="paint18_linear_401_17039" x1="31.6027" y1="7.06253" x2="16.8775" y2="27.3756" gradientUnits="userSpaceOnUse">
<stop offset="0.41" stop-color="#EF71C3"/>
<stop offset="0.49" stop-color="#EF76C5"/>
<stop offset="0.58" stop-color="#F187CC"/>
<stop offset="0.69" stop-color="#F4A2D7"/>
<stop offset="0.81" stop-color="#F8C7E7"/>
<stop offset="0.93" stop-color="#FEF7FB"/>
<stop offset="0.95" stop-color="white"/>
</linearGradient>
<linearGradient id="paint19_linear_401_17039" x1="-1.36648" y1="2.02356" x2="6.64819" y2="2.02356" gradientUnits="userSpaceOnUse">
<stop stop-color="#7483FB"/>
<stop offset="0.16" stop-color="#606CD0"/>
<stop offset="0.75" stop-color="#1B1F3B"/>
<stop offset="1"/>
</linearGradient>
<linearGradient id="paint20_linear_401_17039" x1="13.4231" y1="6.32429" x2="17.6254" y2="6.32429" gradientUnits="userSpaceOnUse">
<stop stop-color="#7483FB"/>
<stop offset="0.16" stop-color="#606CD0"/>
<stop offset="0.75" stop-color="#1B1F3B"/>
<stop offset="1"/>
</linearGradient>
<linearGradient id="paint21_linear_401_17039" x1="15.9596" y1="3.01355" x2="25.1649" y2="2.19202" gradientUnits="userSpaceOnUse">
<stop offset="0.22" stop-color="#7483FB"/>
<stop offset="0.35" stop-color="#606CD0"/>
<stop offset="0.8" stop-color="#1B1F3B"/>
<stop offset="1"/>
</linearGradient>
<linearGradient id="paint22_linear_401_17039" x1="15.3671" y1="11.704" x2="25.5359" y2="11.704" gradientUnits="userSpaceOnUse">
<stop stop-color="#7483FB"/>
<stop offset="0.09" stop-color="#6F7EF1"/>
<stop offset="0.23" stop-color="#6370D7"/>
<stop offset="0.41" stop-color="#505AAD"/>
<stop offset="0.63" stop-color="#353C73"/>
<stop offset="0.87" stop-color="#131529"/>
<stop offset="1"/>
</linearGradient>
</defs>
</svg>
