<svg width="17" height="19" viewBox="0 0 17 19" fill="none" xmlns="http://www.w3.org/2000/svg">
<path d="M13.5 5H12.5V4C12.5 2.93913 12.0786 1.92172 11.3284 1.17157C10.5783 0.421427 9.56087 0 8.5 0C7.43913 0 6.42172 0.421427 5.67157 1.17157C4.92143 1.92172 4.5 2.93913 4.5 4V5H3.5C2.70435 5 1.94129 5.31607 1.37868 5.87868C0.816071 6.44129 0.5 7.20435 0.5 8V16C0.5 16.7956 0.816071 17.5587 1.37868 18.1213C1.94129 18.6839 2.70435 19 3.5 19H13.5C14.2956 19 15.0587 18.6839 15.6213 18.1213C16.1839 17.5587 16.5 16.7956 16.5 16V8C16.5 7.20435 16.1839 6.44129 15.6213 5.87868C15.0587 5.31607 14.2956 5 13.5 5ZM6.5 4C6.5 3.46957 6.71071 2.96086 7.08579 2.58579C7.46086 2.21071 7.96957 2 8.5 2C9.03043 2 9.53914 2.21071 9.91421 2.58579C10.2893 2.96086 10.5 3.46957 10.5 4V5H6.5V4ZM14.5 16C14.5 16.2652 14.3946 16.5196 14.2071 16.7071C14.0196 16.8946 13.7652 17 13.5 17H3.5C3.23478 17 2.98043 16.8946 2.79289 16.7071C2.60536 16.5196 2.5 16.2652 2.5 16V8C2.5 7.73478 2.60536 7.48043 2.79289 7.29289C2.98043 7.10536 3.23478 7 3.5 7H13.5C13.7652 7 14.0196 7.10536 14.2071 7.29289C14.3946 7.48043 14.5 7.73478 14.5 8V16ZM10 11.48C9.99927 11.7334 9.93476 11.9826 9.81243 12.2045C9.6901 12.4265 9.51388 12.6141 9.3 12.75V13.48C9.3 13.6922 9.21571 13.8957 9.06569 14.0457C8.91566 14.1957 8.71217 14.28 8.5 14.28C8.28783 14.28 8.08434 14.1957 7.93431 14.0457C7.78429 13.8957 7.7 13.6922 7.7 13.48V12.75C7.48612 12.6141 7.3099 12.4265 7.18757 12.2045C7.06524 11.9826 7.00073 11.7334 7 11.48C7 11.0822 7.15804 10.7006 7.43934 10.4193C7.72064 10.138 8.10218 9.98 8.5 9.98C8.89782 9.98 9.27936 10.138 9.56066 10.4193C9.84196 10.7006 10 11.0822 10 11.48Z" fill="white"/>
</svg>
