<svg width="17" height="20" viewBox="0 0 17 20" fill="none" xmlns="http://www.w3.org/2000/svg">
<path d="M7.601 0.900551C7.7146 0.832251 7.8508 0.811901 7.9794 0.843991L11.3755 1.69071C11.6324 1.75477 11.7929 2.00688 11.7467 2.26372C14.1108 3.37088 15.8713 5.19467 16.5609 7.24662C16.6343 7.46479 16.5492 7.70483 16.3548 7.82812C16.1605 7.95141 15.9071 7.9261 15.7409 7.7668C14.5305 6.60617 12.9469 5.59561 11.0992 4.86542L11.0744 4.96513C11.0423 5.0938 10.9604 5.20446 10.8467 5.27276C10.7331 5.34106 10.5969 5.3614 10.4683 5.32932L9.9831 5.20836L9.0759 8.847C9.3439 8.9138 9.5069 9.1851 9.4401 9.4531L7.1418 18.6709C7.1098 18.7996 7.0279 18.9102 6.9142 18.9785C6.8005 19.0468 6.6644 19.0672 6.5357 19.0351L4.10999 18.4303C3.84205 18.3635 3.679 18.0921 3.74581 17.8242L6.0441 8.6064C6.0761 8.4777 6.158 8.367 6.2717 8.2987C6.3854 8.2304 6.5215 8.2101 6.6502 8.2422L7.5574 4.60356L7.0722 4.48259C6.8043 4.41579 6.6412 4.14443 6.708 3.87649L6.7329 3.77678C4.75866 3.55406 2.88598 3.70288 1.27237 4.15943C1.0509 4.22209 0.815269 4.12547 0.701549 3.92537C0.587819 3.72527 0.625389 3.47339 0.792549 3.31518C2.36478 1.82713 4.77548 1.04332 7.3826 1.17562C7.4196 1.06091 7.497 0.963021 7.601 0.900551Z" fill="white"/>
</svg>
