<svg width="20" height="17" viewBox="0 0 20 17" fill="none" xmlns="http://www.w3.org/2000/svg">
<path d="M5 10C5.79113 10 6.56448 9.76541 7.22228 9.32588C7.88008 8.88635 8.39277 8.26164 8.69552 7.53074C8.99827 6.79983 9.07748 5.99556 8.92314 5.21964C8.7688 4.44372 8.38784 3.73098 7.82843 3.17157C7.26902 2.61216 6.55629 2.2312 5.78036 2.07686C5.00444 1.92252 4.20017 2.00173 3.46927 2.30448C2.73836 2.60723 2.11365 3.11992 1.67412 3.77772C1.2346 4.43552 1 5.20888 1 6C1 7.06087 1.42143 8.07828 2.17157 8.82843C2.92172 9.57858 3.93913 10 5 10ZM5 4C5.39556 4 5.78224 4.1173 6.11114 4.33706C6.44004 4.55683 6.69638 4.86918 6.84776 5.23464C6.99913 5.60009 7.03874 6.00222 6.96157 6.39018C6.8844 6.77814 6.69392 7.13451 6.41421 7.41422C6.13451 7.69392 5.77814 7.8844 5.39018 7.96157C5.00222 8.03874 4.60009 7.99914 4.23463 7.84776C3.86918 7.69639 3.55682 7.44004 3.33706 7.11114C3.1173 6.78224 3 6.39556 3 6C3 5.46957 3.21071 4.96086 3.58579 4.58579C3.96086 4.21072 4.46957 4 5 4ZM10 14V16C10 16.2652 9.89464 16.5196 9.70711 16.7071C9.51957 16.8946 9.26522 17 9 17C8.73478 17 8.48043 16.8946 8.29289 16.7071C8.10536 16.5196 8 16.2652 8 16V14C8 13.7348 7.89464 13.4804 7.70711 13.2929C7.51957 13.1054 7.26522 13 7 13H3C2.73478 13 2.48043 13.1054 2.29289 13.2929C2.10536 13.4804 2 13.7348 2 14V16C2 16.2652 1.89464 16.5196 1.70711 16.7071C1.51957 16.8946 1.26522 17 1 17C0.734784 17 0.48043 16.8946 0.292893 16.7071C0.105357 16.5196 0 16.2652 0 16V14C0 13.2044 0.316071 12.4413 0.87868 11.8787C1.44129 11.3161 2.20435 11 3 11H7C7.79565 11 8.55871 11.3161 9.12132 11.8787C9.68393 12.4413 10 13.2044 10 14ZM15 8C15.7911 8 16.5645 7.76541 17.2223 7.32588C17.8801 6.88635 18.3928 6.26164 18.6955 5.53074C18.9983 4.79983 19.0775 3.99556 18.9231 3.21964C18.7688 2.44372 18.3878 1.73098 17.8284 1.17157C17.269 0.612164 16.5563 0.231202 15.7804 0.0768607C15.0044 -0.0774802 14.2002 0.00173312 13.4693 0.304484C12.7384 0.607234 12.1136 1.11992 11.6741 1.77772C11.2346 2.43552 11 3.20888 11 4C11 5.06087 11.4214 6.07828 12.1716 6.82843C12.9217 7.57857 13.9391 8 15 8ZM15 2C15.3956 2 15.7822 2.1173 16.1111 2.33706C16.44 2.55683 16.6964 2.86918 16.8478 3.23463C16.9991 3.60009 17.0387 4.00222 16.9616 4.39018C16.8844 4.77814 16.6939 5.13451 16.4142 5.41422C16.1345 5.69392 15.7781 5.8844 15.3902 5.96157C15.0022 6.03874 14.6001 5.99914 14.2346 5.84776C13.8692 5.69639 13.5568 5.44004 13.3371 5.11114C13.1173 4.78224 13 4.39556 13 4C13 3.46957 13.2107 2.96086 13.5858 2.58579C13.9609 2.21072 14.4696 2 15 2ZM20 12V14C20 14.2652 19.8946 14.5196 19.7071 14.7071C19.5196 14.8946 19.2652 15 19 15C18.7348 15 18.4804 14.8946 18.2929 14.7071C18.1054 14.5196 18 14.2652 18 14V12C18 11.7348 17.8946 11.4804 17.7071 11.2929C17.5196 11.1054 17.2652 11 17 11H13C12.8282 11.0005 12.6595 11.0453 12.51 11.13C12.3395 11.2247 12.2005 11.3673 12.11 11.54C12.0508 11.6594 11.9683 11.7658 11.8674 11.8529C11.7665 11.94 11.6491 12.006 11.5223 12.0471C11.3955 12.0882 11.2618 12.1035 11.129 12.0921C10.9962 12.0808 10.867 12.043 10.749 11.981C10.631 11.919 10.5266 11.834 10.4419 11.7311C10.3572 11.6282 10.2939 11.5093 10.2558 11.3816C10.2177 11.2539 10.2055 11.1198 10.22 10.9873C10.2344 10.8548 10.2753 10.7265 10.34 10.61C10.6116 10.0952 11.0244 9.66847 11.53 9.38C11.9793 9.12938 12.4855 8.99853 13 9H17C17.7956 9 18.5587 9.31607 19.1213 9.87868C19.6839 10.4413 20 11.2044 20 12Z" fill="white"/>
</svg>
