<svg width="19" height="18" viewBox="0 0 19 18" fill="none" xmlns="http://www.w3.org/2000/svg">
<path fill-rule="evenodd" clip-rule="evenodd" d="M9.5 18C14.4706 18 18.5 13.9706 18.5 9C18.5 4.02944 14.4706 0 9.5 0C4.52944 0 0.5 4.02944 0.5 9C0.5 13.9706 4.52944 18 9.5 18ZM7 4.66987C7.7601 4.23103 8.62232 4 9.5 4C10.3777 4 11.2399 4.23103 12 4.66987C12.7601 5.10872 13.3913 5.7399 13.8301 6.5C14.269 7.2601 14.5 8.12232 14.5 9C14.5 9.54271 14.4117 10.0795 14.2405 10.5899C14.0649 11.1135 14.2179 11.7239 14.6962 12C15.1744 12.2761 15.7935 12.114 15.9987 11.6012C16.3287 10.7768 16.5 9.89413 16.5 9C16.5 7.77124 16.1766 6.56413 15.5622 5.5C14.9478 4.43587 14.0641 3.5522 13 2.93782C11.9359 2.32344 10.7288 2 9.5 2C8.27124 2 7.06413 2.32344 6 2.93782C4.93587 3.5522 4.0522 4.43587 3.43782 5.5C2.82344 6.56413 2.5 7.77124 2.5 9C2.5 9.89413 2.67126 10.7768 3.00127 11.6012C3.2065 12.114 3.82556 12.2761 4.30385 12C4.78214 11.7239 4.93512 11.1135 4.75951 10.5899C4.58833 10.0795 4.5 9.54271 4.5 9C4.5 8.12232 4.73103 7.2601 5.16987 6.5C5.60871 5.7399 6.2399 5.10871 7 4.66987ZM11.5 12C11.5 13.1046 10.6046 14 9.5 14C8.39543 14 7.5 13.1046 7.5 12C7.5 11.1195 8.06894 10.372 8.85923 10.1049L9.51942 6.80388C9.62773 6.26232 10.1546 5.91111 10.6961 6.01942C11.2377 6.12773 11.5889 6.65456 11.4806 7.19612L10.8203 10.4977C11.237 10.8642 11.5 11.4014 11.5 12Z" fill="white"/>
</svg>
