<svg width="33" height="33" viewBox="0 0 33 33" fill="none" xmlns="http://www.w3.org/2000/svg">
<path fill-rule="evenodd" clip-rule="evenodd" d="M13.0393 25.2618L12.5161 26.157C12.4812 26.2112 12.4425 26.2616 12.3998 26.3081C11.6946 27.0134 9.78019 26.2422 8.12548 24.5836C6.47076 22.925 5.69959 21.0145 6.401 20.3093C6.44751 20.2628 6.49401 20.224 6.55214 20.193L7.44731 19.6698L13.0393 25.2618Z" fill="url(#paint0_linear_401_16986)"/>
<path style="mix-blend-mode:screen" opacity="0.35" fill-rule="evenodd" clip-rule="evenodd" d="M11.152 21.4834C12.6479 22.9793 13.3415 24.7076 12.706 25.3432C12.0705 25.9787 10.3421 25.285 8.84628 23.7892C7.35044 22.2934 6.65678 20.565 7.29231 19.9295C7.92785 19.2939 9.65619 19.9876 11.152 21.4834Z" fill="url(#paint1_radial_401_16986)"/>
<path fill-rule="evenodd" clip-rule="evenodd" d="M11.307 21.3982C12.861 22.9521 13.5856 24.7425 12.9268 25.4013C12.2681 26.0601 10.4777 25.3315 8.92374 23.7814C7.36978 22.2314 6.64511 20.4371 7.3039 19.7783C7.96269 19.1196 9.75304 19.8481 11.307 21.3982Z" fill="url(#paint2_radial_401_16986)"/>
<path fill-rule="evenodd" clip-rule="evenodd" d="M13.4462 24.3433L12.9618 25.1416C12.9308 25.192 12.8959 25.2347 12.8571 25.2773C12.2216 25.9128 10.4894 25.2153 8.98967 23.7194C7.48996 22.2236 6.79242 20.4914 7.43183 19.852C7.47058 19.8132 7.51708 19.7745 7.56746 19.7473L8.36576 19.2629L13.4462 24.3433Z" fill="url(#paint3_linear_401_16986)"/>
<path style="mix-blend-mode:color-dodge" fill-rule="evenodd" clip-rule="evenodd" d="M13.0393 25.2618L12.5161 26.157C12.4812 26.2112 12.4425 26.2616 12.3998 26.3081C11.6946 27.0134 9.78019 26.2422 8.12548 24.5836C6.47076 22.925 5.69959 21.0145 6.401 20.3093C6.44751 20.2628 6.49401 20.224 6.55214 20.193L7.44731 19.6698L13.0393 25.2618Z" fill="url(#paint4_radial_401_16986)"/>
<path d="M3.38217 30.3383C3.49843 30.0942 3.66119 30.2918 3.58369 30.3693C3.50618 30.4468 3.33567 30.4352 3.38217 30.3383Z" fill="#F5A000"/>
<path d="M3.86656 24.5294C3.95956 24.634 3.83556 24.6727 3.81231 24.6185C3.79293 24.5681 3.83168 24.4867 3.86656 24.5294Z" fill="#F5A000"/>
<path d="M6.31201 29.571C6.56002 29.3036 6.64528 29.757 6.52515 29.8694C6.40502 29.9818 6.21125 29.6795 6.31201 29.571Z" fill="#F5A000"/>
<path d="M6.09488 23.8861C6.2809 23.9868 6.03676 24.1031 5.95538 24.0488C5.874 23.9946 6.01738 23.8435 6.09488 23.8861Z" fill="#F5A000"/>
<path d="M8.82308 26.3507C8.96646 26.1608 9.2571 26.188 9.09047 26.4515C8.91996 26.715 8.73007 26.4786 8.82308 26.3507Z" fill="#FFF594"/>
<path d="M3.87044 26.8506C3.90145 26.4553 4.04483 26.5018 4.10296 26.6569C4.16109 26.8119 3.85882 26.9746 3.87044 26.8506Z" fill="#FFEC00"/>
<path d="M1.29747 30.6793C1.40597 30.567 1.54161 30.6328 1.48348 30.7103C1.42535 30.7878 1.22384 30.7568 1.29747 30.6793Z" fill="#F5A000"/>
<path d="M0.386717 32.6867C0.588228 32.4774 0.553351 32.6983 0.502973 32.803C0.452595 32.9076 0.320838 32.7526 0.386717 32.6867Z" fill="#FF4E00"/>
<path fill-rule="evenodd" clip-rule="evenodd" d="M23.4482 19.0033L16.2791 23.8783L18.0462 26.6026C19.7319 24.8665 21.3905 23.1072 23.0026 21.3129C23.6962 20.5418 23.7078 19.9217 23.5102 19.2281L23.4482 19.0033Z" fill="url(#paint5_linear_401_16986)"/>
<path fill-rule="evenodd" clip-rule="evenodd" d="M13.1594 10.1058C12.6517 10.2376 11.2295 11.6675 10.594 12.3496L11.2295 12.9851L13.1633 10.1058H13.1594Z" fill="#36404E"/>
<path fill-rule="evenodd" clip-rule="evenodd" d="M9.84214 22.8669C8.08279 21.1075 7.17599 19.0963 7.65264 18.1314C8.83458 15.7016 10.8187 13.0045 12.454 10.8382C14.349 8.32707 16.43 5.86631 18.3715 3.84344L28.8656 14.3375C26.8427 16.2751 24.382 18.36 21.8708 20.255C19.7084 21.8903 17.0074 23.8744 14.5777 25.0564C13.2097 25.7346 10.7257 23.7504 9.84214 22.8669Z" fill="url(#paint6_radial_401_16986)"/>
<path style="mix-blend-mode:multiply" opacity="0.75" fill-rule="evenodd" clip-rule="evenodd" d="M9.84214 22.8669C8.08279 21.1075 7.17599 19.0963 7.65264 18.1314C8.83458 15.7016 10.8187 13.0045 12.454 10.8382C14.349 8.32707 16.43 5.86631 18.3715 3.84344L28.8656 14.3375C26.8427 16.2751 24.382 18.36 21.8708 20.255C19.7084 21.8903 17.0074 23.8744 14.5777 25.0564C13.2097 25.7346 10.7257 23.7504 9.84214 22.8669Z" fill="url(#paint7_radial_401_16986)"/>
<mask id="mask0_401_16986" style="mask-type:luminance" maskUnits="userSpaceOnUse" x="7" y="3" width="22" height="23">
<path d="M9.84214 22.8669C8.08279 21.1075 7.17599 19.0963 7.65264 18.1314C8.83458 15.7016 10.8187 13.0045 12.454 10.8382C14.349 8.32707 16.43 5.86631 18.3715 3.84344L28.8656 14.3375C26.8427 16.2751 24.382 18.36 21.8708 20.255C19.7084 21.8903 17.0074 23.8744 14.5777 25.0564C13.2097 25.7346 10.7257 23.7504 9.84214 22.8669Z" fill="white"/>
</mask>
<g mask="url(#mask0_401_16986)">
<path fill-rule="evenodd" clip-rule="evenodd" d="M16.7748 16.9649C16.3253 17.2401 16.2207 17.2788 15.7828 16.8719C15.4689 16.5813 15.0891 16.1938 14.876 15.8992C14.721 15.6822 14.7055 15.5079 14.9302 15.1281L17.7243 10.4778C18.0382 9.95079 18.1079 9.58652 17.8134 9.10987C17.1275 7.99768 16.74 7.00175 16.6741 6.22283C16.6586 6.04844 16.6741 5.95156 16.4493 6.09882C15.8719 6.48247 14.3451 8.3852 13.9731 8.85023C13.8064 9.06724 13.6398 9.28425 13.477 9.50126C13.1205 9.97016 12.7524 10.4662 12.3765 10.9738C13.5972 9.49351 14.8372 7.9628 16.1509 6.5716C16.2401 6.47859 16.3137 6.45534 16.3214 6.5561C16.3834 7.30789 16.7438 8.25732 17.3639 9.29975C17.5615 9.62139 17.546 9.78028 17.329 10.1484L13.5042 16.5658C13.229 17.0347 13.26 17.3873 13.57 17.74C13.7599 17.957 13.9576 18.1662 14.1629 18.3716C14.4807 18.6894 14.8682 18.7165 15.2945 18.453L21.6344 14.5739C21.8979 14.4112 22.0761 14.446 22.2311 14.5584C23.4247 15.4381 24.5834 16.0388 25.5328 16.279C25.6103 16.2984 25.6142 16.3488 25.5638 16.4069C23.6146 18.5538 22.1691 19.8403 19.8905 21.6578C20.6772 21.1153 21.4484 20.5573 22.1769 20.0147C23.5642 18.8638 24.7152 17.771 25.963 16.3875C26.1645 16.1666 26.1257 15.9845 25.8738 15.9264C24.9128 15.6822 23.7231 15.0622 22.4598 14.1205C22.173 13.9074 21.801 13.888 21.4522 14.105L16.7787 16.9649H16.7748ZM14.1281 19.1661L14.3179 19.0382C14.2094 18.9335 14.1009 18.8289 13.9924 18.7204C13.6088 18.3368 13.2561 17.9492 12.9306 17.5617L12.8492 17.6935C12.6826 17.9686 12.6245 18.1934 12.8182 18.4143C13.043 18.67 13.2833 18.9219 13.5352 19.1738C13.6979 19.3327 13.9188 19.3017 14.1281 19.1622V19.1661ZM15.062 15.4885L18.0343 10.5553C18.3947 9.95854 18.3947 9.46639 18.0072 8.78435C17.7049 8.24957 17.4375 7.74966 17.2592 7.28076C17.081 6.81574 16.9725 6.38946 16.9415 6.01357C16.9066 5.56404 16.6315 5.69192 16.4106 5.90119C16.1664 6.1337 15.837 6.52897 15.6975 6.69561C15.5464 6.87774 15.3953 7.06375 15.248 7.24976L15.2984 7.19163C15.6549 6.80411 16.023 6.42434 16.3989 6.07169C16.4958 5.98256 16.6082 5.88956 16.6896 5.86631C16.74 5.85468 16.7787 5.88956 16.7903 6.02519C16.8213 6.41659 16.9337 6.85836 17.1159 7.33502C17.298 7.81554 17.5615 8.3232 17.8754 8.86185C18.2203 9.45088 18.2629 9.88491 17.9025 10.4817L14.9186 15.4342L14.8837 15.5737L14.9147 15.6977L15.0465 15.876C15.4069 16.2441 15.7673 16.6162 16.1316 16.9843L16.2749 17.0347L16.4416 16.9843L16.5695 16.9029L21.2546 14.0081C21.8204 13.6594 22.2815 13.7601 22.8551 14.1787C23.417 14.5894 23.975 14.9266 24.502 15.2017C25.0329 15.4768 25.5367 15.6784 25.994 15.7985C26.2885 15.876 26.3699 16.0155 26.1645 16.248C25.5135 16.9843 24.8624 17.6508 24.1959 18.298C23.7774 18.701 23.3821 19.0692 22.8822 19.4799C22.9907 19.3986 23.0992 19.3211 23.2038 19.2358C23.9324 18.6545 25.3894 17.3021 26.2497 16.3255C26.5326 16.0078 26.4396 15.7597 26.0366 15.6551C25.591 15.535 25.0949 15.3373 24.5757 15.07C24.0564 14.8026 23.51 14.4538 22.9481 14.0585C22.3009 13.6051 21.8126 13.5121 21.181 13.8803C21.1538 13.8958 16.7903 16.5813 16.3796 16.8448L16.2827 16.8758L16.2168 16.8526L15.1666 15.7791L15.0542 15.628L15.0387 15.5699L15.0581 15.4885H15.062Z" fill="url(#paint8_linear_401_16986)"/>
</g>
<path style="mix-blend-mode:screen" opacity="0.35" fill-rule="evenodd" clip-rule="evenodd" d="M25.2967 7.37377C28.1644 10.2414 29.668 13.3881 28.6565 14.3995C27.6451 15.411 24.4984 13.9074 21.6308 11.0397C18.7631 8.17207 17.2595 5.02539 18.2709 4.01396C19.2824 3.00253 22.4291 4.50611 25.2967 7.37377Z" fill="url(#paint9_radial_401_16986)"/>
<path fill-rule="evenodd" clip-rule="evenodd" d="M25.4283 7.28075C28.3192 10.1717 29.8344 13.3416 28.8114 14.3647C27.7883 15.3877 24.6145 13.8725 21.7275 10.9816C18.8366 8.09067 17.3213 4.92075 18.3444 3.89769C19.3675 2.87463 22.5413 4.38984 25.4283 7.28075Z" fill="url(#paint10_radial_401_16986)"/>
<path fill-rule="evenodd" clip-rule="evenodd" d="M28.8658 14.3375C27.866 15.3373 24.7077 13.7989 21.809 10.9002C18.9103 8.00155 17.3719 4.84325 18.3717 3.84345C19.3986 2.81651 20.4604 1.98722 21.6656 1.38268C22.8708 0.778148 24.3434 0.336374 25.7695 0.173615L32.5356 6.93974C32.3729 8.36582 31.9311 9.83841 31.3265 11.0436C30.722 12.2488 29.8927 13.3106 28.8658 14.3375Z" fill="url(#paint11_radial_401_16986)"/>
<g style="mix-blend-mode:screen">
<path fill-rule="evenodd" clip-rule="evenodd" d="M29.912 2.74675C31.7683 4.60298 32.7952 6.58709 32.2023 7.17613C31.6094 7.76903 29.6291 6.7421 27.7729 4.88587C25.9167 3.02964 24.8898 1.04553 25.4827 0.456498C26.0756 -0.136411 28.0558 0.890522 29.912 2.74675Z" fill="url(#paint12_radial_401_16986)"/>
</g>
<path fill-rule="evenodd" clip-rule="evenodd" d="M30.0206 2.68862C31.9272 4.59523 32.989 6.62972 32.3845 7.23038C31.7799 7.83104 29.7493 6.7731 27.8427 4.86649C25.9361 2.95989 24.8743 0.925397 25.4788 0.324738C26.0834 -0.275921 28.114 0.782014 30.0206 2.68862Z" fill="url(#paint13_radial_401_16986)"/>
<path fill-rule="evenodd" clip-rule="evenodd" d="M27.8775 4.83162C26.0484 3.00252 25.037 1.04554 25.6183 0.464253C26.1995 -0.117029 29.9469 0.0224783 31.3187 1.39431C32.6867 2.76226 32.8223 6.51734 32.2488 7.09475C31.6675 7.67603 29.7105 6.6646 27.8814 4.8355L27.8775 4.83162Z" fill="url(#paint14_radial_401_16986)"/>
<path fill-rule="evenodd" clip-rule="evenodd" d="M8.18362 20.7317C10.4545 17.4958 12.7099 14.0275 14.7754 10.6638C15.0815 10.1639 15.4186 9.33464 14.508 9.87717C12.1983 11.2567 8.51301 15.7132 6.47077 18.2011C6.37002 18.3213 6.29639 18.4685 6.29639 18.639C6.29639 19.511 7.66046 20.5921 8.18362 20.7317Z" fill="url(#paint15_linear_401_16986)"/>
<path fill-rule="evenodd" clip-rule="evenodd" d="M21.1464 17.5075C19.9334 18.1546 18.7902 18.9258 17.616 19.7086C15.4769 21.1308 13.3921 22.5724 11.3149 24.0876C11.4041 24.851 12.4271 25.9748 13.3611 26.1879C13.5664 26.2344 13.6866 26.1453 13.8803 25.9903C16.1861 24.1225 19.6389 21.0494 21.7509 18.2127C22.4562 17.2633 22.1423 16.9765 21.1425 17.5113L21.1464 17.5075Z" fill="url(#paint16_linear_401_16986)"/>
<path fill-rule="evenodd" clip-rule="evenodd" d="M12.2642 13.0122C10.3808 15.1746 8.59436 17.4145 6.81176 19.6582L2.04912 18.9723C1.59959 18.9064 1.35545 18.763 1.67322 18.4569C3.49458 16.7014 5.28105 14.9149 7.21479 13.2718C8.01695 12.5898 8.4626 12.3495 9.50116 12.2023C10.2762 12.0899 11.1365 11.962 11.9115 11.8496C12.1673 11.8148 12.3301 11.9039 12.4115 12.0705C12.5781 12.4115 12.5045 12.7371 12.2642 13.0122Z" fill="url(#paint17_linear_401_16986)"/>
<path fill-rule="evenodd" clip-rule="evenodd" d="M19.976 20.41C20.0612 20.0535 19.7241 19.7977 19.3753 19.7396C19.1738 19.7047 18.9723 19.7512 18.7708 19.9256C16.6355 21.7857 14.4305 23.5644 12.1868 25.2966L12.3612 30.284C12.3728 30.6561 12.6285 30.8072 12.8766 30.5514C14.6437 28.7223 16.3565 26.8429 18.0926 24.9866C18.7708 24.262 19.1622 23.7582 19.4024 22.7816L19.9798 20.4139L19.976 20.41Z" fill="url(#paint18_linear_401_16986)"/>
<path fill-rule="evenodd" clip-rule="evenodd" d="M3.16921 19.1312L2.44067 19.0265L7.7846 13.9694C7.95123 13.8105 8.12949 13.6865 8.31938 13.5896C8.51314 13.4966 8.71853 13.4346 8.94716 13.3997L12.1365 13.1517C11.9427 13.3726 11.7528 13.5974 11.5629 13.8183L9.03242 13.9694C8.86579 13.9926 8.71465 14.0391 8.57514 14.1089C8.43564 14.1787 8.30388 14.2678 8.18375 14.384L3.16921 19.1273V19.1312ZM11.2684 14.1748L8.87741 14.3065C8.81153 14.3143 8.7534 14.3337 8.69527 14.3608C8.64102 14.3879 8.58677 14.4228 8.54027 14.4693L3.55286 19.1854L3.82413 19.2242L8.6914 14.6243C8.7224 14.5933 8.75728 14.57 8.79216 14.5545C8.82703 14.5352 8.86579 14.5235 8.91229 14.5197L11.0592 14.4228C11.1289 14.3375 11.1987 14.2562 11.2684 14.1748Z" fill="url(#paint19_radial_401_16986)"/>
<path fill-rule="evenodd" clip-rule="evenodd" d="M17.2052 23.6536C17.2982 23.5528 17.3757 23.4482 17.4377 23.3319C17.4997 23.2157 17.5462 23.0955 17.5772 22.9599L17.9415 20.6386C18.1934 20.4255 18.4453 20.2085 18.6933 19.9915L18.1391 23.0994C18.0926 23.2854 18.0306 23.4559 17.9454 23.6109C17.8601 23.7659 17.7555 23.9132 17.6237 24.0527L12.3379 29.7376L12.3108 28.92L17.2052 23.6536ZM17.2672 21.2083L17.0347 22.9986C17.027 23.0335 17.0153 23.0645 16.9998 23.0955C16.9843 23.1265 16.965 23.1536 16.9378 23.1808L12.2837 28.1876L12.2953 28.4937L17.0967 23.328C17.1355 23.2854 17.1665 23.2467 17.1897 23.2002C17.213 23.1536 17.2323 23.1071 17.244 23.0529L17.5462 20.9758C17.4532 21.0533 17.3602 21.1347 17.2672 21.2122V21.2083Z" fill="url(#paint20_radial_401_16986)"/>
<path fill-rule="evenodd" clip-rule="evenodd" d="M30.904 11.8031C30.873 11.8574 30.8381 11.9078 30.8071 11.962C30.7257 12.0899 30.6211 12.179 30.4777 12.241C29.3229 12.7254 26.5754 11.2451 24.0216 8.69135C21.4678 6.13758 19.9875 3.39005 20.4719 2.23523C20.53 2.09185 20.6191 1.98722 20.7509 1.90584C20.8013 1.87096 20.8555 1.83996 20.9098 1.80896C20.0379 2.77001 21.5221 5.73068 24.2541 8.46271C26.9861 11.1947 29.9468 12.6789 30.9078 11.807L30.904 11.8031ZM30.5358 12.3689C29.5554 13.268 26.5327 11.7566 23.7426 8.96649C20.9524 6.17633 19.445 3.15366 20.3401 2.17323C20.2006 2.27011 20.0611 2.37087 19.9255 2.4755C19.6581 2.68088 19.507 2.9599 19.4837 3.29704C19.3907 4.65337 20.8439 7.16839 23.1923 9.51677C25.5407 11.8652 28.0557 13.3222 29.412 13.2254C29.7492 13.2021 30.0282 13.051 30.2336 12.7836C30.3382 12.6479 30.4389 12.5084 30.5358 12.3689Z" fill="url(#paint21_radial_401_16986)"/>
<defs>
<linearGradient id="paint0_linear_401_16986" x1="6.18557" y1="20.5268" x2="12.1811" y2="26.5224" gradientUnits="userSpaceOnUse">
<stop stop-color="#0B0F1D"/>
<stop offset="0.26" stop-color="#3D374F"/>
<stop offset="1" stop-color="#0B0F1D"/>
</linearGradient>
<radialGradient id="paint1_radial_401_16986" cx="0" cy="0" r="1" gradientUnits="userSpaceOnUse" gradientTransform="translate(8.28457 22.3354) rotate(45) scale(4.68126)">
<stop stop-color="#E0FFFF"/>
<stop offset="0.09" stop-color="#BAD5D4"/>
<stop offset="0.23" stop-color="#899F9C"/>
<stop offset="0.37" stop-color="#5F716C"/>
<stop offset="0.5" stop-color="#3D4B45"/>
<stop offset="0.63" stop-color="#222D27"/>
<stop offset="0.76" stop-color="#0F1811"/>
<stop offset="0.89" stop-color="#030C04"/>
<stop offset="1" stop-color="#000800"/>
</radialGradient>
<radialGradient id="paint2_radial_401_16986" cx="0" cy="0" r="1" gradientUnits="userSpaceOnUse" gradientTransform="translate(7.805 22.4915) rotate(45) scale(5.63069)">
<stop stop-color="#46465E"/>
<stop offset="1" stop-color="#0B0F1D"/>
</radialGradient>
<linearGradient id="paint3_linear_401_16986" x1="7.23508" y1="20.0473" x2="12.6607" y2="25.4729" gradientUnits="userSpaceOnUse">
<stop stop-color="#0B0F1D"/>
<stop offset="0.26" stop-color="#3D374F"/>
<stop offset="1" stop-color="#0B0F1D"/>
</linearGradient>
<radialGradient id="paint4_radial_401_16986" cx="0" cy="0" r="1" gradientUnits="userSpaceOnUse" gradientTransform="translate(15.5817 16.9564) rotate(45) scale(10.684)">
<stop offset="0.49" stop-color="#000800"/>
<stop offset="0.63" stop-color="#020900"/>
<stop offset="0.7" stop-color="#090F00"/>
<stop offset="0.76" stop-color="#161A00"/>
<stop offset="0.81" stop-color="#292900"/>
<stop offset="0.85" stop-color="#413C00"/>
<stop offset="0.88" stop-color="#5E5400"/>
<stop offset="0.92" stop-color="#827000"/>
<stop offset="0.95" stop-color="#AB9100"/>
<stop offset="0.98" stop-color="#D8B500"/>
<stop offset="1" stop-color="#FFD500"/>
</radialGradient>
<linearGradient id="paint5_linear_401_16986" x1="19.0482" y1="21.1077" x2="21.2924" y2="23.352" gradientUnits="userSpaceOnUse">
<stop stop-color="#510B1C"/>
<stop offset="1" stop-color="#630D1F"/>
</linearGradient>
<radialGradient id="paint6_radial_401_16986" cx="0" cy="0" r="1" gradientUnits="userSpaceOnUse" gradientTransform="translate(-25.0993 -34.6744) rotate(45) scale(72.7223)">
<stop offset="0.8" stop-color="#FFE395"/>
<stop offset="0.83" stop-color="#FDDF8B"/>
<stop offset="0.87" stop-color="#FAD673"/>
<stop offset="0.92" stop-color="#F5C84A"/>
<stop offset="0.98" stop-color="#EEB413"/>
<stop offset="1" stop-color="#ECAD00"/>
</radialGradient>
<radialGradient id="paint7_radial_401_16986" cx="0" cy="0" r="1" gradientUnits="userSpaceOnUse" gradientTransform="translate(-2.93833 12.5549) scale(32.2806 32.2806)">
<stop offset="0.51" stop-color="#EFAF00"/>
<stop offset="0.6" stop-color="#E6A100"/>
<stop offset="0.76" stop-color="#CF7F00"/>
<stop offset="0.91" stop-color="#B55900"/>
</radialGradient>
<linearGradient id="paint8_linear_401_16986" x1="12.5206" y1="9.78793" x2="22.684" y2="19.9513" gradientUnits="userSpaceOnUse">
<stop stop-color="#AA162A"/>
<stop offset="0.24" stop-color="#D62641"/>
<stop offset="0.78" stop-color="#801126"/>
<stop offset="1" stop-color="#6B0E25"/>
</linearGradient>
<radialGradient id="paint9_radial_401_16986" cx="0" cy="0" r="1" gradientUnits="userSpaceOnUse" gradientTransform="translate(20.0319 9.33862) rotate(45) scale(8.12633)">
<stop stop-color="#FFE46B"/>
<stop offset="0.4" stop-color="#998940"/>
<stop offset="0.97"/>
</radialGradient>
<radialGradient id="paint10_radial_401_16986" cx="0" cy="0" r="1" gradientUnits="userSpaceOnUse" gradientTransform="translate(19.4399 8.00687) rotate(45) scale(11.273)">
<stop stop-color="#BD5E00"/>
<stop offset="1" stop-color="#763B00"/>
</radialGradient>
<radialGradient id="paint11_radial_401_16986" cx="0" cy="0" r="1" gradientUnits="userSpaceOnUse" gradientTransform="translate(22.5803 4.69125) rotate(45) scale(10.0368)">
<stop stop-color="#DF3A66"/>
<stop offset="0.44" stop-color="#D21C2D"/>
<stop offset="1" stop-color="#6B0E25"/>
</radialGradient>
<radialGradient id="paint12_radial_401_16986" cx="0" cy="0" r="1" gradientUnits="userSpaceOnUse" gradientTransform="translate(26.4466 3.46638) rotate(45) scale(6.45999)">
<stop stop-color="#C9CDDA"/>
<stop offset="0.01" stop-color="#C6CAD7"/>
<stop offset="0.5" stop-color="#666973"/>
<stop offset="0.84" stop-color="#2A2C35"/>
<stop offset="1" stop-color="#13151D"/>
</radialGradient>
<radialGradient id="paint13_radial_401_16986" cx="0" cy="0" r="1" gradientUnits="userSpaceOnUse" gradientTransform="translate(25.9726 2.83339) rotate(45) scale(8.31234)">
<stop stop-color="#586681"/>
<stop offset="1" stop-color="#1E242C"/>
</radialGradient>
<radialGradient id="paint14_radial_401_16986" cx="0" cy="0" r="1" gradientUnits="userSpaceOnUse" gradientTransform="translate(26.1414 2.41736) scale(7.75819 7.75819)">
<stop stop-color="#FFC524"/>
<stop offset="0.45" stop-color="#FF9300"/>
<stop offset="1" stop-color="#9A4600"/>
</radialGradient>
<linearGradient id="paint15_linear_401_16986" x1="9.66289" y1="12.0131" x2="12.6552" y2="18.7375" gradientUnits="userSpaceOnUse">
<stop offset="0.07" stop-color="#D21C2E"/>
<stop offset="1" stop-color="#A9162A"/>
</linearGradient>
<linearGradient id="paint16_linear_401_16986" x1="16.4313" y1="20.4693" x2="18.1905" y2="22.9793" gradientUnits="userSpaceOnUse">
<stop stop-color="#C81A2C"/>
<stop offset="0.9" stop-color="#7A1026"/>
</linearGradient>
<linearGradient id="paint17_linear_401_16986" x1="6.02115" y1="14.2682" x2="9.00248" y2="17.8195" gradientUnits="userSpaceOnUse">
<stop stop-color="#D72743"/>
<stop offset="1" stop-color="#A51629"/>
</linearGradient>
<linearGradient id="paint18_linear_401_16986" x1="14.524" y1="23.1218" x2="17.5026" y2="27.0704" gradientUnits="userSpaceOnUse">
<stop stop-color="#861127"/>
<stop offset="1" stop-color="#D42138"/>
</linearGradient>
<radialGradient id="paint19_radial_401_16986" cx="0" cy="0" r="1" gradientUnits="userSpaceOnUse" gradientTransform="translate(5.89238 5.26935) rotate(45) scale(18.5352)">
<stop stop-color="#EFAF00"/>
<stop offset="0.22" stop-color="#E6A100"/>
<stop offset="0.61" stop-color="#CF7F00"/>
<stop offset="1" stop-color="#B55900"/>
</radialGradient>
<radialGradient id="paint20_radial_401_16986" cx="0" cy="0" r="1" gradientUnits="userSpaceOnUse" gradientTransform="translate(18.4972 24.3027) rotate(45) scale(18.3375)">
<stop stop-color="#EFC100"/>
<stop offset="0.21" stop-color="#EAB300"/>
<stop offset="0.61" stop-color="#DE9100"/>
<stop offset="1" stop-color="#D16900"/>
</radialGradient>
<radialGradient id="paint21_radial_401_16986" cx="0" cy="0" r="1" gradientUnits="userSpaceOnUse" gradientTransform="translate(22.921 6.29646) scale(9.85856)">
<stop stop-color="#FFE100"/>
<stop offset="0.15" stop-color="#F7D300"/>
<stop offset="0.43" stop-color="#E5B100"/>
<stop offset="0.8" stop-color="#C77A00"/>
<stop offset="1" stop-color="#B55900"/>
</radialGradient>
</defs>
</svg>
