<svg width="17" height="16" viewBox="0 0 17 16" fill="none" xmlns="http://www.w3.org/2000/svg">
<path d="M6.61405 2.83496C7.19716 1.20189 7.48871 0.385358 7.91283 0.151771C8.28026 -0.0505903 8.71974 -0.0505903 9.08717 0.151771C9.51129 0.385358 9.80284 1.20189 10.386 2.83496L10.667 3.62203C10.8355 4.09408 10.9198 4.3301 11.0651 4.50714C11.1935 4.6636 11.3554 4.78634 11.5377 4.86541C11.7439 4.95488 11.9851 4.96558 12.4675 4.98698L13.2717 5.02265C14.9403 5.09667 15.7747 5.13368 16.1186 5.48238C16.4166 5.78447 16.5524 6.22061 16.4815 6.64776C16.3997 7.14083 15.7455 7.68248 14.4373 8.76579L13.8067 9.2879C13.4286 9.60104 13.2395 9.75761 13.123 9.9565C13.0201 10.1323 12.9582 10.3309 12.9425 10.5362C12.9247 10.7685 12.9895 11.0112 13.119 11.4964L13.335 12.3056C13.7832 13.9844 14.0073 14.8238 13.7957 15.2729C13.6125 15.6619 13.2569 15.9315 12.8457 15.9931C12.371 16.0643 11.6752 15.5825 10.2835 14.6189L9.61275 14.1546C9.21048 13.876 9.00934 13.7368 8.79207 13.6827C8.60005 13.6348 8.39995 13.6348 8.20793 13.6827C7.99066 13.7368 7.78952 13.876 7.38725 14.1546L6.71652 14.6189C5.32485 15.5825 4.62901 16.0643 4.15431 15.9931C3.74307 15.9315 3.38751 15.6619 3.20426 15.2729C2.99272 14.8238 3.01855 13.8292 3.26855 13.055C3.51855 12.2808 3.76855 12.0227 4.15431 11.6271C5.26855 10.7324 10.0186 8.65595 9.26855 8.40386C8.51855 8.15178 3.78764 9.71876 2.51855 8.66791L1.88802 8.30597C0.579739 7.22266 0.600316 7.14083 0.518472 6.64776C0.447568 6.22061 0.583376 5.78447 0.88136 5.48238C1.22532 5.13368 2.05966 5.09667 3.72832 5.02265L4.53254 4.98698C5.01488 4.96558 5.25605 4.95488 5.46232 4.86541C5.6446 4.78634 5.80649 4.6636 5.9349 4.50714C6.08019 4.3301 6.16446 4.09408 6.33301 3.62203L6.61405 2.83496Z" fill="#F3C025"/>
</svg>
