<svg width="16" height="20" viewBox="0 0 16 20" fill="none" xmlns="http://www.w3.org/2000/svg">
<path d="M13.4999 1.49996H11.248C11.1317 1.34498 10.9811 1.21914 10.8079 1.13237C10.6347 1.0456 10.4437 1.00027 10.2499 0.999966H9.41439C9.31102 0.707486 9.1195 0.454252 8.86622 0.275139C8.61294 0.0960267 8.31036 -0.000152588 8.00014 -0.000152588C7.68993 -0.000152588 7.38735 0.0960267 7.13407 0.275139C6.88079 0.454252 6.68927 0.707486 6.5859 0.999966H5.74996C5.55624 1.00027 5.36524 1.0456 5.19203 1.13237C5.01882 1.21914 4.86816 1.34498 4.75192 1.49996H2.49998C1.83755 1.50192 1.20281 1.76594 0.734391 2.23435C0.265977 2.70277 0.0019579 3.33751 0 3.99995V17.4999C0.0019579 18.1623 0.265977 18.797 0.734391 19.2655C1.20281 19.7339 1.83755 19.9979 2.49998 19.9998H13.4999C14.1623 19.9979 14.7971 19.7339 15.2655 19.2655C15.7339 18.797 15.9979 18.1623 15.9999 17.4999V3.99995C15.9979 3.33751 15.7339 2.70277 15.2655 2.23435C14.7971 1.76594 14.1623 1.50192 13.4999 1.49996ZM7.99995 0.999966C8.09884 0.999966 8.19551 1.02929 8.27773 1.08423C8.35996 1.13917 8.42404 1.21726 8.46189 1.30862C8.49973 1.39999 8.50963 1.50052 8.49034 1.59751C8.47105 1.6945 8.42343 1.78359 8.3535 1.85351C8.28358 1.92344 8.19448 1.97106 8.09749 1.99035C8.0005 2.00965 7.89997 1.99974 7.80861 1.9619C7.71725 1.92406 7.63916 1.85997 7.58422 1.77775C7.52928 1.69552 7.49995 1.59885 7.49995 1.49996C7.50006 1.36739 7.55277 1.24027 7.64651 1.14653C7.74026 1.05278 7.86737 1.00007 7.99995 0.999966ZM6.58551 1.99996C6.68888 2.29244 6.8804 2.54567 7.13368 2.72479C7.38696 2.9039 7.68954 3.00008 7.99975 3.00008C8.30997 3.00008 8.61255 2.9039 8.86583 2.72479C9.11911 2.54567 9.31063 2.29244 9.414 1.99996H10.2499C10.316 2.00087 10.379 2.0275 10.4257 2.07419C10.4724 2.12088 10.499 2.18394 10.4999 2.24996V3.74995C10.499 3.81597 10.4724 3.87903 10.4257 3.92572C10.379 3.97241 10.316 3.99904 10.2499 3.99995H5.74996C5.68394 3.99904 5.62088 3.97241 5.57419 3.92572C5.52751 3.87903 5.50087 3.81597 5.49997 3.74995V2.24996C5.50087 2.18394 5.52751 2.12088 5.57419 2.07419C5.62088 2.0275 5.68394 2.00087 5.74996 1.99996H6.58551ZM6.41598 14.7772L5.41598 16.2772C5.34809 16.3783 5.24562 16.4512 5.12781 16.4821C5.01 16.5131 4.88495 16.4999 4.77614 16.4452L3.77615 15.9452C3.71741 15.9158 3.66504 15.8752 3.62201 15.8256C3.57898 15.776 3.54615 15.7184 3.52539 15.6561C3.50462 15.5938 3.49633 15.528 3.50098 15.4625C3.50564 15.397 3.52315 15.333 3.55252 15.2743C3.58188 15.2156 3.62253 15.1632 3.67214 15.1202C3.72175 15.0771 3.77935 15.0443 3.84165 15.0235C3.96747 14.9816 4.10479 14.9913 4.22341 15.0507L4.82849 15.3534L5.58356 14.2206C5.61977 14.1655 5.66652 14.1181 5.72113 14.0811C5.77573 14.0441 5.83711 14.0183 5.90173 14.0052C5.96635 13.992 6.03294 13.9918 6.09765 14.0045C6.16236 14.0171 6.22393 14.0425 6.2788 14.0791C6.33367 14.1157 6.38076 14.1627 6.41736 14.2176C6.45396 14.2725 6.47935 14.334 6.49206 14.3987C6.50478 14.4634 6.50457 14.53 6.49144 14.5946C6.47831 14.6593 6.45254 14.7206 6.41559 14.7753L6.41598 14.7772ZM6.41598 11.2772L5.41598 12.7772C5.3484 12.8786 5.24613 12.9518 5.12838 12.9831C5.01064 13.0144 4.88552 13.0016 4.77653 12.9472L3.77654 12.4472C3.65792 12.3878 3.56772 12.2838 3.52578 12.158C3.48384 12.0322 3.4936 11.8949 3.55291 11.7763C3.61222 11.6576 3.71622 11.5674 3.84204 11.5255C3.96786 11.4836 4.10518 11.4933 4.2238 11.5526L4.82888 11.8554L5.58395 10.7226C5.62016 10.6674 5.66691 10.62 5.72152 10.5831C5.77612 10.5461 5.8375 10.5203 5.90212 10.5071C5.96674 10.494 6.03333 10.4937 6.09804 10.5064C6.16275 10.5191 6.22432 10.5445 6.27919 10.5811C6.33406 10.6176 6.38115 10.6647 6.41775 10.7196C6.45435 10.7744 6.47974 10.836 6.49246 10.9007C6.50517 10.9654 6.50496 11.032 6.49183 11.0966C6.47871 11.1612 6.45293 11.2226 6.41598 11.2772ZM6.41598 7.77727L5.41598 9.27726C5.3484 9.37862 5.24613 9.45183 5.12838 9.48311C5.01064 9.5144 4.88552 9.50162 4.77653 9.44718L3.77654 8.94523C3.65792 8.88592 3.56772 8.78191 3.52578 8.6561C3.48384 8.53028 3.4936 8.39296 3.55291 8.27433C3.61222 8.15571 3.71622 8.06551 3.84204 8.02357C3.96786 7.98163 4.10518 7.99139 4.2238 8.0507L4.82888 8.35344L5.58395 7.22063C5.62016 7.16551 5.66691 7.11811 5.72152 7.08113C5.77612 7.04416 5.8375 7.01836 5.90212 7.0052C5.96674 6.99205 6.03333 6.99182 6.09804 7.0045C6.16275 7.01719 6.22432 7.04255 6.27919 7.07913C6.33406 7.11571 6.38115 7.16279 6.41775 7.21764C6.45435 7.2725 6.47974 7.33405 6.49246 7.39876C6.50517 7.46347 6.50496 7.53005 6.49183 7.59468C6.47871 7.6593 6.45293 7.72069 6.41598 7.77531V7.77727ZM12.0019 15.9999H7.99995C7.86734 15.9999 7.74017 15.9472 7.6464 15.8534C7.55263 15.7597 7.49995 15.6325 7.49995 15.4999C7.49995 15.3673 7.55263 15.2401 7.6464 15.1463C7.74017 15.0526 7.86734 14.9999 7.99995 14.9999H11.9999C12.1325 14.9999 12.2597 15.0526 12.3535 15.1463C12.4472 15.2401 12.4999 15.3673 12.4999 15.4999C12.4999 15.6325 12.4472 15.7597 12.3535 15.8534C12.2597 15.9472 12.1325 15.9999 11.9999 15.9999H12.0019ZM12.0019 12.4999H7.99995C7.86734 12.4999 7.74017 12.4472 7.6464 12.3534C7.55263 12.2597 7.49995 12.1325 7.49995 11.9999C7.49995 11.8673 7.55263 11.7401 7.6464 11.6463C7.74017 11.5526 7.86734 11.4999 7.99995 11.4999H11.9999C12.1325 11.4999 12.2597 11.5526 12.3535 11.6463C12.4472 11.7401 12.4999 11.8673 12.4999 11.9999C12.4999 12.1325 12.4472 12.2597 12.3535 12.3534C12.2597 12.4472 12.1325 12.4999 11.9999 12.4999H12.0019ZM12.0019 8.99992H7.99995C7.86734 8.99992 7.74017 8.94724 7.6464 8.85347C7.55263 8.7597 7.49995 8.63253 7.49995 8.49992C7.49995 8.36731 7.55263 8.24014 7.6464 8.14637C7.74017 8.0526 7.86734 7.99992 7.99995 7.99992H11.9999C12.1325 7.99992 12.2597 8.0526 12.3535 8.14637C12.4472 8.24014 12.4999 8.36731 12.4999 8.49992C12.4999 8.63253 12.4472 8.7597 12.3535 8.85347C12.2597 8.94724 12.1325 8.99992 11.9999 8.99992H12.0019Z" fill="white"/>
</svg>
