<svg width="17" height="18" viewBox="0 0 17 18" fill="none" xmlns="http://www.w3.org/2000/svg">
<rect y="0.5" width="17" height="17" rx="8.5" fill="#0098EA"/>
<path d="M11.4023 5.24414H5.59751C4.53022 5.24414 3.85374 6.39544 4.39069 7.32615L7.9732 13.5356C8.20698 13.9411 8.79285 13.9411 9.02663 13.5356L12.6099 7.32615C13.1461 6.39692 12.4696 5.24414 11.403 5.24414H11.4023ZM7.97029 11.6735L7.19008 10.1635L5.30751 6.79651C5.18332 6.58101 5.33671 6.30485 5.59678 6.30485H7.96956V11.6742L7.97029 11.6735ZM11.6909 6.79579L9.80902 10.1642L9.02881 11.6735V6.30412H11.4016C11.6617 6.30412 11.8151 6.58028 11.6909 6.79579Z" fill="white"/>
</svg>
