<svg width="78" height="78" viewBox="0 0 78 78" fill="none" xmlns="http://www.w3.org/2000/svg">
<g filter="url(#filter0_d_905_6441)">
<path d="M57.2106 36.9111C57.23 37.058 57.2465 37.2028 57.2631 37.3472C57.3063 37.7357 57.336 38.1231 57.3515 38.5077C57.3569 38.567 57.3593 38.6292 57.3617 38.6885C57.4143 40.1932 57.283 41.6682 56.9869 43.0887C56.9339 43.3459 56.8751 43.6011 56.8104 43.8515C55.0136 50.9411 49.0592 56.5694 41.3686 57.5874C41.2082 57.6088 41.0478 57.6273 40.8864 57.6428C40.7979 57.6521 40.7094 57.6608 40.6204 57.6671C40.6102 57.671 40.602 57.6725 40.5913 57.671C37.6252 57.9413 34.7481 57.4848 32.1438 56.443C31.9693 56.3764 31.7967 56.3069 31.6265 56.2315C30.0256 55.5382 28.536 54.6175 27.2044 53.5134C27.1646 53.4808 27.1252 53.4478 27.0848 53.4123C26.92 53.2766 26.763 53.1366 26.6055 52.9971C26.5034 52.9047 26.4013 52.8095 26.3016 52.7137C26.1325 52.5532 25.9681 52.3884 25.8062 52.2217C25.025 51.4288 24.3128 50.5683 23.6837 49.6373C23.586 49.4953 23.4936 49.3524 23.4012 49.207C23.3871 49.1842 23.374 49.1642 23.3599 49.1419C23.2291 48.9333 23.1008 48.7248 22.9773 48.5099C22.8898 48.3611 22.8071 48.2089 22.724 48.0539C22.6807 47.9751 22.6404 47.8934 22.6 47.8147C22.5636 47.7461 22.5281 47.68 22.4941 47.611C22.0332 46.6985 21.6457 45.7412 21.3419 44.7402C21.2636 44.4762 21.1878 44.2113 21.1192 43.9405C21.0361 43.6225 20.9612 43.3007 20.8961 42.975C20.8124 42.57 20.7449 42.1602 20.6899 41.746C20.2427 38.3681 20.7429 35.0827 21.9792 32.1594C22.1742 31.7015 22.3842 31.2547 22.6146 30.8167C22.6277 30.7933 22.638 30.7676 22.6511 30.7437C23.0949 29.9075 23.5962 29.1122 24.1596 28.3577C24.2792 28.1924 24.4042 28.029 24.5325 27.8676C24.5748 27.8156 24.6142 27.7646 24.6565 27.7155C25.0396 27.2405 25.445 26.7898 25.8743 26.3581C28.6439 23.5603 32.328 21.6263 36.5338 21.0697C37.0282 21.0041 37.5197 20.9584 38.0088 20.9341C38.0628 20.9321 38.1143 20.9282 38.1687 20.9292C39.352 20.8733 40.5217 20.936 41.6642 21.1052C41.8723 21.1348 42.0779 21.1698 42.2816 21.2083C43.4294 21.4178 44.5462 21.7377 45.6157 22.1563C45.6702 22.1762 45.7217 22.1966 45.7737 22.2195C45.8179 22.2365 45.8602 22.2564 45.904 22.2739C46.0844 22.3493 46.2652 22.4207 46.4446 22.5005C46.5861 22.5632 46.728 22.6288 46.8705 22.6969C47.1058 22.8097 47.3386 22.9258 47.5701 23.0503C48.8593 23.7309 50.0631 24.5666 51.1559 25.5312C51.2945 25.6542 51.4335 25.7801 51.5677 25.9089C52.2785 26.5759 52.9372 27.2993 53.5371 28.0733C53.5406 28.0781 53.5469 28.0854 53.5503 28.0908C53.8809 28.5215 54.1876 28.9698 54.4788 29.4297C54.4706 29.4156 54.4628 29.3976 54.4521 29.3801C54.5338 29.505 54.6164 29.6358 54.6932 29.7641C54.7754 29.892 54.8527 30.0233 54.9271 30.1545C55.0087 30.2989 55.0899 30.4404 55.1667 30.5877C55.8435 31.8386 56.3802 33.1813 56.7531 34.6029C56.9529 35.3515 57.1065 36.1221 57.211 36.9106L57.2106 36.9111Z" fill="url(#paint0_linear_905_6441)"/>
<g style="mix-blend-mode:color-dodge" opacity="0.65">
<path d="M57.2106 36.9111C57.23 37.0579 57.2466 37.2028 57.2631 37.3472C57.3064 37.7357 57.336 38.1231 57.3516 38.5077C57.3569 38.567 57.3594 38.6292 57.3618 38.6885C57.4143 40.1932 57.283 41.6682 56.987 43.0887C56.934 43.3459 56.8751 43.6011 56.8105 43.8515C55.0136 50.9411 49.0592 56.5694 41.3687 57.5874C41.2082 57.6088 41.0478 57.6273 40.8864 57.6428C40.7979 57.6521 40.7094 57.6608 40.6205 57.6671C40.6103 57.671 40.602 57.6725 40.5913 57.671C47.8005 56.4065 53.4541 51.278 55.6777 44.7217C55.7837 44.414 55.879 44.1053 55.968 43.7917C56.0181 43.6138 56.0676 43.4358 56.1124 43.2589C56.1804 42.9944 56.2427 42.7251 56.2991 42.4509C56.4483 41.7294 56.5582 40.9973 56.6253 40.2515C56.6321 40.199 56.6364 40.1494 56.6403 40.0974C56.6637 39.8008 56.6812 39.5019 56.6909 39.2043C56.7103 38.7366 56.7084 38.2695 56.6924 37.7984C56.6758 37.3248 56.6428 36.8504 56.5912 36.3759C56.5732 36.2203 56.5557 36.0676 56.5353 35.913C56.4867 35.547 56.4279 35.1848 56.3588 34.827C56.0827 33.3573 55.6418 31.9552 55.0594 30.6378C54.9927 30.4836 54.9232 30.3295 54.8513 30.1759C54.7336 29.925 54.6087 29.6776 54.4813 29.4335C54.4706 29.416 54.4628 29.3981 54.4526 29.3801C54.5343 29.505 54.6169 29.6358 54.6938 29.7641C54.7759 29.892 54.8532 30.0233 54.9276 30.1545C55.0093 30.2989 55.0905 30.4404 55.1673 30.5877C55.844 31.8386 56.3807 33.1813 56.7536 34.6029C56.9534 35.3515 57.107 36.1221 57.2116 36.9106L57.2106 36.9111Z" fill="white"/>
</g>
<path d="M42.2812 21.2087C42.4265 23.2098 42.2267 26.1972 39.6355 27.4948C35.8848 29.3752 27.8836 32.5255 24.1587 28.3582C24.2783 28.1929 24.4032 28.0295 24.5316 27.8681C24.5739 27.8161 24.6132 27.7651 24.6555 27.716C24.8247 27.8866 25.0581 28.0052 25.3717 28.0533C27.8768 28.4311 35.0452 28.7247 36.9835 26.6061C38.9218 24.4869 40.2524 23.7776 38.6875 22.1222C38.3652 21.7843 38.2101 21.3726 38.1678 20.9292C39.3511 20.8733 40.5208 20.936 41.6633 21.1052C41.8713 21.1348 42.077 21.1698 42.2807 21.2083L42.2812 21.2087Z" fill="#87000D"/>
<path d="M47.5691 23.0508C47.6109 23.4096 47.6614 23.9142 47.6765 24.5185C47.7577 27.6158 46.9444 33.3029 39.7672 34.8916C31.819 36.6535 31.6562 36.7813 30.5424 37.6083C29.4281 38.4357 26.5476 37.7293 25.0731 38.4002C24.0473 38.8679 21.9267 40.9647 21.1187 43.9405C21.0356 43.6225 20.9607 43.3007 20.8956 42.975C20.812 42.57 20.7444 42.1602 20.6894 41.746C20.2422 38.3681 20.7424 35.0827 21.9787 32.1594C22.0667 31.982 22.1552 31.807 22.2466 31.6344C21.9214 33.6976 21.9554 36.3768 24.1835 36.8188C25.4037 37.0623 26.3794 37.1805 27.1723 37.195C27.4699 37.2048 27.7436 37.1955 27.9935 37.1761C29.0956 37.0793 29.7641 36.7298 30.2886 36.214C31.2512 35.2708 34.9295 35.3277 37.3573 34.6665C39.7847 34.0054 45.0182 31.4336 45.6167 29.7909C46.0858 28.5079 46.973 25.7611 46.5331 22.9915C46.5088 22.8286 46.4791 22.6643 46.4436 22.5005C46.5851 22.5632 46.7271 22.6288 46.8695 22.6969C47.1048 22.8097 47.3377 22.9258 47.5691 23.0503V23.0508Z" fill="#87000D"/>
<path d="M55.1677 30.6018C54.2562 30.8638 53.0199 31.9168 51.6333 35.0015C48.7271 41.4523 50.3946 40.6171 47.6697 42.7509C44.9448 44.8846 40.3603 47.944 37.3116 48.1438C34.7374 48.3135 26.9541 48.1992 23.6832 49.6383C23.5855 49.4963 23.4931 49.3534 23.4007 49.208C23.1606 48.8317 22.933 48.4486 22.7235 48.0553C23.4362 47.6863 24.461 47.4175 25.9351 47.4019C30.3727 47.3611 35.3335 47.6586 37.9995 46.6231C40.6632 45.5881 47.7417 42.2662 48.6726 39.4839C49.59 36.7386 52.5143 32.9908 51.4646 25.9459C52.2041 26.6012 52.8969 27.3168 53.5284 28.0816C53.5318 28.0864 53.5381 28.0937 53.5415 28.0991C54.0471 28.7554 54.5114 29.4472 54.9275 30.1696C55.0092 30.314 55.0904 30.4555 55.1672 30.6028L55.1677 30.6018Z" fill="#87000D"/>
<path d="M57.3589 38.6914C57.4138 40.1932 57.2825 41.6682 56.9865 43.0882C56.9335 43.3454 56.8746 43.6007 56.81 43.851C55.7599 44.5637 54.7798 45.4383 54.3442 46.4209C53.193 49.0203 50.4374 52.8517 44.5272 53.9062C39.284 54.8426 35.0287 53.5081 32.1433 56.443C31.9688 56.3764 31.7962 56.3069 31.6261 56.2315C30.0252 55.5382 28.5356 54.6175 27.204 53.5134C28.9532 53.8284 31.1069 54.0978 33.0515 53.9981C37.2378 53.7837 40.6851 53.1235 43.5005 51.7992C46.3163 50.4749 48.3606 50.0004 48.9192 47.5473C49.4782 45.0941 50.9941 43.1942 53.9208 42.1947C55.8644 41.5321 56.9135 40.2379 57.3589 38.6914Z" fill="#87000D"/>
<path d="M57.2625 37.3477C58.0477 38.8737 58.5314 40.9851 56.9864 43.0887C55.7685 43.851 54.5561 44.8379 54.0578 45.9614C52.9065 48.5609 50.151 52.3923 44.2408 53.4468C38.8566 54.4069 34.5123 52.9757 31.626 56.2315C28.7698 56.4804 26.3322 53.982 26.6054 52.9971C28.4066 53.335 30.7042 53.6427 32.765 53.5387C36.9513 53.3243 40.3987 52.6641 43.214 51.3398C46.0298 50.0155 48.0741 49.541 48.6327 47.0878C49.1918 44.6347 50.7077 42.7348 53.6343 41.7353C55.9392 40.9487 56.9873 39.2738 57.2625 37.3477Z" fill="url(#paint1_linear_905_6441)"/>
<path d="M26.8592 53.3714C28.6604 53.7093 30.958 54.017 33.0188 53.913C37.2051 53.6986 40.6525 53.0384 43.4678 51.7141C46.2836 50.3898 48.3279 49.9153 48.8865 47.4622C49.4456 45.009 50.9614 43.1091 53.8881 42.1096C56.1434 41.34 57.1935 39.7187 57.4954 37.845C57.422 37.6739 57.3447 37.5071 57.2625 37.3477C56.9874 39.2738 55.9392 40.9487 53.6343 41.7353C50.7077 42.7343 49.1918 44.6347 48.6328 47.0878C48.0737 49.541 46.0294 50.0155 43.214 51.3398C40.3982 52.6641 36.9509 53.3243 32.7651 53.5387C30.7042 53.6427 28.4067 53.3355 26.6054 52.9971C26.5213 53.3009 26.6954 53.7487 27.0595 54.2154C26.8738 53.8902 26.7975 53.5921 26.8587 53.3714H26.8592Z" fill="#FCFE02"/>
<path d="M44.4358 42.5749C44.3429 42.6935 44.2404 42.8048 44.1295 42.9118C44.2408 42.8072 44.3425 42.693 44.4358 42.5749ZM52.5298 26.326C52.19 26.08 51.8405 25.8841 51.4525 25.6828C51.3562 25.6333 51.2571 25.5837 51.155 25.5316C51.6231 28.6781 51.2994 31.1628 50.7174 33.1945C50.3635 34.4239 49.9172 35.4891 49.4928 36.4318C49.4656 36.4925 49.4379 36.5504 49.4048 36.6092C48.7961 37.7639 47.5025 38.4027 46.2015 38.1674C44.954 37.9437 43.4708 37.6885 42.2393 37.5062C41.3327 37.3735 40.5645 37.2792 40.128 37.2689C39.3506 37.2495 38.5839 37.7235 37.8275 38.2534C36.9018 38.9034 35.9908 39.6385 35.0957 39.6565C33.4691 39.6924 31.9347 43.1583 31.3985 44.589C31.0713 45.4646 30.0125 46.1972 29.2414 46.6367C28.9026 46.8283 28.5205 46.9226 28.1315 46.9197C27.3396 46.9158 26.5481 46.9119 25.7712 46.9197C24.5928 46.9313 23.7022 47.1063 23.0298 47.3669C22.8227 47.4462 22.6681 47.6134 22.5996 47.8152C22.5558 47.9377 22.5441 48.0752 22.5728 48.2104C22.6647 48.6358 22.8217 48.8789 23.1066 49.0587C23.1353 49.0767 23.1659 49.0903 23.197 49.102C23.25 49.1234 23.3045 49.1394 23.3599 49.1424C23.4562 49.1511 23.5549 49.1356 23.6477 49.0986C26.9643 47.716 34.5546 47.8312 37.0856 47.6649C40.1182 47.4675 44.6769 44.4169 47.3863 42.2905C49.7952 40.3998 48.7534 40.848 50.5201 36.4483C50.5915 36.2704 50.6703 36.0832 50.7524 35.8844C50.9192 35.4818 51.1088 35.0433 51.3251 34.5635C52.7083 31.4764 53.9431 30.4321 54.8503 30.1759C54.8736 30.1672 54.8974 30.1613 54.9207 30.1555C54.1405 27.9396 53.4229 26.9741 52.5293 26.3255L52.5298 26.326ZM32.2085 43.8486C32.2114 43.8073 32.2172 43.7713 32.2235 43.7353C32.277 43.3994 32.4335 43.063 32.6387 42.7421C32.6771 42.6828 32.7155 42.623 32.7564 42.5632C32.8045 42.4942 32.8526 42.428 32.9037 42.3614C32.9382 42.3133 32.9727 42.2681 33.0101 42.2224C33.0262 42.201 33.0403 42.183 33.0563 42.1616C33.4948 41.6113 33.9717 41.1271 34.1565 40.779C34.5201 40.0974 35.736 40.3876 36.7462 39.8028C37.6476 39.2782 38.8829 38.5684 39.7769 37.8844C39.8858 37.8023 39.9889 37.7177 40.0866 37.637C40.1304 37.5986 40.1946 37.5684 40.2733 37.5495C40.5621 37.4707 41.0546 37.495 41.6676 37.5849C41.97 37.6321 42.302 37.6938 42.6487 37.7677C42.6686 37.7731 42.6881 37.7789 42.7075 37.7818C43.1757 37.8883 43.5772 38.0881 43.9088 38.354C43.9477 38.3818 43.9812 38.4095 44.0124 38.4382C44.0989 38.5164 44.183 38.5976 44.2627 38.6851C44.288 38.7119 44.3133 38.7381 44.3337 38.7683C44.3658 38.8047 44.3954 38.8446 44.4246 38.881C44.4572 38.9204 44.4839 38.9603 44.5082 39.0006C44.5408 39.04 44.5651 39.0828 44.587 39.1236C44.6142 39.1635 44.639 39.2063 44.6604 39.2471C44.6876 39.2899 44.71 39.3332 44.7265 39.3769C44.7664 39.4532 44.8009 39.5276 44.8306 39.6078C44.8437 39.6467 44.8597 39.6856 44.8728 39.7216C44.8855 39.7552 44.8981 39.7892 44.9059 39.8261C44.9322 39.9015 44.9506 39.9778 44.9662 40.0546C44.9808 40.1018 44.9895 40.1494 44.9958 40.1976C45.0644 40.5719 45.0639 40.9579 44.9886 41.3322C44.9735 41.4241 44.9506 41.517 44.9244 41.6074C44.885 41.743 44.8349 41.8777 44.7761 42.0075C44.6852 42.2044 44.5719 42.396 44.4353 42.5749C44.3425 42.6935 44.2399 42.8048 44.129 42.9118C43.9598 43.0727 43.7644 43.2185 43.5476 43.3449C41.389 44.6012 39.0584 45.644 37.7681 46.1467C36.9329 46.4719 35.8682 46.6644 34.6679 46.7772C34.614 46.7816 34.5605 46.786 34.506 46.785C34.436 46.7889 34.384 46.7874 34.332 46.7835C34.2771 46.7801 34.2221 46.7762 34.1672 46.7699C34.0043 46.7505 33.8497 46.714 33.701 46.6576C33.6042 46.627 33.5123 46.5876 33.4214 46.5395C32.5429 46.0874 32.0013 45.0742 32.1871 43.9949C32.1973 43.9473 32.2041 43.8977 32.206 43.851C32.2085 43.851 32.2085 43.8481 32.2085 43.8481V43.8486Z" fill="url(#paint2_linear_905_6441)"/>
<path d="M35.0652 47.0422C36.2674 46.9294 37.3302 46.7364 38.1664 46.4116C39.4571 45.9099 41.7882 44.8671 43.9468 43.6089C46.0514 42.3823 45.8433 39.4265 43.9103 38.354C45.4641 39.586 45.4991 42.2078 43.5491 43.3444C41.3906 44.6026 39.0594 45.6454 37.7687 46.1471C36.933 46.4724 35.8698 46.6649 34.668 46.7777C34.2086 46.8209 33.7822 46.7257 33.4137 46.5341C33.8542 46.8982 34.4293 47.1024 35.0657 47.0426L35.0652 47.0422Z" fill="#FCFE02"/>
<path d="M51.5668 25.9094C51.576 25.9599 51.5823 26.0081 51.5891 26.0562C52.0797 29.6377 51.539 32.3519 50.7806 34.5105C50.5239 35.2431 50.2405 35.9145 49.9663 36.5324C49.941 36.5873 49.9182 36.6423 49.8929 36.6972C49.8443 36.8042 49.7928 36.9063 49.7325 37.004C49.0942 38.0755 47.8496 38.6564 46.5992 38.4328C45.3765 38.214 43.9239 37.9632 42.709 37.7813C42.6895 37.7784 42.6696 37.7731 42.6501 37.7672C42.303 37.6934 41.9715 37.6316 41.6715 37.584C41.056 37.494 40.5636 37.4697 40.2748 37.5485C39.846 37.5942 39.4187 37.776 38.9972 38.022C37.8051 38.7099 36.6374 39.8952 35.4963 39.9209C34.6072 39.9409 33.7447 40.9846 33.0573 42.1607C33.0412 42.182 33.0271 42.2 33.0111 42.2214C32.9737 42.2671 32.9387 42.3123 32.9046 42.3605C32.8536 42.4271 32.8055 42.4932 32.7573 42.5622C32.7165 42.622 32.6781 42.6813 32.6397 42.7411C32.4345 43.062 32.278 43.3979 32.2245 43.7343C32.2182 43.7703 32.2128 43.8092 32.2094 43.8452C32.0407 44.2346 31.9017 44.5793 31.7986 44.851C31.469 45.7295 30.4106 46.4622 29.6391 46.8987C29.3027 47.0903 28.9186 47.187 28.5297 47.1841C27.7378 47.1802 26.9463 47.1763 26.1694 47.1841C24.9905 47.1933 24.1003 47.3708 23.4275 47.6285C23.2933 47.6815 23.1825 47.7699 23.1018 47.8808C22.9792 48.0436 22.9263 48.26 22.9705 48.4719C22.9724 48.4856 22.9768 48.4982 22.9783 48.5089C23.0415 48.7807 23.1319 48.9727 23.269 49.1229C23.2126 49.1088 23.1586 49.0884 23.1081 49.0573C22.8232 48.8774 22.6662 48.6343 22.5743 48.2089C22.5456 48.0743 22.5573 47.9367 22.601 47.8137C22.6696 47.6114 22.8242 47.4442 23.0313 47.3655C23.7036 47.1054 24.5943 46.9303 25.7727 46.9182C26.5491 46.9104 27.3411 46.9143 28.133 46.9182C28.5224 46.9211 28.904 46.8268 29.2429 46.6352C30.0139 46.1962 31.0728 45.4631 31.4 44.5875C31.9367 43.1568 33.471 39.691 35.0972 39.655C35.9922 39.637 36.9038 38.9019 37.8289 38.2519C38.5854 37.722 39.3521 37.248 40.1294 37.2675C40.566 37.2777 41.3341 37.3715 42.2408 37.5047C43.4722 37.687 44.955 37.9423 46.203 38.1659C47.5039 38.4017 48.7981 37.7624 49.4063 36.6078C49.4393 36.5489 49.467 36.4911 49.4943 36.4303C49.9187 35.4877 50.365 34.4225 50.7189 33.193C51.3008 31.1609 51.6246 28.6766 51.1564 25.5302C51.2585 25.5817 51.3572 25.6313 51.454 25.6814C51.8424 25.8826 52.1919 26.0786 52.5196 26.3153C52.2211 26.1345 51.9003 25.9706 51.5536 25.7961C51.5585 25.8335 51.5663 25.8705 51.5687 25.9084L51.5668 25.9094Z" fill="#FCFE02"/>
<path d="M40.4187 20.4241C39.9335 20.3526 39.6953 20.3103 39.0764 20.2563C38.633 20.2174 38.4502 20.4912 38.2101 20.7435C38.072 20.8883 37.9675 21.0629 37.9164 21.2564C37.7472 21.9005 37.7677 22.5578 38.2582 23.0216C39.5796 24.2739 38.4303 24.834 36.7453 26.4845C35.0603 28.135 28.9245 27.996 26.7824 27.7354C26.0994 27.6527 25.868 27.2113 25.868 26.6478C25.8976 26.5103 25.9093 26.398 25.8879 26.3391C25.7873 26.0615 24.7605 26.7115 24.639 27.2035C24.5383 27.6153 24.6618 28.0387 24.9487 28.3358C28.099 31.6013 35.737 28.6411 39.0069 27.1364C41.9005 25.8053 41.8217 22.4368 41.7002 21.2748C41.7576 21.2097 41.7916 21.1377 41.7935 21.0575C41.8096 20.4095 40.9034 20.4955 40.4182 20.4241H40.4187Z" fill="url(#paint3_linear_905_6441)"/>
<path d="M24.7382 26.9925C24.8378 27.4286 25.1266 27.7475 25.7265 27.8205C28.1447 28.1141 35.0724 28.2716 36.9743 26.4082C38.8766 24.5447 40.1741 23.9123 38.6821 22.4985C38.1765 22.0206 38.1153 21.3609 38.2533 20.6963C38.2387 20.7119 38.2246 20.7274 38.2101 20.743C38.072 20.8879 37.9675 21.0624 37.9164 21.2559C37.7472 21.9 37.7677 22.5573 38.2582 23.0211C39.5796 24.2735 38.4303 24.8335 36.7453 26.484C35.0602 28.1345 28.9245 27.9955 26.7824 27.7349C26.0994 27.6523 25.868 27.2108 25.868 26.6474C25.8976 26.5098 25.9093 26.3975 25.8879 26.3387C25.8014 26.0995 25.0284 26.5487 24.7377 26.9925H24.7382Z" fill="#FCFE02"/>
<path d="M46.8549 23.3872C46.8262 23.0673 46.8374 22.8456 46.8695 22.6973C46.4135 22.1893 46.1485 22.2627 45.8267 22.2126C45.8072 22.2097 45.7888 22.2126 45.7732 22.2199C45.71 22.2365 45.6706 22.3069 45.693 22.3745C46.7445 25.4898 45.8524 27.6882 45.3099 29.1739C45.2399 29.3655 45.1174 29.5662 44.9487 29.7709C44.673 30.1117 44.2481 30.2931 43.8101 30.2697C42.5748 30.2021 40.5835 30.0714 39.8319 29.8993C38.7098 29.6401 35.1429 29.908 34.5712 31.7515C33.9994 33.5946 30.4281 33.3194 29.1855 33.6879C28.8452 33.7876 28.7353 34.0058 28.7538 34.2669C28.8297 35.3962 27.973 36.3608 26.8456 36.265C26.2025 36.2115 25.4591 36.1007 24.5879 35.9276C22.5441 35.5241 22.3477 33.2387 22.5791 31.2693C22.5976 31.1827 22.6209 31.0515 22.6224 30.9401C22.6326 30.8735 22.6404 30.8074 22.6506 30.7432C22.6375 30.7666 22.6273 30.7923 22.6141 30.8162C22.6005 30.753 22.5679 30.7136 22.5077 30.7325C22.2767 30.7957 21.002 32.7102 20.6326 33.7788C20.2655 34.8469 19.2849 40.7085 20.8956 42.975C21.5144 39.5976 24.3667 38.0157 25.4766 37.5096C25.9356 37.2991 26.535 37.2252 27.1723 37.1955C27.4422 37.1814 27.7164 37.178 27.9935 37.1766C29.1583 37.1639 30.3265 37.1775 30.9454 36.7176C32.0597 35.8902 32.2775 35.9976 40.1702 34.001C48.063 32.0043 47.2317 25.7246 46.9259 23.9297C46.8904 23.7222 46.8666 23.5432 46.8539 23.3872H46.8549ZM29.7174 34.4006C29.7752 34.14 30.1967 34.0355 30.4053 33.9699C31.2575 33.7127 32.1666 33.6767 33.0373 33.5182C34.3646 33.2747 35.9324 32.7948 36.2854 31.8648C36.6378 30.9343 38.4065 30.4282 39.2169 30.3893C39.2222 30.3888 39.23 30.3874 39.2358 30.3893C40.7517 30.3383 41.2121 32.439 39.8202 33.0364C39.0662 33.3592 38.3525 33.6169 37.7618 33.7769C36.5231 34.1147 35.2333 34.1877 33.9644 34.3583C33.0349 34.4842 32.12 34.7195 31.2376 35.0375C30.8613 35.1741 30.5254 35.4283 30.1413 35.1989C29.8817 35.0457 29.6479 34.7176 29.7174 34.4011V34.4006Z" fill="url(#paint4_linear_905_6441)"/>
<path d="M30.2341 35.6486C30.6265 35.8848 30.9692 35.6243 31.3552 35.4838C32.2566 35.1556 33.1905 34.9145 34.1409 34.7861C35.437 34.6106 36.7555 34.5377 38.0219 34.1911C38.6257 34.0258 39.3554 33.7603 40.1236 33.4293C41.2281 32.9528 41.1873 31.543 40.3919 30.9562C40.8455 31.6105 40.7322 32.6451 39.8192 33.036C39.0676 33.3578 38.353 33.6155 37.7623 33.7764C36.5226 34.1138 35.2328 34.1862 33.9649 34.3578C33.0349 34.4837 32.1209 34.7181 31.239 35.037C30.8613 35.1736 30.5254 35.4264 30.1418 35.1979C30.0071 35.1177 29.8797 34.9903 29.7976 34.8425C29.7392 35.1624 29.9736 35.4915 30.2341 35.6486Z" fill="#FCFE02"/>
<path d="M22.4226 31.0242C22.4853 31.0067 22.5179 31.0466 22.5325 31.1132C22.5456 31.0879 22.5573 31.0622 22.5704 31.0369C22.5602 31.1035 22.5514 31.172 22.5422 31.2396C22.5398 31.3548 22.5169 31.4895 22.4984 31.5804C22.2646 33.6125 22.4693 35.9728 24.5583 36.3943C25.448 36.5737 26.2098 36.6885 26.867 36.7463C28.0197 36.8474 28.8933 35.8528 28.8136 34.686C28.7951 34.4147 28.9084 34.1906 29.255 34.087C29.6328 33.9742 30.222 33.9208 30.8778 33.8508C31.4627 33.7244 32.0655 33.6675 32.6577 33.5795C33.6436 33.3481 34.5002 32.9353 34.7574 32.0943C35.3393 30.1914 38.985 29.9192 40.1323 30.189C40.9 30.3694 42.936 30.5075 44.1995 30.5789C44.6458 30.6042 45.0814 30.4156 45.3629 30.0655C45.5335 29.8531 45.6595 29.646 45.7304 29.4481C46.2822 27.9148 47.1904 25.6449 46.114 22.4265C46.0882 22.3502 46.1373 22.2753 46.2088 22.2617C46.08 22.2345 45.958 22.2326 45.8277 22.2117C45.7363 22.1966 45.6653 22.288 45.6949 22.376C46.7436 25.4903 45.8525 27.6887 45.3104 29.1744C45.2404 29.366 45.1169 29.5667 44.9497 29.7724C44.674 30.1117 44.2477 30.295 43.8106 30.2712C42.5743 30.2036 40.583 30.0728 39.8324 29.8993C38.7103 29.6401 35.1434 29.908 34.5717 31.7515C33.9999 33.5946 30.4286 33.3194 29.186 33.6879C28.8467 33.7885 28.7358 34.0058 28.7533 34.2684C28.8297 35.3977 27.974 36.3618 26.8466 36.2655C26.2034 36.2106 25.4586 36.1007 24.5884 35.9281C22.5456 35.5231 22.3487 33.2377 22.5801 31.2702C22.5981 31.1822 22.6209 31.0515 22.6234 30.9401C22.6326 30.8745 22.6414 30.8079 22.6516 30.7437C22.6389 30.768 22.6273 30.7933 22.6146 30.8176C22.6005 30.753 22.5689 30.7141 22.5077 30.7316C22.2782 30.7957 21.002 32.7097 20.634 33.7778C20.6078 33.8532 20.5786 33.9553 20.5475 34.0758C20.9593 32.9591 22.196 31.0884 22.4241 31.0238L22.4226 31.0242Z" fill="#FCFE02"/>
<path style="mix-blend-mode:color-burn" opacity="0.35" d="M57.2105 36.9111C57.23 37.0579 57.2465 37.2028 57.263 37.3472C57.3063 37.7356 57.336 38.1231 57.3515 38.5077C57.3569 38.567 57.3593 38.6292 57.3617 38.6885C57.4142 40.1932 57.283 41.6682 56.9869 43.0887C56.9339 43.3459 56.8751 43.6011 56.8104 43.8515C55.0136 50.9411 49.0591 56.5694 41.3686 57.5874C41.2082 57.6088 41.0477 57.6273 40.8863 57.6428C40.7979 57.652 40.7094 57.6608 40.6204 57.6671C40.6102 57.671 40.6019 57.6725 40.5912 57.671C37.6252 57.9413 34.7481 57.4848 32.1438 56.443C31.9692 56.3764 31.7967 56.3069 31.6265 56.2315C30.0256 55.5382 28.536 54.6175 27.2044 53.5134C27.1645 53.4808 27.1252 53.4478 27.0848 53.4123C26.92 53.2766 26.763 53.1366 26.6055 52.9971C26.5034 52.9047 26.4013 52.8094 26.3016 52.7137C26.0002 52.4273 25.7104 52.1283 25.4309 51.8255C25.4737 51.8415 25.5145 51.8605 25.5573 51.8765C28.3882 53.0083 31.5409 53.4497 34.7821 53.0209C42.4727 52.0029 48.4271 46.3747 50.224 39.285C50.2886 39.0347 50.3474 38.7794 50.4004 38.5222C50.4704 38.1868 50.5317 37.8494 50.5789 37.5091C50.6372 37.1479 50.6785 36.7837 50.7116 36.4177C50.7291 36.2412 50.7407 36.0633 50.7524 35.8848C50.7792 35.4298 50.7894 34.9718 50.7801 34.511C50.7811 34.4784 50.7821 34.4429 50.7772 34.4079C50.7787 34.315 50.7772 34.2202 50.7723 34.1259C50.7612 33.8148 50.7417 33.5046 50.7169 33.1954C50.7043 33.0583 50.6912 32.9188 50.6756 32.7822C50.6591 32.6373 50.6425 32.4929 50.6231 32.3461C50.3212 30.0641 49.6148 27.9333 48.5788 26.0231C48.502 25.8754 48.4208 25.7339 48.3391 25.59C48.1306 25.2258 47.9094 24.8695 47.6755 24.5195C47.4485 24.1796 47.2088 23.85 46.9623 23.5262C46.9589 23.5214 46.9526 23.5141 46.9492 23.5087C46.9166 23.4694 46.887 23.4271 46.8544 23.3882C46.7499 23.255 46.6424 23.1227 46.5331 22.9929C46.3294 22.7479 46.1184 22.5097 45.9025 22.2744C46.0838 22.3507 46.2647 22.4222 46.4436 22.5019C46.5851 22.5646 46.727 22.6303 46.8695 22.6983C47.1048 22.8111 47.3376 22.9273 47.5691 23.0517C48.8583 23.7324 50.0621 24.5681 51.155 25.5326C51.2935 25.6556 51.4325 25.7815 51.5667 25.9104C52.2775 26.5774 52.9362 27.3008 53.5361 28.0747C53.5396 28.0796 53.5459 28.0869 53.5493 28.0922C53.8799 28.523 54.1866 28.9712 54.4778 29.4311C54.4696 29.417 54.4618 29.399 54.4511 29.3815C54.5328 29.5065 54.6154 29.6372 54.6922 29.7656C54.7744 29.8934 54.8517 30.0247 54.9261 30.156C55.0077 30.3004 55.0889 30.4418 55.1657 30.5891C55.8425 31.84 56.3792 33.1828 56.7521 34.6043C56.9519 35.353 57.1055 36.1235 57.21 36.9121L57.2105 36.9111Z" fill="url(#paint5_linear_905_6441)"/>
<g style="mix-blend-mode:overlay" opacity="0.5">
<path d="M56.7526 34.6038C56.6272 34.6831 56.493 34.7579 56.3578 34.8275C54.965 35.5611 53.1356 36.0181 51.0388 36.3637C50.9328 36.3832 50.8234 36.4002 50.7116 36.4177C50.6479 36.4289 50.5842 36.44 50.52 36.4483C50.3392 36.4775 50.1525 36.5052 49.9658 36.5324L49.942 36.5358C49.766 36.5621 49.5871 36.5854 49.4053 36.6097C47.1865 36.917 44.7416 37.1591 42.2398 37.5067C42.0502 37.532 41.8606 37.5597 41.671 37.5849C41.039 37.6768 40.4104 37.7765 39.7774 37.8844C39.5168 37.9296 39.2563 37.9753 38.9962 38.023C38.6063 38.0964 38.2164 38.1722 37.8275 38.2539C36.4438 38.5432 35.0709 38.8961 33.7403 39.339C26.0804 41.8811 26.3746 46.1165 21.3414 44.7407C21.2631 44.4767 21.1873 44.2118 21.1187 43.941C21.0356 43.623 20.9607 43.3012 20.8956 42.9755C19.2849 40.709 20.2655 34.8474 20.6326 33.7793C21.002 32.7107 22.2767 30.7962 22.5077 30.733C22.5679 30.7141 22.6 30.7535 22.6141 30.8167C22.6273 30.7933 22.6375 30.7676 22.6506 30.7437C23.0945 29.9075 23.5957 29.1122 24.1591 28.3577C24.2787 28.1924 24.4037 28.029 24.532 27.8676C24.5743 27.8156 24.6137 27.7646 24.656 27.7155C25.0391 27.2405 25.4445 26.7898 25.8738 26.3581C28.6439 23.5603 32.328 21.6263 36.5338 21.0697C37.0282 21.0041 37.5197 20.9584 38.0088 20.9341C38.0628 20.9321 38.1143 20.9282 38.1687 20.9292C39.352 20.8733 40.5217 20.936 41.6642 21.1052C41.8723 21.1348 42.0779 21.1698 42.2816 21.2083C43.4294 21.4178 44.5461 21.7377 45.6157 22.1563C45.6701 22.1762 45.7217 22.1966 45.7737 22.2195C45.7893 22.2122 45.8077 22.2097 45.8272 22.2122C46.149 22.2618 46.414 22.1888 46.87 22.6969C47.1053 22.8097 47.3381 22.9258 47.5696 23.0503C48.8588 23.7309 50.0626 24.5666 51.1555 25.5312C51.2575 25.5827 51.3562 25.6323 51.453 25.6824C51.8414 25.8836 52.191 26.0795 52.5186 26.3163C53.4244 26.9741 54.1419 27.9396 54.9275 30.155C55.0092 30.2994 55.0904 30.4409 55.1672 30.5882C55.844 31.8391 56.3807 33.1818 56.7536 34.6033L56.7526 34.6038Z" fill="#FFF7F5"/>
</g>
<path style="mix-blend-mode:color-dodge" opacity="0.5" d="M48.099 42.1937C50.2425 40.0503 50.2425 36.575 48.099 34.4315C45.9555 32.288 42.4803 32.288 40.3368 34.4315C38.1933 36.575 38.1933 40.0503 40.3368 42.1937C42.4803 44.3372 45.9555 44.3372 48.099 42.1937Z" fill="url(#paint6_radial_905_6441)"/>
<path style="mix-blend-mode:color-dodge" opacity="0.5" d="M33.3067 53.3223C33.5099 54.8581 32.4296 56.268 30.8943 56.4712C29.3586 56.6744 27.9487 55.5942 27.7455 54.0589C27.5423 52.5231 28.6225 51.1132 30.1578 50.91C31.6936 50.7068 33.1034 51.7871 33.3067 53.3223Z" fill="url(#paint7_radial_905_6441)"/>
</g>
<defs>
<filter id="filter0_d_905_6441" x="0" y="0.252625" width="78" height="77.4947" filterUnits="userSpaceOnUse" color-interpolation-filters="sRGB">
<feFlood flood-opacity="0" result="BackgroundImageFix"/>
<feColorMatrix in="SourceAlpha" type="matrix" values="0 0 0 0 0 0 0 0 0 0 0 0 0 0 0 0 0 0 127 0" result="hardAlpha"/>
<feOffset/>
<feGaussianBlur stdDeviation="10"/>
<feComposite in2="hardAlpha" operator="out"/>
<feColorMatrix type="matrix" values="0 0 0 0 0.894118 0 0 0 0 0.152941 0 0 0 0 0.52549 0 0 0 0.4 0"/>
<feBlend mode="normal" in2="BackgroundImageFix" result="effect1_dropShadow_905_6441"/>
<feBlend mode="normal" in="SourceGraphic" in2="effect1_dropShadow_905_6441" result="shape"/>
</filter>
<linearGradient id="paint0_linear_905_6441" x1="19.719" y1="35.9751" x2="56.0185" y2="42.3019" gradientUnits="userSpaceOnUse">
<stop stop-color="#FF5F06"/>
<stop offset="0.02" stop-color="#FC5C09"/>
<stop offset="0.34" stop-color="#DE343C"/>
<stop offset="0.62" stop-color="#C81761"/>
<stop offset="0.85" stop-color="#BA0677"/>
<stop offset="0.99" stop-color="#B60080"/>
</linearGradient>
<linearGradient id="paint1_linear_905_6441" x1="26.0561" y1="49.2219" x2="58.6732" y2="44.9046" gradientUnits="userSpaceOnUse">
<stop stop-color="#FFBB2F"/>
<stop offset="0.1" stop-color="#FFC625"/>
<stop offset="0.33" stop-color="#FFDC12"/>
<stop offset="0.48" stop-color="#FFE50C"/>
<stop offset="0.55" stop-color="#FFBF0C"/>
<stop offset="0.64" stop-color="#FF9B0C"/>
<stop offset="0.73" stop-color="#FF7F0C"/>
<stop offset="0.81" stop-color="#FF6B0C"/>
<stop offset="0.9" stop-color="#FF5F0C"/>
<stop offset="0.98" stop-color="#FF5C0C"/>
</linearGradient>
<linearGradient id="paint2_linear_905_6441" x1="21.4314" y1="39.6059" x2="55.5716" y2="35.087" gradientUnits="userSpaceOnUse">
<stop stop-color="#FFBB2F"/>
<stop offset="0.1" stop-color="#FFC625"/>
<stop offset="0.33" stop-color="#FFDC12"/>
<stop offset="0.48" stop-color="#FFE50C"/>
<stop offset="0.55" stop-color="#FFBF0C"/>
<stop offset="0.64" stop-color="#FF9B0C"/>
<stop offset="0.73" stop-color="#FF7F0C"/>
<stop offset="0.81" stop-color="#FF6B0C"/>
<stop offset="0.9" stop-color="#FF5F0C"/>
<stop offset="0.98" stop-color="#FF5C0C"/>
</linearGradient>
<linearGradient id="paint3_linear_905_6441" x1="24.4437" y1="26.3587" x2="42.1907" y2="24.0097" gradientUnits="userSpaceOnUse">
<stop stop-color="#FFBB2F"/>
<stop offset="0.1" stop-color="#FFC625"/>
<stop offset="0.33" stop-color="#FFDC12"/>
<stop offset="0.48" stop-color="#FFE50C"/>
<stop offset="0.52" stop-color="#FFDE11"/>
<stop offset="0.68" stop-color="#FFCA21"/>
<stop offset="0.84" stop-color="#FFBE2B"/>
<stop offset="1" stop-color="#FFBB2F"/>
</linearGradient>
<linearGradient id="paint4_linear_905_6441" x1="19.291" y1="34.4536" x2="47.922" y2="30.6639" gradientUnits="userSpaceOnUse">
<stop stop-color="#FFBB2F"/>
<stop offset="0.1" stop-color="#FFC625"/>
<stop offset="0.33" stop-color="#FFDC12"/>
<stop offset="0.48" stop-color="#FFE50C"/>
<stop offset="0.55" stop-color="#FFBF0C"/>
<stop offset="0.64" stop-color="#FF9B0C"/>
<stop offset="0.73" stop-color="#FF7F0C"/>
<stop offset="0.81" stop-color="#FF6B0C"/>
<stop offset="0.9" stop-color="#FF5F0C"/>
<stop offset="0.98" stop-color="#FF5C0C"/>
</linearGradient>
<linearGradient id="paint5_linear_905_6441" x1="41.4" y1="57.7458" x2="41.4007" y2="22.2728" gradientUnits="userSpaceOnUse">
<stop stop-color="#1C0067"/>
<stop offset="0.1" stop-color="#1C007F"/>
<stop offset="0.29" stop-color="#1C00A4"/>
<stop offset="0.47" stop-color="#1C00C2"/>
<stop offset="0.65" stop-color="#1C00D7"/>
<stop offset="0.83" stop-color="#1C00E3"/>
<stop offset="1" stop-color="#1C00E8"/>
</linearGradient>
<radialGradient id="paint6_radial_905_6441" cx="0" cy="0" r="1" gradientUnits="userSpaceOnUse" gradientTransform="translate(44.2162 38.3116) rotate(-7.54) scale(5.48823)">
<stop stop-color="white"/>
<stop offset="0.12" stop-color="#E7E7E7"/>
<stop offset="0.37" stop-color="#ACACAC"/>
<stop offset="0.72" stop-color="#4D4D4D"/>
<stop offset="1"/>
</radialGradient>
<radialGradient id="paint7_radial_905_6441" cx="0" cy="0" r="1" gradientUnits="userSpaceOnUse" gradientTransform="translate(30.5254 53.6888) rotate(-7.54) scale(2.80464)">
<stop stop-color="white"/>
<stop offset="0.12" stop-color="#E7E7E7"/>
<stop offset="0.37" stop-color="#ACACAC"/>
<stop offset="0.72" stop-color="#4D4D4D"/>
<stop offset="1"/>
</radialGradient>
</defs>
</svg>
