<svg width="78" height="78" viewBox="0 0 78 78" fill="none" xmlns="http://www.w3.org/2000/svg">
<g filter="url(#filter0_d_905_6241)">
<path fill-rule="evenodd" clip-rule="evenodd" d="M57.9371 38.5144C57.9371 40.2718 57.6899 41.9744 57.2228 43.5811C56.2961 46.8133 54.5002 49.6754 52.1019 51.9074C50.3875 53.506 48.3635 54.777 46.1353 55.6227C44.1157 56.3912 41.9298 56.8084 39.6394 56.8084C39.315 56.8084 38.9868 56.8009 38.6661 56.7816H38.6623C38.1834 56.7585 37.7083 56.7119 37.2412 56.6539C33.7077 56.1906 30.4986 54.7228 27.8955 52.5369C26.9184 51.7223 26.0303 50.8032 25.2463 49.7987C24.6516 49.0458 24.1147 48.2462 23.6434 47.4005C23.5313 47.1999 23.4235 46.9951 23.3152 46.7902C23.3152 46.7827 23.3114 46.7784 23.3076 46.7709C23.1956 46.551 23.0915 46.3306 22.9912 46.1065H22.9875C22.6711 45.4077 22.3928 44.6853 22.1686 43.9437C21.9986 43.4106 21.8559 42.8625 21.7401 42.3064C21.7364 42.3026 21.7364 42.2946 21.7364 42.2908C21.6554 41.901 21.5857 41.5068 21.5315 41.1089C21.4082 40.2594 21.3459 39.3944 21.3459 38.5139C21.3459 38.0081 21.3653 37.5019 21.4114 37.0075C21.4344 36.6905 21.4693 36.3779 21.5117 36.0652C21.7471 34.2655 22.249 32.551 22.9752 30.9561C23.3307 30.1721 23.7399 29.4191 24.1995 28.6968C24.9642 27.4918 25.8678 26.3876 26.8873 25.3949C30.1816 22.1901 34.681 20.2166 39.6394 20.2166C39.8325 20.2166 40.0255 20.2204 40.2148 20.2242C40.4197 20.2317 40.624 20.2397 40.8289 20.2553C41.8794 20.325 42.9064 20.4794 43.899 20.7186C44.4782 20.8575 45.0461 21.02 45.6023 21.213C45.9809 21.3407 46.3514 21.4833 46.7182 21.6378C46.9923 21.7536 47.2588 21.8732 47.5253 22.0008C47.5715 22.0239 47.6181 22.0432 47.6642 22.0663C49.4409 22.935 51.0514 24.0784 52.4489 25.4491C52.6495 25.6422 52.8431 25.8433 53.0361 26.0476C53.1638 26.1865 53.2908 26.3297 53.4147 26.4723C53.6271 26.7115 53.832 26.963 54.0325 27.214C54.7624 28.1407 55.4032 29.1371 55.9401 30.1951C56.5696 31.4232 57.0641 32.7323 57.3998 34.1035C57.7511 35.5171 57.9366 36.9924 57.9366 38.5139L57.9371 38.5144Z" fill="url(#paint0_radial_905_6241)"/>
<g style="mix-blend-mode:multiply" opacity="0.4">
<path fill-rule="evenodd" clip-rule="evenodd" d="M25.9462 30.326C25.5987 31.0371 25.3327 31.6173 25.2635 32.3944C25.2131 32.9634 25.1166 33.5179 25.1729 34.0933C25.2319 34.6955 25.4689 35.219 25.6507 35.7874C25.8668 36.4636 26.2175 37.1002 26.727 37.6043C27.6022 38.4709 28.8394 38.4876 29.8771 37.9164C30.4075 37.6247 30.8488 37.2327 31.4092 36.9828C32.1804 36.639 32.9076 36.3151 33.4428 35.6276C34.0262 34.8784 34.245 33.9979 34.3416 33.0626C34.399 32.5032 34.4762 31.9804 34.3523 31.4221C34.2547 30.9829 34.0734 30.5319 33.8504 30.1415C33.6798 29.8433 33.483 29.5419 33.2701 29.2711C32.9607 28.8775 32.6271 28.7423 32.1874 28.5423C31.9171 28.4195 31.7031 28.2795 31.3947 28.2688C31.0553 28.257 30.6692 28.2522 30.3335 28.2924C29.9302 28.3407 29.573 28.4914 29.1933 28.6195C28.8319 28.7413 28.4554 28.8153 28.1025 28.9633C27.7481 29.1118 27.4113 29.2212 27.0407 29.3274C26.5715 29.462 26.1929 29.5913 25.8389 29.942C25.7558 30.0246 25.6169 30.1313 25.5488 30.2251C25.4158 30.4075 25.4587 30.6021 25.9462 30.3276V30.326Z" fill="#B9BFE2"/>
<path fill-rule="evenodd" clip-rule="evenodd" d="M32.5805 38.1309C32.6808 37.7936 32.7494 37.1501 33.0744 36.9034C33.2053 36.8042 33.3962 36.7248 33.5555 36.6873C33.8204 36.6251 34.007 36.7103 34.2381 36.8358C34.8184 37.1511 34.7101 38.0462 34.3883 38.5213C34.1116 38.9305 33.4144 39.2941 32.9693 38.9605C32.6567 38.7262 32.4883 38.2414 32.5966 37.8542C32.6234 37.8488 32.6508 37.8429 32.6776 37.8376L32.58 38.1304L32.5805 38.1309Z" fill="#B9BFE2"/>
<path fill-rule="evenodd" clip-rule="evenodd" d="M43.6053 43.6921C43.572 44.0525 43.468 44.607 43.5254 45.0044C43.5806 45.3841 43.6519 45.7611 43.7474 46.1327C43.9163 46.7902 44.1582 47.5554 44.8698 47.8059C45.5021 48.0284 46.2582 47.8134 46.854 47.5726C47.4906 47.3147 48.2044 47.1103 48.7787 46.7269C49.352 46.3435 49.913 45.863 50.3414 45.3267C50.8112 44.7389 51.008 44.2155 51.0257 43.4465C51.0504 42.36 50.6031 41.4044 50.047 40.4948C49.4319 39.4898 48.2961 39.1965 47.209 39.5885C46.299 39.9167 45.8297 40.897 45.1648 41.5486C44.9567 41.7529 44.8033 41.983 44.5818 42.1557C44.3282 42.353 44.2316 42.5584 44.0729 42.8196C43.9458 43.0282 43.7753 43.1569 43.6777 43.395C43.5543 43.6959 43.6063 44.0541 43.6063 43.6926L43.6053 43.6921Z" fill="#B9BFE2"/>
<path fill-rule="evenodd" clip-rule="evenodd" d="M51.9952 43.1065C52.0564 43.0191 52.4838 42.0795 52.871 42.1219C53.0571 42.1423 53.2035 42.3487 53.2925 42.4994C53.4367 42.7429 53.551 42.9692 53.3622 43.2459C53.1198 43.5999 52.1352 43.8621 52.0741 43.2234C52.0478 43.217 52.0215 43.2105 51.9952 43.2046V43.107V43.1065Z" fill="#B9BFE2"/>
<path fill-rule="evenodd" clip-rule="evenodd" d="M37.1125 23.5844C37.1737 23.497 37.6011 22.5575 37.9883 22.5998C38.1744 22.6202 38.3208 22.8267 38.4098 22.9774C38.5541 23.2208 38.6683 23.4472 38.4795 23.7239C38.2371 24.0778 37.2525 24.3401 37.1914 23.7014C37.1651 23.6949 37.1388 23.689 37.1125 23.6826V23.585V23.5844Z" fill="#B9BFE2"/>
<path fill-rule="evenodd" clip-rule="evenodd" d="M47.267 37.3737C47.3281 37.2863 47.7555 36.3467 48.1427 36.3891C48.3288 36.4095 48.4752 36.616 48.5642 36.7667C48.7085 37.0101 48.8227 37.2364 48.6339 37.5132C48.3915 37.8671 47.4069 38.1293 47.3458 37.4906C47.3195 37.4842 47.2932 37.4778 47.267 37.4719V37.3743V37.3737Z" fill="#B9BFE2"/>
<path fill-rule="evenodd" clip-rule="evenodd" d="M44.7759 32.8626C44.5565 33.4503 44.2895 33.8128 44.4691 34.3695C44.556 34.6398 44.5951 34.9224 44.6718 35.1948C44.822 35.7263 45.2365 36.0502 45.6087 36.4277C46.1005 36.9265 46.5386 37.0809 47.1982 36.7645C47.4149 36.661 47.6085 36.5151 47.8005 36.3741C48.0949 36.1574 48.2139 36.0132 48.3877 35.6887C48.5411 35.4018 48.5845 35.1342 48.7003 34.8355C48.8248 34.5132 48.9642 34.2574 48.9749 33.8997C48.9851 33.556 49.0103 33.1816 48.9186 32.8513C48.8006 32.4266 48.5748 32.0539 48.3464 31.6844C48.1453 31.3594 47.9072 31.0478 47.6053 30.8043C47.3543 30.6016 47.0336 30.6059 46.7252 30.5405C46.1927 30.4279 45.4215 30.859 45.1379 31.2966C44.7399 31.9107 44.5249 32.6261 44.7764 32.8626H44.7759Z" fill="#B9BFE2"/>
<path fill-rule="evenodd" clip-rule="evenodd" d="M43.5076 36.3746C43.5596 36.7935 43.6942 37.178 43.9119 37.5276C43.9784 37.4708 44.0867 37.4418 44.1731 37.4306C44.1768 37.3083 44.2696 37.2654 44.2927 37.1598C44.3184 37.0434 44.2857 36.8852 44.2873 36.7651C44.29 36.5463 44.2144 36.3725 44.1425 36.1784C44.083 36.0175 44.0009 35.7456 43.7971 35.7826C43.411 35.8528 43.448 36.1709 43.507 36.3746H43.5076Z" fill="#B9BFE2"/>
<path fill-rule="evenodd" clip-rule="evenodd" d="M25.2141 48.0821C25.2409 48.4146 25.2259 48.694 25.4093 48.9744C25.5917 49.2533 25.818 49.5064 26.048 49.7472C26.203 49.9092 26.4889 50.2524 26.7527 50.1049C26.9688 49.9842 27.0412 49.5509 27.0187 49.3327C27.0005 49.1568 26.9361 48.9616 26.8932 48.7883C26.8433 48.5867 26.7597 48.3942 26.6412 48.2236C26.439 47.9335 25.9654 47.3935 25.5563 47.6541C25.4394 47.7287 25.3203 47.7844 25.2576 47.9056C25.198 48.0204 25.2147 48.1427 25.2147 48.0821H25.2141Z" fill="#B9BFE2"/>
<path fill-rule="evenodd" clip-rule="evenodd" d="M34.3984 46.6191C34.333 46.447 34.2874 46.2711 34.2606 46.0903C34.2333 46.0346 34.2429 45.9863 34.2901 45.9461C34.3545 45.7536 34.4172 45.5626 34.5159 45.3841C34.6934 45.0644 34.9036 44.7089 35.2254 44.5148C35.3434 44.4434 35.4662 44.4247 35.5981 44.3925C35.7322 44.3603 35.8646 44.3083 36.0008 44.2847C36.2341 44.2439 36.4953 44.2949 36.7205 44.3544C36.9726 44.4209 37.2831 44.4987 37.511 44.6263C37.7293 44.7486 37.8628 44.9642 37.9963 45.1674C38.2704 45.5857 38.3862 46.1788 38.0038 46.5842C37.8982 46.6963 37.7641 46.7821 37.6375 46.8685C37.5035 46.9602 37.3758 47.0755 37.2321 47.1527C37.06 47.2444 36.8315 47.2632 36.6422 47.3018C36.2765 47.3769 35.8893 47.3704 35.5294 47.2659C35.1492 47.1554 34.8736 46.8921 34.3979 46.618L34.3984 46.6191Z" fill="#B9BFE2"/>
</g>
<path fill-rule="evenodd" clip-rule="evenodd" d="M50.276 32.0104C50.276 32.0104 49.2914 33.7919 49.8159 36.979C50.9828 44.0718 54.8826 42.9885 54.6305 39.6958L50.276 32.0104Z" fill="url(#paint1_linear_905_6241)"/>
<path style="mix-blend-mode:screen" fill-rule="evenodd" clip-rule="evenodd" d="M45.2023 50.047C44.8692 52.7616 41.6741 54.6037 38.0655 54.1613C34.4569 53.7189 31.8012 51.1598 32.1343 48.4451C32.4673 45.7305 35.6624 43.8884 39.271 44.3308C42.8796 44.7733 45.5353 47.3324 45.2023 50.047Z" fill="url(#paint2_radial_905_6241)"/>
<path fill-rule="evenodd" clip-rule="evenodd" d="M47.6637 22.0679C47.6036 22.0743 47.543 22.0807 47.483 22.0931C47.2765 22.1311 47.1151 22.1124 46.9118 22.055C46.766 22.0137 46.6608 21.9536 46.5053 21.9279C46.2833 21.893 46.0768 21.7976 45.8548 21.7692C45.6199 21.7375 45.4167 21.6453 45.1947 21.5659C45.0204 21.5026 44.9281 21.5246 44.7597 21.5659C44.5914 21.6104 44.4739 21.5407 44.3248 21.4769C44.1564 21.404 43.9886 21.3911 43.8105 21.3562C43.3472 21.2608 42.8871 21.1117 42.4269 20.9942C42.1411 20.9213 41.8778 20.9213 41.5861 20.9181C41.3576 20.9149 41.1511 20.9814 40.9227 20.9814C40.7704 20.9814 40.6401 20.9562 40.4878 20.9336C40.3322 20.9052 40.1735 20.9369 40.018 20.9149C39.7863 20.88 39.6624 20.8452 39.4275 20.9181C39.2533 20.9749 39.1165 20.969 38.9422 20.9782C38.7486 20.9878 38.5298 21.0382 38.3394 21.0827C37.9968 21.1621 37.6224 21.2254 37.2701 21.2189C37.0545 21.2189 36.737 21.1589 36.5306 21.2318C36.397 21.2795 36.3306 21.4222 36.2388 21.5176C36.0613 21.7016 35.842 21.8668 35.6929 22.0732C35.5438 22.2797 35.3754 22.4921 35.3883 22.7522C35.4012 22.9774 35.5058 23.2407 35.6039 23.4472C35.7053 23.666 35.7401 23.866 35.5149 24.0119C35.2323 24.199 34.9057 24.3706 34.5818 24.4623C34.3662 24.5256 34.1726 24.5637 33.9913 24.4082C33.9248 24.3508 33.8835 24.2398 33.8009 24.1958C33.7151 24.1513 33.6266 24.1958 33.5344 24.2242C33.306 24.2907 33.0839 24.3669 32.8523 24.405C32.7096 24.4269 32.5857 24.5031 32.4463 24.5288C32.2779 24.5605 32.1573 24.4366 31.983 24.4779C31.7384 24.5353 31.4944 24.6366 31.2402 24.6495C31.0595 24.6592 30.831 24.5798 30.6782 24.4875C30.5892 24.4366 30.5672 24.3862 30.4658 24.4146C30.3832 24.4339 30.2594 24.5353 30.2149 24.5986C30.1548 24.6844 30.1323 24.7954 30.0722 24.8844C30.0089 24.9825 29.9483 25.078 29.8915 25.1826C29.7869 25.3858 29.663 25.5762 29.5295 25.7569C29.434 25.884 29.3675 26.0551 29.263 26.1725C29.2088 26.2358 29.0914 26.2803 29.0216 26.328C28.8313 26.4616 28.6312 26.5817 28.4473 26.7249C28.0917 27.0043 27.7555 27.3121 27.3935 27.5819C27.1173 27.7883 26.7301 27.909 26.4159 28.0388C26.2191 28.1181 26.0158 28.1755 25.819 28.2576C25.7557 28.2828 25.6383 28.3117 25.5841 28.3589C25.5144 28.419 25.4763 28.5305 25.4125 28.6126C25.2409 28.8223 25.0602 29.0314 24.9304 29.2727C24.851 29.4122 24.8033 29.5554 24.7529 29.7077C24.6832 29.9141 24.5722 30.1045 24.5019 30.3104C24.3593 30.7421 24.3303 31.1926 24.1721 31.6211C24.0799 31.8721 23.9469 32.1005 23.8326 32.329C23.6358 32.7162 23.6074 33.1763 23.55 33.6048C23.5184 33.8558 23.5307 34.1443 23.5752 34.3888C23.623 34.6521 23.6101 34.9251 23.6069 35.1948C23.6036 35.4807 23.4229 35.7595 23.2417 35.9757C23.0765 36.1757 22.826 36.2518 22.6421 36.4293C22.4866 36.5816 22.2994 36.7565 22.2329 36.9721C22.2045 37.0675 22.2297 37.1753 22.2142 37.2767C22.1729 37.5019 22.116 37.7148 22.0838 37.9433C22.049 38.2259 22.0425 38.4924 22.0425 38.7777C22.0425 38.9203 22.0329 39.0667 22.0393 39.2094C22.0458 39.3456 22.0962 39.4727 22.1058 39.6095C22.1123 39.7049 22.093 39.7998 22.1058 39.8953C22.1246 40.0031 22.1659 40.1141 22.1916 40.2192C22.2549 40.4729 22.3026 40.7206 22.3504 40.9743C22.3949 41.2092 22.4866 41.4408 22.5601 41.6693C22.6614 41.9803 22.7284 42.301 22.7885 42.6244C22.8362 42.8657 22.833 43.1162 22.8679 43.3607C22.8963 43.5575 22.9408 43.7576 22.9505 43.9544C22.9601 44.2525 22.8872 44.5512 22.884 44.8526C22.8807 45.3605 23.084 45.8683 23.2014 46.3569C23.2363 46.4931 23.2712 46.6331 23.3092 46.7693C22.0527 44.2874 21.3448 41.4821 21.3448 38.5117C21.3448 34.8999 22.3922 31.5331 24.1978 28.6957C24.9658 27.4896 25.8673 26.3854 26.8857 25.3949C30.1832 22.1917 34.6804 20.2177 39.6404 20.2177C40.0405 20.2177 40.4341 20.2306 40.8272 20.2558C43.2678 20.4113 45.5781 21.0463 47.6631 22.0679H47.6637Z" fill="url(#paint3_linear_905_6241)"/>
<path style="mix-blend-mode:screen" fill-rule="evenodd" clip-rule="evenodd" d="M49.3916 32.0286C48.7974 33.0583 46.6936 32.9564 44.6933 31.8013C42.693 30.6461 41.5529 28.8753 42.1476 27.8457C42.7418 26.816 44.8456 26.9179 46.8459 28.0731C48.8462 29.2282 49.9864 30.999 49.3916 32.0286Z" fill="url(#paint4_radial_905_6241)"/>
<path fill-rule="evenodd" clip-rule="evenodd" d="M53.4614 44.8848C53.4614 44.8848 51.6349 44.9111 50.1504 46.7709C48.666 48.6307 48.6789 50.2771 48.8923 50.8294C49.1058 51.3818 53.4614 44.8848 53.4614 44.8848Z" fill="url(#paint5_radial_905_6241)"/>
<path style="mix-blend-mode:screen" fill-rule="evenodd" clip-rule="evenodd" d="M51.7271 41.1003C49.6206 41.384 47.6428 39.6132 47.3104 37.1447C46.9779 34.6762 48.4162 32.4453 50.5226 32.1611C52.6291 31.8774 54.6069 33.6482 54.9394 36.1167C55.2719 38.5852 53.8336 40.8161 51.7271 41.0998V41.1003Z" fill="url(#paint6_radial_905_6241)"/>
<path style="mix-blend-mode:screen" fill-rule="evenodd" clip-rule="evenodd" d="M28.7911 52.8029C26.8997 51.2193 25.3321 49.2581 24.2054 47.0364C23.4975 45.6399 22.9645 44.1421 22.6347 42.5713C22.6314 42.5681 22.6314 42.5617 22.6314 42.5552C22.3778 41.3363 22.241 40.0733 22.241 38.7788C22.241 35.1669 23.2884 31.8002 25.094 28.9628C25.862 27.7567 26.7635 26.6525 27.7818 25.662C31.0794 22.4572 35.5761 20.4832 40.5366 20.4832C40.9367 20.4832 41.3298 20.496 41.7234 20.5212C42.9638 20.6006 44.1699 20.806 45.3299 21.1208C43.9002 20.6521 42.3911 20.3561 40.8278 20.2558C40.4342 20.2306 40.0406 20.2177 39.6411 20.2177C34.6805 20.2177 30.1838 22.1917 26.8863 25.3971C25.8673 26.387 24.9664 27.4918 24.1984 28.6978C22.3928 31.5353 21.3455 34.902 21.3455 38.5138C21.3455 39.809 21.4817 41.0719 21.7359 42.2903C21.7359 42.2967 21.7359 42.3032 21.7391 42.3064C22.0689 43.8771 22.6025 45.3755 23.3098 46.7714C24.4366 48.9927 26.0041 50.9544 27.8955 52.538C29.9001 54.2198 32.2667 55.4757 34.8623 56.1766C32.6169 55.4441 30.563 54.29 28.7911 52.8035V52.8029Z" fill="url(#paint7_radial_905_6241)"/>
<path fill-rule="evenodd" clip-rule="evenodd" d="M51.7658 52.2109C51.7658 52.2109 49.6834 52.7166 48.9857 51.1555C48.288 49.5944 50.9447 45.4967 53.0802 44.9604C55.2156 44.4236 55.6291 46.9334 55.6291 46.9334L51.7658 52.2114V52.2109Z" fill="#004A59"/>
<path fill-rule="evenodd" clip-rule="evenodd" d="M39.1547 23.548C39.1547 23.548 40.0106 26.4289 43.0684 28.597C48 32.0941 50.0368 30.8344 50.0368 30.8344L39.1547 23.548Z" fill="url(#paint8_radial_905_6241)"/>
<path fill-rule="evenodd" clip-rule="evenodd" d="M45.8608 55.457C45.8608 55.457 47.9818 54.3436 48.0263 52.8313C48.0703 51.319 44.8247 49.2528 38.4956 48.3416C32.6984 47.5072 28.265 48.7825 27.9728 49.9044C27.68 51.0262 29.1923 53.758 32.2657 55.1239C35.3391 56.4898 44.2863 56.2281 45.8619 55.4564L45.8608 55.457Z" fill="#004A59"/>
<path fill-rule="evenodd" clip-rule="evenodd" d="M35.7246 28.8217C35.7246 28.8217 37.0149 30.8622 39.0173 31.0392C41.0198 31.2162 41.6118 29.6465 41.6118 29.6465C41.6118 29.6465 37.0514 29.6106 35.7246 28.8217Z" fill="url(#paint9_radial_905_6241)"/>
<path fill-rule="evenodd" clip-rule="evenodd" d="M34.8757 27.2054C34.8757 27.2054 35.5729 29.8294 38.2886 30.5228C41.2762 31.2859 42.1519 29.3301 41.7192 28.2597C41.2864 27.1893 37.7561 25.5483 34.8757 27.2054Z" fill="#00777A"/>
<path fill-rule="evenodd" clip-rule="evenodd" d="M29.0217 26.3302C29.0217 26.3302 30.9041 26.6793 33.675 25.0329C36.4459 23.3865 35.8732 21.8683 35.8732 21.8683L29.0217 26.3296V26.3302Z" fill="url(#paint10_radial_905_6241)"/>
<path fill-rule="evenodd" clip-rule="evenodd" d="M28.3643 25.1209C28.3643 25.1209 27.6585 26.0905 29.0217 26.3302C30.385 26.5699 34.9937 24.3084 35.8437 22.5988C36.6942 20.8886 32.2255 19.9292 28.3637 25.1214L28.3643 25.1209Z" fill="#00777A"/>
<path fill-rule="evenodd" clip-rule="evenodd" d="M40.5806 21.5675C40.5806 21.5675 38.768 21.8796 38.6704 22.8213C38.5728 23.763 41.5395 27.5266 44.7684 29.5194C47.9973 31.5122 51.1587 30.8397 51.6467 30.3506C52.1347 29.861 47.4273 22.0577 40.5812 21.568L40.5806 21.5675Z" fill="#006D7A"/>
<path fill-rule="evenodd" clip-rule="evenodd" d="M53.2464 32.3316C53.2464 32.3316 51.5196 30.5222 50.1505 31.2012C49.0243 31.7594 49.5075 37.2884 50.6782 39.3971C51.8489 41.5057 53.3612 41.3153 53.9468 40.8493C54.5324 40.3833 54.6627 34.2027 53.2464 32.3311V32.3316Z" fill="#004A59"/>
<path fill-rule="evenodd" clip-rule="evenodd" d="M53.1295 28.2597C53.1295 28.2597 52.6029 28.0913 52.2506 28.5986C51.8982 29.106 54.3372 32.58 55.3615 32.9897C56.3858 33.3989 56.5912 31.9289 56.5912 31.9289L53.1295 28.2592V28.2597Z" fill="#004A59"/>
<path fill-rule="evenodd" clip-rule="evenodd" d="M40.0437 22.7645C39.2291 24.147 46.5783 32.0013 51.0197 30.5206C51.8976 30.2278 52.3733 24.4623 49.4098 21.7279C46.9467 19.4551 41.6536 20.0327 40.0437 22.7645Z" fill="url(#paint11_radial_905_6241)"/>
<path fill-rule="evenodd" clip-rule="evenodd" d="M51.0198 32.0823C49.6909 32.6384 49.8979 38.5214 51.5566 40.2289C53.2153 41.9364 55.7519 39.4486 55.9959 36.8632C56.2399 34.2778 53.1177 31.2049 51.0203 32.0828L51.0198 32.0823Z" fill="url(#paint12_radial_905_6241)"/>
<path fill-rule="evenodd" clip-rule="evenodd" d="M52.7273 28.9279C52.6479 30.1211 55.2172 32.6942 56.0093 32.4234C56.8014 32.1525 57.557 30.2611 57.0202 28.9279C56.4833 27.5942 52.8249 27.4644 52.7273 28.9279Z" fill="url(#paint13_radial_905_6241)"/>
<path fill-rule="evenodd" clip-rule="evenodd" d="M29.4314 49.3C25.9971 50.1848 31.7014 56.9371 36.5805 57.8246C42.2881 58.8629 47.4803 55.0108 47.5779 52.8871C47.6755 50.7635 35.8704 47.6413 29.4308 49.3H29.4314Z" fill="url(#paint14_radial_905_6241)"/>
<path fill-rule="evenodd" clip-rule="evenodd" d="M49.522 51.0659C48.8913 49.5568 52.5219 44.8119 54.2053 45.3723C55.8886 45.9327 56.9859 49.8561 54.7174 51.466C53.3671 52.4243 50.1805 52.6415 49.522 51.0659Z" fill="url(#paint15_radial_905_6241)"/>
<path fill-rule="evenodd" clip-rule="evenodd" d="M29.0924 25.9548C30.7753 26.3211 34.7566 23.5528 35.4832 22.2325C36.2104 20.9122 32.4898 19.1628 29.9848 20.4504C28.2113 21.3621 27.6 25.6303 29.0924 25.9548Z" fill="url(#paint16_radial_905_6241)"/>
<path fill-rule="evenodd" clip-rule="evenodd" d="M35.5761 25.9875C33.7002 26.8573 35.8217 29.3167 37.9818 30.0283C40.1419 30.74 42.0446 29.4465 41.6784 28.0082C41.3126 26.5693 38.8978 24.4478 35.5761 25.9875Z" fill="url(#paint17_radial_905_6241)"/>
<path fill-rule="evenodd" clip-rule="evenodd" d="M30.8198 48.2108C30.8198 48.2108 38.0579 47.1709 45.1432 50.1457C45.1432 50.1457 38.472 46.0474 30.8198 48.2108Z" fill="url(#paint18_radial_905_6241)"/>
<path fill-rule="evenodd" clip-rule="evenodd" d="M52.2505 28.9526C52.2505 28.9526 52.7288 31.2553 54.6305 32.4432C54.6305 32.4432 52.8307 30.6392 52.2505 28.9526Z" fill="url(#paint19_radial_905_6241)"/>
<path style="mix-blend-mode:screen" fill-rule="evenodd" clip-rule="evenodd" d="M21.3449 38.5133C21.4291 39.4421 21.8892 34.4135 23.5506 33.6069C25.2119 32.8004 30.2664 36.4175 32.597 37.8548C37.9812 41.1748 44.0277 37.4054 45.5239 35.3777C47.0202 33.35 44.7775 30.1774 43.5086 29.4711C42.2398 28.7649 41.6005 31.8855 39.0178 31.5203C36.4351 31.1551 34.4482 28.1868 34.2466 27.2075C34.045 26.2283 36.4839 24.8136 37.5082 24.6672C38.5325 24.5208 39.6614 21.6501 38.9433 20.9792C38.2252 20.3083 37.0449 23.4992 34.2466 25.3981C32.2398 26.7597 29.1176 27.9696 27.4589 25.5134C27.4589 25.5134 20.6472 30.7984 21.3454 38.5133H21.3449Z" fill="url(#paint20_radial_905_6241)"/>
<path style="mix-blend-mode:screen" fill-rule="evenodd" clip-rule="evenodd" d="M40.6294 23.0219C40.55 24.273 43.3 23.6976 45.7696 23.548C48.2391 23.3984 50.1504 23.4075 50.1504 23.4075C50.1504 23.4075 48.2911 21.2297 45.1743 20.8881C42.0575 20.5464 40.6776 22.2545 40.6294 23.0219Z" fill="url(#paint21_linear_905_6241)"/>
<path style="mix-blend-mode:screen" fill-rule="evenodd" clip-rule="evenodd" d="M28.8185 24.5428C29.5677 24.886 29.7511 22.6143 30.7754 21.5675C31.7996 20.5207 33.0191 20.3212 33.0191 20.3212C33.0191 20.3212 30.9218 20.2799 29.6047 20.8881C28.2876 21.4962 28.1814 24.2505 28.8185 24.5428Z" fill="url(#paint22_linear_905_6241)"/>
<path style="mix-blend-mode:screen" fill-rule="evenodd" clip-rule="evenodd" d="M35.3363 26.4996C35.3363 26.4996 36.5558 25.5451 38.1657 25.6185C39.7756 25.6915 40.9452 26.7688 40.9452 26.7688C40.9452 26.7688 39.7268 26.3994 38.873 26.6675C38.0193 26.9356 36.7022 28.3568 35.3363 26.5002V26.4996Z" fill="url(#paint23_linear_905_6241)"/>
<path style="mix-blend-mode:screen" fill-rule="evenodd" clip-rule="evenodd" d="M50.8733 32.4432C50.8733 32.4432 52.5808 31.8007 54.1661 33.283C55.7513 34.7653 55.8736 36.1 55.8736 36.1C55.8736 36.1 54.8493 34.5432 53.8245 34.3979C52.8002 34.2526 51.5442 35.0087 51.0256 34.5454C50.5071 34.082 50.4261 32.9022 50.8733 32.4432Z" fill="url(#paint24_linear_905_6241)"/>
<path style="mix-blend-mode:screen" fill-rule="evenodd" clip-rule="evenodd" d="M53.0796 28.4721C53.0796 28.4721 53.4399 27.9894 54.6299 28.0178C55.8199 28.0463 56.5627 28.5938 56.8491 28.9526C57.1354 29.3113 56.9708 30.5222 56.9708 30.5222C56.9708 30.5222 56.8732 29.5452 56.3852 29.0813C55.8972 28.6179 53.0656 29.7398 53.079 28.4715L53.0796 28.4721Z" fill="url(#paint25_linear_905_6241)"/>
<path style="mix-blend-mode:screen" fill-rule="evenodd" clip-rule="evenodd" d="M50.1504 49.0093C50.1504 49.0093 52.273 45.5723 53.8003 45.8115C55.3276 46.0507 55.8735 48.4242 55.8735 48.4242C55.8735 48.4242 54.9538 47.1511 53.0795 47.3527C51.2052 47.5549 50.1504 49.0093 50.1504 49.0093Z" fill="url(#paint26_linear_905_6241)"/>
<path style="mix-blend-mode:screen" fill-rule="evenodd" clip-rule="evenodd" d="M28.8184 50.1408C28.8184 50.1408 31.731 48.6736 37.556 49.4968C43.381 50.32 46.6979 52.2173 46.6979 52.2173C46.6979 52.2173 40.6691 50.9115 37.1125 51.4971C33.5559 52.0827 32.4721 55.2022 32.4721 55.2022C32.4721 55.2022 28.0811 53.3215 28.8184 50.1408Z" fill="url(#paint27_linear_905_6241)"/>
<path fill-rule="evenodd" clip-rule="evenodd" d="M38.2494 57.5945C38.2494 57.5945 42.2693 57.0293 44.3029 56.0924C44.3029 56.0924 40.0641 58.4724 38.2494 57.5945Z" fill="#FFFF8D"/>
<path fill-rule="evenodd" clip-rule="evenodd" d="M50.0367 51.1555C50.0367 51.1555 51.6542 51.6923 53.8003 51.4971C53.8003 51.4971 51.2707 52.471 50.0367 51.1555Z" fill="#FFFF8D"/>
<path fill-rule="evenodd" clip-rule="evenodd" d="M50.5822 37.1335C50.5822 37.1335 51.903 39.5515 53.2276 40.1634C53.2276 40.1634 51.6504 40.7222 50.5822 37.1335Z" fill="#FFFF8D"/>
<path fill-rule="evenodd" clip-rule="evenodd" d="M43.8867 27.2054C43.8867 27.2054 46.3059 29.8905 50.1504 30.23L43.8867 27.2054Z" fill="#FFFF8D"/>
<path fill-rule="evenodd" clip-rule="evenodd" d="M35.9487 28.2597C35.9487 28.2597 37.2438 29.9801 39.641 30.0294L35.9487 28.2597Z" fill="#FFFF8D"/>
<path fill-rule="evenodd" clip-rule="evenodd" d="M29.0217 25.6143C29.0217 25.6143 31.5696 25.2405 34.2456 23.3442L29.0217 25.6143Z" fill="#FFFF8D"/>
<path fill-rule="evenodd" clip-rule="evenodd" d="M24.0043 36.0942C24.0043 36.0942 26.8251 38.2961 28.0162 43.6224C28.0162 43.6224 28.6988 38.3932 24.0043 36.0942Z" fill="url(#paint28_radial_905_6241)"/>
<path fill-rule="evenodd" clip-rule="evenodd" d="M24.0778 47.3141C24.0778 47.3141 26.3746 48.4269 27.5839 47.2616C28.7932 46.0963 28.0516 42.1487 26.3902 39.159C24.7288 36.1693 22.6942 34.8468 21.8431 35.2801C21.2564 35.5788 18.1524 43.0164 24.0778 47.3141Z" fill="#00777A"/>
<path fill-rule="evenodd" clip-rule="evenodd" d="M22.2518 36.0218C20.733 35.6383 19.5302 40.8885 20.3045 43.7356C21.3117 47.4369 26.2679 47.985 27.3142 46.8631C28.3605 45.7412 27.6515 37.3844 22.2518 36.0218Z" fill="url(#paint29_radial_905_6241)"/>
<path style="mix-blend-mode:screen" fill-rule="evenodd" clip-rule="evenodd" d="M20.6354 43.3403C20.6354 43.3403 20.2176 37.9416 21.5653 36.9683C22.913 35.9949 24.9476 38.05 24.9476 38.05C24.9476 38.05 23.9705 38.3127 22.6947 39.0212C21.4189 39.7296 20.6349 43.3398 20.6349 43.3398L20.6354 43.3403Z" fill="url(#paint30_linear_905_6241)"/>
<path fill-rule="evenodd" clip-rule="evenodd" d="M22.4309 45.9665C22.4309 45.9665 24.221 46.9382 25.5494 47.0449C25.5494 47.0449 23.8113 47.7185 22.4309 45.9665Z" fill="#FFFF8D"/>
</g>
<defs>
<filter id="filter0_d_905_6241" x="0.0627441" y="-6.10352e-05" width="77.8744" height="77.9989" filterUnits="userSpaceOnUse" color-interpolation-filters="sRGB">
<feFlood flood-opacity="0" result="BackgroundImageFix"/>
<feColorMatrix in="SourceAlpha" type="matrix" values="0 0 0 0 0 0 0 0 0 0 0 0 0 0 0 0 0 0 127 0" result="hardAlpha"/>
<feOffset/>
<feGaussianBlur stdDeviation="10"/>
<feComposite in2="hardAlpha" operator="out"/>
<feColorMatrix type="matrix" values="0 0 0 0 0.278431 0 0 0 0 0.992157 0 0 0 0 0.117647 0 0 0 0.4 0"/>
<feBlend mode="normal" in2="BackgroundImageFix" result="effect1_dropShadow_905_6241"/>
<feBlend mode="normal" in="SourceGraphic" in2="effect1_dropShadow_905_6241" result="shape"/>
</filter>
<radialGradient id="paint0_radial_905_6241" cx="0" cy="0" r="1" gradientUnits="userSpaceOnUse" gradientTransform="translate(28.31 29.956) scale(29.3895 29.3895)">
<stop stop-color="#0CC463"/>
<stop offset="0.21" stop-color="#0BC063"/>
<stop offset="0.36" stop-color="#0AB764"/>
<stop offset="0.5" stop-color="#08A667"/>
<stop offset="0.63" stop-color="#068F6A"/>
<stop offset="0.76" stop-color="#03716E"/>
<stop offset="0.87" stop-color="#004F74"/>
</radialGradient>
<linearGradient id="paint1_linear_905_6241" x1="52.1519" y1="42.2565" x2="52.1519" y2="32.0104" gradientUnits="userSpaceOnUse">
<stop stop-color="#007C6F"/>
<stop offset="0.66" stop-color="#29D73A"/>
<stop offset="0.99" stop-color="#3BFF24"/>
</linearGradient>
<radialGradient id="paint2_radial_905_6241" cx="0" cy="0" r="1" gradientUnits="userSpaceOnUse" gradientTransform="translate(38.7944 49.0323) rotate(6.99) scale(6.59506 4.93642)">
<stop stop-color="#00FF00"/>
<stop offset="1"/>
</radialGradient>
<linearGradient id="paint3_linear_905_6241" x1="21.3448" y1="33.4943" x2="47.6637" y2="33.4943" gradientUnits="userSpaceOnUse">
<stop offset="0.01" stop-color="#92FF2C"/>
<stop offset="0.23" stop-color="#8FFC2D"/>
<stop offset="0.39" stop-color="#85F231"/>
<stop offset="0.54" stop-color="#75E339"/>
<stop offset="0.67" stop-color="#5FCD44"/>
<stop offset="0.8" stop-color="#42B052"/>
<stop offset="0.91" stop-color="#1E8E63"/>
<stop offset="1" stop-color="#007072"/>
</linearGradient>
<radialGradient id="paint4_radial_905_6241" cx="0" cy="0" r="1" gradientUnits="userSpaceOnUse" gradientTransform="translate(45.7391 29.6845) rotate(30) scale(4.17543 2.14823)">
<stop stop-color="#00FF00"/>
<stop offset="1"/>
</radialGradient>
<radialGradient id="paint5_radial_905_6241" cx="0" cy="0" r="1" gradientUnits="userSpaceOnUse" gradientTransform="translate(52.1577 47.7592) scale(2.62668 2.62668)">
<stop offset="0.01" stop-color="#3BFF24"/>
<stop offset="0.53" stop-color="#25D732"/>
<stop offset="1" stop-color="#11B140"/>
</radialGradient>
<radialGradient id="paint6_radial_905_6241" cx="0" cy="0" r="1" gradientUnits="userSpaceOnUse" gradientTransform="translate(51.5352 36.5866) rotate(82.33) scale(4.51821 3.84183)">
<stop stop-color="#00FF00"/>
<stop offset="1"/>
</radialGradient>
<radialGradient id="paint7_radial_905_6241" cx="0" cy="0" r="1" gradientUnits="userSpaceOnUse" gradientTransform="translate(26.2706 26.0604) scale(24.0815 24.0815)">
<stop stop-color="#FFFF4A"/>
<stop offset="1"/>
</radialGradient>
<radialGradient id="paint8_radial_905_6241" cx="0" cy="0" r="1" gradientUnits="userSpaceOnUse" gradientTransform="translate(47.0009 27.1576) scale(3.85529)">
<stop offset="0.02" stop-color="#B0FF24"/>
<stop offset="0.29" stop-color="#88F72A"/>
<stop offset="0.89" stop-color="#24E33C"/>
<stop offset="1" stop-color="#11E040"/>
</radialGradient>
<radialGradient id="paint9_radial_905_6241" cx="0" cy="0" r="1" gradientUnits="userSpaceOnUse" gradientTransform="translate(39.9692 29.8943) scale(1.56861)">
<stop offset="0.02" stop-color="#B0FF24"/>
<stop offset="0.29" stop-color="#88F72A"/>
<stop offset="0.89" stop-color="#24E33C"/>
<stop offset="1" stop-color="#11E040"/>
</radialGradient>
<radialGradient id="paint10_radial_905_6241" cx="0" cy="0" r="1" gradientUnits="userSpaceOnUse" gradientTransform="translate(33.9973 24.0285) scale(2.36015)">
<stop offset="0.02" stop-color="#B0FF24"/>
<stop offset="0.29" stop-color="#88F72A"/>
<stop offset="0.89" stop-color="#24E33C"/>
<stop offset="1" stop-color="#11E040"/>
</radialGradient>
<radialGradient id="paint11_radial_905_6241" cx="0" cy="0" r="1" gradientUnits="userSpaceOnUse" gradientTransform="translate(45.5443 27.6221) scale(5.53169)">
<stop offset="0.01" stop-color="#00FF24"/>
<stop offset="0.19" stop-color="#27FF1E"/>
<stop offset="0.58" stop-color="#8CFF10"/>
<stop offset="1" stop-color="#FFFF00"/>
</radialGradient>
<radialGradient id="paint12_radial_905_6241" cx="0" cy="0" r="1" gradientUnits="userSpaceOnUse" gradientTransform="translate(51.104 37.238) scale(3.75608)">
<stop offset="0.01" stop-color="#00FF24"/>
<stop offset="0.19" stop-color="#27FF1E"/>
<stop offset="0.58" stop-color="#8CFF10"/>
<stop offset="1" stop-color="#FFFF00"/>
</radialGradient>
<radialGradient id="paint13_radial_905_6241" cx="0" cy="0" r="1" gradientUnits="userSpaceOnUse" gradientTransform="translate(54.3045 30.9658) scale(2.26041 2.2604)">
<stop offset="0.01" stop-color="#00FF24"/>
<stop offset="0.19" stop-color="#27FF1E"/>
<stop offset="0.58" stop-color="#8CFF10"/>
<stop offset="1" stop-color="#FFFF00"/>
</radialGradient>
<radialGradient id="paint14_radial_905_6241" cx="0" cy="0" r="1" gradientUnits="userSpaceOnUse" gradientTransform="translate(37.505 55.2773) scale(8.39701 8.39702)">
<stop offset="0.01" stop-color="#00FF24"/>
<stop offset="0.19" stop-color="#27FF1E"/>
<stop offset="0.58" stop-color="#8CFF10"/>
<stop offset="1" stop-color="#FFFF00"/>
</radialGradient>
<radialGradient id="paint15_radial_905_6241" cx="0" cy="0" r="1" gradientUnits="userSpaceOnUse" gradientTransform="translate(52.5627 50.1709) scale(3.22034)">
<stop offset="0.01" stop-color="#00FF24"/>
<stop offset="0.19" stop-color="#27FF1E"/>
<stop offset="0.58" stop-color="#8CFF10"/>
<stop offset="1" stop-color="#FFFF00"/>
</radialGradient>
<radialGradient id="paint16_radial_905_6241" cx="0" cy="0" r="1" gradientUnits="userSpaceOnUse" gradientTransform="translate(31.7315 24.2097) scale(3.40857)">
<stop offset="0.01" stop-color="#00FF24"/>
<stop offset="0.19" stop-color="#27FF1E"/>
<stop offset="0.58" stop-color="#8CFF10"/>
<stop offset="1" stop-color="#FFFF00"/>
</radialGradient>
<radialGradient id="paint17_radial_905_6241" cx="0" cy="0" r="1" gradientUnits="userSpaceOnUse" gradientTransform="translate(38.1175 28.811) scale(3.11845)">
<stop offset="0.01" stop-color="#00FF24"/>
<stop offset="0.19" stop-color="#27FF1E"/>
<stop offset="0.58" stop-color="#8CFF10"/>
<stop offset="1" stop-color="#FFFF00"/>
</radialGradient>
<radialGradient id="paint18_radial_905_6241" cx="0" cy="0" r="1" gradientUnits="userSpaceOnUse" gradientTransform="translate(37.6257 49.3842) scale(6.0803 6.0803)">
<stop offset="0.01" stop-color="#3BFF24"/>
<stop offset="0.53" stop-color="#25D732"/>
<stop offset="1" stop-color="#11B140"/>
</radialGradient>
<radialGradient id="paint19_radial_905_6241" cx="0" cy="0" r="1" gradientUnits="userSpaceOnUse" gradientTransform="translate(53.9666 30.6311) scale(1.50586)">
<stop offset="0.01" stop-color="#3BFF24"/>
<stop offset="0.53" stop-color="#25D732"/>
<stop offset="1" stop-color="#11B140"/>
</radialGradient>
<radialGradient id="paint20_radial_905_6241" cx="0" cy="0" r="1" gradientUnits="userSpaceOnUse" gradientTransform="translate(26.706 28.0178) scale(19.085 19.085)">
<stop stop-color="#97FF11"/>
<stop offset="1"/>
</radialGradient>
<linearGradient id="paint21_linear_905_6241" x1="42.4961" y1="20.6167" x2="47.9227" y2="25.7585" gradientUnits="userSpaceOnUse">
<stop stop-color="#FFFFE8"/>
<stop offset="0.2" stop-color="#BBBBAA"/>
<stop offset="0.42" stop-color="#79796E"/>
<stop offset="0.61" stop-color="#45453E"/>
<stop offset="0.78" stop-color="#1F1F1C"/>
<stop offset="0.91" stop-color="#080807"/>
<stop offset="1"/>
</linearGradient>
<linearGradient id="paint22_linear_905_6241" x1="29.3784" y1="20.984" x2="31.0295" y2="22.5484" gradientUnits="userSpaceOnUse">
<stop stop-color="#FFFFE8"/>
<stop offset="0.2" stop-color="#BBBBAA"/>
<stop offset="0.42" stop-color="#79796E"/>
<stop offset="0.61" stop-color="#45453E"/>
<stop offset="0.78" stop-color="#1F1F1C"/>
<stop offset="0.91" stop-color="#080807"/>
<stop offset="1"/>
</linearGradient>
<linearGradient id="paint23_linear_905_6241" x1="36.5767" y1="25.1906" x2="39.6667" y2="28.1181" gradientUnits="userSpaceOnUse">
<stop stop-color="#FFFFE8"/>
<stop offset="0.2" stop-color="#BBBBAA"/>
<stop offset="0.42" stop-color="#79796E"/>
<stop offset="0.61" stop-color="#45453E"/>
<stop offset="0.78" stop-color="#1F1F1C"/>
<stop offset="0.91" stop-color="#080807"/>
<stop offset="1"/>
</linearGradient>
<linearGradient id="paint24_linear_905_6241" x1="50.9538" y1="32.3584" x2="55.4145" y2="36.5848" gradientUnits="userSpaceOnUse">
<stop stop-color="#FFFFE8"/>
<stop offset="0.2" stop-color="#BBBBAA"/>
<stop offset="0.42" stop-color="#79796E"/>
<stop offset="0.61" stop-color="#45453E"/>
<stop offset="0.78" stop-color="#1F1F1C"/>
<stop offset="0.91" stop-color="#080807"/>
<stop offset="1"/>
</linearGradient>
<linearGradient id="paint25_linear_905_6241" x1="53.7896" y1="27.7207" x2="56.8651" y2="30.6343" gradientUnits="userSpaceOnUse">
<stop stop-color="#FFFFE8"/>
<stop offset="0.2" stop-color="#BBBBAA"/>
<stop offset="0.42" stop-color="#79796E"/>
<stop offset="0.61" stop-color="#45453E"/>
<stop offset="0.78" stop-color="#1F1F1C"/>
<stop offset="0.91" stop-color="#080807"/>
<stop offset="1"/>
</linearGradient>
<linearGradient id="paint26_linear_905_6241" x1="51.7244" y1="46.9677" x2="54.6374" y2="49.7285" gradientUnits="userSpaceOnUse">
<stop stop-color="#FFFFE8"/>
<stop offset="0.2" stop-color="#BBBBAA"/>
<stop offset="0.42" stop-color="#79796E"/>
<stop offset="0.61" stop-color="#45453E"/>
<stop offset="0.78" stop-color="#1F1F1C"/>
<stop offset="0.91" stop-color="#080807"/>
<stop offset="1"/>
</linearGradient>
<linearGradient id="paint27_linear_905_6241" x1="31.9637" y1="46.8213" x2="42.4216" y2="56.7301" gradientUnits="userSpaceOnUse">
<stop stop-color="#FFFFE8"/>
<stop offset="0.2" stop-color="#BBBBAA"/>
<stop offset="0.42" stop-color="#79796E"/>
<stop offset="0.61" stop-color="#45453E"/>
<stop offset="0.78" stop-color="#1F1F1C"/>
<stop offset="0.91" stop-color="#080807"/>
<stop offset="1"/>
</linearGradient>
<radialGradient id="paint28_radial_905_6241" cx="0" cy="0" r="1" gradientUnits="userSpaceOnUse" gradientTransform="translate(27.2708 40.0523) rotate(14.16) scale(2.84763)">
<stop offset="0.02" stop-color="#B0FF24"/>
<stop offset="0.29" stop-color="#88F72A"/>
<stop offset="0.89" stop-color="#24E33C"/>
<stop offset="1" stop-color="#11E040"/>
</radialGradient>
<radialGradient id="paint29_radial_905_6241" cx="0" cy="0" r="1" gradientUnits="userSpaceOnUse" gradientTransform="translate(23.4317 43.8479) rotate(14.16) scale(4.47201)">
<stop offset="0.01" stop-color="#00FF24"/>
<stop offset="0.19" stop-color="#27FF1E"/>
<stop offset="0.58" stop-color="#8CFF10"/>
<stop offset="1" stop-color="#FFFF00"/>
</radialGradient>
<linearGradient id="paint30_linear_905_6241" x1="20.7556" y1="37.4826" x2="23.3722" y2="41.6084" gradientUnits="userSpaceOnUse">
<stop stop-color="#FFFFE8"/>
<stop offset="0.2" stop-color="#BBBBAA"/>
<stop offset="0.42" stop-color="#79796E"/>
<stop offset="0.61" stop-color="#45453E"/>
<stop offset="0.78" stop-color="#1F1F1C"/>
<stop offset="0.91" stop-color="#080807"/>
<stop offset="1"/>
</linearGradient>
</defs>
</svg>
