<svg width="78" height="78" viewBox="0 0 78 78" fill="none" xmlns="http://www.w3.org/2000/svg">
<g filter="url(#filter0_d_920_13643)">
<path fill-rule="evenodd" clip-rule="evenodd" d="M57.3981 38.8404C57.3981 40.6024 57.1502 42.3096 56.6819 43.9206C55.7527 47.1613 53.952 50.0311 51.5474 52.269C49.8283 53.8719 47.799 55.1462 45.5649 55.9942C43.5399 56.7647 41.3482 57.1831 39.0516 57.1831C38.7263 57.1831 38.3973 57.1755 38.0757 57.1562H38.072C37.5918 57.1331 37.1154 57.0863 36.647 57.0282C33.1041 56.5636 29.8865 55.0919 27.2765 52.9003C26.2968 52.0835 25.4063 51.1619 24.6202 50.1547C24.0239 49.3998 23.4856 48.5981 23.013 47.7501C22.9006 47.549 22.7925 47.3436 22.6839 47.1382C22.6839 47.1307 22.6802 47.1264 22.6764 47.1189C22.564 46.8984 22.4597 46.6774 22.3592 46.4526H22.3554C22.0376 45.752 21.7591 45.0277 21.5343 44.2841C21.3639 43.7496 21.2208 43.2001 21.1047 42.6425C21.1009 42.6387 21.1009 42.6306 21.1009 42.6269C21.0197 42.236 20.9498 41.8407 20.8955 41.4418C20.7718 40.59 20.7095 39.7227 20.7095 38.8398C20.7095 38.3328 20.7288 37.8252 20.7751 37.3299C20.7982 37.0122 20.8331 36.6987 20.8756 36.3852C21.1117 34.5807 21.6155 32.8616 22.343 31.2625C22.6995 30.4764 23.1098 29.7214 23.5706 28.9971C24.3374 27.7889 25.2434 26.6818 26.2656 25.6865C29.5687 22.4726 34.0795 20.4939 39.0516 20.4939C39.2452 20.4939 39.4388 20.4976 39.6286 20.5014C39.834 20.5089 40.0389 20.517 40.2443 20.5326C41.2976 20.6025 42.3273 20.7574 43.3226 20.9972C43.9034 21.1364 44.4728 21.2994 45.0304 21.4929C45.41 21.6209 45.7816 21.7639 46.1493 21.9188C46.4241 22.0349 46.6914 22.1549 46.9586 22.2828C47.0048 22.3059 47.0516 22.3253 47.0979 22.3484C48.8793 23.2195 50.494 24.3659 51.8953 25.7403C52.0964 25.9338 52.2905 26.1349 52.484 26.3403C52.612 26.4796 52.7395 26.6232 52.8637 26.7662C53.0766 27.006 53.282 27.2582 53.4831 27.5098C54.2149 28.439 54.8575 29.4381 55.3957 30.4989C56.027 31.7303 56.5227 33.0428 56.8593 34.4177C57.2115 35.8351 57.3976 37.3144 57.3976 38.8398L57.3981 38.8404Z" fill="url(#paint0_radial_920_13643)"/>
<g style="mix-blend-mode:multiply" opacity="0.4">
<path fill-rule="evenodd" clip-rule="evenodd" d="M20.708 38.8387C20.708 38.8387 25.0338 46.515 29.2156 47.7055C33.3973 48.896 38.1737 48.1394 39.8057 48.7476C41.4376 49.3557 42.3259 51.8496 42.3259 51.8496L42.934 52.198C42.934 52.198 44.3299 50.0316 45.1838 51.3113C45.1838 51.3113 44.8434 49.4977 45.8704 47.2893C46.8974 45.081 47.583 42.7086 48.8541 41.9504C50.1253 41.1923 52.4519 40.8401 54.2968 41.5714C56.1417 42.3026 57.0966 42.1623 57.0966 42.1623L57.2343 41.2934L57.3725 40.5271C57.3725 40.5271 55.6072 40.8078 54.1871 39.8991C54.1871 39.8991 54.3817 40.2389 55.4819 38.1844C56.582 36.1298 56.4551 34.2763 56.4551 34.2763L56.297 32.5691C56.297 32.5691 55.7061 38.4898 53.209 40.2077C53.209 40.2077 47.6422 39.0554 45.2881 45.6262C45.2881 45.6262 44.8853 50.0208 42.5528 49.8982C40.2202 49.7756 41.0268 46.9022 37.6521 46.8731C34.2775 46.8441 32.2294 48.2314 28.8881 46.3257C25.5473 44.4206 20.708 38.8387 20.708 38.8387Z" fill="#7D72B3"/>
</g>
<g style="mix-blend-mode:multiply" opacity="0.4">
<path fill-rule="evenodd" clip-rule="evenodd" d="M38.0758 57.1557C38.0758 57.1557 40.3896 53.6998 42.9345 53.7192C45.479 53.7385 46.6533 54.6618 48.6584 53.4907C50.664 52.3195 51.4975 51.5883 52.4218 50.9624C53.3461 50.3365 53.5026 50.1392 53.5026 50.1392L53.9198 49.588C53.9198 49.588 52.5137 48.9057 51.2743 49.9074C50.0349 50.9092 47.7938 53.1793 46.0161 53.1686C44.2385 53.1573 44.325 52.134 42.3269 52.9363C40.3288 53.7385 36.1218 56.5744 36.1218 56.5744C36.1218 56.5744 36.8832 57.1304 38.0764 57.1557H38.0758Z" fill="#7D72B3"/>
</g>
<g style="mix-blend-mode:multiply" opacity="0.4">
<path fill-rule="evenodd" clip-rule="evenodd" d="M21.7162 44.8481L21.9362 45.4536C21.9362 45.4536 25.513 47.428 27.7719 50.1762C30.0308 52.9244 30.4324 54.7865 30.4324 54.7865C30.4324 54.7865 30.8341 53.1487 28.8876 50.0682C26.9411 46.9882 22.7513 45.2993 21.7157 44.8476L21.7162 44.8481Z" fill="#7D72B3"/>
</g>
<path fill-rule="evenodd" clip-rule="evenodd" d="M47.0969 22.35C47.0366 22.3565 46.9759 22.363 46.9156 22.3753C46.7086 22.4135 46.5468 22.3947 46.343 22.3371C46.1967 22.2957 46.0913 22.2355 45.936 22.2097C45.7133 22.1748 45.5063 22.079 45.2837 22.0505C45.0482 22.0188 44.8444 21.9263 44.6218 21.8468C44.447 21.7833 44.3546 21.8054 44.1857 21.8468C44.0169 21.8914 43.8991 21.8215 43.7496 21.7575C43.5808 21.6844 43.4125 21.6715 43.234 21.6365C42.7694 21.5408 42.3081 21.3913 41.8467 21.2736C41.5601 21.2004 41.2961 21.2004 41.0036 21.1972C40.7745 21.194 40.5675 21.2607 40.3384 21.2607C40.1857 21.2607 40.0551 21.2354 39.9024 21.2128C39.7464 21.1843 39.5873 21.216 39.4313 21.194C39.1991 21.159 39.0748 21.1241 38.8393 21.1972C38.6646 21.2547 38.5275 21.2483 38.3527 21.2574C38.1586 21.2671 37.9392 21.3177 37.7483 21.3623C37.4047 21.4419 37.0294 21.5053 36.6761 21.4989C36.46 21.4989 36.1417 21.4386 35.9346 21.5118C35.8008 21.5596 35.7341 21.7027 35.6421 21.7984C35.4642 21.9828 35.2442 22.1484 35.0948 22.3554C34.9453 22.5624 34.7764 22.7754 34.7893 23.0362C34.8022 23.262 34.9071 23.526 35.0055 23.733C35.1071 23.9524 35.1426 24.153 34.9162 24.2992C34.6329 24.4869 34.3054 24.659 33.9806 24.7509C33.7645 24.8143 33.5704 24.8525 33.3886 24.6966C33.3219 24.6391 33.2805 24.5278 33.1977 24.4831C33.1117 24.4385 33.0224 24.4831 32.9305 24.5116C32.7014 24.5783 32.4788 24.6546 32.2465 24.6928C32.1035 24.7149 31.9793 24.7912 31.839 24.817C31.6701 24.8488 31.5491 24.7246 31.3744 24.766C31.1292 24.8235 30.8845 24.9251 30.6297 24.938C30.4485 24.9477 30.2194 24.8681 30.0667 24.7756C29.9774 24.7246 29.9554 24.674 29.8537 24.7025C29.7709 24.7219 29.6467 24.8235 29.6021 24.8869C29.5419 24.973 29.5193 25.0843 29.4591 25.1735C29.3956 25.2719 29.3349 25.3676 29.2779 25.4725C29.173 25.6763 29.0488 25.8672 28.9149 26.0484C28.8192 26.1758 28.7525 26.3473 28.6477 26.4651C28.5934 26.5285 28.4756 26.5732 28.4057 26.621C28.2148 26.7549 28.0143 26.8754 27.8298 27.0189C27.4733 27.2991 27.1362 27.6077 26.7732 27.8782C26.4963 28.0852 26.1081 28.2062 25.793 28.3363C25.5957 28.4159 25.3919 28.4729 25.1945 28.5557C25.1311 28.581 25.0133 28.61 24.959 28.6573C24.8891 28.7175 24.8509 28.8294 24.787 28.9117C24.6149 29.1219 24.4337 29.3316 24.303 29.5736C24.2234 29.7134 24.1756 29.8569 24.125 30.0096C24.0551 30.2167 23.9438 30.4075 23.8734 30.614C23.7304 31.0469 23.7013 31.4986 23.5427 31.9282C23.4502 32.1798 23.3169 32.4089 23.2023 32.6379C23.005 33.0262 22.9765 33.4875 22.919 33.9171C22.8873 34.1688 22.9002 34.4581 22.9442 34.7033C22.9921 34.9673 22.9792 35.241 22.976 35.5114C22.9727 35.798 22.7915 36.0776 22.6098 36.2943C22.4442 36.4949 22.1931 36.5713 22.0086 36.7492C21.8527 36.9019 21.665 37.0772 21.5984 37.2934C21.5699 37.3891 21.5951 37.4972 21.579 37.5988C21.5376 37.8246 21.4806 38.0381 21.4484 38.2672C21.4134 38.5505 21.407 38.8178 21.407 39.1038C21.407 39.2469 21.3973 39.3937 21.4037 39.5367C21.4102 39.6733 21.4613 39.8007 21.4704 39.9378C21.4769 40.0335 21.4575 40.1287 21.4704 40.2244C21.4892 40.3325 21.5306 40.4438 21.5564 40.5492C21.6199 40.8035 21.6677 41.0519 21.7156 41.3063C21.7602 41.5418 21.8522 41.7741 21.9258 42.0031C22.0275 42.315 22.0947 42.6366 22.1549 42.9608C22.2028 43.2028 22.1995 43.4539 22.2345 43.6991C22.263 43.8964 22.3076 44.097 22.3173 44.2943C22.327 44.5933 22.2538 44.8928 22.2506 45.195C22.2474 45.7042 22.4512 46.2134 22.5689 46.7032C22.6039 46.8398 22.6388 46.9801 22.677 47.1167C21.4172 44.6282 20.7074 41.8155 20.7074 38.8371C20.7074 35.2157 21.7575 31.84 23.568 28.995C24.338 27.7857 25.2419 26.6786 26.263 25.6854C29.5704 22.4737 34.079 20.4944 39.0528 20.4944C39.4539 20.4944 39.8481 20.5073 40.2427 20.5326C42.6898 20.6885 45.0063 21.3252 47.0969 22.3495V22.35Z" fill="url(#paint1_linear_920_13643)"/>
<g style="mix-blend-mode:multiply" opacity="0.4">
<path fill-rule="evenodd" clip-rule="evenodd" d="M25.1951 28.5578C25.1951 28.5578 29.3246 32.2497 34.7727 32.3556C40.2207 32.4616 42.2451 32.0954 44.0577 30.0774C45.8703 28.0594 47.8222 24.6417 47.8222 24.6417C47.8222 24.6417 45.495 25.7628 43.8851 27.9545C42.2752 30.1462 34.6705 33.8795 25.1951 28.5578Z" fill="#7D72B3"/>
</g>
<g opacity="0.7">
<g style="mix-blend-mode:multiply" opacity="0.4">
<path fill-rule="evenodd" clip-rule="evenodd" d="M25.5231 28.6632C24.9827 29.3031 24.5117 29.9548 24.1487 30.713C23.8261 31.3862 23.7078 32.1363 23.5911 32.8649C23.5218 33.2977 23.461 33.7316 23.3959 34.165C23.3379 34.5495 23.2271 34.9549 23.2932 35.3437C23.3836 35.8706 23.4105 36.4519 23.6626 36.9326C23.9326 37.4472 24.2133 37.8983 24.5719 38.3527C24.923 38.7979 25.3473 38.9974 25.9145 39.0372C26.2221 39.0587 26.5281 39.0114 26.8362 39.0522C27.2636 39.1081 27.6917 39.1867 28.117 39.2549C28.9746 39.3926 29.9382 39.399 30.5544 38.6957C31.0545 38.1252 31.2905 37.4138 31.6094 36.7347C31.9487 36.0115 32.3751 35.4114 33.0096 34.92C33.4763 34.5586 33.8855 34.1521 34.3339 33.7704C34.5372 33.5972 34.6603 33.4101 34.8915 33.2805C35.1179 33.1536 35.24 33.0122 35.4384 32.8299C35.6169 32.6659 35.833 32.5551 35.9922 32.368C36.2449 32.0707 36.4471 31.6695 36.5831 31.3071C36.7256 30.9275 36.7955 30.5237 36.8515 30.1231C36.9068 29.7317 36.7885 29.3381 36.667 28.9654C36.4347 28.2557 35.8287 27.8094 35.2582 27.3684C34.5522 26.8232 33.7199 26.5812 32.8504 26.4103C32.06 26.2549 31.1082 26.2231 30.314 26.364C29.4736 26.513 28.6101 26.6334 27.8277 26.9974C27.2556 27.2636 26.9098 27.633 26.448 28.0244C26.2124 28.2239 25.928 28.3611 25.7151 28.5858C25.4209 28.8971 25.1456 29.2354 25.522 28.6638L25.5231 28.6632Z" fill="#7D72B3"/>
</g>
<g style="mix-blend-mode:multiply" opacity="0.4">
<path fill-rule="evenodd" clip-rule="evenodd" d="M33.8381 25.2397C33.9521 25.0407 34.0817 24.7557 34.2398 24.5675C34.3248 24.4665 34.4355 24.3885 34.5366 24.3035C34.8436 24.0465 35.1792 23.8287 35.5679 23.7169C35.7819 23.6551 36.0175 23.6502 36.2325 23.7051C36.4514 23.761 36.8466 23.9099 37.0144 24.0696C37.3268 24.367 37.1208 24.874 37.0267 25.2203C36.9321 25.5698 36.8229 25.9 36.5111 26.1215C36.3073 26.2656 36.0642 26.3812 35.8212 26.4366C35.6857 26.4673 35.5491 26.4581 35.412 26.4748C35.3012 26.4882 35.1953 26.5157 35.0829 26.5157C34.8291 26.5157 34.4436 26.3344 34.3377 26.086C34.2823 25.9559 34.2506 25.8215 34.1919 25.6914C34.1473 25.5924 34.1124 25.4881 34.071 25.3881C33.993 25.2004 33.9252 25.0181 33.8387 25.2402L33.8381 25.2397Z" fill="#7D72B3"/>
</g>
<g style="mix-blend-mode:multiply" opacity="0.4">
<path fill-rule="evenodd" clip-rule="evenodd" d="M36.8707 27.1958C36.7954 27.3986 36.754 27.6061 36.7476 27.8196C36.8417 27.875 36.8745 27.9911 36.9669 28.0454C37.0557 28.0976 37.1627 28.0761 37.2638 28.0761C37.4471 28.0755 37.6251 28.0782 37.6557 27.8518C37.6826 27.654 37.5079 27.5099 37.3595 27.4023C37.2525 27.3249 37.0406 27.1442 36.9191 27.2937L36.8702 27.1958H36.8707Z" fill="#7D72B3"/>
</g>
<g style="mix-blend-mode:multiply" opacity="0.4">
<path fill-rule="evenodd" clip-rule="evenodd" d="M39.4141 30.1796C39.1759 30.3489 38.9194 30.5017 38.6914 30.6829C38.4026 30.9125 38.1763 31.2039 37.952 31.4943C37.6735 31.8551 37.3461 32.2325 37.4154 32.7181C37.4837 33.1972 37.6461 33.5945 38.0133 33.9161C38.4381 34.2882 39.0947 34.286 39.5899 34.5269C40.012 34.7329 40.2825 35.1582 40.4943 35.5631C40.8159 36.1777 41.4907 36.2868 42.1064 36.403C42.5069 36.4782 42.9038 36.5363 43.3081 36.5852C43.8517 36.6514 44.3894 36.7557 44.9341 36.8079C45.9327 36.9041 46.9392 37.1342 47.9458 37.0536C49.0126 36.9681 49.9794 36.5879 50.857 35.9766C51.6049 35.4561 52.2733 34.5522 52.4706 33.6569C52.6782 32.7159 52.3684 31.6685 51.9135 30.8463C51.3221 29.7784 50.6231 28.7778 49.8627 27.8233C49.4423 27.2948 48.954 26.8238 48.5249 26.3011C48.1528 25.8484 47.7625 25.4429 47.3178 25.0606C46.3214 24.2041 45.0852 23.497 43.7464 23.4265C43.2366 23.3997 42.7215 23.4749 42.2424 23.6599C41.8224 23.8223 41.5186 24.0637 41.2068 24.3847C40.4153 25.1999 40.0007 26.2377 39.6582 27.3028C39.5012 27.7911 39.3544 28.3433 39.4119 28.8622C39.4297 29.0208 39.5141 29.1461 39.5119 29.2967C39.5103 29.4375 39.5114 29.5784 39.5119 29.7188C39.5119 29.801 39.52 29.865 39.4904 29.9344C39.442 30.0473 39.3286 30.1661 39.4141 30.1796Z" fill="#7D72B3"/>
</g>
<g style="mix-blend-mode:multiply" opacity="0.4">
<path fill-rule="evenodd" clip-rule="evenodd" d="M35.2077 33.7994C34.6905 34.1011 34.1603 34.336 33.7801 34.82C33.7124 34.906 33.6129 35.0022 33.6479 35.1184C33.6871 35.2464 33.8307 35.319 33.9425 35.3657C34.3264 35.5265 34.7959 35.6099 35.2072 35.5281C35.5771 35.4545 36.0643 35.2044 36.2638 34.8694C36.517 34.4452 36.231 33.7634 35.696 33.7973C35.6153 33.8026 35.554 33.8408 35.4766 33.8505C35.4131 33.858 35.3449 33.8456 35.2803 33.8483C35.2067 33.8516 35.1905 33.8661 35.1298 33.8913C35.0652 33.9182 34.9808 33.9919 35.2072 33.7999L35.2077 33.7994Z" fill="#7D72B3"/>
</g>
<g style="mix-blend-mode:multiply" opacity="0.4">
<path fill-rule="evenodd" clip-rule="evenodd" d="M24.5939 40.8912C24.3842 41.0815 24.1745 41.2283 24.0535 41.4805C23.9401 41.7176 23.861 41.9445 23.8062 42.201C23.7588 42.4231 23.6965 42.6602 23.7535 42.8866C23.8046 43.0898 23.8997 43.2926 23.9691 43.4915C24.06 43.7507 24.1433 43.9937 24.1992 44.262C24.2686 44.5954 24.3917 44.8788 24.5407 45.1847C24.6864 45.4848 24.8509 45.7735 25.03 46.0553C25.215 46.3467 25.4295 46.5758 25.6682 46.8247C26.5044 47.6958 27.5265 48.6185 28.7735 48.7755C29.4031 48.8546 30.0602 48.6927 30.5205 48.2411C31.0238 47.7474 31.3442 47.0366 31.4518 46.3435C31.5432 45.7531 31.4824 45.1423 31.1636 44.6293C30.9092 44.2201 30.6312 43.7803 30.3022 43.4259C30.0801 43.1872 29.8242 42.9818 29.5827 42.7635C29.3424 42.5462 29.1117 42.3172 28.8498 42.1252C28.3896 41.7886 27.9449 41.4343 27.4814 41.1003C27.062 40.7987 26.6092 40.4702 26.0973 40.347C25.7441 40.2621 25.3564 40.1916 25.0079 40.3277C24.8585 40.3863 24.7434 40.4379 24.6676 40.5734C24.6299 40.6406 24.5412 40.7562 24.5364 40.8336C24.5235 40.8369 24.51 40.8401 24.595 40.8922L24.5939 40.8912Z" fill="#7D72B3"/>
</g>
<g style="mix-blend-mode:multiply" opacity="0.4">
<path fill-rule="evenodd" clip-rule="evenodd" d="M27.8708 40.0599C27.8874 40.2072 27.9046 40.3545 27.9213 40.5024C27.9315 40.5508 27.9423 40.5987 27.9525 40.6465C27.9821 40.6772 28.0923 40.6901 28.131 40.6949C28.2805 40.7121 28.4423 40.632 28.5596 40.5406C28.7386 40.4013 28.8193 40.0765 28.6537 39.9109C28.5214 39.7787 28.3493 39.7313 28.1638 39.769C28.0676 39.7883 27.66 40.004 27.8213 40.1577L27.8702 40.0599H27.8708Z" fill="#7D72B3"/>
</g>
<g style="mix-blend-mode:multiply" opacity="0.4">
<path fill-rule="evenodd" clip-rule="evenodd" d="M52.4244 36.0492C52.4884 35.7201 52.4954 35.5098 52.6971 35.2652C52.8723 35.0523 53.0654 34.8528 53.2337 34.6345C53.5429 34.2333 53.7343 33.7601 53.8499 33.2687C53.9515 32.8348 53.8456 32.4132 54.0397 31.9938C54.0859 31.8943 54.1403 31.7056 54.2451 31.6572C54.3414 31.6131 54.5371 31.6502 54.6247 31.7024C54.7129 31.755 54.8043 31.8701 54.8791 31.9363C55.0135 32.0551 55.1291 32.1874 55.2506 32.3191C55.862 32.9842 56.1997 33.9774 56.1948 34.8737C56.1921 35.4001 56.1351 35.8868 55.9604 36.3804C55.8894 36.5815 55.8163 36.7611 55.7071 36.945C55.5738 37.1697 55.4092 37.3047 55.192 37.444C54.5586 37.8489 53.6386 37.6978 53.1095 37.1977C52.9137 37.0122 52.8229 36.7573 52.6949 36.539C52.5944 36.368 52.4997 36.2126 52.4642 36.0088C52.4513 36.0061 52.4379 36.0035 52.425 36.0492H52.4244Z" fill="#7D72B3"/>
</g>
<g style="mix-blend-mode:multiply" opacity="0.4">
<path fill-rule="evenodd" clip-rule="evenodd" d="M52.4244 29.1525C52.5293 29.5101 52.582 29.9005 52.9487 30.0855C53.0122 30.1172 53.1477 30.1688 53.2186 30.1726C53.3117 30.1774 53.3778 30.1242 53.4509 30.0709C53.8359 29.7881 53.6144 29.1396 53.3547 28.8461C53.2014 28.6735 53.0256 28.617 52.8132 28.5541C52.7164 28.5256 52.7401 28.5175 52.6578 28.5525C52.5944 28.5799 52.5535 28.6095 52.5207 28.6611C52.4874 28.7138 52.4739 28.7977 52.4712 28.859C52.468 28.9278 52.4454 28.9649 52.4347 29.0165C52.4078 29.1413 52.4207 29.2402 52.4728 29.3483L52.4239 29.1525H52.4244Z" fill="#7D72B3"/>
</g>
<g style="mix-blend-mode:multiply" opacity="0.4">
<path fill-rule="evenodd" clip-rule="evenodd" d="M49.5386 44.0706C49.4439 44.3142 49.3697 44.5685 49.2622 44.8057C49.1476 45.0584 49.0336 45.3143 48.9266 45.5703C48.6438 46.2456 48.4863 46.9468 48.3034 47.6523C48.1109 48.3954 47.9884 49.1508 47.9125 49.9144C47.8733 50.3074 47.8125 50.6849 47.8233 51.0817C47.8308 51.3635 47.8297 51.7071 47.9292 51.9754C47.9916 52.1426 48.1475 52.397 48.3217 52.4717C48.5492 52.5696 48.8368 52.3798 49.0283 52.2851C49.7768 51.9146 50.4123 51.3517 51.0065 50.772C51.5915 50.2015 52.1862 49.66 52.6707 48.9976C52.8911 48.6959 53.1369 48.3981 53.3213 48.0722C53.4756 47.7996 53.5816 47.5033 53.7219 47.2237C53.8536 46.9624 53.9493 46.686 54.0736 46.4209C54.2241 46.0988 54.3639 45.7681 54.4688 45.4278C54.6693 44.7766 54.8473 44.1126 54.6188 43.441C54.4247 42.871 53.9504 42.4322 53.36 42.3053C53.0401 42.2365 52.6809 42.1413 52.3518 42.1671C52.0287 42.1924 51.6813 42.2806 51.3823 42.4043C51.1216 42.5118 50.8575 42.6382 50.6183 42.7882C50.4838 42.8726 50.393 42.9893 50.2865 43.1038C50.108 43.2958 49.9316 43.5039 49.795 43.7281C49.7246 43.8432 49.6628 43.9098 49.5751 44.0082C49.4557 44.1427 49.4036 44.3465 49.5396 44.0706H49.5386Z" fill="#7D72B3"/>
</g>
<g style="mix-blend-mode:multiply" opacity="0.4">
<path fill-rule="evenodd" clip-rule="evenodd" d="M46.6526 52.5325C46.2644 52.6787 45.9412 52.8201 45.6106 53.0659C45.2143 53.3605 44.8443 53.6627 44.5604 54.0692C44.4566 54.2182 44.2496 54.4736 44.405 54.6494C44.54 54.8021 44.7588 54.7887 44.9417 54.7849C45.2089 54.779 45.4761 54.7311 45.7246 54.6274C45.9558 54.5306 46.1639 54.4037 46.4021 54.3219C46.6306 54.2434 46.9419 54.0918 47.0957 53.895C47.1833 53.7832 47.2344 53.6288 47.3156 53.5089C47.3818 53.4116 47.4027 53.3369 47.3877 53.2148C47.3705 53.0782 47.286 52.8836 47.1801 52.7868C47.0849 52.6997 46.9027 52.6126 46.7752 52.6287C46.708 52.6373 46.622 52.6604 46.5596 52.6868C46.4047 52.7535 46.2789 52.9454 46.6526 52.5325Z" fill="#7D72B3"/>
</g>
<g style="mix-blend-mode:multiply" opacity="0.4">
<path fill-rule="evenodd" clip-rule="evenodd" d="M46.1639 50.2822C46.0849 49.9902 45.9951 49.7601 46.0203 49.467C46.0435 49.2019 46.0397 48.9777 46.179 48.7379C46.2376 48.6373 46.4075 48.3179 46.5215 48.2771C46.5607 48.2631 46.679 48.269 46.7156 48.2739C46.9135 48.2997 47.0323 48.5432 47.0732 48.7212C47.1361 48.9955 47.0925 49.3181 47.0947 49.5988C47.0968 49.8181 47.0662 50.0198 46.9834 50.2246C46.9162 50.3903 46.7844 50.3881 46.6167 50.3811C46.4516 50.3747 46.3838 50.3284 46.2618 50.2322C46.2171 50.1972 46.1515 50.1843 46.1112 50.1488C46.0569 50.101 46.0773 50.0359 46.1639 50.2822Z" fill="#7D72B3"/>
</g>
<g style="mix-blend-mode:multiply" opacity="0.4">
<path fill-rule="evenodd" clip-rule="evenodd" d="M45.8214 38.6903C45.7875 38.8936 45.773 39.0979 45.7789 39.3028C45.8531 39.3028 45.9306 39.4393 46.0268 39.4635C46.1629 39.498 46.3032 39.4135 46.4081 39.3297C46.6393 39.1452 46.7027 38.7946 46.6511 38.5188C46.6006 38.2483 46.2887 38.2209 46.065 38.2489C45.9903 38.2586 45.8779 38.2935 45.8187 38.3457C45.6827 38.4661 45.6709 38.6118 45.6746 38.7882L45.8214 38.6903Z" fill="#7D72B3"/>
</g>
<g style="mix-blend-mode:multiply" opacity="0.4">
<path fill-rule="evenodd" clip-rule="evenodd" d="M28.3111 51.3097C28.4358 51.093 28.5444 50.8597 28.7041 50.6682C28.8837 50.4537 29.0875 50.2246 29.2934 50.0375C29.5505 49.8031 29.8484 49.5869 30.1237 49.374C30.3791 49.1761 30.6404 48.9836 30.9146 48.8121C31.3921 48.5126 31.8852 48.3153 32.4159 48.1319C32.8477 47.9829 33.3042 47.9335 33.7537 48.0254C34.2156 48.1201 34.664 48.3803 35.0039 48.7019C35.3303 49.0105 35.6722 49.3853 35.8728 49.7907C36.2831 50.6204 36.1244 51.5194 35.8438 52.3615C35.7185 52.7368 35.4572 53.1874 35.1421 53.4315C34.963 53.5702 34.7474 53.6606 34.5291 53.7095C34.2801 53.7654 33.9978 53.8504 33.7456 53.8826C32.6407 54.0224 31.5066 53.9423 30.457 53.5557C30.0414 53.4025 29.6333 53.2148 29.2354 53.0212C28.9192 52.8675 28.6547 52.6712 28.4444 52.3889C28.2879 52.1787 28.1551 51.9286 28.1632 51.6619C28.167 51.542 28.2073 51.4345 28.2223 51.3178C28.2745 51.3156 28.318 51.2828 28.3116 51.3092L28.3111 51.3097Z" fill="#7D72B3"/>
</g>
<g style="mix-blend-mode:multiply" opacity="0.4">
<path fill-rule="evenodd" clip-rule="evenodd" d="M36.6262 51.7985C36.5487 52.0007 36.4998 52.2082 36.4794 52.4222C36.5541 52.4653 36.5498 52.5884 36.6057 52.6561C36.6692 52.7336 36.7369 52.7728 36.8316 52.7777C36.9294 52.783 37.0472 52.7879 37.144 52.7728C37.2956 52.7497 37.3284 52.6938 37.4074 52.5819C37.4956 52.4567 37.5188 52.4018 37.508 52.2362C37.5005 52.1222 37.4687 52.0012 37.3983 51.9071C37.3542 51.848 37.2757 51.7544 37.2144 51.7103C37.0698 51.606 36.9612 51.6652 36.8219 51.7496L36.6262 51.7985Z" fill="#7D72B3"/>
</g>
<g style="mix-blend-mode:multiply" opacity="0.4">
<path fill-rule="evenodd" clip-rule="evenodd" d="M54.7232 42.2607C54.5543 42.129 54.4145 41.9725 54.3048 41.7918C54.3204 41.7182 54.3177 41.645 54.2968 41.5714C54.2693 41.3832 54.2338 41.2299 54.2726 41.039C54.3634 40.5922 54.7511 40.2615 55.2023 40.2104C55.4991 40.1766 55.9308 40.4169 56.0873 40.6578C56.2535 40.9132 56.3212 41.2568 56.3347 41.5552C56.3459 41.802 56.29 42.0972 56.1411 42.3032C56.0373 42.4462 55.8276 42.4521 55.6631 42.4575C55.4727 42.464 55.2824 42.4328 55.1022 42.372C54.9662 42.3263 54.814 42.2268 54.7232 42.2607Z" fill="#7D72B3"/>
</g>
</g>
<path style="mix-blend-mode:screen" fill-rule="evenodd" clip-rule="evenodd" d="M28.1745 53.167C26.278 51.5791 24.7063 49.6127 23.5766 47.385C22.8668 45.9848 22.3324 44.483 22.0017 42.9081C21.9984 42.9049 21.9984 42.8984 21.9984 42.892C21.7441 41.6703 21.607 40.4035 21.607 39.1055C21.607 35.484 22.6571 32.1083 24.4676 29.2633C25.2376 28.054 26.1415 26.9469 27.1626 25.9537C30.4684 22.7399 34.9776 20.7606 39.9513 20.7606C40.3525 20.7606 40.7466 20.7735 41.1413 20.7988C42.3855 20.8784 43.5943 21.0843 44.7573 21.3999C43.3238 20.93 41.8107 20.6332 40.2433 20.5326C39.8486 20.5073 39.4539 20.4944 39.0534 20.4944C34.0791 20.4944 29.5704 22.4737 26.2641 25.6876C25.2424 26.6802 24.3391 27.7879 23.5691 28.9972C21.7586 31.8421 20.7085 35.2179 20.7085 38.8393C20.7085 40.1373 20.8451 41.4041 21.0999 42.6258C21.0999 42.6323 21.0999 42.6387 21.1032 42.6419C21.4339 44.2169 21.9689 45.7192 22.6781 47.1189C23.8078 49.346 25.3795 51.313 27.276 52.9008C29.286 54.587 31.6588 55.8463 34.2613 56.5491C32.01 55.8146 29.9506 54.6575 28.174 53.167H28.1745Z" fill="url(#paint2_radial_920_13643)"/>
<g style="mix-blend-mode:multiply" opacity="0.4">
<path fill-rule="evenodd" clip-rule="evenodd" d="M22.8367 36.8659C22.8367 36.8659 33.1085 41.0568 38.6823 40.7212C44.2562 40.3857 46.6291 37.1928 48.8541 34.2774C51.0791 31.3619 51.9142 27.8518 51.9142 27.8518C51.9142 27.8518 47.6921 35.9986 42.4522 38.1553L39.4389 38.7651C39.4389 38.7651 41.009 37.5939 42.1054 36.4035C43.2017 35.2135 47.4254 33.4821 47.8212 32.0916C48.2169 30.7011 48.1691 28.4159 48.8535 26.9538C49.538 25.4924 50.2199 24.2852 50.2199 24.2852L48.4067 23.9723L47.5566 25.9741C47.5566 25.9741 47.3179 29.2982 46.6672 31.1006C46.0166 32.903 39.6577 37.8364 38.2264 38.6624C36.795 39.4883 24.1283 37.7445 22.8362 36.8664L22.8367 36.8659Z" fill="#7D72B3"/>
</g>
<g style="mix-blend-mode:soft-light">
<g style="mix-blend-mode:multiply" opacity="0.4">
<path fill-rule="evenodd" clip-rule="evenodd" d="M41.1616 54.4338C41.1998 54.4193 41.8633 54.1192 42.0542 54.1327C42.1349 54.1386 42.2193 54.2042 42.2801 54.2381C42.457 54.337 42.571 54.4843 42.5511 54.6903C42.5226 54.9849 42.2005 55.3699 41.8472 55.4984C41.4095 55.6576 40.9482 55.4565 40.7933 55.1678C40.6358 54.8747 41.0358 54.337 41.4751 54.3273L41.1616 54.4338Z" fill="#7D72B3"/>
</g>
<path fill-rule="evenodd" clip-rule="evenodd" d="M32.5665 36.1793C32.3245 36.5928 31.7175 37.3504 31.9014 37.9424C31.9799 38.1956 32.16 38.4591 32.2734 38.6989C32.5837 39.3555 33.2085 40.0147 33.986 39.5394C34.8576 39.0065 34.4791 38.0354 34.1102 37.3267C33.9731 37.0632 33.772 36.7385 33.4983 36.5901C33.3494 36.5094 33.1063 36.425 32.9407 36.3922C32.6498 36.3347 32.8563 36.1481 32.5665 36.1793Z" fill="#FF9F84"/>
<path fill-rule="evenodd" clip-rule="evenodd" d="M38.4355 22.6796C38.401 22.8931 38.3951 23.1071 38.4172 23.32C38.4855 23.3066 38.536 23.369 38.607 23.3679C38.6866 23.3668 38.8027 23.3125 38.8662 23.269C39.0022 23.1759 39.0721 22.984 39.0716 22.8264C39.0705 22.663 39.056 22.5232 38.9011 22.4328C38.7161 22.3248 38.5312 22.4022 38.436 22.5818V22.6796H38.4355Z" fill="#FFEF84"/>
<path fill-rule="evenodd" clip-rule="evenodd" d="M34.5716 42.6355C34.6065 42.5 34.6598 42.1311 34.7705 41.9693C34.8625 41.8354 35.0313 41.7601 35.1786 41.7112C35.5002 41.6047 35.8314 41.6181 36.0879 41.8493C36.5374 42.2548 36.5213 42.8602 36.0922 43.2753C35.897 43.4641 35.6298 43.655 35.3502 43.6663C35.2125 43.6716 35.0313 43.6878 34.913 43.6179C34.7689 43.5324 34.6544 43.3807 34.6065 43.2243C34.5264 42.9635 34.5759 42.7656 34.7189 42.5371L34.5721 42.6349L34.5716 42.6355Z" fill="#FF9F84"/>
<path fill-rule="evenodd" clip-rule="evenodd" d="M31.197 42.4397C31.197 42.6441 31.0781 43.1237 31.3722 43.2189C31.5142 43.2646 31.6648 43.0753 31.6879 42.9549C31.711 42.8339 31.6976 42.6457 31.6502 42.5376C31.5782 42.3725 31.4335 42.258 31.2948 42.4397H31.197Z" fill="#FF9F84"/>
<path fill-rule="evenodd" clip-rule="evenodd" d="M23.3706 38.8694C23.3953 39.1926 23.3937 39.6652 23.59 39.9626C23.6717 40.0862 23.7529 40.2137 23.9083 40.2411C24.0454 40.2653 24.1239 40.183 24.2019 40.0825C24.3395 39.9029 24.3589 39.7803 24.3503 39.555C24.3433 39.3555 24.2809 39.1323 24.1911 38.9533C24.1255 38.8221 24.0132 38.7264 23.9088 38.6242C23.8153 38.5323 23.7481 38.5124 23.6142 38.5263C23.4367 38.5452 23.4486 38.7581 23.4195 38.9183L23.3706 38.8694Z" fill="#FF9F84"/>
<path fill-rule="evenodd" clip-rule="evenodd" d="M50.5655 37.3531C50.5704 37.3224 50.6069 36.7799 50.7075 36.6578C50.75 36.6062 50.8478 36.5723 50.9059 36.5438C51.0758 36.4599 51.2608 36.4347 51.4361 36.5186C51.6866 36.6379 51.8834 36.9831 51.8356 37.2617C51.7764 37.6063 51.3839 37.844 51.0532 37.8483C50.7177 37.8526 50.4203 37.4042 50.6139 37.109L50.565 37.3536L50.5655 37.3531Z" fill="#FF9F84"/>
<path fill-rule="evenodd" clip-rule="evenodd" d="M31.705 41.7095C31.7071 41.6945 31.7254 41.4229 31.776 41.3616C31.7969 41.3358 31.8459 41.3192 31.8754 41.3046C31.9604 41.2627 32.0529 41.2503 32.1405 41.2917C32.2658 41.3514 32.3642 41.524 32.3406 41.6633C32.311 41.8359 32.1147 41.9547 31.9497 41.9569C31.7819 41.959 31.6335 41.7348 31.7303 41.5869L31.7061 41.709L31.705 41.7095Z" fill="#FF9F84"/>
<path fill-rule="evenodd" clip-rule="evenodd" d="M40.0611 45.0605C40.0632 45.0455 40.0815 44.7739 40.1321 44.7126C40.153 44.6868 40.202 44.6702 40.2315 44.6556C40.3165 44.6137 40.409 44.6013 40.4966 44.6427C40.6219 44.7024 40.7203 44.875 40.6966 45.0143C40.6671 45.1869 40.4708 45.3057 40.3057 45.3079C40.138 45.31 39.9896 45.0858 40.0863 44.9379L40.0621 45.06L40.0611 45.0605Z" fill="#FF9F84"/>
<path fill-rule="evenodd" clip-rule="evenodd" d="M45.6994 30.2704C45.7015 30.2554 45.7198 29.9838 45.7704 29.9225C45.7913 29.8967 45.8403 29.8801 45.8698 29.8655C45.9548 29.8236 46.0473 29.8112 46.1349 29.8526C46.2602 29.9123 46.3586 30.0849 46.3349 30.2242C46.3054 30.3968 46.1091 30.5156 45.944 30.5178C45.7763 30.5199 45.6279 30.2957 45.7247 30.1478L45.7005 30.2699L45.6994 30.2704Z" fill="#FF9F84"/>
<path fill-rule="evenodd" clip-rule="evenodd" d="M34.2011 51.735C34.2032 51.72 34.2215 51.4484 34.2721 51.3871C34.293 51.3613 34.342 51.3447 34.3715 51.3301C34.4565 51.2882 34.549 51.2758 34.6366 51.3172C34.7619 51.3769 34.8603 51.5495 34.8367 51.6888C34.8071 51.8614 34.6108 51.9802 34.4457 51.9824C34.278 51.9845 34.1296 51.7603 34.2264 51.6124L34.2016 51.7345L34.2011 51.735Z" fill="#FF9F84"/>
<path fill-rule="evenodd" clip-rule="evenodd" d="M49.3429 41.951C49.0643 42.1252 48.8928 42.2026 48.7266 42.4586C48.603 42.6489 48.468 42.8247 48.3712 43.0318C48.2943 43.1958 48.2002 43.4426 48.2148 43.627C48.2524 44.1088 48.8509 43.6856 49.0235 43.5388C49.2547 43.342 49.4746 43.0742 49.4918 42.7624C49.4988 42.6392 49.502 42.5027 49.4542 42.3887C49.4332 42.3387 49.4074 42.2806 49.3821 42.2327C49.3257 42.1263 49.2767 42.1241 49.3429 41.9515V41.951Z" fill="#FF9F84"/>
<path fill-rule="evenodd" clip-rule="evenodd" d="M55.2125 44.0539C55.234 43.8415 55.1265 44.6088 55.1701 44.6422C55.2383 44.6433 55.3169 44.6529 55.3835 44.6433C55.4787 44.6293 55.5045 44.5809 55.5793 44.5233C55.732 44.4056 55.8427 44.3368 55.8486 44.1276C55.8535 43.9545 55.8223 43.8496 55.6524 43.798C55.5776 43.7754 55.5421 43.7453 55.4604 43.7684C55.2948 43.8163 55.1803 43.955 55.1141 44.1029L55.212 44.0539H55.2125Z" fill="#FF9F84"/>
<path fill-rule="evenodd" clip-rule="evenodd" d="M39.6232 22.7802C39.6378 22.6361 39.5652 23.1561 39.5942 23.1786C39.6404 23.1797 39.6937 23.1862 39.7388 23.1792C39.8034 23.1695 39.8206 23.1372 39.8711 23.098C39.9744 23.0184 40.0496 22.9716 40.0534 22.8297C40.0566 22.7125 40.0357 22.6415 39.9206 22.606C39.87 22.5904 39.8459 22.57 39.7905 22.5861C39.6786 22.6184 39.6007 22.7125 39.556 22.813L39.6222 22.7797L39.6232 22.7802Z" fill="#FFEF84"/>
<path fill-rule="evenodd" clip-rule="evenodd" d="M49.5617 37.7467C49.5762 37.6026 49.5036 38.1225 49.5326 38.1451C49.5789 38.1462 49.6321 38.1526 49.6773 38.1456C49.7418 38.136 49.759 38.1037 49.8101 38.0644C49.9133 37.9849 49.9886 37.9381 49.9924 37.7961C49.9956 37.6789 49.9746 37.6079 49.8596 37.573C49.809 37.5574 49.7848 37.537 49.7294 37.5531C49.6176 37.5854 49.5396 37.6795 49.495 37.78L49.5611 37.7467H49.5617Z" fill="#FFEF84"/>
<path fill-rule="evenodd" clip-rule="evenodd" d="M39.0819 52.027C39.2265 52.0265 38.7017 52.0082 38.6824 52.0394C38.6861 52.0856 38.6851 52.1389 38.6969 52.1835C38.713 52.2469 38.7474 52.2604 38.7915 52.3072C38.8813 52.4018 38.9356 52.4717 39.077 52.4609C39.1943 52.4523 39.2626 52.4238 39.2857 52.3055C39.2959 52.2539 39.3136 52.2276 39.2921 52.1743C39.2486 52.0663 39.1464 51.9985 39.0426 51.9646L39.0824 52.027H39.0819Z" fill="#FFEF84"/>
<path fill-rule="evenodd" clip-rule="evenodd" d="M30.7414 36.2895C30.7559 36.1454 30.6833 36.6653 30.7124 36.6879C30.7586 36.689 30.8118 36.6955 30.857 36.6885C30.9215 36.6788 30.9387 36.6465 30.9893 36.6073C31.0925 36.5277 31.1678 36.4809 31.1716 36.339C31.1748 36.2217 31.1538 36.1508 31.0388 36.1153C30.9882 36.0997 30.964 36.0792 30.9086 36.0954C30.7968 36.1276 30.7188 36.2217 30.6742 36.3223L30.7403 36.2889L30.7414 36.2895Z" fill="#FFEF84"/>
<path fill-rule="evenodd" clip-rule="evenodd" d="M38.8018 50.4709C38.8233 50.2585 38.7157 51.0258 38.7593 51.0592C38.8276 51.0602 38.9061 51.0699 38.9728 51.0602C39.0679 51.0463 39.0937 50.9979 39.1685 50.9403C39.3212 50.8226 39.432 50.7537 39.4379 50.5446C39.4427 50.3714 39.4115 50.2666 39.2416 50.215C39.1669 50.1924 39.1314 50.1623 39.0497 50.1854C38.884 50.2332 38.7695 50.372 38.7034 50.5198L38.8012 50.4709H38.8018Z" fill="#FF9F84"/>
</g>
<path fill-rule="evenodd" clip-rule="evenodd" d="M28.5557 38.3908C34.4984 39.3307 34.1317 40.8992 41.0283 39.0205C47.9249 37.1417 52.8637 26.7673 52.8637 26.7673C52.8637 26.7673 53.2084 25.9994 52.9164 25.5472C52.8003 25.3671 51.8953 25.7408 51.8953 25.7408C52.0513 29.0708 47.3921 35.947 42.1285 37.9273C41.5666 38.1386 40.9993 38.2123 40.4713 38.3311C40.2234 38.2064 39.6136 37.6445 42.4952 35.691C45.8854 33.3929 47.4109 32.5352 47.0969 30.1462C46.7828 27.7572 49.7988 23.9717 49.7988 23.9717C49.7988 23.9717 50.0171 22.9646 49.4466 22.3371C48.7127 21.53 47.0969 22.3495 47.0969 22.3495C47.0969 22.3495 46.6769 27.0334 40.7342 29.5639C34.7915 32.0948 31.49 30.8382 29.2155 30.1457C26.941 29.4531 26.264 25.687 26.264 25.687C26.264 25.687 24.3385 25.287 23.64 26.5146C23.1265 27.4168 23.8713 28.5385 23.8713 28.5385C23.8713 28.5385 27.4551 29.837 30.6829 31.0759C33.9113 32.3142 40.0739 31.2049 42.2747 30.1457C44.4756 29.0864 44.4756 27.3953 46.2365 25.8564C46.9646 25.2203 47.6969 24.7901 48.3088 24.5019C48.3088 24.5019 46.3833 27.4722 46.6033 29.5639C46.8232 31.655 45.5026 31.5813 42.2747 35.2496C40.0094 37.8241 38.0322 38.6392 37.052 38.8979C34.5657 39.1232 32.3084 38.8436 29.2155 38.0048C24.2267 36.6519 21.2306 34.4828 21.2306 34.4828C21.2306 34.4828 20.7967 34.2763 20.6316 34.7538C20.5617 34.956 21.0069 35.5238 21.0069 35.5238C21.0069 35.5238 22.6125 37.4498 28.5552 38.3898L28.5557 38.3908Z" fill="url(#paint3_linear_920_13643)"/>
<path fill-rule="evenodd" clip-rule="evenodd" d="M32.7326 55.9727C32.7326 55.9727 31.2701 55.0607 30.1694 52.2356C29.0687 49.41 29.2155 49.595 27.1615 47.8152C25.1074 46.0354 21.5338 44.2851 21.5338 44.2851C21.5338 44.2851 21.2924 44.3679 21.2919 44.44C21.2919 44.8067 21.7161 44.8492 21.7161 44.8492C21.7161 44.8492 25.0504 46.2789 27.133 48.5787C29.2155 50.8785 31.4658 54.9591 29.864 54.7161C29.864 54.7161 30.2242 55.7388 31.0684 55.9737C31.9142 56.2093 32.7326 55.9737 32.7326 55.9737V55.9727Z" fill="url(#paint4_radial_920_13643)"/>
<path d="M47.3372 42.3048C48.0185 41.5767 48.8433 40.597 52.1814 40.5777C55.5195 40.5546 57.2348 41.2939 57.2348 41.2939C57.2348 41.2939 57.9214 41.1009 57.9945 40.2077C58.0671 39.3243 57.3934 38.8737 57.3934 38.8737C57.3584 39.1528 57.0218 40.9879 54.187 39.8996C54.187 39.8727 55.1899 38.9624 55.4066 37.1116C55.627 35.2334 56.297 32.5696 56.297 32.5696C56.297 32.5696 56.6917 31.9115 56.4352 31.3797C56.3508 31.2049 55.7007 31.1254 55.7007 31.1254C56.262 34.8699 54.8452 39.3807 53.3036 39.8996C51.4335 39.9227 49.1525 40.2481 48.1185 40.9293C46.8485 41.7698 45.5746 45.5681 44.7573 48.24C44.5519 48.9024 44.1341 49.6224 43.5996 50.3424C41.5553 50.8344 42.2016 48.383 41.3187 47.6281C40.4396 46.8769 38.7517 47.2796 37.6516 46.8731C36.552 46.4666 36.2578 45.5955 35.0846 45.4557C33.9113 45.3165 32.0605 47.5001 29.95 46.5978C27.8406 45.6966 20.7741 37.3289 20.7741 37.3289C20.7741 37.3289 20.1369 37.1756 20.0084 37.616C19.91 37.9542 20.7085 38.8393 20.7085 38.8393C20.7085 38.8393 25.622 46.2542 30.3151 47.2189C35.012 48.183 39.2674 47.2807 40.7353 48.5545C42.1952 49.8246 42.3075 51.8539 42.3075 51.8689C40.7821 53.4874 38.9888 54.8817 38.1409 55.3076C36.6735 56.0474 34.2608 56.5507 34.2608 56.5507C34.5899 56.9303 35.2523 57.2347 35.9659 57.4256C36.995 57.7009 37.6526 57.182 37.6526 57.182C37.6526 57.182 37.0563 56.6631 37.8344 56.0125C39.8169 54.3628 41.2225 53.6428 43.2786 53.1546C44.5256 52.8605 44.8971 53.4256 45.0751 53.2438V53.2476C46.992 53.8557 48.51 52.419 50.1591 51.0984C51.805 49.7821 53.9187 49.5885 53.9187 49.5885C53.9187 49.5885 55.013 49.4041 55.2969 48.9212C55.5555 48.4809 54.9447 48.0012 54.9447 48.0012C54.9447 48.0012 54.0112 48.3846 52.2535 49.275C50.4914 50.1655 48.6057 52.7561 46.457 52.6749C45.2719 52.6325 45.5198 51.4318 45.4074 51.2619C45.4074 51.1769 45.4112 51.0914 45.4074 51.0065V51.0027C45.3725 50.1316 45.1907 49.3417 45.1907 48.7105C45.1907 48.5481 45.2025 48.397 45.2332 48.2572C45.4305 47.3237 46.6543 43.0334 47.3356 42.3059L47.3372 42.3048ZM43.597 50.351C43.2211 50.858 42.7877 51.3619 42.3269 51.8496L43.597 50.351ZM45.2429 51.6479C45.2698 51.849 45.3085 52.0469 45.2778 52.248C45.266 52.3523 45.2466 52.4378 45.1461 52.4728C45.088 52.4921 45.0224 52.4997 44.9643 52.5153C44.8713 52.5384 44.7826 52.5733 44.6896 52.5852C44.5465 52.6045 44.3874 52.5889 44.2444 52.5889C44.0895 52.5889 43.9228 52.6045 43.7679 52.5852C43.6943 52.5733 43.6206 52.5583 43.5475 52.5464C43.4738 52.5346 43.3733 52.5308 43.3077 52.4921C43.1491 52.4029 43.056 52.2367 42.9361 52.198C42.9479 52.0587 42.9399 51.9345 42.998 51.8109C43.0135 51.7646 43.0291 51.7178 43.0404 51.6716C43.0673 51.5904 43.0985 51.5167 43.1335 51.4393C43.2184 51.242 43.3039 51.0522 43.4276 50.8779C43.4857 50.7887 43.5437 50.7 43.598 50.6069C43.6636 50.5064 43.7529 50.429 43.8378 50.3435C43.9615 50.2198 44.082 50.1074 44.2368 50.0219C44.3567 49.9563 44.5503 49.8633 44.6858 49.9133C44.8251 49.9595 44.8831 50.1418 44.9375 50.2655C44.9762 50.3548 44.988 50.4515 45.0149 50.5483C45.0461 50.6682 45.0998 50.7769 45.1273 50.9005C45.1585 51.036 45.1585 51.1753 45.1853 51.3108C45.2085 51.4232 45.2241 51.5356 45.2434 51.6479H45.2429Z" fill="url(#paint5_linear_920_13643)"/>
<path fill-rule="evenodd" clip-rule="evenodd" d="M24.3525 26.1156C24.3525 26.1156 25.1805 27.8174 27.3082 29.3509C27.3082 29.3509 26.6022 26.8823 26.093 25.8569C26.093 25.8569 25.3945 25.1988 24.3519 26.1156H24.3525Z" fill="#FFFF0E"/>
<path fill-rule="evenodd" clip-rule="evenodd" d="M35.5093 31.3066C35.5093 31.3066 36.9568 30.7237 37.4058 30.942C37.4058 30.942 36.0196 31.3254 35.5093 31.3066Z" fill="#FFFF0E"/>
<path fill-rule="evenodd" clip-rule="evenodd" d="M40.3491 29.9671C40.6094 29.8833 40.8745 29.8064 41.1293 29.7069C41.3552 29.6182 41.5697 29.5155 41.781 29.3977C42.0488 29.2482 42.3107 29.0842 42.5521 28.8966C42.6145 28.8482 42.6871 28.817 42.7516 28.7724C42.8269 28.7202 42.9011 28.66 42.9742 28.6051C43.0393 28.5562 43.0914 28.4885 43.1538 28.4352C43.2162 28.382 43.2802 28.3298 43.3447 28.2798C43.4549 28.1949 43.5695 28.1013 43.6705 28.0051C43.7195 27.9588 43.7657 27.9093 43.8179 27.8663C43.8534 27.8368 43.8829 27.8276 43.9238 27.8104C43.9394 27.8437 43.8991 27.9228 43.8856 27.9551C43.856 28.026 43.8082 28.0782 43.7706 28.1432C43.684 28.2911 43.5426 28.3858 43.4366 28.5186C43.3662 28.6073 43.2705 28.6756 43.1764 28.7396C43.0452 28.8288 42.8941 28.9052 42.7532 28.9783C42.6097 29.053 42.4569 29.0977 42.3166 29.1794C42.1833 29.2568 42.0504 29.3171 41.9122 29.3805C41.8208 29.4224 41.7364 29.4859 41.6498 29.5375C41.5762 29.5816 41.5025 29.6252 41.4294 29.6687C41.3197 29.7343 41.2138 29.7983 41.1003 29.8585C41.0401 29.8903 40.9788 29.9166 40.9196 29.9489C40.7847 30.0225 40.6277 30.079 40.4734 30.0779C40.4164 30.0779 40.3653 30.0833 40.3126 30.0596C40.29 30.0494 40.2448 30.036 40.2427 30.0085C40.2803 30.0059 40.3131 29.9575 40.3502 29.9677L40.3491 29.9671Z" fill="#FFFF0E"/>
<path fill-rule="evenodd" clip-rule="evenodd" d="M44.2562 27.4545C44.1879 27.4889 44.1293 27.534 44.0798 27.5905C44.0798 27.6308 44.0572 27.6771 44.1282 27.6749C44.203 27.6728 44.2557 27.626 44.303 27.5733C44.3272 27.5464 44.3766 27.4658 44.3476 27.4276C44.3116 27.3797 44.2126 27.4459 44.1831 27.4727L44.2562 27.4545Z" fill="#FFFF0E"/>
<path fill-rule="evenodd" clip-rule="evenodd" d="M47.3561 22.4656C47.3029 22.5361 47.226 22.6184 47.1916 22.706C47.1658 22.7716 47.1426 22.8394 47.1174 22.9055C47.0679 23.0356 47.0399 23.17 46.9985 23.3018C46.9233 23.5421 46.8652 23.7862 46.7689 24.0212C46.7254 24.1277 46.6732 24.2288 46.6221 24.3315C46.5947 24.3863 46.5539 24.4363 46.5297 24.4923C46.5082 24.5423 46.4791 24.5837 46.4565 24.6326C46.435 24.6788 46.4286 24.7262 46.3979 24.7681C46.3619 24.8181 46.3399 24.866 46.3103 24.9192C46.2866 24.9622 46.1925 25.0681 46.221 25.1235C46.2495 25.1284 46.2775 25.0843 46.2941 25.0665C46.3468 25.0128 46.4076 24.9697 46.4619 24.9187C46.5641 24.8224 46.6544 24.7127 46.7512 24.6116C46.7931 24.5675 46.8216 24.5154 46.8593 24.4686C46.913 24.4014 46.9776 24.3465 47.0297 24.2772C47.1141 24.1637 47.2072 24.0556 47.3013 23.9508C47.3486 23.8981 47.3814 23.8357 47.4276 23.7814C47.4701 23.7319 47.5185 23.6878 47.5621 23.64C47.7002 23.4878 47.8465 23.3421 47.9804 23.1856C48.0869 23.0609 48.1874 22.9265 48.2783 22.7899C48.3503 22.6818 48.4154 22.5726 48.481 22.4592C48.5073 22.414 48.566 22.3049 48.5455 22.249C48.5192 22.178 48.4353 22.1489 48.3691 22.1387C48.2664 22.1237 48.1336 22.1215 48.0342 22.1457C47.9218 22.1731 47.8223 22.2151 47.7164 22.2592C47.6212 22.299 47.5432 22.3694 47.4524 22.4146C47.3862 22.4474 47.3109 22.4786 47.3561 22.4651V22.4656Z" fill="#FFFF0E"/>
<path fill-rule="evenodd" clip-rule="evenodd" d="M48.31 24.6665C48.2799 24.7288 48.2422 24.8326 48.1965 24.8961C48.1551 24.9536 48.1164 25.0068 48.0804 25.0681C48.018 25.1746 47.9583 25.2827 47.8965 25.3897C47.7841 25.5849 47.6432 25.765 47.5572 25.9736C47.5233 26.0559 47.4878 26.1365 47.4475 26.2156C47.405 26.2989 47.3857 26.3898 47.3561 26.478C47.3265 26.5645 47.3168 26.6517 47.2969 26.7404C47.2808 26.8119 47.2475 26.8796 47.2679 26.9538C47.3378 26.863 47.3878 26.7619 47.4523 26.6662C47.4975 26.599 47.533 26.5296 47.5943 26.4753C47.6556 26.4204 47.7045 26.3608 47.7594 26.2995C47.8131 26.2392 47.8664 26.1774 47.9072 26.1075C47.9449 26.043 47.9685 25.9758 48.0121 25.9145C48.053 25.8569 48.082 25.7908 48.1196 25.7311C48.1643 25.6607 48.2094 25.5913 48.2374 25.5117C48.2906 25.3617 48.3444 25.2031 48.3842 25.0493C48.403 24.9772 48.4154 24.8794 48.4025 24.8041C48.3922 24.7455 48.2982 24.5804 48.31 24.667V24.6665Z" fill="#FFFF0E"/>
<path fill-rule="evenodd" clip-rule="evenodd" d="M47.0442 27.1797C47.0157 27.277 46.9781 27.3867 46.956 27.4878C46.9506 27.5131 46.9415 27.5669 46.9625 27.5824C46.9851 27.5997 47.0415 27.5765 47.0587 27.5604C47.0786 27.5421 47.0899 27.5158 47.1039 27.4921C47.1335 27.4437 47.1695 27.3679 47.155 27.3071C47.1399 27.2415 47.0792 27.1851 47.0254 27.2528L47.0437 27.1797H47.0442Z" fill="#FFFF0E"/>
<path fill-rule="evenodd" clip-rule="evenodd" d="M45.1182 32.4987C44.9111 32.6971 44.6724 32.8718 44.5041 33.1057C44.488 33.1283 44.403 33.2256 44.4234 33.2665C44.4471 33.3127 44.5433 33.2821 44.574 33.2713C44.6939 33.231 44.8138 33.1654 44.9267 33.1084C45.0133 33.0649 45.094 33.0095 45.1752 32.9573C45.3639 32.8363 45.523 32.675 45.6682 32.504C45.7306 32.4309 45.7984 32.3497 45.8328 32.2588C45.8424 32.2336 45.8812 32.161 45.872 32.1309C45.8419 32.0303 45.6016 32.1368 45.5532 32.168C45.4967 32.2045 45.4472 32.2551 45.3951 32.2976C45.351 32.333 45.3101 32.3626 45.2649 32.3927C45.2268 32.418 45.1918 32.4519 45.1553 32.4793C45.1171 32.5083 45.0902 32.5739 45.1187 32.4987H45.1182Z" fill="#FFFF0E"/>
<path fill-rule="evenodd" clip-rule="evenodd" d="M44.1831 33.4525C44.1126 33.4853 44.0427 33.5192 43.9728 33.5536C43.9723 33.5859 43.8857 33.645 43.9287 33.6881C43.9524 33.7117 44.0309 33.6805 44.054 33.673C44.1046 33.6558 44.132 33.6203 44.1696 33.5848C44.2078 33.5483 44.2046 33.5337 44.1831 33.4891V33.4525Z" fill="#FFFF0E"/>
<path fill-rule="evenodd" clip-rule="evenodd" d="M39.4384 37.9892C39.2712 38.1161 39.0884 38.2344 38.9012 38.3328C38.6802 38.4494 38.4447 38.5382 38.227 38.6613C37.8887 38.8527 37.5306 38.9968 37.1763 39.1533C37.1198 39.178 36.5993 39.3824 36.7956 39.4872C36.8865 39.5356 36.9773 39.5254 37.0763 39.5281C37.1575 39.5302 37.236 39.5517 37.3172 39.555C37.4 39.5582 37.4839 39.5539 37.5667 39.5544C37.992 39.5576 38.4399 39.456 38.8281 39.2845C38.9147 39.2463 39.0222 39.2173 39.1007 39.163C39.1491 39.1302 39.1943 39.0802 39.2373 39.0398C39.3228 38.9603 39.3863 38.8694 39.4395 38.764C39.5153 38.6145 39.5669 38.4752 39.561 38.3059C39.5589 38.2451 39.5395 38.1714 39.4965 38.1241C39.4615 38.0854 39.4201 38.0741 39.4379 37.9875L39.4384 37.9892Z" fill="#FFFF0E"/>
<path fill-rule="evenodd" clip-rule="evenodd" d="M36.4056 39.285C36.3105 39.2383 36.2029 39.1662 36.0991 39.1614C36.062 39.1598 36.0276 39.1662 35.9916 39.1737C35.912 39.1904 35.7862 39.2001 35.7254 39.2603C35.633 39.3523 35.8308 39.4254 35.9045 39.4437C35.9927 39.4657 36.118 39.4679 36.211 39.456C36.2857 39.4463 36.4352 39.3813 36.4352 39.2883C36.4417 39.2867 36.4487 39.2856 36.4551 39.284H36.4062L36.4056 39.285Z" fill="#FFFF0E"/>
<path fill-rule="evenodd" clip-rule="evenodd" d="M42.0306 38.1112C42.4269 37.9924 42.8011 37.8311 43.1705 37.6456C43.3135 37.5735 43.4549 37.4918 43.591 37.4074C43.6797 37.3525 43.7674 37.2815 43.8598 37.2348C43.898 37.2154 44.1265 37.082 44.1583 37.146C44.1991 37.2288 43.9496 37.3945 43.9141 37.4256C43.82 37.5095 43.7163 37.5746 43.6136 37.6472C43.527 37.7085 43.4313 37.7391 43.3399 37.7913C43.22 37.8601 43.099 37.9198 42.971 37.9736C42.8764 38.0134 42.7796 38.0612 42.6807 38.0865C42.6043 38.1064 42.5285 38.1365 42.4521 38.1542C42.3951 38.1671 42.3376 38.1505 42.2806 38.1644C42.2102 38.1817 42.0779 38.2161 42.03 38.1101L42.0306 38.1112Z" fill="#FFFF0E"/>
<path fill-rule="evenodd" clip-rule="evenodd" d="M50.6758 40.2389C50.8677 40.2389 51.0984 40.2588 51.2968 40.2309C51.4409 40.2104 51.585 40.1792 51.7297 40.1658C52.0152 40.1389 52.2953 40.0658 52.5825 40.055C52.6959 40.0507 52.811 40.0561 52.9244 40.0561C52.9863 40.0561 53.0745 40.0405 53.1358 40.054C53.1621 40.0599 53.2352 40.097 53.2546 40.1179C53.3234 40.1921 53.2567 40.1814 53.2094 40.2083C53.1073 40.2664 53.0282 40.3137 52.9089 40.3389C52.7293 40.3771 52.5513 40.4255 52.369 40.4519C52.2432 40.4696 52.1173 40.4476 51.9921 40.4675C51.8248 40.4938 51.6646 40.4965 51.4952 40.4959C51.3576 40.4959 51.2199 40.4954 51.0823 40.4959C50.9769 40.4965 50.8925 40.4766 50.7903 40.4626C50.7037 40.4508 50.6526 40.4675 50.5795 40.4271C50.5456 40.4083 50.4919 40.3567 50.6758 40.2395V40.2389Z" fill="#FFFF0E"/>
<path fill-rule="evenodd" clip-rule="evenodd" d="M55.298 40.4223C55.5437 40.4443 55.6948 40.4739 55.9169 40.4325C56.0615 40.4051 56.2083 40.382 56.3535 40.3583C56.561 40.3244 56.7842 40.226 56.9622 40.111C57.0616 40.047 57.2622 39.9077 57.3907 39.9443C57.4907 39.9728 57.6036 40.0938 57.6117 40.2034C57.6214 40.3406 57.4671 40.4529 57.3724 40.5282C57.2079 40.6589 56.9622 40.7062 56.7573 40.718C56.5067 40.7325 56.2642 40.6976 56.0206 40.6427C55.9459 40.6261 55.8722 40.604 55.7975 40.5874C55.733 40.5728 55.5975 40.5906 55.298 40.4228V40.4223Z" fill="#FFFF0E"/>
<path fill-rule="evenodd" clip-rule="evenodd" d="M55.848 31.3614C55.8324 31.5281 55.7287 31.9411 55.9389 32.0755C56.0508 32.147 56.104 31.9588 56.1056 31.8739C56.1077 31.7513 56.0298 31.4308 55.8846 31.398L55.848 31.3614Z" fill="#FFFF0E"/>
<path fill-rule="evenodd" clip-rule="evenodd" d="M21.2677 35.1522C21.4419 35.3759 21.5704 35.6082 21.8119 35.7485C21.9527 35.8303 22.0893 35.926 22.2469 35.9733C22.3937 36.0179 22.5824 36.0679 22.7356 36.033C22.8184 36.0142 22.8399 36.0421 22.8362 35.9351C22.8346 35.8878 22.7991 35.8249 22.7738 35.7873C22.7238 35.7109 22.6469 35.6625 22.5878 35.5942C22.5184 35.5136 22.477 35.4361 22.392 35.37C22.1108 35.1501 21.8484 34.9667 21.5081 34.857C21.3855 34.8178 21.3769 34.8033 21.2688 34.8705C21.1833 34.9242 21.1801 34.9022 21.1677 35.0027C21.1516 35.1361 21.2478 35.2426 21.3161 35.3469L21.2672 35.1512L21.2677 35.1522Z" fill="#FFFF0E"/>
<path fill-rule="evenodd" clip-rule="evenodd" d="M21.4145 38.7715C21.6995 39.2254 22.0242 39.6394 22.3689 40.0491C22.6125 40.3395 22.7604 40.7067 23.0383 40.9734C23.0846 41.0175 23.5718 41.4369 23.5664 41.195C23.5653 41.1396 23.4271 40.9229 23.397 40.8745C23.3158 40.7417 23.2255 40.6019 23.126 40.482C23.0443 40.3836 22.9496 40.2868 22.8803 40.1776C22.8061 40.0604 22.7432 39.9905 22.6491 39.8862C22.5313 39.755 22.4678 39.5905 22.3635 39.4501C22.2667 39.32 22.1678 39.1963 22.0742 39.0635C21.949 38.8861 21.8194 38.6876 21.6204 38.6129C21.5683 38.5935 21.4887 38.536 21.4225 38.5844C21.3166 38.6624 21.401 38.9275 21.4139 38.7715H21.4145Z" fill="#FFFF0E"/>
<path fill-rule="evenodd" clip-rule="evenodd" d="M39.0716 47.3802C39.4814 47.307 39.8131 47.242 40.2169 47.3366C40.4143 47.3829 40.6138 47.4442 40.8079 47.5022C40.9332 47.5399 41.1235 47.5764 41.2144 47.67C41.3101 47.7679 41.2768 47.9442 41.1897 48.0308C41.0703 48.1496 40.8063 48.1238 40.6579 48.1098C40.353 48.0813 40.061 48.0442 39.768 47.955C39.6018 47.9044 39.3701 47.8222 39.2303 47.7119C39.1663 47.6614 38.999 47.5211 39.0727 47.3802H39.0716Z" fill="#FFFF0E"/>
<path fill-rule="evenodd" clip-rule="evenodd" d="M44.6966 49.581C44.489 49.5353 44.4718 49.1648 44.5294 49.017C44.5616 48.9331 44.6143 48.7981 44.7073 48.7599C44.8025 48.7207 44.8359 48.7868 44.9165 48.8159C44.8305 49.0008 44.7246 49.1745 44.5987 49.3369L44.6966 49.5816V49.581Z" fill="#FFFF0E"/>
<path fill-rule="evenodd" clip-rule="evenodd" d="M52.4244 49.4342C52.6975 49.2562 52.8825 49.131 53.1804 49.0428C53.3315 48.9976 53.4874 48.9788 53.6385 48.9331C53.8154 48.8798 53.9939 48.7954 54.1751 48.7594C54.2413 48.746 54.3053 48.7503 54.3698 48.739C54.4429 48.7266 54.4074 48.69 54.4908 48.7357C54.6445 48.8196 54.5746 48.9325 54.4746 49.017C54.2854 49.1777 54.1235 49.2412 53.8783 49.2987C53.7412 49.331 53.6321 49.4084 53.4992 49.4493C53.4191 49.474 53.3358 49.4874 53.2551 49.5084C52.9551 49.5875 52.5894 49.5326 52.4238 49.4348L52.4244 49.4342Z" fill="#FFFF0E"/>
<path fill-rule="evenodd" clip-rule="evenodd" d="M27.7729 48.7986C27.945 49.1546 28.0891 49.4949 28.3133 49.8154C28.4138 49.959 28.4902 50.0993 28.6531 50.1687C28.7822 50.2235 28.8698 50.2445 28.8876 50.0687C28.8967 49.9773 28.8214 49.8466 28.7714 49.7579C28.6273 49.5009 28.4219 49.2777 28.2509 49.0427C28.1842 48.9513 28.0912 48.8287 28.0046 48.7588C27.9423 48.7083 27.7573 48.6502 27.7724 48.7981L27.7729 48.7986Z" fill="#FFFF0E"/>
<path fill-rule="evenodd" clip-rule="evenodd" d="M34.963 56.6244C35.3765 56.5384 35.7351 56.4098 36.1271 56.2674C36.2895 56.2082 36.4508 56.2082 36.6154 56.1733C36.6304 56.17 36.6487 56.1383 36.6713 56.1329C36.7116 56.1227 36.7788 56.1351 36.8218 56.1356C36.8649 56.1356 37.052 56.1103 37.0891 56.1372C37.2418 56.2496 36.9154 56.5464 36.845 56.6206C36.5761 56.9035 36.1309 57.0589 35.7351 57.0185C35.5351 56.9981 35.3534 56.8911 35.1593 56.869C35.035 56.8551 34.7614 56.8094 34.7737 56.6325C34.7882 56.6298 34.8022 56.6271 34.9635 56.6244H34.963Z" fill="#FFFF0E"/>
<path fill-rule="evenodd" clip-rule="evenodd" d="M42.0554 52.4669C41.6897 52.7158 41.2875 52.932 41.0251 53.2992C40.8439 53.553 41.1752 53.5003 41.3214 53.4449C41.4435 53.3987 41.5349 53.353 41.6419 53.2783C41.7376 53.2116 41.7908 53.1449 41.8709 53.0643C41.929 53.0056 42.0032 52.9589 42.0559 52.8959C42.1097 52.8314 42.1312 52.6916 42.1941 52.6486C42.1834 52.6206 42.171 52.5938 42.1538 52.5642L42.0559 52.4663L42.0554 52.4669Z" fill="#FFFF0E"/>
<path fill-rule="evenodd" clip-rule="evenodd" d="M32.0772 46.8419C32.3433 46.7296 32.6079 46.6349 32.8563 46.5016C33.0875 46.3779 33.3096 46.2499 33.5451 46.1327C33.8473 45.9827 34.1737 45.7725 34.5243 45.7644C34.656 45.7612 34.7431 45.6977 34.8652 45.7526C34.9625 45.7966 35.0356 45.8359 35.0975 45.9235C35.276 46.1773 34.9222 46.4215 34.7286 46.5521C34.5802 46.6521 34.4441 46.7747 34.2785 46.8446C34.0844 46.9264 33.8758 46.9635 33.6795 47.0366C33.3542 47.157 33.0085 47.2909 32.6622 47.3339C32.4826 47.356 32.3181 47.2904 32.174 47.1968C32.1014 47.1495 32.0277 47.0861 31.9793 47.0135C31.9341 46.9463 31.9056 46.836 32.0777 46.8425L32.0772 46.8419Z" fill="#FFFF0E"/>
<path style="mix-blend-mode:screen" d="M40.2946 41.5123C43.614 40.1231 45.5828 37.2716 44.6921 35.1433C43.8014 33.0151 40.3884 32.416 37.0691 33.8052C33.7497 35.1944 31.7809 38.0458 32.6716 40.1741C33.5623 42.3023 36.9752 42.9015 40.2946 41.5123Z" fill="url(#paint6_radial_920_13643)"/>
</g>
<defs>
<filter id="filter0_d_920_13643" x="0" y="0.493881" width="78" height="77.0122" filterUnits="userSpaceOnUse" color-interpolation-filters="sRGB">
<feFlood flood-opacity="0" result="BackgroundImageFix"/>
<feColorMatrix in="SourceAlpha" type="matrix" values="0 0 0 0 0 0 0 0 0 0 0 0 0 0 0 0 0 0 127 0" result="hardAlpha"/>
<feOffset/>
<feGaussianBlur stdDeviation="10"/>
<feComposite in2="hardAlpha" operator="out"/>
<feColorMatrix type="matrix" values="0 0 0 0 0.682353 0 0 0 0 0.25098 0 0 0 0 0.364706 0 0 0 0.4 0"/>
<feBlend mode="normal" in2="BackgroundImageFix" result="effect1_dropShadow_920_13643"/>
<feBlend mode="normal" in="SourceGraphic" in2="effect1_dropShadow_920_13643" result="shape"/>
</filter>
<radialGradient id="paint0_radial_920_13643" cx="0" cy="0" r="1" gradientUnits="userSpaceOnUse" gradientTransform="translate(27.6921 30.2591) scale(29.4678 29.4678)">
<stop stop-color="#DE6863"/>
<stop offset="0.2" stop-color="#DA6562"/>
<stop offset="0.35" stop-color="#D15D61"/>
<stop offset="0.49" stop-color="#C04F60"/>
<stop offset="0.62" stop-color="#A93B5D"/>
<stop offset="0.74" stop-color="#8B225A"/>
<stop offset="0.86" stop-color="#660357"/>
<stop offset="0.87" stop-color="#630057"/>
</radialGradient>
<linearGradient id="paint1_linear_920_13643" x1="20.7085" y1="33.8069" x2="47.0969" y2="33.8069" gradientUnits="userSpaceOnUse">
<stop offset="0.01" stop-color="#FF7D85"/>
<stop offset="0.3" stop-color="#FC7B83"/>
<stop offset="0.51" stop-color="#F2747E"/>
<stop offset="0.7" stop-color="#E26A77"/>
<stop offset="0.87" stop-color="#CC5C6C"/>
<stop offset="1" stop-color="#B54D61"/>
</linearGradient>
<radialGradient id="paint2_radial_920_13643" cx="0" cy="0" r="1" gradientUnits="userSpaceOnUse" gradientTransform="translate(25.6473 26.3533) scale(24.1456 24.1456)">
<stop stop-color="#FFFF4A"/>
<stop offset="1"/>
</radialGradient>
<linearGradient id="paint3_linear_920_13643" x1="20.6246" y1="30.9415" x2="53.0337" y2="30.9415" gradientUnits="userSpaceOnUse">
<stop stop-color="#FFB80B"/>
<stop offset="0.39" stop-color="#FEB50C"/>
<stop offset="0.58" stop-color="#FDAE10"/>
<stop offset="0.73" stop-color="#FCA017"/>
<stop offset="0.85" stop-color="#F98E21"/>
<stop offset="0.97" stop-color="#F7762E"/>
<stop offset="1" stop-color="#F66D33"/>
</linearGradient>
<radialGradient id="paint4_radial_920_13643" cx="0" cy="0" r="1" gradientUnits="userSpaceOnUse" gradientTransform="translate(23.4696 47.4232) scale(9.31734 9.31734)">
<stop stop-color="#FFB80B"/>
<stop offset="0.39" stop-color="#FEB50C"/>
<stop offset="0.58" stop-color="#FDAE10"/>
<stop offset="0.73" stop-color="#FCA017"/>
<stop offset="0.85" stop-color="#F98E21"/>
<stop offset="0.97" stop-color="#F7762E"/>
<stop offset="1" stop-color="#F66D33"/>
</radialGradient>
<linearGradient id="paint5_linear_920_13643" x1="19.9998" y1="44.3158" x2="57.9999" y2="44.3158" gradientUnits="userSpaceOnUse">
<stop stop-color="#FFB80B"/>
<stop offset="0.39" stop-color="#FEB50C"/>
<stop offset="0.58" stop-color="#FDAE10"/>
<stop offset="0.73" stop-color="#FCA017"/>
<stop offset="0.85" stop-color="#F98E21"/>
<stop offset="0.97" stop-color="#F7762E"/>
<stop offset="1" stop-color="#F66D33"/>
</linearGradient>
<radialGradient id="paint6_radial_920_13643" cx="0" cy="0" r="1" gradientUnits="userSpaceOnUse" gradientTransform="translate(38.8189 37.6349) rotate(-22.71) scale(6.52732 4.18217)">
<stop stop-color="#FF5B00"/>
<stop offset="0.17" stop-color="#C44600"/>
<stop offset="0.4" stop-color="#7F2D00"/>
<stop offset="0.6" stop-color="#481900"/>
<stop offset="0.78" stop-color="#210B00"/>
<stop offset="0.92" stop-color="#080300"/>
<stop offset="1"/>
</radialGradient>
</defs>
</svg>
