<svg width="76" height="78" viewBox="0 0 76 78" fill="none" xmlns="http://www.w3.org/2000/svg">
<g filter="url(#filter0_d_905_6101)">
<path fill-rule="evenodd" clip-rule="evenodd" d="M22.9771 29.1514C22.9771 29.1514 23.1941 27.2775 23.336 26.2477C23.336 26.2477 24.6173 24.4588 26.6576 22.9877L29.3761 23.129C29.3761 23.129 23.8952 27.5258 22.9766 29.1514H22.9771Z" fill="url(#paint0_linear_905_6101)"/>
<path fill-rule="evenodd" clip-rule="evenodd" d="M26.6581 22.9877C26.6581 22.9877 26.6581 24.4959 25.2819 25.6874C23.9056 26.8789 23.3073 26.4605 23.3073 26.4605L22.9771 28.8624L29.3766 23.129L26.6581 22.9877Z" fill="url(#paint1_linear_905_6101)"/>
<path fill-rule="evenodd" clip-rule="evenodd" d="M55.7983 38.7013C55.7983 40.4109 55.5578 42.0672 55.1034 43.6302C54.202 46.7749 52.4548 49.5586 50.1219 51.7299C48.454 53.285 46.4852 54.5214 44.3176 55.3441C42.3529 56.0917 40.2266 56.4975 37.9985 56.4975C37.6828 56.4975 37.3636 56.4902 37.0516 56.4715H37.0479C36.5821 56.449 36.1199 56.4036 35.6655 56.3473C32.2281 55.8966 29.1063 54.4687 26.5741 52.3423C25.6236 51.5499 24.7597 50.6557 23.997 49.6786C23.4184 48.9462 22.8962 48.1683 22.4382 47.3456C22.3291 47.15 22.2238 46.9512 22.1189 46.752C22.1189 46.7446 22.1153 46.7405 22.1116 46.7332C22.0026 46.5193 21.9014 46.3049 21.8033 46.0868H21.7996C21.4913 45.4071 21.2211 44.7043 21.003 43.9829C20.8376 43.4643 20.6989 42.9311 20.5862 42.3902C20.5825 42.3865 20.5825 42.3787 20.5825 42.375C20.5038 41.9958 20.436 41.6123 20.3833 41.2252C20.2628 40.3994 20.2028 39.5579 20.2028 38.7013C20.2028 38.2094 20.2215 37.7169 20.2664 37.2364C20.2888 36.9281 20.3227 36.624 20.364 36.3198C20.593 34.5691 21.0818 32.9012 21.7876 31.3498C22.1335 30.587 22.5316 29.8546 22.9786 29.1519C23.7226 27.9797 24.6016 26.9055 25.5933 25.9399C28.798 22.8213 33.175 20.9015 37.9985 20.9015C38.1863 20.9015 38.3741 20.9051 38.5582 20.9088C38.7575 20.9161 38.9563 20.9239 39.1555 20.939C40.1775 21.0068 41.1766 21.1571 42.1422 21.3898C42.7056 21.5249 43.2581 21.6829 43.7991 21.8707C44.1674 21.9949 44.5279 22.1337 44.8847 22.2839C45.1513 22.3966 45.4105 22.5129 45.6698 22.6371C45.7147 22.6595 45.7601 22.6783 45.8049 22.7007C47.5333 23.5459 49.0994 24.6581 50.4594 25.9915C50.6545 26.1793 50.8428 26.3744 51.0306 26.5737C51.1548 26.7088 51.2784 26.8481 51.399 26.9869C51.6055 27.2196 51.8048 27.4642 51.9999 27.7084C52.7099 28.6099 53.3334 29.5792 53.8556 30.6084C54.468 31.8031 54.949 33.0765 55.2756 34.4105C55.6173 35.7856 55.7978 37.2208 55.7978 38.7008L55.7983 38.7013Z" fill="url(#paint2_radial_905_6101)"/>
<path fill-rule="evenodd" clip-rule="evenodd" d="M45.8044 22.7023C45.746 22.7086 45.687 22.7149 45.6286 22.7269C45.4278 22.7639 45.2707 22.7456 45.073 22.6898C44.9311 22.6496 44.8289 22.5912 44.6776 22.5662C44.4616 22.5323 44.2608 22.4394 44.0448 22.4118C43.8163 22.381 43.6186 22.2913 43.4026 22.214C43.233 22.1525 43.1433 22.1739 42.9795 22.214C42.8157 22.2573 42.7014 22.1895 42.5564 22.1274C42.3926 22.0565 42.2293 22.044 42.0561 22.0101C41.6054 21.9172 41.1578 21.7722 40.7102 21.6579C40.4321 21.587 40.176 21.587 39.8922 21.5838C39.6699 21.5807 39.4691 21.6454 39.2468 21.6454C39.0987 21.6454 38.9719 21.6209 38.8238 21.599C38.6725 21.5713 38.5181 21.6021 38.3668 21.5807C38.1414 21.5468 38.0209 21.5129 37.7924 21.5838C37.6228 21.6391 37.4898 21.6334 37.3203 21.6423C37.1319 21.6517 36.9191 21.7007 36.7339 21.744C36.4005 21.8212 36.0364 21.8828 35.6937 21.8765C35.4839 21.8765 35.1751 21.8181 34.9743 21.889C34.8444 21.9355 34.7797 22.0742 34.6905 22.1671C34.5178 22.346 34.3044 22.5067 34.1594 22.7076C34.0144 22.9084 33.8505 23.115 33.8631 23.368C33.8756 23.5871 33.9773 23.8433 34.0728 24.0441C34.1714 24.257 34.2053 24.4515 33.9862 24.5934C33.7113 24.7755 33.3935 24.9424 33.0785 25.0317C32.8687 25.0932 32.6804 25.1303 32.5041 24.979C32.4394 24.9231 32.3992 24.8152 32.3189 24.7719C32.2354 24.7286 32.1488 24.7719 32.0596 24.7995C31.8374 24.8642 31.6214 24.9383 31.396 24.9753C31.2573 24.9967 31.1367 25.0708 31.0006 25.0958C30.8368 25.1266 30.7194 25.0061 30.5498 25.0463C30.312 25.1021 30.0746 25.2007 29.8273 25.2132C29.6515 25.2226 29.4293 25.1454 29.2811 25.0557C29.1945 25.0061 29.1731 24.9571 29.074 24.9847C28.9937 25.0035 28.8732 25.1021 28.8299 25.1636C28.7714 25.2471 28.7495 25.3551 28.6911 25.4417C28.6295 25.5372 28.5706 25.63 28.5153 25.7318C28.4136 25.9295 28.293 26.1147 28.1631 26.2905C28.0708 26.4141 28.0056 26.5805 27.9039 26.6948C27.8512 26.7563 27.7369 26.7996 27.6691 26.8461C27.4839 26.976 27.2893 27.0928 27.1104 27.2321C26.7645 27.5039 26.4374 27.8034 26.0853 28.0658C25.8166 28.2666 25.44 28.384 25.1342 28.5102C24.9428 28.5875 24.7451 28.6433 24.5536 28.7231C24.4921 28.7476 24.3778 28.7758 24.3251 28.8217C24.2573 28.8801 24.2203 28.9886 24.1582 29.0685C23.9912 29.2724 23.8154 29.4759 23.6887 29.7106C23.6114 29.8463 23.565 29.9856 23.516 30.1337C23.4482 30.3346 23.3402 30.5198 23.2718 30.7201C23.1331 31.1401 23.1049 31.5783 22.951 31.9951C22.8613 32.2392 22.7319 32.4615 22.6208 32.6837C22.4293 33.0604 22.4017 33.508 22.3458 33.9248C22.3151 34.169 22.3276 34.4496 22.3704 34.6875C22.4168 34.9437 22.4043 35.2092 22.4011 35.4716C22.398 35.7497 22.2222 36.0209 22.0459 36.2312C21.8852 36.4258 21.6416 36.4998 21.4626 36.6725C21.3113 36.8207 21.1293 36.9907 21.0646 37.2005C21.0369 37.2933 21.0615 37.3982 21.0463 37.4968C21.0062 37.7159 20.9509 37.923 20.9196 38.1452C20.8856 38.4202 20.8794 38.6794 20.8794 38.957C20.8794 39.0957 20.87 39.2382 20.8763 39.3769C20.8825 39.5094 20.9321 39.6331 20.9409 39.7661C20.9472 39.859 20.9284 39.9513 20.9409 40.0442C20.9592 40.149 20.9994 40.257 21.0244 40.3593C21.086 40.606 21.1324 40.847 21.1788 41.0943C21.2221 41.3228 21.3113 41.5482 21.3828 41.7704C21.4814 42.073 21.5466 42.385 21.6051 42.6995C21.6515 42.9343 21.6484 43.1779 21.6823 43.4158C21.7099 43.6073 21.7532 43.8019 21.7626 43.9933C21.772 44.2834 21.701 44.574 21.6979 44.8671C21.6948 45.3612 21.8925 45.8552 22.0067 46.3305C22.0407 46.463 22.0746 46.5991 22.1116 46.7316C20.8903 44.3194 20.2017 41.5899 20.2017 38.7003C20.2017 35.1868 21.2206 31.9116 22.9771 29.1514C23.7241 27.9781 24.6011 26.904 25.5918 25.9404C28.7996 22.8228 33.1744 20.9025 37.9995 20.9025C38.3887 20.9025 38.7711 20.915 39.154 20.9396C41.5282 21.0909 43.7756 21.7085 45.8039 22.7023H45.8044Z" fill="url(#paint3_linear_905_6101)"/>
<path style="mix-blend-mode:multiply" fill-rule="evenodd" clip-rule="evenodd" d="M39.1342 47.0645C39.1342 47.0645 40.7957 49.5179 42.9951 51.5076C45.194 53.4973 45.517 54.8344 45.517 54.8344C45.517 54.8344 49.6732 53.0962 52.639 48.9801C55.6048 44.864 39.1342 47.0645 39.1342 47.0645Z" fill="url(#paint4_linear_905_6101)"/>
<path style="mix-blend-mode:screen" fill-rule="evenodd" clip-rule="evenodd" d="M27.4453 52.6011C25.6053 51.0606 24.0804 49.1528 22.9844 46.9914C22.2958 45.633 21.7772 44.1759 21.4564 42.6479C21.4532 42.6448 21.4532 42.6385 21.4532 42.6322C21.2065 41.447 21.0735 40.2179 21.0735 38.9585C21.0735 35.445 22.0923 32.1699 23.8488 29.4096C24.5959 28.2364 25.4728 27.1622 26.4635 26.1987C29.6713 23.0811 34.0457 21.1608 38.8712 21.1608C39.2604 21.1608 39.6428 21.1733 40.0257 21.1978C41.2324 21.275 42.4056 21.4748 43.534 21.781C42.1432 21.3251 40.6752 21.0371 39.1545 20.9396C38.7716 20.915 38.3887 20.9025 38 20.9025C33.1744 20.9025 28.8001 22.8228 25.5923 25.941C24.6011 26.904 23.7247 27.9787 22.9776 29.1519C21.2206 31.9116 20.2017 35.1873 20.2017 38.7003C20.2017 39.9597 20.3342 41.1887 20.5815 42.374C20.5815 42.3803 20.5815 42.3865 20.5846 42.3897C20.9055 43.9177 21.4245 45.3753 22.1127 46.7332C23.2087 48.894 24.7336 50.8023 26.5736 52.3429C28.5236 53.9789 30.8258 55.2007 33.3508 55.8825C31.1665 55.1699 29.1684 54.0472 27.4448 52.6011H27.4453Z" fill="url(#paint5_radial_905_6101)"/>
<path style="mix-blend-mode:multiply" opacity="0.4" fill-rule="evenodd" clip-rule="evenodd" d="M42.1422 21.3903C41.1765 21.1571 40.1775 21.0069 39.1555 20.9396C38.9563 20.9244 38.7575 20.9171 38.5582 20.9093C38.9829 21.1461 39.3773 21.563 39.4748 21.9913C39.6365 22.7237 39.8729 23.404 40.0085 24.1364C40.1436 24.8579 40.1175 25.7521 39.7904 26.4058C39.5838 26.8189 39.3397 27.1721 39.0126 27.5102C38.7799 27.747 38.5806 27.8785 38.4153 28.1711C38.2499 28.4565 38.0924 28.7346 37.9045 29.0053C37.6265 29.4112 37.3333 29.8431 37.014 30.2151C36.9013 30.3502 36.7772 30.4441 36.676 30.6022C36.5482 30.7978 36.4882 30.9815 36.3489 31.1359C36.0296 31.4927 35.5335 31.692 35.0942 31.8532C34.523 32.0671 34.0383 32.3076 33.5015 32.5935C32.7466 32.9915 32.1264 33.5028 31.2437 33.5252C30.9505 33.5325 30.6463 33.4913 30.3532 33.5179C29.9885 33.5481 29.6505 33.7245 29.29 33.7923C28.9744 33.8523 28.6587 33.9165 28.3431 33.9691C27.8246 34.0479 27.3963 34.2248 26.8965 34.3448C26.2465 34.5065 25.5667 34.4647 24.913 34.555C24.323 34.6338 23.8123 34.7052 23.2264 34.5623C22.3213 34.3369 21.8367 33.9086 22.0281 32.9466C22.1559 32.3154 22.1111 31.8344 21.7876 31.3498C21.0813 32.9013 20.593 34.5696 20.364 36.3199C20.7923 36.5004 21.2806 36.5943 21.6598 36.6318C22.9786 36.7669 24.3987 36.1774 25.6043 35.7267C26.2204 35.494 26.848 35.1555 27.5126 35.0803C28.2111 35.0052 28.8272 35.0918 29.5263 34.9186C31.9344 34.3249 34.3086 33.4835 36.4574 32.21C37.3479 31.6842 37.7423 30.9324 38.3621 30.1702C38.9067 29.5051 39.5192 28.9532 40.1692 28.397C40.8077 27.8524 41.3711 27.3114 41.7509 26.5487C42.1531 25.7448 42.4948 24.8621 42.679 23.9789C42.8741 23.0472 42.6341 22.1493 42.1417 21.3903H42.1422ZM42.0222 23.8099C41.9846 24.0091 41.9586 24.223 41.898 24.4108C41.7441 24.8882 41.4588 25.3801 41.0117 25.6316C40.8051 25.7479 40.5307 25.6765 40.4107 25.4699C40.3471 25.3572 40.3471 25.2142 40.3241 25.0906C40.2792 24.8465 40.249 24.606 40.2526 24.354C40.2599 23.7494 40.2375 23.1666 40.1812 22.562C40.2448 22.9037 40.166 22.0549 40.6997 21.8217C40.9512 21.709 41.331 21.8103 41.5224 22.0059C41.7629 22.25 41.8193 22.6632 41.9095 22.9825C41.9883 23.2678 42.0749 23.5083 42.0222 23.8088V23.8099Z" fill="url(#paint6_linear_905_6101)"/>
<path style="mix-blend-mode:multiply" opacity="0.4" fill-rule="evenodd" clip-rule="evenodd" d="M39.4451 52.2224C39.3924 52.2297 39.3439 52.2411 39.2948 52.2448L39.648 52.2787C39.6031 52.2672 39.5275 52.2411 39.4451 52.2224ZM39.4451 52.2224C39.3924 52.2297 39.3439 52.2411 39.2948 52.2448L39.648 52.2787C39.6031 52.2672 39.5275 52.2411 39.4451 52.2224ZM55.2761 34.4115C55.2688 34.8774 55.1373 35.3396 55.1259 35.8091C55.1144 36.4325 55.0095 36.9172 54.8478 37.5187C54.7351 37.9319 54.5249 38.236 54.3856 38.6346C54.228 39.0931 54.0021 39.4839 53.7695 39.9043C53.3073 40.7458 52.8456 41.5873 52.6463 42.5415C52.4658 43.4017 52.4282 44.1269 51.9999 44.9156C51.5904 45.6747 50.9706 46.3054 50.5309 47.042C50.3243 47.3952 50.1813 47.3764 49.8699 47.5981C49.5204 47.8459 49.2011 48.2367 48.863 48.5111C48.1342 49.0933 47.4691 49.4955 46.5864 49.8257C46.0339 50.036 45.4971 50.2013 44.9108 50.2916C44.5273 50.3516 44.1517 50.2916 43.7724 50.3552C43.1715 50.4528 42.6002 50.6333 42.0217 50.8211C41.0712 51.1294 40.1019 51.3058 39.155 51.5989C38.494 51.8019 37.8477 51.9219 37.1752 52.0648C36.7657 52.1514 36.4349 52.3731 36.0108 52.2865C35.5825 52.1963 35.1918 52.0538 34.7708 51.9219C34.2334 51.7565 33.79 51.7455 33.2115 51.7455C32.4415 51.7455 31.5473 51.8619 30.7882 51.7153C29.9316 51.5499 29.0787 51.3209 28.2221 51.144C27.7035 51.035 27.3091 50.8211 26.836 50.5994C26.3925 50.3928 25.9157 50.3328 25.4535 50.1862C24.9652 50.0323 24.4957 49.8028 23.9959 49.6791C24.7586 50.6557 25.6225 51.5499 26.573 52.3429C29.1053 54.4692 32.227 55.8971 35.6644 56.3478C36.1188 56.4042 36.581 56.449 37.0469 56.472H37.0505C38.0574 56.243 39.0418 55.9461 40.056 55.6342C41.7426 55.1083 43.2002 54.09 44.8873 53.5944C45.5149 53.4066 46.0783 53.2036 46.6641 52.9146C47.0961 52.7007 47.5546 52.6444 47.9903 52.4561C49.5569 51.7909 50.7364 50.2697 51.4355 48.7782C51.7511 48.1021 52.0552 47.3357 52.6228 46.8287C52.8555 46.6184 53.1335 46.4343 53.3365 46.1974C53.5655 45.9381 53.7194 45.6152 53.9223 45.3335C54.2792 44.8301 54.625 44.323 54.9819 43.8159C55.0267 43.7559 55.0685 43.6959 55.1019 43.6318C55.5562 42.0688 55.7967 40.4119 55.7967 38.7029C55.7967 37.2229 55.6162 35.7877 55.2745 34.4126L55.2761 34.4115ZM38.9489 52.3502C39.0126 52.309 39.118 52.2224 39.1858 52.2036C39.2536 52.1811 39.3548 52.1999 39.4451 52.2224C39.5765 52.2036 39.708 52.1884 39.8322 52.2411C39.9036 52.275 40.0387 52.3387 40.069 52.4216C40.1029 52.5004 40.0575 52.5494 40.0054 52.6021C39.9375 52.67 39.8854 52.67 39.7915 52.6887C39.5958 52.7263 39.4044 52.7602 39.2014 52.7414C39.0815 52.7299 38.901 52.7226 38.8258 52.61C38.7544 52.5009 38.8597 52.4107 38.95 52.3507L38.9489 52.3502ZM40.1175 54.6717C40.0085 54.8104 39.8995 54.9534 39.757 55.0588C39.6219 55.1641 39.4717 55.2278 39.3251 55.3102C38.9646 55.5131 38.5926 55.7312 38.1868 55.8361C38.025 55.8773 37.8638 55.87 37.6948 55.8809C37.4919 55.8997 37.2926 55.9034 37.0902 55.907C36.8497 55.9107 36.617 55.9597 36.3765 55.9748C36.136 55.9863 35.8992 55.9936 35.6592 56.0087C35.2612 56.0348 34.908 55.9675 34.5324 55.8324C34.1943 55.7082 33.8448 55.5507 33.5406 55.3478C33.3268 55.2048 33.1426 55.0024 32.9584 54.8219C32.7858 54.6602 32.6465 54.4875 32.5489 54.2694C32.515 54.1907 32.4775 54.1077 32.4962 54.0216C32.5035 53.9804 32.5223 53.9465 32.5223 53.935C32.5901 53.8824 32.6574 53.8338 32.7216 53.8072C32.8494 53.7509 32.9918 53.7243 33.1275 53.7097C33.4546 53.6648 33.8114 53.7212 34.138 53.7472C34.3331 53.7624 34.5063 53.7733 34.6977 53.7436C34.9534 53.706 35.2085 53.6272 35.4568 53.5594C36.0578 53.3977 36.6478 53.2704 37.2676 53.2026C37.8837 53.1348 38.53 53.0675 39.1498 53.1723C39.3825 53.2099 39.6647 53.2777 39.8676 53.4128C40.0179 53.514 40.1379 53.6758 40.2208 53.8375C40.3638 54.1119 40.3032 54.4348 40.1196 54.6717H40.1175ZM44.8325 53.1275C44.7235 53.2553 44.5659 53.3304 44.4303 53.4243C44.2425 53.5558 44.0432 53.6612 43.8481 53.7738C43.6827 53.8714 43.5252 53.9507 43.352 54.0295C43.1829 54.1082 43.0103 54.1875 42.8412 54.2736C42.6571 54.3675 42.4578 54.4312 42.2627 54.499C42.1197 54.5517 41.9658 54.6153 41.8119 54.5892C41.6878 54.5632 41.549 54.5141 41.4588 54.4202C41.3237 54.2773 41.3461 54.1234 41.391 54.0597C41.391 53.9283 41.3534 53.7405 41.3946 53.6126C41.4207 53.5375 41.5109 53.4248 41.5527 53.3497C41.7102 53.0644 41.9356 52.8578 42.1724 52.6324C42.379 52.4331 42.5783 52.2829 42.8564 52.1853C43.1683 52.0799 43.5252 52.0538 43.8481 52.0126C44.2013 51.9714 44.7986 51.9448 44.9561 52.3507C45.0652 52.6324 45.0276 52.8917 44.832 53.1285L44.8325 53.1275ZM39.648 52.2787C39.6031 52.2672 39.5275 52.2411 39.4451 52.2224C39.3924 52.2297 39.3439 52.2411 39.2948 52.2448L39.648 52.2787Z" fill="url(#paint7_linear_905_6101)"/>
<path style="mix-blend-mode:multiply" opacity="0.4" fill-rule="evenodd" clip-rule="evenodd" d="M53.8561 30.6095V30.681C53.8337 31.1729 53.6344 31.511 53.458 31.958C53.3151 32.3185 53.1497 32.642 52.9661 32.9837C52.6541 33.5549 52.5075 34.0917 52.2785 34.7042C51.9217 35.662 51.7412 36.6428 51.1814 37.5145C50.678 38.2923 50.5616 39.2465 50.1521 40.0765C49.6899 41.0046 48.9836 41.6692 48.225 42.3458C47.887 42.65 47.6053 43.0146 47.3006 43.3454C46.9777 43.6949 46.7257 44.1456 46.3386 44.4237C45.5008 45.0325 44.5842 45.5584 43.7651 46.2005C43.2732 46.584 42.9237 47.0947 42.3827 47.414C41.8417 47.7369 41.2558 47.9623 40.7185 48.2894C40.2339 48.5862 39.7565 48.9055 39.2307 49.1194C38.6297 49.3599 38.1299 49.2884 37.5138 49.3186C36.8299 49.3489 36.1235 49.5289 35.4813 49.7506C34.9476 49.9384 34.5006 50.1299 33.9559 49.9384C33.5954 49.8106 33.2683 49.5738 32.8891 49.495C32.0064 49.3145 30.9995 49.495 30.1017 49.4725C29.399 49.4538 28.6253 49.292 27.9378 49.1533C27.2617 49.0218 26.7092 48.5486 26.0555 48.3567C25.248 48.1198 24.3048 48.3228 23.5233 48.015C23.204 47.8908 22.8999 47.6357 22.6176 47.4588C22.5576 47.4213 22.4976 47.3837 22.4371 47.3462C22.3281 47.1505 22.2227 46.9518 22.1179 46.7525C22.3093 46.8313 22.5013 46.9179 22.6964 47.0118C23.7184 47.5001 24.9918 47.4249 26.0926 47.6164C27.3321 47.8345 28.5721 48.1574 29.8231 48.3003C30.3302 48.3567 30.8415 48.353 31.3449 48.2967C32.0512 48.2179 32.7837 48.2289 33.4786 48.1089C34.6884 47.895 35.8679 47.3237 37.1225 47.4855C37.3552 47.5157 37.6145 47.6393 37.8513 47.6357C38.2009 47.6242 38.4414 47.3201 38.7231 47.1437C39.2192 46.8318 39.7414 46.8918 40.177 46.4828C40.6053 46.0806 41.0785 45.8218 41.6007 45.5584C42.9607 44.8671 44.0615 43.7439 45.1283 42.6771C46.0225 41.7866 46.89 40.8439 47.5025 39.7317C48.1035 38.6387 47.9835 37.3387 48.4342 36.204C48.7613 35.3923 49.0352 34.6301 49.5652 33.9159C49.8209 33.5742 50.1323 33.281 50.4031 32.9539C50.6921 32.6044 50.8689 32.2251 51.0906 31.8344C51.3348 31.3988 51.6431 30.9966 51.8382 30.5344C52.0224 30.0909 52.0072 29.7002 51.9999 29.238C51.9926 28.7309 51.9999 28.216 51.9999 27.7089C52.7099 28.6104 53.3334 29.5797 53.8556 30.609L53.8561 30.6095Z" fill="url(#paint8_linear_905_6101)"/>
<path style="mix-blend-mode:multiply" opacity="0.4" fill-rule="evenodd" clip-rule="evenodd" d="M51.0306 26.5743C50.8428 26.375 50.655 26.1799 50.4594 25.9921C49.0994 24.6581 47.5328 23.5464 45.8049 22.7013C45.7601 22.6788 45.7147 22.6601 45.6698 22.6376C45.4105 22.5135 45.1513 22.3971 44.8847 22.2845C44.5279 22.1342 44.1668 21.9954 43.7991 21.8713C43.9154 21.9464 44.0505 22.0064 44.0959 22.0288C44.3176 22.1415 44.4981 22.2166 44.652 22.4159C44.8023 22.611 44.8701 22.7576 44.881 23.0059C44.8883 23.2386 44.9222 23.4791 44.9635 23.7123C45.001 23.9262 45.1064 24.1291 45.1513 24.3435C45.1737 24.4714 45.1925 24.584 45.2337 24.7118C45.3276 25.0087 45.4251 25.3019 45.4893 25.6097C45.602 26.158 45.3088 26.6129 45.1137 27.1126C44.8054 27.9051 44.6103 28.7095 44.3813 29.528C44.2008 30.1744 43.8476 30.8129 43.3593 31.2788C42.8819 31.741 42.1761 31.8459 41.7478 32.3457C41.3722 32.7849 40.91 33.2023 40.3805 33.4501C39.768 33.7432 39.1216 33.9686 38.4721 34.1674C38.0063 34.3061 37.518 34.3176 37.0485 34.4418C36.4663 34.5884 35.9326 34.8816 35.3843 35.1179C34.8021 35.3693 34.2575 35.6928 33.6711 35.9442C33.0811 36.192 32.5328 36.5301 31.9469 36.7706C31.6616 36.8869 31.3611 36.9433 31.0715 37.045C30.4705 37.2552 29.8883 37.6387 29.2493 37.7138C29.0276 37.7399 28.8022 37.7926 28.5841 37.7926C28.4078 37.7962 28.2497 37.815 28.0807 37.8792C27.5246 38.0972 27.1829 38.7243 26.5444 38.7279C25.9585 38.7279 25.38 38.7055 24.7972 38.7728C24.5155 38.8067 24.2338 38.7879 23.9521 38.7916C23.8697 38.7916 23.7606 38.8104 23.6777 38.7765C23.5838 38.7389 23.4784 38.6486 23.3845 38.596C23.1743 38.4796 22.9713 38.3294 22.7835 38.1864C22.4152 37.9011 21.9269 38.0586 21.5023 37.9725C21.3745 37.9465 21.1867 37.9611 21.074 37.8974C20.811 37.7393 20.4803 37.4164 20.2664 37.2364C20.2215 37.7169 20.2028 38.2094 20.2028 38.7013C20.2028 39.5579 20.2628 40.3994 20.3833 41.2258C20.436 41.6129 20.5032 41.9958 20.5825 42.3756C20.5825 42.3792 20.5825 42.387 20.5862 42.3907C20.6989 42.9317 20.8376 43.4654 21.003 43.9834C21.2211 44.7049 21.4913 45.4071 21.7996 46.0873H21.8033C22.2879 46.1661 22.7877 46.2303 23.276 46.1588C23.9709 46.0576 24.6621 45.9486 25.3685 45.9747C26.0294 46.0049 26.6461 46.2303 27.2919 46.3393C28.0171 46.4593 28.7719 46.5574 29.5086 46.6059C30.181 46.6471 30.8498 46.7034 31.5186 46.7786C32.022 46.8386 32.5255 46.9366 33.0289 46.97C34.3362 47.0603 35.6138 46.7186 36.8982 46.5829C37.5404 46.5151 38.1795 46.3539 38.8102 46.2183C39.1973 46.1359 39.5729 46.0341 39.9146 45.8239C40.3653 45.5422 40.6507 45.1102 41.0529 44.768C41.4963 44.3887 41.9586 44.0204 42.4202 43.6672C42.8146 43.3668 43.1866 43.0397 43.5998 42.7731C43.9154 42.5665 44.231 42.3709 44.5279 42.1382C45.1101 41.6796 45.5723 41.1501 46.0533 40.594C46.7257 39.8125 47.0038 38.7269 47.274 37.7576C47.5181 36.8671 47.6872 35.9771 48.1755 35.1768C48.416 34.7861 48.5965 34.3354 48.7091 33.8919C48.7806 33.6139 48.8067 33.3019 48.9345 33.039C49.1375 32.6107 49.5355 32.3029 49.7796 31.897C49.9711 31.5777 50.1855 31.2809 50.3206 30.9277C50.5836 30.2328 50.7828 29.5567 50.8955 28.8165C50.978 28.2718 51.1548 27.772 51.3238 27.2498C51.3499 27.1632 51.3765 27.0772 51.399 26.9869C51.279 26.8481 51.1548 26.7089 51.0306 26.5737V26.5743ZM27.87 38.7352C27.9075 38.6413 28.5727 38.3821 28.6739 38.3518C28.6702 38.3555 28.6624 38.3591 28.6514 38.3633L28.2158 38.5511C28.6968 38.3894 29.5644 38.8782 29.1439 39.4301C29.0197 39.5918 28.6968 39.6706 28.5054 39.7009C28.3139 39.7348 28.1934 39.6706 28.0771 39.5058C27.9795 39.3628 27.908 39.115 27.8814 38.946C27.87 38.886 27.8439 38.7958 27.87 38.7358V38.7352ZM22.5691 43.529C22.0506 43.3861 21.7052 43.1946 21.3859 42.759C21.1794 42.4773 20.9988 42.1956 20.9425 41.8497C20.8976 41.5643 20.785 41.3087 20.8523 41.0233C20.9049 40.798 20.9952 40.5502 21.1001 40.3394C21.2164 40.1026 21.3891 39.8584 21.4042 39.7797C21.9228 39.7348 22.4074 39.716 22.9254 39.7118C23.504 39.7082 24.0825 39.7833 24.6647 39.787C24.9277 39.7906 25.1906 39.8021 25.4499 39.7457C25.7018 39.6967 25.946 39.6294 26.2011 39.5882C26.6445 39.5131 27.0577 39.4604 27.4745 39.6821C27.7901 39.8511 27.9367 40.2007 28.0833 40.5163C28.1663 40.6968 28.2148 40.8246 28.2148 41.027C28.2184 41.2711 28.2033 41.5116 28.1736 41.7558C28.1621 41.846 28.1511 41.9399 28.136 42.0302C27.7719 42.8268 26.7687 43.0897 26.0211 43.3678C24.9277 43.7695 23.6918 43.8337 22.5686 43.5295L22.5691 43.529ZM30.5712 45.2344C30.3386 45.8202 29.3578 46.031 28.7944 46.0534C28.5163 46.0649 28.1819 46.0086 27.9378 45.862C27.8027 45.7795 27.6597 45.6215 27.5809 45.4827C27.5173 45.3773 27.3744 45.1822 27.0848 45.2688C27.1448 44.9459 27.2465 44.6376 27.3817 44.3407C27.5095 44.1978 27.6446 44.0627 27.7839 43.9349C28.0468 43.698 28.34 43.4914 28.6556 43.3302C29.1476 43.0824 29.6625 43.2666 30.1356 43.4841C30.4549 43.6307 30.7027 43.8488 30.7705 44.1978C30.8493 44.5958 30.7178 44.8776 30.5712 45.2349V45.2344ZM37.1606 45.1217C36.9801 45.5537 36.7287 45.6512 36.3301 45.8541C35.8642 46.091 35.2972 46.2673 34.7708 46.271C34.5006 46.2746 34.2486 46.1468 34.0044 46.0493C33.8427 45.9856 33.6664 45.9439 33.5386 45.8239C33.1854 45.501 33.1291 45.0273 33.3471 45.1254C33.212 44.8358 33.1254 44.5395 33.0915 44.2275C33.1515 44.1785 33.189 44.1148 33.2078 44.0361C33.3956 43.6829 33.7452 43.3897 34.0905 43.1946C34.7066 42.8414 35.4918 42.8002 36.1491 43.0746C36.4381 43.1946 36.6222 43.3412 36.8403 43.5629C36.9415 43.6683 37.0845 43.7658 37.1632 43.8937C37.3583 44.2208 37.2984 44.7915 37.1596 45.1222L37.1606 45.1217ZM39.1853 45.0539C39.0841 45.1363 38.8884 45.298 38.757 45.2719C38.6479 45.2495 38.4414 45.0278 38.4753 44.9115L38.4038 44.84C38.5613 44.5958 38.7194 44.348 38.8733 44.0961C39.1138 44.2015 39.3277 44.1863 39.4743 44.4492C39.6094 44.6934 39.3653 44.9078 39.1853 45.0539ZM44.2232 33.2388C44.0239 33.5054 43.761 33.7573 43.4532 33.8851C43.0661 34.0469 42.5475 34.1669 42.5288 33.5847C42.5136 33.243 42.57 32.9946 42.7244 32.6795C42.9461 32.2324 43.1563 32.1198 43.5846 31.898C43.7422 31.9168 43.9076 31.9544 44.0281 31.9956C44.2686 32.0744 44.4976 32.2888 44.5315 32.5439C44.5691 32.8105 44.3776 33.04 44.2232 33.2388ZM48.923 30.7065C48.7352 31.2924 48.4833 31.86 48.2245 32.4161C47.9089 33.1 47.8713 33.8022 47.7138 34.5237C47.6235 34.9296 47.4321 35.3766 47.034 35.5342C46.8613 35.602 46.6923 35.5869 46.5003 35.5869C46.3277 35.5869 46.0084 35.6505 46.0193 35.8008C45.9181 35.5191 45.7449 35.1398 45.6776 34.82C45.6062 34.4668 45.5764 34.0876 45.5201 33.7344C45.4601 33.3624 45.4335 32.9905 45.3959 32.6148C45.3657 32.2653 45.2947 31.8975 45.2984 31.5443C45.3135 30.3799 45.9557 28.9297 47.0491 28.3923C47.3835 28.2306 47.7143 28.1555 48.0821 28.216C48.5104 28.2796 48.7545 28.3965 48.946 28.806C49.2053 29.3694 49.1035 30.1285 48.9236 30.707L48.923 30.7065Z" fill="url(#paint9_linear_905_6101)"/>
<path style="mix-blend-mode:multiply" opacity="0.4" fill-rule="evenodd" clip-rule="evenodd" d="M43.7427 31.8151C43.6864 31.8454 43.6337 31.8714 43.5852 31.8975C43.4876 31.8824 43.3937 31.8787 43.3149 31.886L43.7432 31.8146L43.7427 31.8151Z" fill="url(#paint10_linear_905_6101)"/>
<path style="mix-blend-mode:multiply" opacity="0.4" fill-rule="evenodd" clip-rule="evenodd" d="M21.4047 39.7797C21.3786 39.7833 21.3484 39.7833 21.3181 39.787C21.3896 39.7421 21.4157 39.7421 21.4047 39.7797Z" fill="url(#paint11_linear_905_6101)"/>
<path fill-rule="evenodd" clip-rule="evenodd" d="M41.4119 21.2307L44.5362 20C44.5362 20 49.5074 21.9318 52.639 26.1611L52.8347 28.8624C52.8347 28.8624 46.912 26.592 41.4119 21.2307Z" fill="url(#paint12_linear_905_6101)"/>
<path fill-rule="evenodd" clip-rule="evenodd" d="M52.7668 48.714C52.7668 48.714 50.1485 51.5546 48.1697 52.1879L46.5452 52.6835C46.5452 52.6835 39.1341 50.0172 38.7283 45.3789C38.3871 41.4819 45.0521 35.5008 46.8556 34.7892C48.6591 34.0771 50.7708 34.4804 50.7708 34.4804L52.7668 48.714Z" fill="url(#paint13_linear_905_6101)"/>
<path fill-rule="evenodd" clip-rule="evenodd" d="M50.7708 34.4804C49.2079 33.9843 42.4526 37.0956 40.6387 44.0757C40.2709 45.4921 43.6973 50.8727 47.7904 52.1884C49.1489 52.6251 55.3773 47.1839 55.6376 43.4966C55.8979 39.8099 53.0928 35.2175 50.7713 34.4804H50.7708Z" fill="url(#paint14_linear_905_6101)"/>
<path fill-rule="evenodd" clip-rule="evenodd" d="M41.0743 44.8922C42.0384 36.9876 49.2256 34.4141 50.7886 34.9102C51.9175 35.2686 53.578 36.9266 54.5275 38.561C53.5472 36.5426 52.0818 34.8967 50.7708 34.4804C49.2079 33.9843 42.4526 37.0956 40.6387 44.0757C40.5109 44.5677 40.8421 45.539 41.4995 46.6518C41.14 45.8927 41.0289 45.2683 41.0743 44.8922Z" fill="url(#paint15_linear_905_6101)"/>
<path style="mix-blend-mode:multiply" fill-rule="evenodd" clip-rule="evenodd" d="M27.859 53.3612C27.859 53.3612 29.47 53.9517 30.6443 53.6314C30.6443 53.6314 31.0956 49.8216 29.6599 47.3843C28.2242 44.9475 25.7911 48.63 25.7911 48.63L25.2344 50.9625C25.2344 50.9625 26.5882 52.5912 27.859 53.3617V53.3612Z" fill="url(#paint16_linear_905_6101)"/>
<path fill-rule="evenodd" clip-rule="evenodd" d="M29.2555 52.7461L30.2885 52.4696C30.2885 52.4696 30.7862 50.3589 29.9217 47.9779C28.9399 45.2751 25.3413 43.2546 24.8077 43.2108C24.274 43.1675 23.7471 44.3825 23.7471 44.3825L29.2561 52.7456L29.2555 52.7461Z" fill="url(#paint17_linear_905_6101)"/>
<path fill-rule="evenodd" clip-rule="evenodd" d="M45.517 54.8344L43.8017 57.0657C43.8017 57.0657 40.8234 58.5071 37.8341 57.8085L35.6655 56.3473L45.517 54.8344Z" fill="url(#paint18_linear_905_6101)"/>
<path fill-rule="evenodd" clip-rule="evenodd" d="M22.9745 46.055C23.1539 45.2349 23.8765 43.8723 24.5239 43.7392C25.1713 43.6062 28.2315 46.5115 28.9394 48.3807C29.6473 50.2499 29.2905 52.323 29.2555 52.7456C29.2206 53.1682 25.7488 51.9902 23.997 50.5509C22.2451 49.111 22.9745 46.055 22.9745 46.055Z" fill="url(#paint19_linear_905_6101)"/>
<path fill-rule="evenodd" clip-rule="evenodd" d="M28.9394 48.3812C28.231 46.512 25.1713 43.6067 24.5239 43.7398C24.2745 43.7909 24.0137 44.0256 23.7773 44.3407C23.9224 44.2088 24.07 44.1154 24.2145 44.0856C24.8619 43.9526 27.979 46.2647 28.6749 48.1391C29.5289 50.4408 29.0594 52.1018 28.9754 52.8275C29.1439 52.8385 29.2498 52.816 29.2556 52.7466C29.2905 52.3241 29.6479 50.2509 28.9394 48.3817V48.3812Z" fill="url(#paint20_linear_905_6101)"/>
<path fill-rule="evenodd" clip-rule="evenodd" d="M38.6041 40.4422C37.8352 40.0828 38.7074 36.7106 39.4639 35.9771C40.2203 35.2436 42.1876 36.9579 42.4484 38.3602C42.7087 39.7619 40.3648 41.2659 38.6041 40.4427V40.4422Z" fill="url(#paint21_linear_905_6101)"/>
<path fill-rule="evenodd" clip-rule="evenodd" d="M39.3736 40.185C38.758 39.8866 39.456 37.0888 40.0622 36.4805C40.6684 35.8717 42.2439 37.2944 42.4526 38.4577C42.6612 39.6211 40.7837 40.8684 39.3736 40.1855V40.185Z" fill="url(#paint22_linear_905_6101)"/>
<path fill-rule="evenodd" clip-rule="evenodd" d="M44.5362 20C44.5362 20 44.6907 21.8963 46.8259 24.2215C48.9612 26.5466 52.639 26.1611 52.639 26.1611L52.8347 28.8624C52.8347 28.8624 45.0141 25.4057 41.4119 21.2307L44.5362 20Z" fill="url(#paint23_linear_905_6101)"/>
<path fill-rule="evenodd" clip-rule="evenodd" d="M50.6691 36.8082C50.5805 36.8817 50.3869 37.0205 50.5403 37.128C50.582 37.1572 50.618 37.1415 50.6618 37.1546C50.6963 37.1645 50.7046 37.1911 50.7443 37.176C50.869 37.1285 50.8194 36.7743 50.6785 36.8452L50.6691 36.8082Z" fill="#0EDBFF"/>
<path fill-rule="evenodd" clip-rule="evenodd" d="M51.314 38.0962C51.3703 38.0649 51.4287 38.0482 51.4887 38.0466C51.5023 38.1233 51.5727 38.2736 51.4632 38.3336C51.3713 38.3836 51.399 38.2193 51.3557 38.1812L51.314 38.0962Z" fill="#0EDBFF"/>
<path fill-rule="evenodd" clip-rule="evenodd" d="M39.6058 38.8855C39.7232 38.9319 39.8395 38.9804 39.9548 39.0311C39.9924 38.9982 40.0487 39.0044 40.0925 38.9752C40.1489 38.9377 40.2 38.8589 40.2219 38.7932C40.2548 38.6935 40.2042 38.6127 40.1583 38.5365C40.128 38.4859 40.0983 38.4113 40.0518 38.3769C39.9976 38.3367 39.8917 38.3523 39.8348 38.3795C39.7649 38.4129 39.7133 38.4848 39.6668 38.549C39.623 38.609 39.5719 38.7092 39.5698 38.7848C39.5677 38.8662 39.6324 38.9523 39.6919 38.994L39.6053 38.886L39.6058 38.8855Z" fill="#0EDBFF"/>
<path fill-rule="evenodd" clip-rule="evenodd" d="M23.0131 47.7578C23.1305 47.8042 23.2468 47.8527 23.3621 47.9033C23.3991 47.8705 23.4555 47.8767 23.4998 47.8475C23.5562 47.81 23.6073 47.7312 23.6292 47.6655C23.6621 47.5658 23.6115 47.485 23.5656 47.4088C23.5353 47.3582 23.5056 47.2836 23.4591 47.2491C23.4049 47.2085 23.299 47.2246 23.2421 47.2518C23.1722 47.2851 23.1206 47.3571 23.0741 47.4213C23.0303 47.4813 22.9792 47.5815 22.9771 47.6571C22.975 47.7385 23.0397 47.8246 23.0992 47.8663L23.0126 47.7583L23.0131 47.7578Z" fill="#0EDBFF"/>
<path fill-rule="evenodd" clip-rule="evenodd" d="M42.9685 41.8367C42.9185 41.8716 42.8772 41.916 42.8459 41.9686C42.8939 42.0292 42.9174 42.086 42.9998 42.1095C43.0327 42.1189 43.0677 42.1199 43.0943 42.0939C43.1287 42.0605 43.1099 42.0234 43.1193 41.9906C43.1417 41.9107 43.1637 41.8899 43.1188 41.8168C43.0917 41.773 43.0729 41.7553 43.0249 41.7553C42.9915 41.7553 42.9185 41.7647 42.9018 41.8017L42.9691 41.8361L42.9685 41.8367Z" fill="#0EDBFF"/>
<path fill-rule="evenodd" clip-rule="evenodd" d="M43.2351 43.6975C43.2263 43.7179 43.136 43.9474 43.2534 43.8811C43.3124 43.8478 43.2915 43.7575 43.2513 43.7314L43.2576 43.709L43.2351 43.6975Z" fill="#0EDBFF"/>
<path fill-rule="evenodd" clip-rule="evenodd" d="M49.1109 47.0864C49.0321 47.1892 49.0222 47.2309 48.9867 47.3373C49.0201 47.3686 49.0858 47.3858 49.1296 47.3843C49.1985 47.3811 49.2016 47.3592 49.2037 47.2935C49.2053 47.2403 49.2272 47.1986 49.2147 47.1474C49.2016 47.0953 49.1495 47.0415 49.0889 47.0749L49.1114 47.0864H49.1109Z" fill="#0EDBFF"/>
<path fill-rule="evenodd" clip-rule="evenodd" d="M44.1575 42.061C44.2024 42.1022 44.2305 42.1533 44.242 42.2144C44.1794 42.23 44.1721 42.1685 44.1627 42.1199C44.1481 42.0422 44.1841 42.0662 44.2206 42.0041C44.2274 42.0057 44.2342 42.0072 44.241 42.0083L44.157 42.0615L44.1575 42.061Z" fill="#0EDBFF"/>
<path fill-rule="evenodd" clip-rule="evenodd" d="M49.7912 37.0299C49.7411 37.0648 49.7004 37.1086 49.6686 37.1613C49.6983 37.1978 49.6842 37.2646 49.7531 37.2594C49.8016 37.2558 49.8418 37.2036 49.8647 37.1634C49.8919 37.117 49.8945 37.0789 49.8976 37.0283C49.8992 37.0027 49.8992 36.8927 49.8522 36.9652L49.7907 37.0299H49.7912Z" fill="#0EDBFF"/>
<path fill-rule="evenodd" clip-rule="evenodd" d="M49.029 23.9231C49.0859 23.9085 49.1589 23.8772 49.2173 23.8777C49.234 23.8777 49.2559 23.8897 49.2742 23.8918C49.3347 23.897 49.3368 23.884 49.366 23.9325C49.3994 23.9872 49.4145 24.0274 49.4046 24.0921C49.3697 24.3133 49.0572 23.9799 49.1662 23.8986L49.029 23.9226V23.9231Z" fill="#0EDBFF"/>
<path fill-rule="evenodd" clip-rule="evenodd" d="M25.1275 24.3169C25.0284 24.3472 24.8776 24.3582 24.8656 24.4729C24.8552 24.571 25.0174 24.6733 25.0993 24.6999C25.2454 24.7473 25.4838 24.7708 25.5558 24.6054C25.598 24.5084 25.5662 24.3211 25.5067 24.2361C25.3847 24.0613 25.1348 24.1328 24.9444 24.2069L25.1275 24.3169Z" fill="#0EDBFF"/>
<path fill-rule="evenodd" clip-rule="evenodd" d="M50.4829 47.33C50.4385 46.9893 50.3765 46.6529 50.6796 46.4739C50.8444 46.3769 51.1465 46.3425 51.3024 46.4578C51.4151 46.5412 51.5137 46.6967 51.5842 46.8135C51.688 46.9862 51.6608 46.9862 51.6066 47.1438C51.4819 47.5053 51.3969 47.7437 51.0374 47.7442C50.5622 47.7453 50.4891 47.3759 50.4829 46.9168V47.33Z" fill="#0EDBFF"/>
<path fill-rule="evenodd" clip-rule="evenodd" d="M50.6937 37.7508C50.8262 37.7148 50.9394 37.6455 51.0348 37.5437C50.9399 37.4848 50.7317 37.3622 50.6937 37.5411V37.7508Z" fill="#0EDBFF"/>
<path fill-rule="evenodd" clip-rule="evenodd" d="M23.7679 46.4233C23.9005 46.3873 24.0137 46.3185 24.1091 46.2162C24.0142 46.1573 23.8055 46.0347 23.7679 46.2136V46.4233Z" fill="#0EDBFF"/>
<path fill-rule="evenodd" clip-rule="evenodd" d="M23.7679 49.2832C23.9005 49.2472 24.0137 49.1783 24.1091 49.0761C24.0142 49.0171 23.8055 48.8945 23.7679 49.0735V49.2832Z" fill="#0EDBFF"/>
<path fill-rule="evenodd" clip-rule="evenodd" d="M43.8998 39.0472C44.0318 38.8855 44.2217 38.5897 44.4606 38.7519C44.5994 38.8458 44.639 39.0952 44.5065 39.1943C44.3834 39.2861 44.2707 39.3122 44.1319 39.3503C44.026 39.3795 43.868 39.3091 43.8998 39.1521V39.0472Z" fill="#0EDBFF"/>
<path fill-rule="evenodd" clip-rule="evenodd" d="M48.3664 46.4118C48.4984 46.2501 48.6883 45.9543 48.9272 46.1166C49.066 46.2105 49.1056 46.4598 48.9731 46.559C48.85 46.6508 48.7373 46.6769 48.5985 46.7149C48.4926 46.7442 48.3346 46.6737 48.3664 46.5167V46.4118Z" fill="#0EDBFF"/>
<path fill-rule="evenodd" clip-rule="evenodd" d="M47.694 22.0054C47.9001 22.0398 48.2506 22.0596 48.2277 22.3476C48.2141 22.5145 48.0175 22.6721 47.8656 22.6053C47.7253 22.5437 47.6465 22.4582 47.5453 22.3565C47.4676 22.2787 47.4509 22.1066 47.6032 22.057L47.6945 22.0054H47.694Z" fill="#0EDBFF"/>
<path fill-rule="evenodd" clip-rule="evenodd" d="M46.9626 48.3202C47.0946 48.1584 47.2845 47.8632 47.5234 48.0249C47.6622 48.1188 47.7018 48.3682 47.5693 48.4673C47.4462 48.5591 47.3335 48.5852 47.1947 48.6233C47.0888 48.6525 46.9308 48.5821 46.9626 48.425V48.3202Z" fill="#0EDBFF"/>
<path fill-rule="evenodd" clip-rule="evenodd" d="M40.874 38.8026C40.7055 38.9095 40.4217 39.0425 40.393 39.2736C40.3758 39.4134 40.44 39.4953 40.5662 39.5559C40.6737 39.6075 40.8349 39.6117 40.9423 39.5574C41.0968 39.4797 41.2752 39.3508 41.3446 39.1865C41.3946 39.0681 41.3863 38.9867 41.3305 38.8688C41.3007 38.8057 41.2407 38.73 41.1729 38.7066C40.9575 38.632 40.8281 38.8432 40.6685 38.9387L40.8735 38.802L40.874 38.8026Z" fill="#0EDBFF"/>
<path fill-rule="evenodd" clip-rule="evenodd" d="M41.4202 38.188C41.512 38.2204 41.5897 38.272 41.6529 38.3414C41.561 38.3727 41.463 38.4452 41.3691 38.4118C41.2475 38.3685 41.2246 38.2527 41.2522 38.1364C41.2673 38.0727 41.3816 37.9611 41.4468 37.9892C41.4797 38.0033 41.4859 38.0482 41.4969 38.0769C41.5198 38.1374 41.5209 38.1244 41.4885 38.188H41.4202Z" fill="#0EDBFF"/>
<path fill-rule="evenodd" clip-rule="evenodd" d="M46.0747 37.1723C45.6286 37.563 45.2092 38.0305 44.9729 38.5897C44.8523 38.8745 45.0662 38.8886 45.325 38.8385C45.8263 38.7405 46.3303 38.6022 46.8254 38.4749C47.1185 38.3998 47.539 38.2449 47.743 37.996C47.899 37.8051 47.9642 37.4759 47.9298 37.2359C47.8818 36.9 47.6428 36.769 47.3376 36.685C46.6407 36.492 45.6516 37.2443 45.3928 37.8865L46.0747 37.1728V37.1723Z" fill="#0EDBFF"/>
<path fill-rule="evenodd" clip-rule="evenodd" d="M43.5899 39.7097C43.7344 39.7139 43.869 39.7489 43.9936 39.8146C43.9576 39.8574 43.9691 39.9153 43.9503 39.9654C43.9222 40.0395 43.8517 40.1146 43.7855 40.1568C43.6744 40.2273 43.4902 40.2528 43.3671 40.2064C42.9936 40.0645 43.5664 39.6216 43.6926 39.7781L43.5904 39.7097H43.5899Z" fill="#0EDBFF"/>
<path fill-rule="evenodd" clip-rule="evenodd" d="M46.9621 22.3361C47.0889 22.4243 47.2255 22.4916 47.322 22.61C47.4332 22.7467 47.5422 22.8698 47.6283 23.0232C47.6716 23.1004 47.7764 23.2694 47.622 23.2908C47.4546 23.3137 47.1582 23.0936 47.0367 23.0075C46.8285 22.8609 46.6272 22.7263 46.4769 22.515C46.4008 22.4081 46.2849 22.2229 46.3621 22.0946C46.4268 21.9866 46.5197 21.9678 46.6381 21.9704C46.7618 21.973 46.8332 22.0095 46.9303 22.0878C46.9751 22.1238 47.1921 22.3445 47.1186 22.4039L46.9621 22.3356V22.3361Z" fill="#0EDBFF"/>
<path fill-rule="evenodd" clip-rule="evenodd" d="M48.5808 36.5296C48.5193 36.5739 48.0477 36.8358 48.272 36.9495C48.3925 37.0106 48.6299 36.9928 48.7525 36.9407C48.8615 36.8942 48.9721 36.8228 48.9038 36.697C48.7655 36.4435 48.4186 36.5896 48.2391 36.7002L48.5803 36.5296H48.5808Z" fill="#0EDBFF"/>
<path fill-rule="evenodd" clip-rule="evenodd" d="M23.9386 47.9743C23.9881 48.2508 24.045 48.5534 24.2855 48.7365C24.5349 48.9258 24.8171 48.8492 25.0618 48.7047C25.2433 48.5977 25.4144 48.4835 25.5918 48.3744C25.6951 48.3108 25.7859 48.2946 25.7905 48.147C25.7952 47.9884 25.6492 47.775 25.5579 47.6545C25.4488 47.5105 25.2287 47.3384 25.0586 47.2752C24.6872 47.1365 23.9782 47.2742 23.9866 47.7797L23.938 47.9743H23.9386Z" fill="#0EDBFF"/>
<path fill-rule="evenodd" clip-rule="evenodd" d="M48.8073 48.5179C48.8422 48.712 48.8819 48.9243 49.0509 49.0526C49.2262 49.1856 49.4239 49.1319 49.5955 49.0307C49.7228 48.9556 49.8433 48.8752 49.9675 48.7986C50.04 48.7537 50.1036 48.7427 50.1068 48.6389C50.1104 48.5273 50.0076 48.3781 49.9435 48.2936C49.8668 48.1924 49.7124 48.0718 49.5934 48.0275C49.3326 47.9299 48.8349 48.027 48.8412 48.3817L48.8073 48.5184V48.5179Z" fill="#0EDBFF"/>
<path style="mix-blend-mode:screen" d="M48.7522 39.9694C49.9737 38.7478 49.9737 36.7672 48.7522 35.5457C47.5306 34.3241 45.55 34.3241 44.3285 35.5457C43.1069 36.7672 43.1069 38.7478 44.3285 39.9694C45.55 41.1909 47.5306 41.1909 48.7522 39.9694Z" fill="url(#paint24_radial_905_6101)"/>
<path style="mix-blend-mode:screen" fill-rule="evenodd" clip-rule="evenodd" d="M48.5396 23.8647C48.1436 24.4098 47.1509 24.3634 46.3224 23.7619C45.494 23.1599 45.1434 22.2302 45.5389 21.6856C45.9348 21.1404 46.9276 21.1868 47.756 21.7883C48.5845 22.3904 48.935 23.32 48.5396 23.8647Z" fill="url(#paint25_radial_905_6101)"/>
<path fill-rule="evenodd" clip-rule="evenodd" d="M44.5889 20.3094C44.5889 20.3094 45.4058 23.7796 47.7033 25.0875C50.6107 26.7422 52.639 26.1611 52.639 26.1611C52.639 26.1611 50.041 26.0693 47.6386 24.4312C45.6328 23.0633 44.5889 20.3094 44.5889 20.3094Z" fill="url(#paint26_linear_905_6101)"/>
<path style="mix-blend-mode:multiply" opacity="0.4" fill-rule="evenodd" clip-rule="evenodd" d="M39.1342 47.0645L40.6773 44.7962C40.6773 44.7962 42.656 50.4246 47.7899 52.1879L46.6652 52.9131C46.6652 52.9131 41.4317 51.4236 39.1342 47.0645Z" fill="url(#paint27_linear_905_6101)"/>
<path style="mix-blend-mode:multiply" fill-rule="evenodd" clip-rule="evenodd" d="M42.0561 22.0106C42.0561 22.0106 49.4583 29.4618 54.7857 32.7734C54.7857 32.7734 54.2703 30.7373 52.8346 28.8624C52.8346 28.8624 48.3622 27.3917 42.0561 22.0106Z" fill="url(#paint28_linear_905_6101)"/>
<path style="mix-blend-mode:screen" d="M33.3444 33.8585C36.7917 31.5905 38.4076 27.9604 36.9536 25.7503C35.4996 23.5402 31.5263 23.587 28.079 25.8549C24.6317 28.1228 23.0158 31.753 24.4698 33.9631C25.9238 36.1732 29.897 36.1264 33.3444 33.8585Z" fill="url(#paint29_radial_905_6101)"/>
</g>
<defs>
<filter id="filter0_d_905_6101" x="-1" y="0" width="78" height="77.9996" filterUnits="userSpaceOnUse" color-interpolation-filters="sRGB">
<feFlood flood-opacity="0" result="BackgroundImageFix"/>
<feColorMatrix in="SourceAlpha" type="matrix" values="0 0 0 0 0 0 0 0 0 0 0 0 0 0 0 0 0 0 127 0" result="hardAlpha"/>
<feOffset/>
<feGaussianBlur stdDeviation="10"/>
<feComposite in2="hardAlpha" operator="out"/>
<feColorMatrix type="matrix" values="0 0 0 0 0.298039 0 0 0 0 0.505882 0 0 0 0 0.937255 0 0 0 0.4 0"/>
<feBlend mode="normal" in2="BackgroundImageFix" result="effect1_dropShadow_905_6101"/>
<feBlend mode="normal" in="SourceGraphic" in2="effect1_dropShadow_905_6101" result="shape"/>
</filter>
<linearGradient id="paint0_linear_905_6101" x1="26.1766" y1="29.1514" x2="26.1766" y2="22.9877" gradientUnits="userSpaceOnUse">
<stop stop-color="#9A00B3"/>
<stop offset="1" stop-color="#7F72FF"/>
</linearGradient>
<linearGradient id="paint1_linear_905_6101" x1="24.8123" y1="29.4639" x2="27.1286" y2="22.393" gradientUnits="userSpaceOnUse">
<stop stop-color="#5B008B"/>
<stop offset="1" stop-color="#8E00FF"/>
</linearGradient>
<radialGradient id="paint2_radial_905_6101" cx="0" cy="0" r="1" gradientUnits="userSpaceOnUse" gradientTransform="translate(26.9774 30.3758) scale(28.5899 28.5899)">
<stop stop-color="#60DBFF"/>
<stop offset="0.09" stop-color="#5FD5FF"/>
<stop offset="0.21" stop-color="#5EC4FF"/>
<stop offset="0.34" stop-color="#5CA8FF"/>
<stop offset="0.49" stop-color="#5A81FF"/>
<stop offset="0.64" stop-color="#5651FF"/>
<stop offset="0.68" stop-color="#5643FF"/>
<stop offset="0.74" stop-color="#553DF8"/>
<stop offset="0.83" stop-color="#542EE4"/>
<stop offset="0.93" stop-color="#5315C5"/>
<stop offset="1" stop-color="#5200AB"/>
</radialGradient>
<linearGradient id="paint3_linear_905_6101" x1="20.2017" y1="33.8179" x2="45.8044" y2="33.8179" gradientUnits="userSpaceOnUse">
<stop offset="0.01" stop-color="#81E0FF"/>
<stop offset="0.32" stop-color="#82DDFF"/>
<stop offset="0.55" stop-color="#85D3FF"/>
<stop offset="0.75" stop-color="#8BC3FF"/>
<stop offset="0.94" stop-color="#93ADFF"/>
<stop offset="1" stop-color="#97A4FF"/>
</linearGradient>
<linearGradient id="paint4_linear_905_6101" x1="46.0658" y1="54.8344" x2="46.0658" y2="46.477" gradientUnits="userSpaceOnUse">
<stop stop-color="#B8C2FF"/>
<stop offset="1" stop-color="#5B729C"/>
</linearGradient>
<radialGradient id="paint5_radial_905_6101" cx="0" cy="0" r="1" gradientUnits="userSpaceOnUse" gradientTransform="translate(24.9934 26.5863) scale(23.4262 23.4262)">
<stop stop-color="#FFFFD9"/>
<stop offset="1"/>
</radialGradient>
<linearGradient id="paint6_linear_905_6101" x1="20.364" y1="28.78" x2="42.7473" y2="28.78" gradientUnits="userSpaceOnUse">
<stop stop-color="#B8C2FF"/>
<stop offset="1" stop-color="#7D72B3"/>
</linearGradient>
<linearGradient id="paint7_linear_905_6101" x1="23.997" y1="45.441" x2="55.7983" y2="45.441" gradientUnits="userSpaceOnUse">
<stop stop-color="#B8C2FF"/>
<stop offset="1" stop-color="#7D72B3"/>
</linearGradient>
<linearGradient id="paint8_linear_905_6101" x1="22.1184" y1="38.8631" x2="53.8561" y2="38.8631" gradientUnits="userSpaceOnUse">
<stop stop-color="#B8C2FF"/>
<stop offset="1" stop-color="#7D72B3"/>
</linearGradient>
<linearGradient id="paint9_linear_905_6101" x1="20.2028" y1="34.4282" x2="51.399" y2="34.4282" gradientUnits="userSpaceOnUse">
<stop stop-color="#B8C2FF"/>
<stop offset="1" stop-color="#7D72B3"/>
</linearGradient>
<linearGradient id="paint10_linear_905_6101" x1="43.3144" y1="31.8563" x2="43.7427" y2="31.8563" gradientUnits="userSpaceOnUse">
<stop stop-color="#E8DDFF"/>
<stop offset="1" stop-color="#AA8AD8"/>
</linearGradient>
<linearGradient id="paint11_linear_905_6101" x1="21.3181" y1="39.7698" x2="21.4073" y2="39.7698" gradientUnits="userSpaceOnUse">
<stop stop-color="#E8DDFF"/>
<stop offset="1" stop-color="#AA8AD8"/>
</linearGradient>
<linearGradient id="paint12_linear_905_6101" x1="41.4119" y1="24.4312" x2="52.8347" y2="24.4312" gradientUnits="userSpaceOnUse">
<stop stop-color="#7F72FF"/>
<stop offset="1" stop-color="#9A00B3"/>
</linearGradient>
<linearGradient id="paint13_linear_905_6101" x1="44.0067" y1="51.8525" x2="49.801" y2="34.1627" gradientUnits="userSpaceOnUse">
<stop stop-color="#280077"/>
<stop offset="1" stop-color="#812CFF"/>
</linearGradient>
<linearGradient id="paint14_linear_905_6101" x1="45.6629" y1="51.4925" x2="51.1911" y2="34.6189" gradientUnits="userSpaceOnUse">
<stop stop-color="#7A00B3"/>
<stop offset="1" stop-color="#B136FF"/>
</linearGradient>
<linearGradient id="paint15_linear_905_6101" x1="47.5693" y1="46.6518" x2="47.5693" y2="34.4293" gradientUnits="userSpaceOnUse">
<stop stop-color="#8E00B3"/>
<stop offset="1" stop-color="#E05CFF"/>
</linearGradient>
<linearGradient id="paint16_linear_905_6101" x1="27.9728" y1="53.7264" x2="27.9728" y2="46.5506" gradientUnits="userSpaceOnUse">
<stop stop-color="#81A9CE"/>
<stop offset="1" stop-color="#5B729C"/>
</linearGradient>
<linearGradient id="paint17_linear_905_6101" x1="25.9564" y1="51.6652" x2="28.3499" y2="44.3585" gradientUnits="userSpaceOnUse">
<stop stop-color="#280077"/>
<stop offset="1" stop-color="#812CFF"/>
</linearGradient>
<linearGradient id="paint18_linear_905_6101" x1="40.5912" y1="58" x2="40.5912" y2="54.8344" gradientUnits="userSpaceOnUse">
<stop stop-color="#7A00B3"/>
<stop offset="0.92" stop-color="#7006FC"/>
<stop offset="1" stop-color="#7006F9"/>
</linearGradient>
<linearGradient id="paint19_linear_905_6101" x1="26.0999" y1="52.8332" x2="26.0999" y2="43.7351" gradientUnits="userSpaceOnUse">
<stop stop-color="#7A00B3"/>
<stop offset="1" stop-color="#B136FF"/>
</linearGradient>
<linearGradient id="paint20_linear_905_6101" x1="26.5767" y1="52.8296" x2="26.5767" y2="43.7351" gradientUnits="userSpaceOnUse">
<stop stop-color="#8E00B3"/>
<stop offset="1" stop-color="#E05CFF"/>
</linearGradient>
<linearGradient id="paint21_linear_905_6101" x1="39.7038" y1="40.8209" x2="41.2261" y2="36.1722" gradientUnits="userSpaceOnUse">
<stop stop-color="#5B008B"/>
<stop offset="1" stop-color="#8E00FF"/>
</linearGradient>
<linearGradient id="paint22_linear_905_6101" x1="40.2344" y1="40.485" x2="41.4937" y2="36.6402" gradientUnits="userSpaceOnUse">
<stop stop-color="#A400CA"/>
<stop offset="1" stop-color="#B136FF"/>
</linearGradient>
<linearGradient id="paint23_linear_905_6101" x1="46.5478" y1="26.8033" x2="48.3659" y2="21.2541" gradientUnits="userSpaceOnUse">
<stop stop-color="#5B008B"/>
<stop offset="1" stop-color="#8E00FF"/>
</linearGradient>
<radialGradient id="paint24_radial_905_6101" cx="0" cy="0" r="1" gradientUnits="userSpaceOnUse" gradientTransform="translate(46.5403 37.7573) scale(3.12802)">
<stop stop-color="#317AFF"/>
<stop offset="0.1" stop-color="#2967D7"/>
<stop offset="0.29" stop-color="#1C4896"/>
<stop offset="0.47" stop-color="#122E60"/>
<stop offset="0.64" stop-color="#0A1A37"/>
<stop offset="0.78" stop-color="#040B18"/>
<stop offset="0.91" stop-color="#010306"/>
<stop offset="1"/>
</radialGradient>
<radialGradient id="paint25_radial_905_6101" cx="0" cy="0" r="1" gradientUnits="userSpaceOnUse" gradientTransform="translate(46.9755 22.8682) rotate(35.99) scale(1.85407 1.22368)">
<stop stop-color="#317AFF"/>
<stop offset="0.1" stop-color="#2967D7"/>
<stop offset="0.29" stop-color="#1C4896"/>
<stop offset="0.47" stop-color="#122E60"/>
<stop offset="0.64" stop-color="#0A1A37"/>
<stop offset="0.78" stop-color="#040B18"/>
<stop offset="0.91" stop-color="#010306"/>
<stop offset="1"/>
</radialGradient>
<linearGradient id="paint26_linear_905_6101" x1="48.6142" y1="26.2602" x2="48.6142" y2="20.3094" gradientUnits="userSpaceOnUse">
<stop stop-color="#B000D9"/>
<stop offset="1" stop-color="#E05CFF"/>
</linearGradient>
<linearGradient id="paint27_linear_905_6101" x1="43.462" y1="52.9136" x2="43.462" y2="44.7967" gradientUnits="userSpaceOnUse">
<stop stop-color="#B8C2FF"/>
<stop offset="1" stop-color="#7D72B3"/>
</linearGradient>
<linearGradient id="paint28_linear_905_6101" x1="48.4212" y1="32.7734" x2="48.4212" y2="22.0106" gradientUnits="userSpaceOnUse">
<stop stop-color="#81A9CE"/>
<stop offset="1" stop-color="#5B729C"/>
</linearGradient>
<radialGradient id="paint29_radial_905_6101" cx="0" cy="0" r="1" gradientUnits="userSpaceOnUse" gradientTransform="translate(30.9041 29.7073) rotate(-33.34) scale(7.48546 4.79607)">
<stop stop-color="#06FEFF"/>
<stop offset="0.17" stop-color="#04C4C4"/>
<stop offset="0.4" stop-color="#037F7F"/>
<stop offset="0.6" stop-color="#014848"/>
<stop offset="0.78" stop-color="#002121"/>
<stop offset="0.92" stop-color="#000808"/>
<stop offset="1"/>
</radialGradient>
</defs>
</svg>
