<svg width="78" height="78" viewBox="0 0 78 78" fill="none" xmlns="http://www.w3.org/2000/svg">
<g filter="url(#filter0_d_905_6303)">
<path fill-rule="evenodd" clip-rule="evenodd" d="M58 43.2732L57.8623 43.7672C57.8586 43.79 57.8506 43.8092 57.8431 43.8363C57.4678 45.123 56.9626 46.3556 56.3421 47.5158C55.3313 49.4034 54.0179 51.1039 52.4595 52.5549C50.6484 54.2399 48.5157 55.5799 46.1607 56.4758C44.0317 57.2835 41.7229 57.7243 39.3068 57.7243C38.966 57.7243 38.6177 57.7169 38.2806 57.6977H38.2769C37.7712 57.6711 37.2698 57.6249 36.7758 57.5637C33.5323 57.1389 30.5419 55.9095 28.0109 54.0756C27.7732 53.9034 27.5398 53.7274 27.3138 53.5471C27.7578 53.1643 28.6963 53.126 28.6963 53.126L27.3904 52.0881L24.1166 50.3265C23.4886 49.5337 22.9218 48.6877 22.4241 47.7955C22.3055 47.5849 22.1907 47.3706 22.0796 47.1521C22.0796 47.1447 22.0721 47.1404 22.0679 47.133C21.953 46.8995 21.8419 46.6656 21.7345 46.4321H21.7308C21.3974 45.6931 21.1028 44.9311 20.8651 44.15C20.6891 43.5869 20.536 43.0089 20.4131 42.4192C20.4094 42.4155 20.4094 42.4075 20.4094 42.4038C20.3254 41.9939 20.2526 41.577 20.1951 41.1553C20.0649 40.2594 20 39.348 20 38.4175C20 38.2032 20.0037 37.9847 20.0117 37.7741C20.0191 37.4562 20.0383 37.1387 20.0691 36.8282C20.092 36.5182 20.1265 36.2077 20.1648 35.9014C20.1648 35.8785 20.1686 35.8594 20.1723 35.8323C20.2297 35.4032 20.2988 34.9863 20.3866 34.5689C20.5051 33.9675 20.6545 33.3741 20.8343 32.7962C21.0757 31.9842 21.3702 31.1994 21.7191 30.4412C22.0524 29.7058 22.4316 28.9938 22.8564 28.3084C24.1735 27.6113 25.0163 27.2476 25.0163 27.2476C25.0163 27.2476 47.4932 22.7865 47.8415 22.4037C48.186 22.0245 49.8902 22.2622 49.8902 22.2622C50.943 22.9551 51.9272 23.7478 52.8269 24.6284C53.0374 24.8315 53.2406 25.0458 53.4474 25.2601C53.5814 25.4058 53.7154 25.5589 53.8457 25.7083C54.0679 25.9609 54.2859 26.2251 54.4965 26.4894C55.2659 27.4699 55.9438 28.5227 56.5107 29.6367C56.7329 30.0658 56.9355 30.506 57.1232 30.9537C57.1232 30.9575 57.1269 30.9612 57.1269 30.9654C58.8614 37.7507 56.7212 43.5056 56.7212 43.5056C57.196 43.345 57.6289 43.2833 58 43.2721V43.2732Z" fill="url(#paint0_radial_905_6303)"/>
<path fill-rule="evenodd" clip-rule="evenodd" d="M58 43.2732L57.8623 43.7672C57.8586 43.79 57.8506 43.8092 57.8431 43.8363C57.4678 45.123 56.9626 46.3556 56.3421 47.5158C55.3313 49.4034 54.0179 51.1039 52.4595 52.5549C50.6484 54.2399 48.5157 55.5799 46.1607 56.4758C44.0317 57.2835 41.7229 57.7243 39.3068 57.7243C38.966 57.7243 38.6177 57.7169 38.2806 57.6977H38.2769C37.7712 57.6711 37.2698 57.6249 36.7758 57.5637C33.5323 57.1389 30.5419 55.9095 28.0109 54.0756C27.7732 53.9034 27.5398 53.7274 27.3138 53.5471C27.7578 53.1643 28.6963 53.126 28.6963 53.126L27.3904 52.0881L24.1166 50.3265C23.4886 49.5337 22.9218 48.6877 22.4241 47.7955C22.3055 47.5849 22.1907 47.3706 22.0796 47.1521C22.0796 47.1447 22.0721 47.1404 22.0679 47.133C21.953 46.8995 21.8419 46.6656 21.7345 46.4321H21.7308C21.3974 45.6931 21.1028 44.9311 20.8651 44.15C20.6891 43.5869 20.536 43.0089 20.4131 42.4192C20.4094 42.4155 20.4094 42.4075 20.4094 42.4038C20.3254 41.9939 20.2526 41.577 20.1951 41.1553C20.0649 40.2594 20 39.348 20 38.4175C20 38.2032 20.0037 37.9847 20.0117 37.7741C20.0191 37.4562 20.0383 37.1387 20.0691 36.8282C20.092 36.5182 20.1265 36.2077 20.1648 35.9014C20.1648 35.8785 20.1686 35.8594 20.1723 35.8323C20.2297 35.4032 20.2988 34.9863 20.3866 34.5689C20.5051 33.9675 20.6545 33.3741 20.8343 32.7962C21.0757 31.9842 21.3702 31.1994 21.7191 30.4412C22.0524 29.7058 22.4316 28.9938 22.8564 28.3084C24.1735 27.6113 25.0163 27.2476 25.0163 27.2476C25.0163 27.2476 47.4932 22.7865 47.8415 22.4037C48.186 22.0245 49.8902 22.2622 49.8902 22.2622C50.943 22.9551 51.9272 23.7478 52.8269 24.6284C53.0374 24.8315 53.2406 25.0458 53.4474 25.2601C53.5814 25.4058 53.7154 25.5589 53.8457 25.7083C54.0679 25.9609 54.2859 26.2251 54.4965 26.4894C55.2659 27.4699 55.9438 28.5227 56.5107 29.6367C56.7329 30.0658 56.9355 30.506 57.1232 30.9537C57.1232 30.9575 57.1269 30.9612 57.1269 30.9654C58.8614 37.7507 56.7212 43.5056 56.7212 43.5056C57.196 43.345 57.6289 43.2833 58 43.2721V43.2732Z" fill="url(#paint1_radial_905_6303)"/>
<path fill-rule="evenodd" clip-rule="evenodd" d="M57.4485 38.418C57.4485 39.1034 57.4103 39.7771 57.3337 40.4396C57.2226 41.4696 57.0237 42.4729 56.7403 43.4417C56.7366 43.4646 56.7286 43.4837 56.7212 43.5066C56.3686 44.7168 55.8938 45.8728 55.3121 46.9644C54.3624 48.7371 53.1257 50.3339 51.6629 51.6972C49.963 53.2823 47.9563 54.5425 45.747 55.381C43.7445 56.143 41.5772 56.5566 39.3062 56.5566C38.9845 56.5566 38.6591 56.5492 38.3411 56.5301H38.3374C37.8626 56.5072 37.3915 56.4609 36.9284 56.4035C33.8805 56.0052 31.0736 54.8488 28.6957 53.126C28.3395 52.8734 27.9949 52.6012 27.662 52.322C27.5701 52.2454 27.4781 52.1689 27.3903 52.0886C26.5289 51.3421 25.7399 50.5072 25.0353 49.6076C24.4457 48.861 23.9134 48.0682 23.446 47.2297C23.3349 47.0309 23.2275 46.8277 23.1206 46.6246C23.1206 46.6172 23.1169 46.6129 23.1132 46.6055C23.002 46.3875 22.8989 46.1689 22.7989 45.9467H22.7952C22.4815 45.2538 22.2055 44.5376 21.9833 43.8022C21.8147 43.2737 21.6733 42.7303 21.5584 42.1789C21.5547 42.1752 21.5547 42.1672 21.5547 42.1635C21.4744 41.7769 21.4053 41.3861 21.3516 40.9916C21.2293 40.1493 21.1676 39.2916 21.1676 38.4186C21.1676 38.2154 21.1713 38.0129 21.1793 37.8135C21.1867 37.5146 21.2059 37.2163 21.233 36.925C21.2559 36.6341 21.2867 36.3427 21.325 36.0556C21.325 36.0327 21.3287 36.0136 21.3324 35.9907C21.3861 35.5887 21.451 35.1942 21.5313 34.8039C21.6424 34.2371 21.7839 33.682 21.9524 33.138C22.1784 32.3761 22.4581 31.637 22.7835 30.925C23.136 30.1476 23.5417 29.4011 23.9974 28.6849C24.3117 28.1872 24.652 27.7086 25.0162 27.2487C25.5219 26.5979 26.0727 25.9853 26.6629 25.4105C29.9288 22.2324 34.3899 20.2757 39.3062 20.2757C39.4976 20.2757 39.6891 20.2794 39.8768 20.2831C40.0799 20.2906 40.2825 20.2986 40.4856 20.314C41.0487 20.3523 41.6075 20.4134 42.1552 20.5017C42.1626 20.5017 42.1669 20.5054 42.1743 20.5054C42.6337 20.5745 43.0857 20.666 43.5297 20.7734C44.1039 20.9111 44.667 21.0722 45.2184 21.2636C45.5938 21.3902 45.9612 21.5316 46.3249 21.6848C46.5966 21.7996 46.8609 21.9182 47.1252 22.0447C47.1709 22.0676 47.2172 22.0867 47.2629 22.1096C49.0245 22.971 50.6212 24.1046 52.0069 25.4637C52.2058 25.6551 52.3972 25.8545 52.5891 26.0571C52.7157 26.1948 52.8417 26.3368 52.9645 26.4782C53.1751 26.7154 53.3782 26.9648 53.5771 27.2136C54.3008 28.1324 54.9362 29.1203 55.4684 30.1694C56.0927 31.3871 56.5829 32.685 56.9158 34.0446C57.13 34.9023 57.2795 35.7828 57.364 36.683C57.4214 37.2536 57.448 37.8315 57.448 38.4175L57.4485 38.418Z" fill="url(#paint2_radial_905_6303)"/>
<path style="mix-blend-mode:screen" fill-rule="evenodd" clip-rule="evenodd" d="M30.4494 31.1887C30.4494 31.1887 29.9682 32.2586 30.3691 33.3443C30.77 34.4301 31.8946 33.7096 33.2367 33.3443C34.5787 32.9791 35.9575 31.5679 36.8279 30.6958C37.6984 29.8233 38.5326 28.6264 38.4603 27.4656C38.388 26.3049 37.1624 25.5424 37.1624 25.5424C37.1624 25.5424 37.608 24.974 37.2336 27.2487C36.8593 29.5234 36.3499 30.3348 35.8634 30.6958C35.3769 31.0569 33.8955 31.9204 33.0878 32.4027C32.2801 32.8849 31.3778 33.3869 30.8423 33.2699C30.3074 33.1529 30.0251 31.9512 30.4494 31.1893V31.1887Z" fill="url(#paint3_radial_905_6303)"/>
<path style="mix-blend-mode:screen" fill-rule="evenodd" clip-rule="evenodd" d="M32.9081 30.4055C32.9081 30.4055 32.2211 31.0154 32.4024 31.5078C32.5837 32.0001 33.8896 31.6848 34.7239 30.6272C35.5582 29.5696 34.8989 28.7157 34.8989 28.7157C34.8989 28.7157 34.5926 30.4805 33.7806 30.791C32.9687 31.101 32.7044 30.9707 32.7044 30.9707C32.7044 30.9707 32.5784 30.8288 32.9076 30.4055H32.9081Z" fill="url(#paint4_radial_905_6303)"/>
<path style="mix-blend-mode:screen" fill-rule="evenodd" clip-rule="evenodd" d="M30.8269 31.1675C30.8269 31.1675 31.4958 30.4092 32.2572 29.6989C33.0192 28.989 34.3373 28.7152 34.3373 28.7152C34.3373 28.7152 33.5679 28.3073 32.5821 28.8811C31.5963 29.4548 30.8269 31.1675 30.8269 31.1675Z" fill="url(#paint5_radial_905_6303)"/>
<path style="mix-blend-mode:screen" fill-rule="evenodd" clip-rule="evenodd" d="M28.095 31.1808C28.095 31.1808 29.646 29.4575 31.532 28.7152C33.4186 27.9729 34.0715 27.7554 34.9058 27.0663C35.7401 26.3772 36.6823 25.8253 36.6823 25.8253C36.6823 25.8253 34.8462 25.9189 32.0403 27.6964C29.2344 29.474 28.0875 30.6028 28.0955 31.1808H28.095Z" fill="url(#paint6_radial_905_6303)"/>
<path style="mix-blend-mode:screen" fill-rule="evenodd" clip-rule="evenodd" d="M24.3118 30.8384C24.3118 30.8384 26.997 28.1548 29.101 27.103C31.205 26.0513 32.6199 25.3616 34.5059 24.89C36.3925 24.4184 39.3079 23.5958 39.3079 23.5958L39.8343 23.3315C39.8343 23.3315 33.836 23.4527 29.8991 25.8258C25.9622 28.1989 24.3118 30.8384 24.3118 30.8384Z" fill="url(#paint7_radial_905_6303)"/>
<path style="mix-blend-mode:screen" fill-rule="evenodd" clip-rule="evenodd" d="M27.5313 33.9324C27.5313 33.9324 27.9785 37.6385 28.6234 37.8055C29.2679 37.9719 31.5793 37.9549 35.0147 36.1981C38.4497 34.4413 39.1478 34.8475 41.0726 32.8903C42.998 30.933 43.7775 28.712 44.3736 27.2487C44.9696 25.7854 45.144 24.1153 44.9579 23.5958C44.9579 23.5958 45.6066 23.9829 45.6066 25.4339C45.6066 26.885 45.1711 29.3229 44.5549 30.7336C43.9381 32.1448 42.3419 34.3573 40.4197 35.4457C38.497 36.5341 34.6521 38.6238 30.879 38.5946C27.1064 38.5653 27.7025 38.2925 27.3138 37.5402C26.9251 36.7878 27.5313 33.9319 27.5313 33.9319V33.9324Z" fill="url(#paint8_radial_905_6303)"/>
<g style="mix-blend-mode:multiply" opacity="0.5">
<path fill-rule="evenodd" clip-rule="evenodd" d="M21.6505 37.0967C21.6505 37.0967 22.3247 38.5908 22.7023 39.9568C23.0798 41.3223 23.0075 43.6443 24.567 44.0069C26.1271 44.3696 28.3034 45.3852 29.1377 45.1315C29.972 44.8774 33.0527 44.3249 34.7606 44.6599C36.4685 44.9949 39.5855 44.8051 40.6734 44.2611C41.7618 43.7172 44.1046 42.3198 45.2185 41.8939C46.3325 41.468 47.8708 40.2551 49.1963 38.9083C50.5219 37.5609 50.5038 36.0269 50.8303 35.2649C51.1568 34.503 51.8098 31.4562 51.7374 30.0774C51.6651 28.6992 50.8303 26.1236 50.8303 26.1236L50.0545 25.3036C50.0545 25.3036 51.0116 28.8444 50.5767 31.3472C50.1412 33.85 50.5405 34.8661 48.7991 37.2599C47.0578 39.6543 44.6273 41.5403 41.907 42.4474C39.1862 43.3545 37.4421 43.245 34.6155 43.5071C31.9776 43.7517 28.6964 43.5646 27.3904 43.2248C26.2185 42.9196 24.6399 42.1342 23.4429 40.2232C22.246 38.3122 21.651 37.0972 21.651 37.0972L21.6505 37.0967Z" fill="#7D72B3"/>
</g>
<g style="mix-blend-mode:multiply" opacity="0.4">
<path fill-rule="evenodd" clip-rule="evenodd" d="M27.6504 33.179C27.6504 33.179 27.9003 37.2036 28.4123 37.5503C28.9244 37.8969 30.0085 38.04 31.0241 37.6954C32.0397 37.3509 35.5225 36.2082 36.1207 35.8456C36.7194 35.4829 40.3862 33.6511 41.1088 33.1067C41.8308 32.5627 42.7954 30.6272 43.1219 30.2253C43.4483 29.8238 44.3368 27.4295 44.591 26.5224C44.8452 25.6152 45.0265 24.5273 45.0265 24.5273C45.0265 24.5273 45.0988 24.0195 44.6639 23.8563C44.2284 23.6931 44.1566 23.8563 44.1566 23.8563C44.1566 23.8563 44.0651 24.455 43.6844 26.1778C43.3037 27.9011 38.1705 33.8139 35.5767 35.3553C32.983 36.8968 30.5163 36.9515 29.6273 36.8425C28.7383 36.7335 27.6323 33.8681 27.6504 33.179Z" fill="#7D72B3"/>
</g>
<g style="mix-blend-mode:multiply" opacity="0.4">
<path fill-rule="evenodd" clip-rule="evenodd" d="M27.5313 33.9324C27.5313 33.9324 27.6382 31.4264 28.2853 30.5853C28.9324 29.7441 31.1045 28.0096 32.3886 27.3566C33.6727 26.7037 35.5428 25.778 36.1936 25.6402C36.8444 25.5025 37.3028 25.6402 37.3028 25.6402C37.3028 25.6402 36.5201 25.2165 34.7245 25.67C32.9288 26.1236 30.8977 27.7932 29.9177 28.3095C28.9383 28.8258 27.4149 30.0775 27.0517 30.7123C26.6891 31.3472 27.5313 33.9324 27.5313 33.9324Z" fill="#7D72B3"/>
</g>
<g style="mix-blend-mode:multiply" opacity="0.4">
<path fill-rule="evenodd" clip-rule="evenodd" d="M23.118 31.2903L28.684 26.4134L32.1317 24.8533C32.1317 24.8533 35.54 23.6952 37.1001 23.331C38.6602 22.9667 42.1605 22.8577 42.1605 22.8577L43.9955 23.0571C43.9955 23.0571 40.802 21.3157 36.084 22.5855C31.366 23.8552 28.2305 25.4408 26.8517 26.743C25.4735 28.0452 23.3923 30.6528 23.1174 31.2898L23.118 31.2903Z" fill="#7D72B3"/>
</g>
<path style="mix-blend-mode:screen" fill-rule="evenodd" clip-rule="evenodd" d="M22.9623 31.5078C22.9623 31.5078 19.9719 35.1166 21.4229 37.3381C22.874 39.5591 23.5158 42.7622 23.9364 43.5071C24.357 44.2521 29.1717 45.3719 30.1714 45.1406C31.171 44.9093 33.5691 44.2803 35.1382 44.8875C35.1382 44.8875 37.9164 44.6482 38.7145 44.6482C39.5126 44.6482 40.9637 43.9713 41.3024 43.8017C41.6411 43.6321 43.5271 43.028 44.4949 42.641C45.4621 42.2539 47.0099 41.0447 47.6389 40.5614C48.268 40.0775 49.912 38.1187 50.2268 37.5141C50.5411 36.9095 51.4827 33.3784 51.7263 31.7098C51.9698 30.0413 51.2525 26.8244 50.7107 25.7125C50.1689 24.6002 48.4615 23.5601 48.4615 23.5601L48.5609 23.0571L49.8913 22.2638C49.8913 22.2638 52.2101 25.3042 52.4282 27.9298C52.5558 29.4692 52.912 32.7536 52.5068 34.1627C52.1814 35.2942 51.0739 38.6206 50.1067 39.8085C49.1395 40.9969 46.2373 44.0293 44.6895 44.6168C43.1416 45.2044 38.5763 45.9961 35.8868 46.0509C33.9046 46.0913 29.5381 45.7366 27.392 45.6643C25.246 45.5915 23.7115 44.2468 22.8586 43.5651C22.0057 42.8829 22.2955 41.0266 21.4251 39.5607C20.5546 38.0947 20.075 36.1449 20.2904 35.0836C20.5063 34.0223 22.9644 31.5083 22.9644 31.5083L22.9623 31.5078Z" fill="url(#paint9_radial_905_6303)"/>
<path fill-rule="evenodd" clip-rule="evenodd" d="M28.2135 45.2491C27.7541 45.1416 27.3404 44.8891 26.8847 44.7742C26.6284 44.7131 26.3753 44.6748 26.1228 44.6019C25.8702 44.5291 25.5831 44.4797 25.3225 44.468C24.794 44.4488 24.2463 44.3265 23.9097 43.8783C23.6109 43.4763 23.4275 43.0626 23.2892 42.5803C23.109 41.937 22.9367 41.2936 22.7378 40.6507C22.5538 40.0573 22.3013 39.5325 21.9721 39.004C21.8419 38.7934 21.7307 38.5829 21.5893 38.3797C21.459 38.1958 21.2793 38.0198 21.1793 37.8129L21.1756 37.8092C20.9231 37.2732 20.8348 36.6798 20.8502 36.0976C20.8577 35.7834 20.9459 35.4888 21.015 35.1825C21.107 34.7959 21.2065 34.4551 21.4059 34.1063C21.5898 33.7883 21.7696 33.4629 21.9535 33.1375C22.3635 32.4176 22.7921 31.6976 23.3014 31.0505C23.9565 30.2274 24.6876 29.442 25.4267 28.6955C25.8558 28.259 26.3418 27.8761 26.8321 27.5124C27.2458 27.2062 27.6286 26.869 28.038 26.559C28.7425 26.0231 29.5465 25.6743 30.3356 25.2914C31.289 24.832 32.2423 24.3875 33.234 24.0238C34.4096 23.5947 35.6193 23.2544 36.8449 23.005C38.2428 22.7216 39.7167 22.6642 41.1412 22.6716C41.9223 22.6754 42.7571 22.5759 43.5037 22.8668C43.9248 23.0316 44.415 23.1959 44.7825 23.449C44.8665 23.5064 44.9048 23.5181 44.9585 23.5947C44.993 23.6404 45.0122 23.7021 45.0313 23.7553C45.0887 23.8893 45.1579 24.1115 45.1579 24.253C45.1579 24.4098 45.0887 24.5481 45.0887 24.7124C45.0924 24.9458 45.0313 25.1564 45.0239 25.3861C45.0122 25.6503 44.9473 25.8572 44.909 26.1135C44.8324 26.5883 44.7633 27.044 44.5799 27.4917C44.3119 28.1388 44.1359 28.8205 43.8408 29.4596C43.7525 29.6547 43.5957 29.8041 43.5074 29.9993C43.4234 30.1753 43.3468 30.321 43.2468 30.4895C43.0591 30.8038 42.906 31.1292 42.6917 31.4275C42.2477 32.04 41.7958 32.6951 41.2098 33.1811C40.5016 33.7708 39.7279 34.2419 38.916 34.6747C38.3874 34.9544 37.836 35.1804 37.3001 35.4484C36.8215 35.6855 36.343 35.9306 35.8602 36.1566C34.6197 36.7346 33.3021 37.1637 32.0004 37.5694C31.625 37.688 31.273 37.8145 30.8859 37.8682C30.5339 37.9182 30.124 38.0331 29.7677 38.0251C29.3849 38.0134 28.9829 37.9257 28.6229 37.8028C28.0024 37.596 27.9412 36.9223 27.8955 36.3629C27.861 35.9572 27.8152 35.517 27.7349 35.1187C27.6738 34.7853 27.6467 34.4562 27.5701 34.1191C27.4935 33.7782 27.4436 33.43 27.4398 33.0811C27.4324 32.6372 27.6047 32.2198 27.7041 31.7869C27.769 31.5072 27.7998 31.2201 27.9147 30.9521C28.0795 30.5613 28.3932 30.2247 28.7032 29.9451C29.0212 29.6616 29.3349 29.382 29.6491 29.0948C29.8368 28.9188 30.0591 28.7886 30.258 28.6274C30.6062 28.3478 30.9933 28.1298 31.3916 27.9266C31.7058 27.7618 31.9355 27.5018 32.2264 27.3104C32.5252 27.1152 32.866 26.9084 33.1835 26.7473C33.4632 26.6096 33.7657 26.5139 34.0566 26.399C34.2937 26.307 34.5123 26.1693 34.7537 26.089C34.9759 26.0124 35.2056 25.9896 35.4236 25.8976C35.6379 25.8093 35.841 25.729 36.0633 25.6716C36.3121 25.6105 36.5918 25.5068 36.8444 25.4993C37.3421 25.4919 37.5872 25.7407 37.7138 26.223C37.8898 26.8818 37.6872 27.4369 37.4495 28.0457C37.2581 28.536 37.0475 29.022 36.8598 29.5202C36.611 30.1827 36.0213 30.531 35.5236 30.983C34.9988 31.4578 34.3517 31.8826 33.7088 32.1698C33.5057 32.2618 33.2877 32.3155 33.0883 32.3995C32.916 32.476 32.7475 32.5718 32.5752 32.6637C32.4641 32.7249 32.3838 32.8132 32.2801 32.8817C32.1881 32.9429 32.0807 32.9775 31.985 33.0386C31.7553 33.1917 31.5139 33.3412 31.2613 33.4523C31.0162 33.5634 30.5302 33.6283 30.3691 33.3412C30.2845 33.1955 30.2962 32.9929 30.258 32.828C30.2122 32.6329 30.2042 32.4564 30.2042 32.2538C30.2042 32.0512 30.2425 31.9013 30.2734 31.7061C30.3042 31.5184 30.3882 31.369 30.4494 31.1856C30.6333 30.665 30.9933 30.2779 31.3108 29.8493C31.5096 29.5776 31.6824 29.3096 31.9159 29.0565C32.2604 28.6891 32.7469 28.5051 33.2329 28.3829C33.6695 28.2754 34.3203 28.1457 34.7223 28.3983C35.0631 28.6088 34.8254 29.072 34.7148 29.3554C34.6537 29.5122 34.5883 29.6733 34.5351 29.8339C34.4968 29.9525 34.4814 30.0865 34.4128 30.2013C34.2714 30.4385 33.9917 30.6033 33.7811 30.7873C33.6854 30.8676 33.5323 30.9824 33.4174 31.0207C33.2717 31.0665 33.1149 31.0627 32.9692 31.0973C32.8964 31.1127 32.8581 31.2047 32.7703 31.1701C32.69 31.1435 32.69 31.0516 32.7055 30.967C32.7209 30.8905 32.7554 30.8139 32.7703 30.741C32.7741 30.7256 32.7549 30.699 32.7586 30.6799C32.8198 30.4539 33.1069 30.1705 33.2372 29.9791C33.444 30.0631 33.3021 30.1859 33.2638 30.2779C33.2372 30.3545 33.2409 30.4273 33.2218 30.5076C33.2063 30.5725 33.1069 30.6916 33.1798 30.7602C33.2297 30.8102 33.3978 30.7219 33.4515 30.7028C33.8955 30.5459 34.1826 30.0594 34.3208 29.6191C34.4091 29.332 34.3937 28.8343 34.0757 28.7077C33.8386 28.6157 33.5509 28.6657 33.3021 28.662C32.4024 28.6466 31.8701 29.6079 31.3916 30.2279C31.0662 30.649 30.8173 31.1276 30.6333 31.6253C30.5031 31.9698 30.4494 32.3261 30.3574 32.6744C30.2883 32.9307 30.2042 33.3252 30.5988 33.2715C30.8285 33.2369 31.0773 33.1146 31.2959 33.0418C31.4873 32.9769 31.6558 32.9078 31.8356 32.8121C32.119 32.659 32.4369 32.6169 32.7315 32.4867C32.9612 32.3835 33.1947 32.257 33.4244 32.1458C34.0178 31.8587 34.5963 31.2728 35.0094 30.7676C35.2848 30.4268 35.6794 30.1705 35.9936 29.86C36.3228 29.5346 36.4993 29.1289 36.7248 28.7306C36.9507 28.3249 37.0656 27.9341 37.165 27.4864C37.257 27.0881 37.4942 26.6361 37.3719 26.223C37.2416 25.7939 36.6902 25.7865 36.3345 25.8476C36.0394 25.8976 35.7139 25.947 35.4348 26.0582C34.9142 26.265 34.4011 26.4873 33.8838 26.6978C33.0681 27.0349 32.3902 27.5901 31.6436 28.0457C31.2645 28.2754 30.8551 28.4514 30.5025 28.7274C30.242 28.9305 29.9932 29.1677 29.7443 29.3899C29.5683 29.5505 29.4189 29.7233 29.2238 29.861C28.9675 30.0408 28.7106 30.2402 28.5192 30.489C28.3624 30.6921 28.1821 30.933 28.0944 31.1781C28.0295 31.3733 28.0907 31.5572 28.1018 31.7561C28.1172 32.0278 28.0407 32.2809 28.029 32.5489C28.0173 32.8323 28.029 33.1231 28.0327 33.4066C28.0327 33.9617 27.9487 34.5019 27.9599 35.0645C27.9673 35.409 28.0439 35.7727 28.113 36.1135C28.1667 36.3853 28.2778 36.6192 28.297 36.8984C28.3044 37.0744 28.3352 37.3158 28.4921 37.4306C28.5687 37.4881 28.6681 37.5035 28.7564 37.538C28.8367 37.5689 28.9095 37.5955 28.9861 37.6183C29.0281 37.6337 29.0743 37.6412 29.1201 37.6566C29.1546 37.6757 29.1812 37.7257 29.2158 37.7406C29.3078 37.7789 29.4455 37.756 29.5412 37.7369C29.7635 37.6949 29.9815 37.6412 30.2037 37.6029C30.7588 37.5072 31.3219 37.5189 31.8505 37.3195C32.4593 37.0898 33.0261 36.7607 33.6269 36.5155C34.5266 36.1481 35.4917 35.8801 36.3531 35.4165C36.7396 35.2059 37.1416 35.0108 37.5399 34.8305C38.4858 34.4057 39.4775 34.0611 40.3086 33.4214C40.6265 33.1763 40.8674 32.8966 41.1396 32.6095C41.2928 32.4447 41.4576 32.2995 41.5953 32.1193C42.001 31.5907 42.3918 31.0165 42.7018 30.4268C42.8358 30.1779 42.9161 29.9062 43.0544 29.6574C43.2686 29.2708 43.5292 28.93 43.7281 28.5317C43.9232 28.1409 44.038 27.7506 44.1683 27.337C44.2486 27.0844 44.306 26.8775 44.2986 26.6096C44.2911 26.0736 44.3486 25.6099 44.5629 25.1202C44.6814 24.8522 44.85 24.454 44.7617 24.1514C44.716 24.002 44.5012 23.9637 44.3709 23.9217C44.0646 23.8186 43.7467 23.742 43.4521 23.6117C43.1804 23.4894 42.9847 23.3475 42.6864 23.2937C42.5716 23.2709 42.4679 23.2555 42.353 23.2592C42.0659 23.2746 41.817 23.4735 41.5299 23.4623C41.4342 23.4586 41.3693 23.4277 41.2694 23.4086C41.12 23.382 40.9594 23.4012 40.8137 23.3969C40.4846 23.3852 40.1666 23.3241 39.8332 23.3278C39.4429 23.3315 39.0595 23.3661 38.6693 23.3889C38.3056 23.4081 37.9381 23.3772 37.5739 23.3889C37.3405 23.3964 37.1948 23.5038 36.988 23.5958C36.8003 23.6798 36.5897 23.7143 36.3946 23.7872C36.2223 23.8563 36.0612 23.9175 35.8777 23.9249C35.6209 23.9286 35.3646 23.8903 35.1158 23.944C34.8169 24.0132 34.4915 24.1392 34.2118 24.2578C33.3962 24.606 32.6039 25.0426 31.7574 25.3106C31.3475 25.4371 30.9263 25.4945 30.5281 25.6551C30.3787 25.7163 30.2484 25.8237 30.1144 25.9114C29.8464 26.0911 29.5667 26.256 29.2913 26.4282C28.675 26.8191 28.0891 27.2476 27.5031 27.6842C26.814 28.1973 26.1552 28.7104 25.5847 29.3612C24.5893 30.506 23.5514 31.6625 22.69 32.9147C22.28 33.5044 21.8206 34.1398 21.5297 34.7986C21.5223 34.814 21.518 34.8252 21.5106 34.8406C21.35 35.2197 21.2655 35.618 21.3192 36.0274C21.3192 36.0349 21.3192 36.0428 21.3229 36.0503C21.3686 36.3874 21.5143 36.7856 21.6483 37.0919C21.7823 37.3982 21.8934 37.7236 22.0657 38.015C22.2534 38.333 22.514 38.5972 22.6517 38.9418C22.8165 39.3666 22.9659 39.8223 23.0919 40.2626C23.2568 40.8177 23.3828 41.3919 23.4865 41.9588C23.5556 42.3113 23.613 42.667 23.7773 42.9887C24.0108 43.4407 24.509 43.6092 24.9147 43.8735C25.129 44.0149 25.2784 44.0612 25.5389 44.0724C25.9026 44.0915 26.2472 44.1798 26.596 44.2829C27.3388 44.5126 28.0816 44.6812 28.8627 44.6695C29.3258 44.6658 29.7666 44.5392 30.2218 44.4818C30.6466 44.4281 31.072 44.3861 31.4931 44.3169C31.876 44.2558 32.2514 44.1484 32.6417 44.1484C33.0091 44.1484 33.4302 44.2095 33.7865 44.309C34.4261 44.485 35.0498 44.6269 35.7161 44.5998C36.1218 44.5881 36.52 44.4967 36.922 44.4696C37.3011 44.4467 37.6611 44.5041 38.0365 44.5307C38.7028 44.5727 39.3424 44.4084 39.9624 44.2053C40.3872 44.0676 40.7398 43.8645 41.1189 43.6385C41.4252 43.4587 41.7203 43.405 42.0569 43.3168C42.7157 43.1408 43.3702 42.8994 43.9679 42.5623C44.749 42.1183 45.3923 41.4632 46.1506 40.9884C46.5797 40.7204 47.0619 40.5444 47.4793 40.2573C47.8239 40.0238 48.1493 39.7516 48.4407 39.457C48.7815 39.1125 49.1032 38.7525 49.4441 38.4079C49.7046 38.1437 49.8078 37.8145 49.9609 37.4849C50.1906 36.9983 50.2709 36.4969 50.3554 35.9684C50.4437 35.4478 50.6734 34.9879 50.8994 34.5056C51.1865 33.8894 51.4316 33.3108 51.4928 32.6217C51.5428 32.1049 51.6114 31.5838 51.6114 31.0633C51.6114 30.7299 51.5539 30.4045 51.5119 30.0753C51.4699 29.769 51.4088 29.4739 51.3434 29.1714C51.2594 28.7997 51.2705 28.4169 51.2019 28.042C51.1408 27.7203 51.0413 27.3795 50.9531 27.0615C50.8919 26.8355 50.8074 26.6021 50.7159 26.3878C50.5474 26.0087 50.3251 25.6142 50.0534 25.2967C49.9386 25.1627 49.7929 25.1207 49.6631 25.025C49.5637 24.9485 49.5408 24.8836 49.426 24.8262C49.2649 24.7459 49.1043 24.6656 48.9474 24.5773C48.6949 24.4316 48.4077 24.3896 48.1546 24.2519C47.9132 24.1216 47.6952 23.9494 47.4655 23.8037C47.205 23.6388 46.9407 23.5282 46.7153 23.3134C46.493 23.0991 46.3478 22.8269 46.133 22.6126C45.9145 22.3904 45.6008 22.2452 45.3519 22.0538C44.9191 21.7167 44.4097 21.6901 43.9237 21.4832C43.6749 21.3758 43.4372 21.3609 43.1772 21.3072C42.8821 21.2461 42.6832 21.0658 42.3695 21.0313C42.0898 21.0004 41.8144 20.9967 41.5427 20.9201C41.3778 20.8781 41.2247 20.8399 41.0604 20.8244C40.735 20.7936 40.4207 20.8399 40.0991 20.8744C39.8156 20.9053 39.5285 20.8898 39.2451 20.8898C39.008 20.8898 38.7586 20.9127 38.5214 20.8744C37.8477 20.7713 37.1087 20.7824 36.427 20.8287C35.7762 20.8744 35.1402 20.9207 34.524 21.135C33.9991 21.3147 33.4823 21.4683 32.9692 21.6789C32.6172 21.8203 32.3104 22.016 31.9813 22.1995C31.1885 22.6435 30.4611 23.1874 29.7066 23.6931C28.8643 24.2519 28.0715 24.8724 27.2596 25.4812C26.731 25.8795 26.1951 26.274 25.6745 26.6835C25.4485 26.8632 25.2305 27.0509 25.0157 27.2423C25.5214 26.5915 26.0722 25.9789 26.6625 25.4041C29.9288 22.2324 34.39 20.2757 39.3063 20.2757C39.4977 20.2757 39.6891 20.2794 39.8768 20.2831C40.0799 20.2906 40.2825 20.2986 40.4856 20.314C41.0487 20.3523 41.6075 20.4134 42.1552 20.5017C42.1627 20.5017 42.1669 20.5054 42.1744 20.5054C42.7986 20.674 43.4186 20.8537 44.0391 21.0414C44.5559 21.1982 45.0765 21.3402 45.5859 21.5162C45.923 21.6311 46.2521 21.7805 46.5775 21.9145C46.8721 22.041 47.1981 22.1479 47.4735 22.3053C47.9217 22.5578 48.3386 22.895 48.7523 23.2012C49.0277 23.4081 49.2845 23.6452 49.5334 23.8866C49.8817 24.2274 50.1959 24.6066 50.4602 25.0123C51.0807 25.9736 51.5747 27.061 51.8081 28.1787C52.007 29.1209 51.9804 30.1428 51.9421 31.1042C51.9229 31.6173 51.831 32.1804 51.7278 32.6855C51.6129 33.2407 51.4178 33.7575 51.3604 34.3323C51.3338 34.612 51.3795 34.8991 51.3338 35.1745C51.2955 35.4005 51.2115 35.6185 51.1652 35.8445C51.0695 36.323 50.9281 36.7867 50.7058 37.227C50.407 37.8284 50.0013 38.326 49.5685 38.8429C49.082 39.4209 48.5614 39.9765 48.0557 40.5428C47.5463 41.1133 46.9338 41.5727 46.2793 41.9635C45.7699 42.2698 45.2493 42.6372 44.6942 42.8521C44.1736 43.0589 43.584 43.3535 43.0209 43.4151C42.5923 43.4572 42.2515 43.6183 41.9027 43.8783C41.6921 44.0314 41.5352 44.2383 41.3396 44.4031C41.1636 44.5525 40.9567 44.5982 40.7462 44.6711C40.2447 44.8396 39.7545 44.8013 39.2297 44.8013C38.4832 44.8013 37.7478 44.8742 37.005 44.9508C36.6296 44.989 36.2584 45.0199 35.883 44.9965C35.5459 44.9773 35.2131 44.8891 34.8797 44.8471C34.5085 44.8013 34.1369 44.7934 33.7694 44.7359C33.4786 44.686 33.2489 44.6822 32.9538 44.7205C32.7166 44.7471 32.479 44.7205 32.2418 44.7397C31.9967 44.7625 31.7553 44.8162 31.5107 44.8508C30.3962 45.0039 29.3508 45.517 28.214 45.2491H28.2135Z" fill="#00C4FF"/>
<path style="mix-blend-mode:screen" fill-rule="evenodd" clip-rule="evenodd" d="M27.3138 53.5466C27.3138 53.5466 31.5607 54.2926 33.4908 54.2367C36.4089 54.1522 39.772 54.5148 42.3839 54.5877C44.9957 54.66 49.5605 52.5187 50.3948 52.1263C51.229 51.7339 53.2432 50.5838 55.0016 48.634C56.76 46.6842 57.4539 43.5066 57.4539 43.5066H56.7207C56.7207 43.5066 56.4426 44.8822 55.3823 46.4263C54.7464 47.3525 53.8116 48.1639 52.5349 49.2673C50.6984 50.8544 48.3072 52.0763 45.8964 52.6772C42.6875 53.4774 39.8348 53.2557 37.8674 53.5492C35.019 53.9735 28.6952 52.9675 28.6952 52.9675L27.3127 53.5471L27.3138 53.5466Z" fill="url(#paint10_radial_905_6303)"/>
<path fill-rule="evenodd" clip-rule="evenodd" d="M26.1924 51.4436C26.1924 51.4436 26.8698 53.2052 27.3133 53.5466C27.3133 53.5466 28.2459 53.604 28.6957 53.1255L27.3898 52.0875L26.1924 51.4431V51.4436Z" fill="url(#paint11_radial_905_6303)"/>
<path fill-rule="evenodd" clip-rule="evenodd" d="M57.5087 40.2227C57.5087 40.2227 57.9628 42.2129 58 43.2732C58 43.2732 57.2912 43.7198 56.7212 43.5066C56.7212 43.5066 57.3901 41.0724 57.5087 40.2227Z" fill="url(#paint12_radial_905_6303)"/>
<path fill-rule="evenodd" clip-rule="evenodd" d="M45.2185 21.2636C45.2185 21.2636 49.0038 21.6433 49.8902 22.2633C49.8902 22.2633 49.2638 22.9646 48.5598 23.0566C48.5598 23.0566 45.4902 21.354 45.2185 21.2636Z" fill="#FF61C7"/>
<path fill-rule="evenodd" clip-rule="evenodd" d="M22.8564 28.309L24.4079 28.0644L25.0157 27.2482C25.0157 27.2482 23.9028 27.7379 22.8558 28.309H22.8564Z" fill="#FF61C7"/>
<g style="mix-blend-mode:multiply" opacity="0.5">
<path fill-rule="evenodd" clip-rule="evenodd" d="M24.1161 50.3265C24.1161 50.3265 31.4592 52.4581 37.1906 52.5677C42.922 52.6772 45.0755 51.4 47.5538 50.4424C50.0322 49.4847 54.1015 47.2866 55.3281 45.6638C56.5553 44.041 57.5082 40.2227 57.5082 40.2227C57.5082 40.2227 56.3299 45.9499 55.3116 46.9644C54.2929 47.9789 49.7419 51.0443 48.9438 51.4436C48.1456 51.8429 45.9773 53.4891 42.0553 53.0308C42.0553 53.0308 39.419 53.4025 38.4646 53.3296C37.5102 53.2573 36.0298 54.2192 33.309 53.3392C33.309 53.3392 29.5237 53.1483 28.6958 52.967C27.8679 52.7857 24.1161 50.3265 24.1161 50.3265Z" fill="#54469B"/>
</g>
<path fill-rule="evenodd" clip-rule="evenodd" d="M25.8994 42.6197C25.8994 42.6197 31.9855 43.6746 36.3945 43.2243C40.8036 42.7739 43.1878 41.6732 44.4453 40.8507C45.7028 40.0286 48.1668 37.3955 49.0888 36.1976C50.0103 34.9991 50.4756 32.0039 50.4756 32.0039C50.4756 32.0039 50.642 34.9299 49.8896 36.1976C49.1372 37.4652 46.5504 39.8755 45.4949 40.5758C44.4395 41.276 41.414 42.9371 39.8342 43.2243C38.2545 43.5109 35.6469 44.31 33.7588 43.9639C31.8701 43.6172 27.2915 43.6762 25.8994 42.6202V42.6197Z" fill="#B04FE2"/>
<path fill-rule="evenodd" clip-rule="evenodd" d="M34.3373 52.363C34.3373 52.363 40.6733 51.9269 42.8497 51.4436C45.026 50.9597 47.8882 49.7825 49.8896 49.0482C51.891 48.3139 53.4033 46.8612 54.506 46.0541C55.6094 45.2469 57.0237 41.8939 57.0237 41.8939C57.0237 41.8939 56.1214 45.2182 54.7358 46.3029C53.3501 47.3876 49.8035 49.3752 45.7965 51.1533C41.3433 53.1292 37.8797 52.5677 34.3368 52.363H34.3373Z" fill="#8B40E0"/>
<path fill-rule="evenodd" clip-rule="evenodd" d="M56.4144 44.4068C56.5138 44.1043 56.6212 43.8054 56.7206 43.5071C56.3681 44.7173 55.8933 45.8733 55.3116 46.9649L55.2999 46.9766C55.1313 47.1415 54.9245 47.2717 54.7676 47.4515C54.607 47.6312 54.4651 47.8114 54.2928 47.98C53.466 48.7994 52.52 49.5039 51.5433 50.1398C50.5399 50.7944 49.5371 51.4149 48.438 51.8935C47.5958 52.2609 46.7338 52.5751 45.8416 52.8011C45.1254 52.9851 44.3597 53.0654 43.6206 53.0999C43.2452 53.1191 42.8778 53.1802 42.5061 53.2148C42.043 53.2648 41.5682 53.2568 41.1125 53.3371C40.3239 53.4828 39.512 53.5859 38.7118 53.6279C38.0264 53.6662 37.3447 53.7619 36.6593 53.7619C35.7788 53.7582 34.9057 53.6205 34.0246 53.6242C33.1707 53.6316 32.3093 53.5934 31.4591 53.5168C30.9497 53.4668 30.452 53.3711 29.9506 53.3137C29.5257 53.2637 29.1158 53.1722 28.6947 53.126C28.3384 52.8734 27.9938 52.6012 27.661 52.322C27.569 52.2455 27.477 52.1689 27.3893 52.0886C27.8716 52.2417 28.3506 52.4066 28.8366 52.5597C29.5183 52.774 30.284 52.9005 30.9965 52.9888C31.5787 53.0616 32.279 53.1153 32.8538 52.9697C33.4509 52.8202 33.8954 53.0117 34.4388 53.2339C34.6914 53.3371 34.9482 53.3871 35.2125 53.4636C35.5842 53.571 35.8596 53.5476 36.2387 53.4982C36.5721 53.4562 36.9204 53.3988 37.2532 53.3259C37.5367 53.2648 37.8084 53.1499 38.0955 53.1116C38.5932 53.0505 39.1217 52.9776 39.6194 53.0659C40.1937 53.1653 40.7642 53.2228 41.3427 53.1308C41.9441 53.0313 42.5029 52.9739 43.1118 52.9702C43.3186 52.9702 43.4871 52.9893 43.686 53.0239C43.9083 53.0622 44.1151 53.001 44.3331 52.9782C44.7314 52.9362 45.0797 52.8787 45.4667 52.7602C45.8187 52.649 46.1559 52.4922 46.5004 52.3619C47.1741 52.1093 47.7829 51.8605 48.3806 51.4542C48.882 51.1171 49.4376 50.88 49.9465 50.5546C50.433 50.2403 50.8653 49.8463 51.363 49.5475C51.8878 49.2295 52.3664 48.8392 52.8678 48.483C53.1857 48.257 53.4692 47.989 53.7866 47.7593C54.0626 47.5605 54.3646 47.4031 54.6214 47.1771C55.0617 46.8017 55.4716 46.396 55.7587 45.8866C56.0267 45.4155 56.249 44.9215 56.4133 44.4084L56.4144 44.4068Z" fill="#00C4FF"/>
<path fill-rule="evenodd" clip-rule="evenodd" d="M36.9752 34.3238C36.9752 34.3238 41.3524 30.7405 43.1916 27.2482C43.1916 27.2482 38.0902 32.4888 36.9752 34.3238Z" fill="#FF77F4"/>
<path fill-rule="evenodd" clip-rule="evenodd" d="M32.3721 38.5951C32.3721 38.5951 35.1376 38.6132 38.196 37.3376C41.2539 36.0625 42.788 33.4315 42.788 33.4315C42.788 33.4315 40.719 35.409 38.4656 36.5155C36.2122 37.622 34.5069 37.8922 32.3726 38.5946L32.3721 38.5951Z" fill="#EA9CF4"/>
<path fill-rule="evenodd" clip-rule="evenodd" d="M43.3016 32.8004C43.3016 32.8004 43.6116 32.0108 44.1917 30.6267C44.7724 29.2426 45.2291 28.5009 45.2291 28.5009C45.2291 28.5009 45.042 30.6129 43.3016 32.8004Z" fill="#EA9CF4"/>
<path fill-rule="evenodd" clip-rule="evenodd" d="M31.4257 45.8839C31.4257 45.8839 35.2684 46.8176 40.274 45.8839C45.2802 44.9502 45.4977 44.6455 46.8764 43.5646C48.2546 42.4836 49.2346 41.099 49.7786 40.5758C50.3225 40.0531 51.0074 38.2372 51.0074 38.2372C51.0074 38.2372 49.5919 40.7815 47.5629 42.4852C45.5338 44.1883 43.8653 45.0231 40.4554 45.5309C37.0454 46.0387 33.1266 45.985 31.4257 45.8839Z" fill="#D374F4"/>
<path fill-rule="evenodd" clip-rule="evenodd" d="M34.7972 54.2261C34.7972 54.2261 38.2795 54.5265 39.6939 54.8169C41.1088 55.1072 43.8291 55.0965 45.3891 54.5212C46.9492 53.9459 50.039 52.2917 50.039 52.2917C50.039 52.2917 47.1555 53.9097 43.7206 54.2724C40.2857 54.635 38.196 54.0549 34.7972 54.2256V54.2261Z" fill="#D374F4"/>
<path fill-rule="evenodd" clip-rule="evenodd" d="M51.0509 51.785C51.0509 51.785 53.2613 50.301 54.346 49.3157C54.346 49.3157 53.1884 50.8997 51.0509 51.785Z" fill="#D374F4"/>
<path fill-rule="evenodd" clip-rule="evenodd" d="M34.256 32.8903C34.256 32.8903 36.779 30.9915 37.5793 29.6196C38.3801 28.2473 38.4598 27.4656 38.4598 27.4656C38.4598 27.4656 38.8161 28.8003 37.3017 30.497C35.7874 32.1937 34.2555 32.8903 34.2555 32.8903H34.256Z" fill="#F2C4F8"/>
<path style="mix-blend-mode:screen" opacity="0.5" fill-rule="evenodd" clip-rule="evenodd" d="M28.3639 31.5647C28.1598 32.4904 27.9529 33.4316 28.2672 34.3238C28.5814 35.216 29.0653 35.7967 29.5247 35.845C29.9841 35.8934 30.6615 34.805 30.6371 34.4907C30.6131 34.1765 29.8873 33.3539 29.8389 32.5319C29.7906 31.7098 30.6865 30.5002 30.6376 30.0408C30.5887 29.5814 28.7 30.0408 28.3634 31.5642L28.3639 31.5647Z" fill="url(#paint13_linear_905_6303)"/>
<path style="mix-blend-mode:screen" opacity="0.5" fill-rule="evenodd" clip-rule="evenodd" d="M28.775 27.7788C28.4719 27.4534 26.4328 29.3623 25.0162 30.8383C23.5997 32.3144 22.1971 34.2493 22.0758 35.4824C21.9551 36.716 22.9707 38.5791 24.8083 40.2232C26.646 41.8673 31.4309 43.3668 32.5816 42.6893C33.7322 42.0125 33.3084 39.9084 32.3715 39.4001C31.4347 38.8923 28.3874 39.9153 26.9608 38.4159C25.5341 36.9164 26.1786 34.9017 26.3562 33.2087C26.5737 31.1361 27.2266 29.3878 27.8312 28.8555C28.4357 28.3233 28.7745 27.7783 28.7745 27.7783L28.775 27.7788Z" fill="url(#paint14_linear_905_6303)"/>
<path fill-rule="evenodd" clip-rule="evenodd" d="M22.5236 34.1616C22.1296 35.4989 22.0833 36.9287 22.9059 38.0267C23.7285 39.1247 24.3495 38.3032 24.6398 35.6233C24.9302 32.9429 24.7637 31.1095 24.7637 31.1095C24.7637 31.1095 23.0191 32.4787 22.5236 34.1621V34.1616Z" fill="#FFFFF8"/>
<path fill-rule="evenodd" clip-rule="evenodd" d="M23.8678 38.8094C23.3116 39.3257 24.6398 40.3487 24.8563 39.8558C25.0727 39.3624 24.2294 38.4739 23.8678 38.8094Z" fill="#F5CEFA"/>
<path fill-rule="evenodd" clip-rule="evenodd" d="M22.3943 42.8558C22.3417 43.7049 22.8261 44.6705 24.3117 45.2262C25.7973 45.7824 26.9607 45.6308 26.9607 45.6308C26.9607 45.6308 25.2225 45.2863 24.266 44.6163C23.3094 43.9463 22.3943 42.8558 22.3943 42.8558Z" fill="#F5CEFA"/>
<path fill-rule="evenodd" clip-rule="evenodd" d="M28.4863 31.6965C27.996 31.0473 28.6341 30.1593 29.5332 29.6127C30.4324 29.0661 30.5403 29.232 30.3478 29.709C30.1554 30.1864 29.8613 31.193 29.4407 31.696C29.0201 32.199 28.7766 32.0804 28.4863 31.696V31.6965Z" fill="#FFFFF8"/>
<path fill-rule="evenodd" clip-rule="evenodd" d="M31.7186 30.5666C31.532 30.2487 31.9084 29.3198 32.4215 29.4048C32.9346 29.4899 32.8097 29.6946 32.5688 30.0339C32.3891 30.2875 31.8946 30.8671 31.7186 30.5666Z" fill="#FFFFF8"/>
<path fill-rule="evenodd" clip-rule="evenodd" d="M35.4337 32.1576C35.2588 31.7965 36.6902 30.6937 36.8837 30.8091C37.0773 30.9245 36.9518 31.5083 36.6179 31.7274C36.284 31.9465 35.4943 32.2841 35.4332 32.1576H35.4337Z" fill="#FFFFF8"/>
</g>
<defs>
<filter id="filter0_d_905_6303" x="0" y="0.275696" width="78" height="77.4486" filterUnits="userSpaceOnUse" color-interpolation-filters="sRGB">
<feFlood flood-opacity="0" result="BackgroundImageFix"/>
<feColorMatrix in="SourceAlpha" type="matrix" values="0 0 0 0 0 0 0 0 0 0 0 0 0 0 0 0 0 0 127 0" result="hardAlpha"/>
<feOffset/>
<feGaussianBlur stdDeviation="10"/>
<feComposite in2="hardAlpha" operator="out"/>
<feColorMatrix type="matrix" values="0 0 0 0 0 0 0 0 0 0.768627 0 0 0 0 1 0 0 0 0.4 0"/>
<feBlend mode="normal" in2="BackgroundImageFix" result="effect1_dropShadow_905_6303"/>
<feBlend mode="normal" in="SourceGraphic" in2="effect1_dropShadow_905_6303" result="shape"/>
</filter>
<radialGradient id="paint0_radial_905_6303" cx="0" cy="0" r="1" gradientUnits="userSpaceOnUse" gradientTransform="translate(27.2325 31.6476) scale(29.644)">
<stop stop-color="#FF9AFF"/>
<stop offset="0.09" stop-color="#FB94FF"/>
<stop offset="0.21" stop-color="#F083FF"/>
<stop offset="0.34" stop-color="#DF67FF"/>
<stop offset="0.49" stop-color="#C740FF"/>
<stop offset="0.64" stop-color="#A810FF"/>
<stop offset="0.68" stop-color="#9F00FF"/>
<stop offset="0.74" stop-color="#9800F8"/>
<stop offset="0.83" stop-color="#8700E4"/>
<stop offset="0.93" stop-color="#6A00C5"/>
<stop offset="1" stop-color="#5200AB"/>
</radialGradient>
<radialGradient id="paint1_radial_905_6303" cx="0" cy="0" r="1" gradientUnits="userSpaceOnUse" gradientTransform="translate(27.2325 31.6476) scale(29.644)">
<stop stop-color="#FF9AFF"/>
<stop offset="0.09" stop-color="#FB94FF"/>
<stop offset="0.21" stop-color="#F083FF"/>
<stop offset="0.34" stop-color="#DF67FF"/>
<stop offset="0.49" stop-color="#C740FF"/>
<stop offset="0.64" stop-color="#A810FF"/>
<stop offset="0.68" stop-color="#9F00FF"/>
<stop offset="0.74" stop-color="#9800F8"/>
<stop offset="0.83" stop-color="#8700E4"/>
<stop offset="0.93" stop-color="#6A00C5"/>
<stop offset="1" stop-color="#5200AB"/>
</radialGradient>
<radialGradient id="paint2_radial_905_6303" cx="0" cy="0" r="1" gradientUnits="userSpaceOnUse" gradientTransform="translate(28.0731 29.9323) scale(29.1399 29.1399)">
<stop stop-color="#FF9AFF"/>
<stop offset="0.09" stop-color="#FB94FF"/>
<stop offset="0.21" stop-color="#F083FF"/>
<stop offset="0.34" stop-color="#DF67FF"/>
<stop offset="0.49" stop-color="#C740FF"/>
<stop offset="0.64" stop-color="#A810FF"/>
<stop offset="0.68" stop-color="#9F00FF"/>
<stop offset="0.74" stop-color="#9800F8"/>
<stop offset="0.83" stop-color="#8700E4"/>
<stop offset="0.93" stop-color="#6A00C5"/>
<stop offset="1" stop-color="#5200AB"/>
</radialGradient>
<radialGradient id="paint3_radial_905_6303" cx="0" cy="0" r="1" gradientUnits="userSpaceOnUse" gradientTransform="translate(31.9053 26.8504) scale(6.51571)">
<stop stop-color="white"/>
<stop offset="1" stop-color="#623964"/>
</radialGradient>
<radialGradient id="paint4_radial_905_6303" cx="0" cy="0" r="1" gradientUnits="userSpaceOnUse" gradientTransform="translate(32.9416 29.2059) scale(2.26673)">
<stop stop-color="white"/>
<stop offset="1" stop-color="#623964"/>
</radialGradient>
<radialGradient id="paint5_radial_905_6303" cx="0" cy="0" r="1" gradientUnits="userSpaceOnUse" gradientTransform="translate(31.5479 28.9959) scale(2.38849 2.38849)">
<stop stop-color="white"/>
<stop offset="1" stop-color="#623964"/>
</radialGradient>
<radialGradient id="paint6_radial_905_6303" cx="0" cy="0" r="1" gradientUnits="userSpaceOnUse" gradientTransform="translate(29.8582 26.6957) scale(5.51767)">
<stop stop-color="white"/>
<stop offset="1" stop-color="#623964"/>
</radialGradient>
<radialGradient id="paint7_radial_905_6303" cx="0" cy="0" r="1" gradientUnits="userSpaceOnUse" gradientTransform="translate(27.5 24.5513) scale(9.35457)">
<stop stop-color="white"/>
<stop offset="1" stop-color="#623964"/>
</radialGradient>
<radialGradient id="paint8_radial_905_6303" cx="0" cy="0" r="1" gradientUnits="userSpaceOnUse" gradientTransform="translate(30.9673 26.0326) scale(13.0346 13.0346)">
<stop stop-color="white"/>
<stop offset="1" stop-color="#623964"/>
</radialGradient>
<radialGradient id="paint9_radial_905_6303" cx="0" cy="0" r="1" gradientUnits="userSpaceOnUse" gradientTransform="translate(26.9029 26.1289) scale(22.0212 22.0212)">
<stop stop-color="white"/>
<stop offset="1" stop-color="#623964"/>
</radialGradient>
<radialGradient id="paint10_radial_905_6303" cx="0" cy="0" r="1" gradientUnits="userSpaceOnUse" gradientTransform="translate(33.5036 45.3075) scale(17.3559)">
<stop stop-color="#FFFF4A"/>
<stop offset="1" stop-color="#360038"/>
</radialGradient>
<radialGradient id="paint11_radial_905_6303" cx="0" cy="0" r="1" gradientUnits="userSpaceOnUse" gradientTransform="translate(26.6688 52.0041) scale(1.87325)">
<stop stop-color="#6D00C2"/>
<stop offset="0.4" stop-color="#6600BC"/>
<stop offset="0.98" stop-color="#5200AB"/>
<stop offset="1" stop-color="#5200AB"/>
</radialGradient>
<radialGradient id="paint12_radial_905_6303" cx="0" cy="0" r="1" gradientUnits="userSpaceOnUse" gradientTransform="translate(56.9642 41.1123) scale(1.95673)">
<stop stop-color="#1F0081"/>
<stop offset="0.73" stop-color="#250087"/>
<stop offset="1" stop-color="#2A008B"/>
</radialGradient>
<linearGradient id="paint13_linear_905_6303" x1="28.1055" y1="32.8589" x2="30.6397" y2="32.8589" gradientUnits="userSpaceOnUse">
<stop stop-color="#BDFFE8"/>
<stop offset="0.2" stop-color="#8ABBAA"/>
<stop offset="0.42" stop-color="#59796E"/>
<stop offset="0.61" stop-color="#33453E"/>
<stop offset="0.78" stop-color="#171F1C"/>
<stop offset="0.91" stop-color="#060807"/>
<stop offset="1"/>
</linearGradient>
<linearGradient id="paint14_linear_905_6303" x1="22.0663" y1="35.2989" x2="33.2771" y2="35.2989" gradientUnits="userSpaceOnUse">
<stop stop-color="#BDFFE8"/>
<stop offset="0.2" stop-color="#8ABBAA"/>
<stop offset="0.42" stop-color="#59796E"/>
<stop offset="0.61" stop-color="#33453E"/>
<stop offset="0.78" stop-color="#171F1C"/>
<stop offset="0.91" stop-color="#060807"/>
<stop offset="1"/>
</linearGradient>
</defs>
</svg>
