<svg width="78" height="78" viewBox="0 0 78 78" fill="none" xmlns="http://www.w3.org/2000/svg">
<g filter="url(#filter0_d_920_13781)">
<path fill-rule="evenodd" clip-rule="evenodd" d="M49.4004 24.2464C49.4004 24.2464 51.6839 24.8787 53.2038 24.7862C53.2038 24.7862 55.926 26.6361 57.4465 31.5376C57.4465 31.5376 56.139 33.0875 56.4171 34.8886C56.4171 34.8886 54.0884 28.5617 49.4004 24.2464Z" fill="url(#paint0_linear_920_13781)"/>
<path fill-rule="evenodd" clip-rule="evenodd" d="M56.7841 38.4455C56.7841 40.1114 56.5498 41.7254 56.107 43.2484C55.2286 46.3127 53.5261 49.0252 51.2528 51.141C49.6276 52.6564 47.7091 53.8612 45.5969 54.6628C43.6825 55.3913 41.6104 55.7868 39.4393 55.7868C39.1317 55.7868 38.8206 55.7797 38.5166 55.7614H38.5131C38.0591 55.7395 37.6087 55.6953 37.166 55.6404C33.8165 55.2012 30.7745 53.8098 28.307 51.7378C27.3808 50.9656 26.5389 50.0943 25.7957 49.1422C25.232 48.4284 24.7231 47.6705 24.2763 46.8688C24.17 46.6787 24.0679 46.4845 23.9652 46.2903C23.9652 46.2832 23.9616 46.2792 23.9581 46.272C23.8518 46.0636 23.7532 45.8547 23.6576 45.6422H23.6541C23.3536 44.9798 23.0903 44.2951 22.8778 43.592C22.7167 43.0867 22.5815 42.5672 22.4717 42.04C22.4681 42.0365 22.4681 42.0289 22.4681 42.0253C22.3913 41.6557 22.3253 41.2821 22.2739 40.9049C22.157 40.0997 22.098 39.2797 22.098 38.445C22.098 37.9656 22.1163 37.4858 22.16 37.0171C22.1819 36.7166 22.2149 36.4203 22.2551 36.1239C22.4783 34.4179 22.9541 32.7927 23.6424 31.2809C23.9794 30.5377 24.3673 29.8239 24.8029 29.1392C25.5278 27.9969 26.3844 26.9502 27.3508 26.0093C30.4741 22.9714 34.7391 21.1007 39.4393 21.1007C39.6223 21.1007 39.8053 21.1043 39.9847 21.1078C40.1789 21.1149 40.3726 21.1226 40.5668 21.1373C41.5627 21.2034 42.5361 21.3498 43.4771 21.5765C44.0261 21.7082 44.5644 21.8622 45.0916 22.0452C45.4505 22.1662 45.8018 22.3014 46.1495 22.4478C46.4092 22.5576 46.6619 22.671 46.9145 22.792C46.9583 22.8138 47.0025 22.8321 47.0462 22.854C48.7304 23.6775 50.2569 24.7613 51.5817 26.0606C51.7718 26.2436 51.9553 26.4343 52.1383 26.628C52.2593 26.7596 52.3798 26.8953 52.4972 27.0306C52.6985 27.2573 52.8927 27.4957 53.0828 27.7336C53.7747 28.612 54.3822 29.5565 54.891 30.5595C55.4878 31.7236 55.9565 32.9645 56.2747 34.2644C56.6077 35.6044 56.7836 37.0028 56.7836 38.445L56.7841 38.4455Z" fill="url(#paint1_radial_920_13781)"/>
<path style="mix-blend-mode:multiply" opacity="0.5" fill-rule="evenodd" clip-rule="evenodd" d="M22.7594 35.8839C22.7594 35.8839 25.8527 37.4974 28.6237 35.3034C31.3947 33.1094 29.1783 24.9245 29.1783 24.9245L22.7594 35.8839Z" fill="url(#paint2_linear_920_13781)"/>
<path style="mix-blend-mode:multiply" opacity="0.89" fill-rule="evenodd" clip-rule="evenodd" d="M42.8676 48.3512C42.8676 48.3512 44.2671 50.0338 47.6918 50.2188C51.1165 50.4039 54.5387 46.4733 55.3246 42.9129C56.1105 39.3524 53.5673 35.7533 51.0703 35.1941C48.5733 34.6354 42.8671 48.3512 42.8671 48.3512H42.8676Z" fill="url(#paint3_linear_920_13781)"/>
<path style="mix-blend-mode:screen" fill-rule="evenodd" clip-rule="evenodd" d="M29.1559 51.9899C27.363 50.4888 25.8771 48.6298 24.809 46.5237C24.138 45.1999 23.6327 43.7801 23.3201 42.2912C23.317 42.2881 23.317 42.282 23.317 42.2759C23.0766 41.1204 22.947 39.9233 22.947 38.6961C22.947 35.2724 23.9398 32.081 25.6514 29.3913C26.3793 28.2481 27.2339 27.2014 28.1992 26.2625C31.325 23.2241 35.5875 21.3528 40.2897 21.3528C40.669 21.3528 41.0416 21.365 41.4147 21.3889C42.591 21.4642 43.7338 21.6589 44.8334 21.9573C43.4781 21.513 42.0476 21.2324 40.5658 21.1373C40.1927 21.1134 39.8195 21.1012 39.4408 21.1012C34.7386 21.1012 30.4761 22.9724 27.3503 26.0108C26.3844 26.9492 25.5304 27.9964 24.8024 29.1397C23.0908 31.8294 22.098 35.0208 22.098 38.4445C22.098 39.6722 22.2271 40.8693 22.4681 42.0243C22.4681 42.0304 22.4681 42.0365 22.4711 42.0395C22.7843 43.5285 23.2896 44.9488 23.9601 46.272C25.0281 48.3776 26.514 50.2372 28.307 51.7383C30.2072 53.3325 32.4505 54.523 34.9109 55.1874C32.7825 54.493 30.8355 53.3991 29.1559 51.9899Z" fill="url(#paint4_radial_920_13781)"/>
<path fill-rule="evenodd" clip-rule="evenodd" d="M25.2747 48.4498C25.2747 48.4498 26.3732 50.2402 26.0961 53.1535C26.0961 53.1535 28.5047 57.3632 35.3023 57.7099C35.3023 57.7099 38.724 55.1874 41.9993 55.5982C41.9993 55.5982 36.3444 47.5368 25.2752 48.4498H25.2747Z" fill="url(#paint5_linear_920_13781)"/>
<path fill-rule="evenodd" clip-rule="evenodd" d="M22.7594 35.8839C22.7594 35.8839 21.6202 32.7398 20.5974 31.6296C20.5974 31.6296 19.8115 26.6356 24.898 24.9245C24.898 24.9245 27.6375 25.4471 29.1783 24.9245C29.1783 24.9245 29.7649 28.2999 27.4413 31.9071C25.4597 34.9826 22.7599 35.8839 22.7599 35.8839H22.7594Z" fill="url(#paint6_linear_920_13781)"/>
<path fill-rule="evenodd" clip-rule="evenodd" d="M53.9206 38.3322C53.9206 38.3322 52.7087 34.0691 48.5921 33.8134C44.2259 33.542 40.3594 42.2551 41.7066 46.4174C43.0537 50.5798 47.9135 49.9804 50.1385 48.4676C52.8414 46.6304 54.1677 42.5697 53.9206 38.3322Z" fill="url(#paint7_linear_920_13781)"/>
<path style="mix-blend-mode:multiply" opacity="0.5" fill-rule="evenodd" clip-rule="evenodd" d="M35.401 25.8131C35.401 25.8131 36.8788 28.3131 39.7413 28.0396C42.8671 27.7407 43.7028 25.0943 43.5864 24.0461C43.47 22.9978 35.401 25.8131 35.401 25.8131Z" fill="url(#paint8_linear_920_13781)"/>
<path fill-rule="evenodd" clip-rule="evenodd" d="M49.2646 35.3034C45.4896 35.2826 39.8978 45.327 44.7663 48.704C49.3917 51.9122 53.6659 44.9488 54.1676 42.5697C54.6694 40.1912 54.3476 35.3314 49.2646 35.3034Z" fill="url(#paint9_linear_920_13781)"/>
<path fill-rule="evenodd" clip-rule="evenodd" d="M47.5078 48.6023C47.3284 48.5876 47.1525 48.5621 46.9878 48.5362C44.6448 48.1336 43.7664 46.5043 43.5686 44.8609C43.4441 43.8177 43.5941 42.7705 43.8177 42.0238C44.2605 40.545 46.6365 37.0781 49.3567 36.5911C50.3231 36.4152 51.3336 36.6205 52.3183 37.4293C53.1495 38.1176 53.5633 39.022 53.6583 40.0249C54.0243 43.7664 50.0597 48.829 47.5083 48.6023H47.5078Z" fill="url(#paint10_linear_920_13781)"/>
<path fill-rule="evenodd" clip-rule="evenodd" d="M36.0664 21.2202C36.0664 21.2202 34.3329 23.4462 35.1879 25.4476C36.0953 27.5704 41.1798 27.4805 42.8228 25.8588C44.4658 24.2372 43.1548 21.1434 41.741 20.6005C40.1311 19.9823 38.0057 20.0992 36.0664 21.2202Z" fill="url(#paint11_radial_920_13781)"/>
<path fill-rule="evenodd" clip-rule="evenodd" d="M35.7421 24.133C36.6271 25.9173 42.6882 26.1725 43.1259 23.0766C43.5422 20.1359 39.2456 19.7714 38.0053 20.0987C36.7649 20.4261 34.55 21.73 35.7421 24.133Z" fill="url(#paint12_linear_920_13781)"/>
<path fill-rule="evenodd" clip-rule="evenodd" d="M42.2641 22.3146C42.2753 22.4133 42.2753 22.5088 42.2641 22.6003C42.2606 22.6989 42.2458 22.7981 42.224 22.8896C41.7298 24.8772 37.7358 25.5254 36.8243 24.4197C36.5716 24.1122 36.4181 23.8082 36.3449 23.5194C36.0338 22.3004 37.1212 21.3228 37.842 20.9457C38.7316 20.477 42.0664 19.9971 42.2641 22.3146Z" fill="url(#paint13_linear_920_13781)"/>
<path fill-rule="evenodd" clip-rule="evenodd" d="M20.5974 31.6296C20.6812 32.7637 26.3849 27.3869 24.898 24.9245C24.898 24.9245 20.1353 25.3637 20.5974 31.6296Z" fill="url(#paint14_linear_920_13781)"/>
<path fill-rule="evenodd" clip-rule="evenodd" d="M26.0962 53.1535C25.7419 51.1273 36.0425 52.5272 35.3024 57.7099C35.1407 58.843 26.6849 56.5183 26.0962 53.1535Z" fill="url(#paint15_linear_920_13781)"/>
<path fill-rule="evenodd" clip-rule="evenodd" d="M34.3767 57.5604C34.2049 57.6997 28.5526 56.865 26.6087 53.4311C26.4805 53.2003 27.0845 53.1271 28.0107 53.2369C28.3619 53.2771 28.7574 53.3467 29.1783 53.4453C30.5184 53.7564 32.0958 54.3644 33.1648 55.3308C33.4978 55.6312 33.754 55.9017 33.9446 56.1436C34.2191 56.4949 34.3655 56.7806 34.4316 57.0002C34.5231 57.3113 34.457 57.4979 34.3767 57.5604Z" fill="url(#paint16_linear_920_13781)"/>
<path fill-rule="evenodd" clip-rule="evenodd" d="M33.9446 56.1436C31.7043 55.7481 30.0934 54.4229 29.1783 53.4458C30.5183 53.7569 32.0958 54.3649 33.1648 55.3313C33.4978 55.6317 33.754 55.9022 33.9446 56.1441V56.1436Z" fill="url(#paint17_linear_920_13781)"/>
<path fill-rule="evenodd" clip-rule="evenodd" d="M24.2789 26.4826C24.1838 26.7871 24.0232 27.1932 23.7812 27.7336C23.3486 28.6964 22.4941 29.6989 21.8714 30.1869C21.5536 30.439 21.2949 30.557 21.1902 30.4655C20.9741 30.2789 21.0102 28.8967 21.6716 27.6126C22.3334 26.3255 24.1249 25.4115 24.3084 25.6113C24.4233 25.7358 24.4426 25.9651 24.2789 26.4826Z" fill="url(#paint18_linear_920_13781)"/>
<path fill-rule="evenodd" clip-rule="evenodd" d="M24.2789 26.4826C24.1838 26.7871 24.0232 27.1932 23.7812 27.7336C23.3486 28.6964 22.4941 29.6989 21.8713 30.1869C22.5983 28.2084 23.8859 26.8623 24.2789 26.4821V26.4826Z" fill="url(#paint19_linear_920_13781)"/>
<path fill-rule="evenodd" clip-rule="evenodd" d="M26.0962 46.0107C25.9168 45.9009 25.7414 45.7032 25.5838 45.4505C25.5838 45.4505 25.5838 45.447 25.5767 45.4394C25.0017 44.5132 24.6688 42.9022 25.2763 42.5728C26.0266 42.1626 27.1358 42.375 27.6375 43.7074C27.6375 43.7074 27.6375 43.711 27.6411 43.7145C27.6594 43.7583 27.6777 43.806 27.6889 43.8538C27.6924 43.8609 27.696 43.8686 27.696 43.8757C27.7031 43.9123 27.7143 43.9453 27.7255 43.9672C27.7402 44.015 27.755 44.0622 27.7656 44.1136C28.0767 45.384 26.9345 46.5186 26.0962 46.0097V46.0107Z" fill="url(#paint20_linear_920_13781)"/>
<path style="mix-blend-mode:multiply" opacity="0.4" fill-rule="evenodd" clip-rule="evenodd" d="M27.637 43.7079C27.3549 43.1406 26.2569 42.4818 25.5833 43.0964C24.8767 43.741 25.5172 45.293 25.5762 45.4394C25.0013 44.5132 24.6683 42.9022 25.2758 42.5728C26.0261 42.1626 27.1353 42.375 27.637 43.7074V43.7079Z" fill="url(#paint21_radial_920_13781)"/>
<path fill-rule="evenodd" clip-rule="evenodd" d="M31.35 29.1326C31.2717 29.0751 31.199 28.9775 31.1365 28.8555C31.1365 28.8555 31.1365 28.854 31.1334 28.8499C30.9052 28.4021 30.8147 27.6492 31.1065 27.5216C31.4669 27.3625 31.9686 27.5028 32.1471 28.1347C32.1471 28.1347 32.1471 28.1362 32.1486 28.1383C32.1552 28.1591 32.1618 28.1815 32.1649 28.2038C32.1664 28.2074 32.1679 28.211 32.1674 28.214C32.1694 28.2313 32.173 28.2465 32.1771 28.2572C32.1821 28.2796 32.1867 28.3019 32.1898 28.3258C32.2833 28.9216 31.715 29.3985 31.3495 29.1321L31.35 29.1326Z" fill="url(#paint22_linear_920_13781)"/>
<path style="mix-blend-mode:multiply" opacity="0.4" fill-rule="evenodd" clip-rule="evenodd" d="M32.1471 28.1342C32.0398 27.8627 31.5604 27.5176 31.2275 27.7738C30.8777 28.0422 31.1121 28.7803 31.1334 28.8499C30.9052 28.4021 30.8147 27.6492 31.1065 27.5216C31.4669 27.3625 31.9686 27.5028 32.1471 28.1347V28.1342Z" fill="url(#paint23_radial_920_13781)"/>
<path fill-rule="evenodd" clip-rule="evenodd" d="M44.3382 53.3437H44.3326C44.298 53.3609 44.2579 53.3782 44.2177 53.3838C44.2121 53.3894 44.206 53.3955 44.2004 53.3955C44.1715 53.4011 44.143 53.4072 44.1257 53.4184C44.0911 53.4301 44.051 53.4413 44.0052 53.453C43.4252 53.608 42.8792 53.3955 42.5747 53.0509C42.3277 52.7753 42.2418 52.4246 42.4197 52.1145C42.5061 51.965 42.6667 51.8156 42.8736 51.6834L42.8792 51.6778C43.6316 51.1893 44.9528 50.8853 45.2344 51.3789C45.3147 51.5111 45.3666 51.6605 45.3839 51.8156C45.4698 52.3671 45.1887 53.0046 44.3382 53.3437Z" fill="url(#paint24_linear_920_13781)"/>
<path style="mix-blend-mode:screen" opacity="0.5" fill-rule="evenodd" clip-rule="evenodd" d="M30.041 43.7923C30.041 43.7923 31.0841 45.4561 33.9446 45.2828C36.8051 45.1094 37.3251 43.71 37.4985 42.5718C37.6718 41.4331 37.1945 40.0326 37.1945 40.0326C37.1945 40.0326 30.8722 41.2272 30.041 43.7928V43.7923Z" fill="url(#paint25_radial_920_13781)"/>
<path style="mix-blend-mode:multiply" opacity="0.4" fill-rule="evenodd" clip-rule="evenodd" d="M45.3839 51.8156C45.1485 51.6143 44.66 51.3677 43.8614 51.6204C42.6378 52.0052 42.5747 53.0509 42.5747 53.0509C42.3277 52.7753 42.2418 52.4246 42.4197 52.1145C42.5061 51.965 42.6667 51.8156 42.8736 51.6834L42.8792 51.6778C43.6316 51.1893 44.9528 50.8853 45.2344 51.3789C45.3147 51.5111 45.3666 51.6605 45.3839 51.8156Z" fill="url(#paint26_radial_920_13781)"/>
<path fill-rule="evenodd" clip-rule="evenodd" d="M37.3348 41.6435L37.3312 41.7056C37.3389 46.1353 30.7014 45.5934 29.6618 43.2357C29.5189 42.9098 29.398 42.5474 29.3064 42.1666V42.1631C28.7208 39.7911 29.0868 36.6134 30.1447 35.885C31.2575 35.1199 33.3956 35.1016 34.9511 35.885C36.7044 36.7675 37.3968 39.4068 37.3343 41.6435H37.3348Z" fill="url(#paint27_linear_920_13781)"/>
<path style="mix-blend-mode:multiply" opacity="0.4" fill-rule="evenodd" clip-rule="evenodd" d="M37.3348 41.6435L37.3312 41.7056C37.3312 41.7056 37.4304 38.9345 36.0903 37.4553C34.7468 35.9765 32.0673 35.5591 30.5331 37.2245C29.0396 38.8497 29.2922 42.0126 29.3064 42.1631C28.7208 39.7911 29.0868 36.6134 30.1447 35.885C31.2575 35.1199 33.3956 35.1016 34.9511 35.885C36.7044 36.7675 37.3968 39.4068 37.3343 41.6435H37.3348Z" fill="url(#paint28_linear_920_13781)"/>
<path fill-rule="evenodd" clip-rule="evenodd" d="M49.7775 27.6996C49.4003 27.9009 48.5072 27.3447 47.6908 26.6488C46.6985 25.7958 45.8277 24.7308 46.1678 24.5768C46.6329 24.3684 48.3425 24.5071 49.1294 25.1553C49.4664 25.4333 49.7882 25.8619 49.9824 26.2975C50.2279 26.8649 50.2498 27.4434 49.7775 27.6996Z" fill="url(#paint29_linear_920_13781)"/>
<path style="mix-blend-mode:multiply" opacity="0.4" fill-rule="evenodd" clip-rule="evenodd" d="M49.9824 26.2975C49.9788 26.294 49.9753 26.2864 49.9712 26.2828C48.7349 24.4161 46.8281 24.497 46.6888 25.0058C46.5495 25.5147 47.6908 26.6488 47.6908 26.6488C46.6985 25.7958 45.8277 24.7308 46.1678 24.5768C46.6329 24.3684 48.3425 24.5071 49.1294 25.1553C49.4664 25.4333 49.7882 25.8619 49.9824 26.2975Z" fill="url(#paint30_linear_920_13781)"/>
<path fill-rule="evenodd" clip-rule="evenodd" d="M21.8265 31.1619C21.8265 31.1619 24.6494 29.7457 24.9458 26.9487C24.9458 26.9487 23.5219 29.8275 21.8265 31.1619Z" fill="#E5BDFA"/>
<path fill-rule="evenodd" clip-rule="evenodd" d="M42.8676 45.0296C42.8676 45.0296 43.1457 39.4215 47.2018 36.1163C47.2018 36.1163 42.3369 38.4435 42.8676 45.0296Z" fill="#E5BDFA"/>
<path fill-rule="evenodd" clip-rule="evenodd" d="M35.9083 24.38C35.9083 24.38 36.6688 25.5345 39.269 25.4466C41.8687 25.3581 42.7222 24.1716 42.8676 23.8534C42.8676 23.8534 42.2225 25.8441 39.2832 25.7744C36.1818 25.7012 35.9083 24.38 35.9083 24.38Z" fill="#FFA5F7"/>
<path fill-rule="evenodd" clip-rule="evenodd" d="M30.5336 52.6391C30.5336 52.6391 34.4758 54.2302 35.2744 56.5203C35.2744 56.5203 35.1865 53.8922 30.5336 52.6391Z" fill="#FFA5F7"/>
<path style="mix-blend-mode:multiply" opacity="0.71" fill-rule="evenodd" clip-rule="evenodd" d="M53.6578 40.0255V40.0326C53.6578 40.0326 52.3183 37.7196 48.6028 38.7338C45.2716 39.6417 43.8325 43.9275 43.5686 44.8614C43.4441 43.8182 43.5941 42.7711 43.8177 42.0243C44.2605 40.5455 46.6365 37.0786 49.3567 36.5916C50.3231 36.4157 51.3336 36.6211 52.3183 37.4298C53.1495 38.1181 53.5633 39.0225 53.6583 40.0255H53.6578Z" fill="url(#paint31_linear_920_13781)"/>
<path style="mix-blend-mode:multiply" opacity="0.71" fill-rule="evenodd" clip-rule="evenodd" d="M42.2641 22.3146C42.2753 22.4132 42.2753 22.5088 42.2641 22.6003C41.5687 21.5791 40.2872 21.3518 38.6732 21.6995C37.0551 22.0472 36.3449 23.5189 36.3449 23.5189C36.0338 22.2999 37.1212 21.3223 37.842 20.9451C38.7316 20.477 42.0664 19.9971 42.2641 22.3146Z" fill="url(#paint32_linear_920_13781)"/>
</g>
<defs>
<filter id="filter0_d_920_13781" x="0.553589" y="-1.52588e-05" width="76.8929" height="78" filterUnits="userSpaceOnUse" color-interpolation-filters="sRGB">
<feFlood flood-opacity="0" result="BackgroundImageFix"/>
<feColorMatrix in="SourceAlpha" type="matrix" values="0 0 0 0 0 0 0 0 0 0 0 0 0 0 0 0 0 0 127 0" result="hardAlpha"/>
<feOffset/>
<feGaussianBlur stdDeviation="10"/>
<feComposite in2="hardAlpha" operator="out"/>
<feColorMatrix type="matrix" values="0 0 0 0 0.592157 0 0 0 0 0.501961 0 0 0 0 0.988235 0 0 0 0.4 0"/>
<feBlend mode="normal" in2="BackgroundImageFix" result="effect1_dropShadow_920_13781"/>
<feBlend mode="normal" in="SourceGraphic" in2="effect1_dropShadow_920_13781" result="shape"/>
</filter>
<linearGradient id="paint0_linear_920_13781" x1="52.4154" y1="34.2547" x2="53.8977" y2="24.896" gradientUnits="userSpaceOnUse">
<stop stop-color="#8931B3"/>
<stop offset="1" stop-color="#8E8CFF"/>
</linearGradient>
<radialGradient id="paint1_radial_920_13781" cx="0" cy="0" r="1" gradientUnits="userSpaceOnUse" gradientTransform="translate(33.5552 32.4135) scale(26.1525 26.1524)">
<stop stop-color="#FFB8E2"/>
<stop offset="0.22" stop-color="#FCB7E2"/>
<stop offset="0.33" stop-color="#F5B4E5"/>
<stop offset="0.42" stop-color="#E7B0E9"/>
<stop offset="0.49" stop-color="#D5AAEF"/>
<stop offset="0.55" stop-color="#BDA2F7"/>
<stop offset="0.58" stop-color="#AE9DFC"/>
<stop offset="0.64" stop-color="#A896FC"/>
<stop offset="0.72" stop-color="#9982FC"/>
<stop offset="0.81" stop-color="#8063FD"/>
<stop offset="0.91" stop-color="#5E37FE"/>
<stop offset="0.92" stop-color="#5E37FF"/>
<stop offset="0.99" stop-color="#5E9AFF"/>
</radialGradient>
<linearGradient id="paint2_linear_920_13781" x1="22.7594" y1="30.6902" x2="30.0176" y2="30.6902" gradientUnits="userSpaceOnUse">
<stop stop-color="white"/>
<stop offset="0.17" stop-color="#DBCFEA"/>
<stop offset="0.36" stop-color="#B9A2D6"/>
<stop offset="0.55" stop-color="#9E7FC7"/>
<stop offset="0.72" stop-color="#8B66BC"/>
<stop offset="0.87" stop-color="#8057B5"/>
<stop offset="1" stop-color="#7C52B3"/>
</linearGradient>
<linearGradient id="paint3_linear_920_13781" x1="42.8676" y1="42.7014" x2="55.47" y2="42.7014" gradientUnits="userSpaceOnUse">
<stop stop-color="#7C52B3"/>
<stop offset="0.13" stop-color="#8057B5"/>
<stop offset="0.28" stop-color="#8B66BC"/>
<stop offset="0.45" stop-color="#9E7FC7"/>
<stop offset="0.64" stop-color="#B9A2D6"/>
<stop offset="0.83" stop-color="#DBCFEA"/>
<stop offset="1" stop-color="white"/>
</linearGradient>
<radialGradient id="paint4_radial_920_13781" cx="0" cy="0" r="1" gradientUnits="userSpaceOnUse" gradientTransform="translate(26.7667 26.6397) scale(22.8273 22.8273)">
<stop stop-color="#FFFFD9"/>
<stop offset="1"/>
</radialGradient>
<linearGradient id="paint5_linear_920_13781" x1="32.785" y1="57.4038" x2="34.0762" y2="49.2494" gradientUnits="userSpaceOnUse">
<stop stop-color="#6D109D"/>
<stop offset="1" stop-color="#8E8CFF"/>
</linearGradient>
<linearGradient id="paint6_linear_920_13781" x1="27.6375" y1="31.8548" x2="21.916" y2="26.8811" gradientUnits="userSpaceOnUse">
<stop stop-color="#C98EFF"/>
<stop offset="1" stop-color="#8931B3"/>
</linearGradient>
<linearGradient id="paint7_linear_920_13781" x1="52.6185" y1="45.7825" x2="42.8291" y2="38.2948" gradientUnits="userSpaceOnUse">
<stop stop-color="#5400B3"/>
<stop offset="1" stop-color="#F2C0FF"/>
</linearGradient>
<linearGradient id="paint8_linear_920_13781" x1="35.401" y1="25.9366" x2="43.5971" y2="25.9366" gradientUnits="userSpaceOnUse">
<stop stop-color="white"/>
<stop offset="0.17" stop-color="#DBCFEA"/>
<stop offset="0.36" stop-color="#B9A2D6"/>
<stop offset="0.55" stop-color="#9E7FC7"/>
<stop offset="0.72" stop-color="#8B66BC"/>
<stop offset="0.87" stop-color="#8057B5"/>
<stop offset="1" stop-color="#7C52B3"/>
</linearGradient>
<linearGradient id="paint9_linear_920_13781" x1="47.7175" y1="49.6312" x2="49.5827" y2="35.2895" gradientUnits="userSpaceOnUse">
<stop stop-color="#644FF7"/>
<stop offset="1" stop-color="#9F6DFF"/>
</linearGradient>
<linearGradient id="paint10_linear_920_13781" x1="44.3825" y1="47.6695" x2="52.0158" y2="38.3113" gradientUnits="userSpaceOnUse">
<stop stop-color="#935CE1"/>
<stop offset="0.22" stop-color="#8F5ADF"/>
<stop offset="0.43" stop-color="#8353DB"/>
<stop offset="0.63" stop-color="#7149D5"/>
<stop offset="0.82" stop-color="#563BCC"/>
<stop offset="0.99" stop-color="#392CC2"/>
</linearGradient>
<radialGradient id="paint11_radial_920_13781" cx="0" cy="0" r="1" gradientUnits="userSpaceOnUse" gradientTransform="translate(35.7612 24.556) rotate(-109.29) scale(6.5038)">
<stop stop-color="#DEA5FF"/>
<stop offset="1" stop-color="#8931B3"/>
</radialGradient>
<linearGradient id="paint12_linear_920_13781" x1="42.8349" y1="21.4657" x2="35.6325" y2="23.9865" gradientUnits="userSpaceOnUse">
<stop stop-color="#C287F8"/>
<stop offset="1" stop-color="#CCB3FF"/>
</linearGradient>
<linearGradient id="paint13_linear_920_13781" x1="39.2811" y1="24.956" x2="39.2811" y2="20.5568" gradientUnits="userSpaceOnUse">
<stop stop-color="#9F6DFF"/>
<stop offset="0.27" stop-color="#9B69FE"/>
<stop offset="0.52" stop-color="#905EFD"/>
<stop offset="0.76" stop-color="#7D4BFA"/>
<stop offset="1" stop-color="#6431F7"/>
</linearGradient>
<linearGradient id="paint14_linear_920_13781" x1="22.8555" y1="31.7851" x2="22.8555" y2="24.925" gradientUnits="userSpaceOnUse">
<stop stop-color="#FC9FF7"/>
<stop offset="1" stop-color="#F66DFF"/>
</linearGradient>
<linearGradient id="paint15_linear_920_13781" x1="30.7135" y1="58.0001" x2="30.7135" y2="52.2639" gradientUnits="userSpaceOnUse">
<stop stop-color="#C282F7"/>
<stop offset="1" stop-color="#DC6DFF"/>
</linearGradient>
<linearGradient id="paint16_linear_920_13781" x1="30.5336" y1="57.5746" x2="30.5336" y2="53.1871" gradientUnits="userSpaceOnUse">
<stop stop-color="#4848F7"/>
<stop offset="1" stop-color="#6D20FF"/>
</linearGradient>
<linearGradient id="paint17_linear_920_13781" x1="31.5615" y1="56.1436" x2="31.5615" y2="53.4458" gradientUnits="userSpaceOnUse">
<stop stop-color="#644FF7"/>
<stop offset="1" stop-color="#9F6DFF"/>
</linearGradient>
<linearGradient id="paint18_linear_920_13781" x1="22.735" y1="30.4965" x2="22.735" y2="25.5838" gradientUnits="userSpaceOnUse">
<stop stop-color="#9F6DFF"/>
<stop offset="1" stop-color="#644FF7"/>
</linearGradient>
<linearGradient id="paint19_linear_920_13781" x1="22.8728" y1="28.2069" x2="23.3527" y2="28.5099" gradientUnits="userSpaceOnUse">
<stop stop-color="#9084FF"/>
<stop offset="1" stop-color="#C287F8"/>
</linearGradient>
<linearGradient id="paint20_linear_920_13781" x1="24.7745" y1="43.253" x2="27.7646" y2="45.1435" gradientUnits="userSpaceOnUse">
<stop stop-color="#9084FF"/>
<stop offset="0.49" stop-color="#D08BFC"/>
<stop offset="1" stop-color="#FFC9F8"/>
</linearGradient>
<radialGradient id="paint21_radial_920_13781" cx="0" cy="0" r="1" gradientUnits="userSpaceOnUse" gradientTransform="translate(26.295 43.9128) scale(1.43761)">
<stop stop-color="#1372B3"/>
<stop offset="1" stop-color="white"/>
</radialGradient>
<linearGradient id="paint22_linear_920_13781" x1="30.8513" y1="27.8148" x2="32.1519" y2="28.7989" gradientUnits="userSpaceOnUse">
<stop stop-color="#9084FF"/>
<stop offset="0.49" stop-color="#D08BFC"/>
<stop offset="1" stop-color="#FFC9F8"/>
</linearGradient>
<radialGradient id="paint23_radial_920_13781" cx="0" cy="0" r="1" gradientUnits="userSpaceOnUse" gradientTransform="translate(31.5243 28.1766) rotate(4.82) scale(0.662885)">
<stop stop-color="#1372B3"/>
<stop offset="1" stop-color="white"/>
</radialGradient>
<linearGradient id="paint24_linear_920_13781" x1="45.3915" y1="52.3427" x2="42.3287" y2="52.2782" gradientUnits="userSpaceOnUse">
<stop stop-color="#9566FC"/>
<stop offset="1" stop-color="#5445B1"/>
</linearGradient>
<radialGradient id="paint25_radial_920_13781" cx="0" cy="0" r="1" gradientUnits="userSpaceOnUse" gradientTransform="translate(34.8291 44.6753) scale(3.23817)">
<stop stop-color="#FFFFE8"/>
<stop offset="0.2" stop-color="#BBBBAA"/>
<stop offset="0.42" stop-color="#79796E"/>
<stop offset="0.61" stop-color="#45453E"/>
<stop offset="0.78" stop-color="#1F1F1C"/>
<stop offset="0.91" stop-color="#080807"/>
<stop offset="1"/>
</radialGradient>
<radialGradient id="paint26_radial_920_13781" cx="0" cy="0" r="1" gradientUnits="userSpaceOnUse" gradientTransform="translate(43.8542 52.0891) scale(1.27748 1.27748)">
<stop stop-color="#1372B3"/>
<stop offset="1" stop-color="white"/>
</radialGradient>
<linearGradient id="paint27_linear_920_13781" x1="28.9206" y1="37.6245" x2="37.2402" y2="42.8839" gradientUnits="userSpaceOnUse">
<stop stop-color="#9084FF"/>
<stop offset="0.12" stop-color="#9684FE"/>
<stop offset="0.29" stop-color="#AA86FD"/>
<stop offset="0.49" stop-color="#C98AFC"/>
<stop offset="0.53" stop-color="#D08BFC"/>
<stop offset="1" stop-color="#FFC9F8"/>
</linearGradient>
<linearGradient id="paint28_linear_920_13781" x1="29.0279" y1="38.7338" x2="37.3383" y2="38.7338" gradientUnits="userSpaceOnUse">
<stop stop-color="#1372B3"/>
<stop offset="1" stop-color="white"/>
</linearGradient>
<linearGradient id="paint29_linear_920_13781" x1="46.1703" y1="24.5331" x2="50.2559" y2="27.116" gradientUnits="userSpaceOnUse">
<stop stop-color="#845FFF"/>
<stop offset="0.49" stop-color="#A972FC"/>
<stop offset="1" stop-color="#D4B0F8"/>
</linearGradient>
<linearGradient id="paint30_linear_920_13781" x1="46.093" y1="25.5681" x2="49.9824" y2="25.5681" gradientUnits="userSpaceOnUse">
<stop stop-color="#1372B3"/>
<stop offset="1" stop-color="white"/>
</linearGradient>
<linearGradient id="paint31_linear_920_13781" x1="43.5239" y1="40.697" x2="53.6578" y2="40.697" gradientUnits="userSpaceOnUse">
<stop stop-color="#7C52B3"/>
<stop offset="1" stop-color="white"/>
</linearGradient>
<linearGradient id="paint32_linear_920_13781" x1="36.29" y1="22.0381" x2="42.2723" y2="22.0381" gradientUnits="userSpaceOnUse">
<stop stop-color="#7C52B3"/>
<stop offset="1" stop-color="white"/>
</linearGradient>
</defs>
</svg>
