<svg width="78" height="76" viewBox="0 0 78 76" fill="none" xmlns="http://www.w3.org/2000/svg">
<g filter="url(#filter0_d_905_6347)">
<path fill-rule="evenodd" clip-rule="evenodd" d="M44.6132 49.8327L49.8302 50.1314C49.8302 50.1314 54.1491 48.83 56.3033 46.0868L57.3165 40.3752L55.6425 35.1504L46.5462 40.9676C46.5462 40.9676 44.4823 47.9464 44.6127 49.8327H44.6132Z" fill="url(#paint0_linear_905_6347)"/>
<path fill-rule="evenodd" clip-rule="evenodd" d="M56.0483 38.9984C56.0483 40.6243 55.8196 42.1995 55.3874 43.686C54.5301 46.6762 52.8685 49.3241 50.6498 51.3891C49.0636 52.8681 47.1912 54.0439 45.1297 54.8263C43.2612 55.5373 41.239 55.9233 39.1199 55.9233C38.8198 55.9233 38.5161 55.9164 38.2194 55.8985H38.216C37.7729 55.8772 37.3333 55.834 36.9012 55.7804C33.6321 55.3518 30.6632 53.9938 28.2549 51.9715C27.351 51.2179 26.5294 50.3675 25.804 49.4382C25.2538 48.7417 24.7571 48.0019 24.3215 47.2195C24.2178 47.0339 24.1181 46.8444 24.0179 46.6549C24.0179 46.6479 24.0144 46.644 24.0109 46.637C23.9072 46.4336 23.811 46.2297 23.7177 46.0223H23.7142C23.4215 45.3758 23.164 44.7075 22.9566 44.0214C22.7994 43.5282 22.6674 43.0211 22.5602 42.5066C22.5567 42.5032 22.5567 42.4957 22.5567 42.4923C22.4818 42.1316 22.4173 41.7669 22.3672 41.3988C22.2531 40.6129 22.1956 39.8126 22.1956 38.9979C22.1956 38.5301 22.2134 38.0617 22.2561 37.6048C22.2774 37.3115 22.3097 37.0223 22.3489 36.733C22.5667 35.068 23.0316 33.4818 23.7028 32.0063C24.0318 31.2809 24.4103 30.5844 24.8355 29.9161C25.543 28.8012 26.379 27.7797 27.3222 26.8613C30.37 23.8959 34.5321 22.0701 39.1199 22.0701C39.2986 22.0701 39.4772 22.0735 39.6523 22.077C39.8418 22.084 40.0309 22.0914 40.2204 22.1058C41.1923 22.1703 42.1424 22.3132 43.0608 22.5345C43.5966 22.663 44.1221 22.8133 44.6365 22.9919C44.9868 23.11 45.3297 23.242 45.669 23.3848C45.9225 23.492 46.1691 23.6027 46.4157 23.7207C46.4584 23.7421 46.5015 23.7599 46.5442 23.7813C48.1879 24.585 49.6774 25.6428 50.9708 26.9109C51.1563 27.0895 51.3355 27.2751 51.5141 27.4646C51.6322 27.5931 51.7497 27.7256 51.8643 27.8576C52.0608 28.0788 52.2503 28.3115 52.4359 28.5437C53.1111 29.4011 53.704 30.3229 54.2007 31.3018C54.7831 32.4379 55.2406 33.649 55.5512 34.9177C55.8761 36.2255 56.0478 37.5904 56.0478 38.9979L56.0483 38.9984Z" fill="url(#paint1_radial_905_6347)"/>
<path style="mix-blend-mode:multiply" opacity="0.71" fill-rule="evenodd" clip-rule="evenodd" d="M29.3212 37.6871C29.3212 37.6871 32.3149 40.3633 33.0596 41.4657C33.8043 42.5682 36.3088 50.0951 36.3768 51.6798C36.4443 53.2645 34.9444 55.4054 34.9444 55.4054C34.9444 55.4054 32.4032 54.6894 30.9827 53.8415L31.8411 47.928L29.3217 37.6876L29.3212 37.6871Z" fill="url(#paint2_linear_905_6347)"/>
<path style="mix-blend-mode:multiply" opacity="0.71" fill-rule="evenodd" clip-rule="evenodd" d="M46.9932 42.6639L51.6758 44.9849C51.6758 44.9849 52.6045 45.61 53.7085 44.4391C53.7085 44.4391 53.8196 42.8063 53.1424 41.2321L46.9927 42.6639H46.9932Z" fill="url(#paint3_linear_905_6347)"/>
<g style="mix-blend-mode:multiply" opacity="0.3">
<path fill-rule="evenodd" clip-rule="evenodd" d="M29.8099 38.5742C29.4273 40.2021 29.6705 41.9103 30.2589 43.4612C30.3859 43.7961 30.5223 44.2263 30.7302 44.5279C30.8939 44.7656 31.1713 44.9085 31.3965 45.0796C31.6947 45.3064 31.9656 45.5649 32.2583 45.7971C32.5902 46.0605 32.9276 46.2218 33.3285 46.3647C34.0901 46.6355 34.8551 46.838 35.6584 46.5998C36.3718 46.388 37.0664 45.873 37.4797 45.2597C37.6722 44.9745 37.895 44.7214 38.0984 44.4451C38.2989 44.1727 38.4244 43.8294 38.5489 43.5173C38.7955 42.8986 38.8739 42.1162 38.8302 41.4543C38.8094 41.1383 38.7717 40.8168 38.6943 40.5097C38.6134 40.1887 38.4666 39.891 38.405 39.564C38.3043 39.0287 38.0652 38.5534 37.8508 38.0518C37.3185 36.808 35.9352 36.0643 34.6602 35.8792C34.0613 35.7924 33.4684 35.9308 32.88 36.0216C32.2583 36.1173 31.8063 36.4061 31.2531 36.677C30.9272 36.8367 30.6077 37.0154 30.375 37.2987C29.8248 37.9699 29.7449 38.9126 29.8109 38.5727L29.8099 38.5742Z" fill="#7D72B3"/>
<path fill-rule="evenodd" clip-rule="evenodd" d="M34.9171 47.5842C35.2044 47.3257 35.5953 47.031 35.9655 46.901C36.219 46.8117 36.4556 46.9084 36.6625 47.0563C37.0798 47.3545 36.9999 48.0486 36.67 48.4008C36.0677 49.0433 34.935 48.5303 34.938 47.7097L34.9176 47.5837L34.9171 47.5842Z" fill="#7D72B3"/>
<path fill-rule="evenodd" clip-rule="evenodd" d="M40.7568 42.1832C40.5906 41.9584 40.475 41.8835 40.4839 41.6592C40.4903 41.4905 40.6804 41.169 40.7692 41.0073C41.0361 40.5201 41.4608 40.1728 41.9852 40.0071C42.3548 39.89 42.6997 39.8359 43.0861 39.8329C43.4329 39.8304 43.7197 39.9322 44.0462 40.0378C44.6381 40.2289 45.292 40.5444 45.7276 41.0073C46.1374 41.4424 46.0779 42.2288 45.7187 42.6728C45.4438 43.0122 45.0449 43.2176 44.6822 43.4503C44.2853 43.7048 43.8502 44.0298 43.3903 44.1558C43.0926 44.2377 42.8793 44.2798 42.586 44.194C42.3022 44.1107 42.0735 44.0278 41.815 43.8963C41.5784 43.7758 41.3988 43.7266 41.2058 43.5371C41.0351 43.3704 40.8937 43.1997 40.7746 42.9914C40.6064 42.6962 40.666 42.335 40.7563 42.1841L40.7568 42.1832Z" fill="#7D72B3"/>
<path fill-rule="evenodd" clip-rule="evenodd" d="M39.4677 39.1155C39.3992 39.3353 39.2494 39.7784 39.6463 39.7541C39.8269 39.7431 40.0963 39.5903 40.1921 39.4787C40.5885 39.0173 39.6419 38.7057 39.558 39.1155H39.4677Z" fill="#7D72B3"/>
<path fill-rule="evenodd" clip-rule="evenodd" d="M45.3729 50.1824C45.1833 49.7845 45.1412 49.6327 45.2697 49.209C45.4617 48.5764 45.7802 47.8789 46.1146 47.3063C46.3269 46.9421 46.5894 46.447 46.9908 46.2728C47.3128 46.1334 47.6883 46.0481 48.0381 46.0263C48.8007 45.9791 49.3896 46.3393 49.9319 46.8419C50.2668 47.1525 50.5456 47.4105 50.7396 47.8347C50.9078 48.2023 51.008 48.6876 50.9688 49.0904C50.8572 50.238 49.858 51.0502 49.1187 51.8336C48.5353 52.4518 47.5613 53.2283 46.6524 52.8978C46.0238 52.6696 45.6487 52.0028 45.3912 51.4233C45.2205 51.0393 45.2831 50.5923 45.3734 50.182L45.3729 50.1824Z" fill="#7D72B3"/>
<path fill-rule="evenodd" clip-rule="evenodd" d="M44.3805 47.1788C44.1583 47.3599 44.0843 47.5817 44.0303 47.867C43.9906 48.0739 43.9057 48.5338 44.1082 48.702C44.2863 48.8498 44.6137 48.6003 44.7561 48.5085C44.8787 48.4291 44.968 48.3458 45.0622 48.2331C45.1114 48.1746 45.1768 48.1235 45.2056 48.0515C45.2518 47.9364 45.2349 47.7757 45.2294 47.6536C45.223 47.5018 45.1367 47.3788 45.0315 47.2781C44.9422 47.1922 44.8668 47.1709 44.7457 47.1451C44.6147 47.1173 44.4525 47.0627 44.381 47.1788H44.3805Z" fill="#7D72B3"/>
<path fill-rule="evenodd" clip-rule="evenodd" d="M37.9336 54.6185C37.9093 54.685 37.8855 54.7266 37.9203 54.7906C37.955 54.8551 38.0696 54.9484 38.1162 54.9916C38.2884 55.1513 38.473 55.199 38.6982 55.2466C38.9195 55.2932 39.1487 55.3225 39.373 55.2774C39.5158 55.2486 39.6974 55.2168 39.7917 55.0953C39.9658 54.8695 39.8215 54.5302 39.7059 54.3143C39.6171 54.1491 39.492 54.0008 39.3903 53.843C39.2812 53.6733 39.1244 53.5319 38.9701 53.4029C38.7791 53.2432 38.4834 53.0254 38.2368 53.2025C38.0041 53.3697 37.8751 53.6713 37.8136 53.9407C37.7793 54.0916 37.7868 54.2707 37.8394 54.417C37.8771 54.5222 37.953 54.5937 37.9336 54.6195V54.6185Z" fill="#7D72B3"/>
<path fill-rule="evenodd" clip-rule="evenodd" d="M51.6659 48.0515C51.532 47.9394 51.4814 47.933 51.4958 47.7802C51.5112 47.6179 51.5241 47.4601 51.5851 47.3068C51.7171 46.9739 51.9924 46.6991 52.2559 46.4659C52.4077 46.3319 52.5898 46.2505 52.7793 46.1865C52.878 46.1533 52.9589 46.1136 53.0621 46.128C53.2367 46.1523 53.3538 46.261 53.4079 46.4262C53.4932 46.6867 53.3652 46.9759 53.2238 47.1888C53.0432 47.4611 52.9018 47.7692 52.6156 47.9483C52.4831 48.0312 52.3442 48.1126 52.2038 48.182C52.1189 48.2242 52.0247 48.2684 51.9269 48.2564C51.8589 48.248 51.6466 48.1929 51.6659 48.051V48.0515Z" fill="#7D72B3"/>
<path fill-rule="evenodd" clip-rule="evenodd" d="M24.0333 36.3178C24.0685 36.4676 24.0755 36.6229 24.1241 36.7688C24.2228 37.0679 24.4386 37.3244 24.6604 37.5413C25.0821 37.9535 25.683 38.1227 26.2461 38.2373C26.5383 38.2969 26.8534 38.347 27.152 38.3505C27.3956 38.3534 27.6531 38.4055 27.8948 38.3867C28.3006 38.3549 28.6866 38.2398 29.0349 38.0334C29.5509 37.7278 29.9736 37.2525 29.8034 36.6244C29.7106 36.2806 29.4829 35.9863 29.2343 35.7417C28.9629 35.4748 28.7442 35.1975 28.3889 35.0347C28.2336 34.9633 28.0749 34.8914 27.9156 34.8283C27.7246 34.7519 27.5435 34.6473 27.3391 34.612C27.1694 34.5828 26.9948 34.5173 26.8236 34.5093C26.6559 34.5014 26.4753 34.5009 26.3076 34.5143C25.6978 34.5644 25.0682 34.9206 24.6455 35.3548C24.4783 35.5269 24.3354 35.7194 24.1682 35.8896C24.0144 36.0464 24.0328 36.2354 24.0328 36.3178H24.0333Z" fill="#7D72B3"/>
<path fill-rule="evenodd" clip-rule="evenodd" d="M36.5728 32.0614C36.4041 32.3258 36.3416 32.3849 36.3168 32.694C36.2855 33.0864 36.3128 33.457 36.41 33.8405C36.6318 34.7157 37.318 35.4212 37.9034 36.0806C38.8644 37.1627 39.947 38.148 41.2682 38.7682C41.7882 39.0123 42.3389 39.2902 42.9333 39.2118C43.5098 39.1359 44.0332 38.9195 44.5825 38.7449C45.0652 38.5916 45.5837 38.4487 46.0848 38.3802C46.32 38.348 46.5546 38.3167 46.7908 38.2904C47.1336 38.2527 47.4234 38.1153 47.7508 38.019C48.2242 37.8801 48.7168 37.7958 49.1857 37.645C49.4025 37.5755 49.6059 37.4887 49.8078 37.384C50.1358 37.2138 50.4871 37.1131 50.813 36.9335C52.0196 36.2682 52.8432 34.9365 52.9077 33.5493C52.9405 32.8423 52.6825 32.1026 52.3268 31.5022C52.1253 31.1614 51.8703 30.8553 51.6475 30.5278C51.3593 30.1046 51.0174 29.7245 50.6478 29.3703C49.9621 28.7134 49.1896 28.2897 48.2862 28.0109C47.79 27.8581 47.3311 27.7916 46.8067 27.7936C46.0084 27.796 45.1947 27.9057 44.4118 28.064C43.6284 28.2222 42.8351 28.3894 42.0655 28.6067C41.2544 28.8355 40.4377 29.1813 39.6756 29.5375C38.8892 29.9051 38.2036 30.3928 37.7005 31.1058C37.5874 31.2661 37.4564 31.4204 37.3487 31.5821C37.2639 31.7096 37.2177 31.8093 37.0932 31.9016C36.867 32.0698 36.6571 32.107 36.5728 32.0604V32.0614Z" fill="#7D72B3"/>
</g>
<path style="mix-blend-mode:multiply" opacity="0.71" fill-rule="evenodd" clip-rule="evenodd" d="M53.5775 35.129L56.0488 38.9984C56.0488 38.9984 56.1272 36.4111 55.7635 35.8906C55.3998 35.3697 53.578 35.129 53.578 35.129H53.5775Z" fill="url(#paint4_linear_905_6347)"/>
<path style="mix-blend-mode:multiply" opacity="0.71" fill-rule="evenodd" clip-rule="evenodd" d="M24.1235 32.2092C24.1235 32.2092 28.9574 35.3295 42.1786 34.7406L47.5017 35.1504C47.5017 35.1504 52.5599 33.4292 53.709 30.4053C53.709 30.4053 52.2151 28.251 51.8648 27.8581C51.5145 27.4651 45.2899 28.8087 45.2899 28.8087L24.1235 32.2092Z" fill="url(#paint5_linear_905_6347)"/>
<path fill-rule="evenodd" clip-rule="evenodd" d="M24.836 28.9392V27.9568C24.836 27.9568 27.5082 24.5017 31.9085 20.7067C31.9085 20.7067 43.349 19.6956 46.5988 20.7067L47.8848 23.6488L51.6758 25.0871L51.8643 27.8586C51.8643 27.8586 49.3737 31.8163 44.8384 33.1985L42.5443 32.6543C42.5443 32.6543 40.0318 33.6947 33.3979 33.6947C26.764 33.6947 24.1235 32.2097 24.1235 32.2097V29.9354L24.836 28.9397V28.9392Z" fill="url(#paint6_linear_905_6347)"/>
<path fill-rule="evenodd" clip-rule="evenodd" d="M34.4125 50.3889L33.3011 53.2898L29.8748 54.1045L26.4092 53.9472C26.4092 53.9472 22.7328 51.6143 20.9715 47.927L21.354 44.5721L20.0531 43.3719C20.0531 43.3719 19.7386 40.2383 22.3468 37.3765C22.3468 37.3765 25.2229 36.5763 29.3211 37.6871L31.8469 40.4883C31.8469 40.4883 33.9158 44.4327 34.4125 50.3889Z" fill="url(#paint7_linear_905_6347)"/>
<path style="mix-blend-mode:multiply" opacity="0.71" fill-rule="evenodd" clip-rule="evenodd" d="M38.916 52.3719C38.916 52.3719 39.6935 53.3999 40.1673 53.6029C40.6411 53.8058 43.2816 54.4151 43.5857 54.3813C43.8903 54.3476 43.8903 51.5598 43.7212 51.1088C43.552 50.6578 43.2473 50.3 43.2473 50.3L38.9155 52.3714L38.916 52.3719Z" fill="url(#paint8_linear_905_6347)"/>
<path fill-rule="evenodd" clip-rule="evenodd" d="M58.0007 31.3777L57.8687 32.4816L55.9427 36.0687C54.8635 36.0975 53.713 35.2362 53.5776 35.129C53.5741 35.1255 53.5666 35.1221 53.5632 35.1181C52.7917 33.8604 52.5198 31.0949 52.5198 31.0949L53.4203 29.9835L54.8958 29.7156L55.2674 29.9334L56.5752 29.5653L57.6008 30.2192L57.9044 30.4157L58.0007 31.3767V31.3777Z" fill="url(#paint9_linear_905_6347)"/>
<path fill-rule="evenodd" clip-rule="evenodd" d="M53.9719 36.7628C53.9719 36.7628 51.8206 35.586 50.7708 35.6257L48.0867 37.4644C48.0867 37.4644 46.9956 40.4239 46.9937 42.6644C46.9937 42.6644 49.581 43.5977 51.4014 43.3412C51.4014 43.3412 53.4802 42.4164 54.1986 40.8972C54.1986 40.8972 54.4809 38.2905 53.9724 36.7633L53.9719 36.7628Z" fill="url(#paint10_linear_905_6347)"/>
<path fill-rule="evenodd" clip-rule="evenodd" d="M24.8359 27.9568C24.8359 27.9568 29.8098 28.12 35.2936 26.713C35.2936 26.713 40.8449 24.7651 41.928 24.0199C43.0111 23.2747 46.5992 20.7067 46.5992 20.7067C46.5992 20.7067 40.9129 19.2892 31.9089 20.7067C31.9089 20.7067 27.1738 24.2442 24.8364 27.9568H24.8359Z" fill="url(#paint11_linear_905_6347)"/>
<path fill-rule="evenodd" clip-rule="evenodd" d="M47.8847 23.6483C47.8847 23.6483 44.4321 27.6289 44.0262 27.9563C43.6199 28.2838 37.9941 30.5501 37.9941 30.5501L34.8198 31.3653C34.8198 31.3653 38.7914 31.3326 39.4682 31.3653L40.7319 30.1344L45.1098 30.315C45.1098 30.315 49.1266 27.8913 51.6762 25.0866L47.8852 23.6483H47.8847Z" fill="url(#paint12_linear_905_6347)"/>
<path fill-rule="evenodd" clip-rule="evenodd" d="M24.1235 29.9349L27.6437 30.2698C27.6437 30.2698 29.9904 30.3715 31.3444 29.9146C31.3444 29.9146 26.6315 29.6844 24.836 28.9391L24.1235 29.9349Z" fill="url(#paint13_linear_905_6347)"/>
<path fill-rule="evenodd" clip-rule="evenodd" d="M48.0862 37.4639C48.0862 37.4639 49.6237 38.0404 50.6344 37.9729C51.6455 37.9049 53.9714 36.7628 53.9714 36.7628C53.9714 36.7628 52.9052 35.8306 50.7703 35.6257L48.0862 37.4644V37.4639Z" fill="url(#paint14_linear_905_6347)"/>
<path fill-rule="evenodd" clip-rule="evenodd" d="M20.0522 43.3734C20.0522 43.3734 24.6996 42.3578 25.9756 41.8448C27.2517 41.3318 29.3196 37.6891 29.3196 37.6891C29.3196 37.6891 26.7665 36.5043 22.3463 37.377C22.3463 37.377 19.5923 39.9396 20.0517 43.3739L20.0522 43.3734Z" fill="url(#paint15_linear_905_6347)"/>
<path fill-rule="evenodd" clip-rule="evenodd" d="M21.3546 44.5731C21.3546 44.5731 24.6098 44.1454 25.7584 43.8299C26.9074 43.5143 28.7069 42.4015 28.7069 42.4015C28.7069 42.4015 27.3281 45.5401 26.8305 46.2506C26.8305 46.2506 22.9626 47.7077 20.9711 47.928C20.9711 47.928 20.8679 46.1806 21.3541 44.5736L21.3546 44.5731Z" fill="url(#paint16_linear_905_6347)"/>
<path fill-rule="evenodd" clip-rule="evenodd" d="M38.7458 51.5975C38.7458 51.5975 39.4906 49.9666 40.3707 49.6183C40.3707 49.6183 42.4694 49.6377 43.2478 50.3L42.7403 53.39L39.8294 53.1911C39.8294 53.1911 38.7463 52.6384 38.7463 51.5975H38.7458Z" fill="url(#paint17_linear_905_6347)"/>
<path fill-rule="evenodd" clip-rule="evenodd" d="M38.7458 51.5975C38.7458 51.5975 39.6597 51.8599 40.5062 51.5975C41.3526 51.335 42.4014 49.9691 42.4014 49.9691C42.4014 49.9691 41.7247 49.5266 40.3707 49.6184C40.3707 49.6184 38.983 50.2013 38.7458 51.5975Z" fill="url(#paint18_linear_905_6347)"/>
<path style="mix-blend-mode:multiply" opacity="0.5" fill-rule="evenodd" clip-rule="evenodd" d="M34.4126 50.3889L33.3012 53.2898L29.8748 54.1045L26.4093 53.9472C26.4093 53.9472 29.8426 53.7363 29.9463 53.2293C30.0465 52.7217 30.2822 51.2675 30.2822 51.2675C29.4387 48.7308 26.831 46.251 26.831 46.251C27.9205 44.7145 28.7069 42.3995 28.7069 42.3995L27.2279 43.2251L26.2634 41.685C27.864 40.2596 29.3216 37.6871 29.3216 37.6871L31.8475 40.4884C31.8475 40.4884 33.9164 44.4327 34.4131 50.3889H34.4126Z" fill="url(#paint19_linear_905_6347)"/>
<path style="mix-blend-mode:multiply" opacity="0.5" fill-rule="evenodd" clip-rule="evenodd" d="M41.1089 51.2685L42.7397 53.39L43.2478 50.3005L42.4013 49.9691L41.1089 51.2685Z" fill="url(#paint20_linear_905_6347)"/>
<path style="mix-blend-mode:multiply" opacity="0.71" fill-rule="evenodd" clip-rule="evenodd" d="M50.6344 37.9724C50.6344 37.9724 51.202 39.9287 51.2695 40.7409C51.3369 41.5526 51.4004 43.3407 51.4004 43.3407C51.4004 43.3407 52.9623 42.8128 54.1977 40.8967C54.1977 40.8967 54.5237 38.6655 53.9715 36.7628C53.9715 36.7628 51.9283 37.8112 50.6344 37.9729V37.9724Z" fill="url(#paint21_linear_905_6347)"/>
<path style="mix-blend-mode:multiply" opacity="0.5" fill-rule="evenodd" clip-rule="evenodd" d="M53.8643 31.4124L54.2761 31.7354C54.2761 31.7354 55.1751 31.3698 55.2048 30.9059C55.2341 30.442 55.2664 29.9339 55.2664 29.9339L54.8977 29.7156L53.8648 31.4124H53.8643Z" fill="url(#paint22_linear_905_6347)"/>
<path style="mix-blend-mode:multiply" opacity="0.71" fill-rule="evenodd" clip-rule="evenodd" d="M58.0006 31.3777L57.8686 32.4816L55.9426 36.0687C54.8635 36.0975 53.713 35.2362 53.5775 35.129C54.546 35.7616 55.5675 35.7115 55.5675 35.7115C55.5675 35.7115 55.6355 34.5788 55.5675 33.8678C55.4996 33.1568 54.9885 31.7349 54.9885 31.7349L57.6002 30.2202L57.9039 30.4167L58.0001 31.3777H58.0006Z" fill="url(#paint23_linear_905_6347)"/>
<path fill-rule="evenodd" clip-rule="evenodd" d="M54.8973 29.7161L53.8643 31.4129C53.8643 31.4129 53.2436 31.5762 52.5198 31.0969L53.4198 29.9845L54.8973 29.7161Z" fill="url(#paint24_linear_905_6347)"/>
<path fill-rule="evenodd" clip-rule="evenodd" d="M55.2664 29.9344L55.2049 30.9063C55.2049 30.9063 54.6765 31.593 53.9784 31.8907C53.9784 31.8907 55.3185 31.7448 55.9382 31.4734C55.9382 31.4734 57.5486 30.8304 57.9059 30.4157L56.5762 29.5653L55.2664 29.9344Z" fill="url(#paint25_linear_905_6347)"/>
<path style="mix-blend-mode:multiply" opacity="0.5" fill-rule="evenodd" clip-rule="evenodd" d="M35.7174 26.5105L39.1219 30.0922L44.0263 27.9568C44.0263 27.9568 47.6144 24.0224 47.8848 23.6488L46.5988 20.7067C46.5988 20.7067 43.0787 23.1402 41.9276 24.0199C40.7766 24.8996 35.7174 26.5105 35.7174 26.5105Z" fill="url(#paint26_linear_905_6347)"/>
<path style="mix-blend-mode:multiply" opacity="0.5" fill-rule="evenodd" clip-rule="evenodd" d="M40.7313 30.1349L42.5442 32.6543C42.5442 32.6543 41.1625 33.1192 39.6939 33.2978L39.4677 31.3653L40.7313 30.1344V30.1349Z" fill="url(#paint27_linear_905_6347)"/>
<path style="mix-blend-mode:multiply" opacity="0.5" fill-rule="evenodd" clip-rule="evenodd" d="M45.1094 30.3155L44.8385 33.1986C44.8385 33.1986 49.5935 31.4948 51.8644 27.8586L51.6758 25.0871C51.6758 25.0871 48.0505 28.4996 45.1094 30.3155Z" fill="url(#paint28_linear_905_6347)"/>
<path style="mix-blend-mode:multiply" opacity="0.2" fill-rule="evenodd" clip-rule="evenodd" d="M25.4264 30.059L28.7069 33.5096H30.3372L30.6339 30.0922C30.6339 30.0922 26.955 30.4345 25.4264 30.059Z" fill="url(#paint29_linear_905_6347)"/>
<g style="mix-blend-mode:soft-light">
<path fill-rule="evenodd" clip-rule="evenodd" d="M26.1542 26.84C26.0858 26.6515 26.1319 26.583 26.2351 26.4088C26.3978 26.135 26.6221 25.9048 26.8191 25.6567C27.2026 25.1739 27.6119 24.7244 28.1289 24.3771C28.6627 24.0184 29.1862 23.6295 29.7503 23.3194C30.1358 23.1075 30.5252 22.8902 30.9395 22.7394C31.2313 22.6332 31.5334 22.5489 31.8306 22.4591C32.4121 22.2824 33.2049 22.205 33.7665 22.5027C34.1089 22.6843 34.2423 23.0202 34.3703 23.3665C34.4334 23.5372 34.4884 23.684 34.4547 23.8701C34.4254 24.0323 34.3436 24.2005 34.2716 24.3464C34.0364 24.8257 33.6003 25.2652 33.192 25.6006C32.3585 26.2848 31.4128 26.7785 30.3953 27.1238C30.1229 27.2166 29.85 27.3193 29.5697 27.3857C29.3881 27.4289 29.2015 27.4488 29.0205 27.4939C28.6002 27.5981 28.1711 27.6924 27.7389 27.7395C27.6208 27.7524 27.4874 27.7936 27.3708 27.7931C27.2646 27.7926 27.1614 27.7266 27.0567 27.7082C26.8821 27.678 26.634 27.6849 26.4782 27.5986C26.0625 27.3699 26.0133 26.9179 26.1542 26.8405V26.84Z" fill="#FFA989"/>
<path fill-rule="evenodd" clip-rule="evenodd" d="M33.1041 26.3438C33.1418 26.1682 33.1314 26.1608 33.2421 26.061C33.3046 25.9707 33.376 25.8879 33.4569 25.813C33.5586 25.7251 33.6692 25.6492 33.7878 25.5862C34.1297 25.3962 34.5469 25.1839 34.9473 25.3019C35.2167 25.3813 35.369 25.5113 35.3065 25.806C35.2713 25.9722 35.1329 26.1399 35.0029 26.2426C34.7697 26.4272 34.5038 26.5373 34.2314 26.6524C34.025 26.7393 33.7228 26.7914 33.4981 26.7417C33.2932 26.6966 33.0754 26.4738 33.1041 26.3443V26.3438Z" fill="#FFA989"/>
<path fill-rule="evenodd" clip-rule="evenodd" d="M39.0167 21.4697C38.7052 21.567 38.5395 21.6285 38.2805 21.8051C37.895 22.0676 37.4817 22.331 37.1294 22.6367C36.9076 22.8292 36.6879 23.0653 36.537 23.3194C36.4175 23.5208 36.3788 23.7594 36.3609 23.9906C36.3425 24.2283 36.418 24.6535 36.6759 24.7602C36.7752 24.8008 36.9538 24.7646 37.052 24.7656C37.2847 24.7676 37.4718 24.7289 37.697 24.6733C37.9153 24.6193 38.1356 24.6049 38.3524 24.5404C38.5727 24.4754 38.793 24.4143 39.0157 24.3588C39.4965 24.2392 39.9629 24.1241 40.4124 23.9098C40.8376 23.7073 41.2782 23.5391 41.6954 23.3199C41.9966 23.1611 42.2903 22.9993 42.6004 22.8594C43.029 22.6654 43.4582 22.4759 43.8705 22.2502C44.0466 22.1539 44.1637 22.0418 44.3026 21.9004C44.4381 21.7625 44.5988 21.6459 44.7 21.4777C44.7452 21.4028 44.8509 21.2609 44.8474 21.1671C44.8434 21.048 44.6723 20.9012 44.5835 20.8456C44.4287 20.7488 44.2099 20.6883 44.0308 20.6665C43.7698 20.6342 43.4691 20.6025 43.2077 20.6189C42.8862 20.6397 42.5359 20.6873 42.2188 20.7474C42.008 20.7871 41.8209 20.8391 41.6046 20.8421C41.2161 20.8481 40.8475 20.8759 40.4615 20.9384C40.2427 20.9736 40.0314 21.0495 39.8185 21.11C39.625 21.1651 39.4191 21.2053 39.2365 21.2916C39.1457 21.3348 38.8123 21.4087 39.0172 21.4712L39.0167 21.4697Z" fill="#FFA989"/>
<path fill-rule="evenodd" clip-rule="evenodd" d="M38.1137 20.8377C37.9068 20.9349 37.5992 21.0421 37.4732 21.2584C37.3908 21.3998 37.5054 21.4276 37.6309 21.4286C37.8522 21.4301 38.0794 21.3244 38.2918 21.2663C38.4555 21.2217 38.6292 21.1383 38.7661 21.0391C38.8311 20.992 38.9616 20.9443 38.9179 20.8466C38.8921 20.789 38.7577 20.7285 38.7016 20.7112C38.4898 20.6471 38.2293 20.6958 38.0685 20.8377H38.1137Z" fill="#FFA989"/>
<path fill-rule="evenodd" clip-rule="evenodd" d="M45.5152 27.3818C45.3272 27.4428 45.1401 27.4756 44.956 27.5326C44.769 27.5902 44.5983 27.7082 44.4396 27.8204C44.1662 28.0144 43.87 28.2624 43.7048 28.5586C43.5663 28.8067 43.417 29.2567 43.7077 29.4601C44.1076 29.7394 44.7318 29.4557 45.1312 29.3232C45.7578 29.1153 46.4474 28.8737 46.9788 28.4668C47.2036 28.2947 47.4224 28.0848 47.6283 27.8898C47.7994 27.7276 47.981 27.5267 48.1244 27.3396C48.2301 27.2012 48.246 27.0102 48.2271 26.841C48.2092 26.6792 48.0495 26.5478 47.9011 26.4892C47.6049 26.3721 47.3529 26.512 47.0617 26.5592C46.758 26.6083 46.4043 26.6971 46.1329 26.8509C45.7196 27.0851 45.283 27.2855 45.5152 27.3828V27.3818Z" fill="#FFA989"/>
<path fill-rule="evenodd" clip-rule="evenodd" d="M46.5536 25.7118C46.503 25.6443 46.4723 25.5704 46.4613 25.489C46.5526 25.4652 46.6042 25.36 46.6667 25.3019C46.7208 25.2513 46.7868 25.2176 46.8523 25.1853C46.9605 25.1323 47.1559 25.04 47.278 25.0866C47.5112 25.1759 47.5677 25.4032 47.4472 25.6224C47.3271 25.8417 47.1004 25.9866 46.8573 26.0179C46.6777 26.0412 46.2897 25.7872 46.5085 25.5758L46.5536 25.7113V25.7118Z" fill="#FFA989"/>
<path fill-rule="evenodd" clip-rule="evenodd" d="M49.2165 25.0802C49.0617 25.1094 48.8493 25.1109 48.7054 25.1829C48.6747 25.1982 48.6345 25.2469 48.6027 25.2682C48.4474 25.3729 48.2708 25.4572 48.1299 25.5803C47.9766 25.7142 47.8059 25.9573 47.8863 26.1682C48.1646 26.8995 49.1827 26.4917 49.6471 26.2332C49.8034 26.1464 49.9056 26.0204 50.048 25.9172C50.1547 25.8398 50.2425 25.7817 50.3204 25.6706C50.4345 25.5083 50.4578 25.3992 50.3784 25.2131C50.3194 25.0747 50.175 24.9879 50.0296 24.9546C49.9066 24.9264 49.7696 24.8916 49.6436 24.8971C49.334 24.9105 49.0691 25.1119 48.8101 25.2608L49.2165 25.0802Z" fill="#FFA989"/>
<path fill-rule="evenodd" clip-rule="evenodd" d="M22.589 38.213C21.8879 38.542 21.2662 39.0758 20.8718 39.7481C20.6952 40.0493 20.5513 40.3559 20.4317 40.6843C20.3697 40.8545 20.3439 41.0346 20.2774 41.2033C20.2199 41.3501 20.1584 41.4881 20.1311 41.6453C20.0681 42.0036 19.8994 42.7319 20.4749 42.779C20.7329 42.8004 21.0346 42.7373 21.2861 42.6853C21.7822 42.5826 22.2992 42.3821 22.7572 42.1668C23.2662 41.9271 23.7812 41.6587 24.2198 41.3065C24.6336 40.9741 25.0965 40.7032 25.4715 40.3231C25.9196 39.8696 26.5665 39.1259 26.0615 38.48C25.5842 37.8697 24.5537 38.0091 23.8859 38.0895C23.5703 38.1272 23.2186 38.1307 22.9115 38.2234C22.8405 38.2448 22.7527 38.279 22.6892 38.3147C22.6421 38.341 22.6014 38.3936 22.5895 38.2135L22.589 38.213Z" fill="#FFA989"/>
<path fill-rule="evenodd" clip-rule="evenodd" d="M25.0711 41.237C25.1173 41.0817 25.1327 41.0128 25.2438 40.9056C25.3599 40.794 25.4646 40.6719 25.5767 40.5568C25.7518 40.3762 26.1239 40.1658 26.3819 40.151C26.499 40.144 26.6578 40.1475 26.7441 40.2422C26.8339 40.341 26.7913 40.5365 26.7451 40.6471C26.698 40.7592 26.6459 40.8401 26.5536 40.921C26.4489 41.0128 26.3254 41.1432 26.2028 41.2087C26.0431 41.2941 25.8431 41.3556 25.668 41.4072C25.5251 41.4494 25.3043 41.5228 25.1694 41.4082C25.09 41.3407 25.0136 41.1814 25.0711 41.237Z" fill="#FFA989"/>
<path fill-rule="evenodd" clip-rule="evenodd" d="M23.1303 44.9378C22.9799 44.972 22.7616 44.9908 22.6262 45.0851C22.5081 45.167 22.4119 45.292 22.326 45.4046C22.1489 45.6378 21.9961 45.8889 21.8195 46.123C21.6746 46.3145 21.5387 46.5279 21.4171 46.7353C21.3342 46.8767 21.2881 47.0091 21.368 47.162C21.5669 47.544 22.1841 47.4512 22.5161 47.3718C22.8738 47.286 23.1943 47.1128 23.5292 46.966C23.8303 46.834 24.1444 46.7204 24.4341 46.5636C24.9328 46.2942 25.5405 46.0198 25.8099 45.489C25.9151 45.2821 25.9553 45.1144 25.8645 44.8961C25.7802 44.6932 25.6279 44.5423 25.4344 44.4367C25.2329 44.3265 25.0136 44.3513 24.7928 44.3498C24.4847 44.3478 24.1444 44.3945 23.8472 44.4838C23.6577 44.5408 23.4602 44.6336 23.2771 44.7085C22.9948 44.8246 22.85 45.0548 23.1308 44.9373L23.1303 44.9378Z" fill="#FFA989"/>
<path fill-rule="evenodd" clip-rule="evenodd" d="M21.3705 45.2538C21.3596 45.1779 21.362 45.1025 21.3774 45.028C21.5104 44.9874 21.5679 44.8395 21.7336 44.8906C21.8552 44.9278 21.8746 45.0677 21.8448 45.1635C21.7843 45.355 21.3164 45.7519 21.3253 45.3441L21.3705 45.2538Z" fill="#FFA989"/>
<path fill-rule="evenodd" clip-rule="evenodd" d="M50.9311 36.2275C50.7058 36.2369 50.4811 36.2543 50.2568 36.2796C50.1973 36.3282 50.1323 36.3694 50.0628 36.4026C49.8306 36.5252 49.6198 36.613 49.4183 36.7871C49.2556 36.9275 48.8721 37.1746 48.8949 37.4356C48.9157 37.6752 49.2635 37.7214 49.4476 37.7224C49.6361 37.7233 49.8271 37.6812 50.0162 37.6712C50.2781 37.6579 50.5366 37.6246 50.7976 37.5934C51.1305 37.5532 51.4858 37.4911 51.78 37.323C51.9551 37.2227 52.0752 37.1161 52.2002 36.9578C52.2577 36.8849 52.3461 36.8119 52.3277 36.7102C52.3158 36.6432 52.1918 36.5078 52.1431 36.4626C52.0712 36.3967 51.97 36.355 51.8812 36.3153C51.451 36.1233 50.9593 36.2741 50.9316 36.227L50.9311 36.2275Z" fill="#FFA989"/>
<path fill-rule="evenodd" clip-rule="evenodd" d="M39.8741 50.6692C39.692 50.7495 39.5789 50.7679 39.4975 50.9371C39.4677 50.9996 39.37 51.1331 39.3725 51.2159C39.376 51.3285 39.4901 51.3236 39.5853 51.2978C39.7084 51.2645 39.8314 51.1529 39.9361 51.0854C40.0224 51.0299 40.082 50.9728 40.1475 50.8939C40.1862 50.8473 40.2199 50.8235 40.2328 50.7595C40.2442 50.7014 40.2139 50.6498 40.2725 50.6126C40.2348 50.3511 39.7411 50.7108 39.6483 50.7148L39.8741 50.6697V50.6692Z" fill="#FFA989"/>
<path fill-rule="evenodd" clip-rule="evenodd" d="M41.1378 50.173C40.8569 50.2976 40.6679 50.3943 40.524 50.6727C40.4789 50.7605 40.4357 50.8518 40.4814 50.9406C40.6277 51.2249 40.9408 50.9718 41.1025 50.8498C41.2142 50.7659 41.3357 50.7069 41.4315 50.6032C41.4751 50.5566 41.5039 50.5025 41.5436 50.4534C41.5793 50.4092 41.6493 50.3616 41.6721 50.308C41.7172 50.2023 41.6443 50.1224 41.5466 50.0917C41.361 50.0336 41.2206 50.1557 41.0475 50.1726H41.1378V50.173Z" fill="#FFA989"/>
<path fill-rule="evenodd" clip-rule="evenodd" d="M26.38 43.9901C26.2966 44.1697 25.996 44.8464 26.3949 44.8425C26.7432 44.839 27.3112 44.4634 27.3301 44.0804C27.3425 43.8244 27.1376 43.6999 26.899 43.6726C26.5958 43.6378 26.4192 43.879 26.2897 44.1255L26.38 43.9901Z" fill="#FFA989"/>
<path fill-rule="evenodd" clip-rule="evenodd" d="M27.4179 38.1679C27.3401 38.2746 27.2299 38.3653 27.3401 38.4745C27.3941 38.5281 27.4507 38.5618 27.5291 38.5727C27.6819 38.5941 27.9081 38.4566 27.9156 38.3033C27.921 38.1882 27.866 38.0949 27.7791 38.0314C27.6556 37.9416 27.5708 37.9982 27.4636 38.0776L27.4184 38.1679H27.4179Z" fill="#FFA989"/>
</g>
<path fill-rule="evenodd" clip-rule="evenodd" d="M31.5924 27.5068C31.5924 27.5068 33.6087 26.8861 34.0538 26.711C34.4983 26.5359 36.7478 26.1702 36.7478 26.1702C36.7478 26.1702 38.6783 25.3411 39.2201 25.0861C39.7619 24.8311 41.1382 24.1544 41.1382 24.1544L42.7412 23.4196C42.7412 23.4196 41.6571 24.5319 40.7095 24.8961C39.7619 25.2603 37.3472 26.2302 37.3472 26.2302C37.3472 26.2302 36.6253 26.4312 35.6097 26.7596C34.5941 27.0876 31.5929 27.5063 31.5929 27.5063L31.5924 27.5068Z" fill="#FFBD4A"/>
<path fill-rule="evenodd" clip-rule="evenodd" d="M44.1443 30.2797L45.0706 30.7258C45.0706 30.7258 46.0281 30.1562 46.178 29.6094C46.178 29.6094 44.3646 30.1086 44.1448 30.2797H44.1443Z" fill="#FFAB4A"/>
<path fill-rule="evenodd" clip-rule="evenodd" d="M39.0336 31.3658L39.4994 31.6342L39.8353 31.0076L39.0336 31.3658Z" fill="#FFAB4A"/>
<path style="mix-blend-mode:multiply" opacity="0.71" fill-rule="evenodd" clip-rule="evenodd" d="M31.5924 37.3949C31.5924 37.3949 32.6869 38.4884 35.0902 39.2252C35.0902 39.2252 35.2594 39.0491 35.4623 38.0161C35.6652 36.9831 35.4623 36.6214 35.4623 36.6214C35.4623 36.6214 32.5118 36.994 31.5924 37.3949Z" fill="url(#paint30_linear_905_6347)"/>
<path style="mix-blend-mode:multiply" opacity="0.71" fill-rule="evenodd" clip-rule="evenodd" d="M33.2079 40.663C33.2079 40.663 33.2401 41.0282 33.3756 41.2792C33.511 41.5303 35.0282 41.9088 35.2292 41.8245C35.6013 41.6682 35.1805 40.7627 35.0228 40.4918C34.865 40.2209 34.607 39.954 34.607 39.954L33.2084 40.6625L33.2079 40.663Z" fill="url(#paint31_linear_905_6347)"/>
<path fill-rule="evenodd" clip-rule="evenodd" d="M23.7852 47.2746C23.7852 47.2746 25.8382 46.3577 26.4812 45.8958C27.1242 45.4339 28.0902 43.7679 28.0902 43.7679L27.0567 46.3364L26.3686 46.5959L25.6353 46.7536L23.7852 47.2741V47.2746Z" fill="#FFAB4A"/>
<path fill-rule="evenodd" clip-rule="evenodd" d="M25.0513 42.1479L26.7967 41.1641C26.7967 41.1641 26.6325 41.7247 26.3819 41.8756C26.1314 42.0264 25.0508 42.1479 25.0508 42.1479H25.0513Z" fill="#FFAB4A"/>
<path fill-rule="evenodd" clip-rule="evenodd" d="M50.0276 37.9511L50.8016 38.5747C50.8016 38.5747 50.9916 38.0642 51.0288 37.9015C51.0665 37.7387 50.0276 37.9506 50.0276 37.9506V37.9511Z" fill="#FF864A"/>
<path fill-rule="evenodd" clip-rule="evenodd" d="M54.4581 31.8262L55.5685 31.4685L56.5414 31.214C56.5414 31.214 55.4549 31.7885 55.2659 31.8902C55.0773 31.9919 54.4576 31.8262 54.4576 31.8262H54.4581Z" fill="#FFAB4A"/>
<path fill-rule="evenodd" clip-rule="evenodd" d="M53.5775 31.4392L53.9784 31.1277V31.5022L53.5775 31.4392Z" fill="#FFAB4A"/>
<path fill-rule="evenodd" clip-rule="evenodd" d="M40.2064 51.6689L41.5336 50.9148L41.3753 51.6153L40.2064 51.6689Z" fill="#FF864A"/>
<path fill-rule="evenodd" clip-rule="evenodd" d="M25.3307 30.059C25.3307 30.059 26.3428 29.9766 26.9367 29.9766C27.5306 29.9766 28.704 30.0922 28.704 30.0922L29.8411 30.2038C29.8411 30.2038 29.1892 30.2569 27.8129 30.2797C26.4366 30.3026 25.3307 30.059 25.3307 30.059Z" fill="#FFB14A"/>
<path fill-rule="evenodd" clip-rule="evenodd" d="M31.0283 36.4487C31.0283 36.4487 32.0662 35.2947 32.5177 35.129C32.9692 34.9633 35.0868 35.9308 35.4594 36.0677C35.832 36.2046 34.7419 38.35 34.4646 38.5747C34.1873 38.7995 31.0735 37.6623 31.0283 36.4483V36.4487Z" fill="url(#paint32_linear_905_6347)"/>
<path fill-rule="evenodd" clip-rule="evenodd" d="M34.9162 41.2782C34.8199 41.5536 33.8728 41.4102 33.5334 41.2782L33.5086 41.2638L33.4372 41.2137C33.4302 41.2102 33.4228 41.2028 33.4193 41.1958C33.1762 40.9458 33.1191 40.2631 33.2834 39.9024C33.2834 39.9024 34.1089 39.6489 34.4126 39.756C34.609 39.824 34.8055 40.3311 34.8914 40.7528V40.7563C34.934 40.9815 34.9484 41.1849 34.9162 41.2777V41.2782Z" fill="url(#paint33_linear_905_6347)"/>
<path style="mix-blend-mode:multiply" opacity="0.5" fill-rule="evenodd" clip-rule="evenodd" d="M33.6777 37.0977L34.4646 38.5752C34.4646 38.5752 35.4723 37.4783 35.5353 36.2156L33.6782 37.0982L33.6777 37.0977Z" fill="url(#paint34_linear_905_6347)"/>
<path fill-rule="evenodd" clip-rule="evenodd" d="M23.4984 32.4776L21.5912 32.94C21.5912 32.94 21.2801 34.043 21.3253 34.5034L22.5071 35.7551C22.5071 35.7551 22.8732 33.5111 23.4984 32.4776Z" fill="url(#paint35_linear_905_6347)"/>
<path fill-rule="evenodd" clip-rule="evenodd" d="M31.0283 36.4488C31.0283 36.4488 31.9596 36.9077 33.1017 37.0977C34.2438 37.2877 35.5348 36.2151 35.5348 36.2151C35.5348 36.2151 34.3113 35.1216 32.5515 34.9187C32.5515 34.9187 31.4004 35.5756 31.0283 36.4488Z" fill="url(#paint36_linear_905_6347)"/>
<path style="mix-blend-mode:multiply" opacity="0.5" fill-rule="evenodd" clip-rule="evenodd" d="M34.9161 41.2782C34.8199 41.5536 33.8727 41.4102 33.5334 41.2782L33.5085 41.2638L33.4371 41.2137L33.4158 41.1993L33.4192 41.1959L33.6762 40.8386L34.734 40.5816L34.8913 40.7533V40.7568C34.934 40.982 34.9484 41.1854 34.9161 41.2782Z" fill="url(#paint37_linear_905_6347)"/>
<path fill-rule="evenodd" clip-rule="evenodd" d="M33.2823 39.9009C33.2823 39.9009 33.2625 40.6575 33.584 40.8089C33.9055 40.9602 34.6383 40.6555 34.735 40.5826C34.8318 40.5097 34.5113 39.8186 34.2339 39.7292C33.9566 39.6399 33.2828 39.9004 33.2828 39.9004L33.2823 39.9009Z" fill="url(#paint38_linear_905_6347)"/>
<path style="mix-blend-mode:multiply" opacity="0.71" fill-rule="evenodd" clip-rule="evenodd" d="M49.7191 49.9825C49.7191 49.9825 49.3584 49.916 49.0805 49.979C48.8022 50.0425 48.3517 51.4962 48.3517 51.7145C48.3517 52.5724 49.3489 52.3293 49.6521 52.2494C49.9552 52.1695 50.0281 51.5201 50.0281 51.5201L49.7191 49.983V49.9825Z" fill="url(#paint39_linear_905_6347)"/>
<path fill-rule="evenodd" clip-rule="evenodd" d="M48.6697 51.464C48.4305 51.2973 48.821 50.4236 49.0393 50.1314L49.0596 50.111L49.1271 50.0555C49.1326 50.0495 49.1415 50.0446 49.149 50.0431C49.4551 49.8759 50.1278 50.0029 50.4315 50.2579C50.4315 50.2579 50.4553 51.1212 50.2707 51.3851C50.1526 51.5563 49.6114 51.6099 49.1822 51.5801L49.1787 51.5791C48.9505 51.5603 48.7501 51.5196 48.6692 51.464H48.6697Z" fill="url(#paint40_linear_905_6347)"/>
<path style="mix-blend-mode:multiply" opacity="0.5" fill-rule="evenodd" clip-rule="evenodd" d="M48.6697 51.464C48.4305 51.2973 48.821 50.4236 49.0393 50.1314L49.0596 50.111L49.1271 50.0554L49.1465 50.0386L49.149 50.043L49.4243 50.3864L49.3896 51.4744L49.1822 51.5801L49.1787 51.5791C48.9505 51.5602 48.7501 51.5196 48.6692 51.464H48.6697Z" fill="url(#paint41_linear_905_6347)"/>
<path fill-rule="evenodd" clip-rule="evenodd" d="M50.4335 50.2579C50.4335 50.2579 49.7096 50.0366 49.4779 50.306C49.2457 50.5754 49.3439 51.3628 49.3881 51.4754C49.4328 51.5881 50.1839 51.4635 50.3442 51.2204C50.5044 50.9773 50.4335 50.2579 50.4335 50.2579Z" fill="url(#paint42_linear_905_6347)"/>
<path fill-rule="evenodd" clip-rule="evenodd" d="M27.2269 48.6906L28.9952 48.8151L31.7299 48.6906L32.6135 49.0001L31.6659 48.8642L29.8411 49.7215L29.7086 49.9691L28.7069 49.6992L27.2269 48.6906Z" fill="url(#paint43_linear_905_6347)"/>
<path fill-rule="evenodd" clip-rule="evenodd" d="M27.2269 48.6906L28.7069 49.6059L29.2343 49.5241L30.0301 49.4566L31.6659 48.8642L29.8411 49.7215L29.7086 49.9691L28.5745 49.7612L27.2269 48.6906Z" fill="url(#paint44_linear_905_6347)"/>
<path fill-rule="evenodd" clip-rule="evenodd" d="M30.6344 27.5991L32.0722 28.4525L33.6777 28.3264L35.6092 26.7601L33.1216 26.582L31.5924 26.9759L30.6344 27.5991Z" fill="url(#paint45_linear_905_6347)"/>
<path fill-rule="evenodd" clip-rule="evenodd" d="M30.6344 27.5991H31.1132L31.9933 27.7941H32.941L33.9734 27.3872L35.1061 26.7601H35.6092C35.6092 26.7601 34.5842 27.8099 33.6777 28.3264L32.0717 28.4524L30.6339 27.5996L30.6344 27.5991Z" fill="url(#paint46_linear_905_6347)"/>
<path fill-rule="evenodd" clip-rule="evenodd" d="M21.7286 47.8055L22.4093 47.1669L23.1521 47.2746C23.1521 47.2746 23.2468 47.7469 23.1521 48.119C23.0573 48.4911 22.4093 48.2589 22.4093 48.2589L21.7286 47.8055Z" fill="url(#paint47_linear_905_6347)"/>
<path fill-rule="evenodd" clip-rule="evenodd" d="M21.7286 47.8055C21.7286 47.8055 22.4143 48.0292 22.5269 48.0292C22.6396 48.0292 22.9104 48.0183 23.0236 47.928C23.1362 47.8377 23.1521 47.2751 23.1521 47.2751C23.1521 47.2751 23.2468 47.804 23.1521 48.1195C23.1521 48.1195 23.1362 48.3904 22.6569 48.3735L22.3409 48.2778L21.7286 47.806V47.8055Z" fill="url(#paint48_linear_905_6347)"/>
<path fill-rule="evenodd" clip-rule="evenodd" d="M51.7864 37.6871C51.7864 37.6871 51.9635 37.2907 52.2002 37.12C52.4373 36.9494 53.1309 36.9687 53.1309 36.9687L53.2178 37.12C53.2178 37.12 52.9786 37.7328 52.7921 37.8404C52.606 37.9481 52.2165 37.8404 52.2165 37.8404L51.7859 37.6871H51.7864Z" fill="url(#paint49_linear_905_6347)"/>
<path fill-rule="evenodd" clip-rule="evenodd" d="M53.1314 36.9687C53.1314 36.9687 52.8858 37.381 52.7166 37.4912C52.5475 37.6013 52.3297 37.6856 52.3297 37.6856C52.3297 37.6856 52.0578 37.7313 51.7864 37.6871C51.7864 37.6871 52.1863 37.8791 52.5023 37.8881C52.5023 37.8881 52.858 37.8935 52.9101 37.8404C52.9622 37.7874 53.2182 37.12 53.2182 37.12L53.1314 36.9687Z" fill="url(#paint50_linear_905_6347)"/>
</g>
<defs>
<filter id="filter0_d_905_6347" x="0" y="0.0766907" width="78.0006" height="75.8466" filterUnits="userSpaceOnUse" color-interpolation-filters="sRGB">
<feFlood flood-opacity="0" result="BackgroundImageFix"/>
<feColorMatrix in="SourceAlpha" type="matrix" values="0 0 0 0 0 0 0 0 0 0 0 0 0 0 0 0 0 0 127 0" result="hardAlpha"/>
<feOffset/>
<feGaussianBlur stdDeviation="10"/>
<feComposite in2="hardAlpha" operator="out"/>
<feColorMatrix type="matrix" values="0 0 0 0 0.996078 0 0 0 0 0.482353 0 0 0 0 0.329412 0 0 0 0.4 0"/>
<feBlend mode="normal" in2="BackgroundImageFix" result="effect1_dropShadow_905_6347"/>
<feBlend mode="normal" in="SourceGraphic" in2="effect1_dropShadow_905_6347" result="shape"/>
</filter>
<linearGradient id="paint0_linear_905_6347" x1="52.3192" y1="49.3404" x2="48.5082" y2="37.442" gradientUnits="userSpaceOnUse">
<stop stop-color="#5B006F"/>
<stop offset="0.02" stop-color="#5C0270"/>
<stop offset="0.23" stop-color="#691A7B"/>
<stop offset="0.46" stop-color="#732B84"/>
<stop offset="0.7" stop-color="#793589"/>
<stop offset="0.99" stop-color="#7B398B"/>
</linearGradient>
<radialGradient id="paint1_radial_905_6347" cx="0" cy="0" r="1" gradientUnits="userSpaceOnUse" gradientTransform="translate(30.4439 32.1641) scale(27.1901)">
<stop stop-color="#9D4863"/>
<stop offset="0.24" stop-color="#994562"/>
<stop offset="0.42" stop-color="#903C61"/>
<stop offset="0.58" stop-color="#7F2D5E"/>
<stop offset="0.73" stop-color="#68195B"/>
<stop offset="0.87" stop-color="#4C0057"/>
<stop offset="0.98" stop-color="#4C0086"/>
</radialGradient>
<linearGradient id="paint2_linear_905_6347" x1="29.3212" y1="46.5462" x2="36.3788" y2="46.5462" gradientUnits="userSpaceOnUse">
<stop stop-color="#CA528D"/>
<stop offset="1" stop-color="#8E7090"/>
</linearGradient>
<linearGradient id="paint3_linear_905_6347" x1="46.9932" y1="43.1918" x2="53.7154" y2="43.1918" gradientUnits="userSpaceOnUse">
<stop stop-color="#CA528D"/>
<stop offset="1" stop-color="#8E7090"/>
</linearGradient>
<linearGradient id="paint4_linear_905_6347" x1="53.5775" y1="37.064" x2="56.0557" y2="37.064" gradientUnits="userSpaceOnUse">
<stop stop-color="#CA528D"/>
<stop offset="1" stop-color="#8E7090"/>
</linearGradient>
<linearGradient id="paint5_linear_905_6347" x1="24.1235" y1="31.4685" x2="53.7085" y2="31.4685" gradientUnits="userSpaceOnUse">
<stop stop-color="#CA528D"/>
<stop offset="1" stop-color="#8E7090"/>
</linearGradient>
<linearGradient id="paint6_linear_905_6347" x1="24.1235" y1="26.9759" x2="51.8643" y2="26.9759" gradientUnits="userSpaceOnUse">
<stop stop-color="#DE6863"/>
<stop offset="0.25" stop-color="#DB6462"/>
<stop offset="0.43" stop-color="#D35B61"/>
<stop offset="0.6" stop-color="#C54A5F"/>
<stop offset="0.76" stop-color="#B1335C"/>
<stop offset="0.91" stop-color="#981559"/>
<stop offset="1" stop-color="#860057"/>
</linearGradient>
<linearGradient id="paint7_linear_905_6347" x1="27.2269" y1="54.1045" x2="27.2269" y2="37.0977" gradientUnits="userSpaceOnUse">
<stop stop-color="#860057"/>
<stop offset="0.03" stop-color="#8C0656"/>
<stop offset="0.19" stop-color="#A92455"/>
<stop offset="0.36" stop-color="#C03B54"/>
<stop offset="0.54" stop-color="#D14C54"/>
<stop offset="0.74" stop-color="#DA5554"/>
<stop offset="0.99" stop-color="#DE5954"/>
</linearGradient>
<linearGradient id="paint8_linear_905_6347" x1="38.916" y1="52.3417" x2="43.8353" y2="52.3417" gradientUnits="userSpaceOnUse">
<stop stop-color="#CA528D"/>
<stop offset="1" stop-color="#8E7090"/>
</linearGradient>
<linearGradient id="paint9_linear_905_6347" x1="55.26" y1="36.0697" x2="55.26" y2="29.5663" gradientUnits="userSpaceOnUse">
<stop stop-color="#860057"/>
<stop offset="0.03" stop-color="#880456"/>
<stop offset="0.23" stop-color="#951B55"/>
<stop offset="0.45" stop-color="#9D2C54"/>
<stop offset="0.69" stop-color="#A33554"/>
<stop offset="0.99" stop-color="#A53954"/>
</linearGradient>
<linearGradient id="paint10_linear_905_6347" x1="50.6343" y1="43.3853" x2="50.6343" y2="35.6242" gradientUnits="userSpaceOnUse">
<stop stop-color="#860057"/>
<stop offset="0.03" stop-color="#880456"/>
<stop offset="0.23" stop-color="#951B55"/>
<stop offset="0.45" stop-color="#9D2C54"/>
<stop offset="0.69" stop-color="#A33554"/>
<stop offset="0.99" stop-color="#A53954"/>
</linearGradient>
<linearGradient id="paint11_linear_905_6347" x1="35.7173" y1="27.9623" x2="35.7173" y2="20.0766" gradientUnits="userSpaceOnUse">
<stop stop-color="#F49F57"/>
<stop offset="0.1" stop-color="#F69656"/>
<stop offset="0.35" stop-color="#FB8555"/>
<stop offset="0.63" stop-color="#FE7C54"/>
<stop offset="0.99" stop-color="#FF7954"/>
</linearGradient>
<linearGradient id="paint12_linear_905_6347" x1="43.2478" y1="31.3658" x2="43.2478" y2="23.6483" gradientUnits="userSpaceOnUse">
<stop stop-color="#F47D57"/>
<stop offset="0.4" stop-color="#FB7A54"/>
<stop offset="0.99" stop-color="#FF7954"/>
</linearGradient>
<linearGradient id="paint13_linear_905_6347" x1="24.1235" y1="29.6094" x2="31.3444" y2="29.6094" gradientUnits="userSpaceOnUse">
<stop stop-color="#F49F57"/>
<stop offset="0.1" stop-color="#F69656"/>
<stop offset="0.35" stop-color="#FB8555"/>
<stop offset="0.63" stop-color="#FE7C54"/>
<stop offset="0.99" stop-color="#FF7954"/>
</linearGradient>
<linearGradient id="paint14_linear_905_6347" x1="48.0862" y1="36.8015" x2="53.9719" y2="36.8015" gradientUnits="userSpaceOnUse">
<stop stop-color="#C75357"/>
<stop offset="0.13" stop-color="#D25856"/>
<stop offset="0.37" stop-color="#E35F54"/>
<stop offset="0.65" stop-color="#EC6354"/>
<stop offset="0.99" stop-color="#F06554"/>
</linearGradient>
<linearGradient id="paint15_linear_905_6347" x1="20.0006" y1="40.2145" x2="29.3201" y2="40.2145" gradientUnits="userSpaceOnUse">
<stop stop-color="#F49F57"/>
<stop offset="0.1" stop-color="#F69656"/>
<stop offset="0.35" stop-color="#FB8555"/>
<stop offset="0.63" stop-color="#FE7C54"/>
<stop offset="0.99" stop-color="#FF7954"/>
</linearGradient>
<linearGradient id="paint16_linear_905_6347" x1="20.9621" y1="45.1645" x2="28.7069" y2="45.1645" gradientUnits="userSpaceOnUse">
<stop stop-color="#F49F57"/>
<stop offset="0.1" stop-color="#F69656"/>
<stop offset="0.35" stop-color="#FB8555"/>
<stop offset="0.63" stop-color="#FE7C54"/>
<stop offset="0.99" stop-color="#FF7954"/>
</linearGradient>
<linearGradient id="paint17_linear_905_6347" x1="40.9968" y1="53.39" x2="40.9968" y2="49.6183" gradientUnits="userSpaceOnUse">
<stop stop-color="#860057"/>
<stop offset="0.03" stop-color="#880456"/>
<stop offset="0.23" stop-color="#951B55"/>
<stop offset="0.45" stop-color="#9D2C54"/>
<stop offset="0.69" stop-color="#A33554"/>
<stop offset="0.99" stop-color="#A53954"/>
</linearGradient>
<linearGradient id="paint18_linear_905_6347" x1="38.7458" y1="50.6603" x2="42.4014" y2="50.6603" gradientUnits="userSpaceOnUse">
<stop stop-color="#C75357"/>
<stop offset="0.26" stop-color="#D15048"/>
<stop offset="0.58" stop-color="#D84F3F"/>
<stop offset="0.99" stop-color="#DB4F3C"/>
</linearGradient>
<linearGradient id="paint19_linear_905_6347" x1="26.2629" y1="45.8958" x2="34.4126" y2="45.8958" gradientUnits="userSpaceOnUse">
<stop stop-color="#CA528D"/>
<stop offset="1" stop-color="#8E7090"/>
</linearGradient>
<linearGradient id="paint20_linear_905_6347" x1="41.1089" y1="51.6798" x2="43.2478" y2="51.6798" gradientUnits="userSpaceOnUse">
<stop stop-color="#CA528D"/>
<stop offset="1" stop-color="#8E7090"/>
</linearGradient>
<linearGradient id="paint21_linear_905_6347" x1="50.6344" y1="40.0517" x2="54.2934" y2="40.0517" gradientUnits="userSpaceOnUse">
<stop stop-color="#CA528D"/>
<stop offset="1" stop-color="#8E7090"/>
</linearGradient>
<linearGradient id="paint22_linear_905_6347" x1="53.8643" y1="30.7258" x2="55.2664" y2="30.7258" gradientUnits="userSpaceOnUse">
<stop stop-color="#CA528D"/>
<stop offset="1" stop-color="#8E7090"/>
</linearGradient>
<linearGradient id="paint23_linear_905_6347" x1="53.5775" y1="33.1449" x2="58.0006" y2="33.1449" gradientUnits="userSpaceOnUse">
<stop stop-color="#CA528D"/>
<stop offset="1" stop-color="#8E7090"/>
</linearGradient>
<linearGradient id="paint24_linear_905_6347" x1="52.4848" y1="30.9091" x2="55.0296" y2="30.4466" gradientUnits="userSpaceOnUse">
<stop stop-color="#F47D57"/>
<stop offset="0.4" stop-color="#FB7A54"/>
<stop offset="0.99" stop-color="#FF7954"/>
</linearGradient>
<linearGradient id="paint25_linear_905_6347" x1="53.8168" y1="31.0074" x2="57.8787" y2="30.2692" gradientUnits="userSpaceOnUse">
<stop stop-color="#F47D57"/>
<stop offset="0.4" stop-color="#FB7A54"/>
<stop offset="0.99" stop-color="#FF7954"/>
</linearGradient>
<linearGradient id="paint26_linear_905_6347" x1="35.7174" y1="25.3992" x2="47.8848" y2="25.3992" gradientUnits="userSpaceOnUse">
<stop stop-color="#CA528D"/>
<stop offset="1" stop-color="#8E7090"/>
</linearGradient>
<linearGradient id="paint27_linear_905_6347" x1="39.4677" y1="31.7161" x2="42.5442" y2="31.7161" gradientUnits="userSpaceOnUse">
<stop stop-color="#CA528D"/>
<stop offset="1" stop-color="#8E7090"/>
</linearGradient>
<linearGradient id="paint28_linear_905_6347" x1="44.8385" y1="29.1426" x2="51.8644" y2="29.1426" gradientUnits="userSpaceOnUse">
<stop stop-color="#CA528D"/>
<stop offset="1" stop-color="#8E7090"/>
</linearGradient>
<linearGradient id="paint29_linear_905_6347" x1="25.4264" y1="31.7845" x2="30.6344" y2="31.7845" gradientUnits="userSpaceOnUse">
<stop stop-color="#CA528D"/>
<stop offset="1" stop-color="#8E7090"/>
</linearGradient>
<linearGradient id="paint30_linear_905_6347" x1="31.5924" y1="37.9233" x2="35.5526" y2="37.9233" gradientUnits="userSpaceOnUse">
<stop stop-color="#CA528D"/>
<stop offset="1" stop-color="#8E7090"/>
</linearGradient>
<linearGradient id="paint31_linear_905_6347" x1="33.2079" y1="40.8957" x2="35.3785" y2="40.8957" gradientUnits="userSpaceOnUse">
<stop stop-color="#CA528D"/>
<stop offset="1" stop-color="#8E7090"/>
</linearGradient>
<linearGradient id="paint32_linear_905_6347" x1="33.2823" y1="38.6035" x2="33.2823" y2="35.1102" gradientUnits="userSpaceOnUse">
<stop stop-color="#A20057"/>
<stop offset="0.28" stop-color="#BA2355"/>
<stop offset="0.57" stop-color="#CD4054"/>
<stop offset="0.82" stop-color="#D95254"/>
<stop offset="0.99" stop-color="#DE5954"/>
</linearGradient>
<linearGradient id="paint33_linear_905_6347" x1="34.0618" y1="41.4355" x2="34.0618" y2="39.7297" gradientUnits="userSpaceOnUse">
<stop stop-color="#A20057"/>
<stop offset="0.28" stop-color="#BA2355"/>
<stop offset="0.57" stop-color="#CD4054"/>
<stop offset="0.82" stop-color="#D95254"/>
<stop offset="0.99" stop-color="#DE5954"/>
</linearGradient>
<linearGradient id="paint34_linear_905_6347" x1="33.6777" y1="37.3949" x2="35.5353" y2="37.3949" gradientUnits="userSpaceOnUse">
<stop stop-color="#CA528D"/>
<stop offset="1" stop-color="#8E7090"/>
</linearGradient>
<linearGradient id="paint35_linear_905_6347" x1="22.4093" y1="35.7551" x2="22.4093" y2="32.4776" gradientUnits="userSpaceOnUse">
<stop stop-color="#A20057"/>
<stop offset="0.28" stop-color="#BA2355"/>
<stop offset="0.57" stop-color="#CD4054"/>
<stop offset="0.82" stop-color="#D95254"/>
<stop offset="0.99" stop-color="#DE5954"/>
</linearGradient>
<linearGradient id="paint36_linear_905_6347" x1="33.2818" y1="37.1205" x2="33.2818" y2="34.9187" gradientUnits="userSpaceOnUse">
<stop stop-color="#F49F57"/>
<stop offset="0.1" stop-color="#F69656"/>
<stop offset="0.35" stop-color="#FB8555"/>
<stop offset="0.63" stop-color="#FE7C54"/>
<stop offset="0.99" stop-color="#FF7954"/>
</linearGradient>
<linearGradient id="paint37_linear_905_6347" x1="33.4158" y1="41.0083" x2="34.934" y2="41.0083" gradientUnits="userSpaceOnUse">
<stop stop-color="#CA528D"/>
<stop offset="1" stop-color="#8E7090"/>
</linearGradient>
<linearGradient id="paint38_linear_905_6347" x1="34.0171" y1="40.8505" x2="34.0171" y2="39.7109" gradientUnits="userSpaceOnUse">
<stop stop-color="#F47D57"/>
<stop offset="0.4" stop-color="#FB7A54"/>
<stop offset="0.99" stop-color="#FF7954"/>
</linearGradient>
<linearGradient id="paint39_linear_905_6347" x1="49.6344" y1="49.9629" x2="48.9669" y2="52.3696" gradientUnits="userSpaceOnUse">
<stop stop-color="#CA528D"/>
<stop offset="1" stop-color="#8E7090"/>
</linearGradient>
<linearGradient id="paint40_linear_905_6347" x1="48.7338" y1="50.5998" x2="50.3771" y2="51.0555" gradientUnits="userSpaceOnUse">
<stop stop-color="#A20057"/>
<stop offset="0.28" stop-color="#BA2355"/>
<stop offset="0.57" stop-color="#CD4054"/>
<stop offset="0.82" stop-color="#D95254"/>
<stop offset="0.99" stop-color="#DE5954"/>
</linearGradient>
<linearGradient id="paint41_linear_905_6347" x1="49.3176" y1="50.0913" x2="48.9121" y2="51.5538" gradientUnits="userSpaceOnUse">
<stop stop-color="#CA528D"/>
<stop offset="1" stop-color="#8E7090"/>
</linearGradient>
<linearGradient id="paint42_linear_905_6347" x1="49.309" y1="50.713" x2="50.4072" y2="51.0175" gradientUnits="userSpaceOnUse">
<stop stop-color="#F47D57"/>
<stop offset="0.4" stop-color="#FB7A54"/>
<stop offset="0.99" stop-color="#FF7954"/>
</linearGradient>
<linearGradient id="paint43_linear_905_6347" x1="27.2269" y1="49.3301" x2="32.6135" y2="49.3301" gradientUnits="userSpaceOnUse">
<stop stop-color="#860057"/>
<stop offset="0.21" stop-color="#89094C"/>
<stop offset="0.55" stop-color="#8D1343"/>
<stop offset="0.99" stop-color="#8F1640"/>
</linearGradient>
<linearGradient id="paint44_linear_905_6347" x1="27.2269" y1="49.3301" x2="31.6659" y2="49.3301" gradientUnits="userSpaceOnUse">
<stop stop-color="#F49F57"/>
<stop offset="0.1" stop-color="#F69656"/>
<stop offset="0.35" stop-color="#FB8555"/>
<stop offset="0.63" stop-color="#FE7C54"/>
<stop offset="0.99" stop-color="#FF7954"/>
</linearGradient>
<linearGradient id="paint45_linear_905_6347" x1="33.1216" y1="28.4525" x2="33.1216" y2="26.582" gradientUnits="userSpaceOnUse">
<stop stop-color="#860057"/>
<stop offset="0.03" stop-color="#880456"/>
<stop offset="0.23" stop-color="#951B55"/>
<stop offset="0.45" stop-color="#9D2C54"/>
<stop offset="0.69" stop-color="#A33554"/>
<stop offset="0.99" stop-color="#A53954"/>
</linearGradient>
<linearGradient id="paint46_linear_905_6347" x1="30.6344" y1="27.606" x2="35.6092" y2="27.606" gradientUnits="userSpaceOnUse">
<stop stop-color="#F49F57"/>
<stop offset="0.1" stop-color="#F69656"/>
<stop offset="0.35" stop-color="#FB8555"/>
<stop offset="0.63" stop-color="#FE7C54"/>
<stop offset="0.99" stop-color="#FF7954"/>
</linearGradient>
<linearGradient id="paint47_linear_905_6347" x1="22.4614" y1="48.3309" x2="22.4614" y2="47.1669" gradientUnits="userSpaceOnUse">
<stop stop-color="#860057"/>
<stop offset="0.03" stop-color="#880456"/>
<stop offset="0.23" stop-color="#951B55"/>
<stop offset="0.45" stop-color="#9D2C54"/>
<stop offset="0.69" stop-color="#A33554"/>
<stop offset="0.99" stop-color="#A53954"/>
</linearGradient>
<linearGradient id="paint48_linear_905_6347" x1="21.7286" y1="47.8243" x2="23.1942" y2="47.8243" gradientUnits="userSpaceOnUse">
<stop stop-color="#F49F57"/>
<stop offset="0.1" stop-color="#F69656"/>
<stop offset="0.35" stop-color="#FB8555"/>
<stop offset="0.63" stop-color="#FE7C54"/>
<stop offset="0.99" stop-color="#FF7954"/>
</linearGradient>
<linearGradient id="paint49_linear_905_6347" x1="51.7864" y1="37.4281" x2="53.2182" y2="37.4281" gradientUnits="userSpaceOnUse">
<stop stop-color="#860057"/>
<stop offset="0.21" stop-color="#89094C"/>
<stop offset="0.55" stop-color="#8D1343"/>
<stop offset="0.99" stop-color="#8F1640"/>
</linearGradient>
<linearGradient id="paint50_linear_905_6347" x1="51.7864" y1="37.4286" x2="53.2182" y2="37.4286" gradientUnits="userSpaceOnUse">
<stop stop-color="#C75357"/>
<stop offset="0.13" stop-color="#D25856"/>
<stop offset="0.37" stop-color="#E35F54"/>
<stop offset="0.65" stop-color="#EC6354"/>
<stop offset="0.99" stop-color="#F06554"/>
</linearGradient>
</defs>
</svg>
